<?xml version="1.0" encoding="UTF-8"?>
<svg id="Layer_1" data-name="Layer 1" xmlns="http://www.w3.org/2000/svg" viewBox="0 0 48 48">
  <defs>
    <style>
      .cls-1 {
        fill: #4170ff;
      }
    </style>
  </defs>
  <path class="cls-1" d="M5.95,35.23v-3.73h5.12l-.75-.65c-1.62-1.43-2.75-3.06-3.4-4.89s-.98-3.68-.98-5.54c0-3.45,1.03-6.51,3.1-9.2,2.07-2.69,4.76-4.46,8.08-5.33v3.91c-2.24.81-4.04,2.18-5.4,4.12-1.37,1.94-2.05,4.11-2.05,6.5,0,1.4.26,2.76.79,4.08.53,1.32,1.35,2.54,2.47,3.66l.47.47v-4.57h3.73v11.18H5.95ZM39.35,18.46h-3.77c-.16-1.09-.49-2.13-1-3.12s-1.2-1.94-2.07-2.84l-.47-.47v4.57h-3.73V5.41h11.18v3.73h-5.12l.75.65c1.27,1.3,2.25,2.69,2.94,4.15s1.12,2.97,1.3,4.52ZM29.08,42.59l-.67-3.33c-.44-.18-.86-.38-1.25-.58-.39-.2-.79-.45-1.19-.75l-3.22,1-2.22-3.77,2.55-2.22c-.07-.52-.11-1-.11-1.44s.04-.92.11-1.44l-2.55-2.22,2.22-3.77,3.22,1c.41-.3.8-.55,1.19-.75s.8-.4,1.25-.58l.67-3.33h4.44l.67,3.33c.44.18.86.39,1.25.61s.79.5,1.19.83l3.22-1.11,2.22,3.88-2.55,2.22c.07.44.11.91.11,1.39s-.04.94-.11,1.39l2.55,2.22-2.22,3.77-3.22-1c-.41.3-.8.55-1.19.75-.39.2-.8.4-1.25.58l-.67,3.33h-4.44ZM31.3,35.94c1.22,0,2.26-.43,3.13-1.3s1.3-1.91,1.3-3.13-.43-2.26-1.3-3.13-1.91-1.3-3.13-1.3-2.26.43-3.13,1.3-1.3,1.91-1.3,3.13.43,2.26,1.3,3.13,1.91,1.3,3.13,1.3Z"/>
</svg>