<?xml version="1.0" encoding="UTF-8"?>
<svg id="Layer_1" data-name="Layer 1" xmlns="http://www.w3.org/2000/svg" viewBox="0 0 48 48">
  <defs>
    <style>
      .cls-1 {
        fill: #4170ff;
      }
    </style>
  </defs>
  <path class="cls-1" d="M8.34,37.92c-.96,0-1.78-.34-2.46-1.02-.68-.68-1.02-1.5-1.02-2.46V15.3h3.48v19.14h29.58v3.48H8.34ZM15.3,30.96c-.96,0-1.78-.34-2.46-1.02s-1.02-1.5-1.02-2.46v-13.92c0-.96.34-1.78,1.02-2.46s1.5-1.02,2.46-1.02h24.36c.96,0,1.78.34,2.46,1.02s1.02,1.5,1.02,2.46v13.92c0,.96-.34,1.78-1.02,2.46s-1.5,1.02-2.46,1.02H15.3ZM18.78,27.48c0-.96-.34-1.78-1.02-2.46s-1.5-1.02-2.46-1.02v3.48h3.48ZM36.18,27.48h3.48v-3.48c-.96,0-1.78.34-2.46,1.02-.68.68-1.02,1.5-1.02,2.46ZM27.48,25.74c1.45,0,2.68-.51,3.7-1.52s1.52-2.25,1.52-3.7-.51-2.68-1.52-3.7c-1.01-1.01-2.25-1.52-3.7-1.52s-2.68.51-3.7,1.52c-1.01,1.01-1.52,2.25-1.52,3.7s.51,2.68,1.52,3.7c1.01,1.01,2.25,1.52,3.7,1.52ZM15.3,17.04c.96,0,1.78-.34,2.46-1.02s1.02-1.5,1.02-2.46h-3.48v3.48ZM39.66,17.04v-3.48h-3.48c0,.96.34,1.78,1.02,2.46.68.68,1.5,1.02,2.46,1.02Z"/>
</svg>