<?xml version="1.0" encoding="UTF-8"?>
<svg id="Layer_1" data-name="Layer 1" xmlns="http://www.w3.org/2000/svg" viewBox="0 0 48 48">
  <defs>
    <style>
      .cls-1 {
        fill: #4170ff;
      }
    </style>
  </defs>
  <path class="cls-1" d="M21.96,34.21h4.08l.61-3.06c.41-.17.79-.35,1.15-.54s.72-.42,1.1-.69l2.96.92,2.04-3.47-2.35-2.04c.07-.48.1-.92.1-1.33s-.03-.85-.1-1.33l2.35-2.04-2.04-3.47-2.96.92c-.37-.27-.74-.5-1.1-.69s-.74-.37-1.15-.54l-.61-3.06h-4.08l-.61,3.06c-.41.17-.79.35-1.15.54s-.72.42-1.1.69l-2.96-.92-2.04,3.47,2.35,2.04c-.07.48-.1.92-.1,1.33s.03.85.1,1.33l-2.35,2.04,2.04,3.47,2.96-.92c.37.27.74.5,1.1.69s.74.37,1.15.54l.61,3.06ZM24,28.08c-1.12,0-2.08-.4-2.88-1.2s-1.2-1.76-1.2-2.88.4-2.08,1.2-2.88,1.76-1.2,2.88-1.2,2.08.4,2.88,1.2,1.2,1.76,1.2,2.88-.4,2.08-1.2,2.88-1.76,1.2-2.88,1.2ZM9.71,42.37c-1.12,0-2.08-.4-2.88-1.2-.8-.8-1.2-1.76-1.2-2.88V9.71c0-1.12.4-2.08,1.2-2.88.8-.8,1.76-1.2,2.88-1.2h28.58c1.12,0,2.08.4,2.88,1.2s1.2,1.76,1.2,2.88v28.58c0,1.12-.4,2.08-1.2,2.88-.8.8-1.76,1.2-2.88,1.2H9.71ZM9.71,38.29h28.58V9.71H9.71v28.58ZM9.71,9.71v28.58V9.71Z"/>
</svg>