<?xml version="1.0" encoding="UTF-8"?>
<svg id="Layer_1" data-name="Layer 1" xmlns="http://www.w3.org/2000/svg" viewBox="0 0 48 48">
  <defs>
    <style>
      .cls-1 {
        fill: #4170ff;
      }
    </style>
  </defs>
  <path class="cls-1" d="M17.97,42.1c-2.21,0-4.11-.79-5.68-2.36-1.58-1.58-2.36-3.47-2.36-5.68v-16.44c-1.17-.44-2.14-1.16-2.89-2.19-.75-1.02-1.13-2.19-1.13-3.49,0-1.68.59-3.1,1.76-4.27,1.17-1.17,2.6-1.76,4.27-1.76s3.1.59,4.27,1.76c1.17,1.17,1.76,2.6,1.76,4.27,0,1.31-.38,2.47-1.13,3.49-.75,1.02-1.72,1.75-2.89,2.19v16.44c0,1.11.39,2.05,1.18,2.84.79.79,1.73,1.18,2.84,1.18s2.05-.39,2.84-1.18,1.18-1.73,1.18-2.84V13.95c0-2.21.79-4.11,2.36-5.68,1.58-1.58,3.47-2.36,5.68-2.36s4.11.79,5.68,2.36,2.36,3.47,2.36,5.68v16.44c1.17.44,2.14,1.16,2.89,2.19s1.13,2.19,1.13,3.49c0,1.68-.59,3.1-1.76,4.27-1.17,1.17-2.6,1.76-4.27,1.76s-3.1-.59-4.27-1.76c-1.17-1.17-1.76-2.6-1.76-4.27,0-1.31.38-2.48,1.13-3.52s1.72-1.76,2.89-2.16V13.95c0-1.11-.39-2.05-1.18-2.84s-1.73-1.18-2.84-1.18-2.05.39-2.84,1.18-1.18,1.73-1.18,2.84v20.11c0,2.21-.79,4.11-2.36,5.68-1.58,1.58-3.47,2.36-5.68,2.36ZM11.93,13.95c.57,0,1.05-.19,1.43-.58.39-.39.58-.86.58-1.43s-.19-1.05-.58-1.43-.86-.58-1.43-.58-1.05.19-1.43.58-.58.86-.58,1.43.19,1.05.58,1.43.86.58,1.43.58ZM36.07,38.08c.57,0,1.05-.19,1.43-.58s.58-.86.58-1.43-.19-1.05-.58-1.43-.86-.58-1.43-.58-1.05.19-1.43.58c-.39.39-.58.86-.58,1.43s.19,1.05.58,1.43.86.58,1.43.58Z"/>
</svg>