<?xml version="1.0" encoding="UTF-8"?>
<svg id="Layer_1" data-name="Layer 1" xmlns="http://www.w3.org/2000/svg" viewBox="0 0 48 48">
  <defs>
    <style>
      .cls-1 {
        fill: #4170ff;
      }
    </style>
  </defs>
  <path class="cls-1" d="M24,20.63l-5.89-5.89,5.89-5.89,5.89,5.89-5.89,5.89ZM5.48,39.16v-6.74c0-.95.33-1.75.99-2.4.66-.65,1.45-.97,2.38-.97h5.51c.56,0,1.09.14,1.6.42s.91.66,1.22,1.14c.81,1.09,1.82,1.95,3.01,2.57s2.46.93,3.81.93,2.66-.31,3.85-.93,2.18-1.47,2.97-2.57c.36-.48.79-.86,1.28-1.14s1-.42,1.54-.42h5.51c.95,0,1.75.32,2.4.97s.97,1.45.97,2.4v6.74h-11.79v-3.83c-.98.7-2.04,1.23-3.18,1.6s-2.32.55-3.56.55-2.39-.19-3.54-.57c-1.15-.38-2.22-.92-3.2-1.62v3.87H5.48ZM10.53,27.37c-1.4,0-2.6-.49-3.58-1.47-.98-.98-1.47-2.18-1.47-3.58s.49-2.63,1.47-3.6c.98-.97,2.18-1.45,3.58-1.45s2.63.48,3.6,1.45,1.45,2.17,1.45,3.6-.48,2.6-1.45,3.58c-.97.98-2.17,1.47-3.6,1.47ZM37.47,27.37c-1.4,0-2.6-.49-3.58-1.47-.98-.98-1.47-2.18-1.47-3.58s.49-2.63,1.47-3.6c.98-.97,2.18-1.45,3.58-1.45s2.63.48,3.6,1.45c.97.97,1.45,2.17,1.45,3.6s-.48,2.6-1.45,3.58-2.17,1.47-3.6,1.47Z"/>
</svg>