<?xml version="1.0" encoding="UTF-8"?>
<svg id="Layer_1" data-name="Layer 1" xmlns="http://www.w3.org/2000/svg" viewBox="0 0 48 48">
  <defs>
    <style>
      .cls-1 {
        fill: #4170ff;
      }
    </style>
  </defs>
  <path class="cls-1" d="M16,36h16v-4h-16v4ZM16,28h16v-4h-16v4ZM12,44c-1.1,0-2.04-.39-2.82-1.17s-1.17-1.72-1.17-2.82V8c0-1.1.39-2.04,1.17-2.82s1.72-1.17,2.82-1.17h16l12,12v23.99c0,1.1-.39,2.04-1.17,2.82s-1.72,1.17-2.82,1.17H12ZM26,18v-10h-14v31.99h23.99v-22h-10ZM12,8v10-10,31.99V8Z"/>
</svg>