<?xml version="1.0" encoding="UTF-8"?>
<svg id="Layer_1" data-name="Layer 1" xmlns="http://www.w3.org/2000/svg" viewBox="0 0 48 48">
  <defs>
    <style>
      .cls-1 {
        fill: #4170ff;
      }
    </style>
  </defs>
  <path class="cls-1" d="M14.82,41.1l-2.52-2.52,12.42-12.47,6.3,6.3,9.32-9.32,2.57,2.57-11.88,11.84-6.3-6.3-9.9,9.9ZM8.7,39.3c-.99,0-1.84-.35-2.54-1.06-.71-.71-1.06-1.55-1.06-2.54V10.5c0-.99.35-1.84,1.06-2.54s1.55-1.06,2.54-1.06h25.21c.99,0,1.84.35,2.54,1.06s1.06,1.55,1.06,2.54v7.56H8.7v21.25ZM8.7,14.46h25.21v-3.96H8.7v3.96ZM8.7,14.46v-3.96,3.96Z"/>
</svg>