<?xml version="1.0" encoding="UTF-8"?>
<svg id="Layer_1" data-name="Layer 1" xmlns="http://www.w3.org/2000/svg" viewBox="0 0 48 48">
  <defs>
    <style>
      .cls-1 {
        fill: #4170ff;
      }
    </style>
  </defs>
  <path class="cls-1" d="M32.59,40.9l-.56-2.82c-.38-.16-.73-.32-1.06-.49s-.67-.38-1.01-.63l-2.72.85-1.88-3.19,2.16-1.88c-.06-.38-.09-.78-.09-1.22s.03-.85.09-1.22l-2.16-1.88,1.88-3.19,2.72.85c.34-.25.68-.46,1.01-.63s.68-.34,1.06-.49l.56-2.82h3.76l.56,2.82c.38.16.73.32,1.06.49s.67.38,1.01.63l2.72-.85,1.88,3.19-2.16,1.88c.06.38.09.78.09,1.22s-.03.85-.09,1.22l2.16,1.88-1.88,3.19-2.72-.85c-.34.25-.68.46-1.01.63s-.68.34-1.06.49l-.56,2.82h-3.76ZM34.47,35.27c1.03,0,1.92-.37,2.65-1.1s1.1-1.62,1.1-2.65-.37-1.92-1.1-2.65-1.62-1.1-2.65-1.1-1.92.37-2.65,1.1-1.1,1.62-1.1,2.65.37,1.92,1.1,2.65,1.62,1.1,2.65,1.1ZM8.18,37.15c-1.03,0-1.92-.37-2.65-1.1s-1.1-1.62-1.1-2.65V10.85c0-1.03.37-1.92,1.1-2.65s1.62-1.1,2.65-1.1h11.27l3.76,3.76h15.02c1.03,0,1.92.37,2.65,1.1s1.1,1.62,1.1,2.65v6.15c-1.1-.78-2.29-1.38-3.57-1.78s-2.61-.61-3.99-.61c-3.69,0-6.8,1.29-9.32,3.87-2.52,2.58-3.78,5.66-3.78,9.23,0,1,.11,1.97.33,2.91s.55,1.86.99,2.77h-14.46Z"/>
</svg>