<?xml version="1.0" encoding="UTF-8"?>
<svg id="Layer_1" data-name="Layer 1" xmlns="http://www.w3.org/2000/svg" viewBox="0 0 48 48">
  <defs>
    <style>
      .cls-1 {
        fill: #4170ff;
      }
    </style>
  </defs>
  <path class="cls-1" d="M43.76,31.76h-1.41V13.41c0-2.34-1.9-4.24-4.24-4.24H9.88c-2.34,0-4.24,1.9-4.24,4.24v13.41c0,.78.63,1.41,1.41,1.41s1.41-.63,1.41-1.41v-13.41c0-.78.63-1.41,1.41-1.41h28.23c.78,0,1.41.63,1.41,1.41v18.35h-7.76c-.39,0-.71.32-.71.71v.71c0,.39-.32.71-.71.71h-12.71c-.39,0-.71-.32-.71-.71v-.71c0-.19-.08-.37-.21-.5-.14-.12-.31-.2-.49-.2h-3.67l4.01-4.01,3.59,3.59c.55.55,1.44.55,1.99,0l12.43-12.4v2.94c0,.78.63,1.41,1.41,1.41s1.41-.63,1.41-1.41v-6.35c0-.78-.63-1.41-1.41-1.41h-6.35c-.78,0-1.41.63-1.41,1.41s.63,1.41,1.41,1.41h2.94l-11.41,11.41-3.59-3.59c-.55-.55-1.44-.55-1.99,0l-6.71,6.71c-.09.09-.17.19-.23.3h-4.33c-.83,0-1.5.67-1.5,1.5,0,0,0,0,0,0v2c0,1.95,1.58,3.53,3.53,3.53h35.39c1.89,0,3.43-1.54,3.43-3.43v-2.17c.03-.78-.58-1.43-1.36-1.46-.02,0-.03,0-.05,0Z"/>
</svg>