<?xml version="1.0" encoding="UTF-8"?>
<svg id="Layer_1" data-name="Layer 1" xmlns="http://www.w3.org/2000/svg" viewBox="0 0 48 48">
  <defs>
    <style>
      .cls-1 {
        fill: #4170ff;
      }
    </style>
  </defs>
  <path class="cls-1" d="M8,38.23c-.98,0-1.82-.35-2.51-1.04-.7-.7-1.04-1.53-1.04-2.51V15.11h3.56v19.56h30.23v3.56H8ZM15.11,31.11c-.98,0-1.82-.35-2.51-1.04s-1.04-1.53-1.04-2.51v-14.23c0-.98.35-1.82,1.04-2.51.7-.7,1.53-1.04,2.51-1.04h24.89c.98,0,1.82.35,2.51,1.04s1.04,1.53,1.04,2.51v14.23c0,.98-.35,1.82-1.04,2.51s-1.53,1.04-2.51,1.04H15.11ZM18.67,27.56c0-.98-.35-1.82-1.04-2.51s-1.53-1.04-2.51-1.04v3.56h3.56ZM36.45,27.56h3.56v-3.56c-.98,0-1.82.35-2.51,1.04-.7.7-1.04,1.53-1.04,2.51ZM27.56,25.78c1.48,0,2.74-.52,3.78-1.56,1.04-1.04,1.56-2.3,1.56-3.78s-.52-2.74-1.56-3.78c-1.04-1.04-2.3-1.56-3.78-1.56s-2.74.52-3.78,1.56c-1.04,1.04-1.56,2.3-1.56,3.78s.52,2.74,1.56,3.78c1.04,1.04,2.3,1.56,3.78,1.56ZM15.11,16.89c.98,0,1.82-.35,2.51-1.04s1.04-1.53,1.04-2.51h-3.56v3.56ZM40,16.89v-3.56h-3.56c0,.98.35,1.82,1.04,2.51s1.53,1.04,2.51,1.04Z"/>
</svg>