<?xml version="1.0" encoding="UTF-8"?>
<svg id="Layer_1" data-name="Layer 1" xmlns="http://www.w3.org/2000/svg" viewBox="0 0 48 48">
  <defs>
    <style>
      .cls-1 {
        fill: #4170ff;
      }
    </style>
  </defs>
  <path class="cls-1" d="M3.91,40.51v-5.14c0-1.01.26-1.96.78-2.84.52-.89,1.24-1.56,2.16-2.02,1.56-.8,3.32-1.47,5.28-2.02,1.96-.55,4.11-.83,6.47-.83s4.51.28,6.47.83c1.96.55,3.72,1.22,5.28,2.02.92.46,1.64,1.13,2.16,2.02s.78,1.83.78,2.84v5.14H3.91ZM18.59,25.83c-2.02,0-3.75-.72-5.18-2.16-1.44-1.44-2.16-3.17-2.16-5.18h-.46c-.28,0-.5-.08-.67-.25s-.25-.39-.25-.67.08-.5.25-.67.39-.25.67-.25h.46c0-1.38.34-2.61,1.01-3.72.67-1.1,1.56-1.97,2.66-2.61v1.74c0,.28.08.5.25.67s.39.25.67.25.5-.08.67-.25.25-.39.25-.67v-2.48c.28-.09.57-.16.87-.21s.63-.07.96-.07.66.02.96.07.6.11.87.21v2.48c0,.28.08.5.25.67s.39.25.67.25.5-.08.67-.25.25-.39.25-.67v-1.74c1.1.64,1.99,1.51,2.66,2.61.67,1.1,1.01,2.34,1.01,3.72h.46c.28,0,.5.08.67.25s.25.39.25.67-.08.5-.25.67-.39.25-.67.25h-.46c0,2.02-.72,3.75-2.16,5.18-1.44,1.44-3.17,2.16-5.18,2.16ZM18.59,22.17c1.01,0,1.87-.36,2.59-1.08.72-.72,1.08-1.58,1.08-2.59h-7.34c0,1.01.36,1.87,1.08,2.59s1.58,1.08,2.59,1.08ZM32.35,29.5l-.28-1.38c-.18-.06-.36-.13-.53-.21s-.33-.19-.48-.34l-1.28.46-.92-1.65,1.01-.92v-1.1l-1.01-.92.92-1.65,1.28.46c.12-.12.28-.23.46-.32s.37-.17.55-.23l.28-1.38h1.83l.28,1.38c.18.06.37.14.55.23s.34.2.46.32l1.28-.46.92,1.65-1.01.92v1.1l1.01.92-.92,1.65-1.28-.46c-.15.15-.31.27-.48.34s-.34.15-.53.21l-.28,1.38h-1.83ZM33.27,26.29c.37,0,.69-.14.96-.41s.41-.6.41-.96-.14-.69-.41-.96-.6-.41-.96-.41-.69.14-.96.41-.41.6-.41.96.14.69.41.96.6.41.96.41ZM36.57,20.33l-.37-1.93c-.28-.09-.53-.21-.76-.34s-.44-.3-.62-.48l-1.93.64-1.28-2.2,1.56-1.38c-.06-.15-.09-.28-.09-.37v-.73c0-.09.03-.21.09-.37l-1.56-1.38,1.28-2.2,1.93.64c.18-.18.39-.34.62-.48s.48-.25.76-.34l.37-1.93h2.57l.37,1.93c.28.09.53.21.76.34s.44.3.62.48l1.93-.64,1.28,2.2-1.56,1.38c.06.15.09.28.09.37v.73c0,.09-.03.21-.09.37l1.56,1.38-1.28,2.2-1.93-.64c-.18.18-.39.34-.62.48s-.48.25-.76.34l-.37,1.93h-2.57ZM37.85,16.2c.64,0,1.19-.22,1.63-.67s.67-.99.67-1.63-.22-1.19-.67-1.63-.99-.67-1.63-.67-1.19.22-1.63.67-.67.99-.67,1.63.22,1.19.67,1.63.99.67,1.63.67Z"/>
</svg>