<?xml version="1.0" encoding="UTF-8"?>
<svg id="Layer_1" data-name="Layer 1" xmlns="http://www.w3.org/2000/svg" viewBox="0 0 48 48">
  <defs>
    <style>
      .cls-1 {
        fill: #4170ff;
      }
    </style>
  </defs>
  <path class="cls-1" d="M27.63,33.28c.32,0,.61-.12.85-.36s.36-.52.36-.85-.12-.61-.36-.85-.52-.36-.85-.36-.61.12-.85.36-.36.52-.36.85.12.61.36.85.52.36.85.36ZM32.07,33.28c.32,0,.61-.12.85-.36s.36-.52.36-.85-.12-.61-.36-.85-.52-.36-.85-.36-.61.12-.85.36-.36.52-.36.85.12.61.36.85.52.36.85.36ZM36.51,33.28c.32,0,.61-.12.85-.36s.36-.52.36-.85-.12-.61-.36-.85-.52-.36-.85-.36-.61.12-.85.36-.36.52-.36.85.12.61.36.85.52.36.85.36ZM32.07,40.15c-2.23,0-4.14-.79-5.71-2.36-1.57-1.57-2.36-3.48-2.36-5.71s.79-4.14,2.36-5.71c1.57-1.57,3.48-2.36,5.71-2.36s4.14.79,5.71,2.36,2.36,3.48,2.36,5.71-.79,4.14-2.36,5.71-3.48,2.36-5.71,2.36ZM14.31,17.54h16.15v-3.23H14.31v3.23ZM21.86,36.92h-10.78c-.89,0-1.65-.32-2.28-.95-.63-.63-.95-1.39-.95-2.28V11.08c0-.89.32-1.65.95-2.28.63-.63,1.39-.95,2.28-.95h22.61c.89,0,1.65.32,2.28.95s.95,1.39.95,2.28v10.82c-.78-.38-1.57-.66-2.36-.85-.79-.19-1.62-.28-2.48-.28-.3,0-.57,0-.83.02s-.52.05-.79.1v-.12H14.31v3.23h9.89c-.48.46-.92.96-1.31,1.49s-.73,1.12-1.03,1.74h-7.55v3.23h6.58c-.05.27-.09.53-.1.79-.01.26-.02.53-.02.83,0,.89.08,1.72.24,2.48.16.77.44,1.55.85,2.36Z"/>
</svg>