<?xml version="1.0" encoding="UTF-8"?>
<svg id="Layer_1" data-name="Layer 1" xmlns="http://www.w3.org/2000/svg" viewBox="0 0 48 48">
  <defs>
    <style>
      .cls-1 {
        fill: #000;
        stroke-width: 0px;
      }
    </style>
  </defs>
  <path class="cls-1" d="M47.38,22.29c0-5.03-4.09-9.12-9.12-9.12-.19,0-.38,0-.57.02-1.76-6.08-7.32-10.28-13.69-10.28s-11.93,4.2-13.69,10.28c-.19-.01-.38-.02-.57-.02C4.71,13.17.62,17.26.62,22.29c0,3.72,2.27,7.07,5.7,8.45v3.02c0,.65.29,1.24.75,1.64-.45.41-.75.99-.75,1.64v5.84c0,1.22.99,2.21,2.21,2.21h30.93c1.22,0,2.21-.99,2.21-2.21v-5.84c0-.65-.29-1.24-.74-1.64.45-.41.75-.99.75-1.64v-3.02c3.43-1.39,5.7-4.73,5.7-8.45h0ZM40.54,37.05v5.84c0,.59-.48,1.07-1.07,1.07H8.53c-.59,0-1.07-.48-1.07-1.07v-5.84c0-.59.48-1.07,1.07-1.07h30.93c.59,0,1.07.48,1.07,1.07h0ZM8.53,34.84c-.59,0-1.07-.48-1.07-1.07v-5.84c0-.59.48-1.07,1.07-1.07h30.93c.59,0,1.07.48,1.07,1.07v5.84c0,.59-.48,1.07-1.07,1.07H8.53ZM20.58,20.01h-2.18l5.6-6.54,5.6,6.54h-2.18c-.31,0-.57.26-.57.57v5.13h-5.7v-5.13c0-.31-.26-.57-.57-.57ZM41.68,29.5v-1.57c0-1.22-.99-2.21-2.21-2.21h-11.47v-4.56h2.85c.22,0,.43-.13.52-.33.09-.2.06-.44-.08-.61l-6.84-7.98c-.22-.25-.65-.25-.87,0l-6.84,7.98c-.14.17-.18.41-.08.61.09.2.29.33.52.33h2.85v4.56h-11.47c-1.22,0-2.21.99-2.21,2.21v1.57c-2.76-1.31-4.56-4.11-4.56-7.21,0-4.4,3.58-7.98,7.98-7.98.33,0,.63.02.92.05.29.03.55-.15.62-.43,1.47-5.82,6.7-9.89,12.71-9.89s11.24,4.07,12.71,9.9c.07.28.34.46.62.43.29-.04.59-.06.92-.06,4.4,0,7.98,3.58,7.98,7.98,0,3.1-1.8,5.9-4.56,7.21h0ZM18.87,30.84c0,.31-.26.57-.57.57h-5.7c-.31,0-.57-.26-.57-.57s.26-.57.57-.57h5.7c.31,0,.57.26.57.57ZM12.02,39.97c0-.31.26-.57.57-.57h5.7c.31,0,.57.26.57.57s-.26.57-.57.57h-5.7c-.31,0-.57-.26-.57-.57ZM26.85,30.84c0,.31-.26.57-.57.57h-1.14c-.31,0-.57-.26-.57-.57s.26-.57.57-.57h1.14c.31,0,.57.26.57.57ZM31.41,30.84c0,.31-.26.57-.57.57h-1.14c-.31,0-.57-.26-.57-.57s.26-.57.57-.57h1.14c.31,0,.57.26.57.57ZM35.98,30.84c0,.31-.26.57-.57.57h-1.14c-.31,0-.57-.26-.57-.57s.26-.57.57-.57h1.14c.31,0,.57.26.57.57ZM24.57,39.97c0-.31.26-.57.57-.57h1.14c.31,0,.57.26.57.57s-.26.57-.57.57h-1.14c-.31,0-.57-.26-.57-.57ZM29.13,39.97c0-.31.26-.57.57-.57h1.14c.31,0,.57.26.57.57s-.26.57-.57.57h-1.14c-.31,0-.57-.26-.57-.57ZM33.69,39.97c0-.31.26-.57.57-.57h1.14c.31,0,.57.26.57.57s-.26.57-.57.57h-1.14c-.31,0-.57-.26-.57-.57Z"/>
</svg>