<?xml version="1.0" encoding="UTF-8"?>
<svg id="Layer_1" data-name="Layer 1" xmlns="http://www.w3.org/2000/svg" viewBox="0 0 48 48">
  <defs>
    <style>
      .cls-1 {
        fill: #000;
        fill-rule: evenodd;
        stroke-width: 0px;
      }
    </style>
  </defs>
  <path class="cls-1" d="M10.45,17.73l4.8,4.8,6.98-.04v-.33c0-.45.18-.85.48-1.14s.7-.48,1.14-.48h1.22c.09-.3.19-.6.31-.88.12-.29.25-.57.4-.85l-.86-.86c-.32-.32-.47-.73-.47-1.14s.16-.83.47-1.14l1.29-1.29c.32-.32.73-.47,1.14-.47s.83.16,1.14.47l.86.86c.28-.15.56-.29.85-.4.29-.12.58-.22.88-.31v-1.22c0-.45.18-.85.48-1.14.29-.29.7-.48,1.14-.48h1.82c.45,0,.85.18,1.14.48s.48.7.48,1.14v1.22c.3.09.6.19.88.31.29.12.57.25.85.4l.86-.86c.32-.32.73-.47,1.14-.47s.83.16,1.14.47l1.29,1.29c.32.32.47.73.47,1.14s-.16.83-.47,1.14l-.86.86c.15.28.29.56.4.85.12.29.22.58.31.88h1.22c.45,0,.85.18,1.14.48s.48.7.48,1.14v1.82c0,.45-.18.85-.48,1.14s-.7.48-1.14.48h-1.22c-.09.3-.19.6-.31.88-.12.29-.25.57-.4.85l.86.86c.32.32.47.73.47,1.14s-.16.83-.47,1.14l-1.29,1.29c-.32.32-.73.47-1.14.47s-.83-.16-1.14-.47l-.86-.86c-.28.15-.56.29-.85.4-.29.12-.58.22-.88.31v1.22c0,.45-.18.85-.48,1.14s-.7.48-1.14.48h-.33l-.02,8.96c0,.32-.26.58-.58.58h0s-16.91,0-16.91,0c-.12.76-.49,1.44-1.01,1.96-.65.65-1.55,1.06-2.54,1.06h-6.51c-.99,0-1.89-.41-2.54-1.06s-1.06-1.55-1.06-2.54.41-1.89,1.06-2.54c.65-.65,1.55-1.06,2.54-1.06h6.51c.99,0,1.89.41,2.54,1.06.52.52.88,1.2,1.01,1.96h16.33l.02-8.37h-.33c-.45,0-.85-.18-1.14-.48s-.48-.7-.48-1.14v-1.22c-.3-.09-.6-.19-.88-.31-.29-.12-.57-.25-.85-.4l-.86.86c-.32.32-.73.47-1.14.47s-.83-.16-1.14-.47l-1.29-1.29c-.32-.32-.47-.73-.47-1.14s.16-.83.47-1.14l.86-.86c-.15-.28-.29-.56-.4-.85-.12-.29-.22-.58-.31-.88h-1.22c-.45,0-.85-.18-1.14-.48s-.48-.7-.48-1.14v-.33l-6.92.04-5.03,5.03c-.23.23-.6.23-.83,0l-5.17-5.17c-.23-.23-.23-.6,0-.83l5-5,.06-9.53h-2.67c-.99,0-1.89-.41-2.54-1.06s-1.06-1.55-1.06-2.54.41-1.89,1.06-2.54,1.55-1.06,2.54-1.06h6.51c.99,0,1.89.41,2.54,1.06s1.06,1.55,1.06,2.54-.41,1.89-1.06,2.54c-.65.65-1.55,1.06-2.54,1.06h-2.68l-.06,9.54ZM32.7,33.29h1.82c.12,0,.24-.05.32-.13s.13-.2.13-.32v-1.37c0-.07,0-.15.02-.23.01-.07.02-.14.04-.21.05-.2.21-.37.43-.42.38-.09.76-.22,1.12-.37.35-.15.69-.32,1.01-.51.18-.12.42-.15.62-.04.07.04.13.08.2.13.05.03.09.07.14.12.01.01.03.02.04.03l.97.97c.09.09.2.13.32.13s.23-.04.32-.13l1.29-1.29c.09-.09.13-.2.13-.32s-.04-.23-.13-.32l-.97-.97c-.05-.05-.1-.11-.15-.18-.05-.06-.09-.13-.13-.2h0c-.1-.18-.1-.4.01-.58.2-.33.38-.68.53-1.05.15-.36.27-.73.37-1.12.05-.2.2-.36.4-.42.08-.02.15-.04.23-.05.08-.01.16-.02.23-.02h1.37c.12,0,.24-.05.32-.13.08-.08.13-.2.13-.32v-1.82c0-.12-.05-.24-.13-.32-.08-.08-.2-.13-.32-.13h-1.37c-.07,0-.15,0-.23-.02-.06,0-.12-.02-.19-.04-.21-.05-.39-.21-.44-.43-.09-.38-.22-.76-.37-1.12-.15-.35-.32-.69-.51-1.01-.12-.18-.15-.42-.04-.62.04-.07.08-.13.13-.2.03-.04.07-.09.12-.14.01-.01.02-.03.03-.04l.97-.97c.09-.09.13-.2.13-.32s-.04-.23-.13-.32l-1.29-1.29c-.09-.09-.2-.13-.32-.13s-.23.04-.32.13l-.97.97c-.05.05-.11.1-.18.15-.06.05-.13.09-.2.13h0c-.18.1-.4.1-.58-.01-.33-.2-.68-.38-1.05-.53-.36-.15-.73-.27-1.12-.37-.2-.05-.36-.2-.42-.4-.02-.08-.04-.15-.05-.23-.01-.08-.02-.16-.02-.23v-1.37c0-.12-.05-.24-.13-.32-.08-.08-.2-.13-.32-.13h-1.82c-.12,0-.24.05-.32.13-.08.08-.13.2-.13.32v1.37c0,.07,0,.15-.02.23-.01.07-.02.14-.04.21-.05.2-.21.37-.43.42-.38.09-.76.22-1.12.37-.35.15-.69.32-1.01.51-.18.13-.42.15-.62.04-.07-.04-.13-.08-.2-.13-.04-.03-.09-.07-.14-.12-.01-.01-.03-.02-.04-.03l-.97-.97c-.09-.09-.2-.13-.32-.13s-.23.04-.32.13l-1.29,1.29c-.09.09-.13.2-.13.32s.04.23.13.32l.97.97h0s0,0,0,0c.06.06.11.12.15.17.05.06.09.13.13.2h0c.1.18.1.4-.01.58-.2.33-.38.68-.53,1.05-.15.36-.27.73-.37,1.12-.05.2-.2.36-.41.42-.08.02-.15.04-.23.05-.08.01-.16.02-.23.02h-1.37c-.12,0-.24.05-.32.13-.08.08-.13.2-.13.32v1.82c0,.12.05.24.13.32s.2.13.32.13h1.37c.07,0,.15,0,.23.02.07.01.14.02.21.04.2.05.37.21.42.43.09.38.22.76.37,1.12.15.35.32.69.51,1.01.13.18.15.42.04.62-.04.07-.08.13-.13.2-.05.06-.1.12-.15.18l-.97.97c-.09.09-.13.2-.13.32s.04.23.13.32l1.29,1.29c.09.09.2.13.32.13s.23-.04.32-.13l.97-.97h0s0,0,0,0c.06-.06.12-.11.17-.15.06-.05.13-.09.2-.13h0c.18-.09.4-.1.58.01.33.2.68.38,1.05.53.36.15.73.27,1.12.37.2.05.36.2.42.4.02.08.04.15.05.23.01.08.02.16.02.23v1.37c0,.12.05.24.13.32.08.08.2.13.32.13h0ZM33.61,27.32c1.17,0,2.23-.48,3-1.24.77-.77,1.24-1.83,1.24-3s-.48-2.23-1.24-3c-.77-.77-1.83-1.24-3-1.24s-2.23.48-3,1.24c-.77.77-1.24,1.83-1.24,3s.48,2.23,1.24,3c.77.77,1.83,1.24,3,1.24ZM37.44,26.9c.98-.98,1.59-2.33,1.59-3.83s-.61-2.85-1.59-3.83-2.33-1.59-3.83-1.59-2.85.61-3.83,1.59c-.98.98-1.59,2.33-1.59,3.83s.61,2.85,1.59,3.83c.98.98,2.33,1.59,3.83,1.59s2.85-.61,3.83-1.59ZM6.67,7.03h6.51c.67,0,1.28-.27,1.72-.72.44-.44.72-1.05.72-1.72s-.28-1.28-.72-1.72c-.44-.44-1.05-.72-1.72-.72h-6.51c-.67,0-1.28.27-1.72.72s-.72,1.05-.72,1.72.28,1.28.72,1.72c.44.44,1.05.72,1.72.72ZM6.61,45.85h6.51c.67,0,1.28-.27,1.72-.72.44-.44.72-1.05.72-1.72s-.28-1.28-.72-1.72c-.44-.44-1.05-.72-1.72-.72h-6.51c-.67,0-1.28.28-1.72.72-.44.44-.72,1.05-.72,1.72s.27,1.28.72,1.72,1.05.72,1.72.72ZM12.04,20.97l-2.17-2.17-4.34,4.34,4.34,4.34,4.34-4.34-2.17-2.17Z"/>
</svg>