<?xml version="1.0" encoding="UTF-8"?>
<svg id="Layer_1" data-name="Layer 1" xmlns="http://www.w3.org/2000/svg" viewBox="0 0 48 48">
  <defs>
    <style>
      .cls-1 {
        fill: #000;
        stroke-width: 0px;
      }
    </style>
  </defs>
  <path class="cls-1" d="M8.62,2.11c-1.3.22-2.35.47-3.12.77-.6.24-1.39.66-1.39,1.32v36.79c0,.34.2.61.45.81.91.73,2.86,1.08,4.06,1.28,2.6.43,6.15.69,10.08.69,3.65,0,6.98-.23,9.52-.61v2.98c-.01.24.18.44.43.44,2.62,0,4.67-2.46,4.66-5.42l-.02-4.65c4.96-1.14,8.66-5.55,8.66-10.86v-2.63c1.06-.03,1.92-.9,1.92-1.97s-.89-1.97-1.97-1.97h-8.61V4.2c0-.71-.84-1.1-1.39-1.32-.77-.3-1.82-.56-3.12-.77-2.6-.43-6.15-.7-10.08-.7s-7.48.26-10.08.7h0ZM18.71,2.28c3.89,0,7.41.26,9.94.68,1.26.21,2.28.46,2.95.72.29.12.66.28.84.51-.49.62-2.69,1.05-3.78,1.24-2.53.42-6.05.68-9.94.68s-7.41-.26-9.94-.68c-1.22-.24-2.99-.51-3.78-1.24.16-.21.58-.41.84-.51.67-.26,1.68-.51,2.95-.72,2.53-.42,6.05-.68,9.94-.68ZM32.43,5.29v6.27c-.95.77-2.65,1.01-3.78,1.24-2.37.39-5.61.65-9.21.68-.24,0-.48,0-.72,0-3.89,0-7.41-.26-9.94-.68-1.26-.27-2.86-.46-3.78-1.24v-6.27c1.07.57,2.58.83,3.64,1.01,2.6.43,6.15.7,10.08.7s7.48-.26,10.08-.7c1.22-.22,2.55-.44,3.64-1.01h0ZM8.27,9.82c-.04.24.12.46.36.5,3.34.53,6.72.69,10.08.69.24,0,.44-.19.44-.43,0-.24-.19-.44-.43-.44-3.33-.01-6.67-.16-9.94-.68-.28-.04-.48.17-.5.36ZM32.43,12.65v6.45h-12.8c-1.01,0-1.84.76-1.96,1.73-3.6-.04-6.82-.31-9.14-.72-1.17-.28-2.72-.45-3.54-1.19v-6.27c1.09.56,2.58.83,3.64,1.01,2.6.43,6.15.69,10.08.69s7.48-.26,10.08-.69c1.17-.22,2.56-.44,3.64-1.01h0ZM8.27,17.18c-.04.24.12.46.36.5,3.34.53,6.72.69,10.08.7.24,0,.44-.19.44-.43,0-.24-.19-.44-.43-.44-3.33-.01-6.67-.16-9.94-.68-.3-.04-.48.17-.5.36h0ZM19.62,19.97h22.29c.62,0,1.1.48,1.1,1.1s-.48,1.1-1.1,1.1h-22.29c-.62,0-1.1-.48-1.1-1.1s.48-1.1,1.1-1.1ZM4.99,20c1.01.53,2.4.79,3.39.97,2.41.42,5.71.69,9.39.73.26.76.97,1.31,1.81,1.33v2.63c0,.87.1,1.71.29,2.52-.38,0-.76,0-1.15,0-3.89,0-7.41-.26-9.94-.68-1.21-.23-2.9-.49-3.78-1.24v-6.27ZM20.44,23.03h20.65v2.63c0,5.03-3.57,9.19-8.31,10.11-.21.04-.35.22-.35.43l.02,4.98c0,2.37-1.5,4.17-3.36,4.44l.03-9.41c0-.21-.15-.39-.35-.43-4.74-.91-8.33-5.07-8.33-10.11v-2.63ZM8.27,24.54c-.04.24.12.46.36.5,3.34.53,6.72.69,10.08.69.24,0,.44-.19.44-.43,0-.24-.19-.44-.43-.44-3.33-.01-6.67-.16-9.94-.68-.3-.04-.48.18-.5.36ZM4.99,27.36c1.11.58,2.58.83,3.64,1.01,2.6.43,6.15.7,10.08.7.47,0,.93,0,1.39-.01.36,1.13,2.16,3.98,2.24,3.95.8.91,1.74,1.68,2.79,2.29-1.92.16-4.1.26-6.42.26-3.89,0-7.41-.26-9.94-.68-1.38-.27-3.13-.59-3.78-1.24v-6.27ZM8.27,31.9c-.04.24.12.46.36.5,3.34.53,6.72.69,10.08.7.24,0,.44-.19.44-.43,0-.24-.19-.44-.43-.44-3.33-.01-6.67-.16-9.94-.68-.27-.05-.46.15-.5.36h0ZM4.99,34.72c1.08.58,2.58.83,3.64,1.01,2.6.43,6.15.7,10.08.7,2.89,0,5.58-.14,7.83-.39v-.05c.55.22,1.12.41,1.71.54l-.02,5.77c-2.49.38-5.84.62-9.52.62-3.89,0-7.41-.26-9.94-.68-1.07-.24-3.18-.56-3.78-1.24v-6.27ZM8.69,38.89c-.21,0-.39.16-.43.37-.04.24.12.46.36.5,3.34.53,6.72.69,10.08.69.24,0,.44-.19.44-.43,0-.24-.19-.44-.43-.44-3.33-.01-6.67-.16-9.94-.68-.02,0-.05,0-.07,0h0Z"/>
</svg>