<?xml version="1.0" encoding="UTF-8"?>
<svg id="Layer_1" data-name="Layer 1" xmlns="http://www.w3.org/2000/svg" viewBox="0 0 48 48">
  <defs>
    <style>
      .cls-1 {
        fill: #000;
        fill-rule: evenodd;
        stroke-width: 0px;
      }
    </style>
  </defs>
  <path class="cls-1" d="M34.76,15.79c-.27,0-.49-.22-.49-.49v-2.76c0-.27.22-.49.49-.49.27,0,.49.22.49.49v2.76c0,.27-.22.49-.49.49ZM34.76,32.04c-.27,0-.49-.22-.49-.49v-7.37c0-.27.22-.49.49-.49.27,0,.49.22.49.49v7.37c0,.27-.22.49-.49.49ZM11.49,35.05c-.27,0-.49-.22-.49-.49V7.74c0-3.49,2.84-6.33,6.33-6.33h22.76c.27,0,.49.22.49.49,0,.27-.22.49-.49.49h-22.76c-2.95,0-5.34,2.4-5.34,5.34v26.82c0,.27-.22.49-.49.49Z"/>
  <path class="cls-1" d="M34.76,15.79c-.27,0-.49-.22-.49-.49v-2.76c0-.27.22-.49.49-.49.27,0,.49.22.49.49v2.76c0,.27-.22.49-.49.49ZM34.76,32.04c-.27,0-.49-.22-.49-.49v-7.37c0-.27.22-.49.49-.49.27,0,.49.22.49.49v7.37c0,.27-.22.49-.49.49ZM11.49,35.05c-.27,0-.49-.22-.49-.49V7.74c0-3.49,2.84-6.33,6.33-6.33h22.76c.27,0,.49.22.49.49s-.22.49-.49.49h-22.76c-2.95,0-5.34,2.4-5.34,5.34v26.82c0,.27-.22.49-.49.49Z"/>
  <path class="cls-1" d="M17.17,23.57h-2.31c-.22,0-.39-.18-.39-.39s.18-.39.39-.39h2.31c.22,0,.39.18.39.39s-.18.39-.39.39Z"/>
  <path class="cls-1" d="M23.65,29.5h-8.79c-.22,0-.39-.18-.39-.39s.18-.39.39-.39h8.79c.22,0,.39.18.39.39,0,.22-.18.39-.39.39Z"/>
  <path class="cls-1" d="M23.65,29.5h-8.79c-.22,0-.39-.18-.39-.39s.18-.39.39-.39h8.79c.22,0,.39.18.39.39s-.18.39-.39.39Z"/>
  <path class="cls-1" d="M16.77,17.63h-1.91c-.22,0-.39-.18-.39-.39s.18-.39.39-.39h1.91c.22,0,.39.18.39.39,0,.22-.18.39-.39.39Z"/>
  <path class="cls-1" d="M16.77,17.63h-1.91c-.22,0-.39-.18-.39-.39s.18-.39.39-.39h1.91c.22,0,.39.18.39.39s-.18.39-.39.39Z"/>
  <path class="cls-1" d="M21.36,11.7h-6.5c-.22,0-.39-.18-.39-.39s.18-.39.39-.39h6.5c.22,0,.39.18.39.39,0,.22-.18.39-.39.39Z"/>
  <path class="cls-1" d="M21.36,11.7h-6.5c-.22,0-.39-.18-.39-.39s.18-.39.39-.39h6.5c.22,0,.39.18.39.39s-.18.39-.39.39Z"/>
  <path class="cls-1" d="M30.53,5.76h-15.67c-.22,0-.39-.18-.39-.39s.18-.39.39-.39h15.67c.22,0,.39.18.39.39,0,.22-.18.39-.39.39Z"/>
  <path class="cls-1" d="M30.53,5.76h-15.67c-.22,0-.39-.18-.39-.39s.18-.39.39-.39h15.67c.22,0,.39.18.39.39s-.18.39-.39.39Z"/>
  <path class="cls-1" d="M35.25,12.04h10.15v-4.82c0-2.66-2.16-4.82-4.82-4.82h-.48c-2.67,0-4.84,2.17-4.84,4.84v4.8ZM45.89,13.03h-11.13c-.27,0-.49-.22-.49-.49v-5.3c0-3.22,2.62-5.83,5.83-5.83h.48c3.2,0,5.81,2.61,5.81,5.81v5.32c0,.27-.22.49-.49.49h0Z"/>
  <path class="cls-1" d="M28.98,46.59H7.88c-3.45,0-6.26-2.81-6.26-6.26v-5.77c0-.27.22-.49.49-.49h21.01c.27,0,.49.22.49.49,0,.27-.22.49-.49.49H2.6s0,5.28,0,5.28c0,2.91,2.37,5.28,5.28,5.28h21.1c.27,0,.49.22.49.49,0,.27-.22.49-.49.49Z"/>
  <path class="cls-1" d="M28.98,46.59H7.88c-3.45,0-6.26-2.81-6.26-6.26v-5.77c0-.27.22-.49.49-.49h21.01c.27,0,.49.22.49.49s-.22.49-.49.49H2.6s0,5.28,0,5.28c0,2.91,2.37,5.28,5.28,5.28h21.1c.27,0,.49.22.49.49s-.22.49-.49.49Z"/>
  <path class="cls-1" d="M28.98,46.59h-.09c-3.46,0-6.27-2.81-6.27-6.27v-5.77c0-.27.22-.49.49-.49.27,0,.49.22.49.49v5.77c0,2.91,2.37,5.28,5.28,5.28h.09c2.91,0,5.28-2.37,5.28-5.28v-1.35c0-.27.22-.49.49-.49.27,0,.49.22.49.49v1.35c0,3.46-2.81,6.27-6.27,6.27h0Z"/>
  <path class="cls-1" d="M21.61,11.8c-2.12,1.22-3.64,3.2-4.27,5.56-.63,2.36-.31,4.83.92,6.95,1.22,2.12,3.2,3.64,5.56,4.27,2.36.63,4.83.31,6.95-.92,2.12-1.22,3.63-3.2,4.27-5.56.63-2.36.31-4.83-.92-6.95-2.53-4.37-8.14-5.88-12.51-3.35h0ZM26.2,29.88c-3.51,0-6.93-1.82-8.8-5.07-1.36-2.35-1.72-5.08-1.01-7.7.7-2.62,2.38-4.81,4.73-6.16,0,0,0,0,0,0,4.85-2.8,11.06-1.13,13.86,3.71,1.36,2.35,1.72,5.08,1.01,7.7-.7,2.62-2.38,4.81-4.73,6.16-1.59.92-3.34,1.36-5.06,1.36Z"/>
  <path class="cls-1" d="M21.61,11.8c-2.12,1.22-3.64,3.2-4.27,5.56-.63,2.36-.31,4.83.92,6.95,1.22,2.12,3.2,3.64,5.56,4.27,2.36.63,4.83.31,6.95-.92,2.12-1.22,3.63-3.2,4.27-5.56.63-2.36.31-4.83-.92-6.95-2.53-4.37-8.14-5.88-12.51-3.35h0ZM26.2,29.88c-3.51,0-6.93-1.82-8.8-5.07-1.36-2.35-1.72-5.08-1.01-7.7.7-2.62,2.38-4.81,4.73-6.16h0c4.85-2.8,11.06-1.13,13.86,3.71,1.36,2.35,1.72,5.08,1.01,7.7-.7,2.62-2.38,4.81-4.73,6.16-1.59.92-3.34,1.36-5.06,1.36Z"/>
  <path class="cls-1" d="M22.51,13.37l.25.43c-3.27,1.89-4.4,6.09-2.51,9.37,1.27,2.2,3.58,3.43,5.95,3.43,1.16,0,2.34-.3,3.42-.92,1.59-.92,2.72-2.4,3.2-4.16.47-1.77.23-3.62-.68-5.2-1.89-3.28-6.09-4.4-9.37-2.51l-.25-.43ZM26.2,27.58c-2.71,0-5.36-1.41-6.81-3.92-2.16-3.75-.88-8.55,2.87-10.72h0c3.75-2.16,8.55-.87,10.72,2.87,1.05,1.81,1.33,3.93.78,5.95-.54,2.02-1.84,3.72-3.66,4.76-1.23.71-2.58,1.05-3.91,1.05Z"/>
  <path class="cls-1" d="M34.59,32.13c-.17,0-.34-.09-.43-.25l-2.47-4.29c-.14-.24-.06-.54.18-.67.24-.14.54-.06.67.18l2.47,4.29c.14.24.06.54-.18.67-.08.05-.16.07-.25.07ZM32.29,33.46c-.17,0-.34-.09-.43-.25l-2.47-4.29c-.14-.24-.05-.54.18-.67.24-.14.54-.05.67.18l2.47,4.29c.14.24.06.54-.18.67-.08.04-.16.07-.25.07h0Z"/>
  <path class="cls-1" d="M32.21,33.58l5.29,9.16c.23.39.59.67,1.03.79.44.12.9.06,1.29-.17.39-.23.67-.59.79-1.03.12-.44.06-.9-.17-1.29l-5.29-9.16-2.95,1.7ZM38.98,44.57c-.93,0-1.84-.48-2.33-1.34l-5.53-9.58c-.07-.11-.08-.25-.05-.38.03-.13.12-.23.23-.3l3.8-2.2c.11-.07.25-.08.37-.05.13.03.23.12.3.23l5.53,9.58c.36.62.45,1.34.27,2.04-.19.69-.63,1.28-1.25,1.63-.42.24-.88.36-1.34.36h0Z"/>
</svg>