<?xml version="1.0" encoding="UTF-8"?>
<svg id="Layer_1" data-name="Layer 1" xmlns="http://www.w3.org/2000/svg" viewBox="0 0 48 48">
  <defs>
    <style>
      .cls-1 {
        fill: #000;
        stroke-width: 0px;
      }
    </style>
  </defs>
  <path class="cls-1" d="M42.09,6.1h-.94v-1.7c0-1.14-.93-2.07-2.07-2.07H8.93c-1.14,0-2.07.93-2.07,2.07v1.7h-.94c-1.97,0-3.58,1.61-3.58,3.58v25.62c0,1.97,1.61,3.58,3.58,3.58h13.33l-1.7,5.65h-2.59c-.31,0-.57.25-.57.57s.25.57.57.57h18.09c.31,0,.57-.25.57-.57s-.25-.57-.57-.57h-2.59l-1.7-5.65h13.33c1.97,0,3.58-1.61,3.58-3.58V9.68c0-1.97-1.61-3.58-3.58-3.58h0ZM42.09,7.23c1.35,0,2.45,1.1,2.45,2.45v22.04h-3.39V7.23h.94ZM7.99,4.41c0-.52.42-.94.94-.94h30.15c.52,0,.94.42.94.94v27.32H7.99V4.41ZM5.91,7.23h.94v24.49h-3.39V9.68c0-1.35,1.1-2.45,2.45-2.45h0ZM29.27,44.54h-10.54l1.7-5.65h7.15l1.7,5.65h0ZM42.09,37.75H5.91c-1.35,0-2.45-1.1-2.45-2.45v-2.45h41.07v2.45c0,1.35-1.1,2.45-2.45,2.45h0ZM12.7,20.42h16.58c.73,0,1.32-.59,1.32-1.32v-.94h.94c.52,0,.94.42.94.94v3.96h-12.25c-.73,0-1.32.59-1.32,1.32v3.01c0,.73.59,1.32,1.32,1.32h15.07c.73,0,1.32-.59,1.32-1.32v-3.01c0-.73-.59-1.32-1.32-1.32h-1.7v-3.96c0-1.14-.93-2.07-2.07-2.07h-.94v-.94c0-.73-.59-1.32-1.32-1.32h-1.7v-3.96c0-1.14-.93-2.07-2.07-2.07h-2.45v-.94c0-.73-.59-1.32-1.32-1.32h-9.04c-.73,0-1.32.59-1.32,1.32v3.01c0,.73.59,1.32,1.32,1.32h9.04c.73,0,1.32-.59,1.32-1.32v-.94h2.45c.52,0,.94.42.94.94v3.96h-13.75c-.73,0-1.32.59-1.32,1.32v3.01c0,.73.59,1.32,1.32,1.32h0ZM35.49,24.38v3.01c0,.1-.08.19-.19.19h-15.07c-.1,0-.19-.08-.19-.19v-3.01c0-.1.08-.19.19-.19h15.07c.1,0,.19.08.19.19ZM21.93,10.81c0,.1-.08.19-.19.19h-9.04c-.1,0-.19-.08-.19-.19v-3.01c0-.1.08-.19.19-.19h9.04c.1,0,.19.08.19.19v3.01ZM12.51,16.09c0-.1.08-.19.19-.19h16.58c.1,0,.19.08.19.19v3.01c0,.1-.08.19-.19.19H12.7c-.1,0-.19-.08-.19-.19v-3.01Z"/>
</svg>