<?xml version="1.0" encoding="UTF-8"?>
<svg id="Layer_1" data-name="Layer 1" xmlns="http://www.w3.org/2000/svg" viewBox="0 0 48 48">
  <defs>
    <style>
      .cls-1 {
        fill: #4170ff;
      }
    </style>
  </defs>
  <path class="cls-1" d="M21.68,44.85v-4.63h18.54v-16.45c0-4.52-1.57-8.35-4.72-11.5-3.15-3.15-6.98-4.72-11.5-4.72s-8.35,1.57-11.5,4.72c-3.15,3.15-4.72,6.98-4.72,11.5v14.13h-2.32c-1.27,0-2.37-.45-3.27-1.36-.91-.91-1.36-2-1.36-3.27v-4.63c0-.81.2-1.57.61-2.29.41-.71.98-1.28,1.71-1.71l.17-3.07c.31-2.63,1.07-5.06,2.29-7.3s2.74-4.19,4.58-5.85c1.83-1.66,3.94-2.95,6.31-3.88s4.88-1.39,7.5-1.39,5.12.46,7.47,1.39,4.46,2.21,6.31,3.85,3.38,3.58,4.58,5.82,1.97,4.67,2.32,7.3l.17,3.01c.73.35,1.3.87,1.71,1.56.41.7.61,1.43.61,2.2v5.33c0,.77-.2,1.51-.61,2.2-.41.7-.98,1.22-1.71,1.56v2.84c0,1.27-.45,2.37-1.36,3.27-.91.91-2,1.36-3.27,1.36h-18.54ZM17.05,28.63c-.66,0-1.21-.22-1.65-.67s-.67-.99-.67-1.65.22-1.21.67-1.65.99-.67,1.65-.67,1.21.22,1.65.67.67.99.67,1.65-.22,1.21-.67,1.65-.99.67-1.65.67ZM30.95,28.63c-.66,0-1.21-.22-1.65-.67s-.67-.99-.67-1.65.22-1.21.67-1.65.99-.67,1.65-.67,1.21.22,1.65.67.67.99.67,1.65-.22,1.21-.67,1.65-.99.67-1.65.67ZM10.16,25.04c-.27-4.09.97-7.61,3.71-10.54,2.74-2.93,6.16-4.4,10.25-4.4,3.44,0,6.46,1.09,9.06,3.27,2.61,2.18,4.18,4.97,4.72,8.37-3.51-.04-6.75-.98-9.7-2.84-2.95-1.85-5.22-4.36-6.81-7.53-.62,3.09-1.92,5.84-3.91,8.25-1.99,2.41-4.43,4.22-7.33,5.42Z"/>
</svg>