<?xml version="1.0" encoding="UTF-8"?>
<svg id="Layer_1" data-name="Layer 1" xmlns="http://www.w3.org/2000/svg" viewBox="0 0 48 48">
  <defs>
    <style>
      .cls-1 {
        fill: #4170ff;
      }
    </style>
  </defs>
  <path class="cls-1" d="M.47,35.77v-3.09c0-1.41.72-2.55,2.16-3.43,1.44-.88,3.33-1.32,5.69-1.32.42,0,.83,0,1.23.02s.77.06,1.13.12c-.46.69-.8,1.41-1.03,2.16-.23.75-.34,1.54-.34,2.35v3.19H.47ZM12.23,35.77v-3.19c0-1.05.29-2,.86-2.87.57-.87,1.38-1.63,2.43-2.28s2.3-1.14,3.75-1.47c1.45-.33,3.03-.49,4.73-.49s3.33.16,4.78.49c1.45.33,2.7.82,3.75,1.47s1.85,1.41,2.4,2.28.83,1.82.83,2.87v3.19H12.23ZM38.71,35.77v-3.19c0-.85-.11-1.65-.32-2.4s-.53-1.45-.96-2.11c.36-.07.73-.11,1.1-.12s.76-.02,1.15-.02c2.35,0,4.25.43,5.69,1.3s2.16,2.02,2.16,3.46v3.09h-8.83ZM16.4,31.84h15.25c-.33-.65-1.23-1.23-2.72-1.72-1.49-.49-3.13-.74-4.93-.74s-3.44.25-4.93.74c-1.49.49-2.38,1.06-2.67,1.72ZM8.31,25.96c-1.08,0-2-.38-2.77-1.15s-1.15-1.69-1.15-2.77.38-2.04,1.15-2.79,1.69-1.13,2.77-1.13,2.04.38,2.79,1.13c.75.75,1.13,1.68,1.13,2.79s-.38,2-1.13,2.77c-.75.77-1.68,1.15-2.79,1.15ZM39.69,25.96c-1.08,0-2-.38-2.77-1.15s-1.15-1.69-1.15-2.77.38-2.04,1.15-2.79,1.69-1.13,2.77-1.13,2.04.38,2.79,1.13c.75.75,1.13,1.68,1.13,2.79s-.38,2-1.13,2.77c-.75.77-1.68,1.15-2.79,1.15ZM24,24c-1.63,0-3.02-.57-4.17-1.72-1.14-1.14-1.72-2.53-1.72-4.17s.57-3.06,1.72-4.19c1.14-1.13,2.53-1.69,4.17-1.69s3.06.56,4.19,1.69c1.13,1.13,1.69,2.53,1.69,4.19s-.56,3.02-1.69,4.17c-1.13,1.14-2.53,1.72-4.19,1.72ZM24,20.08c.56,0,1.02-.19,1.4-.56.38-.38.56-.84.56-1.4s-.19-1.02-.56-1.4c-.38-.38-.84-.56-1.4-.56s-1.02.19-1.4.56-.56.84-.56,1.4.19,1.02.56,1.4.84.56,1.4.56Z"/>
</svg>