<?xml version="1.0" encoding="UTF-8"?>
<svg id="Layer_1" data-name="Layer 1" xmlns="http://www.w3.org/2000/svg" viewBox="0 0 48 48">
  <defs>
    <style>
      .cls-1 {
        fill: #4170ff;
      }
    </style>
  </defs>
  <path class="cls-1" d="M11.46,40.72c-1.74,0-3.22-.61-4.44-1.83-1.22-1.22-1.83-2.7-1.83-4.44s.61-3.22,1.83-4.44c1.22-1.22,2.7-1.83,4.44-1.83s3.22.61,4.44,1.83c1.22,1.22,1.83,2.7,1.83,4.44s-.61,3.22-1.83,4.44c-1.22,1.22-2.7,1.83-4.44,1.83ZM36.54,40.72c-1.74,0-3.22-.61-4.44-1.83-1.22-1.22-1.83-2.7-1.83-4.44s.61-3.22,1.83-4.44c1.22-1.22,2.7-1.83,4.44-1.83s3.22.61,4.44,1.83,1.83,2.7,1.83,4.44-.61,3.22-1.83,4.44c-1.22,1.22-2.7,1.83-4.44,1.83ZM24,19.82c-1.74,0-3.22-.61-4.44-1.83s-1.83-2.7-1.83-4.44.61-3.22,1.83-4.44c1.22-1.22,2.7-1.83,4.44-1.83s3.22.61,4.44,1.83c1.22,1.22,1.83,2.7,1.83,4.44s-.61,3.22-1.83,4.44-2.7,1.83-4.44,1.83Z"/>
</svg>