<?xml version="1.0" encoding="UTF-8"?>
<svg id="Layer_1" data-name="Layer 1" xmlns="http://www.w3.org/2000/svg" viewBox="0 0 48 48">
  <defs>
    <style>
      .cls-1 {
        fill: #4170ff;
      }
    </style>
  </defs>
  <path class="cls-1" d="M14.52,27.79c.54,0,.99-.18,1.35-.55s.55-.81.55-1.35-.18-.99-.55-1.35-.81-.55-1.35-.55-.99.18-1.35.55c-.36.36-.55.81-.55,1.35s.18.99.55,1.35c.36.36.81.55,1.35.55ZM14.52,20.21c.54,0,.99-.18,1.35-.55s.55-.81.55-1.35-.18-.99-.55-1.35-.81-.55-1.35-.55-.99.18-1.35.55c-.36.36-.55.81-.55,1.35s.18.99.55,1.35c.36.36.81.55,1.35.55ZM18.31,27.79h17.07v-3.79h-17.07v3.79ZM18.31,20.21h17.07v-3.79h-17.07v3.79ZM16.41,41.07v-3.79h-7.59c-1.04,0-1.94-.37-2.68-1.11s-1.11-1.64-1.11-2.68V10.72c0-1.04.37-1.94,1.11-2.68s1.64-1.11,2.68-1.11h30.35c1.04,0,1.94.37,2.68,1.11.74.74,1.11,1.64,1.11,2.68v22.76c0,1.04-.37,1.94-1.11,2.68-.74.74-1.64,1.11-2.68,1.11h-7.59v3.79h-15.18Z"/>
</svg>