<?xml version="1.0" encoding="UTF-8"?>
<svg id="Layer_1" data-name="Layer 1" xmlns="http://www.w3.org/2000/svg" viewBox="0 0 48 48">
  <defs>
    <style>
      .cls-1 {
        fill: #4170ff;
      }
    </style>
  </defs>
  <path class="cls-1" d="M20.19,23.01c-2.18,0-4.04-.77-5.59-2.32-1.55-1.55-2.32-3.41-2.32-5.59s.77-4.04,2.32-5.59c1.55-1.55,3.41-2.32,5.59-2.32s4.04.77,5.59,2.32c1.55,1.55,2.32,3.41,2.32,5.59s-.77,4.04-2.32,5.59c-1.55,1.55-3.41,2.32-5.59,2.32ZM4.38,38.83v-5.54c0-1.09.28-2.11.84-3.06s1.33-1.68,2.32-2.18c1.68-.86,3.58-1.58,5.68-2.18,2.11-.59,4.43-.89,6.97-.89h.69c.2,0,.4.03.59.1-.26.59-.49,1.21-.67,1.85s-.32,1.31-.42,2h-.2c-2.34,0-4.44.3-6.3.89-1.86.59-3.39,1.19-4.57,1.78-.3.16-.54.4-.72.69s-.27.63-.27.99v1.58h12.46c.2.69.46,1.38.79,2.05s.69,1.31,1.09,1.9H4.38ZM32.06,40.81l-.59-2.97c-.4-.16-.77-.34-1.11-.52s-.7-.4-1.06-.67l-2.87.89-1.98-3.36,2.27-1.98c-.07-.46-.1-.89-.1-1.29s.03-.82.1-1.29l-2.27-1.98,1.98-3.36,2.87.89c.36-.26.72-.49,1.06-.67s.72-.35,1.11-.52l.59-2.97h3.95l.59,2.97c.4.16.77.35,1.11.54s.7.44,1.06.74l2.87-.99,1.98,3.46-2.27,1.98c.07.4.1.81.1,1.24s-.03.84-.1,1.24l2.27,1.98-1.98,3.36-2.87-.89c-.36.26-.72.49-1.06.67s-.72.35-1.11.52l-.59,2.97h-3.95ZM34.03,34.88c1.09,0,2.02-.39,2.79-1.16.77-.77,1.16-1.71,1.16-2.79s-.39-2.02-1.16-2.79-1.71-1.16-2.79-1.16-2.02.39-2.79,1.16-1.16,1.71-1.16,2.79.39,2.02,1.16,2.79c.77.77,1.71,1.16,2.79,1.16ZM20.19,19.06c1.09,0,2.02-.39,2.79-1.16.77-.77,1.16-1.71,1.16-2.79s-.39-2.02-1.16-2.79-1.71-1.16-2.79-1.16-2.02.39-2.79,1.16c-.77.77-1.16,1.71-1.16,2.79s.39,2.02,1.16,2.79,1.71,1.16,2.79,1.16Z"/>
</svg>