<?xml version="1.0" encoding="UTF-8"?>
<svg id="Layer_1" data-name="Layer 1" xmlns="http://www.w3.org/2000/svg" viewBox="0 0 48 48">
  <defs>
    <style>
      .cls-1 {
        fill: #4170ff;
      }
    </style>
  </defs>
  <path class="cls-1" d="M25.1,20.6l-2.38-2.38,2.67-2.72h-7.09v-3.4h7.09l-2.72-2.72,2.42-2.38,6.79,6.79-6.79,6.79ZM16.61,40.98c-.93,0-1.73-.33-2.4-1-.67-.67-1-1.46-1-2.4s.33-1.73,1-2.4c.67-.67,1.46-1,2.4-1s1.73.33,2.4,1c.67.67,1,1.46,1,2.4s-.33,1.73-1,2.4c-.67.67-1.46,1-2.4,1ZM33.59,40.98c-.93,0-1.73-.33-2.4-1-.67-.67-1-1.46-1-2.4s.33-1.73,1-2.4c.67-.67,1.46-1,2.4-1s1.73.33,2.4,1,1,1.46,1,2.4-.33,1.73-1,2.4-1.46,1-2.4,1ZM6.43,10.42v-3.4h5.56l7.22,15.28h11.89l6.62-11.89h3.86l-7.47,13.5c-.31.57-.73,1-1.25,1.32s-1.1.47-1.72.47h-12.65l-1.87,3.4h20.38v3.4h-20.38c-1.27,0-2.24-.55-2.91-1.66s-.69-2.22-.06-3.35l2.29-4.16-6.11-12.9h-3.4Z"/>
</svg>