<?xml version="1.0" encoding="UTF-8"?>
<svg id="Layer_1" data-name="Layer 1" xmlns="http://www.w3.org/2000/svg" viewBox="0 0 48 48">
  <defs>
    <style>
      .cls-1 {
        fill: #4170ff;
        stroke-width: 0px;
      }
    </style>
  </defs>
  <path class="cls-1" d="M33.9,15.87c0-4.29-2.75-7.94-6.57-9.31,1.48-1.05,2.45-2.77,2.45-4.71,0-.46-.37-.83-.83-.83s-.83.37-.83.83c0,2.28-1.85,4.13-4.13,4.13s-4.13-1.85-4.13-4.13c0-.46-.37-.83-.83-.83s-.83.37-.83.83c0,1.95.97,3.67,2.45,4.71-3.83,1.37-6.57,5.02-6.57,9.31v.83h19.81v-.83Z"/>
  <path class="cls-1" d="M28.22,32.08h.65c-.31-2.15-2.01-3.86-4.17-4.17v.65c0,.39-.31.7-.7.7s-.7-.31-.7-.7v-.65c-2.15.31-3.86,2.01-4.17,4.17h.65c.39,0,.7.31.7.7s-.31.7-.7.7h-.65c.31,2.15,2.01,3.86,4.17,4.17v-.65c0-.39.31-.7.7-.7s.7.31.7.7v.65c2.15-.31,3.86-2.01,4.17-4.17h-.65c-.39,0-.7-.31-.7-.7s.31-.7.7-.7Z"/>
  <path class="cls-1" d="M37.2,31.96h9.08c.46,0,.83-.37.83-.83s-.37-.83-.83-.83h-9.08v-6.67l4.57-4.57c.47-.47,1.09-.72,1.75-.72h2.76c.46,0,.83-.37.83-.83s-.37-.83-.83-.83h-2.76c-1.1,0-2.14.43-2.92,1.21l-3.43,3.43c-.16-1.67-1.56-2.99-3.27-2.99H14.1c-1.71,0-3.11,1.32-3.27,2.99l-3.43-3.43c-.78-.78-1.82-1.21-2.92-1.21H1.72c-.46,0-.83.37-.83.83s.37.83.83.83h2.76c.66,0,1.28.26,1.75.72l4.57,4.57v6.67H1.72c-.46,0-.83.37-.83.83s.37.83.83.83h9.08v6.19c0,.15.02.31.02.46l-4.59,4.59c-.47.47-1.09.73-1.75.73H1.72c-.46,0-.83.37-.83.83s.37.83.83.83h2.76c1.1,0,2.14-.43,2.92-1.21l3.75-3.75c1.08,3.81,4.58,6.61,8.73,6.61h8.25c4.15,0,7.65-2.8,8.73-6.61l3.75,3.75c.78.78,1.82,1.21,2.92,1.21h2.76c.46,0,.83-.37.83-.83s-.37-.83-.83-.83h-2.76c-.66,0-1.28-.26-1.75-.73l-4.59-4.59c0-.15.02-.31.02-.46v-6.19h0ZM32.25,33.61h-.87c-.38,3.44-3.12,6.17-6.55,6.55v.87c0,.46-.37.83-.83.83s-.83-.37-.83-.83v-.87c-3.44-.38-6.17-3.12-6.55-6.55h-.87c-.46,0-.83-.37-.83-.83s.37-.83.83-.83h.87c.38-3.44,3.12-6.17,6.55-6.55v-.87c0-.46.37-.83.83-.83s.83.37.83.83v.87c3.44.38,6.17,3.12,6.55,6.55h.87c.46,0,.83.37.83.83s-.37.83-.83.83Z"/>
</svg>