<?xml version="1.0" encoding="UTF-8"?>
<svg id="Layer_1" data-name="Layer 1" xmlns="http://www.w3.org/2000/svg" viewBox="0 0 48 48">
  <defs>
    <style>
      .cls-1 {
        fill: #4170ff;
        stroke-width: 0px;
      }
    </style>
  </defs>
  <path class="cls-1" d="M1.49,44.94v-8.18c0-1.16.4-2.13,1.2-2.92.8-.78,1.76-1.18,2.89-1.18h6.7c.68,0,1.33.17,1.94.51s1.11.8,1.48,1.38c.99,1.33,2.21,2.37,3.66,3.12,1.45.75,2.99,1.13,4.63,1.13s3.23-.38,4.68-1.13,2.65-1.79,3.61-3.12c.44-.58.96-1.04,1.56-1.38s1.22-.51,1.87-.51h6.7c1.16,0,2.13.39,2.92,1.18s1.18,1.76,1.18,2.92v8.18h-14.32v-4.65c-1.19.85-2.48,1.5-3.86,1.94s-2.82.66-4.32.66-2.9-.23-4.3-.69-2.69-1.12-3.89-1.97v4.71H1.49ZM7.63,30.62c-1.7,0-3.15-.6-4.35-1.79-1.19-1.19-1.79-2.64-1.79-4.35s.6-3.2,1.79-4.37c1.19-1.18,2.64-1.76,4.35-1.76s3.2.59,4.37,1.76c1.18,1.18,1.76,2.63,1.76,4.37s-.59,3.15-1.76,4.35-2.63,1.79-4.37,1.79ZM40.37,30.62c-1.7,0-3.15-.6-4.35-1.79-1.19-1.19-1.79-2.64-1.79-4.35s.6-3.2,1.79-4.37,2.64-1.76,4.35-1.76,3.2.59,4.37,1.76c1.18,1.18,1.76,2.63,1.76,4.37s-.59,3.15-1.76,4.35c-1.18,1.19-2.63,1.79-4.37,1.79Z"/>
  <path class="cls-1" d="M21.23,20.14l-1.55-2.6-2.93-.65.28-3.01-1.99-2.28,1.99-2.28-.28-3.01,2.93-.65,1.55-2.6,2.77,1.18,2.77-1.18,1.55,2.6,2.93.65-.28,3.01,1.99,2.28-1.99,2.28.28,3.01-2.93.65-1.55,2.6-2.77-1.18-2.77,1.18ZM23.15,14.49l4.6-4.6-1.14-1.18-3.46,3.46-1.75-1.71-1.14,1.14,2.89,2.89Z"/>
</svg>