<?xml version="1.0" encoding="UTF-8"?>
<svg id="Layer_1" data-name="Layer 1" xmlns="http://www.w3.org/2000/svg" viewBox="0 0 48 48">
  <defs>
    <style>
      .cls-1 {
        fill: #4170ff;
        stroke-width: 0px;
      }
    </style>
  </defs>
  <path class="cls-1" d="M.72,42.62v-4.66h6.34c-1.98-1.71-3.53-3.76-4.66-6.17-1.13-2.41-1.69-5-1.69-7.8,0-4.35,1.32-8.18,3.96-11.49,2.64-3.32,5.97-5.5,10.01-6.55v4.89c-2.72.97-4.95,2.65-6.69,5.03-1.75,2.39-2.62,5.09-2.62,8.12,0,2.09.42,4.02,1.25,5.79.83,1.77,1.97,3.29,3.4,4.57v-5.7h4.66v13.97H.72ZM26.33,42.62c-1.94,0-3.59-.68-4.95-2.04-1.36-1.36-2.04-3.01-2.04-4.95s.64-3.46,1.92-4.8,2.85-2.05,4.71-2.12c.66-1.4,1.64-2.53,2.94-3.4s2.76-1.31,4.39-1.31c2.06,0,3.83.67,5.32,2.01s2.4,3,2.71,4.98c1.63,0,3.03.56,4.19,1.69,1.16,1.13,1.75,2.48,1.75,4.07s-.56,3.02-1.69,4.16-2.5,1.72-4.13,1.72h-15.13ZM33.08,21.67c-.27-1.59-.8-3.06-1.57-4.42s-1.73-2.56-2.85-3.61v5.7h-4.66V5.38h13.97v4.66h-6.34c1.67,1.47,3.04,3.2,4.1,5.18s1.76,4.13,2.07,6.46h-4.71ZM26.33,37.97h15.13c.31,0,.58-.12.81-.35s.35-.5.35-.81-.12-.58-.35-.81-.5-.35-.81-.35h-4.07v-2.91c0-1.13-.4-2.09-1.19-2.88s-1.76-1.19-2.88-1.19-2.09.4-2.88,1.19-1.19,1.76-1.19,2.88v.58h-2.91c-.66,0-1.21.22-1.66.67s-.67,1-.67,1.66.22,1.21.67,1.66c.45.45,1,.67,1.66.67Z"/>
</svg>