<?xml version="1.0" encoding="UTF-8"?>
<svg id="Layer_1" data-name="Layer 1" xmlns="http://www.w3.org/2000/svg" viewBox="0 0 48 48">
  <defs>
    <style>
      .cls-1 {
        fill: #4170ff;
        stroke-width: 0px;
      }
    </style>
  </defs>
  <path class="cls-1" d="M35.42,44.56c-.65,0-1.19-.22-1.63-.66-.44-.44-.66-.98-.66-1.63v-18.16c0-.65.22-1.19.66-1.63.44-.44.98-.66,1.63-.66h9.14c.65,0,1.19.22,1.63.66.44.44.66.98.66,1.63v18.16c0,.65-.22,1.19-.66,1.63-.44.44-.98.66-1.63.66h-9.14ZM35.42,39.99h9.14v-13.59h-9.14v13.59ZM14.86,44.56v-4.57h4.57v-4.57H5.72c-1.26,0-2.33-.45-3.23-1.34-.89-.89-1.34-1.97-1.34-3.23V8.01c0-1.26.45-2.33,1.34-3.23s1.97-1.34,3.23-1.34h31.99c1.26,0,2.33.45,3.23,1.34s1.34,1.97,1.34,3.23v9.25h-4.57v-9.25H5.72v22.85h22.85v4.57h-4.57v4.57h4.57v4.57h-13.71ZM16.46,28l5.25-4,5.25,4-1.94-6.51,5.25-4.23h-6.51l-2.06-6.4-2.06,6.4h-6.51l5.25,4.23-1.94,6.51Z"/>
</svg>