<?xml version="1.0" encoding="UTF-8"?>
<svg id="Layer_1" data-name="Layer 1" xmlns="http://www.w3.org/2000/svg" viewBox="0 0 48 48">
  <defs>
    <style>
      .cls-1 {
        fill: #4170ff;
        stroke-width: 0px;
      }
    </style>
  </defs>
  <path class="cls-1" d="M3.48,36.42L-.08,33.85l10.95-17.51,6.57,7.66,8.76-14.23,5.97,8.92c-.84.04-1.63.14-2.38.3s-1.49.39-2.22.68l-1.2-1.81-8.32,13.52-6.62-7.72-7.94,12.75ZM44.96,46.99l-6.84-6.84c-.73.51-1.54.89-2.44,1.15s-1.82.38-2.76.38c-2.74,0-5.06-.96-6.98-2.87s-2.87-4.24-2.87-6.98.96-5.06,2.87-6.98,4.24-2.87,6.98-2.87,5.06.96,6.98,2.87,2.87,4.24,2.87,6.98c0,.95-.13,1.87-.38,2.76-.26.89-.64,1.72-1.15,2.49l6.84,6.79-3.12,3.12ZM32.92,37.3c1.53,0,2.83-.53,3.89-1.59,1.06-1.06,1.59-2.35,1.59-3.89s-.53-2.83-1.59-3.89c-1.06-1.06-2.35-1.59-3.89-1.59s-2.83.53-3.89,1.59c-1.06,1.06-1.59,2.35-1.59,3.89s.53,2.83,1.59,3.89c1.06,1.06,2.35,1.59,3.89,1.59ZM37.79,19.79c-.69-.29-1.41-.53-2.16-.71s-1.52-.29-2.33-.33L44.52,1.01l3.56,2.57-10.29,16.2Z"/>
</svg>