<?xml version="1.0" encoding="UTF-8"?>
<svg id="Layer_1" data-name="Layer 1" xmlns="http://www.w3.org/2000/svg" xmlns:xlink="http://www.w3.org/1999/xlink" viewBox="0 0 300 120">
  <defs>
    <style>
      .cls-1 {
        fill: none;
      }

      .cls-2 {
        fill: url(#linear-gradient-2);
      }

      .cls-3 {
        fill: url(#linear-gradient);
      }

      .cls-4 {
        fill: #425066;
      }

      .cls-5 {
        clip-path: url(#clippath-1);
      }

      .cls-6 {
        clip-path: url(#clippath);
      }
    </style>
    <clipPath id="clippath">
      <polygon class="cls-1" points="65.83 48.08 45.95 36.77 45.95 83.23 53.9 78.64 53.9 65.56 59.91 69.01 59.82 60.09 53.9 56.64 53.9 51.43 65.83 58.41 65.83 48.08"/>
    </clipPath>
    <linearGradient id="linear-gradient" x1="22.46" y1="711.96" x2="71.22" y2="711.96" gradientTransform="translate(0 -652)" gradientUnits="userSpaceOnUse">
      <stop offset="0" stop-color="#ff6f00"/>
      <stop offset="1" stop-color="#ffa800"/>
    </linearGradient>
    <clipPath id="clippath-1">
      <polygon class="cls-1" points="24.32 48.08 44.19 36.77 44.19 83.23 36.24 78.64 36.24 51.43 24.32 58.41 24.32 48.08"/>
    </clipPath>
    <linearGradient id="linear-gradient-2" x1="22.2" x2="70.95" xlink:href="#linear-gradient"/>
  </defs>
  <g class="cls-6">
    <path class="cls-3" d="M22.46,36.59h48.75v46.72H22.46v-46.72Z"/>
  </g>
  <g class="cls-5">
    <path class="cls-2" d="M22.2,36.59h48.75v46.72H22.2v-46.72Z"/>
  </g>
  <path class="cls-4" d="M101.78,51.17h-8.83v24.47h-4.95v-24.47h-8.83v-3.97h22.61v3.97Z"/>
  <path class="cls-4" d="M107.69,75.99c-3,0-5.48-.97-7.33-2.83-1.85-1.85-2.83-4.42-2.83-7.6v-.62c0-1.94.35-3.89,1.24-5.65.79-1.59,1.94-2.91,3.44-3.89,1.5-.97,3.18-1.41,4.95-1.41,2.91,0,5.12.88,6.71,2.74s2.38,4.42,2.38,7.77v1.94h-13.87c.09,1.59.71,3,1.77,4.15,1.06,1.06,2.38,1.59,3.89,1.5,2.12.09,4.06-.97,5.3-2.65l2.56,2.47c-.88,1.24-2.03,2.3-3.36,2.91-1.59.88-3.18,1.24-4.86,1.15ZM107.16,57.88c-1.24-.09-2.38.44-3.18,1.32-.88,1.06-1.41,2.38-1.5,3.8h9.1v-.35c-.09-1.59-.53-2.83-1.24-3.62-.88-.71-2.03-1.24-3.18-1.15ZM124.3,54.44l.18,2.47c1.5-1.85,3.8-2.91,6.18-2.83,4.42,0,6.62,2.56,6.71,7.6v13.96h-4.77v-13.69c0-1.32-.26-2.3-.88-3-.62-.62-1.5-.97-2.83-.97-1.85-.09-3.53.97-4.33,2.56v15.02h-4.77v-21.2s4.5.09,4.5.09ZM152.74,69.89c0-.79-.35-1.5-1.06-1.94-1.06-.62-2.3-.97-3.44-1.15-1.41-.26-2.74-.71-4.06-1.32-2.38-1.15-3.53-2.83-3.53-4.95,0-1.77.88-3.53,2.3-4.59,1.5-1.24,3.53-1.85,5.83-1.85,2.56,0,4.59.62,6.09,1.85,1.5,1.15,2.38,3,2.3,4.86h-4.77c0-.88-.35-1.68-1.06-2.3-.79-.62-1.68-.97-2.74-.88-.88,0-1.77.18-2.56.71-.62.44-.97,1.15-.97,1.94,0,.71.35,1.32.88,1.68.62.44,1.85.79,3.71,1.24,1.5.26,3,.79,4.42,1.5.97.44,1.77,1.15,2.38,2.03.53.88.79,1.85.79,2.91,0,1.85-.88,3.53-2.38,4.59-1.59,1.15-3.62,1.77-6.18,1.77-1.59,0-3.18-.26-4.59-.97-1.24-.53-2.38-1.41-3.18-2.56-.71-1.06-1.15-2.3-1.15-3.53h4.59c0,.97.44,1.94,1.24,2.56.88.62,2.03.97,3.09.88,1.24,0,2.21-.26,2.83-.71.88-.35,1.24-1.06,1.24-1.77h0ZM159.89,64.86c0-1.94.35-3.89,1.24-5.56.79-1.59,1.94-2.91,3.44-3.8,1.59-.88,3.36-1.41,5.12-1.32,2.83,0,5.21.88,6.98,2.74s2.74,4.24,2.91,7.33v1.15c0,1.94-.35,3.8-1.24,5.56-.71,1.59-1.94,2.91-3.44,3.8-1.59.88-3.36,1.41-5.21,1.32-3,0-5.39-.97-7.15-3-1.77-1.94-2.65-4.59-2.74-7.95l.09-.26ZM164.57,65.3c0,2.21.44,3.89,1.32,5.12,1.59,2.03,4.5,2.47,6.62.88.35-.26.62-.53.88-.88.88-1.24,1.32-3.09,1.32-5.48,0-2.12-.44-3.8-1.41-5.12-1.5-2.03-4.42-2.47-6.54-.97-.35.26-.71.62-.97.88-.71,1.24-1.24,3.09-1.24,5.56ZM193.81,58.85c-.62-.09-1.32-.18-1.94-.18-2.21,0-3.62.79-4.42,2.47v14.49h-4.77v-21.2h4.5l.09,2.38c1.15-1.85,2.74-2.74,4.77-2.74.53,0,1.15.09,1.68.26l.09,4.5h0ZM213.68,63.53h-11.48v12.1h-4.95v-28.44h18.11v3.97h-13.16v8.48h11.48v3.89ZM223.13,75.63h-4.77v-28.53h4.77v28.53ZM226.58,64.86c0-1.94.35-3.89,1.24-5.56.79-1.59,1.94-2.91,3.44-3.8,1.59-.88,3.36-1.41,5.12-1.32,2.83,0,5.21.88,6.98,2.74s2.74,4.24,2.91,7.33v1.15c0,1.94-.35,3.8-1.15,5.56-.71,1.59-1.94,2.91-3.44,3.8-1.59.88-3.36,1.41-5.21,1.32-3,0-5.39-.97-7.15-3-1.77-1.94-2.74-4.59-2.74-7.95v-.26h0ZM231.35,65.3c0,2.21.44,3.89,1.32,5.12s2.3,1.94,3.8,1.85c1.5.09,2.91-.62,3.71-1.85.88-1.24,1.32-3.09,1.32-5.48,0-2.12-.44-3.8-1.41-5.12-1.5-2.03-4.42-2.47-6.54-.97-.35.26-.71.62-.97.88-.79,1.24-1.24,3.09-1.24,5.56ZM267.74,69.1l3.36-14.57h4.59l-5.74,21.2h-3.89l-4.5-14.57-4.5,14.57h-3.89l-5.83-21.2h4.68l3.44,14.49,4.33-14.49h3.62l4.33,14.57h0Z"/>
</svg>