<?xml version="1.0" encoding="UTF-8"?>
<svg id="Layer_1" data-name="Layer 1" xmlns="http://www.w3.org/2000/svg" viewBox="0 0 48 48">
  <defs>
    <style>
      .cls-1 {
        fill: #4170ff;
        stroke-width: 0px;
      }
    </style>
  </defs>
  <path class="cls-1" d="M17.43,40.62c-3.55-1.64-6.43-4.11-8.64-7.42-2.22-3.31-3.32-7.04-3.32-11.2,0-.89.04-1.76.13-2.61s.23-1.69.43-2.51l-2.35,1.38-2.05-3.53,9.77-5.63,5.63,9.72-3.58,2.05-2.76-4.81c-.38.92-.66,1.88-.84,2.86s-.28,2.01-.28,3.07c0,3.31.9,6.32,2.71,9.03,1.81,2.71,4.21,4.71,7.21,6.01l-2.05,3.58ZM33.08,15.82v-4.09h5.57c-1.57-1.94-3.46-3.45-5.68-4.53-2.22-1.07-4.57-1.61-7.06-1.61-1.88,0-3.65.29-5.32.87s-3.2,1.4-4.6,2.45l-2.05-3.58c1.7-1.19,3.56-2.13,5.57-2.81,2.01-.68,4.14-1.02,6.39-1.02,2.69,0,5.27.5,7.72,1.51,2.45,1.01,4.65,2.46,6.6,4.37v-2.81h4.09v11.25h-11.25ZM31.75,46.5l-9.77-5.63,5.63-9.72,3.53,2.05-2.92,5.01c4.02-.58,7.37-2.4,10.05-5.47,2.68-3.07,4.01-6.67,4.01-10.79,0-.38,0-.72-.03-1.05s-.06-.66-.13-1h4.14c.03.34.06.67.08,1s.03.67.03,1.05c0,4.6-1.37,8.72-4.12,12.35s-6.32,6.08-10.71,7.34l2.25,1.33-2.05,3.53Z"/>
</svg>