<?xml version="1.0" encoding="UTF-8"?>
<svg id="Layer_1" data-name="Layer 1" xmlns="http://www.w3.org/2000/svg" viewBox="0 0 48 48">
  <defs>
    <style>
      .cls-1 {
        fill: #4170ff;
        stroke-width: 0px;
      }
    </style>
  </defs>
  <path class="cls-1" d="M8.89,39.36c-1.51-1.76-2.67-3.74-3.5-5.93-.83-2.19-1.24-4.51-1.24-6.97,0-5.51,1.93-10.2,5.79-14.06,3.86-3.86,8.55-5.79,14.06-5.79h.44l-3.53-3.53,3.09-3.09,8.82,8.82-8.82,8.82-3.14-3.14,3.47-3.47h-.33c-4.26,0-7.9,1.51-10.92,4.52-3.01,3.01-4.52,6.65-4.52,10.92,0,1.87.3,3.64.91,5.29.61,1.65,1.46,3.14,2.56,4.47l-3.14,3.14ZM21.55,41.28c0-1.01-.34-2.01-1.02-3-.68-.99-1.44-2.02-2.28-3.1-.84-1.08-1.59-2.2-2.28-3.36-.68-1.17-1.02-2.41-1.02-3.73,0-2.55.9-4.73,2.7-6.53,1.8-1.8,3.98-2.7,6.53-2.7s4.73.9,6.53,2.7c1.8,1.8,2.7,3.98,2.7,6.53,0,1.32-.34,2.56-1.02,3.73-.68,1.17-1.44,2.29-2.28,3.36-.84,1.08-1.59,2.11-2.28,3.1-.68.99-1.02,1.99-1.02,3h-5.28ZM39.11,39.36l-3.14-3.14c1.1-1.32,1.96-2.81,2.56-4.47.61-1.65.91-3.42.91-5.29,0-2.43-.51-4.68-1.52-6.75s-2.4-3.81-4.16-5.21l3.14-3.14c2.13,1.84,3.82,4.05,5.07,6.64,1.25,2.59,1.87,5.41,1.87,8.46,0,2.46-.41,4.79-1.24,6.97-.83,2.19-1.99,4.16-3.5,5.93Z"/>
  <rect class="cls-1" x="20.64" y="43.13" width="6.96" height="4.87"/>
</svg>