<?xml version="1.0" encoding="UTF-8"?>
<svg id="Layer_1" data-name="Layer 1" xmlns="http://www.w3.org/2000/svg" viewBox="0 0 48 48">
  <defs>
    <style>
      .cls-1 {
        fill: #4170ff;
        stroke-width: 0px;
      }
    </style>
  </defs>
  <path class="cls-1" d="M35.25,42l6.75-6.75-6.75-6.75-1.58,1.58,4.05,4.05h-9.23v2.25h9.17l-3.99,4.05,1.58,1.58ZM35.25,46.5c-3.11,0-5.77-1.1-7.96-3.29s-3.29-4.85-3.29-7.96,1.1-5.77,3.29-7.96,4.85-3.29,7.96-3.29,5.77,1.1,7.96,3.29,3.29,4.85,3.29,7.96-1.1,5.77-3.29,7.96-4.85,3.29-7.96,3.29ZM17.81,46.5l-.9-7.2c-.49-.19-.95-.41-1.38-.68s-.85-.54-1.27-.84l-6.69,2.81L1.39,29.91l5.79-4.39c-.04-.26-.06-.52-.06-.76v-1.52c0-.24.02-.5.06-.76l-5.79-4.39L7.57,7.4l6.69,2.81c.41-.3.83-.58,1.27-.84s.89-.49,1.38-.68l.9-7.2h12.38l.9,7.2c.49.19.95.41,1.38.68s.85.54,1.27.84l6.69-2.81,6.19,10.69-4.16,3.15c-1.13-.56-2.29-.99-3.49-1.29-1.2-.3-2.44-.45-3.71-.45-.75,0-1.47.07-2.17.2s-1.4.29-2.11.48c-.71-1.24-1.68-2.22-2.9-2.95-1.22-.73-2.54-1.1-3.97-1.1-2.18,0-4.03.77-5.57,2.31-1.54,1.54-2.31,3.39-2.31,5.57,0,1.43.35,2.74,1.04,3.94s1.64,2.16,2.84,2.87c-.23.75-.38,1.53-.48,2.33s-.14,1.6-.14,2.39c.04,2.1.46,4.1,1.27,5.99.81,1.89,1.96,3.55,3.46,4.98h-6.41Z"/>
</svg>