<?xml version="1.0" encoding="UTF-8"?>
<svg id="Layer_1" data-name="Layer 1" xmlns="http://www.w3.org/2000/svg" viewBox="0 0 48 48">
  <defs>
    <style>
      .cls-1 {
        fill: #4170ff;
        stroke-width: 0px;
      }
    </style>
  </defs>
  <path class="cls-1" d="M1.05,42.86v-5.87c0-1.15.3-2.24.89-3.25.59-1.01,1.41-1.78,2.46-2.31,1.78-.91,3.79-1.68,6.02-2.31,2.24-.63,4.7-.94,7.39-.94s5.15.31,7.39.94c2.24.63,4.24,1.4,6.02,2.31,1.05.52,1.87,1.29,2.46,2.31s.89,2.1.89,3.25v5.87H1.05ZM17.82,26.1c-2.31,0-4.28-.82-5.92-2.46-1.64-1.64-2.46-3.61-2.46-5.92h-.52c-.31,0-.57-.1-.76-.29s-.29-.45-.29-.76.1-.57.29-.76.45-.29.76-.29h.52c0-1.57.38-2.99,1.15-4.24.77-1.26,1.78-2.25,3.04-2.99v1.99c0,.31.1.57.29.76s.45.29.76.29.57-.1.76-.29.29-.45.29-.76v-2.83c.31-.1.65-.18,1-.24s.72-.08,1.1-.08.75.03,1.1.08.68.13,1,.24v2.83c0,.31.1.57.29.76s.45.29.76.29.57-.1.76-.29.29-.45.29-.76v-1.99c1.26.73,2.27,1.73,3.04,2.99.77,1.26,1.15,2.67,1.15,4.24h.52c.31,0,.57.1.76.29s.29.45.29.76-.1.57-.29.76-.45.29-.76.29h-.52c0,2.31-.82,4.28-2.46,5.92-1.64,1.64-3.61,2.46-5.92,2.46ZM17.82,21.9c1.15,0,2.14-.41,2.96-1.23.82-.82,1.23-1.81,1.23-2.96h-8.38c0,1.15.41,2.14,1.23,2.96s1.81,1.23,2.96,1.23ZM33.53,30.29l-.31-1.57c-.21-.07-.41-.15-.6-.24s-.38-.22-.55-.39l-1.47.52-1.05-1.89,1.15-1.05v-1.26l-1.15-1.05,1.05-1.89,1.47.52c.14-.14.31-.26.52-.37s.42-.19.63-.26l.31-1.57h2.1l.31,1.57c.21.07.42.16.63.26s.38.23.52.37l1.47-.52,1.05,1.89-1.15,1.05v1.26l1.15,1.05-1.05,1.89-1.47-.52c-.17.17-.36.31-.55.39s-.39.17-.6.24l-.31,1.57h-2.1ZM34.58,26.62c.42,0,.79-.16,1.1-.47s.47-.68.47-1.1-.16-.79-.47-1.1-.68-.47-1.1-.47-.79.16-1.1.47-.47.68-.47,1.1.16.79.47,1.1.68.47,1.1.47ZM38.35,19.81l-.42-2.2c-.31-.1-.6-.24-.86-.39s-.5-.34-.71-.55l-2.2.73-1.47-2.51,1.78-1.57c-.07-.17-.1-.31-.1-.42v-.84c0-.1.03-.24.1-.42l-1.78-1.57,1.47-2.51,2.2.73c.21-.21.45-.39.71-.55s.55-.29.86-.39l.42-2.2h2.93l.42,2.2c.31.1.6.24.86.39s.5.34.71.55l2.2-.73,1.47,2.51-1.78,1.57c.07.17.1.31.1.42v.84c0,.1-.03.24-.1.42l1.78,1.57-1.47,2.51-2.2-.73c-.21.21-.45.39-.71.55s-.55.29-.86.39l-.42,2.2h-2.93ZM39.82,15.09c.73,0,1.35-.25,1.86-.76s.76-1.13.76-1.86-.25-1.35-.76-1.86-1.13-.76-1.86-.76-1.35.25-1.86.76-.76,1.13-.76,1.86.25,1.35.76,1.86,1.13.76,1.86.76Z"/>
</svg>