<?xml version="1.0" encoding="UTF-8"?>
<svg id="Layer_1" data-name="Layer 1" xmlns="http://www.w3.org/2000/svg" viewBox="0 0 48 48">
  <defs>
    <style>
      .cls-1 {
        fill: #4170ff;
        stroke-width: 0px;
      }
    </style>
  </defs>
  <path class="cls-1" d="M1.7,16.5V3.66h4.28v5.03c1.82-2.28,4.04-4.05,6.67-5.3s5.4-1.87,8.33-1.87c5.35,0,9.9,1.87,13.65,5.62,3.75,3.75,5.62,8.3,5.62,13.65h-4.28c0-4.18-1.45-7.72-4.36-10.63-2.91-2.91-6.45-4.36-10.63-4.36-2.46,0-4.76.57-6.91,1.71-2.14,1.14-3.94,2.71-5.41,4.71h5.89v4.28H1.7ZM1.81,22.93h4.39c.43,3.32,1.79,6.13,4.1,8.43,2.3,2.3,5.06,3.7,8.27,4.2l2.57,4.5c-4.93,0-9.24-1.63-12.96-4.9-3.71-3.27-5.84-7.34-6.37-12.23ZM23.87,26.68l-5.03-5.03v-11.56h4.28v9.85l3,3-2.25,3.75ZM33.77,46.49l-.64-3.21c-.43-.18-.83-.37-1.2-.56s-.76-.44-1.15-.72l-3.11.96-2.14-3.64,2.46-2.14c-.07-.46-.11-.93-.11-1.39s.04-.93.11-1.39l-2.46-2.14,2.14-3.64,3.11.96c.39-.29.78-.53,1.15-.72s.78-.38,1.2-.56l.64-3.21h4.28l.64,3.21c.43.18.84.38,1.23.62s.77.49,1.12.78l3.11-1.07,2.14,3.75-2.46,2.14c.07.46.11.91.11,1.34s-.04.87-.11,1.34l2.46,2.14-2.14,3.64-3.11-.96c-.39.29-.78.53-1.15.72s-.78.38-1.2.56l-.64,3.21h-4.28ZM35.91,40.06c1.18,0,2.19-.42,3.02-1.26.84-.84,1.26-1.85,1.26-3.02s-.42-2.19-1.26-3.02c-.84-.84-1.85-1.26-3.02-1.26s-2.19.42-3.02,1.26c-.84.84-1.26,1.85-1.26,3.02s.42,2.19,1.26,3.02c.84.84,1.85,1.26,3.02,1.26Z"/>
</svg>