<?xml version="1.0" encoding="UTF-8"?>
<svg id="Layer_1" data-name="Layer 1" xmlns="http://www.w3.org/2000/svg" viewBox="0 0 48 48">
  <defs>
    <style>
      .cls-1 {
        fill: #4170ff;
        stroke-width: 0px;
      }
    </style>
  </defs>
  <path class="cls-1" d="M21.33,48l-2.99-3.04,3.89-3.89h-7.15c-.46,1.24-1.24,2.27-2.32,3.07-1.08.8-2.32,1.2-3.71,1.2-1.78,0-3.29-.62-4.53-1.87-1.24-1.24-1.87-2.76-1.87-4.53,0-1.39.4-2.62,1.2-3.71.8-1.08,1.82-1.86,3.07-2.32V15.09c-1.24-.46-2.27-1.24-3.07-2.32-.8-1.08-1.2-2.32-1.2-3.71,0-1.78.62-3.29,1.87-4.53,1.24-1.24,2.76-1.87,4.53-1.87,1.39,0,2.62.4,3.71,1.2,1.08.8,1.86,1.82,2.32,3.07h7.15l-3.89-3.89,2.99-3.04,9.07,9.07-9.07,9.07-2.99-3.04,3.89-3.89h-7.15c-.32.92-.82,1.72-1.49,2.4-.68.68-1.48,1.17-2.4,1.49v17.81c.92.32,1.72.82,2.4,1.49s1.17,1.48,1.49,2.4h7.15l-3.89-3.89,2.99-3.04,9.07,9.07-9.07,9.07ZM38.93,45.33c-1.78,0-3.29-.62-4.53-1.87-1.24-1.24-1.87-2.76-1.87-4.53,0-1.42.4-2.68,1.2-3.76.8-1.08,1.82-1.84,3.07-2.27V15.09c-1.24-.43-2.27-1.18-3.07-2.27s-1.2-2.34-1.2-3.76c0-1.78.62-3.29,1.87-4.53s2.76-1.87,4.53-1.87,3.29.62,4.53,1.87,1.87,2.76,1.87,4.53c0,1.42-.4,2.68-1.2,3.76s-1.82,1.84-3.07,2.27v17.81c1.24.46,2.27,1.24,3.07,2.32.8,1.08,1.2,2.32,1.2,3.71,0,1.78-.62,3.29-1.87,4.53-1.24,1.24-2.76,1.87-4.53,1.87Z"/>
</svg>