<?xml version="1.0" encoding="UTF-8"?>
<svg id="Layer_1" data-name="Layer 1" xmlns="http://www.w3.org/2000/svg" viewBox="0 0 48 48">
  <defs>
    <style>
      .cls-1 {
        fill: #4170ff;
        stroke-width: 0px;
      }
    </style>
  </defs>
  <path class="cls-1" d="M23.44,46.49c-3.11,0-6.03-.59-8.77-1.77-2.74-1.18-5.12-2.78-7.14-4.81-2.02-2.02-3.63-4.4-4.81-7.14-1.18-2.74-1.77-5.66-1.77-8.77s.59-6.03,1.77-8.77c1.18-2.74,2.78-5.12,4.81-7.14s4.4-3.63,7.14-4.81c2.74-1.18,5.66-1.77,8.77-1.77,5.47,0,10.26,1.71,14.36,5.14s6.66,7.73,7.67,12.9h-4.61c-.71-2.74-2-5.18-3.85-7.34-1.86-2.15-4.13-3.78-6.83-4.86v.9c0,1.24-.44,2.3-1.32,3.18-.88.88-1.94,1.32-3.18,1.32h-4.5v4.5c0,.64-.22,1.17-.65,1.6s-.97.65-1.6.65h-4.5v4.5h4.5v6.75h-2.25l-10.79-10.79c-.11.67-.22,1.35-.31,2.02s-.14,1.35-.14,2.02c0,4.91,1.72,9.13,5.17,12.65,3.45,3.52,7.72,5.3,12.82,5.34v4.5ZM43.9,45.36l-7.2-7.2c-.79.45-1.63.82-2.53,1.12s-1.86.45-2.87.45c-2.81,0-5.2-.98-7.17-2.95-1.97-1.97-2.95-4.36-2.95-7.17s.98-5.2,2.95-7.17c1.97-1.97,4.36-2.95,7.17-2.95s5.2.98,7.17,2.95c1.97,1.97,2.95,4.36,2.95,7.17,0,1.01-.15,1.97-.45,2.87-.3.9-.67,1.74-1.12,2.53l7.2,7.2-3.15,3.15ZM31.31,35.24c1.57,0,2.9-.54,3.99-1.63,1.09-1.09,1.63-2.42,1.63-3.99s-.54-2.9-1.63-3.99-2.42-1.63-3.99-1.63-2.9.54-3.99,1.63c-1.09,1.09-1.63,2.42-1.63,3.99s.54,2.9,1.63,3.99,2.42,1.63,3.99,1.63Z"/>
</svg>