<?xml version="1.0" encoding="UTF-8"?>
<svg id="Layer_1" data-name="Layer 1" xmlns="http://www.w3.org/2000/svg" viewBox="0 0 48 48">
  <defs>
    <style>
      .cls-1 {
        fill: #4170ff;
        stroke-width: 0px;
      }
    </style>
  </defs>
  <path class="cls-1" d="M21.74,46.5c-2.86-.3-5.53-1.08-8-2.35-2.47-1.26-4.62-2.9-6.45-4.92-1.83-2.02-3.27-4.33-4.33-6.93-1.06-2.6-1.58-5.37-1.58-8.31,0-3.43.69-6.6,2.06-9.5,1.38-2.9,3.25-5.39,5.63-7.46H3.65V2.52h13.57v13.57h-4.52v-6.16c-2.07,1.66-3.72,3.7-4.95,6.13-1.22,2.43-1.84,5.08-1.84,7.94,0,4.64,1.52,8.64,4.55,12.01,3.03,3.37,6.79,5.34,11.28,5.91v4.58ZM20.78,34.4l-9.55-9.61,3.17-3.17,6.39,6.39,12.83-12.83,3.17,3.22-16,16ZM30.78,45.48v-13.57h4.52v6.16c2.07-1.7,3.72-3.75,4.95-6.16,1.22-2.41,1.84-5.05,1.84-7.92,0-4.64-1.52-8.64-4.55-12.01-3.03-3.37-6.79-5.34-11.28-5.91V1.5c5.73.57,10.55,2.98,14.47,7.24s5.88,9.35,5.88,15.27c0,3.43-.69,6.6-2.06,9.5-1.38,2.9-3.25,5.39-5.63,7.46h5.43v4.52h-13.57Z"/>
</svg>