<?xml version="1.0" encoding="UTF-8"?>
<svg id="Layer_1" data-name="Layer 1" xmlns="http://www.w3.org/2000/svg" viewBox="0 0 48 48">
  <defs>
    <style>
      .cls-1 {
        fill: #4170ff;
        stroke-width: 0px;
      }
    </style>
  </defs>
  <path class="cls-1" d="M32.74,20.69l9.33-9.4-1.85-1.85-7.48,7.48-3.77-3.77-1.85,1.92,5.63,5.63ZM.17,46.5v-5.29h31.77v5.29H.17ZM34.59,27.97c-3.66,0-6.78-1.29-9.36-3.87s-3.87-5.7-3.87-9.36,1.29-6.78,3.87-9.36,5.7-3.87,9.36-3.87,6.78,1.29,9.36,3.87,3.87,5.7,3.87,9.36-1.29,6.78-3.87,9.36-5.7,3.87-9.36,3.87ZM.17,25.32v-5.29h16.68c.31.97.66,1.9,1.06,2.78.4.88.88,1.72,1.46,2.51H.17ZM.17,35.91v-5.29h24.88c1.01.62,2.1,1.14,3.24,1.56,1.15.42,2.36.72,3.64.89v2.85H.17Z"/>
</svg>