<?xml version="1.0" encoding="UTF-8"?>
<svg id="Layer_1" data-name="Layer 1" xmlns="http://www.w3.org/2000/svg" viewBox="0 0 48 48">
  <defs>
    <style>
      .cls-1 {
        fill: #4170ff;
        stroke-width: 0px;
      }
    </style>
  </defs>
  <path class="cls-1" d="M30.03,1.5c-3.06,0-5.62,1.74-7.6,3.91-1.4-.63-2.9-1.1-4.46-1.1-4.31,0-8.01,2.63-9.56,6.43-3.94,1.38-6.91,4.78-6.91,9.04,0,5.48,4.73,9.84,10.44,9.84h.46l8.22-10.97c.81-1.08,2.15-1.73,3.49-1.69,1.27.03,2.5.68,3.26,1.69l8.22,10.97h.46c5.71,0,10.44-4.36,10.44-9.84,0-3.94-2.63-7.07-6.11-8.64-.13-5.37-4.74-9.64-10.36-9.64ZM24.04,19.78c-.46-.01-.89.2-1.16.56l-8.44,11.25c-.47.62-.34,1.5.28,1.97.24.18.54.28.84.28h4.22v8.44c0,2.31,1.91,4.22,4.22,4.22s4.22-1.91,4.22-4.22v-8.44h4.22c.78,0,1.41-.63,1.41-1.41,0-.3-.1-.6-.28-.84l-8.44-11.25c-.26-.34-.66-.55-1.09-.56Z"/>
</svg>