<?xml version="1.0" encoding="UTF-8"?>
<svg id="Layer_1" data-name="Layer 1" xmlns="http://www.w3.org/2000/svg" viewBox="0 0 48 48">
  <defs>
    <style>
      .cls-1 {
        fill: #4170ff;
        stroke-width: 0px;
      }
    </style>
  </defs>
  <path class="cls-1" d="M36.86,5.71v-3.01c0-1.6-2.41-1.6-2.41,0v3.01c0,1.6,2.41,1.6,2.41,0Z"/>
  <path class="cls-1" d="M13.55,5.71v-3.01c0-1.6-2.41-1.6-2.41,0v3.01c0,1.6,2.41,1.6,2.41,0Z"/>
  <path class="cls-1" d="M43.29,4.04h-4.02v1.67c0,1.99-1.62,3.62-3.62,3.62s-3.62-1.62-3.62-3.62v-1.67H15.96v1.67c0,1.99-1.62,3.62-3.62,3.62s-3.62-1.62-3.62-3.62v-1.67h-4.02c-1.78,0-3.22,1.44-3.22,3.22v4.49h45.01v-4.49c0-1.78-1.44-3.22-3.22-3.22Z"/>
  <path class="cls-1" d="M1.49,43.29c0,1.78,1.44,3.22,3.22,3.22h38.58c1.78,0,3.22-1.44,3.22-3.22V14.15H1.49v29.14ZM10.34,29.34c0-.44.24-.84.62-1.05l1.57-.88c.56-4.41,3.25-7.54,6.9-9.06v5.98c0,.65.53,1.18,1.18,1.18s1.18-.53,1.18-1.18v-6.55c0-.67.54-1.21,1.21-1.21h2.03c.67,0,1.21.54,1.21,1.21v6.55c0,.65.53,1.18,1.18,1.18s1.18-.53,1.18-1.18v-5.98c3.64,1.52,6.33,4.64,6.89,9.06l1.57.88c.38.21.62.62.62,1.05v1.48H10.34v-1.48ZM18.06,33.23c.75,2.57,3.12,4.45,5.94,4.45s5.18-1.88,5.93-4.45h7.73l-3.23,1.2c-.23.83-.56,1.63-.98,2.37l.66,1.69c.12.3.05.64-.18.87l-2.07,2.07c-.23.23-.57.3-.87.18l-1.69-.66c-.74.42-1.53.74-2.37.98l-.73,1.66c-.13.3-.42.49-.74.49h-2.93c-.32,0-.61-.19-.74-.49l-.73-1.66c-.83-.23-1.63-.56-2.37-.98l-1.69.66c-.3.12-.64.05-.87-.18l-2.07-2.07c-.23-.23-.3-.57-.18-.87l.66-1.69c-.42-.74-.74-1.53-.98-2.37l-3.23-1.2h7.73Z"/>
</svg>