<?xml version="1.0" encoding="UTF-8"?>
<svg id="Layer_1" data-name="Layer 1" xmlns="http://www.w3.org/2000/svg" viewBox="0 0 48 48">
  <defs>
    <style>
      .cls-1 {
        fill: #4170ff;
        stroke-width: 0px;
      }
    </style>
  </defs>
  <path class="cls-1" d="M6.86,46.5c-1.18,0-2.19-.42-3.03-1.26s-1.26-1.85-1.26-3.03v-21.43c0-1.18.42-2.19,1.26-3.03.84-.84,1.85-1.26,3.03-1.26h34.29c1.18,0,2.19.42,3.03,1.26.84.84,1.26,1.85,1.26,3.03v21.43c0,1.18-.42,2.19-1.26,3.03-.84.84-1.85,1.26-3.03,1.26H6.86ZM6.86,42.22h34.29v-21.43H6.86v21.43ZM15.43,40.07h17.14v-4.29H15.43v4.29ZM9,33.64h4.29v-4.29h-4.29v4.29ZM15.43,33.64h4.29v-4.29h-4.29v4.29ZM21.86,33.64h4.29v-4.29h-4.29v4.29ZM28.29,33.64h4.29v-4.29h-4.29v4.29ZM34.72,33.64h4.29v-4.29h-4.29v4.29ZM9,27.21h4.29v-4.29h-4.29v4.29ZM15.43,27.21h4.29v-4.29h-4.29v4.29ZM21.86,27.21h4.29v-4.29h-4.29v4.29ZM28.29,27.21h4.29v-4.29h-4.29v4.29ZM34.72,27.21h4.29v-4.29h-4.29v4.29ZM6.86,42.22v-21.43,21.43ZM11.14,12.21V1.5h4.29v3.27c1.14-1.04,2.45-1.84,3.91-2.41,1.46-.57,3.02-.86,4.66-.86,3.14,0,5.91,1.01,8.3,3.03,2.39,2.02,3.84,4.58,4.34,7.69h-4.39c-.5-1.89-1.51-3.44-3.03-4.63-1.52-1.2-3.26-1.79-5.22-1.79-1.07,0-2.09.19-3.05.56-.96.38-1.82.9-2.57,1.58h3.48v4.29h-10.72Z"/>
</svg>