<?xml version="1.0" encoding="UTF-8"?>
<svg id="Layer_1" data-name="Layer 1" xmlns="http://www.w3.org/2000/svg" viewBox="0 0 48 48">
  <defs>
    <style>
      .cls-1 {
        fill: #4170ff;
        stroke-width: 0px;
      }
    </style>
  </defs>
  <path class="cls-1" d="M34.29,43.93l-.65-3.25c-.43-.18-.84-.37-1.22-.57s-.77-.44-1.17-.73l-3.14.98-2.17-3.69,2.49-2.17c-.07-.47-.11-.94-.11-1.41s.04-.94.11-1.41l-2.49-2.17,2.17-3.69,3.14.98c.4-.29.79-.53,1.17-.73s.79-.39,1.22-.57l.65-3.25h4.34l.65,3.25c.43.18.84.37,1.22.57s.77.44,1.17.73l3.14-.98,2.17,3.69-2.49,2.17c.07.47.11.94.11,1.41s-.04.94-.11,1.41l2.49,2.17-2.17,3.69-3.14-.98c-.4.29-.79.53-1.17.73s-.79.39-1.22.57l-.65,3.25h-4.34ZM36.46,37.43c1.19,0,2.21-.42,3.06-1.27.85-.85,1.27-1.87,1.27-3.06s-.42-2.21-1.27-3.06c-.85-.85-1.87-1.27-3.06-1.27s-2.21.42-3.06,1.27c-.85.85-1.27,1.87-1.27,3.06s.42,2.21,1.27,3.06c.85.85,1.87,1.27,3.06,1.27ZM6.31,39.6c-1.19,0-2.21-.42-3.06-1.27s-1.27-1.87-1.27-3.06V9.23c0-1.19.42-2.21,1.27-3.06s1.87-1.27,3.06-1.27h34.7c1.19,0,2.21.42,3.06,1.27s1.27,1.87,1.27,3.06v11.55c-.65-.47-1.34-.89-2.06-1.25s-1.48-.67-2.28-.92v-5.04H6.31v8.68h19.52c-1.41,1.37-2.52,2.99-3.33,4.85-.81,1.86-1.22,3.86-1.22,5.99,0,1.16.13,2.29.38,3.39.25,1.1.61,2.14,1.08,3.12H6.31Z"/>
</svg>