<?xml version="1.0" encoding="UTF-8"?>
<svg id="Layer_1" data-name="Layer 1" xmlns="http://www.w3.org/2000/svg" viewBox="0 0 48 48">
  <defs>
    <style>
      .cls-1 {
        fill: #4170ff;
        stroke-width: 0px;
      }
    </style>
  </defs>
  <path class="cls-1" d="M2.75,43.59v-5.26h7.17c-2.24-1.93-3.99-4.25-5.26-6.97-1.27-2.72-1.91-5.66-1.91-8.81,0-4.91,1.49-9.24,4.47-12.99,2.98-3.75,6.75-6.22,11.31-7.4v5.52c-3.07,1.1-5.59,2.99-7.56,5.69-1.97,2.7-2.96,5.75-2.96,9.18,0,2.37.47,4.55,1.41,6.54.94,2,2.23,3.72,3.85,5.16v-6.45h5.26v15.79H2.75ZM39.58,22.54c0-2.24-.45-4.33-1.35-6.28s-2.2-3.76-3.91-5.43v6.45h-5.26V1.5h15.79v5.26h-7.17c2.59,2.32,4.42,4.81,5.49,7.47,1.07,2.65,1.63,5.43,1.68,8.32h-5.26Z"/>
  <path class="cls-1" d="M44.56,29.53c-.46-.46-1.02-.69-1.66-.69h-3.53v-2.35c0-.65-.23-1.2-.69-1.66-.46-.46-1.02-.69-1.66-.69h-7.06c-.65,0-1.2.23-1.66.69s-.69,1.02-.69,1.66v2.35h-3.53c-.65,0-1.2.23-1.66.69-.46.46-.69,1.02-.69,1.66v12.95c0,.65.23,1.2.69,1.66s1.02.69,1.66.69h18.84c.65,0,1.2-.23,1.66-.69s.69-1.02.69-1.66v-12.95c0-.65-.23-1.2-.69-1.66ZM36.04,27.46v1.39h-5.13v-1.39"/>
</svg>