<?xml version="1.0" encoding="UTF-8"?>
<svg id="Layer_1" data-name="Layer 1" xmlns="http://www.w3.org/2000/svg" viewBox="0 0 48 48">
  <defs>
    <style>
      .cls-1 {
        fill: #fff;
        stroke-width: 0px;
      }
    </style>
  </defs>
  <path class="cls-1" d="M15.91,16.35c0-.42.34-.77.77-.77h3.48c.42,0,.77.34.77.77s-.34.77-.77.77h-3.48c-.42,0-.77-.34-.77-.77ZM16.68,26.75h3.48c.42,0,.77-.34.77-.77s-.34-.77-.77-.77h-3.48c-.42,0-.77.34-.77.77s.34.77.77.77ZM20.16,34.85h-3.48c-.42,0-.77.34-.77.77s.34.77.77.77h3.48c.42,0,.77-.34.77-.77s-.34-.77-.77-.77ZM45.75,33.98v2.87c0,.3-.18.57-.45.7l-1.97.91-.64,1.54.75,2.03c.1.28.03.6-.18.81l-2.03,2.03c-.21.21-.53.28-.81.18l-2.03-.75-1.54.64-.91,1.97c-.13.27-.4.45-.7.45h-2.87c-.3,0-.57-.18-.7-.45l-.91-1.97-1.54-.64-2.03.75c-.28.1-.6.03-.81-.18l-2.03-2.03c-.21-.21-.28-.53-.18-.81l.46-1.24c-1.96.28-4.08.42-6.22.42-4.19,0-8.14-.54-11.12-1.52-3.29-1.08-5.04-2.57-5.04-4.3V6.47c0-1.73,1.75-3.22,5.04-4.3,2.98-.98,6.93-1.52,11.12-1.52s8.14.54,11.12,1.52c3.29,1.08,5.04,2.57,5.04,4.3v17.01h.67c.3,0,.57.18.7.45l.91,1.97,1.54.64,2.03-.75c.28-.1.6-.03.81.18l2.03,2.03c.21.21.28.53.18.81l-.75,2.03.64,1.54,1.97.91c.27.13.45.4.45.7h0ZM3.8,6.47c0,1.79,5.56,4.28,14.62,4.28s14.62-2.49,14.62-4.28-5.56-4.28-14.62-4.28S3.8,4.68,3.8,6.47ZM3.8,16.11c0,1.79,5.56,4.28,14.62,4.28s14.62-2.49,14.62-4.28v-7.04c-.84.64-2.01,1.21-3.5,1.7-2.98.98-6.93,1.52-11.12,1.52s-8.14-.54-11.12-1.52c-1.49-.49-2.66-1.06-3.5-1.7v7.04ZM3.8,25.75c0,1.79,5.56,4.29,14.62,4.29,2.09,0,4.16-.14,6.06-.42l-.3-.81c-.1-.28-.03-.6.18-.81l2.03-2.03c.21-.21.53-.28.81-.18l2.03.75,1.54-.64.91-1.97c.13-.27.4-.45.7-.45h.67v-4.77c-.84.64-2.01,1.21-3.5,1.7-2.98.98-6.93,1.52-11.12,1.52s-8.14-.54-11.12-1.52c-1.49-.49-2.66-1.06-3.5-1.7v7.04h0ZM18.42,39.67c2.13,0,4.25-.15,6.19-.44l-.32-.78-1.97-.91c-.27-.13-.45-.4-.45-.7v-2.87c0-.3.17-.57.45-.7l1.97-.91.52-1.25c-2.01.3-4.16.45-6.39.45-4.19,0-8.14-.54-11.12-1.52-1.49-.49-2.66-1.06-3.5-1.7v7.04c0,1.79,5.56,4.28,14.62,4.28h0ZM44.21,34.48l-1.79-.83c-.18-.08-.31-.23-.39-.4l-.87-2.1c-.08-.18-.08-.38-.01-.56l.68-1.85-1.34-1.33-1.85.68c-.18.07-.38.06-.56-.01l-2.1-.87c-.18-.08-.32-.21-.4-.39l-.83-1.79h-1.89l-.83,1.79c-.08.18-.23.31-.4.39l-2.1.87c-.18.08-.38.08-.56.01l-1.85-.68-1.33,1.33.68,1.85c.07.18.06.38-.01.56l-.87,2.1c-.08.18-.21.32-.39.4l-1.79.83v1.89l1.79.83c.18.08.31.23.39.4l.87,2.1c.08.18.08.38.01.56l-.68,1.85,1.33,1.33,1.85-.68c.18-.07.38-.06.56.01l2.1.87c.18.08.32.21.4.39l.83,1.79h1.89l.83-1.79c.08-.18.23-.31.4-.39l2.1-.87c.18-.07.38-.08.56-.01l1.85.68,1.33-1.33-.68-1.85c-.07-.18-.06-.38.01-.56l.87-2.1c.08-.18.21-.32.39-.4l1.79-.83v-1.89h0ZM38.69,35.42c0,2.69-2.19,4.88-4.88,4.88s-4.88-2.19-4.88-4.88,2.19-4.88,4.88-4.88,4.88,2.19,4.88,4.88ZM37.16,35.42c0-1.84-1.5-3.35-3.35-3.35s-3.35,1.5-3.35,3.35,1.5,3.35,3.35,3.35,3.35-1.5,3.35-3.35Z"/>
</svg>