<?xml version="1.0" encoding="UTF-8"?>
<svg id="Layer_1" data-name="Layer 1" xmlns="http://www.w3.org/2000/svg" viewBox="0 0 48 48">
  <defs>
    <style>
      .cls-1 {
        fill: #fff;
        stroke-width: 0px;
      }
    </style>
  </defs>
  <path class="cls-1" d="M2.97,47.37h42.07c1.29,0,2.34-1.05,2.34-2.34v-10c0-.7-.31-1.36-.85-1.81-.52-.44-1.22-.62-1.89-.5-.73.15-1.43.37-2.11.67-.45.2-.91.36-1.38.49V4.52c0-3.79-15.38-3.9-17.14-3.9s-17.14.11-17.14,3.9v29.37c-.48-.13-.94-.29-1.39-.49-.67-.3-1.38-.53-2.1-.67-.67-.13-1.36.05-1.89.49-.54.45-.85,1.11-.85,1.81v9.99c0,1.29,1.05,2.34,2.34,2.34ZM24,2.19c9.48,0,14.99,1.47,15.56,2.34-.57.86-6.08,2.34-15.56,2.34s-14.99-1.47-15.56-2.34c.57-.86,6.08-2.34,15.56-2.34ZM8.42,6.35c3.95,2,14.17,2.07,15.58,2.07s11.63-.07,15.58-2.07v5.92c-.43.86-5.96,2.38-15.58,2.38s-15.2-1.53-15.58-2.34v-5.96ZM8.42,14.14c3.95,2,14.17,2.07,15.58,2.07s11.63-.07,15.58-2.07v5.92c-.43.86-5.96,2.38-15.58,2.38s-15.2-1.53-15.58-2.34v-5.96ZM8.42,21.93c3.95,2,14.17,2.07,15.58,2.07s11.63-.07,15.58-2.07v5.92c-.43.86-5.96,2.38-15.58,2.38s-15.2-1.53-15.58-2.34v-5.96ZM8.42,29.72c3.95,2,14.17,2.07,15.58,2.07s11.63-.07,15.58-2.07v4.39c-.17,0-.34.01-.52.01-1.2.03-2.39-.22-3.47-.72-1.27-.58-2.66-.87-4.06-.84-1.4-.03-2.79.25-4.06.84-1.09.5-2.28.75-3.47.72-1.19.03-2.38-.22-3.46-.72-1.27-.59-2.66-.87-4.06-.84-1.4-.03-2.79.26-4.07.84-1.08.5-2.27.75-3.46.72-.18,0-.35,0-.51-.01v-4.39ZM2.19,35.04c0-.24.11-.46.29-.61.13-.11.3-.17.47-.18.05,0,.09,0,.14.01.62.13,1.22.32,1.79.58,1.27.59,2.66.87,4.06.84,1.4.03,2.79-.25,4.06-.84,1.09-.5,2.28-.75,3.47-.72,1.19-.03,2.38.22,3.46.72,1.27.59,2.66.87,4.06.84,1.4.03,2.79-.26,4.07-.84,1.08-.5,2.27-.75,3.46-.72,1.19-.03,2.38.22,3.46.72,1.28.58,2.67.87,4.07.84,1.4.03,2.79-.25,4.06-.84.58-.26,1.18-.45,1.8-.58.22-.04.44.02.61.16.18.15.29.37.29.61v10c0,.43-.35.78-.78.78H2.97c-.43,0-.78-.35-.78-.78v-9.99Z"/>
  <path class="cls-1" d="M17.71,12.08c.51.04,1.04.08,1.58.11h.04c.43.01.79-.33.8-.76s-.33-.79-.76-.8c-.53-.03-1.04-.06-1.54-.1-.43-.03-.8.29-.84.72s.29.8.72.84h0Z"/>
  <path class="cls-1" d="M23.21,12.31h1.57c.43,0,.78-.36.77-.79,0,0,0,0,0,0,0-.42-.33-.76-.75-.77-.01,0-.02,0-.03,0h-1.55c-.43,0-.78.35-.78.78,0,.43.35.78.78.78Z"/>
  <path class="cls-1" d="M28.67,12.19h.04c.54-.03,1.06-.07,1.58-.11.43-.03.75-.41.72-.84s-.41-.75-.84-.72c-.5.04-1.01.08-1.54.1-.43.01-.77.37-.76.8s.37.77.8.76h0Z"/>
  <path class="cls-1" d="M17.71,19.87c.51.04,1.04.08,1.58.11h.04c.43.01.79-.33.8-.76s-.33-.79-.76-.8c-.53-.03-1.04-.06-1.54-.1-.43-.03-.8.29-.84.72-.04.43.28.81.71.84,0,0,0,0,0,0Z"/>
  <path class="cls-1" d="M23.21,20.1h1.57c.43,0,.78-.35.78-.78,0-.43-.35-.78-.78-.78h-1.55c-.43,0-.78.34-.79.77,0,.43.34.78.77.79Z"/>
  <path class="cls-1" d="M28.67,19.98h.04c.54-.03,1.06-.07,1.58-.11.43-.03.75-.41.72-.84,0,0,0,0,0,0-.04-.43-.41-.74-.84-.72-.5.04-1.01.08-1.54.1-.43.01-.77.37-.76.8s.37.77.8.76h0Z"/>
  <path class="cls-1" d="M17.71,27.66c.51.04,1.04.08,1.58.11h.04c.43.01.79-.33.8-.76s-.33-.79-.76-.8c-.53-.03-1.04-.06-1.54-.1-.43-.03-.8.29-.84.72-.04.43.28.81.71.84,0,0,0,0,0,0Z"/>
  <path class="cls-1" d="M23.21,27.89h.79s.79,0,.79,0c.43,0,.78-.36.77-.79,0-.43-.36-.78-.79-.77h-.77s-.77,0-.77,0h0c-.43,0-.78.35-.78.78,0,.43.35.78.78.78Z"/>
  <path class="cls-1" d="M28.67,27.77h.04c.54-.03,1.06-.07,1.58-.11.43-.03.75-.41.72-.84s-.41-.75-.84-.72c-.5.04-1.01.08-1.54.1-.43.01-.77.37-.76.8s.37.77.8.76h0Z"/>
  <path class="cls-1" d="M4.25,39.27c.21.08.42.17.62.25,1.27.58,2.66.87,4.06.84,1.4.03,2.79-.25,4.06-.84,1.09-.5,2.28-.75,3.47-.72,1.19-.03,2.38.22,3.46.72,1.27.59,2.66.87,4.06.84,1.4.03,2.79-.26,4.07-.84,1.08-.5,2.27-.75,3.46-.72,1.19-.03,2.38.22,3.46.72,1.28.58,2.67.87,4.07.84,1.4.03,2.79-.25,4.06-.84.21-.09.41-.17.63-.25.41-.14.62-.59.48-.99-.14-.41-.59-.62-.99-.48-.01,0-.02,0-.03.01-.23.09-.46.18-.68.27-1.08.5-2.27.75-3.47.72-1.2.03-2.39-.22-3.47-.72-1.27-.58-2.66-.87-4.06-.84-1.4-.03-2.79.25-4.06.84-1.09.5-2.28.75-3.47.72-1.19.03-2.38-.22-3.46-.72-1.27-.59-2.66-.87-4.06-.84-1.4-.03-2.79.26-4.07.84-1.08.5-2.27.75-3.46.72-1.19.03-2.38-.22-3.46-.72-.22-.09-.44-.18-.67-.27-.4-.16-.85.04-1.01.44-.16.4.04.85.44,1.01.01,0,.02,0,.03.01h0Z"/>
</svg>