<?xml version="1.0" encoding="UTF-8"?>
<svg id="Layer_1" data-name="Layer 1" xmlns="http://www.w3.org/2000/svg" viewBox="0 0 48 48">
  <defs>
    <style>
      .cls-1 {
        fill: #fff;
        stroke-width: 0px;
      }
    </style>
  </defs>
  <path class="cls-1" d="M3.19,9.99v34.39h41.85V15.49l-12.97,11.34v-11.37l-13.33,11.41V10.03c-1.75,1.22-4.54,2-7.75,2s-6.05-.79-7.8-2.03Z"/>
  <path class="cls-1" d="M18.04,8.54H3.93c1.31,1.03,3.85,1.85,7.06,1.85s5.75-.82,7.06-1.85Z"/>
  <path class="cls-1" d="M10.99,3.62c-4.63,0-7.87,1.71-8.01,3.28h16.02c-.14-1.57-3.38-3.28-8.01-3.28Z"/>
  <path class="cls-1" d="M18.04,8.54c-1.31,1.03-3.85,1.85-7.06,1.85s-5.75-.82-7.06-1.85h-.74v1.45c1.74,1.24,4.56,2.03,7.8,2.03s6-.78,7.75-2v-1.49h-.69Z"/>
  <path class="cls-1" d="M2.98,6.9c.14-1.57,3.38-3.28,8.01-3.28s7.87,1.71,8.01,3.28h1.38v1.29c.17-.38.27-.78.27-1.19,0-2.86-4.15-5.02-9.66-5.02S1.33,4.19,1.33,7c0,.38.08.74.22,1.09v-1.19h1.43Z"/>
  <path class="cls-1" d="M33.71,23.22v-11.32l-13.33,11.41v-15.12c-.31.68-.87,1.3-1.64,1.83v16.85l13.33-11.41v11.37l12.97-11.34v28.89H3.19V9.99c-.78-.55-1.35-1.2-1.64-1.9v37.92h45.13V11.88l-12.97,11.34Z"/>
  <path class="cls-1" d="M18.99,6.9s.01.07.01.1c0,.51-.35,1.05-.97,1.54h.69v1.49c.77-.54,1.33-1.16,1.64-1.83v-1.29h-1.38Z"/>
  <path class="cls-1" d="M3.19,9.99v-1.45h.74c-.62-.49-.97-1.02-.97-1.54,0-.03.01-.07.01-.1h-1.43v1.19c.29.7.86,1.35,1.64,1.9Z"/>
  <path class="cls-1" d="M24.91,39.13h-6.6v-6.6h6.6v6.6ZM19.95,37.49h3.32v-3.32h-3.32v3.32Z"/>
  <path class="cls-1" d="M34.15,39.13h-6.6v-6.6h6.6v6.6ZM29.2,37.49h3.32v-3.32h-3.32v3.32Z"/>
  <path class="cls-1" d="M43.48,39.13h-6.6v-6.6h6.6v6.6ZM38.52,37.49h3.32v-3.32h-3.32v3.32Z"/>
</svg>