<?xml version="1.0" encoding="UTF-8"?>
<svg id="Layer_1" data-name="Layer 1" xmlns="http://www.w3.org/2000/svg" viewBox="0 0 48 48">
  <defs>
    <style>
      .cls-1 {
        fill: #fff;
        stroke-width: 0px;
      }
    </style>
  </defs>
  <path class="cls-1" d="M24,.3L3.47,12.15v23.7l20.53,11.85,20.53-11.85V12.15L24,.3ZM42.93,34.93l-18.93,10.93-18.93-10.93V13.07L24,2.14l18.93,10.93v21.86Z"/>
  <path class="cls-1" d="M40.16,9.81l-7.05-4.13-.8.45c-.74.42-1.81,1.05-3.13,1.82-2.39,1.4-5.67,3.32-9.09,5.23-.5.28-.85.39-1.22.39-.2,0-.42-.03-.67-.1-.59-.16-1.19-.24-1.78-.24-1.9,0-3.67.84-4.86,2.3-1.19,1.47-1.64,3.39-1.24,5.29.63,2.97,3.17,5.04,6.17,5.04,1.27,0,2.52-.38,3.6-1.11l.25-.17c.16-.11.39-.27.47-.29,1.91.37,3.3,1.06,4.35,2.17.08.08.17.36.14.72-.03.36-.17.57-.21.6-3.73,2.15-9.63,5.66-15.02,9.03l-2.19,1.37,2.21,1.34c.64.39,1.33.77,2.02,1.16.66.37,1.33.74,1.94,1.11l.8.48,2.43-1.38c7.61-4.33,8.23-4.69,11.07-6.37.31-.19.47-.21.58-.21.11,0,.26.03.43.09.74.26,1.48.38,2.21.38,1.71,0,3.28-.71,4.54-2.06,1.76-1.89,2.19-4.22,1.23-6.58-1.02-2.48-2.93-3.85-5.54-3.95-.33-.01-.37-.06-.39-.08-1.42-1.63-3.15-2.92-5.26-3.89,3.67-2.14,8.2-4.89,11.73-7.05l2.26-1.39ZM22.41,18.58c3.02.82,5.73,2.19,7.82,4.59.42.48.94.6,1.53.62,2.03.08,3.38,1.13,4.13,2.96.74,1.81.38,3.5-.92,4.89-1.38,1.48-3.15,1.92-5.07,1.26-.89-.31-1.56-.21-2.34.25-3.02,1.79-3.45,2.03-12.67,7.28-1.25-.76-2.71-1.52-3.96-2.27,5.24-3.28,11.13-6.79,14.97-9,1.16-.67,1.36-2.82.43-3.79-1.42-1.49-3.21-2.25-5.2-2.63-.8-.16-1.32.3-1.9.69-2.88,1.91-6.63.4-7.34-2.94-.74-3.5,2.37-6.46,5.91-5.49,1.19.33,2.07.13,3.08-.44,5.27-2.95,10.13-5.87,12.22-7.05,1.32.78,2.65,1.55,3.97,2.33-4.68,2.87-10.86,6.59-14.66,8.74Z"/>
</svg>