<?xml version="1.0" encoding="UTF-8"?>
<svg id="Layer_1" data-name="Layer 1" xmlns="http://www.w3.org/2000/svg" viewBox="0 0 48 48">
  <defs>
    <style>
      .cls-1 {
        fill: #fff;
        stroke-width: 0px;
      }
    </style>
  </defs>
  <g>
    <path class="cls-1" d="M29.66,1.12c-3.74.02-7.48.01-11.22.01q-.68,0-.68.69c0,7.39,0,14.78,0,22.18s0,14.82-.01,22.23c0,.5.13.65.64.65,3.76-.02,7.52-.02,11.27,0,.48,0,.59-.14.59-.6-.01-14.86-.01-29.71,0-44.57,0-.46-.12-.6-.59-.6ZM29.39,46.02c-1.83,0-3.6-.01-5.36-.01s-3.61,0-5.42.01c.01-6.02.01-12.03.01-18.05V1.99h5.16c1.87,0,3.74,0,5.61,0-.01,14.68-.01,29.35,0,44.03Z"/>
    <path class="cls-1" d="M18.38,47.1c-.23,0-.48-.03-.65-.19-.17-.17-.2-.44-.2-.67.01-6.09.01-12.17.01-18.26V1.83c0-.81.1-.91.9-.91h2.93c2.77,0,5.53,0,8.29-.01h0c.22-.02.46.02.62.18.16.16.19.4.19.63-.01,14.85-.01,29.71,0,44.57,0,.23-.02.47-.19.63-.16.16-.4.19-.62.18-3.84-.02-7.63-.02-11.27,0h-.02ZM18.44,1.35c-.2,0-.4,0-.45.03-.02.04-.02.25-.02.45v26.15c0,6.09,0,12.17-.01,18.26,0,.2.02.32.07.37s.16.07.35.07h.01c3.64-.02,7.43-.02,11.28,0,.23.01.28-.03.31-.06.04-.04.06-.15.06-.33-.01-14.86-.01-29.71,0-44.57,0-.18-.02-.29-.06-.33-.03-.03-.1-.06-.3-.06h-.01c-2.77.01-5.53.01-8.29.01h-2.93ZM18.4,46.24v-.22c.01-6.02.01-12.03.01-18.05V1.78h5.38c1.87,0,3.74,0,5.6,0h.22s0,.22,0,.22c-.01,14.68-.01,29.35,0,44.03v.22h-.22c-3.71-.01-7.21-.02-10.78,0h-.22ZM18.84,2.21v25.76c0,5.94,0,11.89-.01,17.83,3.43-.02,6.79-.01,10.35,0-.01-14.53-.01-29.07,0-43.6-1.8,0-3.59.01-5.39.01h-4.95Z"/>
  </g>
  <g>
    <path class="cls-1" d="M13.62,44.11c0-6.69,0-13.37,0-20.06s0-13.48,0-20.21c0-.16.1-.39-.09-.48-.15-.07-.27.12-.4.22-1.1.82-2.2,1.66-3.31,2.47-.27.2-.37.41-.37.75,0,11.47,0,22.93,0,34.4,0,.33.09.55.37.75,1.1.8,2.17,1.63,3.26,2.44.14.1.28.32.44.25.21-.09.09-.35.09-.52ZM12.84,43.23l-.48-.36c-.69-.52-1.38-1.04-2.08-1.55-.04-.03-.05-.05-.05-.12,0-11.47,0-22.93,0-34.4,0-.07,0-.09,0-.09.76-.55,1.46-1.08,2.17-1.61l.44-.33c0,5.46,0,22.64,0,22.64,0,5.28,0,10.55,0,15.83Z"/>
    <path class="cls-1" d="M13.46,44.86c-.18,0-.32-.14-.41-.22-.03-.03-.06-.06-.09-.08-.4-.3-.79-.6-1.19-.89-.69-.52-1.38-1.04-2.07-1.54-.32-.23-.46-.51-.46-.92,0-11.47,0-22.93,0-34.4,0-.41.14-.69.46-.92.71-.52,1.41-1.04,2.11-1.57.4-.3.79-.6,1.19-.9.02-.02.05-.04.07-.07.1-.1.29-.28.54-.17.29.13.25.43.23.57,0,.03-.01.07-.01.1,0,5.78,0,11.55,0,17.33v6.23c0,5.57,0,11.14,0,16.71,0,.04,0,.08.01.12.02.15.07.47-.24.61-.05.02-.1.03-.15.03ZM13.43,3.61s-.04.03-.05.05c-.04.04-.08.07-.11.1-.4.3-.8.6-1.19.9-.7.53-1.41,1.06-2.12,1.58-.21.15-.28.3-.28.57,0,11.47,0,22.93,0,34.4,0,.28.07.42.28.58.7.51,1.39,1.03,2.08,1.55.4.3.79.6,1.19.89.04.03.09.07.13.12.03.03.09.09.12.1-.03-.02-.04-.09-.05-.14,0-.06-.02-.13-.02-.18h0c0-5.57,0-11.14,0-16.71v-6.23c0-5.78,0-11.55,0-17.33,0-.05,0-.1.01-.16,0-.02,0-.05,0-.08ZM13.06,43.66l-.82-.62c-.69-.52-1.38-1.04-2.08-1.55-.14-.1-.14-.23-.14-.3,0-11.47,0-22.93,0-34.4,0-.08,0-.12.01-.15l.02-.07.06-.04c.73-.53,1.42-1.05,2.1-1.56l.85-.64v.43c0,5.46,0,22.64,0,22.64,0,5.28,0,10.55,0,15.83v.43ZM10.45,41.18c.69.5,1.37,1.01,2.05,1.53l.13.1c0-5.13,0-10.26,0-15.4,0,0,0-16.32,0-22.21l-.16.12c-.66.5-1.32.99-2.02,1.51,0,11.47,0,22.91,0,34.35ZM10.4,41.14h0,0Z"/>
  </g>
  <g>
    <path class="cls-1" d="M38.14,6.02c-1.08-.79-2.15-1.61-3.22-2.41-.14-.1-.28-.32-.44-.25-.21.09-.1.35-.1.52,0,6.7,0,13.41,0,20.11s0,13.44,0,20.16c0,.16-.1.39.09.48.15.07.27-.12.4-.22,1.1-.82,2.2-1.66,3.31-2.47.27-.2.37-.41.37-.75,0-11.46,0-22.93,0-34.39,0-.37-.13-.58-.41-.78ZM37.76,41.29c-.75.55-1.45,1.08-2.15,1.6l-.45.34c0-5.45,0-22.58,0-22.58,0-5.29,0-10.59,0-15.88l.53.4c.66.5,1.32.99,1.99,1.48.07.05.09.08.09.08,0,11.54,0,23.01,0,34.47,0,.06,0,.09,0,.09Z"/>
    <path class="cls-1" d="M34.54,44.87s-.1-.01-.15-.03c-.29-.13-.25-.43-.23-.57,0-.04.01-.07.01-.1,0-5.76,0-11.52,0-17.28v-6.23c0-5.59,0-11.17,0-16.76,0-.04,0-.08-.01-.12-.02-.15-.07-.47.24-.61.24-.1.44.08.56.19.03.03.06.06.09.08.42.31.83.62,1.24.93.66.49,1.32.99,1.98,1.48h0c.35.26.5.54.5.95-.01,11.47-.01,22.93,0,34.4,0,.41-.14.69-.46.92-.7.51-1.4,1.04-2.09,1.56-.4.3-.81.61-1.21.91-.03.02-.05.04-.08.07-.08.08-.21.21-.38.21ZM34.54,3.57s.04.09.05.14c0,.06.02.13.02.18,0,5.59,0,11.17,0,16.76v6.23c0,5.76,0,11.52,0,17.28,0,.05,0,.1-.01.16,0,.02,0,.05,0,.08.02-.02.04-.03.05-.05.04-.04.08-.07.12-.1.4-.3.81-.6,1.21-.91.7-.52,1.39-1.05,2.1-1.57.21-.15.28-.3.28-.57,0-11.47,0-22.93,0-34.4,0-.28-.08-.43-.32-.61h0c-.67-.49-1.32-.98-1.98-1.48-.41-.31-.83-.62-1.24-.93-.04-.03-.09-.07-.13-.12-.04-.03-.09-.09-.12-.1ZM34.94,43.66v-.43c0-5.45,0-22.58,0-22.58,0-5.29,0-10.59,0-15.88v-.43l.87.66c.66.5,1.32.99,1.99,1.48.11.08.18.15.18.25,0,11.54,0,23.01,0,34.47,0,.06,0,.11-.02.15l-.02.07-.06.04c-.75.55-1.45,1.07-2.15,1.6l-.8.6ZM35.38,5.2c0,5.15,0,10.3,0,15.45,0,0,0,16.29,0,22.15l.11-.08c.67-.51,1.35-1.01,2.07-1.54,0-11.46,0-22.87,0-34.35-.67-.49-1.33-.99-1.99-1.48l-.18-.14Z"/>
  </g>
  <g>
    <path class="cls-1" d="M6.63,15.47c0-.56-.01-.57-.51-.32-1.09.54-2.17,1.1-3.26,1.63-.29.14-.41.3-.41.64.01,4.39.01,8.78,0,13.17,0,.33.1.5.4.65,1.06.51,2.11,1.05,3.17,1.58.62.31.62.31.62-.36,0-2.8,0-5.61,0-8.41,0-2.86,0-5.71,0-8.57ZM5.86,31.86l-.48-.24c-.71-.36-1.43-.72-2.15-1.07,0-4.4,0-8.74,0-13.09.73-.36,1.42-.7,2.1-1.05l.53-.27v15.71Z"/>
    <path class="cls-1" d="M6.5,33.22c-.14,0-.32-.09-.59-.22l-.99-.5c-.72-.37-1.45-.73-2.18-1.08-.37-.18-.52-.43-.52-.84.01-4.39.01-8.78,0-13.17,0-.41.15-.65.53-.84.71-.34,1.41-.7,2.12-1.05.38-.19.76-.38,1.15-.58.3-.15.48-.24.65-.13.17.11.17.31.17.65h0c0,2.04,0,4.08,0,6.12v10.86c0,.41,0,.62-.18.73-.05.03-.11.05-.17.05ZM6.41,15.24c-.06.03-.14.07-.2.09-.38.19-.76.38-1.14.57-.71.36-1.41.71-2.12,1.06-.23.11-.29.21-.29.44.01,4.39.01,8.78,0,13.17,0,.25.06.35.28.45.73.35,1.46.72,2.18,1.09l.99.5c.11.05.22.11.3.14,0-.08,0-.21,0-.32v-10.86c0-2.04,0-4.08,0-6.12h0c0-.07,0-.16,0-.23ZM6.07,32.21l-.79-.4c-.71-.36-1.43-.72-2.15-1.07l-.12-.06v-.14c0-4.4,0-8.74,0-13.09v-.14l.12-.06c.68-.34,1.33-.66,1.96-.98l.98-.49v16.41ZM3.44,30.41c.68.33,1.36.67,2.03,1.01l.17.09v-15.01l-.35.18c-.6.3-1.21.61-1.85.92.01,4.25.01,8.51,0,12.82Z"/>
  </g>
  <g>
    <path class="cls-1" d="M45.17,16.79c-1.09-.53-2.18-1.09-3.26-1.63-.53-.26-.54-.26-.54.33,0,2.84,0,5.68,0,8.51,0,2.86,0,5.71,0,8.57,0,.36.03.55.46.33,1.13-.58,2.26-1.15,3.4-1.7.27-.13.33-.31.33-.58,0-4.41,0-8.81,0-13.22,0-.31-.11-.47-.38-.6ZM44.78,30.55c-.88.43-1.76.87-2.63,1.31,0-1.95,0-7.85,0-7.85v-7.86l.59.29c.68.34,1.36.69,2.05,1.02,0,4.38,0,8.74,0,13.09Z"/>
    <path class="cls-1" d="M41.54,33.21c-.07,0-.13-.02-.19-.05-.2-.12-.2-.39-.2-.59,0-2.14,0-4.28,0-6.42v-4.27s0-6.38,0-6.38c0-.36,0-.56.17-.67s.35-.02.68.14c.4.2.79.4,1.19.6.69.35,1.38.69,2.07,1.03h0c.35.17.51.41.5.8-.01,4.41,0,8.81,0,13.22,0,.28-.05.59-.45.78-1.23.6-2.34,1.15-3.4,1.7-.12.06-.25.12-.38.12ZM41.59,15.24c0,.07,0,.17,0,.25v8.51s0,2.14,0,2.14c0,2.14,0,4.28,0,6.43,0,.1,0,.16,0,.19.03-.01.07-.03.14-.06,1.06-.55,2.17-1.11,3.41-1.71.16-.08.21-.16.21-.39,0-4.41,0-8.81,0-13.22,0-.22-.06-.31-.26-.41-.7-.34-1.39-.69-2.08-1.03-.4-.2-.79-.4-1.19-.6-.07-.03-.16-.08-.22-.11ZM41.93,32.21v-.35c0-1.95,0-7.85,0-7.85v-8.21l.97.49c.66.33,1.31.66,1.97.98l.12.06v.14c0,4.38,0,8.74,0,13.09v.13l-.12.06c-.88.43-1.76.87-2.63,1.31l-.31.16ZM42.36,16.49v7.51s0,5.28,0,7.5c.73-.37,1.46-.74,2.2-1.09,0-4.26,0-8.53,0-12.82-.62-.3-1.24-.61-1.86-.93l-.34-.17Z"/>
  </g>
</svg>