<?xml version="1.0" encoding="UTF-8"?>
<svg id="Layer_1" data-name="Layer 1" xmlns="http://www.w3.org/2000/svg" viewBox="0 0 48 48">
  <defs>
    <style>
      .cls-1 {
        fill: #fff;
        fill-rule: evenodd;
        stroke-width: 0px;
      }
    </style>
  </defs>
  <path class="cls-1" d="M23.09,28.89v8.09c.02.22-.11.42-.31.5l-5.09,2.92h0l-5.13,2.97c-.17.1-.37.1-.54,0l-5.13-2.97h0l-5.15-2.97c-.17-.09-.27-.27-.27-.46h0v-11.86c0-.21.12-.41.31-.5l10.24-5.87c.16-.1.37-.1.53,0l.64.37v-8.1c-.02-.22.11-.42.31-.5l5.09-2.94h0l5.15-2.95c.17-.1.37-.1.54,0l5.13,2.96h.03l5.11,2.95c.17.09.27.27.26.46h0v8.11l.65-.38c.16-.1.37-.1.53,0l10.27,5.93c.16.09.26.27.27.46h0v11.86c.02.22-.11.42-.31.5l-5.11,2.92h0l-5.13,2.97c-.17.1-.37.1-.54,0l-5.13-2.97h-.03l-5.11-2.95c-.17-.09-.27-.27-.26-.46h0v-8.11l-.67.37c-.15.09-.35.09-.5,0l-.64-.37h-.02ZM14.78,11.02l9.22,5.32,9.22-5.32-4.32-2.5h-.03l-4.87-2.82-4.87,2.81h0l-4.35,2.5h0ZM33.75,11.93l-9.23,5.32v10.65l4.32-2.5h.03l4.88-2.82v-10.64ZM23.47,17.25l-9.23-5.32v10.64l4.87,2.81h0l4.35,2.5v-10.64h.01ZM13.2,20.32l-.91-.5-9.22,5.3,9.22,5.32,6.75-3.89-.44-.26h0l-5.14-2.96c-.16-.09-.26-.27-.27-.46h0v-2.56ZM20.09,27.16l-7.27,4.2v10.65l4.35-2.5h0l4.87-2.81v-8.41l-1.95-1.12ZM34.8,20.32v2.56c0,.21-.11.41-.3.5l-5.1,2.94h0l-.41.24,6.75,3.89,9.19-5.33-9.22-5.32-.91.5v.03ZM27.91,27.16l-1.95,1.12v8.4l4.84,2.8h.03l4.35,2.5v-10.62l-7.27-4.2ZM45.45,26.04l-9.2,5.32v10.65l4.34-2.5h0l4.87-2.81v-10.65h-.02ZM2.55,26.04v10.64l4.84,2.8h.03l4.34,2.5v-10.62l-9.21-5.32Z"/>
</svg>