<?xml version="1.0" encoding="UTF-8"?>
<svg id="Layer_1" data-name="Layer 1" xmlns="http://www.w3.org/2000/svg" viewBox="0 0 48 48">
  <defs>
    <style>
      .cls-1 {
        fill: #4170ff;
      }
    </style>
  </defs>
  <path class="cls-1" d="M.94,42.95v-5.9c0-1.16.3-2.25.89-3.26.6-1.02,1.42-1.79,2.47-2.32,1.79-.91,3.81-1.68,6.05-2.32,2.25-.63,4.72-.95,7.42-.95s5.18.32,7.42.95c2.25.63,4.26,1.4,6.05,2.32,1.05.53,1.88,1.3,2.47,2.32s.89,2.11.89,3.26v5.9H.94ZM17.79,26.11c-2.32,0-4.3-.82-5.95-2.47-1.65-1.65-2.47-3.63-2.47-5.95h-.53c-.32,0-.57-.1-.76-.29s-.29-.45-.29-.76.1-.57.29-.76.45-.29.76-.29h.53c0-1.58.39-3,1.16-4.26.77-1.26,1.79-2.26,3.05-3v2c0,.32.1.57.29.76s.45.29.76.29.57-.1.76-.29.29-.45.29-.76v-2.84c.32-.11.65-.18,1-.24s.72-.08,1.11-.08.75.03,1.11.08.68.13,1,.24v2.84c0,.32.1.57.29.76s.45.29.76.29.57-.1.76-.29.29-.45.29-.76v-2c1.26.74,2.28,1.74,3.05,3,.77,1.26,1.16,2.68,1.16,4.26h.53c.32,0,.57.1.76.29s.29.45.29.76-.1.57-.29.76-.45.29-.76.29h-.53c0,2.32-.82,4.3-2.47,5.95-1.65,1.65-3.63,2.47-5.95,2.47ZM17.79,21.89c1.16,0,2.15-.41,2.97-1.24.82-.82,1.24-1.82,1.24-2.97h-8.42c0,1.16.41,2.15,1.24,2.97s1.82,1.24,2.97,1.24ZM33.58,30.32l-.32-1.58c-.21-.07-.41-.15-.61-.24s-.38-.22-.55-.39l-1.47.53-1.05-1.9,1.16-1.05v-1.26l-1.16-1.05,1.05-1.9,1.47.53c.14-.14.32-.26.53-.37s.42-.19.63-.26l.32-1.58h2.11l.32,1.58c.21.07.42.16.63.26s.39.23.53.37l1.47-.53,1.05,1.9-1.16,1.05v1.26l1.16,1.05-1.05,1.9-1.47-.53c-.18.18-.36.31-.55.39s-.39.17-.61.24l-.32,1.58h-2.11ZM34.63,26.63c.42,0,.79-.16,1.11-.47s.47-.68.47-1.11-.16-.79-.47-1.11-.68-.47-1.11-.47-.79.16-1.11.47-.47.68-.47,1.11.16.79.47,1.11.68.47,1.11.47ZM38.42,19.79l-.42-2.21c-.32-.11-.61-.24-.87-.39s-.5-.34-.71-.55l-2.21.74-1.47-2.53,1.79-1.58c-.07-.18-.11-.32-.11-.42v-.84c0-.11.04-.25.11-.42l-1.79-1.58,1.47-2.53,2.21.74c.21-.21.45-.39.71-.55s.55-.29.87-.39l.42-2.21h2.95l.42,2.21c.32.11.61.24.87.39s.5.34.71.55l2.21-.74,1.47,2.53-1.79,1.58c.07.18.11.32.11.42v.84c0,.11-.04.25-.11.42l1.79,1.58-1.47,2.53-2.21-.74c-.21.21-.45.39-.71.55s-.55.29-.87.39l-.42,2.21h-2.95ZM39.9,15.05c.74,0,1.36-.25,1.87-.76s.76-1.13.76-1.87-.25-1.36-.76-1.87-1.13-.76-1.87-.76-1.36.25-1.87.76-.76,1.13-.76,1.87.25,1.36.76,1.87,1.13.76,1.87.76Z"/>
</svg>