<?xml version="1.0" encoding="UTF-8"?>
<svg id="Layer_1" data-name="Layer 1" xmlns="http://www.w3.org/2000/svg" viewBox="0 0 48 48">
  <defs>
    <style>
      .cls-1 {
        fill: #4170ff;
      }
    </style>
  </defs>
  <path class="cls-1" d="M36.49,39.42c1.13,0,2.1-.4,2.9-1.21.81-.81,1.21-1.77,1.21-2.9s-.4-2.1-1.21-2.9c-.81-.81-1.77-1.21-2.9-1.21s-2.1.4-2.9,1.21c-.81.81-1.21,1.77-1.21,2.9s.4,2.1,1.21,2.9c.81.81,1.77,1.21,2.9,1.21ZM34.44,45.59l-.62-3.08c-.41-.17-.8-.35-1.16-.54s-.73-.42-1.11-.69l-2.98.93-2.06-3.5,2.36-2.06c-.07-.41-.1-.86-.1-1.34s.03-.93.1-1.34l-2.36-2.06,2.06-3.5,2.98.93c.38-.27.75-.51,1.11-.69s.75-.37,1.16-.54l.62-3.08h4.11l.62,3.08c.41.17.8.35,1.16.54s.73.42,1.11.69l2.98-.93,2.06,3.5-2.36,2.06c.07.41.1.86.1,1.34s-.03.93-.1,1.34l2.36,2.06-2.06,3.5-2.98-.93c-.38.27-.75.51-1.11.69s-.75.37-1.16.54l-.62,3.08h-4.11ZM1.53,43.54L42.66,2.41v19.84c-.89-.45-1.89-.78-3.01-1-1.11-.22-2.17-.33-3.16-.33-4.01,0-7.42,1.4-10.23,4.19-2.81,2.79-4.22,6.2-4.22,10.21,0,1.54.21,2.98.62,4.32s1.05,2.64,1.9,3.91H1.53Z"/>
</svg>