<?xml version="1.0" encoding="UTF-8"?>
<svg id="Layer_1" data-name="Layer 1" xmlns="http://www.w3.org/2000/svg" viewBox="0 0 48 48">
  <defs>
    <style>
      .cls-1 {
        fill: #4170ff;
      }
    </style>
  </defs>
  <path class="cls-1" d="M22.24,27.53c1.49,0,2.74-.51,3.76-1.53,1.02-1.02,1.53-2.27,1.53-3.76s-.51-2.74-1.53-3.76c-1.02-1.02-2.27-1.53-3.76-1.53s-2.74.51-3.76,1.53-1.53,2.27-1.53,3.76.51,2.74,1.53,3.76,2.27,1.53,3.76,1.53ZM33.58,36.93l-6.17-6.17c-.78.51-1.62.88-2.5,1.12s-1.77.35-2.67.35c-2.78,0-5.14-.97-7.08-2.91s-2.91-4.3-2.91-7.08.97-5.14,2.91-7.08c1.94-1.94,4.3-2.91,7.08-2.91s5.14.97,7.08,2.91c1.94,1.94,2.91,4.3,2.91,7.08,0,.9-.13,1.79-.38,2.67-.25.88-.64,1.71-1.15,2.5l6.23,6.23-3.35,3.29ZM7.55,45.15c-1.29,0-2.4-.46-3.32-1.38-.92-.92-1.38-2.03-1.38-3.32v-9.4h4.7v9.4h9.4v4.7H7.55ZM31.05,45.15v-4.7h9.4v-9.4h4.7v9.4c0,1.29-.46,2.4-1.38,3.32-.92.92-2.03,1.38-3.32,1.38h-9.4ZM2.85,16.95V7.55c0-1.29.46-2.4,1.38-3.32.92-.92,2.03-1.38,3.32-1.38h9.4v4.7H7.55v9.4H2.85ZM40.45,16.95V7.55h-9.4V2.85h9.4c1.29,0,2.4.46,3.32,1.38s1.38,2.03,1.38,3.32v9.4h-4.7Z"/>
</svg>