<?xml version="1.0" encoding="UTF-8"?>
<svg id="Layer_1" data-name="Layer 1" xmlns="http://www.w3.org/2000/svg" viewBox="0 0 48 48">
  <defs>
    <style>
      .cls-1 {
        fill: #4170ff;
      }
    </style>
  </defs>
  <path class="cls-1" d="M21.7,35.52h-9.22c-3.19,0-5.9-1.12-8.15-3.37-2.25-2.25-3.37-4.96-3.37-8.15s1.12-5.9,3.37-8.15c2.25-2.25,4.96-3.37,8.15-3.37h9.22v4.61h-9.22c-1.92,0-3.55.67-4.9,2.02s-2.02,2.98-2.02,4.9.67,3.55,2.02,4.9c1.34,1.34,2.98,2.02,4.9,2.02h9.22v4.61ZM14.78,26.3v-4.61h18.43v4.61H14.78ZM26.3,35.52v-4.61h9.22c1.92,0,3.55-.67,4.9-2.02,1.34-1.34,2.02-2.98,2.02-4.9s-.67-3.55-2.02-4.9-2.98-2.02-4.9-2.02h-9.22v-4.61h9.22c3.19,0,5.9,1.12,8.15,3.37,2.25,2.25,3.37,4.96,3.37,8.15s-1.12,5.9-3.37,8.15c-2.25,2.25-4.96,3.37-8.15,3.37h-9.22Z"/>
</svg>