<?xml version="1.0" encoding="UTF-8"?>
<svg id="Layer_1" data-name="Layer 1" xmlns="http://www.w3.org/2000/svg" viewBox="0 0 48 48">
  <defs>
    <style>
      .cls-1 {
        fill: #4170ff;
      }
    </style>
  </defs>
  <path class="cls-1" d="M23.44,46.53c-3.12,0-6.05-.59-8.79-1.77-2.74-1.18-5.13-2.79-7.15-4.82-2.03-2.03-3.63-4.41-4.82-7.15-1.18-2.74-1.77-5.67-1.77-8.79s.59-6.05,1.77-8.79c1.18-2.74,2.79-5.13,4.82-7.15s4.41-3.63,7.15-4.82c2.74-1.18,5.67-1.77,8.79-1.77,5.48,0,10.28,1.72,14.39,5.15s6.67,7.74,7.69,12.93h-4.62c-.71-2.74-2-5.19-3.86-7.35-1.86-2.16-4.14-3.78-6.84-4.87v.9c0,1.24-.44,2.3-1.32,3.18-.88.88-1.94,1.32-3.18,1.32h-4.51v4.51c0,.64-.22,1.17-.65,1.61s-.97.65-1.61.65h-4.51v4.51h4.51v6.76h-2.25l-10.81-10.81c-.11.68-.22,1.35-.31,2.03s-.14,1.35-.14,2.03c0,4.92,1.73,9.14,5.18,12.67,3.45,3.53,7.74,5.31,12.84,5.35v4.51ZM43.94,45.4l-7.21-7.21c-.79.45-1.63.83-2.53,1.13s-1.86.45-2.87.45c-2.82,0-5.21-.99-7.18-2.96-1.97-1.97-2.96-4.37-2.96-7.18s.99-5.21,2.96-7.18c1.97-1.97,4.37-2.96,7.18-2.96s5.21.99,7.18,2.96c1.97,1.97,2.96,4.37,2.96,7.18,0,1.01-.15,1.97-.45,2.87-.3.9-.68,1.75-1.13,2.53l7.21,7.21-3.15,3.15ZM31.32,35.26c1.58,0,2.91-.54,4-1.63,1.09-1.09,1.63-2.42,1.63-4s-.54-2.91-1.63-4-2.42-1.63-4-1.63-2.91.54-4,1.63-1.63,2.42-1.63,4,.54,2.91,1.63,4,2.42,1.63,4,1.63Z"/>
</svg>