<?xml version="1.0" encoding="UTF-8"?>
<svg id="Layer_1" data-name="Layer 1" xmlns="http://www.w3.org/2000/svg" viewBox="0 0 48 48">
  <defs>
    <style>
      .cls-1 {
        fill: #4170ff;
      }
    </style>
  </defs>
  <path class="cls-1" d="M14.99,46.58c-1.24,0-2.31-.44-3.19-1.33-.88-.88-1.33-1.95-1.33-3.19s.44-2.31,1.33-3.19c.88-.88,1.95-1.33,3.19-1.33s2.31.44,3.19,1.33c.88.88,1.33,1.95,1.33,3.19s-.44,2.31-1.33,3.19c-.88.88-1.95,1.33-3.19,1.33ZM37.57,46.58c-1.24,0-2.31-.44-3.19-1.33-.88-.88-1.33-1.95-1.33-3.19s.44-2.31,1.33-3.19c.88-.88,1.95-1.33,3.19-1.33s2.31.44,3.19,1.33,1.33,1.95,1.33,3.19-.44,2.31-1.33,3.19-1.95,1.33-3.19,1.33ZM10.92,5.93h33.31c.87,0,1.52.39,1.98,1.16s.47,1.55.06,2.34l-8.02,14.45c-.41.75-.97,1.34-1.67,1.75-.7.41-1.46.62-2.29.62h-16.83l-2.48,4.52h27.1v4.52H14.99c-1.69,0-2.97-.74-3.84-2.23-.87-1.49-.9-2.96-.11-4.43l3.05-5.53L5.95,5.93H1.44V1.42h7.34l2.15,4.52Z"/>
</svg>