<?xml version="1.0" encoding="UTF-8"?>
<svg id="Layer_1" data-name="Layer 1" xmlns="http://www.w3.org/2000/svg" viewBox="0 0 48 48">
  <defs>
    <style>
      .cls-1 {
        fill: #4170ff;
        fill-rule: evenodd;
      }
    </style>
  </defs>
  <path class="cls-1" d="M6.35,22.54c-3.3,1.37-5.64,4.6-5.64,8.35,0,4.98,4.12,9.03,9.17,9.03.18,0,.35-.02.5-.02h27.69c5.09-.29,9.24-4.19,9.24-9.24,0-3.39-1.84-6.34-4.59-7.96.18-.6.27-1.21.27-1.87,0-3.48-2.84-6.3-6.39-6.3-1.46,0-2.82.5-3.92,1.32-2.23-4.59-6.96-7.78-12.49-7.78-7.67,0-13.85,6.12-13.85,13.65,0,.27.03.54.03.82h0ZM40.61,28.51c0,4.67-3.68,7.3-8.08,7.3-2.7,0-4.67-.86-6.63-2.74.8-.99,1.68-1.96,2.51-2.95,1.13,1.1,2.38,1.79,3.98,1.79,1.96,0,3.65-1.29,3.65-3.34s-1.68-3.34-3.59-3.34c-6.08,0-7.38,10.61-16.23,10.61-4.31,0-7.96-2.7-7.96-7.24s3.68-7.27,8.05-7.27c2.7,0,4.73.77,6.66,2.68-.88.96-1.71,1.98-2.57,2.98-1.11-1.08-2.35-1.77-3.93-1.77-1.82,0-3.65,1.3-3.65,3.23,0,2.13,1.54,3.48,3.62,3.48,5.89,0,7.47-10.61,16.1-10.61,4.29,0,8.07,2.62,8.07,7.18h0Z"/>
</svg>