<?xml version="1.0" encoding="UTF-8"?>
<svg id="Layer_1" data-name="Layer 1" xmlns="http://www.w3.org/2000/svg" viewBox="0 0 48 48">
  <defs>
    <style>
      .cls-1 {
        fill: #4170ff;
        fill-rule: evenodd;
      }
    </style>
  </defs>
  <path class="cls-1" d="M39.54,12.92c0,.38-.02.76-.06,1.13-.02.22-.05.43-.09.65h-4.3c-.33,0-.61.27-.61.61,0,.8-.65,1.45-1.45,1.45s-1.45-.65-1.45-1.45c0-.33-.27-.61-.61-.61h-3.5v-2.97c1.43-.33,2.32-1.76,1.98-3.19-.23-.98-1-1.75-1.98-1.98V1.25c3.11.11,6.07,1.33,8.37,3.42,2.33,2.11,3.67,5.1,3.69,8.25ZM14.11,36.52v2.26c0,1.25,1.01,2.26,2.26,2.26h10.66c1.25,0,2.26-1.01,2.26-2.26v-2.26h-15.18ZM17.7,45.14c0,.89.72,1.61,1.61,1.61h4.76c.89,0,1.6-.72,1.61-1.61v-1.61h-7.99v1.61ZM30.43,21.85c-1.04,1.04-2.72,1.04-3.76,0-.35-.35-.59-.79-.71-1.27h-2.97v3.51c0,.33-.27.61-.61.61h0c-.8-.01-1.46.62-1.47,1.42-.01.8.62,1.46,1.42,1.47.02,0,.04,0,.05,0,.33,0,.61.27.61.61h0v5.85h6.99c-.04-1.6.1-3.2.41-4.77.44-1.85,1.28-3.59,2.45-5.09.48-.65.89-1.34,1.23-2.08.23-.49.41-1.01.56-1.53h-3.5c-.11.48-.36.92-.71,1.28ZM20.52,28.72c-1.43-.33-2.32-1.76-1.98-3.19.23-.98,1-1.75,1.98-1.98v-2.97h-3.51c-.33,0-.61-.27-.61-.61h0c0-.8-.65-1.45-1.45-1.45s-1.45.65-1.45,1.45c0,.33-.27.61-.61.61h-4.03c.04.16.09.31.14.46.38,1.13.94,2.19,1.65,3.14,1.18,1.5,2.01,3.24,2.45,5.09.31,1.57.45,3.17.41,4.77h6.99v-5.32ZM13.08,16.83c1.04-1.04,2.72-1.04,3.76,0,.35.35.59.79.71,1.27h2.97v-3.51c0-.33.27-.61.61-.61h0c.8,0,1.45-.65,1.45-1.45s-.65-1.45-1.45-1.45c-.33,0-.61-.27-.61-.61h0v-5.84c-3.11.11-6.07,1.33-8.37,3.42-2.33,2.11-3.67,5.1-3.69,8.25,0,.6.05,1.19.15,1.78h3.77c.11-.48.36-.92.71-1.27Z"/>
</svg>