<?xml version="1.0" encoding="UTF-8"?>
<svg id="Layer_1" data-name="Layer 1" xmlns="http://www.w3.org/2000/svg" viewBox="0 0 48 48">
  <defs>
    <style>
      .cls-1 {
        fill: #4170ff;
        stroke-width: 0px;
      }
    </style>
  </defs>
  <path class="cls-1" d="M9.48,18.41h11.17v-4.47h-11.17v4.47ZM5.01,38.52c-1.23,0-2.28-.44-3.16-1.31-.88-.88-1.31-1.93-1.31-3.16V7.24c0-1.23.44-2.28,1.31-3.16.88-.88,1.93-1.31,3.16-1.31h35.75c.97,0,1.84.29,2.63.87s1.32,1.31,1.62,2.21c-.63-.3-1.31-.51-2.04-.64-.73-.13-1.46-.2-2.21-.2-3.09,0-5.73,1.09-7.9,3.27-2.18,2.18-3.27,4.81-3.27,7.9,0,.82.07,1.6.22,2.35.15.74.37,1.45.67,2.12h-9.83v2.23h-11.17v4.47h11.17v2.23c-1.42,1.01-2.51,2.28-3.3,3.83-.78,1.55-1.17,3.25-1.17,5.11H5.01ZM27.35,40.76c.63,0,1.16-.21,1.59-.64.43-.43.64-.96.64-1.59s-.21-1.16-.64-1.59-.96-.64-1.59-.64-1.16.21-1.59.64-.64.96-.64,1.59.21,1.16.64,1.59c.43.43.96.64,1.59.64ZM40.76,18.41c.63,0,1.16-.21,1.59-.64s.64-.96.64-1.59-.21-1.16-.64-1.59-.96-.64-1.59-.64-1.16.21-1.59.64-.64.96-.64,1.59.21,1.16.64,1.59.96.64,1.59.64ZM27.35,45.23c-1.86,0-3.44-.65-4.75-1.95-1.3-1.3-1.95-2.89-1.95-4.75,0-1.45.42-2.76,1.26-3.91.84-1.15,1.91-1.95,3.21-2.4v-7.09h13.41v-2.63c-1.3-.45-2.37-1.25-3.21-2.4s-1.26-2.46-1.26-3.91c0-1.86.65-3.44,1.95-4.75,1.3-1.3,2.89-1.95,4.75-1.95s3.44.65,4.75,1.95c1.3,1.3,1.95,2.89,1.95,4.75,0,1.45-.42,2.76-1.26,3.91-.84,1.15-1.91,1.95-3.21,2.4v7.09h-13.41v2.63c1.3.45,2.37,1.25,3.21,2.4.84,1.15,1.26,2.46,1.26,3.91,0,1.86-.65,3.44-1.95,4.75-1.3,1.3-2.89,1.95-4.75,1.95Z"/>
</svg>