<?xml version="1.0" encoding="UTF-8"?>
<svg id="Layer_1" data-name="Layer 1" xmlns="http://www.w3.org/2000/svg" viewBox="0 0 48 48">
  <defs>
    <style>
      .cls-1 {
        fill: #4170ff;
        fill-rule: evenodd;
        stroke-width: 0px;
      }
    </style>
  </defs>
  <path class="cls-1" d="M40.09,12.53c0,.39-.02.78-.06,1.17-.02.22-.05.45-.09.67h-4.46c-.35,0-.63.28-.63.63,0,.83-.67,1.5-1.5,1.5s-1.5-.67-1.5-1.5c0-.35-.28-.63-.63-.63h-3.63v-3.08c1.48-.35,2.4-1.83,2.05-3.3-.24-1.02-1.03-1.81-2.05-2.05V.45c3.22.12,6.29,1.37,8.66,3.54,2.41,2.18,3.8,5.28,3.82,8.54ZM13.76,36.96v2.34c0,1.29,1.05,2.34,2.34,2.34h11.03c1.29,0,2.34-1.05,2.34-2.34v-2.34h-15.71ZM17.48,45.88c0,.92.75,1.66,1.67,1.67h4.93c.92,0,1.66-.75,1.66-1.67v-1.67h-8.27v1.67ZM30.66,21.78c-1.07,1.07-2.82,1.07-3.89,0-.36-.36-.62-.82-.73-1.32h-3.08v3.63c0,.35-.28.63-.63.63h0c-.83-.02-1.51.64-1.53,1.47-.02.83.64,1.51,1.47,1.53.02,0,.04,0,.06,0,.35,0,.63.28.63.63h0v6.06h7.23c-.04-1.66.1-3.31.43-4.94.46-1.92,1.32-3.72,2.54-5.27.5-.67.92-1.39,1.27-2.15.23-.51.43-1.04.58-1.58h-3.62c-.12.5-.37.96-.73,1.32ZM20.4,28.89c-1.48-.35-2.4-1.83-2.05-3.3.24-1.02,1.03-1.81,2.05-2.05v-3.08h-3.63c-.35,0-.63-.28-.63-.63h0c0-.83-.67-1.5-1.5-1.5s-1.5.67-1.5,1.5c0,.35-.28.63-.63.63h-4.18c.05.16.1.32.15.48.39,1.17.97,2.27,1.7,3.25,1.22,1.55,2.08,3.35,2.54,5.27.32,1.62.47,3.28.43,4.94h7.24v-5.51ZM12.7,16.57c1.07-1.07,2.82-1.07,3.89,0,.36.36.62.82.73,1.32h3.08v-3.63c0-.35.28-.63.63-.63h0c.83,0,1.5-.67,1.5-1.5s-.67-1.5-1.5-1.5c-.35,0-.63-.28-.63-.63h0V3.97c-3.22.12-6.29,1.37-8.66,3.54-2.41,2.18-3.8,5.28-3.82,8.54,0,.62.05,1.23.15,1.84h3.9c.12-.5.37-.96.73-1.32Z"/>
</svg>