<?xml version="1.0" encoding="UTF-8"?>
<svg id="Layer_1" data-name="Layer 1" xmlns="http://www.w3.org/2000/svg" viewBox="0 0 48 48">
  <defs>
    <style>
      .cls-1 {
        fill: #4170ff;
        stroke-width: 0px;
      }
    </style>
  </defs>
  <path class="cls-1" d="M34.19,1.07H6.17c-1.4,0-2.6.5-3.6,1.5s-1.5,2.2-1.5,3.6v35.67c0,1.4.5,2.6,1.5,3.6s2.2,1.5,3.6,1.5h35.66c1.4,0,2.6-.5,3.6-1.5s1.5-2.2,1.5-3.6V13.81L34.19,1.07ZM39.36,31.56h-13.51v-3h13.51v3ZM39.36,19.55h-13.51v-3h13.51v3ZM21.47,33.97l-2.1,2.1-3.9-3.9-3.9,3.9-2.1-2.1,3.9-3.9-3.9-3.9,2.1-2.1,3.9,3.9,3.9-3.9,2.1,2.1-3.9,3.9,3.9,3.9ZM14.53,22.55l-5.33-5.33,2.1-2.1,3.19,3.19,6.38-6.38,2.1,2.14-8.45,8.48Z"/>
</svg>