<?xml version="1.0" encoding="UTF-8"?>
<svg id="Layer_1" data-name="Layer 1" xmlns="http://www.w3.org/2000/svg" viewBox="0 0 48 48">
  <defs>
    <style>
      .cls-1 {
        fill: #4170ff;
        stroke-width: 0px;
      }
    </style>
  </defs>
  <path class="cls-1" d="M35.34,35.34c.95,0,1.75-.33,2.41-.99.66-.66.99-1.47.99-2.41s-.33-1.75-.99-2.41-1.47-.99-2.41-.99-1.75.33-2.41.99-.99,1.47-.99,2.41.33,1.75.99,2.41c.66.66,1.47.99,2.41.99ZM35.34,42.15c1.13,0,2.19-.26,3.18-.79.98-.53,1.8-1.27,2.44-2.21-.87-.53-1.78-.92-2.72-1.16s-1.91-.37-2.89-.37-1.95.12-2.89.37-1.85.63-2.72,1.16c.64.95,1.46,1.68,2.44,2.21.98.53,2.04.79,3.18.79ZM35.34,46.69c-3.14,0-5.81-1.11-8.03-3.32-2.21-2.21-3.32-4.89-3.32-8.03s1.11-5.81,3.32-8.03c2.21-2.21,4.89-3.32,8.03-3.32s5.81,1.11,8.03,3.32c2.21,2.21,3.32,4.89,3.32,8.03s-1.11,5.81-3.32,8.03c-2.21,2.21-4.89,3.32-8.03,3.32ZM10.39,14.92h22.69v-4.54H10.39v4.54ZM20.99,42.15H5.85c-1.25,0-2.32-.44-3.2-1.33-.89-.89-1.33-1.96-1.33-3.2V5.85c0-1.25.44-2.32,1.33-3.2.89-.89,1.96-1.33,3.2-1.33h31.77c1.25,0,2.32.44,3.2,1.33s1.33,1.96,1.33,3.2v15.2c-1.1-.53-2.2-.93-3.32-1.19-1.12-.26-2.28-.4-3.49-.4-.42,0-.8,0-1.16.03s-.73.07-1.11.14v-.17H10.39v4.54h13.9c-.68.64-1.3,1.34-1.84,2.1s-1.03,1.57-1.45,2.44h-10.61v4.54h9.25c-.08.38-.12.75-.14,1.11-.02.36-.03.75-.03,1.16,0,1.25.11,2.41.34,3.49.23,1.08.62,2.18,1.19,3.32Z"/>
</svg>