<?xml version="1.0" encoding="UTF-8"?>
<svg id="Layer_1" data-name="Layer 1" xmlns="http://www.w3.org/2000/svg" viewBox="0 0 48 48">
  <defs>
    <style>
      .cls-1 {
        fill: #4170ff;
        stroke-width: 0px;
      }
    </style>
  </defs>
  <path class="cls-1" d="M8.07,27.04l5.03-5.03-5.03-5.03-5.03,5.03,5.03,5.03ZM34.95,25.99l4.98-7.96,4.98,7.96h-9.95ZM24,24c-1.66,0-3.07-.58-4.23-1.74-1.16-1.16-1.74-2.57-1.74-4.23s.58-3.11,1.74-4.26,2.57-1.72,4.23-1.72,3.11.57,4.26,1.72c1.14,1.14,1.72,2.56,1.72,4.26s-.57,3.07-1.72,4.23c-1.14,1.16-2.56,1.74-4.26,1.74ZM.11,35.95v-3.14c0-1.46.74-2.63,2.21-3.51,1.48-.88,3.39-1.32,5.75-1.32.43,0,.85,0,1.24.02s.78.06,1.14.12c-.46.66-.81,1.38-1.05,2.14s-.35,1.58-.35,2.44v3.24H.11ZM12.05,35.95v-3.24c0-2.16,1.1-3.9,3.31-5.23,2.21-1.33,5.09-1.99,8.64-1.99s6.47.66,8.66,1.99c2.19,1.33,3.29,3.07,3.29,5.23v3.24H12.05ZM39.93,27.98c2.39,0,4.31.44,5.77,1.32,1.46.88,2.19,2.05,2.19,3.51v3.14h-8.96v-3.24c0-.86-.11-1.68-.32-2.44s-.54-1.48-.97-2.14c.36-.07.74-.11,1.12-.12s.77-.02,1.17-.02Z"/>
</svg>