<?xml version="1.0" encoding="UTF-8"?>
<svg id="Layer_1" data-name="Layer 1" xmlns="http://www.w3.org/2000/svg" viewBox="0 0 48 48">
  <defs>
    <style>
      .cls-1 {
        fill: #4170ff;
        stroke-width: 0px;
      }
    </style>
  </defs>
  <path class="cls-1" d="M42.82.97c1.29,0,2.4.46,3.32,1.38.92.92,1.38,2.03,1.38,3.32v28.23c0,1.29-.46,2.4-1.38,3.32-.92.92-2.03,1.38-3.32,1.38h-11.76v-4.71h11.76V5.68H5.18v28.23h29.51v4.71H5.18c-1.29,0-2.4-.46-3.32-1.38s-1.38-2.03-1.38-3.32V5.68c0-1.29.46-2.4,1.38-3.32.92-.92,2.03-1.38,3.32-1.38h37.64ZM24,10.04l11.76,11.76-3.29,3.29-6.12-6.12v11.17h-4.71v-11.17l-6.12,6.12-3.29-3.29,11.76-11.76Z"/>
  <rect class="cls-1" x="10.98" y="41.08" width="26.05" height="5.95" rx="1.1" ry="1.1"/>
</svg>