<?xml version="1.0" encoding="UTF-8"?>
<svg id="Layer_1" data-name="Layer 1" xmlns="http://www.w3.org/2000/svg" viewBox="0 0 48 48">
  <defs>
    <style>
      .cls-1 {
        fill: #4170ff;
        stroke-width: 0px;
      }
    </style>
  </defs>
  <path class="cls-1" d="M32.54,20.76l9.13-9.19-1.81-1.81-7.31,7.31-3.69-3.69-1.81,1.88,5.5,5.5ZM.7,46.01v-5.18h31.07v5.18H.7ZM34.36,27.88c-3.58,0-6.63-1.26-9.16-3.79s-3.79-5.58-3.79-9.16,1.26-6.63,3.79-9.16,5.58-3.79,9.16-3.79,6.63,1.26,9.16,3.79,3.79,5.58,3.79,9.16-1.26,6.63-3.79,9.16-5.58,3.79-9.16,3.79ZM.7,25.29v-5.18h16.31c.3.95.65,1.86,1.04,2.72.39.86.86,1.68,1.42,2.46H.7ZM.7,35.65v-5.18h24.34c.99.6,2.05,1.11,3.17,1.52s2.31.7,3.56.87v2.78H.7Z"/>
</svg>