<?xml version="1.0" encoding="UTF-8"?>
<svg id="Layer_1" data-name="Layer 1" xmlns="http://www.w3.org/2000/svg" viewBox="0 0 48 48">
  <defs>
    <style>
      .cls-1 {
        fill: #4170ff;
        stroke-width: 0px;
      }
    </style>
  </defs>
  <path class="cls-1" d="M29.18,37.24c.46,0,.86-.17,1.21-.52s.52-.75.52-1.21-.17-.86-.52-1.21-.75-.52-1.21-.52-.86.17-1.21.52-.52.75-.52,1.21.17.86.52,1.21.75.52,1.21.52ZM35.52,37.24c.46,0,.86-.17,1.21-.52s.52-.75.52-1.21-.17-.86-.52-1.21-.75-.52-1.21-.52-.86.17-1.21.52c-.35.35-.52.75-.52,1.21s.17.86.52,1.21c.35.35.75.52,1.21.52ZM41.85,37.24c.46,0,.86-.17,1.21-.52s.52-.75.52-1.21-.17-.86-.52-1.21-.75-.52-1.21-.52-.86.17-1.21.52-.52.75-.52,1.21.17.86.52,1.21.75.52,1.21.52ZM35.52,47.03c-3.19,0-5.9-1.12-8.15-3.37-2.25-2.25-3.37-4.96-3.37-8.15s1.12-5.9,3.37-8.15c2.25-2.25,4.96-3.37,8.15-3.37s5.9,1.12,8.15,3.37,3.37,4.96,3.37,8.15-1.12,5.9-3.37,8.15-4.96,3.37-8.15,3.37ZM10.18,14.79h23.03v-4.61H10.18v4.61ZM20.95,42.42H5.58c-1.27,0-2.35-.45-3.25-1.35-.9-.9-1.35-1.99-1.35-3.25V5.58c0-1.27.45-2.35,1.35-3.25.9-.9,1.99-1.35,3.25-1.35h32.24c1.27,0,2.35.45,3.25,1.35.9.9,1.35,1.99,1.35,3.25v15.43c-1.11-.54-2.24-.94-3.37-1.21-1.13-.27-2.31-.4-3.54-.4-.42,0-.82,0-1.18.03s-.74.07-1.12.14v-.17H10.18v4.61h14.11c-.69.65-1.31,1.36-1.87,2.13s-1.05,1.59-1.47,2.48h-10.77v4.61h9.38c-.08.38-.12.76-.14,1.12-.02.36-.03.76-.03,1.18,0,1.27.12,2.45.35,3.54.23,1.09.63,2.22,1.21,3.37Z"/>
</svg>