<svg width="17" height="17" viewBox="0 0 17 17" fill="none" xmlns="http://www.w3.org/2000/svg">
<rect width="16.5789" height="16.5789" fill="white"/>
<path d="M7.79694 2.38539C7.95616 2.06284 8.03577 1.90156 8.14384 1.85003C8.23787 1.8052 8.34711 1.8052 8.44114 1.85003C8.54922 1.90156 8.62882 2.06284 8.78804 2.38539L10.2986 5.44557C10.3456 5.54079 10.3691 5.58841 10.4034 5.62538C10.4338 5.65811 10.4703 5.68463 10.5108 5.70347C10.5566 5.72474 10.6091 5.73242 10.7142 5.74778L14.093 6.24165C14.4488 6.29366 14.6267 6.31966 14.7091 6.40656C14.7807 6.48217 14.8144 6.58607 14.8008 6.68933C14.7851 6.80801 14.6563 6.93346 14.3987 7.18435L11.9547 9.56484C11.8785 9.63905 11.8404 9.67615 11.8158 9.7203C11.794 9.75939 11.7801 9.80233 11.7747 9.84674C11.7686 9.8969 11.7776 9.94932 11.7956 10.0541L12.3723 13.4165C12.4331 13.7711 12.4635 13.9484 12.4063 14.0536C12.3566 14.1452 12.2682 14.2094 12.1658 14.2284C12.048 14.2502 11.8888 14.1665 11.5704 13.999L8.54971 12.4105C8.4556 12.361 8.40854 12.3362 8.35896 12.3265C8.31507 12.3179 8.26992 12.3179 8.22602 12.3265C8.17644 12.3362 8.12939 12.361 8.03527 12.4105L5.01463 13.999C4.69617 14.1665 4.53694 14.2502 4.4192 14.2284C4.31677 14.2094 4.22837 14.1452 4.17865 14.0536C4.12149 13.9484 4.15191 13.7711 4.21273 13.4165L4.78941 10.0541C4.80739 9.94932 4.81638 9.8969 4.81029 9.84674C4.80491 9.80233 4.79095 9.75939 4.76918 9.7203C4.7446 9.67615 4.70651 9.63905 4.63032 9.56484L2.18629 7.18435C1.92869 6.93346 1.7999 6.80801 1.78423 6.68933C1.77059 6.58607 1.80428 6.48217 1.87591 6.40656C1.95824 6.31966 2.13614 6.29366 2.49195 6.24165L5.87079 5.74778C5.97587 5.73242 6.0284 5.72474 6.07416 5.70347C6.11467 5.68463 6.15114 5.65811 6.18156 5.62538C6.2159 5.58841 6.23941 5.54079 6.28641 5.44557L7.79694 2.38539Z" fill="#CBEF39"/>
</svg>
