<?xml version="1.0" encoding="UTF-8"?>
<svg id="Layer_1" data-name="Layer 1" xmlns="http://www.w3.org/2000/svg" viewBox="0 0 75.47 33">
  <defs>
    <style>
      .cls-1 {
        fill: #000;
        fill-rule: evenodd;
        stroke-width: 0px;
      }
    </style>
  </defs>
  <g id="Layer_1-2" data-name="Layer 1-2">
    <g id="ciilogoWith_Logotype-color.eps" data-name="ciilogoWith Logotype-color.eps">
      <polygon class="cls-1" points="34.88 .12 16.09 0 4.86 4.96 0 22.69 7.53 32.64 25.68 32.74 28.7 21.05 8.58 30.59 16.21 1.56 31.2 12.46 34.88 .12"/>
      <polygon class="cls-1" points="29.58 32.77 29.58 30.59 32.49 30.61 40.47 1.86 38.41 1.79 38.41 .18 56.06 .3 56.05 1.91 53.4 1.87 45.06 30.78 47.22 30.79 47.21 32.89 29.58 32.77"/>
      <polygon class="cls-1" points="48.99 32.89 49 30.71 51.92 30.72 59.89 1.99 57.82 1.91 57.84 .3 75.47 .41 75.47 2.02 72.8 2 64.48 30.9 66.65 30.91 66.64 33.01 48.99 32.89"/>
    </g>
  </g>
</svg>