<svg width="116" height="40" viewBox="0 0 116 40" fill="none" xmlns="http://www.w3.org/2000/svg">
<g clip-path="url(#clip0_3026_7701)">
<path d="M12.5069 0.0173812C8.75766 0.300082 5.30134 2.13546 2.97745 5.07338C1.25256 7.21321 0.220695 9.82275 0.0195675 12.5584C-0.0154111 13.4544 -0.00229411 14.3503 0.0589185 15.2441C0.216322 16.5619 0.568294 17.8493 1.09953 19.0649C2.29974 21.7984 4.34161 24.0796 6.93221 25.5801C8.57621 26.5086 10.406 27.0653 12.2905 27.2132C13.0229 27.2589 13.7574 27.2589 14.4898 27.2132C16.0813 27.0784 17.6379 26.6609 19.0851 25.9845C20.3312 25.3974 21.9359 24.2818 22.3031 23.749C22.701 23.1358 22.7294 22.3551 22.3796 21.7136C22.0714 21.059 21.3981 20.6524 20.6723 20.685C20.1476 20.685 19.9049 20.7872 18.9036 21.457C18.2565 21.9245 17.557 22.316 16.818 22.6204C15.6572 23.064 14.4133 23.2597 13.1715 23.1902C11.1777 23.1119 9.26048 22.4029 7.69956 21.1656C7.17925 20.7198 6.69392 20.2327 6.25013 19.7108C4.77447 17.9145 4.00494 15.6464 4.07927 13.3282C4.16672 9.45959 6.60866 6.03239 10.2486 4.66672C11.9997 3.99259 13.917 3.87516 15.7381 4.33401C17.0476 4.6602 18.2697 5.26474 19.3212 6.10632C19.5726 6.30204 19.8568 6.44991 20.1607 6.54342C20.4799 6.60649 20.8078 6.60649 21.1248 6.54342C21.562 6.43034 21.9468 6.17156 22.2157 5.81057C22.8584 4.81025 22.701 3.88821 21.7478 2.9553C20.7007 1.90278 18.567 0.895929 16.219 0.337051C15.3511 0.117414 14.4614 0.00650812 13.5672 0.0043335C13.165 0.0043335 12.6906 0.0043335 12.5047 0.0217305L12.5069 0.0173812ZM27.9238 7.79383C27.5587 7.86777 27.2264 8.05478 26.9728 8.32661C26.8307 8.45709 26.717 8.61584 26.6383 8.78981C26.4109 9.24865 26.4262 8.48753 26.4262 17.3948C26.4262 26.302 26.4262 25.5518 26.588 25.9584C26.7607 26.3412 27.0427 26.6652 27.4013 26.887C27.9959 27.2241 28.7173 27.2523 29.336 26.9609C29.7361 26.7718 30.0596 26.4521 30.2542 26.0541C30.475 25.6083 30.4553 26.0802 30.475 20.4545C30.475 15.8812 30.4947 15.4007 30.5384 15.1245C30.6127 14.4982 30.7898 13.8893 31.0631 13.3217C31.4916 12.4867 32.2633 11.8778 33.1793 11.656C34.0341 11.4537 34.9238 11.4537 35.7786 11.656C37.0313 11.9887 37.8249 12.9346 38.1397 14.4177C38.2796 15.0832 38.273 14.8005 38.2905 20.3327C38.2905 25.156 38.3102 25.5061 38.3539 25.6627C38.5092 26.2172 38.8895 26.6826 39.4011 26.9479C39.6897 27.0979 40.0132 27.1654 40.339 27.1414C40.5445 27.1588 40.7522 27.1306 40.9445 27.061C41.5742 26.8544 42.0617 26.3586 42.2562 25.7279L42.3196 25.5344V20.4545C42.3196 17.6601 42.3437 15.3441 42.3524 15.305C42.3612 15.2658 42.383 15.118 42.3983 14.9723C42.4464 14.5808 42.5295 14.1959 42.6497 13.8197C42.7984 13.3217 43.0651 12.865 43.4258 12.4867C44.0751 11.8212 44.9299 11.5168 46.2263 11.5168C46.7204 11.5016 47.2145 11.5711 47.6823 11.7277C48.8912 12.1279 49.6651 13.113 49.9821 14.6548C50.1221 15.3202 50.1133 15.0984 50.133 20.461L50.1505 25.4583L50.2139 25.6605C50.4565 26.5826 51.3266 27.2023 52.2842 27.1327C52.7804 27.1219 53.2505 26.9109 53.5893 26.5499C53.821 26.3325 53.9937 26.0585 54.0921 25.7562L54.1686 25.5366V20.1239C54.1686 15.0766 54.1686 14.6743 54.1184 14.3046C53.8954 12.4497 53.2548 10.9775 52.1989 9.88364C51.2545 8.91593 50.039 8.25485 48.7098 7.98737C47.1664 7.66118 45.5683 7.69162 44.038 8.07436C42.7044 8.44404 41.5348 9.253 40.7194 10.3664L40.6625 10.4425L40.4942 10.2164C39.6591 9.15949 38.5026 8.40055 37.1953 8.05696C35.8617 7.70467 34.4626 7.68075 33.1159 7.98737C32.1037 8.2418 31.1789 8.75719 30.4378 9.48569C30.3657 9.55745 30.2914 9.62486 30.2105 9.68575C30.1995 9.63791 30.1995 9.58789 30.2105 9.54005C30.193 9.26605 30.1208 8.99857 29.9962 8.75501C29.8104 8.42012 29.5306 8.14612 29.1895 7.96997C29.0584 7.90474 28.9206 7.85254 28.7785 7.8134C28.4943 7.76121 28.2036 7.75469 27.9172 7.78948L27.9238 7.79383ZM59.3783 7.78513C59.1312 7.8395 58.8929 7.93735 58.6787 8.07218C58.4054 8.25267 58.1846 8.50276 58.0425 8.79416C57.8217 9.23778 57.8392 8.52015 57.8392 17.4078C57.8392 26.2955 57.8392 25.5366 57.9901 25.9324C58.1671 26.3216 58.4513 26.65 58.8142 26.8783C59.2711 27.1393 59.8111 27.2197 60.3249 27.1045C60.9086 26.9718 61.4027 26.5826 61.665 26.0454C61.8858 25.5953 61.8661 26.0715 61.8858 20.4458C61.9033 15.8682 61.9055 15.392 61.9492 15.1158C62.0323 14.3112 62.3143 13.5414 62.7668 12.8716C63.0095 12.5606 63.3024 12.2888 63.6347 12.0713C64.3343 11.6799 65.1301 11.4907 65.9324 11.5255C66.7019 11.4798 67.4671 11.6755 68.1185 12.0844C68.9362 12.628 69.4106 13.487 69.6248 14.82C69.6882 15.1832 69.6882 15.2093 69.7013 20.3457V25.5083L69.7647 25.7084C69.9637 26.4108 70.5321 26.9501 71.2491 27.1132C71.4328 27.1588 71.6208 27.1719 71.8088 27.1567C72.316 27.148 72.7969 26.9392 73.1489 26.576C73.4069 26.3173 73.5927 25.9954 73.6889 25.6431C73.7151 25.5561 73.7282 24.4471 73.7392 20.4675C73.7392 15.9574 73.7632 15.3637 73.8026 15.0875C73.8703 14.3068 74.1174 13.5522 74.5218 12.8824C74.7295 12.5954 74.9831 12.341 75.2695 12.13C75.8685 11.7429 76.5659 11.5364 77.2786 11.5298C78.6559 11.4537 79.6527 11.7756 80.3786 12.5302C81.1044 13.2847 81.4804 14.3764 81.5569 15.9813C81.5569 16.277 81.5831 18.5321 81.5831 20.9786C81.5831 25.343 81.5831 25.4518 81.64 25.641C81.7777 26.2172 82.1734 26.7 82.7156 26.9501C83.026 27.1066 83.3736 27.1741 83.7212 27.1458C84.2196 27.1327 84.6918 26.924 85.0329 26.5652C85.2624 26.3412 85.4352 26.0672 85.5357 25.7627L85.6057 25.5496V14.6548L85.5423 14.2046C85.4373 13.263 85.1728 12.3453 84.7552 11.4929C83.8371 9.65748 82.2805 8.49406 80.1337 8.00259C78.7477 7.71772 77.3179 7.70902 75.9275 7.9765C74.4978 8.25268 73.2167 9.02901 72.3138 10.1642C72.1936 10.3142 72.0886 10.4403 72.0886 10.4447C72.0274 10.3751 71.9684 10.3033 71.9137 10.2272C70.989 8.96378 69.2816 8.05261 67.4365 7.8395C66.6822 7.75469 65.9215 7.76121 65.1694 7.86342C63.9299 8.03304 62.7778 8.59192 61.8814 9.46176C61.8027 9.54222 61.7175 9.61616 61.6278 9.68575C61.6125 9.63791 61.6082 9.58789 61.6103 9.54005C61.6016 9.27692 61.5338 9.01814 61.4136 8.78328C61.2321 8.43317 60.9458 8.14612 60.5938 7.9678C60.4626 7.90256 60.3249 7.85037 60.1828 7.81558C59.9183 7.76991 59.6494 7.75904 59.3826 7.78513H59.3783ZM97.4459 7.79383C93.9983 7.95475 90.9159 9.97497 89.4096 13.0629C88.8718 14.1546 88.5329 15.3311 88.404 16.5402C88.3427 17.2969 88.3362 18.058 88.3865 18.8148C88.6095 20.9155 89.5561 22.8748 91.0645 24.3601C92.6998 25.9584 94.8422 26.9479 97.1267 27.1588C97.846 27.2089 98.5674 27.2023 99.2867 27.1414C100.559 26.9892 101.77 26.513 102.802 25.7584C102.953 25.6453 103.279 25.3517 103.526 25.0929L103.972 24.6472V25.056C103.945 25.4235 104.018 25.791 104.186 26.1194C104.267 26.3194 104.391 26.4999 104.551 26.6456C104.778 26.8848 105.063 27.0632 105.377 27.161C105.57 27.2241 105.773 27.248 105.974 27.2306C106.173 27.248 106.374 27.2284 106.567 27.1697C107.244 26.9696 107.767 26.4325 107.944 25.7497C108.001 25.5431 108.001 25.417 108.001 17.4731C108.001 8.47884 108.018 9.253 107.804 8.81155C107.579 8.37228 107.187 8.03956 106.715 7.88516C106.477 7.8047 106.226 7.77861 105.974 7.8047C105.734 7.77643 105.489 7.80253 105.261 7.88081C104.708 8.06783 104.273 8.49406 104.077 9.03989C104.002 9.253 103.974 9.48134 103.989 9.70532V10.1642L103.655 9.83145C103.475 9.65313 103.285 9.48351 103.088 9.32476C101.794 8.35271 100.227 7.80905 98.6046 7.76991C98.2176 7.74599 97.8307 7.75034 97.4459 7.78731V7.79383ZM98.6789 11.532C100.004 11.6342 101.252 12.1909 102.212 13.1043C104.472 15.3006 104.687 18.8431 102.71 21.2961C102.384 21.6701 102.024 22.0115 101.632 22.3181C100.843 22.9009 99.925 23.2815 98.9544 23.4315C98.4122 23.4946 97.8635 23.4946 97.3191 23.4315C95.415 23.1053 93.7885 21.8767 92.9665 20.137C92.7041 19.6172 92.5205 19.0627 92.4243 18.4886C92.3565 17.9558 92.3434 17.4187 92.3806 16.8837C92.5314 15.5007 93.1479 14.209 94.1317 13.2195C95.0958 12.2235 96.3966 11.619 97.7826 11.5211C98.0755 11.4994 98.3707 11.5037 98.6636 11.5342H98.6811L98.6789 11.532Z" fill="#080708"/>
<path d="M10.2269 11.0949C9.29126 11.295 8.62885 12.1213 8.63978 13.0738C8.63978 13.6892 8.89993 14.2025 9.61044 14.9984C12.3737 18.0407 17.0937 18.2799 20.1521 15.5311C20.4975 15.2202 20.8145 14.8788 21.0965 14.5091C21.4594 14.1133 21.6606 13.5979 21.6628 13.063C21.6759 11.9713 20.797 11.0732 19.6974 11.0601C19.6449 11.0601 19.5946 11.0601 19.5422 11.0645C18.8885 11.0971 18.2917 11.4429 17.9375 11.9909C17.4238 12.715 16.6499 13.213 15.7776 13.3826C15.3819 13.4348 14.9818 13.4348 14.5861 13.3826C13.7007 13.2152 12.9159 12.7172 12.3891 11.9909C12.2601 11.7886 12.0983 11.6103 11.9103 11.4646C11.696 11.3015 11.4534 11.1819 11.1932 11.1123C10.874 11.0471 10.5461 11.0427 10.2248 11.0949H10.2269ZM112.998 22.2181C112.037 22.4247 111.289 23.1793 111.097 24.1405C111.029 24.5428 111.048 24.956 111.153 25.3496C111.276 25.7519 111.499 26.115 111.803 26.4064C112.786 27.3502 114.352 27.3241 115.303 26.3455C115.692 25.9432 115.932 25.4235 115.987 24.8668C116.12 23.6077 115.272 22.4551 114.024 22.2029C113.683 22.1529 113.337 22.1594 112.998 22.2203V22.2181ZM113.93 22.5508C114.476 22.6683 114.955 22.9901 115.27 23.4511C115.913 24.4145 115.65 25.7149 114.68 26.3564C114.339 26.5826 113.939 26.7044 113.528 26.7065C113.208 26.7174 112.889 26.6456 112.607 26.4956C111.905 26.1716 111.446 25.4822 111.416 24.7146C111.372 24.0948 111.619 23.4903 112.085 23.0793C112.579 22.6204 113.267 22.4291 113.93 22.5704V22.553V22.5508Z" fill="#080708"/>
<path d="M112.679 24.5624V25.8411H113.094V24.8407H113.556L113.853 25.3148C113.954 25.4909 114.065 25.6606 114.188 25.8215C114.271 25.8324 114.356 25.8324 114.439 25.8215H114.66L114.325 25.3018C114.144 25.0191 113.991 24.7755 113.991 24.769C113.991 24.7624 114.035 24.7364 114.087 24.7146C114.358 24.6081 114.529 24.3384 114.509 24.0492C114.533 23.7643 114.369 23.4946 114.104 23.3837L113.921 23.2968H112.668L112.679 24.5624ZM113.91 23.7208C114.028 23.7904 114.098 23.9187 114.091 24.0535C114.104 24.2036 114.024 24.3471 113.888 24.4167C113.746 24.471 113.591 24.4906 113.44 24.471H113.105V23.6512H113.473C113.787 23.6512 113.857 23.6708 113.912 23.7208H113.91ZM24.9374 34.9766V38.1516H25.7113V36.7903C25.7113 35.3181 25.7113 35.2072 25.8578 34.9158C26.0021 34.607 26.2929 34.3939 26.6317 34.346C27.0296 34.259 27.4362 34.4417 27.6374 34.7918C27.7751 35.0658 27.7838 35.1789 27.7838 36.7207V38.1538H28.5599V36.5706C28.5599 34.8092 28.5599 34.7788 28.3566 34.4025C28.173 34.0198 27.8057 33.7545 27.3816 33.7001C27.0077 33.6349 26.6208 33.6871 26.2776 33.8458C26.0852 33.9589 25.9168 34.109 25.7857 34.2895L25.7092 34.396V31.8147H24.9396V34.9788L24.9374 34.9766ZM41.8146 34.9766V38.1516H42.5842V31.8126H41.8146V34.9766ZM38.1943 32.0844C37.3942 32.167 36.8324 32.5302 36.6181 33.1065C36.5285 33.3587 36.4979 33.6262 36.5285 33.8915C36.5482 34.2068 36.6924 34.5004 36.9307 34.7113C37.2281 34.981 37.5997 35.1441 38.437 35.3768C39.1912 35.579 39.4951 35.7095 39.7137 35.9574C39.8799 36.127 39.9586 36.3619 39.9323 36.5967C39.9498 36.7424 39.9236 36.8925 39.8558 37.023C39.6613 37.4166 39.259 37.6058 38.6097 37.6036C38.2009 37.6362 37.7986 37.4992 37.4948 37.223C37.3177 37.0491 37.1887 36.8316 37.1231 36.5924V36.4989H36.2967V36.6228C36.3427 36.8555 36.4235 37.0795 36.535 37.2883C36.7099 37.5536 36.9373 37.7819 37.204 37.9537C37.5778 38.1451 37.991 38.2451 38.4086 38.2495C38.907 38.2864 39.4055 38.1886 39.8514 37.9689C40.2887 37.771 40.61 37.384 40.7215 36.9186C40.7828 36.575 40.7675 36.2227 40.6778 35.8856C40.4898 35.355 39.9455 34.9723 39.0032 34.7157L38.4239 34.5591C38.2468 34.5069 38.0719 34.446 37.9014 34.3765C37.5035 34.1894 37.3614 34.0133 37.3417 33.6697C37.3024 33.0695 37.7331 32.6998 38.4764 32.6998C38.8174 32.6846 39.1541 32.7868 39.4273 32.9934C39.5804 33.1413 39.694 33.3218 39.7618 33.524L39.7946 33.661H40.2034C40.6713 33.661 40.645 33.661 40.5685 33.387C40.4483 32.9782 40.1859 32.6237 39.8274 32.3867C39.3246 32.1257 38.7562 32.017 38.1921 32.0779L38.1943 32.0844ZM62.4892 32.0779C61.2059 32.1779 60.3358 33.0173 60.0472 34.4091C59.9795 34.9179 59.9795 35.4333 60.0472 35.9422C60.2549 36.9425 60.7162 37.6275 61.5032 37.9798C61.9273 38.1712 62.3952 38.2538 62.8586 38.219C63.6391 38.2321 64.3715 37.8428 64.7934 37.1904C64.9267 36.9686 65.0317 36.7294 65.1038 36.4815C65.1038 36.4576 65.0076 36.451 64.7016 36.451H64.3059L64.1747 36.6968C63.9167 37.2513 63.344 37.5905 62.7318 37.5536C62.2968 37.5731 61.8727 37.4166 61.5557 37.1208C61.0419 36.6011 60.7774 35.8856 60.8299 35.1593C60.7774 34.4439 61.0179 33.7349 61.4988 33.2C61.8115 32.8781 62.2487 32.7042 62.6969 32.7237C63.3287 32.6715 63.9255 33.0238 64.1813 33.6023L64.3081 33.8763H64.7038C65.1563 33.8763 65.1322 33.8763 65.0382 33.5871C64.7671 32.6976 64.0632 32.1649 63.0291 32.0692C62.8652 32.0692 62.6947 32.0453 62.6641 32.0496L62.4826 32.0801L62.4892 32.0779ZM19.542 32.5106V32.8433H21.4986V38.1559H22.2966V32.8499H24.2532V32.167H19.5442V32.5106H19.542ZM31.2227 33.7001C30.8576 33.7523 30.5143 33.9067 30.2345 34.1459C29.9088 34.4787 29.688 34.9005 29.6049 35.3594C29.5459 35.7617 29.5371 36.1705 29.5852 36.575C29.7557 37.4579 30.2148 38.0146 30.9406 38.2103C31.3145 38.2777 31.6971 38.2777 32.0687 38.2103C32.4578 38.119 32.8033 37.895 33.0437 37.5775C33.1705 37.4014 33.2689 37.2078 33.3345 37.0012C33.3345 36.9643 33.2777 36.9621 32.9519 36.9621H32.5737L32.5125 37.086C32.4644 37.173 32.4054 37.2557 32.3376 37.3296C31.9769 37.6688 31.4391 37.7428 30.9975 37.5188C30.569 37.2557 30.3067 36.7903 30.3067 36.2901V36.127H33.4066V35.6812C33.4263 35.3224 33.3454 34.9658 33.1749 34.6483C32.965 34.2025 32.565 33.8741 32.084 33.7589C31.7998 33.7001 31.5069 33.6806 31.2161 33.7023L31.2227 33.7001ZM31.9419 34.3656C32.3682 34.5678 32.6415 34.994 32.6459 35.4638V35.5942H31.5069C30.8816 35.5942 30.3591 35.5942 30.3526 35.5747C30.3657 35.3681 30.4138 35.1637 30.4925 34.9723C30.6324 34.6418 30.9188 34.3938 31.2686 34.3069C31.4937 34.2742 31.7233 34.2916 31.9419 34.3612V34.3678V34.3656ZM45.2578 33.6958C44.8578 33.7458 44.4883 33.9263 44.2019 34.209C43.8237 34.6244 43.6051 35.1615 43.5854 35.7204C43.4739 36.9621 44.0183 37.9494 44.9518 38.206C45.1092 38.2364 45.2688 38.256 45.4305 38.2625C45.8962 38.306 46.364 38.182 46.7422 37.9102C47.0199 37.6906 47.2297 37.397 47.3456 37.0643L47.3828 36.9621H46.6023L46.5214 37.1121C46.1979 37.6384 45.5071 37.8015 44.978 37.4796C44.9037 37.434 44.8337 37.3796 44.7725 37.3187C44.5189 37.0338 44.3702 36.6707 44.3549 36.2901V36.127H47.4484L47.4659 36.0139C47.4833 35.703 47.4549 35.392 47.3828 35.0876C47.3106 34.7527 47.1445 34.446 46.904 34.2025C46.692 33.9828 46.4209 33.8306 46.1235 33.7589C45.8393 33.698 45.5464 33.6784 45.2556 33.698L45.2578 33.6958ZM45.7519 34.3025C46.2984 34.4199 46.6832 34.9092 46.6657 35.4659V35.5768H44.3681V35.4899C44.3877 35.2789 44.4446 35.0745 44.5386 34.8831C44.6719 34.5896 44.9365 34.3765 45.2513 34.3025C45.4152 34.2634 45.5879 34.2655 45.7497 34.309V34.3025H45.7519ZM49.8553 33.6958C49.4531 33.7436 49.0771 33.9241 48.7907 34.209C48.2944 34.794 48.0692 35.5594 48.1742 36.3184C48.2638 37.3187 48.7666 37.9842 49.5405 38.2081C49.8706 38.2756 50.2117 38.2843 50.5462 38.2342C50.8019 38.1951 51.0468 38.0994 51.2588 37.9515C51.5693 37.7341 51.8054 37.4231 51.9278 37.0665L51.965 36.9643H51.1845L51.1036 37.1143C50.9921 37.3165 50.8151 37.4731 50.6008 37.5645C50.2794 37.6819 49.9253 37.6645 49.617 37.5188C49.2039 37.2448 48.9546 36.7859 48.9481 36.2923V36.1292H52.0415V35.977C52.0546 35.6595 52.0218 35.3398 51.9453 35.031C51.8688 34.7179 51.707 34.433 51.4796 34.2047C51.2676 33.985 50.9965 33.8328 50.6992 33.761C50.4215 33.7023 50.1373 33.6827 49.8553 33.7001V33.6958ZM50.5615 34.3634C50.7932 34.4678 50.9834 34.6418 51.108 34.8636C51.1933 35.0462 51.2457 35.242 51.261 35.4442V35.5768H48.9765C48.959 35.5768 49.0093 35.1637 49.1164 34.9397C49.2104 34.7287 49.3634 34.5482 49.558 34.4199C49.8706 34.2634 50.2335 34.2416 50.5636 34.3634H50.5593H50.5615ZM54.9185 33.7001C54.4878 33.7676 54.103 34.0089 53.856 34.3656C53.8123 34.433 53.8101 34.4221 53.7882 34.1133L53.7707 33.7806H53.0296V39.8869H53.7992V37.6645L53.8932 37.7841C54.2167 38.1516 54.7064 38.3321 55.1918 38.2647C56.1602 38.2038 56.8226 37.4862 56.9625 36.3423C57.0259 35.8617 56.9844 35.3746 56.8445 34.9092C56.6805 34.3569 56.2542 33.9198 55.7033 33.7393C55.4432 33.6827 55.1765 33.6675 54.9141 33.7001H54.9185ZM55.4934 34.4352C55.8389 34.6222 56.0793 34.9549 56.1471 35.342C56.2018 35.5594 56.2171 35.7856 56.1908 36.0074C56.2105 36.3423 56.1405 36.675 55.9897 36.973C55.7842 37.4448 55.277 37.7102 54.7698 37.6123C54.302 37.5601 53.9238 37.2056 53.8451 36.7424C53.7423 36.2423 53.7423 35.7247 53.8451 35.2246C53.9172 34.8875 54.1402 34.6004 54.4506 34.446C54.6452 34.3525 54.8616 34.3156 55.0759 34.3395C55.2158 34.3351 55.3557 34.3678 55.4781 34.4352H55.4913H55.4934ZM67.5873 33.7001C67.3424 33.7393 67.1063 33.8154 66.8834 33.9263C66.6057 34.1046 66.3674 34.3395 66.1838 34.6135C65.9542 35.031 65.8406 35.5007 65.8493 35.9748C65.8493 36.9469 66.2341 37.6971 66.914 38.0472C67.1676 38.1842 67.4496 38.2582 67.7381 38.2647C68.7875 38.3712 69.7341 37.6362 69.8871 36.5989C69.9505 36.1814 69.9505 35.7552 69.8871 35.3355C69.7538 34.4112 68.969 33.7175 68.0311 33.6958C67.8824 33.6849 67.7338 33.6849 67.5851 33.7001H67.5873ZM68.2891 34.3895C68.7132 34.5613 69.0149 34.9397 69.0892 35.3898C69.1351 35.5964 69.1526 35.8074 69.1351 36.0205C69.1526 36.2445 69.1307 36.4706 69.0673 36.6859C68.969 37.0491 68.7263 37.3557 68.3984 37.5384C67.983 37.7254 67.4977 37.658 67.1501 37.3687C66.4811 36.7925 66.4439 35.2746 67.0735 34.6548C67.3927 34.3395 67.8671 34.2373 68.2891 34.3917V34.3895ZM72.7095 33.7001C72.2985 33.7676 71.9378 34.0111 71.7213 34.3656C71.6951 34.4112 71.6885 34.3656 71.6842 34.1981V33.8654L71.6645 33.7654H70.9234L70.9409 33.848V38.1451H71.6842V36.862C71.6842 36.1596 71.7017 35.4964 71.7148 35.392C71.7388 35.0354 71.9115 34.707 72.1914 34.483C72.3597 34.3678 72.5608 34.3134 72.7641 34.3264C73.0986 34.309 73.4047 34.5135 73.514 34.8288C73.5752 34.9788 73.5752 34.9984 73.5818 36.562V38.1451H74.3425V36.712C74.3425 35.4572 74.36 35.2637 74.4038 35.1202C74.4606 34.8179 74.6574 34.5569 74.9328 34.4178C75.053 34.3525 75.1886 34.3199 75.3241 34.3286C75.4378 34.3264 75.5493 34.3395 75.6586 34.3656C75.8444 34.4352 75.9997 34.5656 76.098 34.7353C76.2226 34.9853 76.2292 35.031 76.2292 36.6337V38.1451H76.9725V36.5402C76.9725 35.0071 76.9725 34.9005 76.9178 34.7005C76.8282 34.1829 76.4128 33.7784 75.8903 33.7001C75.4793 33.6327 75.0596 33.7045 74.6945 33.9024C74.5262 34.0176 74.3797 34.1612 74.2617 34.3286L74.1917 34.4308L74.1305 34.3134C73.925 33.9176 73.514 33.6719 73.0658 33.6762C72.9478 33.6697 72.8275 33.6762 72.7117 33.6936L72.7095 33.7001ZM80.1818 33.7001C79.7861 33.7436 79.4232 33.9437 79.1762 34.2568L79.0384 34.4373V34.1046L79.0209 33.7719H78.6384C78.3039 33.7719 78.2601 33.7719 78.2776 33.8111C78.2951 33.8502 78.2951 35.2072 78.2951 36.8664V39.8652H79.0275V37.6406L79.1958 37.8211C79.3773 38.0255 79.6243 38.1625 79.8954 38.2103C80.4966 38.3473 81.1262 38.1733 81.57 37.7471C81.9766 37.3209 82.2084 36.7598 82.2171 36.1705C82.3199 34.9114 81.8148 33.9524 80.9273 33.7154C80.6802 33.6697 80.4288 33.6654 80.1796 33.7023L80.1818 33.7001ZM80.6103 34.3873C81.1852 34.5635 81.4913 35.1724 81.4541 36.0531C81.4651 36.5076 81.312 36.949 81.0191 37.2991C80.7633 37.5731 80.3851 37.6971 80.0134 37.6319C79.3445 37.5297 79.0515 37.0882 79.0078 36.1662C78.9706 35.3594 79.1521 34.8136 79.5369 34.5482C79.8539 34.3438 80.2452 34.2873 80.6081 34.3873H80.6103ZM84.4842 33.7001C83.9966 33.7241 83.555 33.9894 83.308 34.4069C83.2249 34.5809 83.1681 34.7635 83.1397 34.9527C83.1397 34.9788 83.2293 34.9897 83.5069 34.9897H83.872L83.9092 34.8657C84.0229 34.4504 84.3683 34.2503 84.9148 34.2829C85.1334 34.2764 85.3477 34.3482 85.5182 34.4852C85.7128 34.6483 85.7521 34.7592 85.7631 35.1506V35.4833H85.2471C84.7006 35.442 84.154 35.5268 83.6469 35.7334C83.3146 35.8878 83.0697 36.1836 82.9779 36.5359C82.8992 36.9055 82.9517 37.2904 83.1244 37.6253C83.4173 38.0385 83.9026 38.2734 84.4098 38.2473C84.8864 38.2864 85.3542 38.1016 85.6712 37.7471L85.7718 37.6145L85.7893 37.7884L85.8265 38.0472V38.1364H86.2025C86.537 38.1364 86.5741 38.1364 86.537 38.0864C86.4998 38.0363 86.5064 37.3013 86.4998 36.3967C86.4823 34.9745 86.4736 34.7309 86.432 34.5917C86.3074 34.1242 85.9095 33.7806 85.4264 33.7197C85.1138 33.6741 84.7968 33.6654 84.482 33.6958L84.4842 33.7001ZM85.7609 36.3641C85.7368 37.2404 85.4089 37.6362 84.6787 37.6775C84.4273 37.7167 84.1715 37.6449 83.9791 37.4818C83.8196 37.3579 83.7256 37.1665 83.7256 36.9664C83.6884 36.7446 83.7693 36.5185 83.9376 36.3662C84.1956 36.1096 84.4798 36.0335 85.2777 36.0335H85.7609L85.7652 36.3662L85.7609 36.3641ZM89.6785 33.7045C89.2762 33.748 88.9155 33.972 88.6969 34.3112L88.6073 34.4547L88.5898 34.1546C88.5898 33.9872 88.5701 33.8219 88.5657 33.8219C88.5613 33.8219 88.4695 33.7893 88.1897 33.7893H87.8181V38.169H88.5876V36.8077C88.5876 35.5029 88.5876 35.4377 88.6575 35.2246C88.7428 34.7766 89.1013 34.4308 89.5561 34.3612C89.7769 34.3264 90.002 34.3547 90.2053 34.4439C90.354 34.5352 90.4764 34.6613 90.5595 34.8136C90.6666 35.031 90.6732 35.1463 90.6732 36.6881V38.1668H91.4471V36.5315C91.4471 34.7157 91.4471 34.7701 91.2459 34.3873C90.9771 33.8567 90.3846 33.6045 89.6763 33.7045H89.6785ZM92.1423 33.7871C92.1423 33.7871 92.5139 34.8201 92.9687 36.0661L93.7885 38.3408L93.7076 38.5539C93.4802 39.1367 93.1916 39.3389 92.632 39.3107H92.3871V39.6434C92.3871 40.0261 92.35 40 92.8484 40C93.6682 40 93.994 39.7695 94.3547 38.9345C94.4356 38.7474 96.0752 34.0307 96.1233 33.8589C96.1233 33.8154 96.1058 33.8132 95.7516 33.8132H95.3625L95.3057 33.9828C95.2794 34.0785 95.1045 34.62 94.9231 35.1811C94.7416 35.7443 94.5011 36.4902 94.3984 36.8468C94.2956 37.2035 94.1973 37.4796 94.1907 37.4905C94.1579 37.4253 94.1317 37.3579 94.1164 37.2883C94.0792 37.1687 93.8125 36.3423 93.513 35.4572L92.9708 33.8415H92.5555L92.1379 33.7915L92.1423 33.7871Z" fill="#080708"/>
</g>
<defs>
<clipPath id="clip0_3026_7701">
<rect width="116" height="40" fill="white"/>
</clipPath>
</defs>
</svg>
