<svg width="75" height="47" viewBox="0 0 75 47" fill="none" xmlns="http://www.w3.org/2000/svg">
<path fill-rule="evenodd" clip-rule="evenodd" d="M35.2098 10.264L20.1807 10.1699L11.194 14.1708L7.302 28.5052L13.3282 36.5519L27.8512 36.6338L30.273 27.1798L14.1666 34.891L20.2738 11.4217L32.2696 20.2335L35.2098 10.264Z" fill="#080708"/>
<path fill-rule="evenodd" clip-rule="evenodd" d="M30.9736 36.6542V34.8911L33.3023 34.9033L39.685 11.6672L38.0447 11.6058V10.309L52.1667 10.4031L52.1546 11.6999L50.0284 11.6795L43.3623 35.0424L45.0956 35.0547L45.0835 36.7483L30.9736 36.6542Z" fill="#080708"/>
<path fill-rule="evenodd" clip-rule="evenodd" d="M46.5049 36.7483L46.517 34.9851L48.8457 34.9974L55.2324 11.7694L53.576 11.6999L53.5882 10.4031L67.698 10.4931V11.794L65.5637 11.7817L58.9057 35.1365L60.639 35.1487L60.6269 36.8424L46.5049 36.7483Z" fill="#080708"/>
</svg>
