<svg width="459" height="219" viewBox="0 0 459 219" fill="none" xmlns="http://www.w3.org/2000/svg">
<path d="M294.838 37.0487C306.89 56.8678 324.804 77 348 77H459V219H0V77H110C133.196 77 151.11 56.8678 163.162 37.0488C176.67 14.8361 201.102 0 229 0C256.898 0 281.33 14.8361 294.838 37.0487Z" fill="white"/>
<circle cx="229" cy="77" r="66" fill="#1D162B"/>
<path d="M222.708 125.38C223.128 125.431 223.496 125.556 223.81 125.756C224.122 125.958 224.36 126.213 224.525 126.519C224.689 126.828 224.756 127.164 224.724 127.527L223.722 127.406C223.733 127.111 223.632 126.855 223.419 126.637C223.206 126.418 222.934 126.289 222.603 126.249C222.34 126.217 222.099 126.25 221.882 126.348C221.665 126.446 221.486 126.594 221.344 126.791C221.201 126.991 221.113 127.229 221.08 127.505C221.046 127.781 221.076 128.035 221.169 128.267C221.262 128.502 221.407 128.695 221.603 128.847C221.796 128.997 222.029 129.089 222.302 129.122C222.51 129.148 222.723 129.136 222.94 129.088C223.157 129.043 223.337 128.971 223.479 128.873L224.414 129.126L223.61 132.532L219.845 132.076L219.953 131.189L222.853 131.54L223.301 129.649L223.265 129.645C223.117 129.761 222.928 129.847 222.697 129.903C222.463 129.961 222.217 129.975 221.96 129.944C221.543 129.893 221.184 129.749 220.884 129.51C220.579 129.275 220.355 128.974 220.209 128.608C220.064 128.245 220.017 127.843 220.071 127.402C220.125 126.957 220.274 126.573 220.518 126.248C220.763 125.926 221.075 125.687 221.454 125.531C221.831 125.375 222.249 125.324 222.708 125.38Z" fill="white"/>
<path d="M214.106 123.59C214.614 123.745 215.009 124.011 215.291 124.388C215.57 124.763 215.729 125.231 215.768 125.792C215.803 126.354 215.711 126.994 215.492 127.712C215.274 128.426 214.992 129.007 214.646 129.453C214.299 129.902 213.905 130.205 213.464 130.36C213.019 130.518 212.544 130.52 212.039 130.366C211.531 130.211 211.138 129.944 210.86 129.566C210.578 129.189 210.42 128.718 210.386 128.153C210.348 127.589 210.438 126.95 210.656 126.236C210.875 125.519 211.156 124.936 211.499 124.489C211.841 124.045 212.232 123.745 212.674 123.589C213.115 123.433 213.592 123.434 214.106 123.59ZM213.847 124.441C213.537 124.346 213.245 124.365 212.972 124.498C212.699 124.631 212.449 124.869 212.222 125.213C211.993 125.56 211.798 126 211.634 126.535C211.471 127.072 211.387 127.547 211.384 127.959C211.38 128.374 211.454 128.713 211.606 128.976C211.757 129.241 211.988 129.421 212.298 129.516C212.756 129.655 213.178 129.541 213.565 129.171C213.948 128.804 214.263 128.218 214.509 127.412C214.672 126.877 214.755 126.402 214.759 125.987C214.762 125.575 214.688 125.238 214.536 124.975C214.38 124.712 214.151 124.533 213.847 124.441Z" fill="white"/>
<path d="M206.064 120.36C206.537 120.602 206.88 120.932 207.092 121.352C207.301 121.771 207.375 122.26 207.316 122.818C207.252 123.378 207.049 123.992 206.708 124.66C206.369 125.326 205.99 125.848 205.571 126.227C205.151 126.609 204.71 126.838 204.249 126.914C203.783 126.992 203.315 126.911 202.845 126.671C202.372 126.429 202.031 126.098 201.823 125.677C201.612 125.257 201.538 124.765 201.604 124.202C201.665 123.641 201.865 123.028 202.205 122.362C202.546 121.694 202.924 121.17 203.34 120.79C203.754 120.412 204.192 120.185 204.654 120.109C205.116 120.032 205.586 120.116 206.064 120.36ZM205.66 121.152C205.372 121.005 205.081 120.973 204.789 121.056C204.497 121.139 204.209 121.33 203.925 121.629C203.64 121.93 203.37 122.33 203.116 122.827C202.861 123.328 202.696 123.781 202.62 124.186C202.544 124.594 202.558 124.941 202.662 125.226C202.764 125.514 202.96 125.731 203.249 125.879C203.675 126.096 204.111 126.057 204.556 125.761C204.998 125.466 205.41 124.944 205.793 124.193C206.047 123.695 206.212 123.243 206.288 122.835C206.364 122.429 206.349 122.084 206.245 121.799C206.138 121.512 205.943 121.297 205.66 121.152Z" fill="white"/>
<path d="M198.674 116.415L195.928 120.045L195.208 119.5L197.953 115.87L198.674 116.415ZM199.035 118.969L198.485 119.697L194.851 116.949L195.401 116.221L199.035 118.969Z" fill="white"/>
<path d="M188.591 105.528C188.94 106.006 189.139 106.519 189.186 107.065C189.233 107.612 189.124 108.15 188.858 108.681C188.589 109.213 188.159 109.695 187.568 110.126C186.973 110.561 186.381 110.825 185.795 110.917C185.206 111.01 184.658 110.951 184.152 110.74C183.646 110.528 183.219 110.183 182.869 109.705C182.516 109.221 182.317 108.707 182.271 108.163C182.226 107.619 182.338 107.082 182.609 106.553C182.875 106.022 183.306 105.539 183.902 105.104C184.495 104.671 185.085 104.408 185.672 104.317C186.256 104.222 186.801 104.28 187.305 104.489C187.809 104.698 188.238 105.044 188.591 105.528ZM187.824 106.087C187.589 105.766 187.3 105.537 186.957 105.402C186.614 105.267 186.233 105.24 185.816 105.323C185.397 105.404 184.962 105.609 184.511 105.938C184.057 106.269 183.728 106.622 183.524 106.997C183.315 107.371 183.223 107.742 183.247 108.11C183.271 108.478 183.401 108.823 183.636 109.145C183.869 109.464 184.158 109.693 184.503 109.83C184.846 109.966 185.229 109.992 185.65 109.91C186.069 109.83 186.506 109.624 186.96 109.293C187.411 108.963 187.739 108.611 187.943 108.236C188.147 107.862 188.237 107.49 188.213 107.122C188.187 106.751 188.057 106.406 187.824 106.087Z" fill="white"/>
<path d="M184.747 99.7108L178.514 102.67L177.458 100.444C177.229 99.962 177.123 99.5221 177.139 99.1248C177.153 98.7288 177.269 98.3812 177.49 98.0819C177.707 97.7839 178.008 97.5436 178.393 97.3609C178.772 97.1809 179.144 97.1015 179.51 97.1227C179.875 97.144 180.214 97.2772 180.525 97.5225C180.835 97.7649 181.105 98.1287 181.335 98.6139L182.131 100.291L181.328 100.672L180.574 99.083C180.427 98.7735 180.264 98.5451 180.084 98.3978C179.904 98.2478 179.711 98.1686 179.505 98.1603C179.298 98.1492 179.078 98.1992 178.844 98.3104C178.607 98.4229 178.424 98.5642 178.296 98.7342C178.166 98.9055 178.1 99.1092 178.1 99.3453C178.095 99.5799 178.166 99.852 178.313 100.162L178.875 101.345L184.3 98.7696L184.747 99.7108ZM183.063 96.1638L180.965 99.0102L180.47 97.9687L182.554 95.093L183.063 96.1638Z" fill="white"/>
<path d="M180.653 88.8932C180.811 89.4964 180.811 90.0628 180.653 90.5924C180.494 91.1189 180.193 91.5775 179.749 91.9679C179.302 92.3561 178.727 92.642 178.026 92.8256C177.315 93.0116 176.671 93.043 176.093 92.9197C175.511 92.7943 175.024 92.5421 174.631 92.163C174.236 91.7848 173.962 91.3075 173.812 90.7311C173.718 90.3728 173.684 90.0242 173.71 89.6855C173.733 89.3446 173.811 89.0274 173.945 88.734C174.078 88.4375 174.258 88.175 174.485 87.9464C174.709 87.7156 174.976 87.5293 175.287 87.3874L175.556 88.4176C175.373 88.5327 175.217 88.6628 175.089 88.808C174.958 88.9539 174.856 89.1145 174.784 89.2897C174.709 89.4657 174.667 89.6537 174.659 89.8537C174.647 90.0515 174.67 90.2624 174.729 90.4864C174.827 90.8626 175.013 91.1762 175.286 91.427C175.556 91.6786 175.901 91.8437 176.32 91.9222C176.739 92.0008 177.219 91.9693 177.76 91.8279C178.3 91.6865 178.734 91.4788 179.061 91.205C179.389 90.9311 179.609 90.615 179.723 90.2566C179.833 89.899 179.837 89.5246 179.735 89.1334C179.641 88.7721 179.485 88.4762 179.268 88.2457C179.049 88.016 178.785 87.8616 178.477 87.7826C178.169 87.7037 177.832 87.7122 177.464 87.8083L177.444 87.5311L177.944 89.4394L177.111 89.6574L176.424 87.0324L177.185 86.8332C177.747 86.6863 178.263 86.6788 178.735 86.8106C179.206 86.9395 179.608 87.1852 179.942 87.5476C180.276 87.9071 180.513 88.3556 180.653 88.8932Z" fill="white"/>
<path d="M179.161 81.5204L179.23 82.6249L172.189 80.5802L172.114 79.3787L178.844 76.4742L178.913 77.574L173.402 79.8777L173.406 79.9332L179.161 81.5204ZM176.455 81.5047L176.231 77.9326L177.099 77.878L177.324 81.4502L176.455 81.5047Z" fill="white"/>
<path d="M172.847 66.4108L179.687 67.3087L179.561 68.2728L174.093 71.0808L174.084 71.1497L179.097 71.8077L178.961 72.8406L172.121 71.9428L172.246 70.9879L177.725 68.1673L177.734 68.103L172.711 67.4437L172.847 66.4108Z" fill="white"/>
<path d="M174.386 60.1781L181.011 62.1029L180.72 63.1033L174.095 61.1786L174.386 60.1781Z" fill="white"/>
<path d="M182.235 58.3377L181.606 58.0543L178.251 52.5613L176.749 55.8964L175.934 55.5294L177.961 51.0291L178.594 51.3144L181.946 56.8055L183.448 53.4704L184.263 53.8374L182.235 58.3377Z" fill="white"/>
<path d="M186.506 49.9065L185.877 50.8169L181.613 44.8527L182.297 43.8624L189.381 45.7471L188.755 46.6536L183 45.0519L182.969 45.0976L186.506 49.9065ZM184.391 48.2194L186.426 45.275L187.142 45.7699L185.107 48.7143L184.391 48.2194Z" fill="white"/>
<path d="M187.269 38.9714L186.637 38.3389L190.419 34.5639L191.05 35.1963L189.53 36.7142L193.772 40.9643L193.038 41.6971L188.796 37.447L187.269 38.9714Z" fill="white"/>
<path d="M194.896 30.9615L199.038 36.4786L198.205 37.1041L194.063 31.587L194.896 30.9615Z" fill="white"/>
<path d="M205 32.8113C204.478 33.0912 203.943 33.2167 203.395 33.188C202.847 33.1592 202.329 32.9763 201.84 32.6393C201.35 32.2996 200.932 31.8072 200.587 31.1624C200.238 30.5121 200.059 29.8901 200.05 29.2966C200.038 28.7003 200.172 28.1662 200.452 27.6943C200.731 27.2224 201.132 26.8465 201.655 26.5667C202.183 26.2839 202.719 26.1576 203.264 26.1878C203.809 26.2181 204.325 26.4038 204.813 26.745C205.301 27.082 205.72 27.5756 206.068 28.2259C206.415 28.8735 206.594 29.4941 206.603 30.0877C206.616 30.6798 206.484 31.2111 206.207 31.6815C205.93 32.1519 205.528 32.5285 205 32.8113ZM204.552 31.9746C204.903 31.7866 205.169 31.5319 205.351 31.2105C205.532 30.8891 205.611 30.5161 205.586 30.0915C205.565 29.6653 205.422 29.206 205.158 28.7135C204.893 28.2183 204.589 27.8436 204.246 27.5895C203.905 27.3312 203.55 27.1886 203.182 27.1617C202.814 27.1348 202.454 27.2153 202.103 27.4034C201.755 27.5899 201.488 27.8446 201.304 28.1675C201.123 28.4888 201.043 28.8639 201.067 29.2928C201.088 29.7189 201.232 30.1796 201.497 30.6748C201.761 31.1673 202.064 31.5406 202.407 31.7947C202.75 32.0488 203.105 32.1894 203.473 32.2163C203.844 32.2417 204.204 32.1612 204.552 31.9746Z" fill="white"/>
<path d="M214.622 21.567L216.613 28.1726L215.682 28.4531L210.876 24.6209L210.809 24.6409L212.269 29.482L211.271 29.7826L209.28 23.1771L210.202 22.8992L215.024 26.7363L215.086 26.7176L213.625 21.8677L214.622 21.567Z" fill="white"/>
<path d="M227.773 25.5465C227.501 25.5497 227.252 25.4862 227.025 25.3561C226.798 25.2261 226.617 25.0491 226.482 24.8254C226.346 24.6016 226.277 24.3539 226.274 24.0823C226.271 23.8076 226.334 23.5583 226.464 23.3345C226.594 23.1077 226.771 22.9265 226.995 22.7912C227.219 22.6558 227.466 22.5865 227.738 22.5834C228.013 22.5801 228.262 22.6436 228.486 22.7737C228.713 22.9038 228.894 23.0807 229.029 23.3045C229.164 23.5252 229.234 23.7729 229.237 24.0476C229.24 24.3192 229.177 24.5685 229.047 24.7953C228.916 25.0222 228.74 25.2033 228.516 25.3387C228.295 25.474 228.047 25.5433 227.773 25.5465Z" fill="white"/>
<path d="M240.286 28.3457C239.906 28.2481 239.582 28.0931 239.315 27.8809C239.048 27.6658 238.861 27.404 238.752 27.0955C238.643 26.7871 238.637 26.4445 238.734 26.0678L238.768 25.9378L239.768 26.195L239.734 26.325C239.687 26.5074 239.688 26.6781 239.736 26.8371C239.788 26.997 239.879 27.1335 240.009 27.2467C240.143 27.3576 240.309 27.4385 240.506 27.4892C240.718 27.5438 240.91 27.5455 241.083 27.4943C241.256 27.443 241.403 27.3407 241.525 27.1873C241.648 27.0309 241.743 26.8257 241.808 26.5716L243.027 21.8317L244.027 22.0889L242.808 26.8288C242.698 27.2563 242.522 27.6013 242.279 27.864C242.04 28.1244 241.75 28.2969 241.409 28.3814C241.07 28.463 240.695 28.4511 240.286 28.3457Z" fill="white"/>
<path d="M249.067 31.4217C248.53 31.1729 248.107 30.8211 247.801 30.3664C247.494 29.9116 247.328 29.3877 247.303 28.7946C247.28 28.1987 247.421 27.5687 247.729 26.9047C248.038 26.2352 248.427 25.7179 248.895 25.3528C249.365 24.985 249.872 24.7707 250.417 24.7099C250.962 24.6492 251.504 24.7432 252.042 24.992C252.585 25.2434 253.009 25.5958 253.313 26.0493C253.616 26.5027 253.779 27.0267 253.8 27.6214C253.825 28.2145 253.682 28.8458 253.372 29.5154C253.064 30.1822 252.676 30.6981 252.208 31.0631C251.742 31.4295 251.238 31.6437 250.696 31.7057C250.154 31.7678 249.611 31.6731 249.067 31.4217ZM249.466 30.5602C249.827 30.7274 250.191 30.7868 250.557 30.7383C250.923 30.6899 251.268 30.5282 251.593 30.2532C251.92 29.9794 252.201 29.589 252.435 29.0819C252.671 28.572 252.787 28.1037 252.784 27.6771C252.785 27.2489 252.685 26.8797 252.485 26.5695C252.285 26.2594 252.005 26.0207 251.643 25.8535C251.285 25.6876 250.921 25.6282 250.552 25.6754C250.186 25.7238 249.839 25.8862 249.51 26.1628C249.183 26.4365 248.902 26.8283 248.666 27.3382C248.431 27.8453 248.316 28.3122 248.319 28.7389C248.322 29.1655 248.424 29.534 248.624 29.8441C248.827 30.1556 249.107 30.3943 249.466 30.5602Z" fill="white"/>
<path d="M259.935 29.5326L256.122 35.2826L255.254 34.7069L259.067 28.9569L259.935 29.5326Z" fill="white"/>
<path d="M268.267 36.3087L263.627 41.4141L262.907 40.7601L263.721 34.6671L263.67 34.6204L260.269 38.3621L259.498 37.6614L264.138 32.556L264.851 33.2038L264.041 39.3129L264.089 39.3565L267.496 35.608L268.267 36.3087Z" fill="white"/>
<path d="M274.607 45.3968L275.373 44.937L278.122 49.5191L277.356 49.9788L276.25 48.1364L271.101 51.2258L270.567 50.3364L275.717 47.247L274.607 45.3968Z" fill="white"/>
<path d="M273.835 56.3806L280.308 53.9955L280.668 54.9731L277.853 56.0104L279.041 59.2342L281.856 58.1969L282.216 59.1745L275.743 61.5595L275.382 60.582L278.202 59.5431L277.014 56.3193L274.195 57.3582L273.835 56.3806Z" fill="white"/>
<path d="M276.837 65.78L283.635 64.6027L284.374 68.8684L283.493 69.0209L282.932 65.7817L280.884 66.1365L281.406 69.1476L280.53 69.2993L280.008 66.2882L277.896 66.6541L278.462 69.9252L277.582 70.0777L276.837 65.78Z" fill="white"/>
<path d="M284.888 73.9395L284.86 75.2079L279.452 77.2857L279.45 77.3644L284.763 79.6797L284.735 80.9666L277.838 80.8168L277.86 79.7984L282.85 79.9067L282.851 79.8419L277.915 77.6923L277.933 76.8684L282.962 74.9583L282.963 74.8935L277.969 74.785L277.99 73.7898L284.888 73.9395Z" fill="white"/>
<path d="M281.884 91.4854L282.731 91.7717L281.019 96.8333L280.172 96.547L280.861 94.5118L275.172 92.5876L275.504 91.6051L281.193 93.5293L281.884 91.4854Z" fill="white"/>
<path d="M271.514 100.48C271.805 99.9637 272.189 99.571 272.667 99.3018C273.145 99.0326 273.681 98.9094 274.274 98.9321C274.87 98.9563 275.486 99.1481 276.124 99.5074C276.766 99.8699 277.251 100.299 277.577 100.795C277.906 101.292 278.079 101.815 278.096 102.363C278.113 102.912 277.976 103.444 277.684 103.96C277.39 104.482 277.005 104.876 276.529 105.142C276.052 105.409 275.517 105.528 274.923 105.501C274.329 105.479 273.711 105.286 273.069 104.924C272.429 104.563 271.946 104.135 271.62 103.639C271.292 103.145 271.119 102.626 271.1 102.081C271.082 101.535 271.22 101.002 271.514 100.48ZM272.341 100.946C272.145 101.293 272.057 101.651 272.076 102.019C272.095 102.388 272.228 102.745 272.476 103.09C272.723 103.439 273.089 103.75 273.576 104.024C274.065 104.3 274.523 104.454 274.948 104.485C275.375 104.52 275.751 104.45 276.076 104.276C276.402 104.101 276.662 103.841 276.858 103.494C277.052 103.15 277.14 102.792 277.123 102.421C277.104 102.052 276.97 101.693 276.72 101.343C276.474 100.995 276.106 100.683 275.616 100.407C275.13 100.132 274.674 99.9797 274.248 99.9488C273.823 99.9178 273.447 99.9896 273.122 100.164C272.795 100.341 272.535 100.602 272.341 100.946Z" fill="white"/>
<path d="M266.373 108.092L267.479 106.796L268.173 107.389L267.106 108.639C266.765 109.038 266.555 109.433 266.477 109.825C266.4 110.218 266.45 110.604 266.627 110.982C266.806 111.362 267.102 111.728 267.515 112.081C267.926 112.432 268.33 112.664 268.729 112.777C269.126 112.892 269.508 112.884 269.877 112.752C270.247 112.622 270.596 112.366 270.923 111.983L272.056 110.656L272.75 111.248L271.574 112.625C271.135 113.139 270.654 113.491 270.13 113.681C269.607 113.871 269.065 113.898 268.504 113.76C267.946 113.625 267.395 113.324 266.85 112.859C266.303 112.392 265.919 111.892 265.697 111.357C265.474 110.825 265.417 110.281 265.526 109.725C265.636 109.169 265.918 108.625 266.373 108.092ZM272.395 111.663L267.148 107.184L267.825 106.391L273.072 110.871L272.395 111.663Z" fill="white"/>
<path d="M261.074 113.571L261.936 112.878L264.322 119.811L263.383 120.565L257.132 116.738L257.991 116.048L263.049 119.224L263.092 119.19L261.074 113.571ZM262.62 115.792L259.829 118.033L259.284 117.355L262.075 115.113L262.62 115.792Z" fill="white"/>
<path d="M257.794 124.562L256.752 125.118L253.682 123.196L253.617 123.23L253.507 126.846L252.456 127.405L252.698 122.529L251.424 120.138L252.344 119.649L253.617 122.039L257.794 124.562Z" fill="white"/>
<path d="M239.277 125.9C239.542 125.842 239.799 125.854 240.047 125.936C240.296 126.018 240.509 126.155 240.686 126.347C240.864 126.539 240.982 126.767 241.039 127.033C241.098 127.301 241.086 127.558 241.003 127.803C240.921 128.052 240.785 128.265 240.593 128.442C240.401 128.62 240.172 128.738 239.906 128.795C239.638 128.854 239.381 128.842 239.136 128.759C238.887 128.678 238.674 128.541 238.497 128.349C238.32 128.16 238.202 127.931 238.144 127.663C238.086 127.397 238.098 127.14 238.18 126.892C238.262 126.643 238.399 126.43 238.59 126.253C238.779 126.076 239.008 125.958 239.277 125.9Z" fill="white"/>
</svg>
