<svg width="132" height="132" viewBox="0 0 132 132" fill="none" xmlns="http://www.w3.org/2000/svg">
<circle cx="66" cy="66" r="66" fill="#1D162B"/>
<path d="M59.7084 114.38C60.1282 114.431 60.4955 114.556 60.8102 114.756C61.1215 114.958 61.3597 115.213 61.5247 115.519C61.6894 115.828 61.756 116.164 61.7245 116.527L60.7224 116.406C60.7331 116.111 60.632 115.855 60.4191 115.637C60.2061 115.418 59.9342 115.289 59.6032 115.249C59.3397 115.217 59.0993 115.25 58.8823 115.348C58.6652 115.446 58.4856 115.594 58.3435 115.791C58.2011 115.991 58.1132 116.229 58.0798 116.505C58.0464 116.781 58.0763 117.035 58.1694 117.267C58.2622 117.502 58.4067 117.695 58.603 117.847C58.7961 117.997 59.0291 118.089 59.3018 118.122C59.5102 118.148 59.723 118.136 59.9403 118.088C60.1572 118.043 60.3369 117.971 60.4794 117.873L61.4142 118.126L60.61 121.532L56.8453 121.076L56.9528 120.189L59.8533 120.54L60.3014 118.649L60.2646 118.645C60.1169 118.761 59.9277 118.847 59.6971 118.903C59.463 118.961 59.2172 118.975 58.9598 118.944C58.543 118.893 58.1843 118.749 57.8836 118.51C57.5795 118.275 57.3547 117.974 57.2093 117.608C57.0636 117.245 57.0175 116.843 57.0709 116.402C57.1247 115.957 57.2739 115.573 57.5184 115.248C57.7626 114.926 58.0745 114.687 58.4541 114.531C58.8307 114.375 59.2488 114.324 59.7084 114.38Z" fill="white"/>
<path d="M51.1062 112.59C51.614 112.745 52.009 113.011 52.291 113.388C52.5701 113.763 52.7291 114.231 52.7678 114.792C52.8027 115.354 52.7107 115.994 52.4918 116.712C52.2738 117.426 51.9918 118.007 51.6459 118.453C51.299 118.902 50.9049 119.205 50.4637 119.36C50.0185 119.518 49.5435 119.52 49.0387 119.366C48.5308 119.211 48.1378 118.944 47.8596 118.566C47.5775 118.189 47.4195 117.718 47.3855 117.153C47.3476 116.589 47.4377 115.95 47.6557 115.236C47.8747 114.519 48.1556 113.936 48.4986 113.489C48.8407 113.045 49.2324 112.745 49.6737 112.589C50.115 112.433 50.5925 112.434 51.1062 112.59ZM50.8467 113.441C50.5367 113.346 50.2453 113.365 49.9723 113.498C49.6994 113.631 49.4492 113.869 49.2217 114.213C48.9933 114.56 48.7975 115 48.6345 115.535C48.4705 116.072 48.387 116.547 48.3839 116.959C48.3798 117.374 48.4539 117.713 48.6061 117.976C48.7575 118.241 48.9881 118.421 49.2981 118.516C49.7557 118.655 50.1781 118.541 50.565 118.171C50.9482 117.804 51.2627 117.218 51.5087 116.412C51.6717 115.877 51.7553 115.402 51.7593 114.987C51.7624 114.575 51.6879 114.238 51.5356 113.975C51.3805 113.712 51.1508 113.533 50.8467 113.441Z" fill="white"/>
<path d="M43.0643 109.36C43.5372 109.602 43.8797 109.932 44.0916 110.352C44.3008 110.771 44.3755 111.26 44.3157 111.818C44.2518 112.378 44.0494 112.992 43.7084 113.66C43.3689 114.326 42.9899 114.848 42.5712 115.227C42.1512 115.609 41.7103 115.838 41.2486 115.914C40.7828 115.992 40.3147 115.911 39.8446 115.671C39.3716 115.429 39.0313 115.098 38.8235 114.677C38.6116 114.257 38.5383 113.765 38.6036 113.202C38.6648 112.641 38.8651 112.028 39.2046 111.362C39.5455 110.694 39.9239 110.17 40.3398 109.79C40.7543 109.412 41.1924 109.185 41.6541 109.109C42.1158 109.032 42.5859 109.116 43.0643 109.36ZM42.6603 110.152C42.3715 110.005 42.0812 109.973 41.7892 110.056C41.4973 110.139 41.2093 110.33 40.9252 110.629C40.6397 110.93 40.37 111.33 40.1161 111.827C39.8608 112.328 39.6956 112.781 39.6205 113.186C39.544 113.594 39.5577 113.941 39.6617 114.226C39.7643 114.514 39.9599 114.731 40.2486 114.879C40.6748 115.096 41.1107 115.057 41.5562 114.761C41.9976 114.466 42.4098 113.944 42.7928 113.193C43.0468 112.695 43.212 112.243 43.2885 111.835C43.3636 111.429 43.3491 111.084 43.2451 110.799C43.1384 110.512 42.9435 110.297 42.6603 110.152Z" fill="white"/>
<path d="M35.6737 105.415L32.9284 109.045L32.2082 108.5L34.9535 104.87L35.6737 105.415ZM36.0349 107.969L35.4848 108.697L31.8507 105.949L32.4008 105.221L36.0349 107.969Z" fill="white"/>
<path d="M25.5908 94.5276C25.9403 95.0063 26.1387 95.5188 26.186 96.0652C26.2332 96.6116 26.1238 97.1501 25.8577 97.6808C25.589 98.2132 25.1593 98.6951 24.5684 99.1265C23.9725 99.5615 23.3813 99.8249 22.7949 99.9167C22.2059 100.01 21.6584 99.9515 21.1523 99.74C20.6463 99.5285 20.2186 99.1834 19.8691 98.7047C19.516 98.221 19.3167 97.7073 19.2713 97.1633C19.2258 96.6194 19.3383 96.0825 19.6088 95.5525C19.8749 95.0219 20.3059 94.5391 20.9018 94.1041C21.4951 93.6709 22.0851 93.4084 22.6716 93.3165C23.2562 93.2222 23.8007 93.2795 24.3049 93.4886C24.8091 93.6976 25.2377 94.0439 25.5908 94.5276ZM24.8242 95.0872C24.5894 94.7656 24.3003 94.5372 23.9569 94.4019C23.6135 94.2665 23.2332 94.2403 22.816 94.3232C22.397 94.4037 21.9619 94.6086 21.5106 94.938C21.0569 95.2693 20.7279 95.6222 20.5236 95.9968C20.315 96.3708 20.2229 96.7419 20.2472 97.1102C20.2714 97.4785 20.401 97.8234 20.6357 98.145C20.8687 98.4641 21.1578 98.6926 21.503 98.8304C21.8464 98.9657 22.2289 98.9923 22.6504 98.91C23.0694 98.8296 23.5058 98.6238 23.9596 98.2925C24.4108 97.9631 24.7386 97.6111 24.9428 97.2365C25.1471 96.8619 25.2371 96.4904 25.2128 96.1221C25.1867 95.7513 25.0572 95.4064 24.8242 95.0872Z" fill="white"/>
<path d="M21.7467 88.7108L15.5144 91.6696L14.458 89.4444C14.2289 88.962 14.1226 88.5221 14.139 88.1248C14.1526 87.7288 14.2695 87.3812 14.4896 87.0819C14.7069 86.7839 15.008 86.5436 15.3928 86.3609C15.772 86.1809 16.1444 86.1015 16.5099 86.1227C16.8753 86.144 17.2136 86.2772 17.5248 86.5225C17.8347 86.7649 18.1048 87.1287 18.3352 87.6139L19.1315 89.2912L18.3284 89.6725L17.5738 88.083C17.4268 87.7735 17.2637 87.5451 17.0845 87.3978C16.9039 87.2478 16.7108 87.1686 16.5053 87.1603C16.2984 87.1492 16.0778 87.1992 15.8436 87.3104C15.6066 87.4229 15.4242 87.5642 15.2964 87.7342C15.1659 87.9055 15.1003 88.1092 15.0996 88.3453C15.0949 88.5799 15.1659 88.852 15.3129 89.1615L15.8749 90.3453L21.2999 87.7696L21.7467 88.7108ZM20.0628 85.1638L17.9646 88.0102L17.4702 86.9687L19.5544 84.093L20.0628 85.1638Z" fill="white"/>
<path d="M17.6534 77.8932C17.8112 78.4964 17.811 79.0628 17.6528 79.5924C17.4939 80.1189 17.1926 80.5775 16.7492 80.9679C16.3019 81.3561 15.7274 81.642 15.0257 81.8256C14.3149 82.0116 13.6706 82.043 13.0928 81.9197C12.5112 81.7943 12.024 81.5421 11.6313 81.163C11.2356 80.7848 10.9623 80.3075 10.8115 79.7311C10.7178 79.3728 10.684 79.0242 10.7102 78.6855C10.7327 78.3446 10.8109 78.0274 10.9447 77.734C11.0777 77.4375 11.2579 77.175 11.4853 76.9464C11.7088 76.7156 11.976 76.5293 12.2866 76.3874L12.5562 77.4176C12.3725 77.5327 12.2167 77.6628 12.0888 77.808C11.9578 77.9539 11.8563 78.1145 11.7841 78.2897C11.7089 78.4657 11.6671 78.6537 11.6588 78.8537C11.6468 79.0515 11.67 79.2624 11.7286 79.4864C11.8271 79.8626 12.0128 80.1762 12.2858 80.427C12.5559 80.6786 12.9006 80.8437 13.32 80.9222C13.7394 81.0008 14.2193 80.9693 14.7598 80.8279C15.3003 80.6865 15.7342 80.4788 16.0614 80.205C16.3886 79.9311 16.609 79.615 16.7226 79.2566C16.8333 78.899 16.8374 78.5246 16.7351 78.1334C16.6405 77.7721 16.4849 77.4762 16.2683 77.2457C16.0486 77.016 15.7849 76.8616 15.4771 76.7826C15.1692 76.7037 14.8317 76.7122 14.4644 76.8083L14.4445 76.5311L14.9438 78.4394L14.1106 78.6574L13.4238 76.0324L14.1853 75.8332C14.7467 75.6863 15.2632 75.6788 15.7349 75.8106C16.2057 75.9395 16.6082 76.1852 16.9424 76.5476C17.2757 76.9071 17.5127 77.3556 17.6534 77.8932Z" fill="white"/>
<path d="M16.1606 70.5204L16.2299 71.6249L9.18895 69.5802L9.11353 68.3787L15.8438 65.4742L15.9129 66.574L10.4021 68.8777L10.4056 68.9332L16.1606 70.5204ZM13.4549 70.5047L13.2306 66.9326L14.0994 66.878L14.3236 70.4502L13.4549 70.5047Z" fill="white"/>
<path d="M9.84704 55.4108L16.6874 56.3087L16.5609 57.2728L11.0927 60.0808L11.0836 60.1497L16.0969 60.8077L15.9613 61.8406L9.1209 60.9428L9.24624 59.9879L14.7254 57.1673L14.7338 57.103L9.71145 56.4437L9.84704 55.4108Z" fill="white"/>
<path d="M11.3859 49.1781L18.011 51.1029L17.7204 52.1033L11.0953 50.1786L11.3859 49.1781Z" fill="white"/>
<path d="M19.2354 47.3377L18.6064 47.0543L15.2509 41.5613L13.7485 44.8964L12.9337 44.5294L14.961 40.0291L15.5943 40.3144L18.9455 45.8055L20.4479 42.4704L21.2627 42.8374L19.2354 47.3377Z" fill="white"/>
<path d="M23.5063 38.9065L22.8771 39.8169L18.6128 33.8527L19.2972 32.8624L26.3811 34.7471L25.7545 35.6536L20.0004 34.0519L19.9688 34.0976L23.5063 38.9065ZM21.391 37.2194L23.4259 34.275L24.142 34.7699L22.1071 37.7143L21.391 37.2194Z" fill="white"/>
<path d="M24.2686 27.9714L23.6372 27.3389L27.4187 23.5639L28.0501 24.1963L26.5296 25.7142L30.7725 29.9643L30.0384 30.6971L25.7956 26.447L24.2686 27.9714Z" fill="white"/>
<path d="M31.8957 19.9615L36.038 25.4786L35.2049 26.1041L31.0626 20.587L31.8957 19.9615Z" fill="white"/>
<path d="M42 21.8113C41.4776 22.0912 40.9426 22.2167 40.3949 22.188C39.8472 22.1592 39.329 21.9763 38.8403 21.6393C38.3501 21.2996 37.9323 20.8072 37.5868 20.1624C37.2385 19.5121 37.0594 18.8901 37.0496 18.2966C37.0383 17.7003 37.1724 17.1662 37.4519 16.6943C37.7314 16.2224 38.1323 15.8465 38.6548 15.5667C39.1826 15.2839 39.719 15.1576 40.264 15.1878C40.809 15.2181 41.3252 15.4038 41.8126 15.745C42.3013 16.082 42.7199 16.5756 43.0683 17.2259C43.4152 17.8735 43.5935 18.4941 43.6033 19.0877C43.6159 19.6798 43.4838 20.2111 43.207 20.6815C42.9302 21.1519 42.5279 21.5285 42 21.8113ZM41.5518 20.9746C41.9028 20.7866 42.1691 20.5319 42.3506 20.2105C42.5322 19.8891 42.6107 19.5161 42.5863 19.0915C42.5647 18.6653 42.4219 18.206 42.1581 17.7135C41.8928 17.2183 41.5888 16.8436 41.246 16.5895C40.9046 16.3312 40.5498 16.1886 40.1817 16.1617C39.8135 16.1348 39.454 16.2153 39.103 16.4034C38.7547 16.5899 38.4884 16.8446 38.3042 17.1675C38.1226 17.4888 38.0434 17.8639 38.0666 18.2928C38.0882 18.7189 38.2317 19.1796 38.497 19.6748C38.7608 20.1673 39.0641 20.5406 39.4069 20.7947C39.7496 21.0488 40.105 21.1894 40.4732 21.2163C40.844 21.2417 41.2035 21.1612 41.5518 20.9746Z" fill="white"/>
<path d="M51.6222 10.567L53.6131 17.1726L52.6821 17.4531L47.8759 13.6209L47.8094 13.6409L49.2685 18.482L48.271 18.7826L46.2801 12.1771L47.2022 11.8992L52.0244 15.7363L52.0865 15.7176L50.6247 10.8677L51.6222 10.567Z" fill="white"/>
<path d="M64.7727 14.5465C64.501 14.5497 64.2518 14.4862 64.0249 14.3561C63.798 14.2261 63.6169 14.0491 63.4816 13.8254C63.3462 13.6016 63.2769 13.3539 63.2737 13.0823C63.2705 12.8076 63.334 12.5583 63.4641 12.3345C63.5942 12.1077 63.7711 11.9265 63.9949 11.7912C64.2187 11.6558 64.4663 11.5865 64.738 11.5834C65.0127 11.5801 65.2619 11.6436 65.4857 11.7737C65.7126 11.9038 65.8937 12.0807 66.0291 12.3045C66.1644 12.5252 66.2337 12.7729 66.2369 13.0476C66.2401 13.3192 66.1766 13.5685 66.0465 13.7953C65.9165 14.0222 65.7395 14.2033 65.5158 14.3387C65.2951 14.474 65.0474 14.5433 64.7727 14.5465Z" fill="white"/>
<path d="M77.2855 17.3457C76.9059 17.2481 76.5824 17.0931 76.315 16.8809C76.0484 16.6658 75.8608 16.404 75.7521 16.0955C75.6434 15.7871 75.6375 15.4445 75.7343 15.0678L75.7678 14.9378L76.7678 15.195L76.7343 15.325C76.6874 15.5074 76.6881 15.6781 76.7365 15.8371C76.7878 15.997 76.8786 16.1335 77.0088 16.2467C77.1429 16.3576 77.3085 16.4385 77.5058 16.4892C77.7181 16.5438 77.9105 16.5455 78.083 16.4943C78.2556 16.443 78.403 16.3407 78.5253 16.1873C78.6484 16.0309 78.7426 15.8257 78.808 15.5716L80.0272 10.8317L81.0272 11.0889L79.808 15.8288C79.698 16.2563 79.5216 16.6013 79.2788 16.864C79.0397 17.1244 78.7499 17.2969 78.4094 17.3814C78.0697 17.463 77.6951 17.4511 77.2855 17.3457Z" fill="white"/>
<path d="M86.0675 20.4217C85.5296 20.1729 85.1073 19.8211 84.8007 19.3664C84.4941 18.9116 84.3283 18.3877 84.3034 17.7946C84.2797 17.1987 84.4215 16.5687 84.7286 15.9047C85.0383 15.2352 85.4273 14.7179 85.8954 14.3528C86.3649 13.985 86.8721 13.7707 87.4172 13.7099C87.9622 13.6492 88.5037 13.7432 89.0416 13.992C89.5852 14.2434 90.0088 14.5958 90.3126 15.0493C90.6165 15.5027 90.7788 16.0267 90.7996 16.6214C90.8246 17.2145 90.6822 17.8458 90.3724 18.5154C90.064 19.1822 89.6757 19.6981 89.2076 20.0631C88.7422 20.4295 88.2384 20.6437 87.6962 20.7057C87.1539 20.7678 86.611 20.6731 86.0675 20.4217ZM86.466 19.5602C86.8274 19.7274 87.191 19.7868 87.5569 19.7383C87.9229 19.6899 88.268 19.5282 88.5925 19.2532C88.9198 18.9794 89.2007 18.589 89.4353 18.0819C89.6712 17.572 89.7874 17.1037 89.7841 16.6771C89.7849 16.2489 89.6853 15.8797 89.4853 15.5695C89.2853 15.2594 89.0046 15.0207 88.6432 14.8535C88.2845 14.6876 87.9209 14.6282 87.5522 14.6754C87.1863 14.7238 86.839 14.8862 86.5105 15.1628C86.1832 15.4365 85.9016 15.8283 85.6657 16.3382C85.4312 16.8453 85.3155 17.3122 85.3188 17.7389C85.3222 18.1655 85.4238 18.534 85.6238 18.8441C85.8267 19.1556 86.1074 19.3943 86.466 19.5602Z" fill="white"/>
<path d="M96.9349 18.5326L93.1225 24.2826L92.2542 23.7069L96.0666 17.9569L96.9349 18.5326Z" fill="white"/>
<path d="M105.267 25.3087L100.627 30.4141L99.9072 29.7601L100.721 23.6671L100.67 23.6204L97.2689 27.3621L96.4979 26.6614L101.138 21.556L101.851 22.2038L101.041 28.3129L101.089 28.3565L104.496 24.608L105.267 25.3087Z" fill="white"/>
<path d="M111.607 34.3968L112.373 33.937L115.122 38.5191L114.356 38.9788L113.25 37.1364L108.101 40.2258L107.567 39.3364L112.717 36.247L111.607 34.3968Z" fill="white"/>
<path d="M110.835 45.3806L117.308 42.9955L117.668 43.9731L114.853 45.0104L116.041 48.2342L118.856 47.1969L119.216 48.1745L112.743 50.5595L112.382 49.582L115.202 48.5431L114.014 45.3193L111.195 46.3582L110.835 45.3806Z" fill="white"/>
<path d="M113.837 54.78L120.635 53.6027L121.374 57.8684L120.493 58.0209L119.932 54.7817L117.884 55.1365L118.406 58.1476L117.53 58.2993L117.008 55.2882L114.896 55.6541L115.462 58.9252L114.582 59.0777L113.837 54.78Z" fill="white"/>
<path d="M121.888 62.9395L121.86 64.2079L116.452 66.2857L116.45 66.3644L121.763 68.6797L121.735 69.9666L114.838 69.8168L114.86 68.7984L119.85 68.9067L119.851 68.8419L114.915 66.6923L114.933 65.8684L119.962 63.9583L119.963 63.8935L114.969 63.785L114.99 62.7898L121.888 62.9395Z" fill="white"/>
<path d="M118.884 80.4854L119.731 80.7717L118.019 85.8333L117.172 85.547L117.861 83.5118L112.172 81.5876L112.504 80.6051L118.193 82.5293L118.884 80.4854Z" fill="white"/>
<path d="M108.514 89.4799C108.805 88.9637 109.189 88.571 109.667 88.3018C110.145 88.0326 110.681 87.9094 111.274 87.9321C111.87 87.9563 112.486 88.1481 113.124 88.5074C113.766 88.8699 114.251 89.299 114.577 89.7949C114.906 90.2923 115.079 90.8151 115.096 91.3633C115.113 91.9115 114.976 92.4437 114.684 92.96C114.39 93.4816 114.005 93.8756 113.529 94.1421C113.052 94.4086 112.517 94.5284 111.923 94.5015C111.329 94.4788 110.711 94.2862 110.069 93.9238C109.429 93.5629 108.946 93.1345 108.62 92.6386C108.292 92.1454 108.119 91.6261 108.1 91.0806C108.082 90.535 108.22 90.0015 108.514 89.4799ZM109.341 89.9462C109.145 90.293 109.057 90.6507 109.076 91.0193C109.095 91.388 109.228 91.745 109.476 92.0905C109.723 92.4387 110.089 92.75 110.576 93.0245C111.065 93.3004 111.523 93.4539 111.948 93.4848C112.375 93.5199 112.751 93.4502 113.076 93.2757C113.402 93.1012 113.662 92.8405 113.858 92.4937C114.052 92.1495 114.14 91.7918 114.123 91.4205C114.104 91.0519 113.97 90.6927 113.72 90.3431C113.474 89.9949 113.106 89.6828 112.616 89.4068C112.13 89.1324 111.674 88.9797 111.248 88.9488C110.823 88.9178 110.447 88.9896 110.122 89.1641C109.795 89.3413 109.535 89.602 109.341 89.9462Z" fill="white"/>
<path d="M103.373 97.0921L104.479 95.7963L105.173 96.3886L104.106 97.6386C103.765 98.0377 103.555 98.433 103.477 98.8246C103.4 99.2181 103.45 99.6039 103.627 99.9819C103.806 100.362 104.102 100.728 104.515 101.081C104.926 101.432 105.33 101.664 105.729 101.777C106.126 101.892 106.508 101.884 106.877 101.752C107.247 101.622 107.596 101.366 107.923 100.983L109.056 99.6556L109.75 100.248L108.574 101.625C108.135 102.139 107.654 102.491 107.13 102.681C106.607 102.871 106.065 102.898 105.504 102.76C104.946 102.625 104.395 102.324 103.85 101.859C103.303 101.392 102.919 100.892 102.697 100.357C102.474 99.8254 102.417 99.2814 102.526 98.7254C102.636 98.1694 102.918 97.625 103.373 97.0921ZM109.395 100.663L104.148 96.1836L104.825 95.3913L110.072 99.8712L109.395 100.663Z" fill="white"/>
<path d="M98.0737 102.571L98.9365 101.878L101.322 108.811L100.383 109.565L94.1317 105.738L94.9909 105.048L100.049 108.224L100.092 108.19L98.0737 102.571ZM99.6198 104.792L96.8294 107.033L96.2843 106.355L99.0747 104.113L99.6198 104.792Z" fill="white"/>
<path d="M94.7937 113.562L93.7515 114.118L90.682 112.196L90.6166 112.23L90.5066 115.846L89.4563 116.405L89.6975 111.529L88.4243 109.138L89.3438 108.649L90.6171 111.039L94.7937 113.562Z" fill="white"/>
<path d="M76.2766 114.9C76.542 114.842 76.7989 114.854 77.0473 114.936C77.2958 115.018 77.5088 115.155 77.6863 115.347C77.8639 115.539 77.9816 115.767 78.0394 116.033C78.0977 116.301 78.0857 116.558 78.0033 116.803C77.9215 117.052 77.7846 117.265 77.5926 117.442C77.4006 117.62 77.1719 117.738 76.9065 117.795C76.638 117.854 76.3811 117.842 76.1357 117.759C75.8873 117.678 75.6743 117.541 75.4967 117.349C75.3198 117.16 75.2021 116.931 75.1437 116.663C75.086 116.397 75.098 116.14 75.1798 115.892C75.2616 115.643 75.3985 115.43 75.5905 115.253C75.7794 115.076 76.0081 114.958 76.2766 114.9Z" fill="white"/>
</svg>
