<?xml version="1.0" encoding="UTF-8"?>
<svg id="Layer_1" data-name="Layer 1" xmlns="http://www.w3.org/2000/svg" viewBox="0 0 123.52 54">
  <defs>
    <style>
      .cls-1 {
        fill: #000;
        fill-rule: evenodd;
        stroke-width: 0px;
      }
    </style>
  </defs>
  <g id="Layer_1-2" data-name="Layer_1">
    <g id="ciilogoWith_Logotype-color.eps">
      <polygon class="cls-1" points="57.08 .19 26.34 0 7.96 8.11 0 37.13 12.33 53.42 42.03 53.58 46.98 34.45 14.04 50.06 26.53 2.54 51.07 20.39 57.08 .19"/>
      <polygon class="cls-1" points="48.41 53.63 48.41 50.06 53.18 50.09 66.23 3.04 62.87 2.92 62.87 .29 91.75 .48 91.73 3.11 87.39 3.06 73.75 50.37 77.29 50.39 77.27 53.82 48.41 53.63"/>
      <polygon class="cls-1" points="80.18 53.82 80.2 50.25 84.97 50.27 98.02 3.25 94.64 3.11 94.66 .48 123.52 .66 123.52 3.29 119.15 3.27 105.53 50.56 109.08 50.58 109.06 54.01 80.18 53.82"/>
    </g>
  </g>
</svg>