<svg width="128" height="42" viewBox="0 0 128 42" fill="none" xmlns="http://www.w3.org/2000/svg">
<g clip-path="url(#clip0_3026_7730)">
<path d="M35.1149 9.11393H21.737L5.95337 32.9069H14.7533L20.8926 23.5198H26.1078C28.7154 24.2697 26.9469 27.0072 25.6882 29.1678C24.4243 31.3284 24.6261 32.9069 24.6261 32.9069H32.9215C31.9125 31.2445 34.5201 27.0072 35.5291 24.3484C36.5382 21.6895 34.3501 21.1704 34.3501 21.1704C34.3501 21.1704 42.5925 19.9432 43.2669 14.2113C43.9414 8.47938 35.1149 9.11393 35.1149 9.11393ZM29.5651 18.7056H23.9304L26.6229 14.3005H31.6682C31.6682 14.3005 34.0262 14.6308 34.0262 15.7111C34.0262 16.7915 32.7622 18.7003 29.5651 18.7003V18.7056Z" fill="#080708"/>
<path d="M36.2939 32.9071L52.1095 9.11407H69.9484L69.019 10.7293L71.7965 9.11407H89.6301L74.9086 26.5983H87.5271L99.7259 9.11407H107.469L122.791 32.9071H114.198L103.263 15.7952L91.9881 32.9071H61.6158L74.9086 15.297H56.3156L54.717 17.8719H61.7857L57.9991 23.6877H50.5959L48.7424 26.5983H57.6645L53.5381 32.9071H36.2939Z" fill="#080708"/>
<path d="M103.369 30.2744C105.668 30.2744 107.533 28.4337 107.533 26.163C107.533 23.8923 105.668 22.0515 103.369 22.0515C101.069 22.0515 99.2053 23.8923 99.2053 26.163C99.2053 28.4337 101.069 30.2744 103.369 30.2744Z" fill="#080708"/>
</g>
<defs>
<clipPath id="clip0_3026_7730">
<rect width="116.837" height="23.814" fill="white" transform="translate(5.95337 9.09308)"/>
</clipPath>
</defs>
</svg>
