<?xml version="1.0" encoding="UTF-8"?>
<svg id="Layer_1" xmlns="http://www.w3.org/2000/svg" version="1.1" viewBox="0 0 148 47">
  <!-- Generator: Adobe Illustrator 29.1.0, SVG Export Plug-In . SVG Version: 2.1.0 Build 142)  -->
  <defs>
    <style>
      .st0 {
        fill: #fcdf26;
      }

      .st1 {
        fill: #1b2d77;
      }
    </style>
  </defs>
  <g id="layer1">
    <g id="g3878">
      <g id="g40">
        <path id="path42" class="st0" d="M21.8,46.8L-.5,24.5h22.3v22.3Z"/>
      </g>
      <g id="g44">
        <path id="path46" class="st1" d="M21.8,46.8H-.5v-22.3l22.3,22.3Z"/>
      </g>
      <path id="path58" d="M35.2,37v6h5.4c1,0,1.7-.1,2.3-.4,1-.5,1.5-1.4,1.5-2.8s-.5-2-1.4-2.4c-.5-.2-1.3-.4-2.2-.4h-5.5,0ZM35.2,28.4v4.9h5.4c1,0,1.8-.2,2.4-.6.6-.4.9-1,.9-2s-.4-1.7-1.2-2.1c-.7-.2-1.6-.3-2.6-.3h-4.9ZM47.3,26.9c.7,1,1,2.1,1,3.4s-.3,2.5-1,3.3c-.4.5-1,.9-1.7,1.3,1.1.4,2,1.1,2.6,2,.6.9.9,2,.9,3.3s-.3,2.5-1,3.6c-.4.7-.9,1.3-1.6,1.8-.7.5-1.6.9-2.5,1.1-1,.2-2,.3-3.2.3h-10.1v-22.3h10.8c2.7,0,4.7.8,5.8,2.4"/>
      <g id="g60">
        <path id="path62" d="M62,42.4c.7-.9,1-2.2,1-3.8s-.3-2.9-1-3.8c-.7-.9-1.6-1.3-2.9-1.3s-2.2.4-2.9,1.3c-.7.9-1,2.2-1,3.8s.3,2.9,1,3.8c.7.9,1.7,1.3,2.9,1.3s2.2-.4,2.9-1.3M65.4,44.8c-1.4,1.7-3.5,2.6-6.3,2.6s-5-.9-6.3-2.6c-1.4-1.7-2.1-3.8-2.1-6.2s.7-4.4,2.1-6.2c1.4-1.7,3.5-2.6,6.3-2.6s5,.9,6.3,2.6c1.4,1.7,2.1,3.8,2.1,6.2s-.7,4.5-2.1,6.2"/>
      </g>
      <g id="g64">
        <path id="path66" d="M73.2,41.5c0,.8.3,1.3.6,1.6.5.6,1.5.9,3,.9s1.5-.1,2-.4.8-.6.8-1.1-.2-.9-.6-1.1c-.4-.3-1.9-.7-4.5-1.3-1.9-.5-3.2-1-4-1.7-.8-.7-1.2-1.7-1.2-3s.6-2.8,1.8-3.9c1.2-1.1,2.9-1.6,5.1-1.6s3.7.4,5,1.2c1.3.8,2,2.2,2.2,4.3h-4.3c0-.6-.2-1-.5-1.3-.5-.6-1.3-.9-2.4-.9s-1.6.1-2,.4c-.4.3-.6.6-.6,1s.2.9.6,1.1c.4.2,1.9.6,4.5,1.2,1.7.4,3,1,3.9,1.8.8.8,1.3,1.9,1.3,3.1s-.6,3-1.8,4c-1.2,1-3.1,1.6-5.7,1.6s-4.5-.5-5.8-1.6c-1.2-1.1-1.9-2.5-1.9-4.2h4.4Z"/>
      </g>
      <g id="g68">
        <path id="path70" d="M86.1,24.6h4.2v12l5.4-6.2h5.4l-5.9,6.2,6.1,10.3h-5.3l-4-7.1-1.8,1.9v5.2h-4.2v-22.3Z"/>
      </g>
      <g id="g72">
        <path id="path74" d="M112,38.8c-.3.2-.6.3-.8.4-.3.1-.7.2-1.2.3l-1,.2c-.9.2-1.6.4-2,.6-.7.4-1,1-1,1.8s.2,1.3.6,1.6c.4.3.9.5,1.5.5.9,0,1.8-.3,2.6-.8.8-.5,1.2-1.5,1.2-3v-1.6ZM109.4,36.8c.8-.1,1.4-.2,1.7-.4.6-.3.9-.7.9-1.2s-.2-1.1-.7-1.4c-.5-.3-1.2-.4-2.1-.4s-1.8.3-2.2.8c-.3.4-.5.9-.6,1.5h-4.2c0-1.4.5-2.6,1.2-3.6,1.1-1.5,3.1-2.2,5.9-2.2s3.4.4,4.8,1.1c1.4.7,2.1,2.1,2.1,4.1v7.6c0,.5,0,1.2,0,1.9,0,.6.1.9.3,1.2s.4.4.6.5v.6h-4.7c-.1-.3-.2-.6-.3-.9,0-.3,0-.6-.1-1-.6.6-1.3,1.2-2.1,1.7-.9.5-2,.8-3.2.8s-2.7-.4-3.7-1.3c-1-.9-1.5-2.1-1.5-3.6s.8-3.5,2.4-4.4c.9-.5,2.1-.8,3.8-1.1,0,0,1.5-.2,1.5-.2Z"/>
      </g>
      <path id="path76" d="M124.1,46.8h-4.3v-22.3h4.3v22.3Z"/>
      <path id="path78" d="M127.6,30.3h4.4v16.5h-4.4v-16.5ZM132,28.3h-4.4v-4h4.4v4Z"/>
      <g id="g80">
        <path id="path82" d="M138.5,41.5c0,.8.3,1.3.6,1.6.5.6,1.5.9,3,.9s1.5-.1,2-.4c.5-.3.8-.6.8-1.1s-.2-.9-.6-1.1c-.4-.3-1.9-.7-4.5-1.3-1.9-.5-3.2-1-4-1.7-.8-.7-1.2-1.7-1.2-3s.6-2.8,1.8-3.9c1.2-1.1,2.9-1.6,5.1-1.6s3.7.4,5,1.2c1.3.8,2,2.2,2.2,4.3h-4.3c0-.6-.2-1-.5-1.3-.5-.6-1.3-.9-2.4-.9s-1.6.1-2,.4-.6.6-.6,1,.2.9.6,1.1c.4.2,1.9.6,4.5,1.2,1.7.4,3,1,3.9,1.8.8.8,1.3,1.9,1.3,3.1s-.6,3-1.8,4c-1.2,1-3.1,1.6-5.7,1.6s-4.5-.5-5.8-1.6c-1.2-1.1-1.9-2.5-1.9-4.2h4.4Z"/>
      </g>
      <g id="g168">
        <path id="path170" d="M9,4.6v10.5h3.3V4.6c-.5,0-1.1,0-1.6,0h0c-.5,0-1.1,0-1.6,0M9,3.1h3.3V-.2h-3.3v3.3ZM21.8,7.4h0s-2.1,7.7-2.1,7.7h-3.3l1.5-6.5c-1.3-.5-2.8-.8-4.3-1l.3-2.8c3,.4,5.9,1.3,7.9,2.6M2,16.7l.9,3.3h15.5l.9-3.3s-17.3,0-17.3,0ZM7.4,4.8l.3,2.8c-1.5.2-2.9.5-4.3,1l1.5,6.5H1.6L-.5,7.4h0c2-1.3,4.9-2.2,7.9-2.6"/>
      </g>
    </g>
  </g>
</svg>