<svg width="148" height="47" viewBox="0 0 148 47" fill="none" xmlns="http://www.w3.org/2000/svg">
<g clip-path="url(#clip0_3026_7705)">
<path d="M21.5421 24.9188H0.528564V45.9225H21.5421V24.9188Z" stroke="#080708" stroke-width="4.05" stroke-miterlimit="15.24"/>
<path d="M22.0706 46.4508H0V24.3905L22.0706 46.4508Z" fill="#080708"/>
<path d="M137.398 41.2358C137.487 41.9943 137.685 42.533 137.984 42.8521C138.515 43.4196 139.499 43.7047 140.933 43.7047C141.775 43.7047 142.445 43.5792 142.942 43.3307C143.439 43.0823 143.685 42.7057 143.685 42.2087C143.685 41.7118 143.486 41.3666 143.086 41.1155C142.686 40.8645 141.197 40.4382 138.622 39.8288C136.767 39.3685 135.461 38.7957 134.703 38.1079C133.944 37.4305 133.564 36.4524 133.564 35.1735C133.564 33.6671 134.158 32.3725 135.344 31.2898C136.529 30.207 138.198 29.6656 140.349 29.6656C142.5 29.6656 144.052 30.0736 145.339 30.887C146.624 31.7004 147.364 33.1048 147.553 35.1029H143.285C143.225 34.5537 143.07 34.1195 142.819 33.8005C142.348 33.2225 141.548 32.9322 140.417 32.9322C139.486 32.9322 138.824 33.0786 138.429 33.3663C138.033 33.654 137.835 33.994 137.835 34.3837C137.835 34.8728 138.044 35.2284 138.465 35.4481C138.884 35.6783 140.37 36.0732 142.921 36.6303C144.622 37.0304 145.896 37.6345 146.744 38.4427C147.581 39.2613 148.003 40.2839 148.003 41.5105C148.003 43.1267 147.401 44.4475 146.195 45.4701C144.988 46.4926 143.125 47.0052 140.606 47.0052C138.086 47.0052 136.136 46.4639 134.909 45.3811C133.682 44.2984 133.073 42.9175 133.073 41.2411H137.4L137.398 41.2358Z" fill="#080708"/>
<path d="M126.667 30.1286H130.995V46.4456H126.667V30.1286ZM130.995 28.1828H126.667V24.2467H130.995V28.1828Z" fill="#080708"/>
<path d="M123.182 46.4456H118.914V24.3801H123.182V46.4456Z" fill="#080708"/>
<path d="M111.269 38.5133C110.997 38.6833 110.722 38.8219 110.442 38.9265C110.165 39.0311 109.783 39.1279 109.296 39.2168L108.325 39.3973C107.415 39.5568 106.761 39.753 106.365 39.9805C105.693 40.3702 105.355 40.9743 105.355 41.7929C105.355 42.5226 105.562 43.0483 105.97 43.3726C106.381 43.6969 106.881 43.859 107.47 43.859C108.404 43.859 109.262 43.5897 110.047 43.0509C110.832 42.5121 111.24 41.5288 111.272 40.1034V38.5159L111.269 38.5133ZM108.66 36.5204C109.456 36.421 110.023 36.2955 110.366 36.1464C110.978 35.8875 111.285 35.4821 111.285 34.9329C111.285 34.2634 111.049 33.8031 110.581 33.5494C110.11 33.2957 109.419 33.1676 108.508 33.1676C107.485 33.1676 106.761 33.4187 106.337 33.9182C106.033 34.2869 105.832 34.7865 105.73 35.4141H101.611C101.7 33.9862 102.103 32.8145 102.815 31.8965C103.948 30.4581 105.892 29.7389 108.65 29.7389C110.445 29.7389 112.041 30.0946 113.433 30.8033C114.827 31.5121 115.523 32.8485 115.523 34.8152V42.3003C115.523 42.8181 115.534 43.4484 115.552 44.1859C115.581 44.743 115.667 45.1248 115.809 45.3236C115.95 45.5224 116.157 45.6898 116.437 45.8179V46.4456H111.795C111.664 46.1161 111.575 45.8074 111.525 45.5171C111.476 45.2295 111.436 44.8973 111.405 44.5286C110.814 45.1667 110.131 45.7107 109.356 46.1605C108.433 46.6888 107.389 46.953 106.224 46.953C104.738 46.953 103.511 46.5319 102.543 45.6871C101.575 44.845 101.088 43.6498 101.088 42.1015C101.088 40.0956 101.868 38.6441 103.427 37.747C104.283 37.258 105.539 36.9101 107.2 36.7009L108.663 36.5204H108.66Z" fill="#080708"/>
<path d="M85.6187 24.4559H89.813V36.3583L95.1952 30.2044H100.504L94.6536 36.2824L100.732 46.4456H95.538L91.5844 39.4731L89.8156 41.3091V46.4456H85.6213V24.4559H85.6187Z" fill="#080708"/>
<path d="M72.8343 41.2358C72.9258 41.9943 73.1221 42.533 73.4204 42.8521C73.9515 43.4196 74.9354 43.7047 76.3692 43.7047C77.2118 43.7047 77.8816 43.5792 78.3787 43.3307C78.8759 43.0823 79.1245 42.7057 79.1245 42.2087C79.1245 41.7118 78.923 41.3666 78.5253 41.1155C78.1249 40.8645 76.6361 40.4382 74.0614 39.8288C72.2063 39.3685 70.9006 38.7957 70.1418 38.1079C69.383 37.4305 69.0036 36.4524 69.0036 35.1735C69.0036 33.6671 69.5976 32.3725 70.7829 31.2898C71.9682 30.207 73.6375 29.6656 75.7883 29.6656C77.9392 29.6656 79.4934 30.0736 80.7781 30.887C82.0628 31.7004 82.8033 33.1048 82.9917 35.1029H78.7241C78.6639 34.5537 78.5096 34.1195 78.2584 33.8005C77.7874 33.2225 76.9867 32.9322 75.8564 32.9322C74.9249 32.9322 74.2629 33.0786 73.8678 33.3663C73.4727 33.654 73.2738 33.994 73.2738 34.3837C73.2738 34.8728 73.4832 35.2284 73.9044 35.4481C74.3231 35.6783 75.8093 36.0732 78.3604 36.6303C80.0612 37.0304 81.3328 37.6345 82.1832 38.4427C83.0231 39.2613 83.4418 40.2839 83.4418 41.5105C83.4418 43.1267 82.84 44.4475 81.6337 45.4701C80.4275 46.4926 78.5645 47.0052 76.0448 47.0052C73.525 47.0052 71.5757 46.4639 70.3485 45.3811C69.124 44.2984 68.5117 42.9175 68.5117 41.2411H72.8395L72.8343 41.2358Z" fill="#080708"/>
<path d="M61.7559 42.091C62.4257 41.2044 62.758 39.9439 62.758 38.3093C62.758 36.6747 62.4231 35.4167 61.7559 34.5354C61.0861 33.654 60.1284 33.212 58.8803 33.212C57.6322 33.212 56.6719 33.654 55.9969 34.5354C55.3218 35.4167 54.9843 36.6747 54.9843 38.3093C54.9843 39.9439 55.3218 41.2044 55.9969 42.091C56.6719 42.9776 57.6322 43.4196 58.8803 43.4196C60.1284 43.4196 61.0861 42.9776 61.7559 42.091ZM65.1705 44.4501C63.7916 46.15 61.701 47 58.896 47C56.0911 47 53.9978 46.15 52.6215 44.4501C51.2426 42.7501 50.5544 40.7049 50.5544 38.3119C50.5544 35.9189 51.2426 33.9208 52.6215 32.1946C54.0004 30.4712 56.0911 29.6081 58.896 29.6081C61.701 29.6081 63.7942 30.4712 65.1705 32.1946C66.5494 33.9208 67.2376 35.9581 67.2376 38.3119C67.2376 40.6657 66.5494 42.7501 65.1705 44.4501Z" fill="#080708"/>
<path d="M35.3025 36.7296V42.6115H40.6612C41.6188 42.6115 42.3645 42.4807 42.8983 42.2218C43.8638 41.7432 44.3479 40.8252 44.3479 39.4679C44.3479 38.3197 43.8795 37.5325 42.9402 37.101C42.4169 36.863 41.6816 36.7375 40.7344 36.727H35.2999L35.3025 36.7296ZM35.3025 28.2141V33.0786H40.669C41.6267 33.0786 42.4064 32.8956 43.003 32.532C43.5996 32.1685 43.9005 31.5199 43.9005 30.5941C43.9005 29.5663 43.5054 28.8889 42.7152 28.5594C42.0322 28.3292 41.1636 28.2167 40.1065 28.2167H35.3051L35.3025 28.2141ZM47.2889 26.7312C47.9666 27.6701 48.3041 28.7921 48.3041 30.0998C48.3041 31.4074 47.964 32.5294 47.281 33.348C46.899 33.8083 46.3391 34.2268 45.5986 34.606C46.7237 35.0166 47.5741 35.6652 48.1497 36.5518C48.7228 37.4384 49.0106 38.5185 49.0106 39.7843C49.0106 41.0501 48.6835 42.2637 48.0268 43.3019C47.6081 43.9898 47.0874 44.5704 46.4621 45.0385C45.7582 45.5773 44.9262 45.9486 43.9685 46.1448C43.0108 46.3462 41.9694 46.4456 40.8496 46.4456H30.9041V24.3801H41.5717C44.2642 24.4193 46.1716 25.2039 47.2915 26.7286" fill="#080708"/>
<path d="M9.41697 4.78343V15.1558H12.6563V4.78343C12.1199 4.74681 11.5809 4.72851 11.0445 4.72851H11.0261C10.4898 4.72851 9.95336 4.74943 9.41697 4.78343ZM9.41697 3.23777H12.6563V0H9.41697V3.23777ZM22.0706 7.50598L22.0654 7.51383L19.9748 15.1558H16.6622L18.1641 8.69595C16.8715 8.23304 15.4298 7.89305 13.9593 7.68905L14.255 4.95081C17.2666 5.35357 20.1082 6.27678 22.068 7.50598M2.50404 16.7224L3.39628 19.9758H18.6717L19.5666 16.7224H2.50404ZM7.81302 4.95081L8.11131 7.68905C6.64081 7.89305 5.19909 8.23304 3.90651 8.69595L5.4058 15.1558H2.09586L0.0052331 7.51121L0 7.50337C1.9598 6.27678 4.80137 5.35357 7.81302 4.94819" fill="#080708"/>
</g>
<defs>
<clipPath id="clip0_3026_7705">
<rect width="148" height="47" fill="white"/>
</clipPath>
</defs>
</svg>
