<?xml version="1.0" encoding="UTF-8"?>
<svg id="Layer_1" data-name="Layer 1" xmlns="http://www.w3.org/2000/svg" viewBox="0 0 48 48">
  <defs>
    <style>
      .cls-1 {
        fill: #fff;
      }

      .cls-1, .cls-2 {
        stroke-width: 0px;
      }

      .cls-2 {
        fill: #4170ff;
      }
    </style>
  </defs>
  <ellipse class="cls-2" cx="32.3" cy="32.97" rx="9.14" ry="9.46"/>
  <path class="cls-2" d="M6.56,17.23V7.23h3.33v3.91c1.42-1.78,3.14-3.15,5.18-4.12s4.2-1.46,6.48-1.46c4.16,0,7.7,1.46,10.62,4.37s4.37,6.45,4.37,10.62h-3.33c0-3.25-1.13-6-3.39-8.27-2.26-2.26-5.02-3.39-8.27-3.39-1.92,0-3.71.44-5.37,1.33-1.67.89-3.07,2.11-4.21,3.66h4.58v3.33H6.56ZM6.65,22.22h3.41c.33,2.58,1.4,4.77,3.19,6.56,1.79,1.79,3.94,2.88,6.43,3.27l2,3.5c-3.83,0-7.19-1.27-10.08-3.81-2.89-2.54-4.54-5.71-4.96-9.52ZM23.8,25.14l-3.91-3.91v-6.86h3.33v5.53l2.33,2.33-1.75,2.92Z"/>
  <g>
    <path class="cls-1" d="M34.04,29.78l-.16-.14-.14.16c-.11.13-.24.29-.48.57l-.14.17.16.14c.29.24.57.5.85.78,2.28,2.28,3.18,4.79,2.47,5.51-.15.15-.41.24-.74.24-.49,0-1.12-.18-1.81-.52l-.19-.09-.21.42c-.05.1-.11.22-.22.44l-.1.19.19.1c.87.42,1.65.64,2.33.64s1.18-.2,1.57-.58c1.34-1.34.28-4.43-2.47-7.17-.3-.3-.61-.58-.92-.84Z"/>
    <path class="cls-1" d="M35.8,34.42l.14-.16-.22-.19c-.13-.12-.27-.24-.52-.44l-.16-.13-.13.16c-.23.28-.5.56-.78.84-1.87,1.87-3.74,2.71-4.77,2.71-.33,0-.58-.08-.74-.24-.4-.4-.29-1.37.28-2.55l.1-.2-.21-.09c-.32-.14-.36-.16-.43-.2-.05-.03-.1-.06-.23-.12l-.2-.1-.1.2c-.82,1.69-.84,3.11-.05,3.9.39.39.91.58,1.57.58,1.58,0,3.73-1.17,5.61-3.05.3-.3.59-.61.84-.91Z"/>
    <path class="cls-1" d="M31.16,36.17l.16.14.76-.9-.17-.14c-.29-.24-.57-.5-.84-.77-1.08-1.08-1.92-2.27-2.37-3.37-.41-.99-.44-1.78-.09-2.13.15-.15.41-.24.74-.24.49,0,1.12.18,1.81.52l.19.09.18-.33c.12-.22.15-.28.26-.54l.08-.19-.18-.09c-.86-.42-1.65-.64-2.33-.64s-1.18.2-1.56.58c-1.34,1.34-.28,4.43,2.47,7.17.3.3.61.58.92.84Z"/>
    <path class="cls-1" d="M29.42,31.54l-.13.15.14.14c.11.11.18.18.24.24.1.11.17.17.31.29l.17.14.14-.16c.25-.3.52-.6.81-.88,1.87-1.87,3.74-2.71,4.77-2.71.33,0,.58.08.74.24.4.4.29,1.38-.28,2.55l-.1.2.36.17q.23.11.51.25l.2.1.1-.2c.83-1.69.85-3.11.05-3.9-.39-.39-.91-.58-1.57-.58-1.58,0-3.73,1.17-5.61,3.05-.3.3-.59.61-.85.92Z"/>
  </g>
</svg>