<?xml version="1.0" encoding="UTF-8"?>
<!DOCTYPE svg PUBLIC "-//W3C//DTD SVG 1.1//EN" "http://www.w3.org/Graphics/SVG/1.1/DTD/svg11.dtd">
<svg xmlns="http://www.w3.org/2000/svg" version="1.1" width="267px" height="267px" style="shape-rendering:geometricPrecision; text-rendering:geometricPrecision; image-rendering:optimizeQuality; fill-rule:evenodd; clip-rule:evenodd" xmlns:xlink="http://www.w3.org/1999/xlink">
<g><path style="opacity:0.948" fill="#416fff" d="M 114.5,59.5 C 151.916,57.5979 175.416,74.5979 185,110.5C 185.499,114.486 185.666,118.486 185.5,122.5C 180.833,122.5 176.167,122.5 171.5,122.5C 168.473,93.4732 152.473,77.4732 123.5,74.5C 107.23,74.6347 94.2305,81.1347 84.5,94C 90.4908,94.4995 96.4908,94.6662 102.5,94.5C 102.5,99.5 102.5,104.5 102.5,109.5C 88.5,109.5 74.5,109.5 60.5,109.5C 60.5,95.1667 60.5,80.8333 60.5,66.5C 65.1667,66.5 69.8333,66.5 74.5,66.5C 74.3341,71.5111 74.5007,76.5111 75,81.5C 85.5561,69.3091 98.7228,61.9758 114.5,59.5 Z"/></g>
<g><path style="opacity:0.911" fill="#416fff" d="M 115.5,96.5 C 120.5,96.5 125.5,96.5 130.5,96.5C 130.334,104.174 130.5,111.841 131,119.5C 134.349,122.682 137.516,126.015 140.5,129.5C 137.863,133.968 135.03,138.302 132,142.5C 126.667,137.167 121.333,131.833 116,126.5C 115.5,116.506 115.334,106.506 115.5,96.5 Z"/></g>
<g><path style="opacity:0.923" fill="#416fff" d="M 60.5,128.5 C 65.5,128.5 70.5,128.5 75.5,128.5C 79.4902,151.324 92.8236,165.157 115.5,170C 118.5,175 121.5,180 124.5,185C 94.4973,184.582 73.9973,170.415 63,142.5C 61.5251,137.937 60.6917,133.27 60.5,128.5 Z"/></g>
<g><path style="opacity:0.961" fill="#4371ff" d="M 159.5,134.5 C 191.088,133.588 206.588,148.921 206,180.5C 199.917,205.622 184.084,216.456 158.5,213C 142.813,208.646 133.313,198.479 130,182.5C 126.978,158.397 136.812,142.397 159.5,134.5 Z"/></g>
<g><path style="opacity:1" fill="#f5f7ff" d="M 184.5,169.5 C 188.794,156.303 184.794,153.137 172.5,160C 167.632,163.836 163.132,168.003 159,172.5C 157.647,171.315 156.48,169.981 155.5,168.5C 162.157,159.325 170.991,153.658 182,151.5C 191.132,152.471 194.132,157.471 191,166.5C 190.019,170.274 187.852,171.274 184.5,169.5 Z"/></g>
<g><path style="opacity:1" fill="#f8f9ff" d="M 184.5,169.5 C 187.167,173.501 189.334,177.834 191,182.5C 192.993,194.171 188.16,198.671 176.5,196C 172.726,195.019 171.726,192.852 173.5,189.5C 186.697,193.794 189.863,189.794 183,177.5C 180.046,172.61 176.379,168.277 172,164.5C 171.833,162 173,160.833 175.5,161C 178.369,164.038 181.369,166.871 184.5,169.5 Z"/></g>
<g><path style="opacity:1" fill="#f6f8ff" d="M 173.5,189.5 C 169.472,192.181 165.139,194.347 160.5,196C 149.333,198.167 144.833,193.667 147,182.5C 147.446,178.087 149.613,176.754 153.5,178.5C 148.612,172 146.445,164.666 147,156.5C 147.833,154.333 149.333,152.833 151.5,152C 156.111,150.993 160.445,151.66 164.5,154C 165.833,155.333 165.833,156.667 164.5,158C 160.889,157.373 157.223,157.04 153.5,157C 151.556,159.153 151.056,161.653 152,164.5C 155.435,171.688 160.102,178.021 166,183.5C 165.667,185.167 165.333,186.833 165,188.5C 170.088,185.417 174.588,181.583 178.5,177C 182.392,177.287 183.225,179.121 181,182.5C 178.521,184.966 176.021,187.299 173.5,189.5 Z"/></g>
<g><path style="opacity:1" fill="#5078ff" d="M 153.5,178.5 C 156.797,181.296 159.964,184.296 163,187.5C 163.688,188.332 163.521,188.998 162.5,189.5C 158.859,191.885 155.359,191.885 152,189.5C 151.744,185.754 152.244,182.087 153.5,178.5 Z"/></g>
</svg>
