<?xml version="1.0" encoding="UTF-8"?>
<!DOCTYPE svg PUBLIC "-//W3C//DTD SVG 1.1//EN" "http://www.w3.org/Graphics/SVG/1.1/DTD/svg11.dtd">
<svg xmlns="http://www.w3.org/2000/svg" version="1.1" width="267px" height="267px" style="shape-rendering:geometricPrecision; text-rendering:geometricPrecision; image-rendering:optimizeQuality; fill-rule:evenodd; clip-rule:evenodd" xmlns:xlink="http://www.w3.org/1999/xlink">
<g><path style="opacity:0.944" fill="#416fff" d="M 132.5,45.5 C 143.632,56.1312 154.632,66.9646 165.5,78C 154.653,89.0143 143.653,99.8476 132.5,110.5C 128.301,107.136 124.635,103.302 121.5,99C 124.785,94.712 128.452,90.712 132.5,87C 107.912,88.0456 90.7454,99.8789 81,122.5C 74.6912,142.343 77.8579,160.51 90.5,177C 86.6516,181.016 82.6516,184.849 78.5,188.5C 66.6962,175.199 60.6962,159.532 60.5,141.5C 62.615,106.423 80.2817,83.2561 113.5,72C 119.803,70.8139 126.136,69.8139 132.5,69C 128.651,65.3182 124.984,61.4849 121.5,57.5C 125.189,53.4799 128.855,49.4799 132.5,45.5 Z"/></g>
<g><path style="opacity:0.933" fill="#416fff" d="M 178.5,86.5 C 188.891,94.569 196.391,104.902 201,117.5C 209.119,143.73 204.619,167.397 187.5,188.5C 183.167,184.833 179.167,180.833 175.5,176.5C 188.939,157.814 191.106,137.814 182,116.5C 178.115,109.777 173.282,103.777 167.5,98.5C 171.189,94.4799 174.855,90.4799 178.5,86.5 Z"/></g>
<g><path style="opacity:0.971" fill="#416fff" d="M 129.5,113.5 C 149.782,113.297 162.282,122.964 167,142.5C 168.013,150.434 166.346,157.768 162,164.5C 156.667,171.833 151.333,179.167 146,186.5C 144.451,189.312 143.618,192.312 143.5,195.5C 136.833,195.5 130.167,195.5 123.5,195.5C 123.242,191.56 122.076,187.893 120,184.5C 113.22,176.384 107.22,167.718 102,158.5C 96.7029,141.392 101.536,127.892 116.5,118C 120.715,115.763 125.048,114.263 129.5,113.5 Z"/></g>
<g><path style="opacity:0.967" fill="#416fff" d="M 120.5,201.5 C 129.167,201.5 137.833,201.5 146.5,201.5C 146.5,207.5 146.5,213.5 146.5,219.5C 137.833,219.5 129.167,219.5 120.5,219.5C 120.5,213.5 120.5,207.5 120.5,201.5 Z"/></g>
</svg>
