<?xml version="1.0" encoding="UTF-8"?>
<svg id="Layer_1" data-name="Layer 1" xmlns="http://www.w3.org/2000/svg" viewBox="0 0 48 48">
  <defs>
    <style>
      .cls-1 {
        fill: #4170ff;
        stroke-width: 0px;
      }
    </style>
  </defs>
  <path class="cls-1" d="M10.95,37.27c-1.3-1.52-2.31-3.23-3.03-5.12-.71-1.89-1.07-3.9-1.07-6.03,0-4.76,1.67-8.81,5-12.15,3.33-3.33,7.38-5,12.15-5h.38l-3.05-3.05,2.67-2.67,7.62,7.62-7.62,7.62-2.72-2.72,3-3h-.29c-3.68,0-6.83,1.3-9.43,3.91-2.6,2.6-3.91,5.75-3.91,9.43,0,1.62.26,3.14.79,4.57.52,1.43,1.26,2.72,2.22,3.86l-2.72,2.72ZM21.89,38.93c0-.87-.29-1.74-.88-2.59-.59-.85-1.24-1.75-1.97-2.68-.72-.93-1.38-1.9-1.97-2.91-.59-1.01-.88-2.08-.88-3.22,0-2.2.78-4.08,2.34-5.64,1.56-1.56,3.44-2.34,5.64-2.34s4.08.78,5.64,2.34c1.56,1.56,2.34,3.44,2.34,5.64,0,1.14-.29,2.21-.88,3.22-.59,1.01-1.24,1.98-1.97,2.91-.72.93-1.38,1.82-1.97,2.68-.59.85-.88,1.72-.88,2.59h-4.56ZM37.05,37.27l-2.72-2.72c.95-1.14,1.69-2.43,2.22-3.86.52-1.43.79-2.95.79-4.57,0-2.1-.44-4.04-1.31-5.84s-2.07-3.3-3.6-4.5l2.72-2.72c1.84,1.59,3.3,3.5,4.38,5.74s1.62,4.68,1.62,7.31c0,2.13-.36,4.14-1.07,6.03-.71,1.89-1.72,3.6-3.03,5.12Z"/>
  <rect class="cls-1" x="21.1" y="40.53" width="6.01" height="4.21"/>
</svg>