<?xml version="1.0" encoding="UTF-8"?>
<svg id="Layer_1" data-name="Layer 1" xmlns="http://www.w3.org/2000/svg" viewBox="0 0 48 48">
  <defs>
    <style>
      .cls-1 {
        fill: #4170ff;
        stroke-width: 0px;
      }
    </style>
  </defs>
  <path class="cls-1" d="M8.22,42.21v-5.91h6.1l-5.02-16.44c-.89-.49-1.62-1.21-2.19-2.17-.57-.95-.86-1.97-.86-3.05,0-1.64.57-3.03,1.72-4.18s2.54-1.72,4.18-1.72c1.28,0,2.42.37,3.42,1.11,1,.74,1.7,1.68,2.09,2.83h6.3v-1.97c0-.56.19-1.03.57-1.4s.84-.57,1.4-.57c.3,0,.58.07.86.2s.52.33.71.59l3.35-3.15c.3-.3.65-.48,1.06-.57s.81-.02,1.21.17l7.68,3.54c.39.2.66.48.81.86s.14.75-.02,1.11c-.2.39-.48.65-.86.76s-.75.09-1.11-.07l-7.09-3.25-4.63,4.33v2.76l4.63,4.23,7.09-3.25c.36-.16.74-.18,1.13-.05s.67.38.84.74c.2.39.21.77.05,1.13s-.44.64-.84.84l-7.68,3.64c-.39.2-.8.25-1.21.17s-.76-.27-1.06-.57l-3.35-3.15c-.2.2-.43.38-.71.54s-.57.25-.86.25c-.56,0-1.03-.19-1.4-.57s-.57-.84-.57-1.4v-1.97h-6.3c-.1.26-.21.51-.32.74s-.27.48-.47.74l9.84,18.21h7.09v5.91H8.22ZM12.16,16.62c.56,0,1.03-.19,1.4-.57s.57-.84.57-1.4-.19-1.03-.57-1.4-.84-.57-1.4-.57-1.03.19-1.4.57-.57.84-.57,1.4.19,1.03.57,1.4.84.57,1.4.57Z"/>
</svg>