<?xml version="1.0" encoding="UTF-8"?>
<!DOCTYPE svg PUBLIC "-//W3C//DTD SVG 1.1//EN" "http://www.w3.org/Graphics/SVG/1.1/DTD/svg11.dtd">
<svg xmlns="http://www.w3.org/2000/svg" version="1.1" width="267px" height="267px" style="shape-rendering:geometricPrecision; text-rendering:geometricPrecision; image-rendering:optimizeQuality; fill-rule:evenodd; clip-rule:evenodd" xmlns:xlink="http://www.w3.org/1999/xlink">
<g><path style="opacity:0.956" fill="#416fff" d="M 163.5,56.5 C 165.857,56.3367 168.19,56.5034 170.5,57C 181.5,62 192.5,67 203.5,72C 208.268,75.7057 208.601,79.7057 204.5,84C 202.167,84.6667 199.833,84.6667 197.5,84C 188.083,79.6389 178.583,75.4723 169,71.5C 162.083,76.4121 155.749,82.0788 150,88.5C 149.333,92.1667 149.333,95.8333 150,99.5C 156.333,105.167 162.667,110.833 169,116.5C 179.332,111.056 189.999,106.39 201,102.5C 206.746,104.324 208.412,107.991 206,113.5C 193.583,120.46 180.749,126.46 167.5,131.5C 165.701,131.423 164.034,130.923 162.5,130C 157.351,125.685 152.351,121.185 147.5,116.5C 142.089,120.275 137.255,119.608 133,114.5C 132.501,110.514 132.334,106.514 132.5,102.5C 123.808,102.169 115.141,102.502 106.5,103.5C 104.182,106.416 104.016,109.416 106,112.5C 118.667,135.833 131.333,159.167 144,182.5C 154.084,183.486 164.251,183.819 174.5,183.5C 174.5,192.167 174.5,200.833 174.5,209.5C 138.5,209.5 102.5,209.5 66.5,209.5C 66.5,200.833 66.5,192.167 66.5,183.5C 74.8599,183.831 83.1932,183.498 91.5,182.5C 84.7696,160.475 77.9363,138.475 71,116.5C 57.6315,106.189 54.9648,93.5223 63,78.5C 73.9571,67.1929 86.1238,65.6929 99.5,74C 103.004,77.1845 105.337,81.0178 106.5,85.5C 115.167,85.5 123.833,85.5 132.5,85.5C 132.334,81.4862 132.501,77.4862 133,73.5C 137.212,67.7956 142.212,67.129 148,71.5C 153.062,66.2694 158.229,61.2694 163.5,56.5 Z M 80.5,86.5 C 85.772,85.5491 89.272,87.5491 91,92.5C 90.7299,99.2274 87.2299,102.061 80.5,101C 73.9848,96.087 73.9848,91.2536 80.5,86.5 Z"/></g>
</svg>
