<?xml version="1.0" encoding="UTF-8"?>
<svg id="Layer_1" data-name="Layer 1" xmlns="http://www.w3.org/2000/svg" viewBox="0 0 48 48">
  <defs>
    <style>
      .cls-1 {
        fill: #4170ff;
        stroke-width: 0px;
      }
    </style>
  </defs>
  <path class="cls-1" d="M44.31,35.17h-15.94c-.09,0-.17.09-.17.17v.65c0,.39-.3.74-.74.74h-6.89c-.39,0-.74-.35-.74-.74v-.61c0-.09-.09-.17-.17-.17H3.69c-.13,0-.26.13-.26.26v2.64c0,1.26,1.04,2.3,2.3,2.3h36.55c1.26,0,2.3-1.04,2.3-2.3v-2.64c0-.22-.13-.3-.26-.3Z"/>
  <path class="cls-1" d="M8.58,33.22h30.79c1.13,0,1.99-.91,1.99-1.99V12c0-2.43-1.99-4.42-4.42-4.42H11.01c-2.43,0-4.42,1.99-4.42,4.42v19.23c0,1.13.91,1.99,1.99,1.99ZM10.62,12c0-.22.17-.39.39-.39h25.98c.22,0,.39.17.39.39v17.24H10.62V12Z"/>
  <path class="cls-1" d="M20.75,18.89h1.73v3.51c0,.26.22.43.43.43h2.12c.26,0,.43-.22.43-.43v-3.51h1.73c.35,0,.56-.43.35-.69l-3.25-4.2c-.17-.22-.52-.22-.69,0l-3.25,4.2c-.17.26.04.69.39.69Z"/>
  <path class="cls-1" d="M28.81,24.43h-9.61c-.35,0-.61.26-.61.61v1.39c0,.35.26.61.61.61h9.61c.35,0,.61-.26.61-.61v-1.39c.04-.35-.26-.61-.61-.61Z"/>
</svg>