<?xml version="1.0" encoding="UTF-8"?>
<!DOCTYPE svg PUBLIC "-//W3C//DTD SVG 1.1//EN" "http://www.w3.org/Graphics/SVG/1.1/DTD/svg11.dtd">
<svg xmlns="http://www.w3.org/2000/svg" version="1.1" width="267px" height="267px" style="shape-rendering:geometricPrecision; text-rendering:geometricPrecision; image-rendering:optimizeQuality; fill-rule:evenodd; clip-rule:evenodd" xmlns:xlink="http://www.w3.org/1999/xlink">
<g><path style="opacity:0.967" fill="#416fff" d="M 76.5,63.5 C 113.835,63.3333 151.168,63.5 188.5,64C 196.7,65.1998 202.2,69.6998 205,77.5C 205.984,107.919 205.651,138.253 204,168.5C 203.097,169.701 201.931,170.535 200.5,171C 154.417,171.99 108.417,171.656 62.5,170C 61.5399,168.581 60.7065,167.081 60,165.5C 59.3333,136.833 59.3333,108.167 60,79.5C 62.1178,70.5471 67.6178,65.2137 76.5,63.5 Z M 78.5,81.5 C 114.502,81.3333 150.502,81.5 186.5,82C 187,82.5 187.5,83 188,83.5C 188.5,107.164 188.667,130.831 188.5,154.5C 151.5,154.5 114.5,154.5 77.5,154.5C 77.177,130.092 77.5103,105.759 78.5,81.5 Z"/></g>
<g><path style="opacity:0.914" fill="#416fff" d="M 130.5,90.5 C 131.873,90.3433 133.207,90.51 134.5,91C 139.12,96.4081 143.62,101.908 148,107.5C 148.72,109.112 148.554,110.612 147.5,112C 144.854,112.497 142.187,112.664 139.5,112.5C 139.666,117.511 139.499,122.511 139,127.5C 134.934,128.464 130.767,128.797 126.5,128.5C 126.5,123.167 126.5,117.833 126.5,112.5C 123.813,112.664 121.146,112.497 118.5,112C 117.643,111.311 116.977,110.478 116.5,109.5C 121.191,103.148 125.858,96.815 130.5,90.5 Z"/></g>
<g><path style="opacity:0.979" fill="#416fff" d="M 110.5,134.5 C 125.5,134.5 140.5,134.5 155.5,134.5C 155.5,138.167 155.5,141.833 155.5,145.5C 140.496,145.667 125.496,145.5 110.5,145C 109.203,141.501 109.203,138.001 110.5,134.5 Z"/></g>
<g><path style="opacity:0.962" fill="#416fff" d="M 150.5,178.5 C 173.176,178.167 195.843,178.5 218.5,179.5C 220.115,186.006 219.615,192.34 217,198.5C 215.745,199.211 214.579,200.044 213.5,201C 159.833,201.667 106.167,201.667 52.5,201C 49.5719,199.74 47.7386,197.573 47,194.5C 46.5007,189.511 46.3341,184.511 46.5,179.5C 69.8333,179.5 93.1667,179.5 116.5,179.5C 116.261,181.467 116.594,183.301 117.5,185C 127.833,185.667 138.167,185.667 148.5,185C 149.23,182.846 149.897,180.679 150.5,178.5 Z"/></g>
</svg>
