<?xml version="1.0" encoding="UTF-8"?>
<!DOCTYPE svg PUBLIC "-//W3C//DTD SVG 1.1//EN" "http://www.w3.org/Graphics/SVG/1.1/DTD/svg11.dtd">
<svg xmlns="http://www.w3.org/2000/svg" version="1.1" width="267px" height="267px" style="shape-rendering:geometricPrecision; text-rendering:geometricPrecision; image-rendering:optimizeQuality; fill-rule:evenodd; clip-rule:evenodd" xmlns:xlink="http://www.w3.org/1999/xlink">
<g><path style="opacity:0.969" fill="#416fff" d="M 136.5,53.5 C 145.167,53.5 153.833,53.5 162.5,53.5C 162.667,81.8353 162.5,110.169 162,138.5C 153.667,146.833 145.333,155.167 137,163.5C 136.5,126.835 136.333,90.1682 136.5,53.5 Z"/></g>
<g><path style="opacity:0.954" fill="#416fff" d="M 94.5,86.5 C 103.167,86.5 111.833,86.5 120.5,86.5C 120.833,107.844 120.5,129.177 119.5,150.5C 115.515,147.016 111.682,143.349 108,139.5C 104.278,143.725 100.112,147.392 95.5,150.5C 94.5003,129.177 94.167,107.844 94.5,86.5 Z"/></g>
<g><path style="opacity:0.955" fill="#416fff" d="M 53.5,119.5 C 62.1667,119.5 70.8333,119.5 79.5,119.5C 79.6666,135.503 79.4999,151.503 79,167.5C 70.6667,175.833 62.3333,184.167 54,192.5C 53.5,168.169 53.3334,143.836 53.5,119.5 Z"/></g>
<g><path style="opacity:0.935" fill="#416fff" d="M 169.5,120.5 C 183.833,120.5 198.167,120.5 212.5,120.5C 212.5,134.5 212.5,148.5 212.5,162.5C 206.5,162.5 200.5,162.5 194.5,162.5C 194.665,158.818 194.499,155.152 194,151.5C 175.833,169.667 157.667,187.833 139.5,206C 138.5,206.667 137.5,206.667 136.5,206C 127.313,197.979 117.98,190.145 108.5,182.5C 98.3475,192.152 88.3475,201.986 78.5,212C 70.1467,212.832 61.8134,212.665 53.5,211.5C 71.1667,193.167 89.1667,175.167 107.5,157.5C 117.426,165.715 127.259,174.048 137,182.5C 151.833,167.667 166.667,152.833 181.5,138C 177.514,137.501 173.514,137.334 169.5,137.5C 169.5,131.833 169.5,126.167 169.5,120.5 Z"/></g>
</svg>
