<?xml version="1.0" encoding="UTF-8"?>
<svg id="Layer_1" data-name="Layer 1" xmlns="http://www.w3.org/2000/svg" viewBox="0 0 48 48">
  <defs>
    <style>
      .cls-1 {
        fill: #4170ff;
        stroke-width: 0px;
      }
    </style>
  </defs>
  <path class="cls-1" d="M20.64,3.36l3.84,3.84h-.48c-6,0-11.1,2.1-15.3,6.3-4.2,4.2-6.3,9.3-6.3,15.3,0,2.68.45,5.21,1.35,7.59.9,2.38,2.17,4.53,3.81,6.45l3.42-3.42c-1.2-1.44-2.13-3.06-2.79-4.86-.66-1.8-.99-3.72-.99-5.76,0-4.64,1.64-8.6,4.92-11.88,3.28-3.28,7.24-4.92,11.88-4.92h.36l-3.78,3.78,3.42,3.42,9.6-9.6L24,0l-3.36,3.36Z"/>
  <rect class="cls-1" x="21.6" y="44.4" width="4.8" height="3.6"/>
  <path class="cls-1" d="M43.56,19.59c-1.36-2.82-3.2-5.23-5.52-7.23l-3.42,3.42c1.92,1.52,3.43,3.41,4.53,5.67s1.65,4.71,1.65,7.35c0,2.04-.33,3.96-.99,5.76-.66,1.8-1.59,3.42-2.79,4.86l3.42,3.42c1.64-1.92,2.91-4.07,3.81-6.45s1.35-4.91,1.35-7.59c0-3.32-.68-6.39-2.04-9.21Z"/>
  <path class="cls-1" d="M24,21.6c-2.32,0-4.3.82-5.94,2.46-1.64,1.64-2.46,3.62-2.46,5.94,0,1.2.31,2.33.93,3.39.62,1.06,1.31,2.08,2.07,3.06.76.98,1.45,1.92,2.07,2.82s.93,1.81.93,2.73h4.8c0-.92.31-1.83.93-2.73s1.31-1.84,2.07-2.82c.76-.98,1.45-2,2.07-3.06.62-1.06.93-2.19.93-3.39,0-2.32-.82-4.3-2.46-5.94-1.64-1.64-3.62-2.46-5.94-2.46ZM22.97,34.91l-3.62-3.62,1.45-1.45,2.14,2.14,4.3-4.3,1.48,1.48-5.76,5.76Z"/>
</svg>