<?xml version="1.0" encoding="UTF-8"?>
<svg id="Layer_1" data-name="Layer 1" xmlns="http://www.w3.org/2000/svg" viewBox="0 0 48 48">
  <defs>
    <style>
      .cls-1 {
        fill: #4170ff;
        stroke-width: 0px;
      }
    </style>
  </defs>
  <path class="cls-1" d="M46.6,10.71c-.45-.45-1-.67-1.66-.67h-4.65v20.94H10.04v4.65c0,.66.22,1.21.67,1.66.45.45,1,.67,1.66.67h25.59l9.31,9.31V12.37c0-.66-.22-1.21-.67-1.66Z"/>
  <path class="cls-1" d="M33.31,26.33c.66,0,1.21-.22,1.66-.67.45-.45.67-1,.67-1.66V3.06c0-.66-.22-1.21-.67-1.66-.45-.45-1-.67-1.66-.67H3.06c-.66,0-1.21.22-1.66.67-.45.45-.67,1-.67,1.66v32.57l9.31-9.31h23.27ZM5.39,5.39h25.59v16.29H5.39V5.39Z"/>
  <path class="cls-1" d="M10.52,12.05c-.63,0-1.14.51-1.14,1.14s.51,1.14,1.14,1.14,1.14-.51,1.14-1.14-.51-1.14-1.14-1.14Z"/>
  <path class="cls-1" d="M15.58,12.05c-.63,0-1.14.51-1.14,1.14s.51,1.14,1.14,1.14,1.14-.51,1.14-1.14-.51-1.14-1.14-1.14Z"/>
  <path class="cls-1" d="M20.63,12.05c-.63,0-1.14.51-1.14,1.14s.51,1.14,1.14,1.14,1.14-.51,1.14-1.14-.51-1.14-1.14-1.14Z"/>
  <path class="cls-1" d="M25.69,12.05c-.63,0-1.14.51-1.14,1.14s.51,1.14,1.14,1.14,1.14-.51,1.14-1.14-.51-1.14-1.14-1.14Z"/>
</svg>