<?xml version="1.0" encoding="UTF-8"?>
<svg id="Layer_1" data-name="Layer 1" xmlns="http://www.w3.org/2000/svg" viewBox="0 0 48 48">
  <defs>
    <style>
      .cls-1 {
        fill: #4170ff;
        stroke-width: 0px;
      }
    </style>
  </defs>
  <path class="cls-1" d="M.69,38.5v-4.81h6.62l-.96-.84c-2.09-1.84-3.55-3.95-4.39-6.32-.84-2.37-1.26-4.75-1.26-7.16,0-4.45,1.33-8.41,4-11.88C7.36,4.02,10.84,1.72,15.13.6v5.05c-2.89,1.04-5.21,2.82-6.98,5.32-1.76,2.51-2.65,5.3-2.65,8.39,0,1.8.34,3.56,1.02,5.26.68,1.7,1.74,3.28,3.19,4.72l.6.6v-5.89h4.81v14.44H.69ZM43.82,16.84h-4.87c-.2-1.4-.63-2.75-1.29-4.03s-1.55-2.51-2.68-3.67l-.6-.6v5.89h-4.81V0h14.44v4.81h-6.62l.96.84c1.64,1.68,2.91,3.47,3.79,5.35.88,1.88,1.44,3.83,1.68,5.83ZM30.56,48l-.86-4.29c-.57-.24-1.11-.49-1.61-.75s-1.01-.58-1.54-.97l-4.15,1.29-2.86-4.87,3.29-2.86c-.1-.67-.14-1.29-.14-1.86s.05-1.19.14-1.86l-3.29-2.86,2.86-4.87,4.15,1.29c.52-.38,1.04-.7,1.54-.97s1.04-.51,1.61-.75l.86-4.29h5.73l.86,4.29c.57.24,1.11.5,1.61.79.5.29,1.01.64,1.54,1.07l4.15-1.43,2.86,5.01-3.29,2.86c.1.57.14,1.17.14,1.79s-.05,1.22-.14,1.79l3.29,2.86-2.86,4.87-4.15-1.29c-.52.38-1.04.7-1.54.97s-1.04.51-1.61.75l-.86,4.29h-5.73ZM33.42,39.41c1.57,0,2.92-.56,4.04-1.68s1.68-2.47,1.68-4.04-.56-2.92-1.68-4.04c-1.12-1.12-2.47-1.68-4.04-1.68s-2.92.56-4.04,1.68c-1.12,1.12-1.68,2.47-1.68,4.04s.56,2.92,1.68,4.04,2.47,1.68,4.04,1.68Z"/>
</svg>