<?xml version="1.0" encoding="UTF-8"?>
<svg id="Layer_1" data-name="Layer 1" xmlns="http://www.w3.org/2000/svg" viewBox="0 0 48 48">
  <defs>
    <style>
      .cls-1 {
        fill: #4170ff;
        stroke-width: 0px;
      }
    </style>
  </defs>
  <path class="cls-1" d="M.86,17.11c.64-4.73,2.74-8.67,6.3-11.81C10.72,2.16,14.95.58,19.87.58c2.71,0,5.25.52,7.61,1.55,2.36,1.03,4.42,2.45,6.16,4.24V.58h5.51v16.53h-16.53v-5.51h8.26c-1.33-1.65-2.93-2.98-4.79-3.99-1.86-1.01-3.94-1.52-6.23-1.52-3.31,0-6.22,1.04-8.75,3.13-2.53,2.09-4.11,4.72-4.75,7.89H.86ZM43.56,47.42l-12.12-12.12c-1.65,1.24-3.46,2.19-5.41,2.86-1.95.67-4.01,1-6.16,1-2.71,0-5.25-.52-7.61-1.55-2.36-1.03-4.42-2.45-6.16-4.24v5.79H.58v-16.53h16.53v5.51h-8.26c1.33,1.65,2.93,2.98,4.79,3.99,1.86,1.01,3.94,1.52,6.23,1.52,3.31,0,6.22-1.04,8.75-3.13s4.11-4.72,4.75-7.89h5.51c-.23,1.65-.64,3.2-1.24,4.65s-1.38,2.84-2.34,4.17l12.12,12.12-3.86,3.86Z"/>
</svg>