<?xml version="1.0" encoding="UTF-8"?>
<svg id="Layer_1" data-name="Layer 1" xmlns="http://www.w3.org/2000/svg" viewBox="0 0 48 48">
  <defs>
    <style>
      .cls-1 {
        fill: #4170ff;
      }
    </style>
  </defs>
  <path class="cls-1" d="M0,43.21v-6.72c0-1.36.34-2.61,1.02-3.75s1.62-2.01,2.82-2.61c2.4-1.2,4.89-2.12,7.47-2.76,2.58-.64,5.21-.96,7.89-.96,1,0,2,.07,3,.21s2,.31,3,.51v3.78c-1.8.88-3.25,2.04-4.35,3.48-1.1,1.44-1.65,3.32-1.65,5.64v3.18H0ZM24,43.21v-3.36c0-.96.25-1.85.75-2.67.5-.82,1.21-1.41,2.13-1.77,1.44-.6,2.93-1.05,4.47-1.35s3.09-.45,4.65-.45,3.11.15,4.65.45,3.03.75,4.47,1.35c.92.36,1.63.95,2.13,1.77.5.82.75,1.71.75,2.67v3.36h-24.01ZM36,31.2c-1.68,0-3.1-.58-4.26-1.74-1.16-1.16-1.74-2.58-1.74-4.26s.58-3.1,1.74-4.26c1.16-1.16,2.58-1.74,4.26-1.74s3.1.58,4.26,1.74c1.16,1.16,1.74,2.58,1.74,4.26s-.58,3.1-1.74,4.26c-1.16,1.16-2.58,1.74-4.26,1.74ZM19.2,24c-2.64,0-4.9-.94-6.78-2.82-1.88-1.88-2.82-4.14-2.82-6.78s.94-4.9,2.82-6.78c1.88-1.88,4.14-2.82,6.78-2.82s4.9.94,6.78,2.82c1.88,1.88,2.82,4.14,2.82,6.78s-.94,4.9-2.82,6.78c-1.88,1.88-4.14,2.82-6.78,2.82Z"/>
</svg>