<?xml version="1.0" encoding="UTF-8"?>
<svg id="Layer_1" data-name="Layer 1" xmlns="http://www.w3.org/2000/svg" viewBox="0 0 48 48">
  <defs>
    <style>
      .cls-1 {
        fill: #4170ff;
      }
    </style>
  </defs>
  <path class="cls-1" d="M.8,36.16v-3.19c0-1.45.74-2.63,2.23-3.55,1.49-.91,3.45-1.37,5.88-1.37.44,0,.86,0,1.27.03s.79.06,1.17.13c-.47.71-.83,1.45-1.06,2.23-.24.78-.35,1.59-.35,2.43v3.29H.8ZM11.84,36.16v-3.29c0-1.08.3-2.07.89-2.96.59-.9,1.43-1.68,2.51-2.36s2.37-1.18,3.88-1.52c1.5-.34,3.13-.51,4.89-.51s3.44.17,4.94.51c1.5.34,2.8.84,3.88,1.52,1.08.68,1.91,1.46,2.48,2.36s.86,1.88.86,2.96v3.29H11.84ZM38.08,36.16v-3.29c0-.88-.11-1.71-.33-2.48s-.55-1.5-.99-2.18c.37-.07.75-.11,1.14-.13s.79-.03,1.19-.03c2.43,0,4.39.45,5.88,1.34s2.23,2.09,2.23,3.57v3.19h-9.12ZM16.15,32.11h15.76c-.34-.68-1.28-1.27-2.81-1.77-1.54-.51-3.23-.76-5.09-.76s-3.56.25-5.09.76c-1.54.51-2.46,1.1-2.76,1.77ZM8.91,26.03c-1.11,0-2.07-.4-2.86-1.19s-1.19-1.75-1.19-2.86.4-2.11,1.19-2.89,1.75-1.17,2.86-1.17,2.11.39,2.89,1.17c.78.78,1.17,1.74,1.17,2.89s-.39,2.07-1.17,2.86c-.78.79-1.74,1.19-2.89,1.19ZM39.09,26.03c-1.11,0-2.07-.4-2.86-1.19s-1.19-1.75-1.19-2.86.4-2.11,1.19-2.89,1.75-1.17,2.86-1.17,2.11.39,2.89,1.17c.78.78,1.17,1.74,1.17,2.89s-.39,2.07-1.17,2.86c-.78.79-1.74,1.19-2.89,1.19ZM24,24c-1.69,0-3.12-.59-4.31-1.77-1.18-1.18-1.77-2.62-1.77-4.31s.59-3.17,1.77-4.33c1.18-1.17,2.62-1.75,4.31-1.75s3.17.58,4.33,1.75c1.17,1.17,1.75,2.61,1.75,4.33s-.58,3.12-1.75,4.31c-1.17,1.18-2.61,1.77-4.33,1.77ZM24,19.95c.57,0,1.06-.19,1.44-.58.39-.39.58-.87.58-1.44s-.19-1.06-.58-1.44c-.39-.39-.87-.58-1.44-.58s-1.06.19-1.44.58-.58.87-.58,1.44.19,1.06.58,1.44.87.58,1.44.58Z"/>
</svg>