<?xml version="1.0" encoding="UTF-8"?>
<svg id="Layer_1" data-name="Layer 1" xmlns="http://www.w3.org/2000/svg" viewBox="0 0 48 48">
  <defs>
    <style>
      .cls-1 {
        fill: #4170ff;
      }
    </style>
  </defs>
  <path class="cls-1" d="M9.14,46.29c-1.17,0-2.17-.42-3-1.25-.83-.83-1.25-1.83-1.25-3v-25.47c0-1.17.42-2.17,1.25-3,.83-.83,1.83-1.25,3-1.25h4.25c0-2.94,1.03-5.44,3.1-7.51,2.07-2.07,4.57-3.1,7.51-3.1s5.44,1.03,7.51,3.1,3.1,4.57,3.1,7.51h4.25c1.17,0,2.17.42,3,1.25.83.83,1.25,1.83,1.25,3v25.47c0,1.17-.42,2.17-1.25,3-.83.83-1.83,1.25-3,1.25H9.14ZM9.14,42.04h29.72v-25.47H9.14v25.47ZM24,29.31c2.94,0,5.44-1.03,7.51-3.1,2.07-2.07,3.1-4.57,3.1-7.51h-4.25c0,1.77-.62,3.27-1.86,4.51-1.24,1.24-2.74,1.86-4.51,1.86s-3.27-.62-4.51-1.86c-1.24-1.24-1.86-2.74-1.86-4.51h-4.25c0,2.94,1.03,5.44,3.1,7.51,2.07,2.07,4.57,3.1,7.51,3.1ZM17.63,12.32h12.74c0-1.77-.62-3.27-1.86-4.51-1.24-1.24-2.74-1.86-4.51-1.86s-3.27.62-4.51,1.86c-1.24,1.24-1.86,2.74-1.86,4.51ZM9.14,42.04v-25.47,25.47Z"/>
</svg>