<?xml version="1.0" encoding="UTF-8"?>
<svg id="Layer_1" data-name="Layer 1" xmlns="http://www.w3.org/2000/svg" viewBox="0 0 48 48">
  <defs>
    <style>
      .cls-1 {
        fill: #4170ff;
      }
    </style>
  </defs>
  <path class="cls-1" d="M15.35,36.98h17.3v-4.33H15.35v4.33ZM15.35,28.33h17.3v-4.33H15.35v4.33ZM11.02,45.63c-1.19,0-2.21-.42-3.06-1.27-.85-.85-1.27-1.87-1.27-3.06V6.7c0-1.19.42-2.21,1.27-3.06s1.87-1.27,3.06-1.27h17.3l12.98,12.98v25.95c0,1.19-.42,2.21-1.27,3.06s-1.87,1.27-3.06,1.27H11.02ZM26.16,17.51V6.7h-15.14v34.61h25.95v-23.79h-10.81ZM11.02,6.7v10.81V6.7v34.61V6.7Z"/>
</svg>