<?xml version="1.0" encoding="UTF-8"?>
<svg id="Layer_1" data-name="Layer 1" xmlns="http://www.w3.org/2000/svg" viewBox="0 0 48 48">
  <defs>
    <style>
      .cls-1 {
        fill: #4170ff;
      }
    </style>
  </defs>
  <path class="cls-1" d="M19.45,22.82c-2.6,0-4.83-.93-6.68-2.78-1.85-1.85-2.78-4.08-2.78-6.68s.93-4.83,2.78-6.68c1.85-1.85,4.08-2.78,6.68-2.78s4.83.93,6.68,2.78c1.85,1.85,2.78,4.08,2.78,6.68s-.93,4.83-2.78,6.68c-1.85,1.85-4.08,2.78-6.68,2.78ZM.54,41.73v-6.62c0-1.3.33-2.52,1-3.66s1.6-2.01,2.78-2.6c2.01-1.02,4.27-1.89,6.79-2.6,2.52-.71,5.3-1.06,8.33-1.06h.83c.24,0,.47.04.71.12-.32.71-.58,1.45-.8,2.22-.22.77-.38,1.57-.5,2.39h-.24c-2.8,0-5.31.35-7.53,1.06-2.23.71-4.05,1.42-5.47,2.13-.35.2-.64.47-.86.83s-.32.75-.32,1.18v1.89h14.89c.24.83.55,1.64.95,2.45s.83,1.57,1.3,2.27H.54ZM33.63,44.09l-.71-3.55c-.47-.2-.92-.4-1.33-.62s-.84-.48-1.27-.8l-3.43,1.06-2.36-4.02,2.72-2.36c-.08-.55-.12-1.06-.12-1.54s.04-.98.12-1.54l-2.72-2.36,2.36-4.02,3.43,1.06c.43-.32.86-.58,1.27-.8s.86-.42,1.33-.62l.71-3.55h4.73l.71,3.55c.47.2.92.41,1.33.65s.84.53,1.27.89l3.43-1.18,2.36,4.14-2.72,2.36c.08.47.12.97.12,1.48s-.04,1-.12,1.48l2.72,2.36-2.36,4.02-3.43-1.06c-.43.32-.86.58-1.27.8s-.86.42-1.33.62l-.71,3.55h-4.73ZM35.99,37c1.3,0,2.41-.46,3.34-1.39.93-.93,1.39-2.04,1.39-3.34s-.46-2.41-1.39-3.34-2.04-1.39-3.34-1.39-2.41.46-3.34,1.39-1.39,2.04-1.39,3.34.46,2.41,1.39,3.34c.93.93,2.04,1.39,3.34,1.39ZM19.45,18.09c1.3,0,2.41-.46,3.34-1.39.93-.93,1.39-2.04,1.39-3.34s-.46-2.41-1.39-3.34-2.04-1.39-3.34-1.39-2.41.46-3.34,1.39c-.93.93-1.39,2.04-1.39,3.34s.46,2.41,1.39,3.34,2.04,1.39,3.34,1.39Z"/>
</svg>