<?xml version="1.0" encoding="UTF-8"?>
<svg id="Layer_1" data-name="Layer 1" xmlns="http://www.w3.org/2000/svg" viewBox="0 0 48 48">
  <defs>
    <style>
      .cls-1 {
        fill: #4170ff;
      }
    </style>
  </defs>
  <path class="cls-1" d="M28.29,46.25c-.88,0-1.63-.31-2.25-.93-.62-.62-.93-1.37-.93-2.25v-14.83c0-.88.31-1.63.93-2.25.62-.62,1.37-.93,2.25-.93h14.83c.88,0,1.63.31,2.25.93s.93,1.37.93,2.25v14.83c0,.88-.31,1.63-.93,2.25-.62.62-1.37.93-2.25.93h-14.83ZM28.29,43.07h14.83v-1.7c-.88-1.09-1.96-1.97-3.23-2.62s-2.67-.98-4.18-.98-2.91.33-4.18.98-2.35,1.53-3.23,2.62v1.7ZM35.71,35.65c.88,0,1.63-.31,2.25-.93.62-.62.93-1.37.93-2.25s-.31-1.63-.93-2.25-1.37-.93-2.25-.93-1.63.31-2.25.93-.93,1.37-.93,2.25.31,1.63.93,2.25c.62.62,1.37.93,2.25.93ZM23.1,15.52c-2.05,0-3.8.72-5.24,2.17-1.45,1.45-2.17,3.2-2.17,5.24,0,1.7.48,3.18,1.43,4.45.95,1.27,2.21,2.15,3.76,2.65v-4.77c-.28-.28-.51-.64-.69-1.09s-.26-.86-.26-1.24c0-.88.31-1.63.93-2.25.62-.62,1.37-.93,2.25-.93.49,0,.94.1,1.32.29.39.19.72.45,1.01.77h4.77c-.46-1.55-1.33-2.83-2.62-3.81s-2.78-1.48-4.48-1.48ZM17.17,44.13l-.85-6.78c-.46-.18-.89-.39-1.3-.64s-.8-.51-1.19-.79l-6.3,2.65L1.7,28.5l5.46-4.13c-.04-.25-.05-.49-.05-.72v-1.43c0-.23.02-.47.05-.72l-5.46-4.13L7.53,7.31l6.3,2.65c.39-.28.79-.55,1.22-.79s.85-.46,1.27-.64l.85-6.78h11.65l.85,6.78c.46.18.89.39,1.3.64s.8.51,1.19.79l6.3-2.65,5.83,10.06-4.5,3.44h-5.35c-.04-.18-.07-.36-.11-.56s-.09-.38-.16-.56l4.56-3.44-2.07-3.6-5.24,2.22c-.78-.81-1.63-1.49-2.57-2.04-.94-.55-1.95-.96-3.05-1.24l-.69-5.61h-4.18l-.74,5.61c-1.09.28-2.11.7-3.05,1.24s-1.79,1.21-2.57,1.99l-5.24-2.17-2.07,3.6,4.56,3.39c-.18.53-.3,1.06-.37,1.59s-.11,1.09-.11,1.7c0,.57.04,1.11.11,1.64s.19,1.06.37,1.59l-4.56,3.44,2.07,3.6,5.24-2.22c.85.88,1.8,1.62,2.86,2.22,1.06.6,2.21.99,3.44,1.17v9.75h-3.71Z"/>
</svg>