<?xml version="1.0" encoding="UTF-8"?>
<svg id="Layer_1" data-name="Layer 1" xmlns="http://www.w3.org/2000/svg" viewBox="0 0 48 48">
  <defs>
    <style>
      .cls-1 {
        fill: #4170ff;
      }
    </style>
  </defs>
  <path class="cls-1" d="M2.08,16.63V4h4.21v4.95c1.79-2.25,3.97-3.98,6.55-5.21s5.31-1.84,8.18-1.84c5.26,0,9.74,1.84,13.42,5.53s5.53,8.16,5.53,13.42h-4.21c0-4.1-1.43-7.59-4.29-10.45-2.86-2.86-6.34-4.29-10.45-4.29-2.42,0-4.68.56-6.79,1.68-2.1,1.12-3.88,2.67-5.32,4.63h5.79v4.21H2.08ZM2.19,22.95h4.32c.42,3.26,1.76,6.03,4.03,8.29,2.26,2.26,4.97,3.64,8.13,4.13l2.53,4.42c-4.84,0-9.09-1.61-12.73-4.82-3.65-3.21-5.74-7.22-6.26-12.02ZM23.87,26.63l-4.95-4.95v-11.37h4.21v9.68l2.95,2.95-2.21,3.68ZM33.6,46.1l-.63-3.16c-.42-.18-.82-.36-1.18-.55s-.75-.43-1.13-.71l-3.05.95-2.1-3.58,2.42-2.1c-.07-.46-.11-.91-.11-1.37s.04-.91.11-1.37l-2.42-2.1,2.1-3.58,3.05.95c.39-.28.76-.52,1.13-.71s.76-.38,1.18-.55l.63-3.16h4.21l.63,3.16c.42.18.82.38,1.21.61s.75.48,1.11.76l3.05-1.05,2.1,3.68-2.42,2.1c.07.46.11.89.11,1.32s-.04.86-.11,1.32l2.42,2.1-2.1,3.58-3.05-.95c-.39.28-.76.52-1.13.71s-.76.38-1.18.55l-.63,3.16h-4.21ZM35.71,39.79c1.16,0,2.15-.41,2.97-1.24.82-.82,1.24-1.82,1.24-2.97s-.41-2.15-1.24-2.97c-.82-.82-1.82-1.24-2.97-1.24s-2.15.41-2.97,1.24c-.82.82-1.24,1.82-1.24,2.97s.41,2.15,1.24,2.97c.82.82,1.82,1.24,2.97,1.24Z"/>
</svg>