<?xml version="1.0" encoding="UTF-8"?>
<svg id="Layer_1" data-name="Layer 1" xmlns="http://www.w3.org/2000/svg" viewBox="0 0 48 48">
  <defs>
    <style>
      .cls-1 {
        fill: #fff;
        stroke-width: 0px;
      }
    </style>
  </defs>
  <path class="cls-1" d="M43.24,19.04c.01-.17.02-.35.02-.52,0-9.02-7.34-16.36-16.36-16.36-7.22,0-13.53,4.71-15.63,11.55-5.74.12-10.37,4.82-10.37,10.58,0,5.31,3.97,9.82,9.23,10.49.14.02.41.09.41.09h1.93v-18.29c0-1.59,1.3-2.89,2.89-2.89h19.25c1.59,0,2.89,1.3,2.89,2.89v18.29h1.93s.08-.03.12-.04c4.32-.55,7.57-4.25,7.57-8.6,0-2.87-1.47-5.58-3.87-7.19Z"/>
  <path class="cls-1" d="M32.78,15.52h-16c-1.4,0-2.53,1.13-2.53,2.53v25.27c0,1.4,1.13,2.53,2.53,2.53h16c1.4,0,2.53-1.13,2.53-2.53v-25.27c0-1.4-1.13-2.53-2.53-2.53ZM20.92,36.93c-.33.33-.73.49-1.19.49s-.86-.17-1.19-.49c-.33-.33-.49-.73-.49-1.19s.17-.86.49-1.19.73-.49,1.19-.49.86.17,1.19.49c.33.33.49.73.49,1.19s-.16.86-.49,1.19ZM20.92,31.87c-.33.33-.73.49-1.19.49s-.86-.16-1.19-.49-.49-.73-.49-1.19.17-.86.49-1.19c.33-.33.73-.49,1.19-.49s.86.17,1.19.49.49.73.49,1.19-.16.86-.49,1.19ZM20.92,26.82c-.33.33-.73.49-1.19.49s-.86-.16-1.19-.49-.49-.73-.49-1.19.17-.86.49-1.19c.33-.33.73-.49,1.19-.49s.86.16,1.19.49.49.73.49,1.19-.16.86-.49,1.19ZM25.97,36.93c-.33.33-.73.49-1.19.49s-.86-.17-1.19-.49c-.33-.33-.49-.73-.49-1.19s.16-.86.49-1.19c.33-.33.73-.49,1.19-.49s.86.17,1.19.49c.33.33.49.73.49,1.19s-.16.86-.49,1.19ZM25.97,31.87c-.33.33-.73.49-1.19.49s-.86-.16-1.19-.49c-.33-.33-.49-.73-.49-1.19s.16-.86.49-1.19.73-.49,1.19-.49.86.17,1.19.49.49.73.49,1.19-.16.86-.49,1.19ZM25.97,26.82c-.33.33-.73.49-1.19.49s-.86-.16-1.19-.49c-.33-.33-.49-.73-.49-1.19s.16-.86.49-1.19.73-.49,1.19-.49.86.16,1.19.49.49.73.49,1.19-.16.86-.49,1.19ZM31.02,36.93c-.33.33-.73.49-1.19.49s-.86-.17-1.19-.49c-.33-.33-.49-.73-.49-1.19s.16-.86.49-1.19.73-.49,1.19-.49.86.17,1.19.49.49.73.49,1.19-.17.86-.49,1.19ZM31.02,31.87c-.33.33-.73.49-1.19.49s-.86-.16-1.19-.49-.49-.73-.49-1.19.16-.86.49-1.19c.33-.33.73-.49,1.19-.49s.86.17,1.19.49c.33.33.49.73.49,1.19s-.17.86-.49,1.19ZM31.02,26.82c-.33.33-.73.49-1.19.49s-.86-.16-1.19-.49-.49-.73-.49-1.19.16-.86.49-1.19c.33-.33.73-.49,1.19-.49s.86.16,1.19.49c.33.33.49.73.49,1.19s-.17.86-.49,1.19Z"/>
</svg>