<?xml version="1.0" encoding="UTF-8"?>
<svg id="Layer_1" data-name="Layer 1" xmlns="http://www.w3.org/2000/svg" viewBox="0 0 48 48">
  <defs>
    <style>
      .cls-1 {
        fill: #fff;
        stroke-width: 0px;
      }
    </style>
  </defs>
  <path class="cls-1" d="M33.85,15.4c.29-.26.43-.64.43-1.12,0-1.03-.59-1.54-1.77-1.54h-1.6v3.06h1.6c.61,0,1.05-.13,1.34-.39Z"/>
  <path class="cls-1" d="M27.01,14.29c0-.49-.15-.88-.44-1.15-.29-.27-.73-.41-1.33-.41h-1.6v3.15h1.6c.59,0,1.03-.15,1.33-.44s.44-.68.44-1.16Z"/>
  <path class="cls-1" d="M43.51,36.21v-4.71c0-.83-.67-1.5-1.49-1.51h-16.51v-3h10.5c5.7,0,10.5-4.16,10.5-9.5,0-3.83-2.66-6.83-6.14-8.33-.23-5.14-4.8-9.17-10.35-9.17-3.02,0-5.56,1.65-7.55,3.71-1.4-.6-2.89-1.04-4.44-1.04-4.27,0-7.96,2.46-9.56,6.1-3.93,1.32-6.96,4.59-6.96,8.73,0,5.34,4.81,9.5,10.51,9.5h10.5v3H6c-.83,0-1.5.66-1.51,1.49h0v4.73C1.92,36.89,0,39.23,0,42,0,45.3,2.71,48,6,48s6-2.7,6-6c0-2.78-1.93-5.12-4.51-5.79v-3.21h15v3.21c-2.57.67-4.49,3.01-4.49,5.79,0,3.3,2.69,6,5.99,6s6-2.7,6-6c0-2.77-1.93-5.11-4.5-5.79v-3.22h15.01v3.21c-2.58.67-4.51,3.01-4.51,5.79,0,3.3,2.71,6,6,6s6-2.7,6-6c0-2.77-1.92-5.11-4.49-5.79ZM20.91,12.72h-3.39v2.78h3.03v.9h-3.03v2.87h3.39v.9h-4.48v-8.34h4.48v.9ZM29.82,11.84h2.69c.94,0,1.65.23,2.14.68.49.45.73,1.04.73,1.76s-.24,1.27-.71,1.73c-.47.46-1.2.69-2.17.69h-1.6v3.48h-1.09v-8.32ZM24.96,16.76h-1.31v3.4h-1.09v-8.32h2.69c.63,0,1.16.11,1.59.32.43.22.76.51.97.87.22.37.32.78.32,1.25,0,.57-.16,1.08-.5,1.52s-.83.73-1.49.87l2.09,3.49h-1.3l-1.98-3.4Z"/>
</svg>