<?xml version="1.0" encoding="UTF-8"?>
<svg id="Layer_1" data-name="Layer 1" xmlns="http://www.w3.org/2000/svg" viewBox="0 0 48 48">
  <defs>
    <style>
      .cls-1 {
        fill: #fff;
        stroke-width: 0px;
      }
    </style>
  </defs>
  <g>
    <path class="cls-1" d="M35.92,18.83c.82,0,1.52.29,2.1.88s.88,1.28.88,2.1v17.88c0,.82-.29,1.52-.88,2.1s-1.28.88-2.1.88h-7.45v-2.98h7.45v-17.88H12.08v17.88h18.69v2.98H12.08c-.82,0-1.52-.29-2.1-.88-.58-.58-.88-1.28-.88-2.1v-17.88c0-.82.29-1.52.88-2.1s1.28-.88,2.1-.88h23.84ZM24,37.44l-5.84-5.84,1.64-1.64,3.04,3.04v-11.46s2.34,0,2.34,0v11.46s3.04-3.04,3.04-3.04l1.64,1.64-5.84,5.84Z"/>
    <rect class="cls-1" x="15.75" y="44.23" width="16.49" height="3.77" rx="1.1" ry="1.1"/>
  </g>
  <path class="cls-1" d="M22.97,16.54h-4.65c-1.57,0-2.91-.54-4.02-1.63-1.11-1.09-1.67-2.41-1.67-3.98,0-1.34.4-2.54,1.21-3.59.81-1.05,1.87-1.72,3.18-2.02.43-1.59,1.29-2.87,2.58-3.85,1.29-.98,2.76-1.47,4.39-1.47,2.02,0,3.73.7,5.13,2.11,1.4,1.4,2.11,3.11,2.11,5.13,1.19.14,2.18.65,2.96,1.54s1.18,1.93,1.18,3.11c0,1.29-.45,2.39-1.36,3.3s-2,1.36-3.3,1.36h-5.69v-7.39l1.65,1.6,1.45-1.45-4.14-4.14-4.14,4.14,1.45,1.45,1.65-1.6v7.39Z"/>
</svg>