<?xml version="1.0" encoding="UTF-8"?>
<svg id="Layer_1" data-name="Layer 1" xmlns="http://www.w3.org/2000/svg" viewBox="0 0 48 48">
  <defs>
    <style>
      .cls-1 {
        fill: #4170ff;
        stroke-width: 0px;
      }
    </style>
  </defs>
  <path class="cls-1" d="M12.84,44.79l-3.06-3.06,15.1-15.16,7.66,7.66,11.33-11.33,3.12,3.12-14.44,14.39-7.66-7.66-12.04,12.04ZM5.4,42.6c-1.2,0-2.23-.43-3.09-1.29-.86-.86-1.29-1.89-1.29-3.09V7.59c0-1.2.43-2.23,1.29-3.09.86-.86,1.89-1.29,3.09-1.29h30.64c1.2,0,2.23.43,3.09,1.29s1.29,1.89,1.29,3.09v9.19H5.4v25.82ZM5.4,12.4h30.64v-4.81H5.4v4.81ZM5.4,12.4v-4.81,4.81Z"/>
</svg>