<?xml version="1.0" encoding="UTF-8"?>
<svg id="Layer_1" data-name="Layer 1" xmlns="http://www.w3.org/2000/svg" viewBox="0 0 48 48">
  <defs>
    <style>
      .cls-1 {
        fill: #4170ff;
        stroke-width: 0px;
      }
    </style>
  </defs>
  <path class="cls-1" d="M5.81,12.63h36.37v-4.55H5.81v4.55ZM1.27,8.09c0-1.25.45-2.32,1.34-3.21.89-.89,1.96-1.34,3.21-1.34h36.37c1.25,0,2.32.45,3.21,1.34.89.89,1.34,1.96,1.34,3.21v13.64H5.81v13.64h9.32v4.55H5.81c-1.25,0-2.32-.45-3.21-1.34s-1.34-1.96-1.34-3.21V8.09ZM30.71,44.46l-9.66-9.66,3.18-3.18,6.48,6.37,12.84-12.84,3.18,3.3-16.03,16.03ZM5.81,8.09v27.28-10.23,6.42V8.09Z"/>
</svg>