<?xml version="1.0" encoding="UTF-8"?>
<svg id="Layer_1" data-name="Layer 1" xmlns="http://www.w3.org/2000/svg" viewBox="0 0 48 48">
  <defs>
    <style>
      .cls-1 {
        fill: #4170ff;
        stroke-width: 0px;
      }
    </style>
  </defs>
  <path class="cls-1" d="M21.91,40.76h-9.43c-3.18,0-5.89-1.1-8.14-3.3-2.25-2.2-3.38-4.89-3.38-8.06,0-2.72.82-5.15,2.46-7.28,1.64-2.13,3.79-3.49,6.44-4.08.87-3.21,2.62-5.81,5.24-7.8,2.62-1.99,5.59-2.98,8.9-2.98,4.08,0,7.55,1.42,10.39,4.27,2.85,2.85,4.27,6.31,4.27,10.39,2.41.28,4.41,1.32,6,3.12s2.38,3.9,2.38,6.31c0,2.62-.92,4.84-2.75,6.68s-4.06,2.75-6.68,2.75h-11.52v-14.98l3.35,3.25,2.93-2.93-8.38-8.38-8.38,8.38,2.93,2.93,3.35-3.25v14.98Z"/>
</svg>