<?xml version="1.0" encoding="UTF-8"?>
<svg id="Layer_1" data-name="Layer 1" xmlns="http://www.w3.org/2000/svg" viewBox="0 0 48 48">
  <defs>
    <style>
      .cls-1 {
        fill: #4170ff;
        stroke-width: 0px;
      }
    </style>
  </defs>
  <path class="cls-1" d="M1.33,42.14v-4.53h6.18c-1.93-1.66-3.44-3.67-4.53-6.01s-1.64-4.87-1.64-7.59c0-4.23,1.28-7.96,3.85-11.19,2.57-3.23,5.82-5.36,9.75-6.38v4.76c-2.64.94-4.82,2.58-6.52,4.9-1.7,2.32-2.55,4.96-2.55,7.91,0,2.04.41,3.92,1.22,5.64.81,1.72,1.92,3.2,3.32,4.45v-5.55h4.53v13.6H1.33ZM26.27,42.14c-1.89,0-3.5-.66-4.82-1.98-1.32-1.32-1.98-2.93-1.98-4.82s.62-3.37,1.87-4.68c1.25-1.3,2.78-1.99,4.59-2.07.64-1.36,1.6-2.47,2.86-3.32,1.27-.85,2.69-1.28,4.28-1.28,2,0,3.73.65,5.19,1.96s2.33,2.92,2.64,4.85c1.59,0,2.95.55,4.08,1.64,1.13,1.1,1.7,2.42,1.7,3.97s-.55,2.94-1.64,4.05c-1.1,1.11-2.44,1.67-4.02,1.67h-14.74ZM32.84,21.73c-.26-1.55-.77-2.98-1.53-4.31s-1.68-2.49-2.78-3.51v5.55h-4.53V5.86h13.6v4.53h-6.18c1.62,1.44,2.96,3.12,4,5.04s1.71,4.02,2.01,6.29h-4.59Z"/>
</svg>