<svg xmlns="http://www.w3.org/2000/svg" version="1.1" xmlns:xlink="http://www.w3.org/1999/xlink" xmlns:svgjs="http://svgjs.dev/svgjs" width="1000" height="1000"><g clip-path="url(#SvgjsClipPath1053)"><rect width="1000" height="1000" fill="#ffffff"></rect><g transform="matrix(0.78125,0,0,0.78125,100,100)"><svg xmlns="http://www.w3.org/2000/svg" version="1.1" xmlns:xlink="http://www.w3.org/1999/xlink" xmlns:svgjs="http://svgjs.dev/svgjs" width="1024" height="1024"><svg width="1024" height="1024" viewBox="0 0 1024 1024" fill="none" xmlns="http://www.w3.org/2000/svg">
<rect width="1024" height="1024" fill="white"></rect>
<g clip-path="url(#clip0_4803_9332)">
<mask id="mask0_4803_9332" style="mask-type:luminance" maskUnits="userSpaceOnUse" x="2" y="272" width="1020" height="480">
<path d="M1022 272H2V752H1022V272Z" fill="white"></path>
</mask>
<g mask="url(#mask0_4803_9332)">
<path d="M1009.93 333.319C999.9 333.319 977.532 355.655 977.532 366.544C977.532 374.662 990.06 380.243 994.232 380.243C1000.67 380.243 1022 366.544 1022 347.778C1022 340.919 1017.12 333.319 1009.93 333.319ZM982.416 387.6C975.22 387.6 951.044 399.294 920.69 431.772C890.348 464.232 853.832 507.886 820.89 507.886C808.73 507.886 804.97 500.284 804.97 492.666C804.97 487.1 809.428 481.916 817.822 479.452C848.89 470.422 897.578 430.508 897.578 403.338C897.578 396.237 893.97 388.589 884.678 388.589C871.244 388.589 833.756 394.745 787.082 449.821C781.86 456.007 776.206 460.187 772.048 460.187C767.684 460.187 762.54 452.054 762.54 435.846C762.54 434.112 762.618 432.47 762.72 430.905C764.188 409.418 774.88 400.66 774.88 393.592C774.88 388.773 772.862 386.825 767.114 386.825C754.004 386.825 728.35 417.812 723.712 417.812C719.966 417.812 715.622 403.644 711.38 398.015C705.22 389.897 696.698 387.857 672.524 387.857C660.442 387.857 653.506 388.879 642.708 388.879C630.396 388.879 627.544 388.375 625.218 383.037C622.91 377.733 586.914 284.086 504.88 284.086C486.604 284.086 467.334 291.947 467.334 316.322C467.334 340.677 482.124 374.023 544.218 394.445C545.774 394.973 547.302 395.157 547.302 396.421C547.302 399.037 517.992 438.113 491.474 442.671C488.47 443.189 486.374 440.651 486.374 437.866C486.374 435.071 490.458 426.938 490.458 414.528C490.458 402.089 486.604 384.573 462.71 384.573C439.614 384.573 413.14 395.462 346.284 459.063C343.894 461.33 341.492 463.626 338.994 466.014C336.588 468.354 330.58 473.416 324.19 477.368C318.84 480.594 313.278 483.074 309.178 482.528C307.902 482.358 307.146 481.186 309.95 477.19C310.352 476.686 311.202 475.47 312.434 473.75C315.374 469.725 320.458 462.803 326.3 454.897C339.594 436.863 356.774 413.83 361.382 408.691C368.838 400.311 372.678 396.237 372.678 393.457C372.678 390.216 368.084 387.6 362.4 387.6C357.53 387.6 337.454 390.928 322.044 405.62C316.482 410.924 301.34 426.526 282.568 444.284C277.592 449.012 272.354 453.88 266.978 458.743C236.406 486.446 201.182 514.24 181.905 514.24C174.174 514.24 166.977 509.134 166.977 496.986C166.977 488.94 177.748 462.744 199.056 433.153C201.766 429.399 204.652 425.582 207.686 421.736C216.992 410.057 227.842 398.151 240.274 386.825C288.856 342.688 345.174 321.127 380.164 321.127C394.822 321.127 412.37 323.985 414.958 324.334C416.758 324.591 417.362 324.256 418.148 322.997C419.178 321.229 445.406 275.25 445.406 275.25C445.838 274.611 445.586 274.005 444.96 273.807C444.326 273.594 439.716 272 430.184 272C390.968 272 305.404 291.187 219.364 352.947C195.281 370.235 174.944 387.402 158.132 404.007C155.358 406.758 152.694 409.481 150.087 412.203C112.402 451.749 94.9572 487.588 94.9572 513.102C94.9572 545.624 125.744 549.684 141.845 549.684C184.374 549.684 203.264 530.326 211.662 530.326C220.042 530.326 206.654 550.036 194.005 557.864C88.6096 620.724 2 674.866 2 724.952C2 747.606 23.201 749.112 39.3214 749.112C55.481 749.112 134.324 739.14 255.036 554.518C260.69 545.838 270.012 540.834 278.95 534.478C287.87 528.124 316.636 507.386 322.338 507.352C328.024 507.324 327.808 509.774 327.61 512.298C327.282 515.93 323.434 524.006 323.434 533.78C323.434 543.604 333.54 554.978 349.994 554.978C386.654 554.978 413.416 529.218 435.392 505.942C447.84 492.758 458.734 480.382 469.026 473.962C473.666 471.061 478.176 469.356 482.662 469.356C486.452 469.356 487.872 471.013 487.872 473.386C487.872 473.586 487.842 473.996 487.7 474.558C486.64 479.94 480.862 500.208 480.552 514.332C480.552 514.73 480.518 515.122 480.518 515.504C480.518 531.072 485.76 553.38 522.448 553.38C542.8 553.38 561.35 542.602 577.19 526.922C594.342 510.002 608.288 487.376 617.854 466.513C626.99 446.503 632.124 428.134 632.124 417.982C632.124 415.778 632.86 413.113 636.96 413.113C641.044 413.113 652.49 414.329 657.518 414.804C663.03 415.351 670.246 419.745 670.246 429.883C670.246 436.301 665.96 446.929 659.564 459.354C648.102 481.52 629.856 509.376 616.76 529.054C611.984 536.242 607.884 542.326 605.082 546.626C605.082 546.626 601.66 550.686 606.806 550.686H654.788C656.854 550.686 658.902 549 660.63 546.626C661.214 545.808 666.112 538.416 672.386 528.932C684.452 510.656 701.568 484.716 702.476 483.374C703.83 481.34 705.882 479.984 707.93 479.984C715.494 479.984 706.236 498.928 734.344 498.928C742.232 498.928 750.042 494.962 752.122 494.962C754.14 494.962 754.42 496.724 754.42 498.26C754.42 501.274 750.568 508.282 749.934 518.042C749.876 519.35 749.81 520.858 749.782 522.436C749.688 535.466 752.938 556.358 775.42 556.358C819.722 556.358 874.852 500.938 877.502 500.542C879.304 500.256 879.612 500.996 879.612 502.746C879.612 504.742 873.368 526.68 808.594 604.318C743.774 681.98 712.402 712.44 712.402 729.166C712.402 745.92 726.808 752 733.48 752C740.166 752 768.47 750.478 835.836 642.392C883.928 565.222 906.636 517.616 932.122 479.272C942.386 463.883 957.348 443.538 968.01 433.274C988.07 413.995 993.216 403.837 993.216 399.294C993.216 393.365 989.612 387.6 982.416 387.6ZM862.708 418.224C864.126 418.224 866.128 419.319 866.128 421.004C866.128 432.441 835.852 459.518 826.22 459.518C824.248 459.518 822.26 458.138 822.26 455.9C822.26 446.977 852.556 418.224 862.708 418.224ZM63.1582 714.31C55.8976 714.31 52.599 710.386 52.599 703.618C52.599 681.39 130.888 623.078 140.166 623.002C142.556 622.986 143.2 623.902 143.2 625.786C143.293 643.608 86.1308 714.31 63.1582 714.31ZM443.924 442.429C434.666 449.012 431.69 451.08 432.614 456.631C433.124 459.659 437.592 460.492 438.146 465.874C438.302 467.409 437.64 469.478 436.374 471.88C432.202 479.862 421.308 491.556 410.584 500.484C401.89 507.778 393.338 513.272 388.794 513.374C380.394 513.572 377.808 508.844 377.454 504.586C377.144 501.104 377.944 497.136 379.594 492.894C382.632 485.05 388.626 476.2 395.96 467.409C416.778 442.492 448.626 417.948 456.666 417.754C461.658 417.628 463.74 419.73 463.878 421.857C464.634 430.629 451.876 436.791 443.924 442.429ZM508.488 327.739C508.488 316.956 515.894 310.756 526.36 310.756C576.082 310.756 600.846 380.514 600.846 384.927C600.846 387.16 599.52 388.39 595.956 388.39C577.794 388.39 508.488 361.724 508.488 327.739ZM589.35 470.102C577.794 490.888 561.384 509.924 541.612 509.968C535.496 510.002 531.54 506.718 531.352 500.938C531.152 493.93 535.958 483.772 542.49 473.736C552.062 459.019 565.296 444.56 571.63 440.801C582.232 434.475 588.054 428.227 587.932 424.671C587.808 421.096 580.258 416.325 579.474 412.794C578.61 408.749 581.922 406.545 589.3 408.4C599.888 411.031 607.56 411.365 607.792 419.062C608.008 425.31 601.258 448.649 589.35 470.102Z" fill="#1D162B"></path>
</g>
</g>
<defs>
<clipPath id="clip0_4803_9332">
<rect width="1020" height="480" fill="white" transform="translate(2 272)"></rect>
</clipPath>
<clipPath id="SvgjsClipPath1053"><rect width="1000" height="1000" x="0" y="0" rx="500" ry="500"></rect></clipPath></defs>
</svg></svg></g></g></svg>