<?xml version="1.0" encoding="UTF-8"?>
<svg id="Layer_1" data-name="Layer 1" xmlns="http://www.w3.org/2000/svg" viewBox="0 0 66.21 39.63">
  <defs>
    <style>
      .cls-1 {
        fill: none;
      }

      .cls-2 {
        fill: #8d0059;
        fill-rule: evenodd;
      }
    </style>
  </defs>
  <path class="cls-2" d="M56.02,11.96c-.03.3.16.51.42.61.32.13.76.12,1-.04.31-.21.67-.82.76-1.17.08-.31,0-.62-.2-.8-.46-.4-1.05.05-1.38.38-.3.3-.57.57-.61,1.03M48.37,16.7c.72-.04,1.12-.44,1.58-.95.33-.37.65-.76.45-1-.22-.26-1.04.61-1.19.74-.37.34-.69.71-.84,1.21ZM37.46,13.44c-.32-.77-.63-1.42-1.06-2.01-.34-.46-.79-.89-1.34-1.23-.5-.31-1.66-.68-2.14-.11-.43.51-.23,1.02.12,1.44.31.37.72.7,1.05.92,1.09.69,2.15.9,3.37.99ZM36.44,14.59c.1.21.22.49.32.7-.18.38-.58.65-.88.96-.29.3-.64.64-1.02,1.15-.21.29-.44.59-.53,1.02-.07.31-.02.59.17.7.29.16.67.06.92-.13.49-.37.85-.86,1.17-1.35.27-.41.42-.91.62-1.41.17-.41.24-.82.19-1.18-.03-.18-.2-.3-.41-.38-.18,0-.37-.06-.55-.06ZM14.86,25.47c-.22.62-.62,1.33-1.14,1.94-.31.36-1,1.42-1.71,1.99-.37.3-.74.46-1.06.32-.5-.22.2-1.19.37-1.4.61-.79,1.4-1.42,2.17-2.04.52-.42.83-.6,1.37-.81ZM31.88,17.61l-.47-.04-.45.13-.42.42-.61.77-.74.93-.83.7c-.33.22-.66.45-.99.67-.43.19-.84.41-1.28.58-.45.17-.92.19-1.38.13-.43-.06-.73-.28-.92-.64-.13-.25-.15-.57-.14-.9.01-.29.07-.58.11-.84-.26.16-.56.33-.81.49-.42.28-.83.55-1.25.83-.4.25-.78.52-1.12.83-.28.47-.55.94-.83,1.41-.21.31-.43.62-.64.93-.26.35-.51.7-.77,1.06l-.77.99c-1.09,1.48-2.53,2.75-3.97,3.84-.99.75-2.17,1.43-3.38,1.74-1.05.27-2.5.23-2.22-1.26.15-.8.68-1.61,1.22-2.21,1.52-1.71,3.52-2.97,5.44-4.19.92-.62,1.85-1.23,2.78-1.82.17-.14.28-.33.41-.51.19-.27.42-.49.43-.77,0-.09-.1-.04-.16,0-.31.22-.67.37-1.02.51-.5.2-1.01.31-1.5.42-.65.14-1.28.16-1.89.03-.69-.15-1.12-.6-1.28-1.31-.11-.52-.09-1.06.06-1.57.19-.62.5-1.21.85-1.73.47-.68.97-1.37,1.56-1.95.62-.61,1.26-1.21,1.94-1.79.73-.63,1.51-1.22,2.3-1.76.74-.5,1.51-.96,2.3-1.38.88-.46,1.8-.87,2.72-1.25,1.24-.51,2.44-.89,3.62-1.15.49-.11.96-.13,1.38-.06.27.04.36.17.45.26-.21.34-.43.68-.64,1.02-.27.42-.53.83-.8,1.25-.5-.01-1-.02-1.5-.03-.48-.01-1.09.05-1.82.22-.85.21-1.64.49-2.3.9-.82.49-1.48.96-1.95,1.38-.48.43-.98.84-1.44,1.28-.39.38-.73.8-1.06,1.22-.35.44-.73.86-1.02,1.34-.27.43-.49.89-.67,1.31-.16.37-.31.74-.38,1.12-.1.51.14.83.64.86.45.03.85-.09,1.22-.26.38-.17.72-.45,1.14-.76.77-.58,1.62-1.31,2.12-1.85.26-.28.62-.6.99-1,.29-.31.55-.65.83-.96.29-.32.63-.61.93-.92.28-.24.52-.44.8-.62.31-.2.61-.33.93-.35.32-.02.5.07.58.19.12.19.09.39-.1.64-.3.39-.6.79-.9,1.18-.31.41-.61.84-.93,1.25-.25.33-.52.63-.77.96-.21.28-.38.58-.58.86.2.03.44-.05.7-.22.38-.26.77-.5,1.14-.7.64-.89,1.49-1.78,2.36-2.47,1.08-.87,3.43-2.63,4.64-1.22.18.21.25.43.24.64-.03.59-.18,1.16-.28,1.73-.06.16.28.1.49.09.23.04,1.11-.78,1.15-.83.44-.48,1-1.06,1.4-1.44-.21-.11-.44-.22-.64-.32-.48-.23-1-.37-1.45-.65-.54-.34-1.03-.72-1.4-1.19-.26-.32-.46-.69-.59-1.12-.23-.74-.03-1.34.41-1.75.39-.36.96-.57,1.58-.59.62-.02,1.24.18,1.82.41.89.35,1.61.85,2.23,1.47.51.52.94,1.12,1.32,1.79.26.45.47.96.69,1.43,1.12,0,2.1-.09,3.19-.04.35.02.77.23,1.06.62.15.29.24.58.29.87.01.05.08.08.19.02.16-.24.31-.49.56-.75.36-.39.71-.64,1-.77.26-.11.54-.14.75-.04.17.08.31.3.23.5-.12.32-.34.56-.42.85-.1.35-.16.69-.19,1.04-.03.31-.06.62.1.87.11.18.23.24.5.28.4-.38.71-.76,1.09-1.13.48-.48,1.01-.94,1.61-1.35.48-.33.98-.58,1.47-.84.47-.26,1.34-.62,1.83-.2.2.17.24.54.02,1.07-.35.83-1.02,1.58-1.82,2.21-.85.67-1.84,1.18-2.72,1.49-.05.08-.11.16-.16.24-.1.28-.12.51-.06.68.1.32.24.45.44.5.33.08.68.03.94-.08.82-.35,1.6-1.02,2.25-1.61.55-.49,1.05-1.07,1.56-1.6.33-.34.68-.82,1-1.18.28-.32.56-.62.88-.9.25-.22.51-.42.78-.6.2-.13.41-.25.64-.32.25-.08.53-.09.74.02.23.12.34.45.12.84-.19.35-.51.62-.76.92-.35.44-.71.88-1.04,1.33-.28.37-.55.74-.8,1.13-.37.57-.71,1.16-1.05,1.75-.32.57-.6,1.15-.9,1.73-.29.56-.58,1.13-.88,1.69-.35.65-.72,1.3-1.09,1.95-.3.53-.6,1.06-.92,1.57-.4.63-.82,1.24-1.25,1.85-.34.49-.69.96-1.07,1.43-.31.39-.64.77-.98,1.13-.28.28-.55.58-.88.78-.33.2-.68.4-1.07.42-.31.02-.64-.11-.86-.32-.18-.17-.25-.47-.24-.72.01-.3.14-.59.3-.84.28-.44.67-.81,1-1.21.38-.45.77-.89,1.15-1.35.34-.42.67-.86,1.01-1.29.44-.56.89-1.12,1.33-1.69.31-.41.6-.83.9-1.25.42-.57.86-1.13,1.27-1.71.31-.43.59-.87.89-1.31.17-.32.33-.63.51-.94.07-.2.11-.5-.13-.2-.11.14-.27.25-.4.38-.57.45-1.14.89-1.73,1.3-.49.34-.99.65-1.53.93-.74.38-1.55.67-2.29.16-.5-.35-.65-.95-.6-1.58.05-.63.28-1.28.53-1.72-.42.26-.89.36-1.4.23-.38-.1-.6-.47-.77-.9-.06-.06-.14-.05-.25.04-.85,1.33-1.74,3-2.73,4.17h-2.52c.67-1.12,1.4-2.32,2.08-3.44.38-.68.75-1.34,1.14-2.02.16-.28.25-.56.29-.85.06-.42-.02-.66-.21-.81-.18-.14-.47-.25-.73-.27-.32-.03-.6,0-.93.01-.01.41-.08.82-.17,1.23-.11.49-.26.92-.45,1.32-.28.57-.51,1.18-.86,1.73-.32.5-.69.94-1.07,1.33-.42.44-.91.78-1.41,1.09-.39.24-.84.41-1.34.55-.51.09-.98.05-1.39-.11-.36-.14-.71-.47-.9-.9-.16-.35-.16-.74-.17-1.11,0-.43.12-.87.3-1.3.12-.28.25-.55.39-.83ZM29.28,17.67c-.1-.15-.17-.32-.19-.53-.03-.31.18-.56.51-.77.26-.18.57-.3.86-.49.12-.08.18-.27.07-.49-.06-.12-.21-.15-.39-.05-.91.5-1.91,1.51-2.49,2.36-.28.4-.52.78-.7,1.14-.16.31-.19.57-.02.79.1.13.32.21.54.09.4-.21.67-.53.98-.82.41-.37.7-.78.83-1.23Z"/>
  <rect class="cls-1" width="66.21" height="39.63"/>
</svg>