<?xml version="1.0" encoding="UTF-8"?>
<svg id="Layer_1" data-name="Layer 1" xmlns="http://www.w3.org/2000/svg" viewBox="0 0 48 48">
  <defs>
    <style>
      .cls-1 {
        fill: #000;
        stroke-width: 0px;
      }
    </style>
  </defs>
  <path class="cls-1" d="M36.11,47.59H11.89c-2.47,0-4.47-2.01-4.47-4.47V4.88C7.42,2.41,9.42.41,11.89.41h24.22c2.47,0,4.47,2.01,4.47,4.47v38.24c0,2.47-2.01,4.47-4.47,4.47ZM11.89,1.71c-1.75,0-3.17,1.42-3.17,3.17v38.24c0,1.75,1.42,3.17,3.17,3.17h24.22c1.75,0,3.17-1.42,3.17-3.17V4.88c0-1.75-1.42-3.17-3.17-3.17H11.89ZM31.65,34.85c-.88,0-1.64-.32-2.26-.94-.62-.62-.94-1.38-.94-2.26s.32-1.64.94-2.26c.62-.62,1.38-.94,2.26-.94s1.64.32,2.26.94c.62.62.94,1.38.94,2.26s-.32,1.64-.94,2.26h0c-.62.62-1.38.94-2.26.94ZM31.65,29.75c-.53,0-.97.18-1.34.56s-.56.81-.56,1.34.18.96.56,1.34c.75.75,1.93.75,2.68,0h0c.38-.38.56-.81.56-1.34s-.18-.96-.56-1.34c-.38-.38-.81-.56-1.34-.56ZM24,34.85c-.88,0-1.64-.32-2.26-.94-.62-.62-.94-1.38-.94-2.26s.32-1.64.94-2.26c.62-.62,1.38-.94,2.26-.94s1.64.32,2.26.94c.62.62.94,1.38.94,2.26s-.32,1.64-.94,2.26h0c-.62.62-1.38.94-2.26.94ZM24,29.75c-.53,0-.97.18-1.34.56-.38.38-.56.81-.56,1.34s.18.96.56,1.34c.75.75,1.93.75,2.68,0h0c.38-.38.56-.81.56-1.34s-.18-.97-.56-1.34-.81-.56-1.34-.56ZM16.35,34.85c-.88,0-1.64-.32-2.26-.94-.62-.62-.94-1.38-.94-2.26s.32-1.64.94-2.26c.62-.62,1.38-.94,2.26-.94s1.64.32,2.26.94c.62.62.94,1.38.94,2.26s-.32,1.64-.94,2.26c-.62.62-1.38.94-2.26.94ZM16.35,29.75c-.53,0-.97.18-1.34.56s-.56.81-.56,1.34.18.97.56,1.34c.75.75,1.93.75,2.68,0,.38-.38.56-.81.56-1.34s-.18-.97-.56-1.34-.81-.56-1.34-.56ZM31.65,27.2c-.88,0-1.64-.32-2.26-.94-.62-.62-.94-1.38-.94-2.26s.32-1.64.94-2.26c.62-.62,1.38-.94,2.26-.94s1.64.32,2.26.94c.62.62.94,1.38.94,2.26s-.32,1.64-.94,2.26h0c-.62.62-1.38.94-2.26.94ZM31.65,22.1c-.53,0-.97.18-1.34.56-.38.38-.56.81-.56,1.34s.18.97.56,1.34c.75.75,1.93.75,2.68,0,.38-.38.56-.82.56-1.34s-.18-.96-.56-1.34-.81-.56-1.34-.56ZM24,27.2c-.88,0-1.64-.32-2.26-.94-.62-.62-.94-1.38-.94-2.26s.32-1.64.94-2.26c.62-.62,1.38-.94,2.26-.94s1.64.32,2.26.94c.62.62.94,1.38.94,2.26s-.32,1.64-.94,2.26c-.62.62-1.38.94-2.26.94ZM24,22.1c-.53,0-.97.18-1.34.56s-.56.81-.56,1.34.18.96.56,1.34c.75.75,1.93.75,2.68,0,.38-.38.56-.81.56-1.34s-.18-.96-.56-1.34c-.38-.38-.81-.56-1.34-.56ZM16.35,27.2c-.88,0-1.64-.32-2.26-.94-.62-.62-.94-1.38-.94-2.26s.32-1.64.94-2.26c.62-.62,1.38-.94,2.26-.94s1.64.32,2.26.94c.62.62.94,1.38.94,2.26s-.32,1.64-.94,2.26h0c-.62.62-1.38.94-2.26.94ZM16.35,22.1c-.53,0-.97.18-1.34.56s-.56.81-.56,1.34.18.97.56,1.34c.75.75,1.93.75,2.68,0,.38-.38.56-.81.56-1.34s-.18-.97-.56-1.34-.81-.56-1.34-.56ZM31.65,19.55c-.88,0-1.64-.32-2.26-.94-.62-.62-.94-1.38-.94-2.26s.32-1.64.94-2.26c.62-.62,1.38-.94,2.26-.94s1.64.32,2.26.94c.62.62.94,1.38.94,2.26s-.32,1.64-.94,2.26h0c-.62.62-1.38.94-2.26.94ZM31.65,14.45c-.53,0-.97.18-1.34.56-.38.38-.56.81-.56,1.34s.18.97.56,1.34c.75.75,1.93.75,2.68,0,.38-.38.56-.82.56-1.34s-.18-.96-.56-1.34-.81-.56-1.34-.56ZM24,19.55c-.88,0-1.64-.32-2.26-.94-.62-.62-.94-1.38-.94-2.26s.32-1.64.94-2.26c.62-.62,1.38-.94,2.26-.94s1.64.32,2.26.94c.62.62.94,1.38.94,2.26s-.32,1.64-.94,2.26c-.62.62-1.38.94-2.26.94ZM24,14.45c-.53,0-.97.18-1.34.56s-.56.81-.56,1.34.18.96.56,1.34c.75.75,1.93.75,2.68,0,.38-.38.56-.81.56-1.34s-.18-.96-.56-1.34c-.38-.38-.81-.56-1.34-.56ZM16.35,19.55c-.88,0-1.64-.32-2.26-.94-.62-.62-.94-1.38-.94-2.26s.32-1.64.94-2.26c.62-.62,1.38-.94,2.26-.94s1.64.32,2.26.94c.62.62.94,1.38.94,2.26s-.32,1.64-.94,2.26h0c-.62.62-1.38.94-2.26.94ZM16.35,14.45c-.53,0-.97.18-1.34.56s-.56.81-.56,1.34.18.97.56,1.34c.75.75,1.93.75,2.68,0,.38-.38.56-.81.56-1.34s-.18-.97-.56-1.34-.81-.56-1.34-.56Z"/>
</svg>