<?xml version="1.0" encoding="UTF-8"?>
<svg id="Layer_1" data-name="Layer 1" xmlns="http://www.w3.org/2000/svg" viewBox="0 0 48 48">
  <defs>
    <style>
      .cls-1 {
        fill: #000;
        stroke-width: 0px;
      }
    </style>
  </defs>
  <path class="cls-1" d="M48.54,42.62h-24.56v-3.91c0-1.05.28-2.03.82-2.93.56-.92,1.36-1.58,2.38-1.98,1.42-.59,2.92-1.04,4.44-1.34,3.06-.59,6.21-.59,9.26,0,1.53.3,3.03.75,4.46,1.35,1.01.4,1.81,1.06,2.37,1.98.54.89.82,1.88.82,2.93v3.91ZM25.28,41.32h21.96v-2.61c0-.82-.21-1.55-.63-2.25-.41-.68-.98-1.15-1.75-1.45-1.36-.57-2.78-.99-4.22-1.28-2.89-.56-5.87-.56-8.76,0-1.44.28-2.86.71-4.21,1.27-.78.3-1.35.78-1.76,1.45-.43.7-.63,1.43-.63,2.25v2.61ZM20.63,42.62H.73v-7.16c0-1.43.36-2.77,1.08-3.97.72-1.21,1.73-2.14,3-2.78,2.36-1.18,4.84-2.09,7.37-2.72,2.54-.63,5.16-.95,7.8-.95.99,0,2,.07,3,.21.98.14,1.97.31,2.94.5l.52.1v4.6l-.36.18c-1.65.8-2.99,1.88-3.98,3.18-.97,1.27-1.47,2.98-1.47,5.07v3.73ZM2.03,41.32h17.3v-2.43c0-2.38.58-4.35,1.73-5.86,1.05-1.37,2.42-2.51,4.08-3.38v-2.73c-.78-.15-1.57-.28-2.35-.39-.93-.13-1.88-.2-2.82-.2-2.53,0-5.05.31-7.49.91-2.44.61-4.83,1.49-7.1,2.62-1.06.53-1.87,1.28-2.47,2.28-.59,1-.9,2.11-.9,3.3v5.86ZM36.26,31c-1.8,0-3.34-.63-4.59-1.88s-1.88-2.79-1.88-4.59.63-3.34,1.88-4.59,2.79-1.88,4.59-1.88,3.34.63,4.59,1.88,1.88,2.79,1.88,4.59-.63,3.34-1.88,4.59-2.79,1.88-4.59,1.88ZM36.26,19.37c-1.46,0-2.66.49-3.67,1.5s-1.5,2.21-1.5,3.67.49,2.66,1.5,3.67,2.21,1.5,3.67,1.5,2.66-.49,3.67-1.5,1.5-2.21,1.5-3.67-.49-2.66-1.5-3.67-2.21-1.5-3.67-1.5ZM19.98,24.02c-2.73,0-5.09-.98-7.03-2.92-1.94-1.94-2.92-4.3-2.92-7.03s.98-5.09,2.92-7.03c1.94-1.94,4.3-2.92,7.03-2.92s5.09.98,7.03,2.92c1.94,1.94,2.92,4.3,2.92,7.03s-.98,5.09-2.92,7.03-4.3,2.92-7.03,2.92ZM19.98,5.41c-2.4,0-4.4.83-6.11,2.54-1.71,1.71-2.54,3.71-2.54,6.11s.83,4.4,2.54,6.11c1.71,1.71,3.71,2.54,6.11,2.54s4.4-.83,6.11-2.54,2.54-3.71,2.54-6.11-.83-4.4-2.54-6.11c-1.71-1.71-3.71-2.54-6.11-2.54Z"/>
</svg>