<?xml version="1.0" encoding="UTF-8"?>
<svg id="Layer_1" data-name="Layer 1" xmlns="http://www.w3.org/2000/svg" viewBox="0 0 48 48">
  <defs>
    <style>
      .cls-1 {
        fill: #000;
        stroke-width: 0px;
      }
    </style>
  </defs>
  <path class="cls-1" d="M32.39,46.57H.14v-6.46h32.25v6.46ZM1.44,45.27h29.65v-3.86H1.44v3.86ZM32.39,36.26H.14v-6.46h25.08l.16.09c.95.58,1.97,1.07,3.04,1.46,1.07.39,2.22.67,3.41.84l.56.08v3.99ZM1.44,34.96h29.65v-1.56c-1.09-.18-2.13-.46-3.12-.82-1.09-.4-2.14-.89-3.12-1.48H1.44v3.86ZM34.32,28.52c-3.73,0-6.95-1.33-9.58-3.96-2.63-2.63-3.96-5.85-3.96-9.58s1.33-6.95,3.96-9.58c2.63-2.63,5.85-3.96,9.58-3.96s6.95,1.33,9.58,3.96c2.63,2.63,3.96,5.85,3.96,9.58s-1.33,6.95-3.96,9.58c-2.63,2.63-5.85,3.96-9.58,3.96ZM34.32,2.73c-3.37,0-6.29,1.21-8.66,3.58-2.38,2.38-3.58,5.29-3.58,8.66s1.21,6.29,3.58,8.66c2.38,2.38,5.29,3.58,8.66,3.58s6.29-1.21,8.66-3.58c2.38-2.38,3.58-5.29,3.58-8.66s-1.21-6.29-3.58-8.66c-2.38-2.38-5.29-3.58-8.66-3.58ZM20.76,25.94H.14v-6.46h17.37l.14.45c.29.92.63,1.81,1.01,2.64.37.82.82,1.6,1.35,2.34l.74,1.03ZM1.44,24.64h16.84c-.3-.5-.57-1.01-.8-1.53-.33-.74-.64-1.52-.91-2.33H1.44v3.86ZM32.51,21.7l-6.39-6.39,2.71-2.8,3.68,3.68,7.29-7.29,2.72,2.72-10.01,10.08ZM27.94,15.29l4.57,4.57,8.18-8.23-.89-.89-7.29,7.29-3.67-3.67-.9.93Z"/>
</svg>