<?xml version="1.0" encoding="UTF-8"?>
<svg id="Layer_1" data-name="Layer 1" xmlns="http://www.w3.org/2000/svg" viewBox="0 0 48 48">
  <defs>
    <style>
      .cls-1 {
        fill: #000;
        stroke-width: 0px;
      }
    </style>
  </defs>
  <path class="cls-1" d="M35.06,46.96H14.2c-1.32,0-2.47-.48-3.41-1.42-.94-.94-1.42-2.09-1.42-3.41v-8.99h5.47v2.09h19.56v-2.09h5.47v8.99c0,1.32-.48,2.47-1.42,3.41-.94.94-2.08,1.42-3.41,1.42ZM10.68,34.45v7.69c0,.98.34,1.79,1.03,2.49.7.7,1.51,1.03,2.49,1.03h20.86c.98,0,1.79-.34,2.49-1.03.7-.7,1.04-1.51,1.04-2.49v-7.69h-2.87v2.09H13.55v-2.09h-2.87ZM17.55,33.89l-10.52-10.52,10.52-10.52,3.82,3.96-6.56,6.56,6.56,6.56-3.82,3.96ZM8.86,23.37l8.67,8.67,2.02-2.09-6.58-6.58,6.58-6.58-2.02-2.09-8.67,8.67ZM31.71,33.89l-3.82-3.96,6.56-6.56-6.56-6.56,3.82-3.96,10.52,10.52-10.52,10.52ZM29.71,29.95l2.02,2.09,8.67-8.67-8.67-8.67-2.02,2.09,6.58,6.58-6.58,6.58ZM39.88,13.59h-5.47v-2.09H14.85v2.09h-5.47V4.6c0-1.32.48-2.47,1.42-3.41.94-.94,2.09-1.42,3.41-1.42h20.86c1.32,0,2.47.48,3.41,1.42.94.94,1.42,2.09,1.42,3.41v8.99ZM35.71,12.29h2.87v-7.69c0-.98-.34-1.79-1.04-2.49-.7-.7-1.51-1.04-2.49-1.04H14.2c-.98,0-1.79.34-2.49,1.04-.7.7-1.03,1.51-1.03,2.49v7.69h2.87v-2.09h22.16v2.09Z"/>
</svg>