<?xml version="1.0" encoding="UTF-8"?>
<svg id="Layer_1" data-name="Layer 1" xmlns="http://www.w3.org/2000/svg" viewBox="0 0 48 48">
  <defs>
    <style>
      .cls-1 {
        fill: #000;
        stroke-width: 0px;
      }
    </style>
  </defs>
  <path class="cls-1" d="M24,48.91l-7.38-7.27H6.36v-10.26L-.91,24l7.27-7.38V6.36h10.26L24-.91l7.38,7.27h10.26v10.26l7.27,7.38-7.27,7.38v10.26h-10.26l-7.38,7.27ZM7.66,40.34h9.49l6.85,6.75,6.85-6.75h9.49v-9.49l6.75-6.85-6.75-6.85V7.66h-9.49L24,.91l-6.85,6.75H7.66v9.49L.91,24l6.75,6.85v9.49ZM31.2,34.38l-7.2-4.37-7.2,4.37,1.91-8.18-6.4-5.54,8.43-.68,3.26-7.75,3.26,7.75,8.43.68-6.4,5.54,1.91,8.18ZM24,28.5l5.23,3.17-1.38-5.94,4.65-4.02-6.12-.49-2.37-5.63-2.37,5.63-6.12.49,4.65,4.02-1.38,5.94,5.23-3.17Z"/>
</svg>