<?xml version="1.0" encoding="UTF-8"?>
<svg id="Layer_1" data-name="Layer 1" xmlns="http://www.w3.org/2000/svg" viewBox="0 0 48 48">
  <defs>
    <style>
      .cls-1 {
        fill: #000;
        stroke-width: 0px;
      }
    </style>
  </defs>
  <path class="cls-1" d="M37.76,47.85l-13.76-4.59-13.76,4.59v-17.54c-1.35-1.54-2.42-3.31-3.18-5.26-.79-2.03-1.19-4.22-1.19-6.52,0-5.04,1.77-9.36,5.27-12.86S18.96.41,24,.41s9.36,1.77,12.86,5.27c3.5,3.5,5.27,7.82,5.27,12.86,0,2.29-.4,4.48-1.19,6.52-.76,1.95-1.83,3.72-3.18,5.26v17.54ZM24,41.89l12.46,4.15v-16.23l.17-.19c1.32-1.46,2.37-3.16,3.1-5.04.73-1.88,1.1-3.92,1.1-6.05,0-4.68-1.65-8.7-4.89-11.94-3.24-3.24-7.26-4.89-11.94-4.89s-8.7,1.65-11.94,4.89c-3.24,3.25-4.89,7.26-4.89,11.94,0,2.13.37,4.17,1.1,6.05.73,1.88,1.77,3.58,3.1,5.04l.17.19v16.23l12.46-4.15ZM24,32.3c-3.8,0-7.08-1.35-9.75-4.01-2.66-2.66-4.01-5.94-4.01-9.75s1.35-7.08,4.01-9.75c2.66-2.66,5.94-4.01,9.75-4.01s7.08,1.35,9.75,4.01,4.01,5.94,4.01,9.75-1.35,7.08-4.01,9.75c-2.66,2.66-5.94,4.01-9.75,4.01ZM24,6.08c-3.45,0-6.42,1.22-8.83,3.63-2.41,2.41-3.63,5.38-3.63,8.83s1.22,6.42,3.63,8.83c2.41,2.41,5.38,3.63,8.83,3.63s6.42-1.22,8.83-3.63c2.41-2.41,3.63-5.38,3.63-8.83s-1.22-6.42-3.63-8.83c-2.41-2.41-5.38-3.63-8.83-3.63ZM24,25.74c-1.99,0-3.71-.71-5.1-2.1s-2.1-3.11-2.1-5.1.71-3.71,2.1-5.1c1.39-1.4,3.11-2.1,5.1-2.1s3.71.71,5.1,2.1c1.4,1.39,2.1,3.11,2.1,5.1s-.71,3.71-2.1,5.1-3.11,2.1-5.1,2.1ZM24,12.63c-1.66,0-3.03.56-4.18,1.72s-1.72,2.53-1.72,4.18.56,3.03,1.72,4.18c1.16,1.16,2.53,1.72,4.18,1.72s3.02-.56,4.18-1.72c1.16-1.16,1.72-2.53,1.72-4.18s-.56-3.03-1.72-4.18c-1.16-1.16-2.53-1.72-4.18-1.72Z"/>
</svg>