<?xml version="1.0" encoding="UTF-8"?>
<svg id="Layer_1" data-name="Layer 1" xmlns="http://www.w3.org/2000/svg" viewBox="0 0 48 48">
  <defs>
    <style>
      .cls-1 {
        fill: #000;
        stroke-width: 0px;
      }
    </style>
  </defs>
  <path class="cls-1" d="M39.56,44.16h-5.8l-.75-3.74c-.37-.16-.73-.33-1.06-.51-.35-.18-.72-.41-1.09-.66l-3.62,1.12-2.9-4.94,2.87-2.49c-.05-.45-.08-.88-.08-1.28s.03-.83.08-1.28l-2.87-2.5,2.9-4.94,3.62,1.12c.37-.25.73-.47,1.09-.66.34-.18.69-.35,1.06-.51l.75-3.74h5.8l.75,3.74c.38.17.74.35,1.08.55.35.2.71.44,1.08.72l3.61-1.24,2.9,5.08-2.86,2.49c.05.39.07.8.07,1.22s-.02.83-.07,1.22l2.86,2.49-2.9,4.94-3.62-1.12c-.37.25-.73.47-1.09.66-.33.18-.69.35-1.06.51l-.75,3.74ZM34.82,42.86h3.67l.67-3.37.32-.13c.46-.19.88-.39,1.28-.6.38-.2.78-.45,1.19-.75l.26-.19,3.25,1.01,1.83-3.12-2.59-2.25.06-.36c.07-.43.11-.9.11-1.37s-.04-.94-.11-1.37l-.06-.36,2.6-2.26-1.84-3.21-3.27,1.13-.28-.23c-.4-.33-.8-.61-1.18-.83-.39-.22-.81-.43-1.26-.62l-.32-.13-.67-3.37h-3.67l-.67,3.37-.32.13c-.46.19-.88.39-1.28.6-.39.2-.79.45-1.19.75l-.26.19-3.25-1.01-1.83,3.12,2.58,2.25-.05.35c-.07.52-.11,1.01-.11,1.45s.04.93.11,1.45l.05.35-2.58,2.25,1.83,3.12,3.25-1.01.26.19c.41.3.81.55,1.19.75.4.21.83.41,1.28.6l.32.13.67,3.37ZM24.25,41.79H.47v-7.28c0-1.41.37-2.76,1.1-4,.73-1.25,1.76-2.21,3.05-2.86,2.04-1.04,4.37-1.93,6.93-2.65,2.57-.72,5.44-1.09,8.53-1.09h.83c.31,0,.61.05.92.15l.65.22-.26.64c-1.1,2.74-1.57,5.49-1.38,8.18.19,2.68,1.11,5.26,2.73,7.68l.68,1.01ZM1.77,40.49h20.09c-1.36-2.32-2.14-4.77-2.31-7.3-.19-2.63.21-5.32,1.17-7.98h-.64c-2.97,0-5.72.35-8.17,1.04-2.47.7-4.73,1.56-6.69,2.56-1.07.53-1.91,1.33-2.52,2.36-.61,1.04-.92,2.16-.92,3.34v5.98ZM36.65,37.05c-1.48,0-2.76-.53-3.81-1.58-1.05-1.05-1.58-2.33-1.58-3.81s.53-2.76,1.58-3.81c1.05-1.05,2.33-1.58,3.81-1.58s2.76.53,3.81,1.58c1.05,1.05,1.58,2.33,1.58,3.81s-.53,2.76-1.58,3.81-2.33,1.58-3.81,1.58ZM36.65,27.57c-1.13,0-2.08.39-2.89,1.2-.81.81-1.2,1.75-1.2,2.89s.39,2.08,1.2,2.89c.81.81,1.75,1.2,2.89,1.2s2.08-.39,2.89-1.2,1.2-1.75,1.2-2.89-.39-2.08-1.2-2.89c-.81-.81-1.75-1.2-2.89-1.2ZM20.07,22.83c-2.77,0-5.18-1-7.15-2.97-1.97-1.97-2.97-4.38-2.97-7.15s1-5.18,2.97-7.15c1.97-1.97,4.38-2.97,7.15-2.97s5.18,1,7.15,2.97c1.97,1.97,2.97,4.38,2.97,7.15s-1,5.18-2.97,7.15c-1.97,1.97-4.38,2.97-7.15,2.97ZM20.07,3.88c-2.45,0-4.49.85-6.23,2.59-1.75,1.74-2.59,3.78-2.59,6.23s.85,4.49,2.59,6.23,3.78,2.59,6.23,2.59,4.49-.85,6.23-2.59c1.74-1.75,2.59-3.78,2.59-6.23s-.85-4.49-2.59-6.23-3.78-2.59-6.23-2.59Z"/>
</svg>