<?xml version="1.0" encoding="UTF-8"?>
<svg id="Layer_1" data-name="Layer 1" xmlns="http://www.w3.org/2000/svg" viewBox="0 0 48 48">
  <defs>
    <style>
      .cls-1 {
        fill: #000;
        stroke-width: 0px;
      }
    </style>
  </defs>
  <path class="cls-1" d="M43.13,42.52h-12.21v-.65c0-4.05-.78-7.91-2.32-11.45-1.54-3.55-3.66-6.69-6.31-9.34-2.65-2.65-5.79-4.77-9.34-6.31-3.54-1.54-7.39-2.32-11.45-2.32h-.65v-2.96c0-1.44.52-2.7,1.55-3.73,1.03-1.03,2.28-1.55,3.73-1.55h37c1.44,0,2.7.52,3.73,1.55,1.03,1.03,1.55,2.28,1.55,3.73v27.75c0,1.44-.52,2.7-1.55,3.73-1.03,1.03-2.28,1.55-3.73,1.55ZM32.21,41.22h10.92c1.1,0,2.02-.38,2.81-1.17.79-.79,1.17-1.7,1.17-2.81V9.49c0-1.1-.38-2.02-1.17-2.81-.79-.79-1.7-1.17-2.81-1.17H6.13c-1.1,0-2.02.38-2.81,1.17-.79.79-1.17,1.7-1.17,2.81v1.67c4,.08,7.8.89,11.32,2.42,3.7,1.61,6.98,3.82,9.74,6.58,2.76,2.76,4.98,6.04,6.58,9.74,1.53,3.52,2.34,7.32,2.42,11.32ZM27.59,42.52h-5.92v-.65c0-2.79-.54-5.43-1.59-7.86-1.06-2.44-2.51-4.59-4.31-6.39s-3.95-3.25-6.39-4.31c-2.43-1.06-5.08-1.59-7.86-1.59h-.65v-5.92h.65c3.58,0,6.99.69,10.14,2.05,3.14,1.36,5.94,3.24,8.3,5.6,2.36,2.36,4.24,5.15,5.6,8.3,1.36,3.15,2.05,6.56,2.05,10.14v.65ZM22.96,41.22h3.33c-.08-3.17-.73-6.18-1.93-8.98-1.29-2.99-3.08-5.65-5.33-7.89-2.24-2.24-4.9-4.04-7.89-5.33-2.8-1.21-5.81-1.86-8.98-1.93v3.33c2.73.08,5.33.65,7.73,1.69,2.59,1.13,4.87,2.67,6.79,4.59,1.92,1.92,3.46,4.2,4.59,6.79,1.05,2.4,1.61,5,1.69,7.73ZM18.34,42.52h-5.92v-.65c0-3.01-1.07-5.6-3.19-7.72-2.15-2.15-4.67-3.19-7.72-3.19h-.65v-5.92h.65c4.67,0,8.68,1.65,11.94,4.9,3.25,3.25,4.9,7.27,4.9,11.94v.65ZM13.7,41.22h3.33c-.15-4.03-1.66-7.52-4.51-10.37-2.85-2.85-6.33-4.36-10.37-4.51v3.33c3.09.15,5.77,1.34,7.99,3.56,2.22,2.22,3.41,4.9,3.56,7.99ZM9.09,42.52H.86v-8.24h.65c2.1,0,3.9.74,5.37,2.21,1.47,1.47,2.21,3.28,2.21,5.37v.65ZM2.16,41.22h5.61c-.13-1.48-.73-2.73-1.8-3.8s-2.33-1.67-3.8-1.8v5.61ZM35.97,25.52l-6.04-3.51v-5.48l6.04,3.51,6.04-3.51v5.48l-6.04,3.51ZM31.05,21.36l4.92,2.86,4.92-2.86v-2.89l-4.92,2.86-4.92-2.86v2.89ZM35.97,18.58l-9.09-5.23,9.09-5.23,9.09,5.23-9.09,5.23ZM29.12,13.35l6.85,3.94,6.85-3.94-6.85-3.94-6.85,3.94Z"/>
</svg>