<?xml version="1.0" encoding="UTF-8"?>
<svg id="Layer_1" data-name="Layer 1" xmlns="http://www.w3.org/2000/svg" viewBox="0 0 48 48">
  <defs>
    <style>
      .cls-1 {
        fill: #000;
        stroke-width: 0px;
      }
    </style>
  </defs>
  <path class="cls-1" d="M24.63,46.96c-13.01,0-23.59-10.58-23.59-23.59S11.62-.23,24.63-.23s23.6,10.58,23.6,23.59-10.58,23.59-23.6,23.59ZM24.63,1.07C12.34,1.07,2.34,11.08,2.34,23.37s10,22.29,22.29,22.29,22.3-10,22.3-22.29S36.92,1.07,24.63,1.07ZM35.13,39.78H14.13v-5.24h21v5.24ZM15.43,38.48h18.4v-2.64H15.43v2.64ZM27.25,31.9h-5.24v-15.2l-4.47,4.43-3.67-3.67,10.77-10.77,10.77,10.77-3.67,3.67-4.47-4.43v15.2ZM23.31,30.6h2.64V13.59l5.77,5.71,1.84-1.84-8.93-8.93-8.93,8.93,1.84,1.84,5.77-5.71v17.01Z"/>
</svg>