<!DOCTYPE svg PUBLIC "-//W3C//DTD SVG 1.1//EN" "http://www.w3.org/Graphics/SVG/1.1/DTD/svg11.dtd">
<!-- Uploaded to: SVG Repo, www.svgrepo.com, Transformed by: SVG Repo Mixer Tools -->
<svg fill="#ffffff" width="800px" height="800px" viewBox="0 0 24 24" xmlns="http://www.w3.org/2000/svg" stroke="#ffffff">
<g id="SVGRepo_bgCarrier" stroke-width="0"/>
<g id="SVGRepo_tracerCarrier" stroke-linecap="round" stroke-linejoin="round"/>
<g id="SVGRepo_iconCarrier">
<path d="M21,6H12.618L10.9,2.553A1,1,0,0,0,10,2H3A1,1,0,0,0,2,3V21a1,1,0,0,0,1,1H21a1,1,0,0,0,1-1V7A1,1,0,0,0,21,6ZM20,20H4V4H9.382l1.723,3.447A1,1,0,0,0,12,8h8ZM12,10a1,1,0,0,1,1,1v2h2a1,1,0,0,1,0,2H13v2a1,1,0,0,1-2,0V15H9a1,1,0,0,1,0-2h2V11A1,1,0,0,1,12,10Z"/>
</g>
</svg>