<!DOCTYPE svg PUBLIC "-//W3C//DTD SVG 1.1//EN" "http://www.w3.org/Graphics/SVG/1.1/DTD/svg11.dtd">
<!-- Uploaded to: SVG Repo, www.svgrepo.com, Transformed by: SVG Repo Mixer Tools -->
<svg fill="#ffffff" height="800px" width="800px" version="1.1" id="Layer_1" xmlns="http://www.w3.org/2000/svg" xmlns:xlink="http://www.w3.org/1999/xlink" viewBox="0 0 500.673 500.673" xml:space="preserve" stroke="#ffffff">
<g id="SVGRepo_bgCarrier" stroke-width="0"/>
<g id="SVGRepo_tracerCarrier" stroke-linecap="round" stroke-linejoin="round"/>
<g id="SVGRepo_iconCarrier"> <g> <g> <path d="M480.068,340.673c-4.267-10.667-16-17.067-26.667-12.8l-105.6,37.333c-16-22.4-41.6-37.333-71.467-37.333 c-3.2,0-6.4,0-8.533,0l-98.133-252.8c-3.2-8.533-10.667-13.867-19.2-13.867H40.602c-11.733,0-21.333,9.6-21.333,21.333 s9.6,21.333,21.333,21.333h96l91.733,238.933c-23.467,14.933-38.4,41.6-38.4,71.467c0,48,38.4,86.4,86.4,86.4s86.4-38.4,86.4-86.4 c0-3.2,0-6.4,0-9.6l104.533-37.333C477.935,363.073,484.335,351.34,480.068,340.673z M276.335,459.073 c-24.533,0-44.8-20.267-44.8-44.8c0-24.533,20.267-44.8,44.8-44.8c24.533,0,44.8,19.2,44.8,44.8 C321.135,438.807,300.868,459.073,276.335,459.073z"/> </g> </g> <g> <g> <path d="M444.868,248.94L354.202,13.206c-4.267-10.667-16-16-26.667-11.733l-98.133,37.333c-5.333,2.133-9.6,5.333-11.733,10.667 c-2.133,5.333-2.133,10.667,0,16l91.733,235.734c3.2,8.533,10.667,13.867,19.2,13.867c2.133,0,4.267-1.067,7.467-2.133 l97.067-37.333c5.333-2.133,9.6-5.333,11.733-10.667C447.002,259.606,447.002,254.273,444.868,248.94z M339.268,267.073 L263.535,69.74l59.733-22.4l74.667,197.333L339.268,267.073z"/> </g> </g> </g>
</svg>