<!DOCTYPE svg PUBLIC "-//W3C//DTD SVG 1.1//EN" "http://www.w3.org/Graphics/SVG/1.1/DTD/svg11.dtd">
<!-- Uploaded to: SVG Repo, www.svgrepo.com, Transformed by: SVG Repo Mixer Tools -->
<svg fill="#ffffff" height="800px" width="800px" version="1.1" id="Layer_1" xmlns="http://www.w3.org/2000/svg" xmlns:xlink="http://www.w3.org/1999/xlink" viewBox="0 0 330 330" xml:space="preserve" stroke="#ffffff">
<g id="SVGRepo_bgCarrier" stroke-width="0"/>
<g id="SVGRepo_tracerCarrier" stroke-linecap="round" stroke-linejoin="round"/>
<g id="SVGRepo_iconCarrier"> <g id="XMLID_530_"> <g id="XMLID_531_"> <path id="XMLID_532_" d="M115,147.75c20.389,0,38.531-9.78,50-24.889c11.469,15.109,29.611,24.889,50,24.889 c34.601,0,62.75-28.149,62.75-62.75S249.601,22.25,215,22.25c-20.389,0-38.531,9.78-50,24.889 C153.531,32.03,135.389,22.25,115,22.25c-34.601,0-62.75,28.149-62.75,62.75S80.399,147.75,115,147.75z M215,52.25 c18.059,0,32.75,14.691,32.75,32.75s-14.691,32.75-32.75,32.75S182.25,103.059,182.25,85S196.941,52.25,215,52.25z M115,52.25 c18.059,0,32.75,14.691,32.75,32.75s-14.691,32.75-32.75,32.75S82.25,103.059,82.25,85S96.941,52.25,115,52.25z"/> </g> <g id="XMLID_536_"> <path id="XMLID_782_" d="M215,177.75c-17.373,0-34.498,3.942-50.022,11.44c-15.122-7.327-32.078-11.44-49.978-11.44 c-63.411,0-115,51.589-115,115c0,8.284,6.716,15,15,15h200h100c8.284,0,15-6.716,15-15C330,229.339,278.411,177.75,215,177.75z M31.325,277.75c7.106-39.739,41.923-70,83.675-70s76.569,30.261,83.675,70H31.325z M229.021,277.75 c-3.45-26.373-15.873-49.96-34.092-67.597c6.539-1.583,13.277-2.403,20.07-2.403c41.751,0,76.569,30.261,83.675,70H229.021z"/> </g> </g> </g>
</svg>