<?xml version="1.0" encoding="UTF-8"?>
<svg id="Layer_1" data-name="Layer 1" xmlns="http://www.w3.org/2000/svg" viewBox="0 0 48 48">
  <defs>
    <style>
      .cls-1 {
        fill: #4170ff;
        stroke-width: 0px;
      }
    </style>
  </defs>
  <path class="cls-1" d="M31.7,21.08l8.23-8.29-1.63-1.63-6.59,6.59-3.33-3.33-1.63,1.69,4.96,4.96ZM2.99,43.84v-4.67h28.01v4.67H2.99ZM33.34,27.5c-3.23,0-5.98-1.14-8.26-3.41s-3.41-5.03-3.41-8.26,1.14-5.98,3.41-8.26,5.03-3.41,8.26-3.41,5.98,1.14,8.26,3.41c2.28,2.28,3.41,5.03,3.41,8.26s-1.14,5.98-3.41,8.26c-2.28,2.28-5.03,3.41-8.26,3.41ZM2.99,25.17v-4.67h14.71c.27.86.58,1.67.93,2.45.35.78.78,1.52,1.28,2.22H2.99ZM2.99,34.5v-4.67h21.94c.89.54,1.85,1,2.86,1.37,1.01.37,2.08.63,3.21.79v2.51H2.99Z"/>
</svg>