<?xml version="1.0" encoding="UTF-8"?>
<svg id="Layer_1" data-name="Layer 1" xmlns="http://www.w3.org/2000/svg" viewBox="0 0 48 48">
  <defs>
    <style>
      .cls-1 {
        stroke-width: 3px;
      }

      .cls-1, .cls-2 {
        fill: none;
        stroke: #4170ff;
        stroke-miterlimit: 133.33;
      }

      .cls-2 {
        stroke-width: 2.8px;
      }
    </style>
  </defs>
  <path class="cls-2" d="M38.36,16.46l5.48,5.48-2.4,2.4-5.48-5.48c-.6.34-1.24.63-1.92.86-.68.23-1.41.34-2.18.34-2.14,0-3.96-.75-5.45-2.25-1.5-1.5-2.25-3.32-2.25-5.45s.75-3.96,2.25-5.45c1.5-1.5,3.32-2.25,5.45-2.25s3.96.75,5.45,2.25c1.5,1.5,2.25,3.32,2.25,5.45,0,.77-.11,1.5-.34,2.18s-.51,1.33-.86,1.92Z"/>
  <path class="cls-1" d="M34.3,25.21l4.97,4.97v9.26c0,1.07-.38,1.99-1.15,2.75s-1.68,1.15-2.75,1.15H8.07c-1.07,0-1.99-.38-2.75-1.15s-1.15-1.68-1.15-2.75V12.14c0-1.07.38-1.99,1.15-2.75s1.68-1.15,2.75-1.15h10.73c-.36.81-.6,1.65-.73,2.51-.13.86-.2,1.71-.2,2.56,0,3.54,1.25,6.5,3.75,8.87,2.5,2.37,5.48,3.56,8.92,3.56.62,0,1.24-.04,1.85-.12s1.25-.22,1.9-.41Z"/>
</svg>