<?xml version="1.0" encoding="UTF-8"?>
<svg id="Layer_1" data-name="Layer 1" xmlns="http://www.w3.org/2000/svg" viewBox="0 0 48 48">
  <defs>
    <style>
      .cls-1 {
        fill: #4170ff;
        stroke-width: 0px;
      }
    </style>
  </defs>
  <path class="cls-1" d="M8.7,46.94c-1.2,0-2.23-.43-3.09-1.28-.86-.86-1.28-1.88-1.28-3.09v-26.22c0-1.2.43-2.23,1.28-3.09.86-.86,1.88-1.28,3.09-1.28h4.37c0-3.02,1.07-5.6,3.2-7.73,2.13-2.13,4.71-3.2,7.73-3.2s5.6,1.07,7.73,3.2,3.2,4.71,3.2,7.73h4.37c1.2,0,2.23.43,3.09,1.28s1.28,1.88,1.28,3.09v26.22c0,1.2-.43,2.23-1.28,3.09-.86.86-1.88,1.28-3.09,1.28H8.7ZM8.7,42.57h30.59v-26.22H8.7v26.22ZM24,29.46c3.02,0,5.6-1.07,7.73-3.2,2.13-2.13,3.2-4.71,3.2-7.73h-4.37c0,1.82-.64,3.37-1.91,4.64-1.27,1.27-2.82,1.91-4.64,1.91s-3.37-.64-4.64-1.91c-1.27-1.27-1.91-2.82-1.91-4.64h-4.37c0,3.02,1.07,5.6,3.2,7.73,2.13,2.13,4.71,3.2,7.73,3.2ZM17.44,11.98h13.11c0-1.82-.64-3.37-1.91-4.64-1.27-1.27-2.82-1.91-4.64-1.91s-3.37.64-4.64,1.91c-1.27,1.27-1.91,2.82-1.91,4.64ZM8.7,42.57v-26.22,26.22Z"/>
</svg>