<?xml version="1.0" encoding="UTF-8"?>
<svg id="Layer_1" data-name="Layer 1" xmlns="http://www.w3.org/2000/svg" xmlns:xlink="http://www.w3.org/1999/xlink" viewBox="0 0 300 120">
  <defs>
    <style>
      .cls-1 {
        fill: url(#linear-gradient-3);
      }

      .cls-2 {
        fill: url(#linear-gradient-2);
      }

      .cls-3 {
        fill: url(#linear-gradient);
      }

      .cls-4 {
        fill: #333;
      }
    </style>
    <linearGradient id="linear-gradient" x1="53.11" y1="57.77" x2="114.42" y2="57.77" gradientTransform="translate(0 122) scale(1 -1)" gradientUnits="userSpaceOnUse">
      <stop offset="0" stop-color="#fcda00"/>
      <stop offset=".04" stop-color="#face0c"/>
      <stop offset=".15" stop-color="#f6af1c"/>
      <stop offset=".27" stop-color="#f39521"/>
      <stop offset=".39" stop-color="#f08023"/>
      <stop offset=".52" stop-color="#ef6f24"/>
      <stop offset=".65" stop-color="#ee6225"/>
      <stop offset=".8" stop-color="#ed5925"/>
      <stop offset=".99" stop-color="#ed5625"/>
      <stop offset="1" stop-color="#ed5625"/>
    </linearGradient>
    <linearGradient id="linear-gradient-2" x1="56.03" y1="37.07" x2="97.33" y2="37.07" gradientTransform="translate(0 122) scale(1 -1)" gradientUnits="userSpaceOnUse">
      <stop offset=".28" stop-color="#fff" stop-opacity="0"/>
      <stop offset=".33" stop-color="#ecebeb" stop-opacity=".01"/>
      <stop offset=".4" stop-color="#ccc9c9" stop-opacity=".03"/>
      <stop offset=".49" stop-color="#9f9b9b" stop-opacity=".05"/>
      <stop offset=".6" stop-color="#696565" stop-opacity=".07"/>
      <stop offset=".71" stop-color="#353232" stop-opacity=".1"/>
      <stop offset=".79" stop-color="#0a0608" stop-opacity=".12"/>
      <stop offset=".91" stop-color="#0a0608" stop-opacity=".23"/>
    </linearGradient>
    <linearGradient id="linear-gradient-3" x1="99.72" y1="38.71" x2="114.46" y2="38.71" gradientTransform="translate(0 122) scale(1 -1)" gradientUnits="userSpaceOnUse">
      <stop offset=".11" stop-color="#0a0608" stop-opacity=".23"/>
      <stop offset=".24" stop-color="#0a0608" stop-opacity=".2"/>
      <stop offset=".31" stop-color="#1a1718" stop-opacity=".18"/>
      <stop offset=".44" stop-color="#3b3737" stop-opacity=".14"/>
      <stop offset=".62" stop-color="#757070" stop-opacity=".08"/>
      <stop offset=".85" stop-color="#e4e2e2" stop-opacity="0"/>
      <stop offset=".88" stop-color="#fff" stop-opacity="0"/>
    </linearGradient>
  </defs>
  <path class="cls-3" d="M113.06,85.41c-1.13-1.47-2.94-2.72-4.36-3.68-3.06-2.04-5.89-3.51-8.95-4.64l-14.5-39.92c-.06-.28-.4-1.25-1.13-2.27-1.19-1.59-2.77-2.44-4.53-2.44s-3.4.85-4.53,2.44c-.74,1.02-1.08,1.98-1.13,2.27l-20.73,56.74c-.28.79.11,1.7.91,1.98.17.06.34.11.51.11.51,0,.96-.23,1.25-.62.06-.06.11-.11.11-.17,3.06-5.21,7.48-9.57,12.69-12.63,5.38-3.11,11.55-4.81,17.84-4.81,2.83,0,5.66.34,8.38,1.02.85.23,1.64.45,2.44.74l2.66,7.31c0,.06,1.08,2.83,1.81,4.76.91,2.27,2.55,3.74,4.64,4.25.45.11.91.17,1.3.17,1.7,0,3.4-.68,4.64-1.87,1.3-1.25,2.04-2.77,2.04-4.53.06-1.53-.45-3.06-1.36-4.19ZM67.19,79.92c-2.83,1.64-5.44,3.68-7.76,5.95l17.33-47.8s.28-.74.74-1.42c.51-.74,1.13-1.13,2.04-1.13s1.53.4,2.04,1.13c.51.68.74,1.36.74,1.42l13.7,37.77c-3.06-.79-6.23-1.19-9.46-1.19-6.85.06-13.53,1.87-19.37,5.27ZM110.34,91.87c-.91.85-2.15,1.25-3.23.96-1.08-.23-1.93-1.08-2.44-2.38-.74-1.87-1.76-4.53-1.81-4.7l-1.7-4.76c1.93.91,3.85,1.98,5.83,3.28,1.25.85,2.77,1.93,3.62,3,.79,1.02,1.36,3-.28,4.59Z"/>
  <path class="cls-2" d="M86.55,74.71c-6.8,0-13.53,1.81-19.37,5.21-2.83,1.64-5.44,3.68-7.76,5.95l-.45,1.25-2.94,8.04c3.06-5.21,7.48-9.57,12.69-12.57,5.38-3.11,11.55-4.81,17.84-4.81,2.83,0,5.66.34,8.38,1.02.85.23,1.64.45,2.44.74l-1.3-3.62c-3.11-.79-6.29-1.19-9.51-1.19Z"/>
  <path class="cls-1" d="M113.06,85.41c-1.13-1.47-2.94-2.72-4.36-3.68-3.06-2.04-5.89-3.51-8.95-4.64l1.42,3.91c1.93.91,3.85,1.98,5.83,3.28,1.25.85,2.77,1.93,3.62,3,.4.51.74,1.36.74,2.21h3.06c.06-1.42-.45-2.94-1.36-4.08Z"/>
  <path class="cls-4" d="M115.04,56.7h-1.64l-1.59-3.57h-7.36l-1.59,3.57h-1.59l6.12-13.59h1.42l6.23,13.59ZM108.19,44.92l-3.06,6.85h6.12l-3.06-6.85Z"/>
  <path class="cls-4" d="M126.93,50.98c0,.96-.11,1.87-.4,2.6-.28.74-.68,1.36-1.13,1.87-.51.51-1.08.85-1.76,1.13-.68.23-1.47.4-2.32.4s-1.59-.11-2.27-.4c-.68-.23-1.3-.62-1.76-1.13-.51-.51-.85-1.13-1.13-1.81-.28-.68-.4-1.59-.4-2.55v-7.87h1.53v7.76c0,1.47.34,2.6,1.08,3.34.74.79,1.76,1.19,3.06,1.19s2.21-.4,2.94-1.13c.74-.74,1.08-1.87,1.08-3.34v-7.81h1.53v7.76h-.06Z"/>
  <path class="cls-4" d="M134.46,56.7h-1.53v-12.06h-4.53v-1.42h10.59v1.42h-4.53v12.06Z"/>
  <path class="cls-4" d="M152.47,52.62c-.34.85-.79,1.59-1.42,2.21-.62.62-1.3,1.13-2.15,1.53-.85.4-1.81.57-2.83.57s-1.98-.17-2.77-.57c-.79-.4-1.59-.85-2.15-1.53-.57-.68-1.08-1.36-1.42-2.21-.34-.85-.51-1.76-.51-2.66,0-.96.17-1.81.51-2.66.34-.85.79-1.59,1.42-2.21.62-.62,1.3-1.13,2.15-1.53.85-.4,1.81-.57,2.83-.57s1.98.17,2.77.57c.85.4,1.59.85,2.15,1.53.62.62,1.08,1.36,1.42,2.21.34.85.51,1.76.51,2.66,0,.96-.17,1.81-.51,2.66ZM151,47.81c-.28-.68-.62-1.25-1.13-1.76-.45-.51-1.02-.91-1.7-1.19-.68-.28-1.36-.45-2.15-.45s-1.47.17-2.15.45c-.62.28-1.19.68-1.64,1.19-.45.51-.85,1.08-1.08,1.76-.28.68-.4,1.42-.4,2.15s.11,1.47.4,2.15c.28.68.62,1.25,1.13,1.76.45.51,1.02.91,1.7,1.19.62.28,1.36.45,2.15.45s1.47-.17,2.15-.45c.62-.28,1.19-.68,1.64-1.19.45-.51.85-1.08,1.08-1.76.23-.68.4-1.42.4-2.15s-.11-1.47-.4-2.15Z"/>
  <path class="cls-4" d="M161.65,53.02h-.06l-4.93-7.19v10.87h-1.47v-13.48h1.53l4.93,7.36,4.93-7.36h1.53v13.48h-1.59v-10.87l-4.87,7.19Z"/>
  <path class="cls-4" d="M183.28,56.7h-1.64l-1.59-3.57h-7.36l-1.59,3.57h-1.59l6.12-13.59h1.42l6.23,13.59ZM176.43,44.92l-3.11,6.91h6.12l-3-6.91Z"/>
  <path class="cls-4" d="M188.04,56.7h-1.53v-12.06h-4.53v-1.42h10.59v1.42h-4.53v12.06Z"/>
  <path class="cls-4" d="M195.74,43.22v13.48h-1.53v-13.48h1.53Z"/>
  <path class="cls-4" d="M211.25,52.62c-.34.85-.79,1.59-1.41,2.21-.62.62-1.3,1.13-2.15,1.53-.85.4-1.81.57-2.83.57s-1.98-.17-2.77-.57c-.79-.4-1.59-.85-2.15-1.53-.57-.68-1.08-1.36-1.42-2.21s-.51-1.76-.51-2.66c0-.96.17-1.81.51-2.66.34-.85.79-1.59,1.42-2.21.62-.62,1.3-1.13,2.15-1.53.85-.4,1.81-.57,2.83-.57s1.98.17,2.78.57c.85.4,1.59.85,2.15,1.53.62.62,1.08,1.36,1.41,2.21.34.85.51,1.76.51,2.66,0,.96-.17,1.81-.51,2.66ZM209.78,47.81c-.28-.68-.62-1.25-1.13-1.76-.45-.51-1.02-.91-1.7-1.19-.68-.28-1.36-.45-2.15-.45s-1.47.17-2.15.45c-.62.28-1.19.68-1.64,1.19-.45.51-.85,1.08-1.08,1.76-.28.68-.4,1.42-.4,2.15s.11,1.47.4,2.15c.28.68.62,1.25,1.13,1.76.45.51,1.02.91,1.7,1.19.62.28,1.36.45,2.15.45s1.47-.17,2.15-.45c.62-.28,1.19-.68,1.64-1.19.45-.51.85-1.08,1.08-1.76.23-.68.4-1.42.4-2.15s-.11-1.47-.4-2.15Z"/>
  <path class="cls-4" d="M223.83,43.22h1.47v13.48h-1.19l-8.72-11.04v11.04h-1.47v-13.48h1.42l8.49,10.82v-10.82Z"/>
  <path class="cls-4" d="M119.34,63.55h2.72l5.78,13.59h-3.11l-1.25-3h-5.66l-1.25,3h-3l5.78-13.59ZM122.46,71.48l-1.81-4.36-1.81,4.36h3.62Z"/>
  <path class="cls-4" d="M128.8,63.61h2.72l6.34,8.32v-8.32h2.94v13.48h-2.55l-6.51-8.55v8.55h-2.94v-13.48Z"/>
  <path class="cls-4" d="M146.81,71.82l-5.21-8.21h3.45l3.23,5.44,3.28-5.44h3.34l-5.15,8.15v5.38h-2.94v-5.32Z"/>
  <path class="cls-4" d="M155.25,63.61h3.17l2.78,9.12,3-9.17h2.55l3,9.17,2.77-9.12h3.12l-4.59,13.59h-2.61l-2.94-8.83-3.06,8.83h-2.6l-4.59-13.59Z"/>
  <path class="cls-4" d="M176.71,63.61h2.94v5.32h5.49v-5.32h2.94v13.48h-2.94v-5.44h-5.49v5.44h-2.94v-13.48Z"/>
  <path class="cls-4" d="M190.47,63.61h10.14v2.66h-7.25v2.72h6.34v2.66h-6.34v2.83h7.3v2.66h-10.25v-13.53h.06Z"/>
  <path class="cls-4" d="M202.53,63.61h6.17c1.7,0,3,.45,3.91,1.36.79.79,1.13,1.81,1.13,3.06v.06c0,1.08-.28,1.98-.79,2.66-.51.68-1.25,1.19-2.1,1.53l3.28,4.81h-3.46l-2.89-4.3h-2.32v4.3h-2.94v-13.48ZM208.48,70.18c.74,0,1.3-.17,1.7-.51.4-.34.57-.79.57-1.36v-.06c0-.62-.23-1.13-.62-1.47-.4-.34-.96-.51-1.7-.51h-2.94v3.85h3v.06Z"/>
  <path class="cls-4" d="M215.5,63.61h10.14v2.66h-7.25v2.72h6.34v2.66h-6.34v2.83h7.31v2.66h-10.25v-13.53h.06Z"/>
</svg>