<?xml version="1.0" encoding="UTF-8"?>
<svg id="Layer_1" data-name="Layer 1" xmlns="http://www.w3.org/2000/svg" xmlns:xlink="http://www.w3.org/1999/xlink" viewBox="0 0 300 120">
  <defs>
    <style>
      .cls-1 {
        fill: none;
      }

      .cls-2 {
        fill: #fa4616;
      }

      .cls-3 {
        clip-path: url(#clippath);
      }
    </style>
    <clipPath id="clippath">
      <rect class="cls-1" x="63.76" y="30.83" width="172.47" height="59.17"/>
    </clipPath>
  </defs>
  <g class="cls-3">
    <g>
      <path class="cls-2" d="M63.76,30.83h59.17v59.17h-59.17V30.83ZM116.8,83.87v-46.91h-46.91v46.92h46.92-.01ZM75.22,46.1v17.93c0,8.2,4.5,12.99,12.11,12.99s12.34-4.89,12.34-12.99v-17.93h-6.13v17.93c0,4.64-1.98,7.21-6.07,7.21s-6.13-2.72-6.13-7.21v-17.93h-6.13.01ZM107.57,49.75c2.18,0,3.75-1.48,3.75-3.66s-1.59-3.75-3.75-3.75-3.75,1.53-3.75,3.75,1.59,3.66,3.75,3.66ZM104.51,52.67v24.06h6.13v-24.06h-6.13ZM141.11,66.84c6.66,0,11.02-3.91,11.02-10.47s-4.25-10.27-11.02-10.27h-11.66v30.62h6.13v-9.88h5.53ZM140.47,61.96h-4.89v-10.91h4.89c3.5,0,5.43,1.98,5.43,5.34,0,3.61-1.93,5.59-5.43,5.59h0ZM154.19,64.72c0,7.16,4.59,12.29,11.11,12.29,3.86,0,6.37-1.38,7.8-3.7v3.41h6.13v-24.06h-6.13v3.75c-1.48-2.47-4.05-4.05-7.8-4.05-6.61,0-11.11,5.23-11.11,12.34h0ZM173.1,64.72c0,4.2-2.62,6.91-6.37,6.91-4.15,0-6.32-2.91-6.32-6.91,0-4.3,2.43-7.02,6.32-7.02s6.37,2.86,6.37,7.02ZM194.69,71.49c-2.37,0-3.02-1.04-3.02-3.16v-10.47h5.38v-5.18h-5.38v-6.57h-6.13v6.57h-2.86v5.18h2.86v10.43c0,5.68,2.52,8.45,8.34,8.45h3.21v-5.23h-2.43.02ZM206.64,56.04v-11.41h-6.13v32.1h6.13v-12.74c0-4.09,2.18-6.57,5.77-6.57s5.48,2.37,5.48,6.02v13.29h6.13v-13.98c0-6.32-4.45-10.43-10.13-10.43-3.66,0-5.88,1.38-7.27,3.7h.01Z"/>
      <path class="cls-2" d="M229.89,54.56c-3.79,0-6.38-2.64-6.38-6.32s2.67-6.28,6.38-6.28,6.34,2.53,6.34,6.28-2.6,6.32-6.34,6.32ZM229.89,43.07c-3.17,0-5.18,1.99-5.18,5.16s2.12,5.12,5.18,5.12,5.16-2.06,5.16-5.12-2.01-5.16-5.16-5.16ZM231.34,49.22l1.34,2.5h-1.59l-1.27-2.3h-1.01v2.3h-1.43v-7.11h2.73c1.55,0,2.7.91,2.7,2.38,0,1.09-.58,1.87-1.48,2.24ZM228.82,48.29h1.12c.83,0,1.4-.46,1.4-1.3,0-.77-.57-1.23-1.4-1.23h-1.12v2.53Z"/>
    </g>
  </g>
</svg>