<?xml version="1.0" encoding="UTF-8"?>
<svg id="Layer_1" data-name="Layer 1" xmlns="http://www.w3.org/2000/svg" viewBox="0 0 48 48">
  <defs>
    <style>
      .cls-1, .cls-2 {
        fill: #000;
        stroke-width: 0px;
      }

      .cls-2 {
        fill-rule: evenodd;
      }
    </style>
  </defs>
  <path class="cls-2" d="M22.43,2.07c4-.29,7.92.53,11.38,2.25-.5.91-.96,1.73-1.35,2.47-.36.67-.7,1.31-1.02,1.93-.44-.21-.89-.41-1.35-.59-3.3-1.27-7.01-1.52-10.67-.5-.03,0-.07.02-.09.03-.9.26-1.76.58-2.58.97-.85.4-1.66.87-2.42,1.4-.31.21-.39.64-.18.95.21.31.64.39.95.18.7-.48,1.44-.91,2.23-1.28.57-.26,1.15-.5,1.76-.71l1.38,4.86c-2.5.88-4.48,2.64-5.7,4.81-1.32,2.36-1.74,5.23-.94,8.04.03.11.07.22.11.36.03.1.07.22.12.35.13.35.52.54.87.41s.54-.52.41-.87c-.03-.09-.07-.19-.1-.31-.03-.09-.06-.19-.09-.31-.7-2.45-.33-4.95.82-7,1.15-2.06,3.08-3.67,5.52-4.37l.13-.04c2.42-.65,4.88-.27,6.91.88,2.02,1.14,3.62,3.06,4.32,5.47,0,.03.02.05.02.08.68,2.43.31,4.92-.83,6.96s-3.06,3.66-5.49,4.36c-.03,0-.06.02-.08.03-.81.22-1.61.34-2.41.34-.84,0-1.66-.1-2.46-.32-.36-.1-.74.12-.84.48-.1.36.12.74.48.84.9.24,1.85.37,2.81.36.93,0,1.88-.13,2.81-.4,2.81-.79,5.03-2.66,6.35-5.02,1.32-2.36,1.74-5.23.94-8.03h0c-.79-2.8-2.63-5.01-4.98-6.33-2.19-1.24-4.81-1.69-7.42-1.13l-1.38-4.86c3.17-.75,6.35-.48,9.2.61.61.23,1.21.51,1.79.82l.04.02c2.34,1.27,4.37,3.13,5.81,5.45.2.32.62.42.94.22s.42-.62.22-.94c-1.46-2.34-3.45-4.24-5.76-5.6.3-.57.63-1.21,1.02-1.93.43-.78.87-1.61,1.35-2.48.56.32,1.1.67,1.62,1.03,3.99,2.8,7.08,6.94,8.51,12,1.66,5.84.79,11.8-1.96,16.72-.12.22-.24.43-.37.64-.92-.52-1.75-.99-2.49-1.42-.69-.4-1.3-.76-1.84-1.07,1.58-2.59,2.48-5.6,2.5-8.72,0-.38-.3-.69-.67-.69-.38,0-.69.3-.69.67-.03,3.42-1.19,6.7-3.21,9.35-1.98,2.59-4.78,4.58-8.15,5.54-4.15,1.18-8.39.56-11.88-1.39-3.49-1.95-6.24-5.23-7.41-9.38-.49-1.74-.67-3.49-.57-5.2.1-1.77.51-3.49,1.19-5.09.15-.35-.02-.75-.37-.89-.35-.15-.75.02-.89.37-.73,1.74-1.17,3.61-1.29,5.53-.1,1.64.04,3.32.45,4.99l-4.81,1.36c-1.21-4.85-.71-9.76,1.14-14.05,1.97-4.56,5.48-8.44,10.07-10.81.34-.17.47-.59.3-.92-.17-.34-.59-.47-.92-.3-4.87,2.52-8.6,6.63-10.69,11.48C.5,19.51,0,24.99,1.53,30.36v.03c.83,2.91,2.18,5.53,3.91,7.8,1.8,2.36,4.03,4.33,6.53,5.83.32.19.74.09.94-.23.19-.32.09-.74-.23-.94-2.35-1.41-4.44-3.27-6.14-5.49-1.51-1.97-2.69-4.22-3.48-6.7l4.81-1.36c1.38,4.2,4.25,7.53,7.86,9.55,3.79,2.12,8.4,2.79,12.91,1.51,3.67-1.04,6.72-3.21,8.87-6.03.08-.1.16-.21.23-.32.6.36,1.24.74,1.91,1.13.76.44,1.57.9,2.43,1.39-2.8,4.05-6.97,7.19-12.08,8.63-1.48.42-2.97.68-4.45.78-1.52.11-3.03.06-4.5-.15-.37-.05-.72.21-.77.59-.05.37.21.72.59.77,1.57.21,3.17.27,4.78.16,1.57-.11,3.15-.38,4.73-.83,6.2-1.76,11.11-5.87,14.02-11.08s3.84-11.54,2.08-17.75c-1.52-5.37-4.81-9.77-9.05-12.74-.75-.52-1.53-1-2.33-1.44l-.05-.03C31.22,1.37,26.82.38,22.33.7c-.38.03-.66.35-.63.73.03.38.35.67.73.64h0Z"/>
  <path class="cls-1" d="M24.01,48c-1.08,0-2.16-.07-3.24-.22-.36-.05-.67-.23-.88-.52-.21-.28-.3-.63-.25-.98.05-.35.23-.66.51-.87.28-.22.63-.31.98-.26,1.44.2,2.91.25,4.37.14,1.44-.1,2.9-.36,4.32-.76,4.53-1.28,8.52-4.04,11.31-7.81-.63-.36-1.23-.7-1.81-1.04-.49-.29-.97-.56-1.42-.83-2.36,3-5.48,5.09-9.1,6.12-4.53,1.29-9.28.73-13.4-1.57-3.7-2.06-6.51-5.36-7.96-9.32l-3.57,1.01c.75,2.13,1.81,4.1,3.17,5.87,1.64,2.15,3.65,3.94,5.96,5.33.63.38.83,1.2.46,1.82-.38.63-1.2.83-1.82.46-2.61-1.57-4.87-3.58-6.71-5.99-1.83-2.4-3.18-5.1-4.01-8.02C-.59,25.24-.21,19.54,1.97,14.5c2.19-5.08,6.1-9.27,10.99-11.8.32-.16.68-.19,1.02-.08.34.11.61.34.77.66.16.31.19.67.08,1.01-.11.34-.34.61-.66.77-4.34,2.25-7.81,5.97-9.77,10.49-1.79,4.13-2.22,8.61-1.26,12.99l3.57-1.01c-.31-1.51-.42-3.04-.33-4.57.12-1.98.57-3.92,1.34-5.74.28-.67,1.06-.99,1.73-.71.68.28,1,1.06.72,1.73-.66,1.57-1.04,3.21-1.14,4.88-.1,1.68.09,3.36.55,4.98,1.09,3.85,3.61,7.04,7.11,8.99,3.5,1.95,7.54,2.42,11.39,1.33,3.14-.89,5.84-2.73,7.81-5.32,1.96-2.58,3.06-5.76,3.08-8.97.01-.74.57-1.29,1.34-1.31.73.01,1.32.61,1.31,1.34-.02,2.96-.81,5.88-2.26,8.48l1.28.75c.58.34,1.23.7,1.93,1.1.01-.03.03-.05.04-.08,2.78-4.98,3.46-10.74,1.9-16.23-1.33-4.71-4.27-8.85-8.26-11.65-.35-.24-.69-.46-1.01-.66-.26.48-.52.95-.76,1.4l-.27.49c-.27.5-.52.96-.74,1.38,2.2,1.4,4.08,3.29,5.46,5.49.19.31.25.66.17,1-.08.35-.29.64-.6.83-.63.38-1.44.19-1.82-.43-1.36-2.17-3.28-3.98-5.57-5.22-.6-.32-1.18-.59-1.76-.81-2.62-1-5.43-1.25-8.16-.73l1.03,3.64c2.5-.4,5.06.06,7.28,1.31,2.59,1.46,4.47,3.84,5.28,6.71l.02.09c.78,2.85.42,5.84-1.03,8.43-1.46,2.62-3.85,4.51-6.74,5.33-.97.28-1.98.42-2.99.42-1.02,0-2.02-.12-2.99-.39-.33-.09-.62-.3-.8-.61-.18-.31-.23-.67-.13-1.01.09-.34.3-.62.61-.8.31-.18.67-.23,1.01-.13.74.2,1.51.29,2.28.3.74,0,1.49-.11,2.24-.32l.12-.04c2.14-.61,3.95-2.05,5.06-4.04,1.11-1.99,1.38-4.29.77-6.47l-.03-.13c-.61-2.12-2.04-3.92-4-5.03-1.96-1.11-4.24-1.4-6.43-.82l-.13.04c-2.19.62-4.02,2.07-5.13,4.06-1.12,1.99-1.39,4.31-.76,6.51l.18.57c.25.68-.11,1.44-.79,1.69-.33.12-.69.11-1.02-.05-.32-.15-.56-.42-.68-.75-.05-.14-.1-.27-.13-.38l-.11-.37c-.82-2.88-.47-5.91,1-8.53,1.24-2.21,3.17-3.93,5.48-4.89l-1.03-3.64c-.35.13-.7.28-1.06.45-.74.35-1.46.76-2.13,1.23-.3.2-.65.28-1,.21-.35-.06-.65-.26-.85-.55-.2-.29-.27-.64-.21-.99.06-.35.26-.65.55-.85.78-.54,1.63-1.03,2.51-1.45.83-.39,1.73-.73,2.67-1.01l.17-.04c3.61-1.02,7.44-.84,11,.53.28.11.56.22.83.35.24-.45.48-.91.74-1.39.31-.57.65-1.2,1.03-1.88-3.27-1.5-6.87-2.15-10.44-1.9-.35.03-.7-.08-.96-.31-.27-.23-.44-.56-.46-.92-.02-.36.09-.7.32-.97.23-.27.55-.43.91-.45,4.52-.33,9.04.64,13.07,2.8.89.49,1.7.98,2.44,1.5,4.5,3.15,7.8,7.81,9.3,13.1,1.75,6.16.99,12.64-2.13,18.24-3.12,5.59-8.24,9.64-14.41,11.39-1.58.45-3.21.73-4.86.85-.56.04-1.12.06-1.68.06ZM20.95,46.43c1.54.29,3.1.34,4.64.23,1.56-.11,3.11-.39,4.6-.81,5.84-1.66,10.68-5.48,13.63-10.78,2.96-5.3,3.67-11.43,2.02-17.26-1.42-5.01-4.54-9.41-8.8-12.39-.7-.49-1.46-.96-2.26-1.4-3.85-2.07-8.13-2.99-12.41-2.67v.09c4.04-.29,8.08.51,11.72,2.32l.6.3-.33.59c-.5.91-.95,1.73-1.35,2.47-.34.63-.66,1.23-.96,1.81l-.35.66-.56-.27c-.43-.21-.86-.4-1.3-.57-3.3-1.27-6.85-1.43-10.26-.48-.96.28-1.8.59-2.57.96-.82.38-1.6.84-2.33,1.34.77-.44,1.56-.89,2.36-1.27.62-.29,1.22-.53,1.83-.73l.64-.21,1.72,6.09-.57.2c-2.26.8-4.17,2.4-5.35,4.52-1.29,2.32-1.61,5-.88,7.54l.11.35c.03.09.07.2.11.31l-.04-.35-.09-.31c-.73-2.56-.41-5.22.87-7.51,1.28-2.29,3.38-3.95,5.91-4.67l.14-.04c2.51-.67,5.14-.34,7.39.94,2.26,1.27,3.9,3.35,4.62,5.85l.03.13c.69,2.47.38,5.12-.9,7.4-1.28,2.29-3.36,3.94-5.88,4.66-.95.27-1.82.39-2.66.39-.89.01-1.77-.11-2.63-.35.84.31,1.74.43,2.63.42.89,0,1.78-.13,2.64-.38,2.55-.72,4.67-2.4,5.96-4.71,1.29-2.32,1.61-5,.89-7.54l-.02-.09c-.73-2.5-2.38-4.58-4.65-5.85-2.12-1.2-4.59-1.57-6.97-1.06l-.59.13-1.73-6.09.65-.16c3.2-.76,6.51-.54,9.58.64.62.24,1.25.53,1.86.85,2.53,1.37,4.62,3.33,6.1,5.69-1.31-2.24-3.23-4.11-5.48-5.43l-.53-.31.28-.54c.3-.57.64-1.21,1.03-1.93l.27-.49c.35-.64.71-1.3,1.09-1.99l.32-.58.57.33c.53.31,1.08.65,1.67,1.06,4.24,2.97,7.35,7.36,8.77,12.35,1.65,5.82.93,11.93-2.01,17.2-.12.22-.25.44-.39.67l-.32.53-.54-.31c-.92-.52-1.75-.99-2.49-1.42l-2.41-1.41.34-.56c1.55-2.54,2.38-5.44,2.41-8.39-.1,3.48-1.29,6.94-3.42,9.73-2.14,2.81-5.08,4.8-8.49,5.77-4.18,1.19-8.57.67-12.37-1.44-3.8-2.12-6.54-5.59-7.72-9.77-.5-1.76-.7-3.58-.59-5.41.11-1.82.52-3.61,1.24-5.31-.79,1.67-1.2,3.46-1.31,5.3-.1,1.61.05,3.22.43,4.8l.15.6-6.04,1.71-.16-.64c-1.22-4.86-.81-9.86,1.18-14.46,2.07-4.79,5.75-8.74,10.36-11.12-4.66,2.32-8.35,6.29-10.43,11.09-2.07,4.78-2.42,10.17-1,15.18.79,2.79,2.07,5.34,3.8,7.61,1.74,2.28,3.88,4.19,6.35,5.67-2.41-1.54-4.53-3.44-6.28-5.72-1.58-2.07-2.79-4.39-3.59-6.9l-.2-.63,6.04-1.71.19.59c1.28,3.92,3.97,7.18,7.57,9.18,3.82,2.13,8.23,2.65,12.42,1.45,3.43-.97,6.38-2.98,8.54-5.8l.57-.78.51.31c.6.36,1.23.73,1.9,1.12.76.44,1.57.9,2.42,1.38l.61.35-.4.58c-2.98,4.31-7.39,7.46-12.43,8.89-1.51.43-3.05.7-4.58.81-1.55.11-3.11.06-4.63-.15Z"/>
</svg>