<?xml version="1.0" encoding="UTF-8"?>
<svg id="Layer_1" data-name="Layer 1" xmlns="http://www.w3.org/2000/svg" viewBox="0 0 48 48">
  <defs>
    <style>
      .cls-1 {
        fill: #4170ff;
        stroke-width: 0px;
      }
    </style>
  </defs>
  <path class="cls-1" d="M35.47,29.22l-2.79,2.84,3.64,3.64h-6.68c-.3-.86-.76-1.61-1.4-2.24-.63-.63-1.38-1.1-2.24-1.39v-11.45h-.02v-4.67c1.16-.43,2.12-1.15,2.86-2.17.75-1.01,1.12-2.17,1.12-3.46,0-1.66-.58-3.07-1.74-4.24-1.16-1.16-2.57-1.74-4.24-1.74-1.3,0-2.45.37-3.46,1.12s-1.74,1.7-2.17,2.87h-6.68l3.64-3.64-2.79-2.84L4.06,10.31l8.47,8.47,2.79-2.84-3.64-3.64h6.68c.3.86.76,1.61,1.4,2.24.63.63,1.38,1.1,2.24,1.4v13.11h.02v3.01c-1.16.43-2.12,1.15-2.86,2.17-.75,1.01-1.12,2.17-1.12,3.46,0,1.66.58,3.07,1.74,4.23,1.16,1.16,2.57,1.74,4.24,1.74,1.3,0,2.45-.37,3.46-1.12,1.01-.75,1.74-1.7,2.17-2.87h6.68l-3.64,3.64,2.79,2.84,8.47-8.47-8.47-8.47Z"/>
</svg>