<?xml version="1.0" encoding="UTF-8"?>
<svg id="Layer_1" data-name="Layer 1" xmlns="http://www.w3.org/2000/svg" viewBox="0 0 48 48">
  <defs>
    <style>
      .cls-1 {
        fill: #4170ff;
        stroke-width: 0px;
      }
    </style>
  </defs>
  <path class="cls-1" d="M28.27,46.16c-.88,0-1.63-.31-2.24-.92-.62-.62-.92-1.36-.92-2.24v-14.77c0-.88.31-1.63.92-2.24s1.36-.92,2.24-.92h14.77c.88,0,1.63.31,2.24.92s.92,1.36.92,2.24v14.77c0,.88-.31,1.63-.92,2.24-.62.62-1.36.92-2.24.92h-14.77ZM28.27,43h14.77v-1.69c-.88-1.09-1.95-1.96-3.22-2.61s-2.66-.98-4.17-.98-2.9.33-4.17.98-2.34,1.52-3.22,2.61v1.69ZM35.66,35.61c.88,0,1.63-.31,2.24-.92.62-.62.92-1.36.92-2.24s-.31-1.63-.92-2.24-1.36-.92-2.24-.92-1.63.31-2.24.92-.92,1.36-.92,2.24.31,1.63.92,2.24c.62.62,1.36.92,2.24.92ZM23.1,15.56c-2.04,0-3.78.72-5.22,2.16-1.44,1.44-2.16,3.18-2.16,5.22,0,1.69.47,3.17,1.42,4.43.95,1.27,2.2,2.15,3.75,2.64v-4.75c-.28-.28-.51-.64-.69-1.08s-.26-.85-.26-1.24c0-.88.31-1.63.92-2.24.62-.62,1.36-.92,2.24-.92.49,0,.93.1,1.32.29.39.19.72.45,1,.77h4.75c-.46-1.55-1.33-2.81-2.61-3.8s-2.77-1.48-4.46-1.48ZM17.19,44.05l-.84-6.75c-.46-.18-.89-.39-1.29-.63s-.8-.51-1.19-.79l-6.28,2.64L1.79,28.49l5.43-4.12c-.04-.25-.05-.48-.05-.71v-1.42c0-.23.02-.47.05-.71l-5.43-4.12L7.59,7.38l6.28,2.64c.39-.28.79-.55,1.21-.79s.84-.46,1.27-.63l.84-6.75h11.61l.84,6.75c.46.18.89.39,1.29.63s.8.51,1.19.79l6.28-2.64,5.8,10.03-4.49,3.43h-5.33c-.04-.18-.07-.36-.11-.55s-.09-.38-.16-.55l4.54-3.43-2.06-3.59-5.22,2.22c-.77-.81-1.63-1.49-2.56-2.03-.93-.55-1.94-.96-3.03-1.24l-.69-5.59h-4.17l-.74,5.59c-1.09.28-2.1.69-3.03,1.24s-1.79,1.2-2.56,1.98l-5.22-2.16-2.06,3.59,4.54,3.38c-.18.53-.3,1.06-.37,1.58s-.11,1.09-.11,1.69c0,.56.04,1.11.11,1.64s.19,1.06.37,1.58l-4.54,3.43,2.06,3.59,5.22-2.22c.84.88,1.79,1.62,2.85,2.22,1.06.6,2.2.98,3.43,1.16v9.71h-3.69Z"/>
</svg>