<?xml version="1.0" encoding="UTF-8"?>
<svg id="Layer_1" data-name="Layer 1" xmlns="http://www.w3.org/2000/svg" viewBox="0 0 48 48">
  <defs>
    <style>
      .cls-1 {
        fill: #4170ff;
        stroke-width: 0px;
      }
    </style>
  </defs>
  <path class="cls-1" d="M2.1,17.48c.61-4.48,2.6-8.2,5.96-11.18,3.37-2.98,7.38-4.46,12.03-4.46,2.56,0,4.96.49,7.2,1.47,2.24.98,4.18,2.31,5.83,4.01V1.84h5.21v15.64h-15.64v-5.21h7.82c-1.26-1.56-2.77-2.82-4.53-3.78-1.76-.96-3.73-1.43-5.9-1.43-3.13,0-5.89.99-8.28,2.97-2.39,1.98-3.89,4.46-4.5,7.46H2.1ZM42.51,46.16l-11.47-11.47c-1.56,1.17-3.27,2.07-5.12,2.71-1.85.63-3.79.95-5.83.95-2.56,0-4.96-.49-7.2-1.47-2.24-.98-4.18-2.31-5.83-4.01v5.48H1.84v-15.64h15.64v5.21h-7.82c1.26,1.56,2.77,2.82,4.53,3.78,1.76.96,3.73,1.43,5.9,1.43,3.13,0,5.89-.99,8.28-2.97,2.39-1.98,3.89-4.46,4.5-7.46h5.21c-.22,1.56-.61,3.03-1.17,4.4s-1.3,2.68-2.22,3.94l11.47,11.47-3.65,3.65Z"/>
</svg>