<?xml version="1.0" encoding="UTF-8"?>
<svg id="Layer_1" data-name="Layer 1" xmlns="http://www.w3.org/2000/svg" viewBox="0 0 48 48">
  <defs>
    <style>
      .cls-1 {
        fill: #4170ff;
        stroke-width: 0px;
      }
    </style>
  </defs>
  <path class="cls-1" d="M24,35.3c.64,0,1.18-.22,1.61-.65.43-.43.65-.97.65-1.61s-.22-1.18-.65-1.61c-.43-.43-.97-.65-1.61-.65s-1.18.22-1.61.65-.65.97-.65,1.61.22,1.18.65,1.61.97.65,1.61.65ZM24,26.26c.64,0,1.18-.22,1.61-.65.43-.43.65-.97.65-1.61s-.22-1.18-.65-1.61c-.43-.43-.97-.65-1.61-.65s-1.18.22-1.61.65c-.43.43-.65.97-.65,1.61s.22,1.18.65,1.61.97.65,1.61.65ZM24,17.22c.64,0,1.18-.22,1.61-.65.43-.43.65-.97.65-1.61s-.22-1.18-.65-1.61c-.43-.43-.97-.65-1.61-.65s-1.18.22-1.61.65-.65.97-.65,1.61.22,1.18.65,1.61.97.65,1.61.65ZM42.08,42.08H5.92c-1.24,0-2.31-.44-3.19-1.33-.88-.88-1.33-1.95-1.33-3.19v-9.04c1.24,0,2.31-.44,3.19-1.33.88-.88,1.33-1.95,1.33-3.19s-.44-2.31-1.33-3.19c-.88-.88-1.95-1.33-3.19-1.33v-9.04c0-1.24.44-2.31,1.33-3.19.88-.88,1.95-1.33,3.19-1.33h36.15c1.24,0,2.31.44,3.19,1.33s1.33,1.95,1.33,3.19v9.04c-1.24,0-2.31.44-3.19,1.33-.88.88-1.33,1.95-1.33,3.19s.44,2.31,1.33,3.19,1.95,1.33,3.19,1.33v9.04c0,1.24-.44,2.31-1.33,3.19s-1.95,1.33-3.19,1.33Z"/>
</svg>