<?xml version="1.0" encoding="UTF-8"?>
<!DOCTYPE svg PUBLIC "-//W3C//DTD SVG 1.1//EN" "http://www.w3.org/Graphics/SVG/1.1/DTD/svg11.dtd">
<svg xmlns="http://www.w3.org/2000/svg" version="1.1" width="267px" height="267px" style="shape-rendering:geometricPrecision; text-rendering:geometricPrecision; image-rendering:optimizeQuality; fill-rule:evenodd; clip-rule:evenodd" xmlns:xlink="http://www.w3.org/1999/xlink">
<g><path style="opacity:0.981" fill="#416fff" d="M 89.5,73.5 C 128.168,73.3333 166.835,73.5 205.5,74C 209.667,75.5 212.5,78.3333 214,82.5C 214.667,106.167 214.667,129.833 214,153.5C 212.5,157.667 209.667,160.5 205.5,162C 166.082,162.988 126.749,162.654 87.5,161C 84.5665,158.736 82.3999,155.902 81,152.5C 80.3333,129.5 80.3333,106.5 81,83.5C 82.9779,79.3619 85.8112,76.0286 89.5,73.5 Z M 96.5,88.5 C 101.179,88.3342 105.845,88.5008 110.5,89C 109.224,97.0755 104.557,101.576 96.5,102.5C 96.5,97.8333 96.5,93.1667 96.5,88.5 Z M 185.5,88.5 C 190.167,88.5 194.833,88.5 199.5,88.5C 199.5,93.1667 199.5,97.8333 199.5,102.5C 191.139,101.472 186.472,96.8055 185.5,88.5 Z M 142.5,96.5 C 158.071,95.5997 167.071,102.766 169.5,118C 165.475,137.68 154.141,143.68 135.5,136C 122.167,124 122.167,112 135.5,100C 137.925,98.7874 140.259,97.6207 142.5,96.5 Z M 96.5,133.5 C 104.557,134.424 109.224,138.924 110.5,147C 105.845,147.499 101.179,147.666 96.5,147.5C 96.5,142.833 96.5,138.167 96.5,133.5 Z M 195.5,133.5 C 196.833,133.5 198.167,133.5 199.5,133.5C 199.5,138.167 199.5,142.833 199.5,147.5C 194.833,147.5 190.167,147.5 185.5,147.5C 186.138,140.868 189.472,136.202 195.5,133.5 Z"/></g>
<g><path style="opacity:0.936" fill="#416fff" d="M 50.5,95.5 C 55.8333,95.5 61.1667,95.5 66.5,95.5C 66.5,122.5 66.5,149.5 66.5,176.5C 108.5,176.5 150.5,176.5 192.5,176.5C 192.5,181.833 192.5,187.167 192.5,192.5C 148.832,192.667 105.165,192.5 61.5,192C 55.8428,190.217 52.3428,186.384 51,180.5C 50.5,152.169 50.3334,123.835 50.5,95.5 Z"/></g>
</svg>
