<?xml version="1.0" encoding="UTF-8"?>
<svg id="Layer_1" data-name="Layer 1" xmlns="http://www.w3.org/2000/svg" viewBox="0 0 48 48">
  <defs>
    <style>
      .cls-1 {
        fill: #4170ff;
        stroke-width: 0px;
      }
    </style>
  </defs>
  <path class="cls-1" d="M12.79,45.48c-1.56,0-2.88-.54-3.97-1.63-1.09-1.09-1.63-2.41-1.63-3.97s.54-2.88,1.63-3.97c1.09-1.09,2.41-1.63,3.97-1.63.44,0,.84.05,1.21.14s.73.22,1.07.37l2.66-3.32c-.87-.97-1.48-2.05-1.82-3.27-.34-1.21-.42-2.43-.23-3.64l-3.78-1.26c-.53.78-1.2,1.4-2.01,1.87s-1.71.7-2.71.7c-1.56,0-2.88-.54-3.97-1.63-1.09-1.09-1.63-2.41-1.63-3.97s.54-2.88,1.63-3.97c1.09-1.09,2.41-1.63,3.97-1.63s2.88.54,3.97,1.63c1.09,1.09,1.63,2.41,1.63,3.97v.37l3.78,1.31c.62-1.12,1.46-2.07,2.5-2.85,1.04-.78,2.22-1.28,3.53-1.49v-4.06c-1.21-.34-2.22-1-3.01-1.98s-1.19-2.12-1.19-3.43c0-1.56.54-2.88,1.63-3.97s2.41-1.63,3.97-1.63,2.88.54,3.97,1.63c1.09,1.09,1.63,2.41,1.63,3.97,0,1.31-.4,2.45-1.21,3.43-.81.98-1.81,1.64-2.99,1.98v4.06c1.31.22,2.48.72,3.53,1.49,1.04.78,1.88,1.73,2.5,2.85l3.78-1.31v-.37c0-1.56.54-2.88,1.63-3.97s2.41-1.63,3.97-1.63,2.88.54,3.97,1.63,1.63,2.41,1.63,3.97-.54,2.88-1.63,3.97c-1.09,1.09-2.41,1.63-3.97,1.63-1,0-1.91-.23-2.73-.7s-1.49-1.09-1.98-1.87l-3.78,1.26c.19,1.21.11,2.42-.23,3.62-.34,1.2-.95,2.3-1.82,3.29l2.66,3.27c.34-.16.7-.27,1.07-.35s.78-.12,1.21-.12c1.56,0,2.88.54,3.97,1.63,1.09,1.09,1.63,2.41,1.63,3.97s-.54,2.88-1.63,3.97c-1.09,1.09-2.41,1.63-3.97,1.63s-2.88-.54-3.97-1.63c-1.09-1.09-1.63-2.41-1.63-3.97,0-.62.1-1.22.3-1.8s.47-1.1.82-1.56l-2.66-3.32c-1.28.72-2.64,1.07-4.09,1.07s-2.81-.36-4.09-1.07l-2.62,3.32c.34.47.61.99.82,1.56.2.58.3,1.18.3,1.8,0,1.56-.54,2.88-1.63,3.97-1.09,1.09-2.41,1.63-3.97,1.63ZM7.19,22.13c.53,0,.97-.18,1.33-.54s.54-.8.54-1.33-.18-.97-.54-1.33-.8-.54-1.33-.54-.97.18-1.33.54-.54.8-.54,1.33.18.97.54,1.33.8.54,1.33.54ZM12.79,41.74c.53,0,.97-.18,1.33-.54.36-.36.54-.8.54-1.33s-.18-.97-.54-1.33-.8-.54-1.33-.54-.97.18-1.33.54-.54.8-.54,1.33.18.97.54,1.33c.36.36.8.54,1.33.54ZM24,9.99c.53,0,.97-.18,1.33-.54.36-.36.54-.8.54-1.33s-.18-.97-.54-1.33c-.36-.36-.8-.54-1.33-.54s-.97.18-1.33.54-.54.8-.54,1.33.18.97.54,1.33.8.54,1.33.54ZM24,30.54c1.31,0,2.41-.45,3.32-1.35s1.35-2.01,1.35-3.32-.45-2.41-1.35-3.32c-.9-.9-2.01-1.35-3.32-1.35s-2.41.45-3.32,1.35c-.9.9-1.35,2.01-1.35,3.32s.45,2.41,1.35,3.32c.9.9,2.01,1.35,3.32,1.35ZM35.21,41.74c.53,0,.97-.18,1.33-.54.36-.36.54-.8.54-1.33s-.18-.97-.54-1.33-.8-.54-1.33-.54-.97.18-1.33.54-.54.8-.54,1.33.18.97.54,1.33c.36.36.8.54,1.33.54ZM40.81,22.13c.53,0,.97-.18,1.33-.54s.54-.8.54-1.33-.18-.97-.54-1.33-.8-.54-1.33-.54-.97.18-1.33.54-.54.8-.54,1.33.18.97.54,1.33.8.54,1.33.54Z"/>
</svg>