<?xml version="1.0" encoding="UTF-8"?>
<svg id="Layer_1" data-name="Layer 1" xmlns="http://www.w3.org/2000/svg" viewBox="0 0 48 48">
  <defs>
    <style>
      .cls-1 {
        fill: #4170ff;
        stroke-width: 0px;
      }
    </style>
  </defs>
  <path class="cls-1" d="M10.45,22.98l-.61-3.07c-.41-.17-.79-.35-1.15-.54s-.72-.42-1.1-.69l-2.97.92-2.05-3.48,2.35-2.05c-.07-.44-.1-.89-.1-1.33s.03-.89.1-1.33l-2.35-2.05,2.05-3.48,2.97.92c.38-.27.74-.5,1.1-.69s.74-.37,1.15-.54l.61-3.07h4.09l.61,3.07c.41.17.79.35,1.15.54s.72.42,1.1.69l2.97-.92,2.05,3.48-2.35,2.05c.07.44.1.89.1,1.33s-.03.89-.1,1.33l2.35,2.05-2.05,3.48-2.97-.92c-.38.27-.74.5-1.1.69s-.74.37-1.15.54l-.61,3.07h-4.09ZM12.49,16.84c1.13,0,2.09-.4,2.89-1.2s1.2-1.76,1.2-2.89-.4-2.09-1.2-2.89-1.76-1.2-2.89-1.2-2.09.4-2.89,1.2-1.2,1.76-1.2,2.89.4,2.09,1.2,2.89,1.76,1.2,2.89,1.2ZM28.76,45.48l-.92-4.3c-.58-.2-1.12-.45-1.61-.74s-.98-.62-1.46-1l-4.09,1.33-2.86-4.91,3.27-2.86c-.07-.61-.1-1.23-.1-1.84s.03-1.23.1-1.84l-3.27-2.86,2.86-4.91,4.09,1.33c.48-.38.96-.71,1.46-1s1.03-.54,1.61-.74l.92-4.3h5.73l.92,4.3c.58.2,1.12.45,1.61.74s.98.62,1.46,1l4.09-1.33,2.86,4.91-3.27,2.86c.07.61.1,1.23.1,1.84s-.03,1.23-.1,1.84l3.27,2.86-2.86,4.91-4.09-1.33c-.48.38-.96.71-1.46,1s-1.03.54-1.61.74l-.92,4.3h-5.73ZM31.62,37.3c1.7,0,3.15-.6,4.35-1.79,1.19-1.19,1.79-2.64,1.79-4.35s-.6-3.15-1.79-4.35-2.64-1.79-4.35-1.79-3.15.6-4.35,1.79-1.79,2.64-1.79,4.35.6,3.15,1.79,4.35c1.19,1.19,2.64,1.79,4.35,1.79Z"/>
</svg>