<?xml version="1.0" encoding="UTF-8"?>
<svg id="Layer_1" data-name="Layer 1" xmlns="http://www.w3.org/2000/svg" viewBox="0 0 48 48">
  <defs>
    <style>
      .cls-1 {
        fill: #4170ff;
        stroke-width: 0px;
      }
    </style>
  </defs>
  <path class="cls-1" d="M30,0c-3.02,0-5.56,1.65-7.55,3.71-1.4-.6-2.89-1.04-4.44-1.04-4.27,0-7.96,2.46-9.56,6.1-3.93,1.32-6.96,4.59-6.96,8.73,0,5.34,4.81,9.5,10.51,9.5h10.5v3H6c-.83,0-1.5.66-1.51,1.49,0,0,0,0,0,.01v4.71C1.92,36.89,0,39.23,0,42,0,45.3,2.71,48,6,48s6-2.7,6-6c0-2.78-1.93-5.12-4.51-5.79v-3.21h15v3.21c-2.57.67-4.49,3.01-4.49,5.79,0,3.3,2.69,6,5.99,6s6-2.7,6-6c0-2.77-1.93-5.11-4.5-5.79v-3.22h15.01v3.21c-2.58.67-4.51,3.01-4.51,5.79,0,3.3,2.71,6,6,6s6-2.7,6-6c0-2.77-1.92-5.11-4.49-5.79v-4.71c0-.83-.67-1.5-1.49-1.51,0,0,0,0-.01,0h-16.5v-3h10.5c5.7,0,10.5-4.16,10.5-9.5,0-3.83-2.66-6.83-6.14-8.33C40.12,4.03,35.55,0,30,0Z"/>
</svg>