<?xml version="1.0" encoding="UTF-8"?>
<svg id="Layer_1" data-name="Layer 1" xmlns="http://www.w3.org/2000/svg" viewBox="0 0 48 48">
  <defs>
    <style>
      .cls-1 {
        fill: #4170ff;
        stroke-width: 0px;
      }
    </style>
  </defs>
  <path class="cls-1" d="M23.82,26.71c-5.31,0-9.62,4.23-9.62,9.44s4.22,9.34,9.62,9.34c.52,0,.94-.42.94-.94s-.42-.94-.94-.94c-4.33,0-7.73-3.27-7.73-7.45s3.47-7.55,7.73-7.55,7.73,3.45,7.73,7.7c0,1.37-.24,3.25-1.41,4.44-.81.83-1.56,1.05-1.95.89-.38-.16-.43-.76-.43-1v-8.25c0-.52-.42-.94-.94-.94-.44,0-.8.31-.9.73-1.76-.84-3.93-.56-5.39.88-.89.89-1.39,2.06-1.39,3.32s.49,2.43,1.39,3.32c.92.91,2.13,1.37,3.33,1.37.69,0,1.37-.16,2.01-.46v.05c0,1.32.6,2.35,1.6,2.76,1.22.5,2.72,0,4.01-1.32,1.61-1.64,1.94-4.04,1.94-5.75,0-5.28-4.31-9.59-9.62-9.59ZM25.98,38.42c-1.15,1.14-3.04,1.14-4.19,0-.56-.55-.86-1.28-.86-2.06s.31-1.51.86-2.07c1.16-1.14,3.04-1.14,4.19,0v4.13Z"/>
  <path class="cls-1" d="M43.72,21.9c0-.18.02-.36.02-.54,0-9.25-7.53-16.77-16.77-16.77-7.4,0-13.87,4.83-16.02,11.84-5.88.12-10.63,4.94-10.63,10.84,0,5.59,4.19,10.23,9.75,10.79.05,0,.08-.01.13-.01v.07h1.78c-.11-.64-.18-1.29-.18-1.97,0-6.53,5.39-11.84,12.03-11.84s12.03,5.38,12.03,12c0,.55-.03,1.17-.11,1.81h3.07c4.89,0,8.88-3.98,8.88-8.87,0-2.94-1.5-5.71-3.96-7.35h0Z"/>
</svg>