<?xml version="1.0" encoding="UTF-8"?>
<svg id="Layer_1" data-name="Layer 1" xmlns="http://www.w3.org/2000/svg" viewBox="0 0 48 48">
  <defs>
    <style>
      .cls-1 {
        fill: #4170ff;
        stroke-width: 0px;
      }
    </style>
  </defs>
  <path class="cls-1" d="M24,19.66l-7.6-7.6,7.6-7.6,7.6,7.6-7.6,7.6ZM.12,43.54v-8.68c0-1.23.43-2.26,1.28-3.09.85-.83,1.87-1.25,3.07-1.25h7.11c.72,0,1.41.18,2.06.54s1.18.85,1.57,1.47c1.05,1.41,2.34,2.51,3.88,3.31s3.18,1.19,4.91,1.19,3.43-.4,4.97-1.19c1.54-.8,2.81-1.9,3.83-3.31.47-.62,1.02-1.1,1.66-1.47.63-.36,1.29-.54,1.98-.54h7.11c1.23,0,2.26.42,3.09,1.25.83.83,1.25,1.86,1.25,3.09v8.68h-15.2v-4.94c-1.27.9-2.63,1.59-4.1,2.06-1.47.47-2.99.71-4.59.71s-3.08-.24-4.56-.73c-1.48-.49-2.86-1.19-4.13-2.09v4.99H.12ZM6.63,28.34c-1.81,0-3.35-.63-4.61-1.9-1.27-1.27-1.9-2.8-1.9-4.61s.63-3.39,1.9-4.64c1.27-1.25,2.8-1.87,4.61-1.87s3.39.62,4.64,1.87,1.87,2.8,1.87,4.64-.62,3.35-1.87,4.61-2.8,1.9-4.64,1.9ZM41.37,28.34c-1.81,0-3.35-.63-4.61-1.9-1.27-1.27-1.9-2.8-1.9-4.61s.63-3.39,1.9-4.64c1.27-1.25,2.8-1.87,4.61-1.87s3.39.62,4.64,1.87c1.25,1.25,1.87,2.8,1.87,4.64s-.62,3.35-1.87,4.61c-1.25,1.27-2.8,1.9-4.64,1.9Z"/>
</svg>