<?xml version="1.0" encoding="UTF-8"?>
<svg id="Layer_1" data-name="Layer 1" xmlns="http://www.w3.org/2000/svg" viewBox="0 0 48 48">
  <defs>
    <style>
      .cls-1 {
        fill: #4170ff;
      }
    </style>
  </defs>
  <path class="cls-1" d="M2.65,36.62v-7.76c0-1.1.38-2.02,1.14-2.77.76-.74,1.67-1.12,2.74-1.12h6.36c.65,0,1.26.16,1.84.49s1.05.76,1.41,1.31c.94,1.26,2.09,2.25,3.47,2.96s2.84,1.07,4.39,1.07,3.07-.36,4.44-1.07,2.52-1.7,3.42-2.96c.42-.55.91-.99,1.48-1.31s1.16-.49,1.77-.49h6.36c1.1,0,2.02.37,2.77,1.12s1.12,1.67,1.12,2.77v7.76h-13.59v-4.42c-1.13.81-2.35,1.42-3.66,1.84-1.31.42-2.68.63-4.1.63s-2.75-.22-4.08-.66c-1.33-.44-2.56-1.06-3.69-1.87v4.46H2.65ZM8.47,23.03c-1.62,0-2.99-.57-4.13-1.7-1.13-1.13-1.7-2.51-1.7-4.13s.57-3.03,1.7-4.15c1.13-1.12,2.51-1.67,4.13-1.67s3.03.56,4.15,1.67,1.67,2.5,1.67,4.15-.56,2.99-1.67,4.13c-1.12,1.13-2.5,1.7-4.15,1.7ZM39.53,23.03c-1.62,0-2.99-.57-4.13-1.7s-1.7-2.51-1.7-4.13.57-3.03,1.7-4.15,2.51-1.67,4.13-1.67,3.03.56,4.15,1.67,1.67,2.5,1.67,4.15-.56,2.99-1.67,4.13-2.5,1.7-4.15,1.7Z"/>
</svg>