<?xml version="1.0" encoding="UTF-8"?>
<svg id="Layer_1" data-name="Layer 1" xmlns="http://www.w3.org/2000/svg" viewBox="0 0 48 48">
  <defs>
    <style>
      .cls-1 {
        fill: #4170ff;
      }
    </style>
  </defs>
  <path class="cls-1" d="M10.87,37.13h26.27v-17.21l-9.05-9.05H10.87v26.27ZM10.87,40.89c-1.03,0-1.92-.37-2.65-1.1-.73-.73-1.1-1.62-1.1-2.65V10.87c0-1.03.37-1.92,1.1-2.65.73-.73,1.62-1.1,2.65-1.1h18.76l11.26,11.26v18.76c0,1.03-.37,1.92-1.1,2.65-.73.73-1.62,1.1-2.65,1.1H10.87ZM14.62,33.38h18.76v-3.75H14.62v3.75ZM14.62,25.88h18.76v-3.75H14.62v3.75ZM14.62,18.37h13.13v-3.75h-13.13v3.75ZM10.87,37.13V10.87v26.27Z"/>
</svg>