<?xml version="1.0" encoding="UTF-8"?>
<svg id="Layer_1" data-name="Layer 1" xmlns="http://www.w3.org/2000/svg" viewBox="0 0 48 48">
  <defs>
    <style>
      .cls-1 {
        fill: #4170ff;
      }
    </style>
  </defs>
  <polygon class="cls-1" points="30.02 32.02 38.04 32.02 38.04 24 35.03 24 35.03 29.01 30.02 29.01 30.02 32.02"/>
  <path class="cls-1" d="M3.94,9.96v28.08h40.12V9.96H3.94ZM40.05,34.03H7.95V13.97h32.09v20.06Z"/>
  <path class="cls-1" d="M19.74,28.26c1.17,1.17,2.59,1.76,4.26,1.76s3.09-.59,4.26-1.76c1.17-1.17,1.76-2.59,1.76-4.26s-.58-3.09-1.76-4.26c-1.17-1.17-2.59-1.76-4.26-1.76s-3.09.59-4.26,1.76c-1.17,1.17-1.76,2.59-1.76,4.26s.59,3.09,1.76,4.26ZM21.07,25.96h3.91v-.98h-2.93c-.28,0-.51-.09-.7-.28s-.28-.42-.28-.7v-2.93c0-.28.09-.51.28-.7s.42-.28.7-.28h.98v-.98h1.96v.98h1.96v1.96h-3.91v.98h2.93c.28,0,.51.09.7.28s.28.42.28.7v2.93c0,.28-.09.51-.28.7s-.42.28-.7.28h-.98v.98h-1.96v-.98h-1.96v-1.96Z"/>
  <polygon class="cls-1" points="12.97 18.99 17.98 18.99 17.98 15.98 9.96 15.98 9.96 24 12.97 24 12.97 18.99"/>
</svg>