<?xml version="1.0" encoding="UTF-8"?>
<svg id="Layer_1" data-name="Layer 1" xmlns="http://www.w3.org/2000/svg" viewBox="0 0 48 48">
  <defs>
    <style>
      .cls-1 {
        fill: #4170ff;
      }
    </style>
  </defs>
  <path class="cls-1" d="M13.12,43.03v-14c-1.15-1.27-2.04-2.72-2.67-4.35-.63-1.63-.95-3.37-.95-5.21,0-4.05,1.4-7.48,4.21-10.29s6.24-4.21,10.29-4.21,7.48,1.4,10.29,4.21,4.21,6.24,4.21,10.29c0,1.84-.32,3.58-.95,5.21-.63,1.63-1.53,3.08-2.67,4.35v14l-10.88-3.62-10.88,3.62ZM24,30.34c3.02,0,5.59-1.06,7.7-3.17,2.11-2.11,3.17-4.68,3.17-7.7s-1.06-5.59-3.17-7.7c-2.11-2.11-4.68-3.17-7.7-3.17s-5.59,1.06-7.7,3.17c-2.11,2.11-3.17,4.68-3.17,7.7s1.06,5.59,3.17,7.7c2.11,2.11,4.68,3.17,7.7,3.17Z"/>
  <polygon class="cls-1" points="19.61 25.72 24 23.06 28.39 25.72 27.23 20.73 31.13 17.36 25.99 16.94 24 12.21 22.01 16.94 16.87 17.36 20.77 20.73 19.61 25.72"/>
</svg>