<?xml version="1.0" encoding="UTF-8"?>
<svg id="Layer_1" data-name="Layer 1" xmlns="http://www.w3.org/2000/svg" viewBox="0 0 48 48">
  <defs>
    <style>
      .cls-1 {
        fill: #fff;
      }
    </style>
  </defs>
  <path class="cls-1" d="M11.3,38.66v-4.75h4.91l-4.04-13.23c-.71-.4-1.3-.98-1.76-1.74-.46-.77-.69-1.58-.69-2.46,0-1.32.46-2.44,1.39-3.37s2.05-1.39,3.37-1.39c1.03,0,1.95.3,2.75.89.81.59,1.37,1.35,1.68,2.28h5.07v-1.58c0-.45.15-.83.46-1.13s.68-.46,1.13-.46c.24,0,.47.05.69.16s.42.26.57.48l2.69-2.53c.24-.24.52-.39.85-.46s.65-.02.97.14l6.18,2.85c.32.16.53.39.65.69s.11.6-.02.89c-.16.32-.39.52-.69.61s-.6.07-.89-.06l-5.7-2.61-3.72,3.49v2.22l3.72,3.41,5.7-2.61c.29-.13.59-.15.91-.04s.54.3.67.59c.16.32.17.62.04.91s-.36.51-.67.67l-6.18,2.93c-.32.16-.64.2-.97.14s-.61-.22-.85-.46l-2.69-2.53c-.16.16-.35.3-.57.44s-.46.2-.69.2c-.45,0-.83-.15-1.13-.46s-.46-.68-.46-1.13v-1.58h-5.07c-.08.21-.17.41-.26.59s-.22.38-.38.59l7.92,14.65h5.7v4.75H11.3ZM14.47,18.06c.45,0,.83-.15,1.13-.46s.46-.68.46-1.13-.15-.83-.46-1.13-.68-.46-1.13-.46-.83.15-1.13.46-.46.68-.46,1.13.15.83.46,1.13.68.46,1.13.46Z"/>
</svg>