<?xml version="1.0" encoding="UTF-8"?>
<svg id="Layer_1" data-name="Layer 1" xmlns="http://www.w3.org/2000/svg" viewBox="0 0 48 48">
  <defs>
    <style>
      .cls-1 {
        fill: #fff;
      }
    </style>
  </defs>
  <path class="cls-1" d="M13.86,39.21c-.8,0-1.48-.28-2.05-.85-.57-.57-.85-1.25-.85-2.05v-17.38c0-.8.28-1.48.85-2.05.57-.57,1.25-.85,2.05-.85h2.9c0-2,.71-3.71,2.12-5.12,1.41-1.41,3.12-2.12,5.12-2.12s3.71.71,5.12,2.12,2.12,3.12,2.12,5.12h2.9c.8,0,1.48.28,2.05.85s.85,1.25.85,2.05v17.38c0,.8-.28,1.48-.85,2.05s-1.25.85-2.05.85H13.86ZM13.86,36.31h20.28v-17.38H13.86v17.38ZM24,27.62c2,0,3.71-.71,5.12-2.12,1.41-1.41,2.12-3.12,2.12-5.12h-2.9c0,1.21-.42,2.23-1.27,3.08-.84.84-1.87,1.27-3.08,1.27s-2.23-.42-3.08-1.27c-.84-.84-1.27-1.87-1.27-3.08h-2.9c0,2,.71,3.71,2.12,5.12,1.41,1.41,3.12,2.12,5.12,2.12ZM19.65,16.03h8.69c0-1.21-.42-2.23-1.27-3.08s-1.87-1.27-3.08-1.27-2.23.42-3.08,1.27c-.84.84-1.27,1.87-1.27,3.08ZM13.86,36.31v-17.38,17.38Z"/>
</svg>