<?xml version="1.0" encoding="UTF-8"?>
<svg id="Layer_1" data-name="Layer 1" xmlns="http://www.w3.org/2000/svg" viewBox="0 0 48 48">
  <defs>
    <style>
      .cls-1 {
        fill: #fff;
      }
    </style>
  </defs>
  <path class="cls-1" d="M21.35,24c-.72,0-1.3-.27-1.76-.81s-.63-1.16-.5-1.88l.46-2.76c.2-1.1.72-2,1.55-2.7s1.8-1.06,2.9-1.06,2.1.35,2.94,1.06,1.35,1.61,1.55,2.7l.46,2.76c.13.72-.04,1.34-.5,1.88s-1.05.81-1.76.81h-5.33ZM10.34,25.5c-.59.03-1.09-.09-1.52-.35s-.7-.65-.82-1.19c-.05-.23-.06-.46-.04-.69s.09-.45.19-.65c0,.03-.01-.03-.04-.15-.05-.05-.18-.36-.38-.92-.05-.31-.01-.6.12-.88s.29-.52.5-.73l.08-.08c.05-.49.25-.9.59-1.23s.77-.5,1.29-.5c.08,0,.32.05.73.15l.12-.04c.13-.13.29-.22.5-.29s.42-.1.65-.1c.28,0,.53.04.75.13s.39.22.52.4c.03,0,.04,0,.06.02s.03.02.06.02c.36.03.67.13.94.33s.47.45.59.79c.05.18.07.35.06.52s-.04.33-.1.48c0,.03.01.08.04.15.18.18.32.38.42.59s.15.44.15.67c0,.1-.08.37-.23.81-.03.05-.03.1,0,.15l.08.61c0,.54-.22,1-.67,1.38-.45.38-.99.58-1.63.58h-2.99ZM36.28,25.53c-.84,0-1.57-.3-2.17-.9s-.9-1.32-.9-2.17c0-.31.04-.59.13-.86s.21-.53.36-.79l-1.07-.96c-.26-.2-.3-.46-.13-.77s.4-.46.71-.46h3.07c.84,0,1.57.3,2.17.9s.9,1.32.9,2.17v.77c0,.84-.3,1.57-.9,2.17s-1.32.9-2.17.9ZM5.58,33.21v-2.42c0-1.13.57-2.03,1.71-2.7,1.14-.68,2.62-1.02,4.43-1.02.33,0,.65,0,.96.02s.6.04.88.1c-.36.51-.63,1.06-.81,1.65s-.27,1.21-.27,1.88v2.49h-6.91ZM14.79,33.21v-2.49c0-1.66.85-3.01,2.55-4.03,1.7-1.02,3.92-1.53,6.66-1.53s4.99.51,6.68,1.53c1.69,1.02,2.53,2.37,2.53,4.03v2.49H14.79ZM36.28,27.07c1.84,0,3.33.34,4.45,1.02s1.69,1.58,1.69,2.7v2.42h-6.91v-2.49c0-.67-.08-1.29-.25-1.88s-.42-1.14-.75-1.65c.28-.05.57-.08.86-.1s.59-.02.9-.02Z"/>
</svg>