<?xml version="1.0" encoding="UTF-8"?>
<svg id="Layer_1" data-name="Layer 1" xmlns="http://www.w3.org/2000/svg" viewBox="0 0 48 48">
  <defs>
    <style>
      .cls-1 {
        fill: #fff;
      }
    </style>
  </defs>
  <path class="cls-1" d="M24.91,38.49c-1.99,0-3.84-.37-5.58-1.11-1.73-.74-3.25-1.75-4.57-3.04l2.29-2.29c1.02.99,2.2,1.78,3.54,2.36,1.34.58,2.78.87,4.31.87,3.11,0,5.77-1.1,7.97-3.3,2.2-2.2,3.3-4.86,3.3-7.97s-1.1-5.77-3.3-7.97c-2.2-2.2-4.86-3.3-7.97-3.3s-5.77,1.1-7.97,3.3c-2.2,2.2-3.3,4.86-3.3,7.97v.28l2.94-2.94,2.29,2.25-6.84,6.84-6.84-6.84,2.29-2.25,2.94,2.98v-.32c0-2.01.38-3.9,1.15-5.66.76-1.76,1.8-3.29,3.1-4.59,1.3-1.3,2.83-2.33,4.59-3.1s3.64-1.15,5.66-1.15,3.9.38,5.66,1.15,3.29,1.8,4.59,3.1c1.3,1.3,2.33,2.83,3.1,4.59s1.15,3.64,1.15,5.66c0,4.03-1.41,7.45-4.23,10.27s-6.24,4.23-10.27,4.23ZM22.81,30.44c-.46,0-.84-.15-1.15-.46s-.46-.69-.46-1.15v-4.83c0-.46.15-.84.46-1.15.31-.31.69-.46,1.15-.46v-1.61c0-.89.32-1.64.95-2.27s1.39-.95,2.27-.95,1.64.32,2.27.95.95,1.39.95,2.27v1.61c.46,0,.84.15,1.15.46.31.31.46.69.46,1.15v4.83c0,.46-.15.84-.46,1.15s-.69.46-1.15.46h-6.44ZM24.42,22.39h3.22v-1.61c0-.46-.15-.84-.46-1.15s-.69-.46-1.15-.46-.84.15-1.15.46-.46.69-.46,1.15v1.61Z"/>
</svg>