<?xml version="1.0" encoding="UTF-8"?>
<svg id="Layer_1" data-name="Layer 1" xmlns="http://www.w3.org/2000/svg" viewBox="0 0 48 48">
  <defs>
    <style>
      .cls-1 {
        fill: #fff;
      }
    </style>
  </defs>
  <path class="cls-1" d="M9.19,19.59c.41-3.03,1.76-5.55,4.03-7.56,2.28-2.01,4.99-3.02,8.13-3.02,1.73,0,3.36.33,4.87.99s2.83,1.56,3.95,2.71v-3.7h3.53v10.58h-10.58v-3.53h5.29c-.85-1.06-1.87-1.91-3.06-2.56s-2.52-.97-3.99-.97c-2.12,0-3.98.67-5.6,2.01-1.62,1.34-2.63,3.02-3.04,5.05h-3.53ZM36.52,38.99l-7.76-7.76c-1.06.79-2.21,1.4-3.46,1.83-1.25.43-2.56.64-3.95.64-1.73,0-3.36-.33-4.87-.99-1.51-.66-2.83-1.56-3.95-2.71v3.7h-3.53v-10.58h10.58v3.53h-5.29c.85,1.06,1.87,1.91,3.06,2.56s2.52.97,3.99.97c2.12,0,3.98-.67,5.6-2.01s2.63-3.02,3.04-5.05h3.53c-.15,1.06-.41,2.05-.79,2.98s-.88,1.81-1.5,2.67l7.76,7.76-2.47,2.47Z"/>
</svg>