<?xml version="1.0" encoding="UTF-8"?>
<svg id="Layer_1" data-name="Layer 1" xmlns="http://www.w3.org/2000/svg" viewBox="0 0 48 48">
  <defs>
    <style>
      .cls-1 {
        fill: #fff;
      }
    </style>
  </defs>
  <path class="cls-1" d="M16.81,27.31c.41,0,.75-.14,1.02-.41s.41-.62.41-1.02-.14-.75-.41-1.02-.62-.41-1.02-.41-.75.14-1.02.41c-.28.28-.41.62-.41,1.02s.14.75.41,1.02c.28.28.62.41,1.02.41ZM16.81,21.56c.41,0,.75-.14,1.02-.41s.41-.62.41-1.02-.14-.75-.41-1.02-.62-.41-1.02-.41-.75.14-1.02.41c-.28.28-.41.62-.41,1.02s.14.75.41,1.02c.28.28.62.41,1.02.41ZM19.68,27.31h12.95v-2.88h-12.95v2.88ZM19.68,21.56h12.95v-2.88h-12.95v2.88ZM18.25,37.38v-2.88h-5.75c-.79,0-1.47-.28-2.03-.85s-.85-1.24-.85-2.03V14.37c0-.79.28-1.47.85-2.03s1.24-.85,2.03-.85h23.02c.79,0,1.47.28,2.03.85s.85,1.24.85,2.03v17.26c0,.79-.28,1.47-.85,2.03-.56.56-1.24.85-2.03.85h-5.75v2.88h-11.51Z"/>
</svg>