<?xml version="1.0" encoding="UTF-8"?>
<svg id="Layer_1" data-name="Layer 1" xmlns="http://www.w3.org/2000/svg" viewBox="0 0 48 48">
  <defs>
    <style>
      .cls-1 {
        fill: #fff;
      }
    </style>
  </defs>
  <path class="cls-1" d="M5.9,34.69v-6.58c0-.93.32-1.71.97-2.34.64-.63,1.42-.95,2.32-.95h5.39c.55,0,1.07.14,1.56.41s.89.64,1.19,1.11c.8,1.07,1.78,1.91,2.94,2.51s2.41.9,3.72.9,2.6-.3,3.76-.9,2.13-1.44,2.9-2.51c.36-.47.77-.84,1.25-1.11s.98-.41,1.5-.41h5.39c.93,0,1.71.32,2.34.95s.95,1.41.95,2.34v6.58h-11.52v-3.74c-.96.69-1.99,1.21-3.11,1.56s-2.27.53-3.48.53-2.33-.19-3.46-.56-2.17-.9-3.13-1.58v3.78H5.9ZM10.84,23.18c-1.37,0-2.54-.48-3.5-1.44-.96-.96-1.44-2.13-1.44-3.5s.48-2.57,1.44-3.52c.96-.95,2.13-1.42,3.5-1.42s2.57.47,3.52,1.42c.95.95,1.42,2.12,1.42,3.52s-.47,2.54-1.42,3.5c-.95.96-2.12,1.44-3.52,1.44ZM37.16,23.18c-1.37,0-2.54-.48-3.5-1.44s-1.44-2.13-1.44-3.5.48-2.57,1.44-3.52c.96-.95,2.13-1.42,3.5-1.42s2.57.47,3.52,1.42,1.42,2.12,1.42,3.52-.47,2.54-1.42,3.5-2.12,1.44-3.52,1.44Z"/>
</svg>