<?xml version="1.0" encoding="UTF-8"?>
<svg id="Layer_1" data-name="Layer 1" xmlns="http://www.w3.org/2000/svg" viewBox="0 0 48 48">
  <defs>
    <style>
      .cls-1 {
        fill: #fff;
      }
    </style>
  </defs>
  <path class="cls-1" d="M22.26,39.65l-1.95-1.98,2.54-2.54h-4.66c-.3.81-.81,1.48-1.51,2-.71.52-1.51.78-2.42.78-1.16,0-2.14-.41-2.96-1.22-.81-.81-1.22-1.8-1.22-2.96,0-.9.26-1.71.78-2.42.52-.71,1.19-1.21,2-1.51v-11.61c-.81-.3-1.48-.81-2-1.51s-.78-1.51-.78-2.42c0-1.16.41-2.14,1.22-2.96.81-.81,1.8-1.22,2.96-1.22.9,0,1.71.26,2.42.78.71.52,1.21,1.19,1.51,2h4.66l-2.54-2.54,1.95-1.98,5.91,5.91-5.91,5.91-1.95-1.98,2.54-2.54h-4.66c-.21.6-.53,1.12-.97,1.56s-.96.77-1.56.97v11.61c.6.21,1.12.53,1.56.97s.77.96.97,1.56h4.66l-2.54-2.54,1.95-1.98,5.91,5.91-5.91,5.91ZM33.74,37.91c-1.16,0-2.14-.41-2.96-1.22-.81-.81-1.22-1.8-1.22-2.96,0-.93.26-1.74.78-2.45.52-.71,1.19-1.2,2-1.48v-11.61c-.81-.28-1.48-.77-2-1.48s-.78-1.52-.78-2.45c0-1.16.41-2.14,1.22-2.96s1.8-1.22,2.96-1.22,2.14.41,2.96,1.22,1.22,1.8,1.22,2.96c0,.93-.26,1.74-.78,2.45s-1.19,1.2-2,1.48v11.61c.81.3,1.48.81,2,1.51.52.71.78,1.51.78,2.42,0,1.16-.41,2.14-1.22,2.96-.81.81-1.8,1.22-2.96,1.22Z"/>
</svg>