<?xml version="1.0" encoding="UTF-8"?>
<svg id="Layer_1" data-name="Layer 1" xmlns="http://www.w3.org/2000/svg" viewBox="0 0 48 48">
  <defs>
    <style>
      .cls-1 {
        fill-rule: evenodd;
      }

      .cls-1, .cls-2 {
        fill: #fff;
        stroke-width: 0px;
      }
    </style>
  </defs>
  <g>
    <path class="cls-1" d="M29.17,6.76c2.29.78,4.39,2,6.17,3.57.48.42,1.13.49,1.69.2l3.51-1.84c.71-.37,1.6-.12,2,.58l3.17,5.48c.4.7.18,1.59-.5,2.02l-3,1.89h-2.73c-.71,0-1.34.38-1.68,1.01l-1.19,2.24h-1.86c-.43-2.36-1.58-4.47-3.21-6.1-2.1-2.1-5-3.4-8.2-3.4s-6.1,1.3-8.2,3.4c-2.1,2.1-3.4,5-3.4,8.2s1.3,6.1,3.4,8.2c2.1,2.1,5,3.4,8.2,3.4s6.1-1.3,8.2-3.4c1.63-1.63,2.78-3.74,3.21-6.1h1.86l1.19,2.24c.33.63.97,1.01,1.68,1.01h2.73l3,1.89c.68.43.9,1.32.5,2.02l-3.17,5.48c-.4.7-1.28.95-2,.58l-3.51-1.84c-.56-.3-1.21-.22-1.69.2-1.78,1.56-3.87,2.79-6.17,3.57-.6.2-.99.73-1.02,1.36l-.15,3.96c-.03.81-.69,1.44-1.5,1.44h-6.33c-.81,0-1.47-.64-1.5-1.44l-.15-3.95c-.03-.63-.42-1.16-1.02-1.36-2.29-.78-4.39-2-6.17-3.57-.48-.42-1.13-.49-1.69-.2l-3.51,1.84c-.71.37-1.6.12-2-.58l-3.17-5.48c-.4-.7-.18-1.59.5-2.02l3.35-2.11c.54-.34.8-.94.67-1.56-.23-1.15-.35-2.34-.35-3.57s.12-2.41.35-3.57c.12-.62-.14-1.22-.67-1.56l-3.35-2.11c-.68-.43-.9-1.32-.5-2.02l3.17-5.48c.4-.7,1.28-.95,2-.58l3.51,1.84c.56.3,1.21.22,1.69-.2,1.78-1.56,3.87-2.79,6.17-3.57.6-.2.99-.73,1.02-1.36l.15-3.95c.03-.81.69-1.44,1.5-1.44h6.33c.81,0,1.47.64,1.5,1.44l.15,3.96c.02.63.42,1.16,1.02,1.36h0Z"/>
    <rect class="cls-2" x="24.06" y="23.5" width="19.52" height="1"/>
    <path class="cls-2" d="M26.37,23.99c0,1.81-1.35,3.18-3.14,3.17-1.8,0-3.09-1.43-3.15-3.32-.04-1.38,1.49-3.01,2.98-3.01,2.02,0,3.45,1.37,3.31,3.16Z"/>
    <path class="cls-1" d="M28.03,25.71c-.67,2.03-2.51,3.44-4.81,3.43-2.92,0-5.02-2.31-5.11-5.4-.07-2.24,2.42-4.89,4.84-4.89,2.6,0,4.57,1.41,5.18,3.43h3.73c-.79-3.91-4.25-6.86-8.4-6.86-4.73,0-8.57,3.84-8.57,8.57s3.84,8.57,8.57,8.57c4.15,0,7.6-2.94,8.4-6.86h-3.82Z"/>
  </g>
  <path class="cls-1" d="M47.17,26.81l-1.33-2.89,1.33-2.5c.07-.13.07-.28,0-.41-.08-.13-.21-.2-.36-.2h-5.9c-.16,0-.29.08-.37.22l-1.28,2.42v1.35l1.28,2.42c.07.14.21.22.37.22h5.9c.15,0,.28-.07.36-.2s.08-.28,0-.41Z"/>
</svg>