<?xml version="1.0" encoding="UTF-8"?>
<svg id="Layer_1" data-name="Layer 1" xmlns="http://www.w3.org/2000/svg" viewBox="0 0 35 35">
  <defs>
    <style>
      .cls-1 {
        fill: #fff;
        fill-rule: evenodd;
        stroke-width: 0px;
      }
    </style>
  </defs>
  <path class="cls-1" d="M33.48,22.78l-2.26-1.38h-2.06c-.53,0-1.02-.28-1.27-.74l-.89-1.63h-1.4c-.32,1.72-1.19,3.26-2.41,4.45-1.58,1.53-3.76,2.48-6.18,2.48s-4.6-.95-6.18-2.48c-1.58-1.53-2.56-3.64-2.56-5.98s.98-4.45,2.56-5.98,3.77-2.48,6.18-2.48,4.6.95,6.18,2.48c1.22,1.19,2.09,2.73,2.41,4.45h1.4l.89-1.63c.25-.46.73-.74,1.27-.74h2.06l2.26-1.38c.51-.32.68-.96.38-1.47l-2.39-4c-.3-.51-.97-.69-1.51-.42l-2.64,1.34c-.43.21-.91.16-1.27-.15-1.34-1.14-2.92-2.03-4.65-2.6-.45-.15-.75-.53-.77-.99l-.12-2.89c-.02-.59-.52-1.05-1.13-1.05h-4.77c-.61,0-1.1.46-1.13,1.05l-.12,2.88c-.02.46-.31.84-.77.99-1.73.57-3.3,1.46-4.65,2.6-.36.31-.85.36-1.27.15l-2.64-1.34c-.54-.28-1.2-.09-1.51.42L.15,10.76c-.3.51-.14,1.16.38,1.47l2.52,1.54c.4.24.6.68.5,1.14-.17.84-.26,1.71-.26,2.6s.09,1.76.26,2.6c.1.45-.1.89-.5,1.14l-2.52,1.54c-.51.32-.68.96-.38,1.47l2.39,4c.3.51.97.69,1.51.42l2.64-1.34c.43-.21.91-.16,1.27.15,1.34,1.14,2.92,2.03,4.65,2.6.45.15.74.53.77.99l.12,2.88c.02.59.52,1.05,1.13,1.05h4.77c.61,0,1.1-.46,1.13-1.05l.12-2.89c.02-.46.31-.84.77-.99,1.73-.57,3.3-1.46,4.65-2.6.36-.31.85-.36,1.27-.15l2.64,1.34c.54.28,1.2.09,1.51-.42l2.39-4c.3-.51.14-1.16-.38-1.47Z"/>
  <path class="cls-1" d="M16.71,13.76c1.96,0,3.44,1.03,3.9,2.5h2.81c-.6-2.85-3.2-5-6.33-5-3.57,0-6.46,2.8-6.46,6.25s2.89,6.25,6.46,6.25c3.12,0,5.73-2.15,6.33-5h-2.88c-.51,1.48-1.89,2.5-3.62,2.5-2.2,0-3.78-1.69-3.85-3.94-.05-1.63,1.83-3.56,3.65-3.56Z"/>
  <path class="cls-1" d="M34.96,19.56l-1-2.11,1-1.82c.05-.1.05-.2,0-.3-.06-.09-.16-.15-.27-.15h-4.45c-.12,0-.22.06-.28.16l-.97,1.77v.04h-9.72c-.1-1.12-1.1-1.94-2.48-1.94-1.12,0-2.28,1.19-2.25,2.19.04,1.38,1.02,2.42,2.37,2.42,1.22,0,2.16-.81,2.33-1.94h9.74v.21l.97,1.77c.06.1.16.16.28.16h4.45c.11,0,.21-.05.27-.15.06-.09.06-.2,0-.3Z"/>
</svg>