<?xml version="1.0" encoding="UTF-8"?>
<svg id="Layer_1" data-name="Layer 1" xmlns="http://www.w3.org/2000/svg" viewBox="0 0 35 35">
  <defs>
    <style>
      .cls-1 {
        fill: #fff;
        stroke-width: 0px;
      }
    </style>
  </defs>
  <polygon class="cls-1" points="34.89 16.69 27.46 8.82 22.79 8.87 26.27 16.77 34.89 16.69"/>
  <path class="cls-1" d="M17.42,16.85l6.57-.06-3.44-7.89-6.38.06-1.76,4.2c-.15.38-.54.64-.97.64-.14,0-.27-.02-.4-.07-.54-.21-.8-.79-.59-1.31,0,0,0,0,0,0l1.43-3.43-4.67.04L-.06,17.01l17.48-.16Z"/>
  <polygon class="cls-1" points="26.36 18.79 20.51 33.34 34.93 18.71 26.36 18.79"/>
  <polygon class="cls-1" points="17.44 18.87 17.43 18.87 10.77 18.93 17.59 35 24.1 18.81 17.44 18.87"/>
  <polygon class="cls-1" points="-.07 19.03 14.63 33.39 8.5 18.95 -.07 19.03"/>
  <path class="cls-1" d="M17.27,6.59c.58,0,1.05-.47,1.04-1.02l-.04-4.57C18.26.44,17.79,0,17.21,0s-1.05.46-1.04,1.02l.04,4.57c0,.56.48,1.01,1.06,1Z"/>
  <path class="cls-1" d="M4.92,7.8c.21.24.52.38.84.37.24,0,.47-.08.65-.23.45-.35.52-.97.16-1.4,0,0,0,0-.01-.01l-3.21-3.74c-.37-.44-1.04-.51-1.5-.16s-.54,1-.17,1.44l3.23,3.74Z"/>
  <path class="cls-1" d="M28.15,7.74c.19.14.42.22.66.22.33,0,.64-.14.84-.39l3.12-3.8c.36-.45.27-1.09-.19-1.44-.47-.34-1.14-.26-1.5.19l-3.13,3.8c-.35.44-.26,1.07.2,1.41,0,0,0,0,0,0Z"/>
</svg>