<?xml version="1.0" encoding="UTF-8"?>
<svg id="Layer_1" data-name="Layer 1" xmlns="http://www.w3.org/2000/svg" viewBox="0 0 48 48">
  <defs>
    <style>
      .cls-1 {
        fill: #fff;
        stroke-width: 0px;
      }
    </style>
  </defs>
  <polygon class="cls-1" points="44.19 26.1 35.69 16.53 30.3 16.53 34.23 26.1 44.19 26.1"/>
  <path class="cls-1" d="M24,26.1h7.59l-3.89-9.56h-7.37l-2.08,5.04c-.18.46-.63.76-1.13.76-.16,0-.31-.03-.46-.09-.62-.25-.92-.96-.66-1.58,0,0,0,0,0,0l1.69-4.12h-5.39L3.81,26.1h20.19Z"/>
  <polygon class="cls-1" points="34.31 28.54 27.4 46.03 44.22 28.54 34.31 28.54"/>
  <polygon class="cls-1" points="24 28.54 24 28.54 16.3 28.54 24 48 31.7 28.54 24 28.54"/>
  <polygon class="cls-1" points="3.78 28.54 20.59 46.03 13.68 28.54 3.78 28.54"/>
  <path class="cls-1" d="M24,7.95c.67,0,1.21-.55,1.21-1.22V1.21c0-.67-.54-1.21-1.21-1.21s-1.21.54-1.21,1.21v5.51c0,.67.54,1.22,1.21,1.22Z"/>
  <path class="cls-1" d="M9.73,9.28c.24.29.59.46.97.46.28,0,.54-.1.76-.27.52-.41.61-1.17.2-1.69,0,0,0-.01-.01-.02l-3.66-4.55c-.42-.54-1.2-.63-1.73-.21s-.63,1.2-.21,1.73l3.69,4.55Z"/>
  <path class="cls-1" d="M36.56,9.46c.21.18.48.27.76.27.38,0,.74-.16.97-.46l3.64-4.55c.42-.54.33-1.31-.21-1.73-.54-.42-1.31-.33-1.73.21l-3.65,4.55c-.41.53-.31,1.29.22,1.7,0,0,0,0,0,0Z"/>
</svg>