<?xml version="1.0" encoding="UTF-8"?>
<svg id="Layer_1" data-name="Layer 1" xmlns="http://www.w3.org/2000/svg" viewBox="0 0 51.42 24.33">
  <defs>
    <style>
      .cls-1 {
        fill: #fff;
        stroke-width: 0px;
      }
    </style>
  </defs>
  <path class="cls-1" d="M25.56,0c-6.95.07-12.11,5.79-12.06,12.23.04,6.66,5.51,12.14,12.12,12.1,6.85-.03,12.31-5.46,12.28-12.22C37.86,5.42,32.31-.07,25.56,0ZM35.28,14.73c-.36.05-.72.05-1.09.05-.21,0-.31.07-.37.26-.09.29-.24.58-.31.87-.03.14,0,.34.09.46.19.26.43.47.65.71.36.41.4.79.04,1.17-.81.85-1.64,1.68-2.49,2.49-.38.36-.77.32-1.18-.03-.24-.21-.45-.46-.71-.65-.11-.09-.32-.13-.45-.09-.37.1-.84.16-1.05.41-.19.23-.06.71-.1,1.07-.02.24-.04.5-.15.7-.17.3-.43.49-.83.46-.54-.04-1.09,0-1.63,0h0c-.57,0-1.13,0-1.7,0-.42,0-.81-.31-.86-.73-.05-.42-.04-.85-.04-1.28,0-.18-.05-.27-.22-.33-.32-.11-.63-.26-.96-.36-.11-.03-.29.01-.38.09-.28.23-.52.51-.79.75-.37.32-.75.35-1.1.01-.86-.81-1.7-1.65-2.52-2.5-.36-.38-.31-.78.04-1.17.22-.25.47-.47.67-.73.08-.1.06-.27.09-.4,0-.03-.02-.06-.03-.09-.13-.33-.16-.77-.4-.96-.22-.18-.66-.08-1-.12-.2-.02-.41-.04-.6-.09-.35-.1-.57-.31-.58-.71-.02-1.23-.04-2.45-.05-3.68,0-.28.42-.67.78-.7.4-.03.81-.04,1.22-.03.18,0,.27-.06.33-.22.12-.33.27-.65.38-.98.03-.09,0-.25-.07-.33-.23-.27-.5-.5-.73-.76-.37-.41-.4-.8-.02-1.2.79-.84,1.61-1.65,2.44-2.45.41-.39.79-.35,1.23.03.22.2.44.4.66.61.17.17.34.19.55.1.34-.14.79-.18.98-.42.18-.22.07-.67.1-1.01.07-.96-.11-1.08,1.11-1.15,1.11-.06,2.22-.04,3.33-.06.3,0,.7.37.74.73.04.41.05.83.05,1.25,0,.19.05.29.24.35.27.09.55.18.81.3.25.11.44.06.63-.13.2-.21.41-.4.63-.59.4-.35.77-.4,1.15-.04.86.81,1.7,1.65,2.52,2.5.35.37.32.76-.03,1.15-.23.26-.47.5-.72.73-.13.13-.18.24-.1.42.14.31.27.63.38.95.06.17.16.23.33.22.38,0,.77,0,1.15.02.51.04.85.42.85.92-.01,1.1-.02,2.2-.05,3.3-.02.63-.21.84-.83.92Z"/>
  <path class="cls-1" d="M34.85,1.57c-.04.05-.09.1-.13.15.12.08.27.14.37.25,1.37,1.33,2.53,2.82,3.28,4.59,1.7,4.04,1.72,8.05-.31,12-.66,1.29-1.55,2.43-2.56,3.47-.17.17-.31.35-.47.53.03.04.06.07.09.11,6.19-2.26,11.53-5.85,16.26-10.5-4.81-4.69-10.22-8.34-16.53-10.59Z"/>
  <path class="cls-1" d="M12.31,8.4c.6-2.33,1.83-4.33,3.54-6.03.21-.21.39-.44.58-.66-.02-.03-.04-.05-.07-.08C10.16,3.95,4.74,7.49.04,12.17c4.71,4.65,10.06,8.23,16.25,10.49.03-.03.06-.07.09-.1-.17-.19-.34-.38-.52-.57-3.69-3.88-4.88-8.41-3.54-13.59Z"/>
  <path class="cls-1" d="M33.48,11.3c-.51.02-.81-.26-.99-.7-.29-.71-.55-1.43-.86-2.13-.19-.42-.13-.76.17-1.08.23-.25.46-.5.63-.7-.41-.43-.8-.83-1.2-1.25-.26.23-.54.48-.82.72-.31.26-.65.29-1.01.1-.32-.17-.65-.33-.98-.47-.47-.2-.94-.4-1.42-.59-.23-.09-.36-.27-.37-.51-.02-.33-.02-.66-.05-.99,0-.08-.09-.21-.15-.22-.52-.02-1.04,0-1.62,0,0,.36.02.68,0,.99-.03.45-.22.76-.7.92-.68.23-1.34.5-1.99.81-.52.25-.93.21-1.32-.2-.2-.21-.44-.39-.63-.57-.42.42-.81.81-1.22,1.22.21.23.44.49.67.74.32.35.35.72.15,1.15-.3.64-.58,1.28-.82,1.94-.21.57-.57.85-1.18.82-.25-.01-.5,0-.76,0v1.76c.32,0,.61,0,.91,0,.46,0,.76.19.93.63.28.73.57,1.45.91,2.15.22.45.18.81-.17,1.16-.23.23-.44.48-.63.7.42.42.81.81,1.21,1.22.26-.23.54-.48.82-.72.32-.28.66-.28,1.04-.11.69.31,1.38.63,2.09.88.47.16.64.45.68.89.02.24.02.49.03.74,0,.09.02.18.03.27h1.73c0-.32,0-.62,0-.91-.02-.51.25-.82.7-1,.74-.29,1.5-.57,2.23-.88.35-.15.63-.11.91.14.28.25.56.49.8.7.42-.41.81-.8,1.23-1.21-.22-.25-.47-.51-.7-.78-.24-.28-.31-.6-.16-.95.33-.77.66-1.55.99-2.33.16-.37.45-.56.85-.57.26,0,.51,0,.77-.02.08,0,.22-.11.22-.18.02-.5.01-1,.01-1.57-.34,0-.64,0-.94,0ZM25.7,16.14c-2.11.2-4.03-1.78-4.04-3.95-.02-2.2,1.79-4.02,4-4.03,2.18,0,4,1.7,4.02,3.77.02,2.54-1.53,4.19-3.97,4.21Z"/>
  <path class="cls-1" d="M25.55,9.89c-1.07,0-2.18,1.17-2.15,2.17.04,1.37.97,2.39,2.27,2.4,1.29,0,2.27-.98,2.26-2.29.1-1.29-.93-2.28-2.39-2.28Z"/>
</svg>