<?xml version="1.0" encoding="UTF-8"?>
<svg id="Layer_1" data-name="Layer 1" xmlns="http://www.w3.org/2000/svg" xmlns:xlink="http://www.w3.org/1999/xlink" viewBox="0 0 48 48">
  <defs>
    <style>
      .cls-1 {
        fill: url(#linear-gradient);
      }

      .cls-1, .cls-2 {
        stroke-width: 0px;
      }

      .cls-2 {
        fill: #fff;
      }
    </style>
    <linearGradient id="linear-gradient" x1="48.34" y1="48.5" x2="12.81" y2="12.75" gradientUnits="userSpaceOnUse">
      <stop offset="0" stop-color="#0d0027"/>
      <stop offset="1" stop-color="#032094"/>
    </linearGradient>
  </defs>
  <path class="cls-2" d="M23.91,35.37c-6.17.03-11.29-5.09-11.33-11.32-.04-6.02,4.79-11.36,11.28-11.43,6.31-.07,11.5,5.07,11.53,11.32.03,6.32-5.07,11.39-11.48,11.42ZM23.98,33.77h0c.51,0,1.02-.03,1.53,0,.38.03.62-.14.78-.43.1-.19.12-.44.14-.66.04-.34-.08-.79.1-1,.19-.24.64-.29.98-.39.13-.03.32,0,.42.09.24.18.44.41.66.61.37.33.74.37,1.1.03.8-.76,1.57-1.53,2.33-2.33.34-.36.3-.72-.04-1.1-.2-.22-.43-.42-.6-.66-.08-.11-.11-.3-.08-.43.07-.28.2-.54.29-.82.06-.18.15-.25.35-.24.34,0,.68,0,1.02-.04.58-.08.76-.28.78-.86.03-1.03.03-2.06.04-3.08,0-.47-.31-.83-.79-.86-.36-.02-.72-.02-1.08-.02-.16,0-.25-.05-.31-.21-.11-.3-.22-.6-.35-.89-.08-.17-.03-.27.09-.39.23-.22.46-.44.67-.68.32-.36.36-.73.03-1.07-.76-.8-1.55-1.58-2.36-2.34-.35-.33-.7-.29-1.07.04-.2.18-.4.36-.59.56-.17.18-.35.23-.59.12-.25-.11-.5-.2-.76-.28-.17-.05-.22-.15-.22-.33,0-.39,0-.78-.04-1.16-.04-.34-.41-.68-.69-.68-1.04.01-2.08,0-3.12.05-1.14.06-.97.18-1.04,1.08-.02.32.08.74-.09.95-.18.23-.6.26-.92.39-.2.08-.36.06-.52-.1-.2-.2-.4-.39-.61-.57-.4-.36-.76-.4-1.15-.03-.78.74-1.54,1.51-2.29,2.29-.35.37-.32.74.02,1.12.22.24.47.46.69.71.06.07.09.22.06.31-.1.31-.25.61-.36.92-.06.16-.15.21-.31.21-.38,0-.76,0-1.14.03-.33.03-.73.39-.72.65.01,1.15.03,2.3.05,3.44,0,.37.21.57.54.66.18.05.37.07.56.09.32.03.72-.05.93.11.22.17.26.59.38.89.01.03.03.06.03.08-.02.13,0,.29-.08.38-.19.24-.42.45-.62.69-.33.37-.37.75-.04,1.1.77.8,1.55,1.58,2.36,2.34.33.31.68.28,1.03-.01.26-.22.48-.48.74-.7.09-.07.25-.11.35-.08.31.09.6.23.9.33.16.05.21.14.21.31,0,.4,0,.8.04,1.19.04.4.42.69.8.69.53,0,1.06,0,1.59,0Z"/>
  <path class="cls-2" d="M48,24c-4.43,4.35-9.41,7.71-15.2,9.82l-.09-.1c.15-.17.29-.34.44-.5.95-.97,1.78-2.03,2.4-3.24,1.9-3.69,1.88-7.45.29-11.22-.69-1.65-1.78-3.05-3.06-4.29-.1-.09-.23-.15-.35-.23.04-.05.08-.09.12-.14,5.9,2.1,10.96,5.52,15.45,9.9Z"/>
  <path class="cls-2" d="M15.19,33.81c-5.79-2.11-10.78-5.46-15.19-9.81,4.4-4.38,9.46-7.69,15.26-9.86.02.02.04.05.06.07-.18.21-.35.42-.54.61-1.6,1.59-2.75,3.46-3.31,5.64-1.25,4.83-.14,9.08,3.31,12.7.17.17.33.36.49.53-.03.03-.05.07-.08.1Z"/>
  <path class="cls-2" d="M32.14,23.19c0,.53,0,1,0,1.47,0,.06-.13.16-.2.17-.24.02-.48.01-.72.01-.38,0-.65.18-.8.53-.31.72-.61,1.45-.92,2.17-.14.33-.08.63.15.89.22.25.45.5.66.73-.39.38-.76.75-1.15,1.13-.23-.2-.49-.42-.75-.66-.26-.23-.52-.27-.85-.13-.69.29-1.39.55-2.09.83-.42.17-.67.45-.65.93,0,.28,0,.55,0,.85h-1.62c0-.08-.02-.16-.03-.25-.01-.23,0-.46-.03-.69-.04-.41-.2-.68-.64-.83-.67-.23-1.31-.53-1.96-.82-.36-.16-.68-.15-.98.1-.26.23-.52.46-.76.67-.38-.38-.74-.75-1.13-1.14.18-.2.37-.44.58-.65.32-.33.36-.66.16-1.08-.31-.66-.59-1.33-.85-2.01-.16-.41-.44-.59-.87-.59-.28,0-.55,0-.85,0v-1.64c.24,0,.48,0,.71,0,.57.02.91-.24,1.1-.77.23-.62.49-1.22.77-1.82.19-.4.15-.75-.14-1.07-.21-.23-.43-.47-.62-.69.38-.38.75-.75,1.14-1.14.18.16.4.33.59.53.37.39.76.42,1.24.19.6-.29,1.22-.54,1.86-.76.44-.15.62-.44.65-.86.02-.3,0-.59,0-.93.54,0,1.03,0,1.52,0,.05,0,.13.13.14.2.03.31.03.62.05.93.02.23.13.39.35.48.44.18.89.36,1.33.55.31.14.62.29.92.44.34.18.66.15.95-.1.27-.23.52-.46.77-.68.37.39.73.77,1.12,1.16-.17.18-.38.42-.59.65-.28.3-.33.62-.16,1.01.29.65.54,1.33.81,1.99.17.42.45.67.93.66.28,0,.56,0,.88,0ZM23.99,27.71c2.28-.02,3.74-1.56,3.72-3.94-.02-1.93-1.72-3.53-3.76-3.52-2.06,0-3.75,1.71-3.74,3.77.02,2.03,1.8,3.88,3.78,3.69Z"/>
  <path class="cls-1" d="M26.08,24c.1-1.2-.87-2.13-2.23-2.13-1,0-2.04,1.1-2.01,2.03.04,1.28.91,2.24,2.12,2.24,1.21,0,2.12-.92,2.12-2.14Z"/>
  <path class="cls-2" d="M26.08,24c0,1.22-.91,2.14-2.12,2.14-1.21,0-2.08-.96-2.12-2.24-.03-.93,1.01-2.03,2.01-2.03,1.36,0,2.33.93,2.23,2.13Z"/>
</svg>