<?xml version="1.0" encoding="UTF-8"?>
<svg id="Layer_1" data-name="Layer 1" xmlns="http://www.w3.org/2000/svg" viewBox="0 0 48 48">
  <defs>
    <style>
      .cls-1 {
        fill: #4170ff;
        stroke-width: 0px;
      }
    </style>
  </defs>
  <path class="cls-1" d="M39.63,17.13l7.09,7.09-3.1,3.1-7.09-7.09c-.78.44-1.61.81-2.49,1.11-.89.3-1.83.44-2.83.44-2.77,0-5.13-.97-7.07-2.91-1.94-1.94-2.91-4.3-2.91-7.07s.97-5.13,2.91-7.07,4.3-2.91,7.07-2.91,5.13.97,7.07,2.91,2.91,4.3,2.91,7.07c0,1-.15,1.94-.44,2.83s-.67,1.72-1.11,2.49ZM31.21,17.35c1.55,0,2.86-.54,3.94-1.61,1.07-1.07,1.61-2.38,1.61-3.94s-.54-2.86-1.61-3.94-2.38-1.61-3.94-1.61-2.86.54-3.94,1.61c-1.07,1.07-1.61,2.38-1.61,3.94s.54,2.86,1.61,3.94c1.07,1.07,2.38,1.61,3.94,1.61ZM35.53,25.55l5.65,5.65v10.53c0,1.22-.43,2.26-1.3,3.13-.87.87-1.91,1.3-3.13,1.3H5.71c-1.22,0-2.26-.43-3.13-1.3s-1.3-1.91-1.3-3.13V10.7c0-1.22.43-2.26,1.3-3.13s1.91-1.3,3.13-1.3h12.19c-.41.92-.68,1.88-.83,2.85-.15.98-.22,1.95-.22,2.91,0,4.03,1.42,7.39,4.27,10.09,2.85,2.7,6.23,4.05,10.14,4.05.7,0,1.4-.05,2.11-.14s1.42-.25,2.16-.47Z"/>
</svg>