<?xml version="1.0" encoding="UTF-8"?>
<svg id="Layer_1" data-name="Layer 1" xmlns="http://www.w3.org/2000/svg" viewBox="0 0 48 48">
  <defs>
    <style>
      .cls-1 {
        fill: #4170ff;
        stroke-width: 0px;
      }
    </style>
  </defs>
  <path class="cls-1" d="M.84,33.85v-3.04c0-1.38.71-2.51,2.12-3.38,1.42-.87,3.28-1.3,5.6-1.3.42,0,.82,0,1.21.02s.76.06,1.11.12c-.45.68-.79,1.38-1.01,2.12-.23.74-.34,1.51-.34,2.32v3.14H.84ZM12.42,33.85v-3.14c0-1.03.28-1.97.84-2.82.56-.85,1.36-1.6,2.39-2.24s2.26-1.13,3.69-1.45c1.43-.32,2.98-.48,4.66-.48s3.27.16,4.7.48c1.43.32,2.66.8,3.69,1.45,1.03.64,1.82,1.39,2.36,2.24s.82,1.79.82,2.82v3.14H12.42ZM38.47,33.85v-3.14c0-.84-.1-1.62-.31-2.36s-.52-1.43-.94-2.07c.35-.06.72-.1,1.09-.12s.75-.02,1.13-.02c2.32,0,4.18.43,5.6,1.28s2.12,1.99,2.12,3.4v3.04h-8.68ZM16.52,30h15c-.32-.64-1.21-1.21-2.68-1.69-1.46-.48-3.08-.72-4.85-.72s-3.39.24-4.85.72c-1.46.48-2.34,1.05-2.63,1.69ZM8.56,24.21c-1.06,0-1.97-.38-2.73-1.13s-1.13-1.66-1.13-2.73.38-2.01,1.13-2.75,1.66-1.11,2.73-1.11,2.01.37,2.75,1.11,1.11,1.66,1.11,2.75-.37,1.97-1.11,2.73c-.74.76-1.66,1.13-2.75,1.13ZM39.44,24.21c-1.06,0-1.97-.38-2.73-1.13s-1.13-1.66-1.13-2.73.38-2.01,1.13-2.75,1.66-1.11,2.73-1.11,2.01.37,2.75,1.11,1.11,1.66,1.11,2.75-.37,1.97-1.11,2.73c-.74.76-1.66,1.13-2.75,1.13ZM24,22.28c-1.61,0-2.97-.56-4.1-1.69-1.13-1.13-1.69-2.49-1.69-4.1s.56-3.02,1.69-4.12c1.13-1.11,2.49-1.66,4.1-1.66s3.02.55,4.12,1.66,1.66,2.48,1.66,4.12-.55,2.97-1.66,4.1c-1.11,1.13-2.48,1.69-4.12,1.69ZM24,18.42c.55,0,1.01-.18,1.37-.55.37-.37.55-.83.55-1.37s-.18-1.01-.55-1.37c-.37-.37-.83-.55-1.37-.55s-1.01.18-1.37.55-.55.83-.55,1.37.18,1.01.55,1.37.83.55,1.37.55Z"/>
</svg>