<?xml version="1.0" encoding="UTF-8"?>
<svg id="Layer_1" data-name="Layer 1" xmlns="http://www.w3.org/2000/svg" viewBox="0 0 48 48">
  <defs>
    <style>
      .cls-1 {
        fill: #4170ff;
        stroke-width: 0px;
      }
    </style>
  </defs>
  <path class="cls-1" d="M23.45,46.17c-3.07,0-5.95-.58-8.65-1.75s-5.04-2.74-7.04-4.74c-2-2-3.57-4.34-4.74-7.04-1.16-2.7-1.75-5.58-1.75-8.65s.58-5.95,1.75-8.65c1.16-2.7,2.74-5.04,4.74-7.04,2-2,4.34-3.57,7.04-4.74s5.58-1.75,8.65-1.75c5.39,0,10.11,1.69,14.16,5.07,4.05,3.38,6.57,7.62,7.57,12.72h-4.54c-.7-2.7-1.97-5.11-3.8-7.23-1.83-2.12-4.07-3.72-6.73-4.79v.89c0,1.22-.43,2.26-1.3,3.13s-1.91,1.3-3.13,1.3h-4.43v4.43c0,.63-.21,1.15-.64,1.58s-.95.64-1.58.64h-4.43v4.43h4.43v6.65h-2.22l-10.64-10.64c-.11.67-.21,1.33-.3,2s-.14,1.33-.14,2c0,4.84,1.7,9,5.1,12.47,3.4,3.47,7.61,5.23,12.64,5.27v4.43ZM43.62,45.06l-7.09-7.09c-.78.44-1.61.81-2.49,1.11s-1.83.44-2.83.44c-2.77,0-5.13-.97-7.07-2.91-1.94-1.94-2.91-4.3-2.91-7.07s.97-5.13,2.91-7.07c1.94-1.94,4.3-2.91,7.07-2.91s5.13.97,7.07,2.91c1.94,1.94,2.91,4.3,2.91,7.07,0,1-.15,1.94-.44,2.83s-.67,1.72-1.11,2.49l7.09,7.09-3.1,3.1ZM31.21,35.08c1.55,0,2.86-.54,3.94-1.61,1.07-1.07,1.61-2.38,1.61-3.94s-.54-2.86-1.61-3.94-2.38-1.61-3.94-1.61-2.86.54-3.94,1.61-1.61,2.38-1.61,3.94.54,2.86,1.61,3.94c1.07,1.07,2.38,1.61,3.94,1.61Z"/>
</svg>