<?xml version="1.0" encoding="UTF-8"?>
<svg id="Layer_1" data-name="Layer 1" xmlns="http://www.w3.org/2000/svg" viewBox="0 0 48 48">
  <defs>
    <style>
      .cls-1 {
        fill: #4170ff;
        stroke-width: 0px;
      }
    </style>
  </defs>
  <path class="cls-1" d="M21.71,44.65v-4.59h18.35v-16.29c0-4.47-1.56-8.27-4.67-11.38-3.12-3.12-6.91-4.67-11.38-4.67s-8.27,1.56-11.38,4.67c-3.12,3.12-4.67,6.91-4.67,11.38v13.99h-2.29c-1.26,0-2.34-.45-3.24-1.35-.9-.9-1.35-1.98-1.35-3.24v-4.59c0-.8.2-1.56.6-2.27.4-.71.97-1.27,1.69-1.69l.17-3.04c.31-2.6,1.06-5.01,2.27-7.23,1.2-2.22,2.71-4.15,4.53-5.79,1.82-1.64,3.9-2.92,6.25-3.84s4.83-1.38,7.43-1.38,5.07.46,7.4,1.38,4.42,2.19,6.25,3.81,3.35,3.55,4.53,5.76,1.95,4.63,2.29,7.23l.17,2.98c.73.34,1.29.86,1.69,1.55.4.69.6,1.41.6,2.18v5.28c0,.76-.2,1.49-.6,2.18-.4.69-.97,1.2-1.69,1.55v2.81c0,1.26-.45,2.34-1.35,3.24-.9.9-1.98,1.35-3.24,1.35h-18.35ZM17.12,28.59c-.65,0-1.19-.22-1.63-.66s-.66-.98-.66-1.63.22-1.19.66-1.63.98-.66,1.63-.66,1.19.22,1.63.66.66.98.66,1.63-.22,1.19-.66,1.63-.98.66-1.63.66ZM30.88,28.59c-.65,0-1.19-.22-1.63-.66s-.66-.98-.66-1.63.22-1.19.66-1.63.98-.66,1.63-.66,1.19.22,1.63.66.66.98.66,1.63-.22,1.19-.66,1.63-.98.66-1.63.66ZM10.29,25.03c-.27-4.05.96-7.53,3.67-10.44,2.71-2.91,6.1-4.36,10.15-4.36,3.4,0,6.39,1.08,8.98,3.24,2.58,2.16,4.14,4.92,4.67,8.29-3.48-.04-6.68-.97-9.61-2.81-2.92-1.84-5.17-4.32-6.74-7.46-.61,3.06-1.9,5.78-3.87,8.17-1.97,2.39-4.39,4.18-7.26,5.36Z"/>
</svg>