<?xml version="1.0" encoding="UTF-8"?>
<svg id="Layer_1" data-name="Layer 1" xmlns="http://www.w3.org/2000/svg" viewBox="0 0 48 48">
  <defs>
    <style>
      .cls-1 {
        fill: #4170ff;
        stroke-width: 0px;
      }
    </style>
  </defs>
  <path class="cls-1" d="M24,46.9c-3.12,0-6.05-.59-8.79-1.77s-5.13-2.79-7.16-4.82c-2.03-2.03-3.63-4.41-4.82-7.16-1.18-2.74-1.77-5.67-1.77-8.79s.59-6.05,1.77-8.79c1.18-2.74,2.79-5.13,4.82-7.16,2.03-2.03,4.41-3.63,7.16-4.82s5.67-1.77,8.79-1.77c2.44,0,4.75.36,6.93,1.07s4.19,1.71,6.03,2.99l-3.27,3.32c-1.43-.9-2.95-1.61-4.56-2.11s-3.32-.76-5.13-.76c-5,0-9.25,1.76-12.76,5.27-3.51,3.51-5.27,7.77-5.27,12.76s1.76,9.25,5.27,12.76c3.51,3.51,7.77,5.27,12.76,5.27s9.25-1.76,12.76-5.27c3.51-3.51,5.27-7.77,5.27-12.76,0-.68-.04-1.35-.11-2.03s-.19-1.33-.34-1.97l3.66-3.66c.41,1.2.73,2.44.96,3.72.23,1.28.34,2.59.34,3.94,0,3.12-.59,6.05-1.77,8.79-1.18,2.74-2.79,5.13-4.82,7.16-2.03,2.03-4.41,3.63-7.16,4.82-2.74,1.18-5.67,1.77-8.79,1.77ZM20.84,34.73l-9.58-9.58,3.16-3.16,6.42,6.42L43.38,5.83l3.16,3.16-25.69,25.75Z"/>
</svg>