<?xml version="1.0" encoding="UTF-8"?>
<svg id="Layer_1" data-name="Layer 1" xmlns="http://www.w3.org/2000/svg" viewBox="0 0 48 48">
  <defs>
    <style>
      .cls-1 {
        fill: #4170ff;
        stroke-width: 0px;
      }
    </style>
  </defs>
  <path class="cls-1" d="M15.13,37.3c-1.22,0-2.26-.43-3.13-1.3-.87-.87-1.3-1.91-1.3-3.13v-4.43h4.43v4.43h26.6V10.7H15.13v4.43h-4.43V6.26c0-1.22.43-2.26,1.3-3.13.87-.87,1.91-1.3,3.13-1.3h26.6c1.22,0,2.26.43,3.13,1.3s1.3,1.91,1.3,3.13v26.6c0,1.22-.43,2.26-1.3,3.13-.87.87-1.91,1.3-3.13,1.3H15.13ZM6.26,46.17c-1.22,0-2.26-.43-3.13-1.3-.87-.87-1.3-1.91-1.3-3.13V10.7h4.43v31.04h31.04v4.43H6.26ZM26.22,30.65l-3.1-3.1,3.49-3.55h-15.91v-4.43h15.91l-3.49-3.55,3.1-3.1,8.87,8.87-8.87,8.87Z"/>
</svg>