<?xml version="1.0" encoding="UTF-8"?>
<svg id="Layer_1" data-name="Layer 1" xmlns="http://www.w3.org/2000/svg" viewBox="0 0 48 48">
  <defs>
    <style>
      .cls-1 {
        fill: #4170ff;
      }
    </style>
  </defs>
  <path class="cls-1" d="M3.09,16.97V4.93h4.02v4.72c1.71-2.14,3.79-3.8,6.25-4.97,2.46-1.17,5.06-1.76,7.81-1.76,5.02,0,9.29,1.76,12.8,5.27,3.51,3.51,5.27,7.78,5.27,12.8h-4.02c0-3.92-1.36-7.24-4.09-9.96-2.73-2.73-6.05-4.09-9.96-4.09-2.31,0-4.47.54-6.47,1.61-2.01,1.07-3.7,2.54-5.07,4.42h5.52v4.02H3.09ZM3.19,23h4.12c.4,3.11,1.68,5.75,3.84,7.91,2.16,2.16,4.74,3.47,7.75,3.94l2.41,4.22c-4.62,0-8.67-1.53-12.15-4.59-3.48-3.06-5.47-6.88-5.97-11.47ZM23.87,26.51l-4.72-4.72v-10.84h4.02v9.24l2.81,2.81-2.11,3.51ZM33.16,45.08l-.6-3.01c-.4-.17-.78-.34-1.13-.53s-.71-.41-1.08-.68l-2.91.9-2.01-3.41,2.31-2.01c-.07-.44-.1-.87-.1-1.31s.03-.87.1-1.31l-2.31-2.01,2.01-3.41,2.91.9c.37-.27.73-.49,1.08-.68s.73-.36,1.13-.53l.6-3.01h4.02l.6,3.01c.4.17.79.36,1.15.58s.72.46,1.05.73l2.91-1,2.01,3.51-2.31,2.01c.07.44.1.85.1,1.25s-.03.82-.1,1.25l2.31,2.01-2.01,3.41-2.91-.9c-.37.27-.73.49-1.08.68s-.73.36-1.13.53l-.6,3.01h-4.02ZM35.17,39.06c1.1,0,2.05-.39,2.84-1.18.79-.79,1.18-1.73,1.18-2.84s-.39-2.05-1.18-2.84c-.79-.79-1.73-1.18-2.84-1.18s-2.05.39-2.84,1.18c-.79.79-1.18,1.73-1.18,2.84s.39,2.05,1.18,2.84c.79.79,1.73,1.18,2.84,1.18Z"/>
</svg>