<?xml version="1.0" encoding="UTF-8"?>
<svg id="Layer_1" data-name="Layer 1" xmlns="http://www.w3.org/2000/svg" viewBox="0 0 48 48">
  <defs>
    <style>
      .cls-1 {
        fill: #4170ff;
      }
    </style>
  </defs>
  <path class="cls-1" d="M13.15,37.02c-.62,0-1.13-.21-1.55-.62-.42-.42-.62-.93-.62-1.55v-4.34h28.22V10.98h4.34c.62,0,1.13.21,1.55.62s.62.93.62,1.55v32.56l-8.68-8.68H13.15ZM2.29,34.85V4.46c0-.62.21-1.13.62-1.55s.93-.62,1.55-.62h28.22c.62,0,1.13.21,1.55.62s.62.93.62,1.55v19.54c0,.62-.21,1.13-.62,1.55-.42.42-.93.62-1.55.62H10.98l-8.68,8.68ZM30.51,21.83V6.63H6.63v15.2h23.88ZM6.63,21.83V6.63v15.2Z"/>
</svg>