<?xml version="1.0" encoding="UTF-8"?>
<svg id="Layer_1" data-name="Layer 1" xmlns="http://www.w3.org/2000/svg" viewBox="0 0 48 48">
  <defs>
    <style>
      .cls-1 {
        fill: #4170ff;
      }
    </style>
  </defs>
  <path class="cls-1" d="M2.29,37.5v-4.48h6.16l-.9-.78c-1.94-1.72-3.31-3.68-4.09-5.88-.78-2.2-1.18-4.43-1.18-6.67,0-4.15,1.24-7.84,3.73-11.07,2.48-3.23,5.72-5.37,9.72-6.42v4.71c-2.69.97-4.86,2.62-6.5,4.96-1.64,2.33-2.47,4.94-2.47,7.82,0,1.68.32,3.32.95,4.9.64,1.59,1.62,3.05,2.97,4.4l.56.56v-5.49h4.48v13.45H2.29ZM42.46,17.33h-4.54c-.19-1.31-.59-2.56-1.2-3.75-.62-1.2-1.45-2.33-2.49-3.42l-.56-.56v5.49h-4.48V1.64h13.45v4.48h-6.16l.9.78c1.53,1.57,2.71,3.23,3.53,4.99.82,1.76,1.34,3.57,1.57,5.44ZM30.11,46.36l-.8-4c-.53-.22-1.03-.46-1.5-.7s-.94-.54-1.43-.9l-3.87,1.2-2.67-4.53,3.07-2.67c-.09-.62-.13-1.2-.13-1.73s.04-1.11.13-1.73l-3.07-2.67,2.67-4.53,3.87,1.2c.49-.36.97-.66,1.43-.9s.97-.48,1.5-.7l.8-4h5.33l.8,4c.53.22,1.03.47,1.5.73.47.27.94.6,1.43,1l3.87-1.33,2.67,4.67-3.07,2.67c.09.53.13,1.09.13,1.67s-.04,1.13-.13,1.67l3.07,2.67-2.67,4.53-3.87-1.2c-.49.36-.97.66-1.43.9s-.97.48-1.5.7l-.8,4h-5.33ZM32.78,38.36c1.47,0,2.72-.52,3.77-1.57s1.57-2.3,1.57-3.77-.52-2.72-1.57-3.77c-1.04-1.04-2.3-1.57-3.77-1.57s-2.72.52-3.77,1.57c-1.04,1.04-1.57,2.3-1.57,3.77s.52,2.72,1.57,3.77,2.3,1.57,3.77,1.57Z"/>
</svg>