<?xml version="1.0" encoding="UTF-8"?>
<svg id="Layer_1" data-name="Layer 1" xmlns="http://www.w3.org/2000/svg" viewBox="0 0 48 48">
  <defs>
    <style>
      .cls-1 {
        fill: #4170ff;
      }
    </style>
  </defs>
  <path class="cls-1" d="M3.09,17.78c.58-4.27,2.48-7.83,5.69-10.67,3.22-2.84,7.04-4.26,11.48-4.26,2.45,0,4.74.47,6.88,1.4,2.14.93,3.99,2.21,5.57,3.83V2.84h4.98v14.94h-14.94v-4.98h7.47c-1.2-1.49-2.65-2.7-4.33-3.61s-3.56-1.37-5.63-1.37c-2.99,0-5.62.94-7.9,2.83-2.28,1.89-3.71,4.26-4.29,7.13H3.09ZM41.68,45.16l-10.95-10.95c-1.49,1.12-3.12,1.98-4.89,2.58-1.76.6-3.62.9-5.57.9-2.45,0-4.74-.47-6.88-1.4-2.14-.93-3.99-2.21-5.57-3.83v5.23H2.84v-14.94h14.94v4.98h-7.47c1.2,1.49,2.65,2.7,4.33,3.61s3.56,1.37,5.63,1.37c2.99,0,5.62-.94,7.9-2.83,2.28-1.89,3.71-4.26,4.29-7.13h4.98c-.21,1.49-.58,2.89-1.12,4.2-.54,1.31-1.24,2.56-2.12,3.77l10.95,10.95-3.49,3.49Z"/>
</svg>