<?xml version="1.0" encoding="UTF-8"?>
<svg id="Layer_1" data-name="Layer 1" xmlns="http://www.w3.org/2000/svg" viewBox="0 0 48 48">
  <defs>
    <style>
      .cls-1 {
        fill: #fff;
      }
    </style>
  </defs>
  <path class="cls-1" d="M30.8,33.07h9.07v-9.07h-3.4v5.67h-5.67v3.4ZM24,30.8c1.89,0,3.49-.66,4.82-1.98s1.98-2.93,1.98-4.82-.66-3.49-1.98-4.82c-1.32-1.32-2.93-1.98-4.82-1.98s-3.49.66-4.82,1.98c-1.32,1.32-1.98,2.93-1.98,4.82s.66,3.49,1.98,4.82c1.32,1.32,2.93,1.98,4.82,1.98ZM8.13,24h3.4v-5.67h5.67v-3.4h-9.07v9.07ZM1.33,39.87V8.13h45.34v31.74H1.33ZM5.87,35.33h36.27V12.67H5.87v22.67ZM5.87,35.33V12.67v22.67Z"/>
</svg>