<?xml version="1.0" encoding="UTF-8"?>
<svg id="Layer_1" data-name="Layer 1" xmlns="http://www.w3.org/2000/svg" viewBox="0 0 48 48">
  <defs>
    <style>
      .cls-1 {
        fill: #fff;
      }
    </style>
  </defs>
  <path class="cls-1" d="M16.44,31.56v-15.13h15.13v15.13h-15.13ZM21.48,26.52h5.04v-5.04h-5.04v5.04ZM16.44,46.69v-5.04h-5.04c-1.39,0-2.57-.49-3.56-1.48-.99-.99-1.48-2.17-1.48-3.56v-5.04H1.31v-5.04h5.04v-5.04H1.31v-5.04h5.04v-5.04c0-1.39.49-2.57,1.48-3.56.99-.99,2.17-1.48,3.56-1.48h5.04V1.31h5.04v5.04h5.04V1.31h5.04v5.04h5.04c1.39,0,2.57.49,3.56,1.48s1.48,2.17,1.48,3.56v5.04h5.04v5.04h-5.04v5.04h5.04v5.04h-5.04v5.04c0,1.39-.49,2.57-1.48,3.56s-2.17,1.48-3.56,1.48h-5.04v5.04h-5.04v-5.04h-5.04v5.04h-5.04ZM36.61,36.61V11.39H11.39v25.22h25.22Z"/>
</svg>