<?xml version="1.0" encoding="UTF-8"?>
<svg id="Layer_1" data-name="Layer 1" xmlns="http://www.w3.org/2000/svg" viewBox="0 0 48 48">
  <defs>
    <style>
      .cls-1 {
        fill: #fff;
      }
    </style>
  </defs>
  <path class="cls-1" d="M27.52,43.5c-2.67,0-5.17-.5-7.5-1.49-2.33-.99-4.38-2.36-6.15-4.09l3.09-3.09c1.37,1.34,2.96,2.39,4.77,3.17,1.81.78,3.74,1.16,5.8,1.16,4.19,0,7.76-1.48,10.72-4.44,2.96-2.96,4.44-6.54,4.44-10.72s-1.48-7.76-4.44-10.72c-2.96-2.96-6.54-4.44-10.72-4.44s-7.76,1.48-10.72,4.44c-2.96,2.96-4.44,6.54-4.44,10.72v.38l3.95-3.95,3.09,3.03-9.21,9.21L.98,23.46l3.09-3.03,3.95,4.01v-.43c0-2.71.51-5.24,1.54-7.61s2.42-4.42,4.17-6.17c1.75-1.75,3.81-3.14,6.17-4.17s4.9-1.54,7.61-1.54,5.24.51,7.61,1.54c2.37,1.03,4.42,2.42,6.17,4.17s3.14,3.81,4.17,6.17,1.54,4.9,1.54,7.61c0,5.42-1.9,10.02-5.69,13.81s-8.4,5.69-13.81,5.69ZM24.73,32.67c-.61,0-1.13-.21-1.54-.62s-.62-.93-.62-1.54v-6.5c0-.61.21-1.13.62-1.54.42-.42.93-.62,1.54-.62v-2.17c0-1.19.42-2.21,1.27-3.06s1.87-1.27,3.06-1.27,2.21.42,3.06,1.27c.85.85,1.27,1.87,1.27,3.06v2.17c.61,0,1.13.21,1.54.62.42.42.62.93.62,1.54v6.5c0,.61-.21,1.13-.62,1.54s-.93.62-1.54.62h-8.67ZM26.9,21.83h4.33v-2.17c0-.61-.21-1.13-.62-1.54s-.93-.62-1.54-.62-1.13.21-1.54.62-.62.93-.62,1.54v2.17Z"/>
</svg>