<?xml version="1.0" encoding="UTF-8"?>
<svg id="Layer_1" data-name="Layer 1" xmlns="http://www.w3.org/2000/svg" viewBox="0 0 48 48">
  <defs>
    <style>
      .cls-1 {
        fill: #fff;
      }
    </style>
  </defs>
  <path class="cls-1" d="M2.17,37.57v-4.51h6.2l-.9-.79c-1.95-1.73-3.32-3.7-4.11-5.91s-1.18-4.45-1.18-6.7c0-4.17,1.25-7.88,3.75-11.12,2.5-3.25,5.75-5.4,9.77-6.45v4.73c-2.7.98-4.88,2.64-6.53,4.98-1.65,2.35-2.48,4.97-2.48,7.86,0,1.69.32,3.33.96,4.93.64,1.6,1.63,3.07,2.99,4.42l.56.56v-5.52h4.51v13.52H2.17ZM42.56,17.3h-4.56c-.19-1.31-.59-2.57-1.21-3.77-.62-1.2-1.46-2.35-2.51-3.44l-.56-.56v5.52h-4.51V1.53h13.52v4.51h-6.2l.9.79c1.54,1.58,2.72,3.25,3.55,5.01.83,1.76,1.35,3.59,1.58,5.46ZM30.14,46.47l-.8-4.02c-.54-.22-1.04-.46-1.51-.7s-.95-.55-1.44-.9l-3.89,1.21-2.68-4.56,3.08-2.68c-.09-.63-.13-1.21-.13-1.74s.04-1.12.13-1.74l-3.08-2.68,2.68-4.56,3.89,1.21c.49-.36.97-.66,1.44-.9s.97-.48,1.51-.7l.8-4.02h5.36l.8,4.02c.54.22,1.04.47,1.51.74s.95.6,1.44,1.01l3.89-1.34,2.68,4.69-3.08,2.68c.09.54.13,1.09.13,1.68s-.04,1.14-.13,1.68l3.08,2.68-2.68,4.56-3.89-1.21c-.49.36-.97.66-1.44.9s-.97.48-1.51.7l-.8,4.02h-5.36ZM32.82,38.43c1.47,0,2.74-.53,3.79-1.58s1.58-2.31,1.58-3.79-.53-2.74-1.58-3.79-2.31-1.58-3.79-1.58-2.74.53-3.79,1.58-1.58,2.31-1.58,3.79.53,2.74,1.58,3.79,2.31,1.58,3.79,1.58Z"/>
</svg>