<?xml version="1.0" encoding="UTF-8"?>
<svg id="Layer_1" data-name="Layer 1" xmlns="http://www.w3.org/2000/svg" viewBox="0 0 48 48">
  <defs>
    <style>
      .cls-1 {
        fill: #4170ff;
        fill-rule: evenodd;
        stroke-width: 0px;
      }
    </style>
  </defs>
  <path class="cls-1" d="M42.09,12.31c0,.4-.02.8-.06,1.2-.02.23-.05.46-.09.68h-4.54c-.35,0-.64.29-.64.64,0,.84-.68,1.53-1.53,1.53s-1.53-.68-1.53-1.53c0-.35-.29-.64-.64-.64h-3.7v-3.13c1.51-.35,2.44-1.86,2.09-3.37-.24-1.04-1.05-1.85-2.09-2.09V0c3.28.12,6.41,1.4,8.83,3.61,2.46,2.23,3.87,5.38,3.89,8.7ZM15.25,37.21v2.39c0,1.32,1.07,2.38,2.39,2.39h11.24c1.32,0,2.38-1.07,2.39-2.39v-2.39H15.25ZM19.05,46.3c0,.94.76,1.7,1.7,1.7h5.03c.94,0,1.69-.76,1.7-1.7v-1.7h-8.42v1.7ZM32.48,21.73c-1.09,1.09-2.87,1.09-3.96,0-.37-.37-.63-.83-.75-1.34h-3.13v3.7c0,.35-.29.64-.64.64h0c-.84-.02-1.54.66-1.56,1.5-.02.84.66,1.54,1.5,1.56.02,0,.04,0,.06,0,.35,0,.64.29.64.64h0v6.18h7.37c-.04-1.69.1-3.38.43-5.03.46-1.96,1.35-3.79,2.59-5.37.51-.68.94-1.42,1.29-2.19.24-.52.44-1.06.59-1.61h-3.69c-.12.51-.38.98-.75,1.35ZM22.02,28.98c-1.51-.35-2.44-1.86-2.09-3.37.24-1.04,1.05-1.85,2.09-2.09v-3.13h-3.7c-.35,0-.64-.29-.64-.64h0c0-.84-.68-1.53-1.53-1.53s-1.53.68-1.53,1.53c0,.35-.29.64-.64.64h-4.26c.05.16.1.33.15.49.4,1.19.99,2.31,1.74,3.32,1.24,1.58,2.12,3.42,2.59,5.37.33,1.66.48,3.34.43,5.03h7.38v-5.61ZM14.17,16.43c1.1-1.09,2.87-1.09,3.96,0,.37.37.63.83.75,1.34h3.13v-3.7c0-.35.29-.64.64-.64h0c.84,0,1.53-.68,1.53-1.53s-.68-1.53-1.53-1.53c-.35,0-.64-.29-.64-.64h0V3.58c-3.28.12-6.41,1.4-8.83,3.61-2.46,2.23-3.87,5.38-3.89,8.7,0,.63.05,1.26.15,1.88h3.98c.12-.51.38-.97.75-1.34Z"/>
</svg>