<?xml version="1.0" encoding="UTF-8"?>
<svg id="Layer_1" data-name="Layer 1" xmlns="http://www.w3.org/2000/svg" viewBox="0 0 48 48">
  <defs>
    <style>
      .cls-1 {
        fill: #4170ff;
        stroke-width: 0px;
      }
    </style>
  </defs>
  <path class="cls-1" d="M7.16,48c-1.43,0-2.65-.5-3.66-1.51-1-1-1.51-2.22-1.51-3.66v-5.16h5.16V13.59h25.81v29.25c0,1.43-.5,2.65-1.51,3.66-1,1-2.22,1.51-3.66,1.51H7.16ZM27.81,44.56c.49,0,.9-.16,1.23-.49s.49-.74.49-1.23v-25.81H10.6v20.65h15.49v5.16c0,.49.16.9.49,1.23s.74.49,1.23.49ZM12.32,25.63v-3.44h15.49v3.44h-15.49ZM12.32,30.79v-3.44h15.49v3.44h-15.49ZM7.16,44.56h15.49v-3.44H5.44v1.72c0,.49.16.9.49,1.23s.74.49,1.23.49ZM7.16,44.56h-1.72,17.21H7.16Z"/>
  <polygon class="cls-1" points="46 7.8 43.27 10.52 40.15 7.45 40.15 27.33 36.26 27.33 36.26 7.45 33.14 10.57 30.41 7.8 38.2 0 46 7.8"/>
</svg>