<svg width="148" height="47" viewBox="0 0 148 47" fill="none" xmlns="http://www.w3.org/2000/svg">
<g clip-path="url(#clip0_597_1081)">
<path d="M21.5409 24.9188H0.527344V45.9225H21.5409V24.9188Z" stroke="#F0F0F0" stroke-width="4.05" stroke-miterlimit="15.24"/>
<path d="M22.0706 46.4508H0V24.3905L22.0706 46.4508Z" fill="#F0F0F0"/>
<path d="M137.395 41.2358C137.484 41.9943 137.683 42.533 137.982 42.8521C138.513 43.4196 139.497 43.7047 140.93 43.7047C141.773 43.7047 142.443 43.5792 142.94 43.3307C143.437 43.0822 143.683 42.7056 143.683 42.2087C143.683 41.7118 143.484 41.3666 143.084 41.1155C142.684 40.8645 141.195 40.4382 138.62 39.8288C136.765 39.3685 135.459 38.7957 134.7 38.1079C133.942 37.4305 133.562 36.4524 133.562 35.1735C133.562 33.6671 134.156 32.3725 135.341 31.2898C136.527 30.207 138.196 29.6656 140.347 29.6656C142.498 29.6656 144.049 30.0736 145.337 30.887C146.621 31.7004 147.362 33.1048 147.55 35.1029H143.283C143.223 34.5537 143.068 34.1195 142.817 33.8005C142.346 33.2225 141.545 32.9322 140.415 32.9322C139.483 32.9322 138.821 33.0786 138.426 33.3663C138.031 33.654 137.832 33.994 137.832 34.3837C137.832 34.8727 138.042 35.2284 138.463 35.4481C138.882 35.6783 140.368 36.0732 142.919 36.6302C144.62 37.0304 145.894 37.6345 146.742 38.4427C147.579 39.2613 148 40.2839 148 41.5104C148 43.1267 147.399 44.4474 146.192 45.47C144.986 46.4926 143.123 47.0052 140.603 47.0052C138.084 47.0052 136.134 46.4639 134.907 45.3811C133.68 44.2984 133.07 42.9175 133.07 41.2411H137.398L137.395 41.2358Z" fill="#F0F0F0"/>
<path d="M126.664 30.1285H130.992V46.4455H126.664V30.1285ZM130.992 28.1827H126.664V24.2467H130.992V28.1827Z" fill="#F0F0F0"/>
<path d="M123.182 46.4455H118.914V24.3801H123.182V46.4455Z" fill="#F0F0F0"/>
<path d="M111.267 38.5133C110.995 38.6833 110.72 38.8219 110.44 38.9265C110.163 39.0311 109.781 39.1279 109.294 39.2168L108.323 39.3973C107.413 39.5568 106.759 39.7529 106.364 39.9805C105.691 40.3702 105.354 40.9743 105.354 41.7929C105.354 42.5226 105.56 43.0482 105.968 43.3725C106.379 43.6968 106.879 43.859 107.468 43.859C108.402 43.859 109.26 43.5896 110.045 43.0509C110.83 42.5121 111.238 41.5287 111.27 40.1034V38.5159L111.267 38.5133ZM108.658 36.5204C109.454 36.421 110.021 36.2955 110.364 36.1464C110.976 35.8875 111.283 35.4821 111.283 34.9329C111.283 34.2634 111.047 33.8031 110.579 33.5494C110.108 33.2957 109.417 33.1676 108.506 33.1676C107.483 33.1676 106.759 33.4186 106.335 33.9182C106.031 34.2869 105.83 34.7864 105.728 35.4141H101.609C101.698 33.9861 102.101 32.8145 102.813 31.8965C103.946 30.4581 105.89 29.7389 108.648 29.7389C110.443 29.7389 112.039 30.0945 113.431 30.8033C114.825 31.5121 115.521 32.8485 115.521 34.8152V42.3003C115.521 42.8181 115.532 43.4484 115.55 44.1859C115.579 44.743 115.665 45.1248 115.807 45.3236C115.948 45.5223 116.155 45.6897 116.435 45.8179V46.4456H111.793C111.662 46.116 111.573 45.8074 111.523 45.5171C111.474 45.2294 111.434 44.8973 111.403 44.5285C110.812 45.1667 110.129 45.7107 109.354 46.1605C108.431 46.6888 107.387 46.9529 106.222 46.9529C104.736 46.9529 103.509 46.5319 102.541 45.6871C101.573 44.845 101.086 43.6498 101.086 42.1015C101.086 40.0955 101.866 38.644 103.425 37.747C104.281 37.2579 105.537 36.9101 107.198 36.7009L108.661 36.5204H108.658Z" fill="#F0F0F0"/>
<path d="M85.6172 24.4559H89.8115V36.3582L95.1938 30.2044H100.503L94.6521 36.2824L100.73 46.4455H95.5365L91.5829 39.4731L89.8141 41.3091V46.4455H85.6198V24.4559H85.6172Z" fill="#F0F0F0"/>
<path d="M72.8343 41.2358C72.9258 41.9943 73.1221 42.533 73.4204 42.8521C73.9515 43.4196 74.9354 43.7047 76.3692 43.7047C77.2118 43.7047 77.8816 43.5792 78.3787 43.3307C78.8759 43.0822 79.1245 42.7056 79.1245 42.2087C79.1245 41.7118 78.923 41.3666 78.5253 41.1155C78.1249 40.8645 76.6361 40.4382 74.0614 39.8288C72.2063 39.3685 70.9006 38.7957 70.1418 38.1079C69.383 37.4305 69.0036 36.4524 69.0036 35.1735C69.0036 33.6671 69.5976 32.3725 70.7829 31.2898C71.9682 30.207 73.6375 29.6656 75.7883 29.6656C77.9392 29.6656 79.4934 30.0736 80.7781 30.887C82.0628 31.7004 82.8033 33.1048 82.9917 35.1029H78.7241C78.6639 34.5537 78.5096 34.1195 78.2584 33.8005C77.7874 33.2225 76.9867 32.9322 75.8564 32.9322C74.9249 32.9322 74.2629 33.0786 73.8678 33.3663C73.4727 33.654 73.2738 33.994 73.2738 34.3837C73.2738 34.8727 73.4832 35.2284 73.9044 35.4481C74.3231 35.6783 75.8093 36.0732 78.3604 36.6302C80.0612 37.0304 81.3328 37.6345 82.1832 38.4427C83.0231 39.2613 83.4418 40.2839 83.4418 41.5104C83.4418 43.1267 82.84 44.4474 81.6337 45.47C80.4275 46.4926 78.5645 47.0052 76.0448 47.0052C73.525 47.0052 71.5757 46.4639 70.3485 45.3811C69.124 44.2984 68.5117 42.9175 68.5117 41.2411H72.8395L72.8343 41.2358Z" fill="#F0F0F0"/>
<path d="M61.7522 42.091C62.4221 41.2044 62.7544 39.9439 62.7544 38.3093C62.7544 36.6747 62.4195 35.4167 61.7522 34.5354C61.0824 33.654 60.1247 33.212 58.8766 33.212C57.6286 33.212 56.6683 33.654 55.9932 34.5354C55.3181 35.4167 54.9806 36.6747 54.9806 38.3093C54.9806 39.9439 55.3181 41.2044 55.9932 42.091C56.6683 42.9776 57.6286 43.4196 58.8766 43.4196C60.1247 43.4196 61.0824 42.9776 61.7522 42.091ZM65.1668 44.4501C63.7879 46.15 61.6973 47 58.8923 47C56.0874 47 53.9942 46.15 52.6179 44.4501C51.2389 42.7501 50.5508 40.7049 50.5508 38.3119C50.5508 35.9189 51.2389 33.9208 52.6179 32.1946C53.9968 30.4712 56.0874 29.6081 58.8923 29.6081C61.6973 29.6081 63.7905 30.4712 65.1668 32.1946C66.5458 33.9208 67.2339 35.9581 67.2339 38.3119C67.2339 40.6657 66.5458 42.7501 65.1668 44.4501Z" fill="#F0F0F0"/>
<path d="M35.3008 36.7296V42.6115H40.6595C41.6171 42.6115 42.3628 42.4807 42.8966 42.2218C43.8621 41.7432 44.3462 40.8252 44.3462 39.4679C44.3462 38.3197 43.8778 37.5325 42.9385 37.101C42.4152 36.863 41.6799 36.7375 40.7327 36.727H35.2982L35.3008 36.7296ZM35.3008 28.2141V33.0786H40.6673C41.625 33.0786 42.4047 32.8955 43.0013 32.532C43.5979 32.1685 43.8988 31.5199 43.8988 30.5941C43.8988 29.5662 43.5037 28.8889 42.7135 28.5593C42.0305 28.3292 41.1618 28.2167 40.1048 28.2167H35.3034L35.3008 28.2141ZM47.2872 26.7312C47.9649 27.6701 48.3024 28.7921 48.3024 30.0998C48.3024 31.4074 47.9623 32.5294 47.2793 33.348C46.8973 33.8083 46.3374 34.2267 45.5969 34.606C46.722 35.0166 47.5724 35.6652 48.148 36.5518C48.7211 37.4384 49.0089 38.5185 49.0089 39.7843C49.0089 41.0501 48.6818 42.2636 48.0251 43.3019C47.6064 43.9898 47.0857 44.5704 46.4604 45.0385C45.7565 45.5773 44.9244 45.9486 43.9668 46.1448C43.0091 46.3462 41.9677 46.4455 40.8479 46.4455H30.9023V24.3801H41.57C44.2625 24.4193 46.1699 25.2039 47.2898 26.7286" fill="#F0F0F0"/>
<path d="M9.41697 4.78343V15.1558H12.6563V4.78343C12.1199 4.74681 11.5809 4.72851 11.0445 4.72851H11.0261C10.4898 4.72851 9.95336 4.74943 9.41697 4.78343ZM9.41697 3.23777H12.6563V0H9.41697V3.23777ZM22.0706 7.50598L22.0654 7.51383L19.9748 15.1558H16.6622L18.1641 8.69595C16.8715 8.23304 15.4298 7.89305 13.9593 7.68905L14.255 4.95081C17.2666 5.35357 20.1082 6.27678 22.068 7.50598M2.50404 16.7224L3.39628 19.9758H18.6717L19.5666 16.7224H2.50404ZM7.81302 4.95081L8.11131 7.68905C6.64081 7.89305 5.19909 8.23304 3.90651 8.69595L5.4058 15.1558H2.09586L0.0052331 7.51121L0 7.50337C1.9598 6.27678 4.80137 5.35357 7.81302 4.94819" fill="#F0F0F0"/>
</g>
<defs>
<clipPath id="clip0_597_1081">
<rect width="148" height="47" fill="white"/>
</clipPath>
</defs>
</svg>
