<?xml version="1.0" encoding="UTF-8"?>
<svg id="Layer_1" data-name="Layer 1" xmlns="http://www.w3.org/2000/svg" viewBox="0 0 48 48">
  <defs>
    <style>
      .cls-1 {
        fill: #4170ff;
      }
    </style>
  </defs>
  <path class="cls-1" d="M1.79,16.53V3.73h4.27v5.01c1.81-2.28,4.03-4.04,6.64-5.28,2.61-1.24,5.38-1.87,8.29-1.87,5.33,0,9.87,1.87,13.6,5.6,3.73,3.73,5.6,8.27,5.6,13.6h-4.27c0-4.16-1.45-7.69-4.35-10.59s-6.43-4.35-10.59-4.35c-2.45,0-4.75.57-6.88,1.71-2.13,1.14-3.93,2.7-5.39,4.69h5.87v4.27H1.79ZM1.89,22.93h4.37c.43,3.31,1.79,6.11,4.08,8.4s5.04,3.69,8.24,4.19l2.56,4.48c-4.91,0-9.21-1.63-12.91-4.88-3.7-3.25-5.81-7.32-6.35-12.19ZM23.87,26.67l-5.01-5.01v-11.52h4.27v9.81l2.99,2.99-2.24,3.73ZM33.73,46.4l-.64-3.2c-.43-.18-.83-.36-1.2-.56-.37-.2-.76-.44-1.15-.72l-3.09.96-2.13-3.63,2.45-2.13c-.07-.46-.11-.92-.11-1.39s.04-.92.11-1.39l-2.45-2.13,2.13-3.63,3.09.96c.39-.28.77-.52,1.15-.72.37-.2.77-.38,1.2-.56l.64-3.2h4.27l.64,3.2c.43.18.84.38,1.23.61s.76.49,1.12.77l3.09-1.07,2.13,3.73-2.45,2.13c.07.46.11.91.11,1.33s-.04.87-.11,1.33l2.45,2.13-2.13,3.63-3.09-.96c-.39.28-.77.52-1.15.72s-.77.38-1.2.56l-.64,3.2h-4.27ZM35.87,40c1.17,0,2.18-.42,3.01-1.25.84-.84,1.25-1.84,1.25-3.01s-.42-2.18-1.25-3.01c-.84-.84-1.84-1.25-3.01-1.25s-2.18.42-3.01,1.25c-.84.84-1.25,1.84-1.25,3.01s.42,2.18,1.25,3.01c.84.84,1.84,1.25,3.01,1.25Z"/>
</svg>