<?xml version="1.0" encoding="UTF-8"?>
<svg id="Layer_1" data-name="Layer 1" xmlns="http://www.w3.org/2000/svg" viewBox="0 0 48 48">
  <defs>
    <style>
      .cls-1 {
        fill: #4170ff;
      }
    </style>
  </defs>
  <path class="cls-1" d="M21.45,46.99l-2.86-2.91,3.73-3.73h-6.85c-.44,1.19-1.18,2.17-2.22,2.94-1.04.77-2.22,1.15-3.55,1.15-1.7,0-3.15-.6-4.34-1.79-1.19-1.19-1.79-2.64-1.79-4.34,0-1.33.38-2.51,1.15-3.55.77-1.04,1.75-1.78,2.94-2.22V15.47c-1.19-.44-2.17-1.18-2.94-2.22s-1.15-2.22-1.15-3.55c0-1.7.6-3.15,1.79-4.34,1.19-1.19,2.64-1.79,4.34-1.79,1.33,0,2.51.38,3.55,1.15,1.04.77,1.78,1.75,2.22,2.94h6.85l-3.73-3.73,2.86-2.91,8.68,8.68-8.68,8.68-2.86-2.91,3.73-3.73h-6.85c-.31.89-.78,1.65-1.43,2.3s-1.41,1.12-2.3,1.43v17.06c.89.31,1.65.78,2.3,1.43.65.65,1.12,1.41,1.43,2.3h6.85l-3.73-3.73,2.86-2.91,8.68,8.68-8.68,8.68ZM38.3,44.43c-1.7,0-3.15-.6-4.34-1.79-1.19-1.19-1.79-2.64-1.79-4.34,0-1.36.38-2.56,1.15-3.6.77-1.04,1.75-1.76,2.94-2.17V15.47c-1.19-.41-2.17-1.13-2.94-2.17s-1.15-2.24-1.15-3.6c0-1.7.6-3.15,1.79-4.34,1.19-1.19,2.64-1.79,4.34-1.79s3.15.6,4.34,1.79c1.19,1.19,1.79,2.64,1.79,4.34,0,1.36-.38,2.56-1.15,3.6-.77,1.04-1.75,1.76-2.94,2.17v17.06c1.19.44,2.17,1.18,2.94,2.22.77,1.04,1.15,2.22,1.15,3.55,0,1.7-.6,3.15-1.79,4.34-1.19,1.19-2.64,1.79-4.34,1.79Z"/>
</svg>