<?xml version="1.0" encoding="UTF-8"?>
<svg id="Layer_1" data-name="Layer 1" xmlns="http://www.w3.org/2000/svg" viewBox="0 0 48 48">
  <defs>
    <style>
      .cls-1 {
        fill: #4170ff;
      }
    </style>
  </defs>
  <path class="cls-1" d="M12.4,41.26c-3.2,0-5.93-1.11-8.2-3.32-2.27-2.21-3.4-4.92-3.4-8.12,0-2.74.83-5.19,2.48-7.33,1.65-2.14,3.81-3.52,6.49-4.11.6-2.53,2.09-4.94,4.48-7.22,2.39-2.28,4.94-3.43,7.65-3.43,1.16,0,2.15.41,2.98,1.24.83.83,1.24,1.82,1.24,2.98v12.76l3.37-3.27,2.95,2.95-8.44,8.44-8.44-8.44,2.95-2.95,3.37,3.27v-12.76c-2.67.49-4.75,1.78-6.22,3.88-1.48,2.09-2.21,4.24-2.21,6.46h-1.05c-2.04,0-3.78.72-5.22,2.16-1.44,1.44-2.16,3.18-2.16,5.22s.72,3.78,2.16,5.22c1.44,1.44,3.18,2.16,5.22,2.16h25.31c1.48,0,2.72-.51,3.74-1.53,1.02-1.02,1.53-2.27,1.53-3.74s-.51-2.72-1.53-3.74c-1.02-1.02-2.27-1.53-3.74-1.53h-3.16v-4.22c0-1.69-.39-3.26-1.16-4.72s-1.79-2.7-3.06-3.72v-4.9c2.6,1.23,4.66,3.05,6.17,5.46s2.27,5.04,2.27,7.88c2.43.28,4.44,1.33,6.04,3.14,1.6,1.81,2.4,3.93,2.4,6.35,0,2.64-.92,4.88-2.77,6.72-1.85,1.85-4.09,2.77-6.72,2.77H12.4Z"/>
</svg>