<!DOCTYPE svg PUBLIC "-//W3C//DTD SVG 1.1//EN" "http://www.w3.org/Graphics/SVG/1.1/DTD/svg11.dtd">
<!-- Uploaded to: SVG Repo, www.svgrepo.com, Transformed by: SVG Repo Mixer Tools -->
<svg width="800px" height="800px" viewBox="0 0 24 24" xmlns="http://www.w3.org/2000/svg" id="cart-check" class="icon glyph" fill="#ffffff" stroke="#ffffff">
<g id="SVGRepo_bgCarrier" stroke-width="0"/>
<g id="SVGRepo_tracerCarrier" stroke-linecap="round" stroke-linejoin="round"/>
<g id="SVGRepo_iconCarrier">
<path d="M18.22,17H9.8a2,2,0,0,1-2-1.55L5.2,4H3A1,1,0,0,1,3,2H5.2a2,2,0,0,1,2,1.55L9.8,15h8.42L20,7.76A1,1,0,0,1,22,8.24l-1.81,7.25A2,2,0,0,1,18.22,17ZM16.5,19A1.5,1.5,0,1,0,18,20.5,1.5,1.5,0,0,0,16.5,19Zm-5,0A1.5,1.5,0,1,0,13,20.5,1.5,1.5,0,0,0,11.5,19Zm3.21-9.29,4-4a1,1,0,1,0-1.42-1.42L14,7.59l-1.29-1.3a1,1,0,0,0-1.42,1.42l2,2a1,1,0,0,0,1.42,0Z" style="fill:#ffffff"/>
</g>
</svg>