<?xml version="1.0" encoding="UTF-8"?>
<svg id="Layer_1" data-name="Layer 1" xmlns="http://www.w3.org/2000/svg" viewBox="0 0 48 48">
  <defs>
    <style>
      .cls-1 {
        fill: #4170ff;
        stroke-width: 0px;
      }
    </style>
  </defs>
  <path class="cls-1" d="M5.62,40.34c-1.12,0-2.08-.4-2.88-1.2-.8-.8-1.2-1.76-1.2-2.88V13.79h4.08v22.46h34.71v4.08H5.62ZM13.79,32.17c-1.12,0-2.08-.4-2.88-1.2s-1.2-1.76-1.2-2.88V11.75c0-1.12.4-2.08,1.2-2.88.8-.8,1.76-1.2,2.88-1.2h28.59c1.12,0,2.08.4,2.88,1.2.8.8,1.2,1.76,1.2,2.88v16.34c0,1.12-.4,2.08-1.2,2.88-.8.8-1.76,1.2-2.88,1.2H13.79ZM17.87,28.08c0-1.12-.4-2.08-1.2-2.88s-1.76-1.2-2.88-1.2v4.08h4.08ZM38.29,28.08h4.08v-4.08c-1.12,0-2.08.4-2.88,1.2-.8.8-1.2,1.76-1.2,2.88ZM28.08,26.04c1.7,0,3.15-.6,4.34-1.79s1.79-2.64,1.79-4.34-.6-3.15-1.79-4.34-2.64-1.79-4.34-1.79-3.15.6-4.34,1.79-1.79,2.64-1.79,4.34.6,3.15,1.79,4.34,2.64,1.79,4.34,1.79ZM13.79,15.83c1.12,0,2.08-.4,2.88-1.2s1.2-1.76,1.2-2.88h-4.08v4.08ZM42.38,15.83v-4.08h-4.08c0,1.12.4,2.08,1.2,2.88.8.8,1.76,1.2,2.88,1.2Z"/>
  <path class="cls-1" d="M27.7,23.04c-.34.28-.74.47-1.21.55v.7h-.99v-.73c-.44-.1-.8-.29-1.08-.57-.28-.28-.48-.64-.61-1.09l.93-.37c.11.39.29.67.53.87.24.19.51.29.82.29s.58-.07.8-.22c.22-.15.33-.37.33-.68,0-.27-.12-.49-.35-.66-.23-.17-.64-.36-1.23-.58-.55-.2-.96-.43-1.22-.7s-.39-.63-.39-1.07c0-.39.13-.73.39-1.04s.63-.52,1.1-.62v-.71h.99v.71c.34.03.65.16.92.41.28.24.47.53.57.86l-.9.37c-.08-.22-.2-.4-.37-.54-.17-.15-.4-.22-.7-.22-.33,0-.58.07-.75.21-.17.14-.26.33-.26.58s.11.44.32.58c.22.14.61.31,1.17.49.68.24,1.13.53,1.35.86s.34.69.34,1.09c0,.55-.17.97-.51,1.25Z"/>
</svg>