<?xml version="1.0" encoding="UTF-8"?>
<svg id="Layer_1" data-name="Layer 1" xmlns="http://www.w3.org/2000/svg" viewBox="0 0 48 48">
  <defs>
    <style>
      .cls-1 {
        fill: #4170ff;
        stroke-width: 0px;
      }
    </style>
  </defs>
  <path class="cls-1" d="M9.79,22.93l-.64-3.22c-.43-.18-.83-.37-1.21-.56s-.76-.44-1.15-.72l-3.11.97-2.14-3.65,2.47-2.14c-.07-.46-.11-.93-.11-1.39s.04-.93.11-1.39l-2.47-2.14,2.14-3.65,3.11.97c.39-.29.78-.53,1.15-.72s.78-.38,1.21-.56l.64-3.22h4.29l.64,3.22c.43.18.83.37,1.21.56s.76.44,1.15.72l3.11-.97,2.14,3.65-2.47,2.14c.07.46.11.93.11,1.39s-.04.93-.11,1.39l2.47,2.14-2.14,3.65-3.11-.97c-.39.29-.78.53-1.15.72s-.78.38-1.21.56l-.64,3.22h-4.29ZM11.94,16.49c1.18,0,2.19-.42,3.03-1.26s1.26-1.85,1.26-3.03-.42-2.19-1.26-3.03c-.84-.84-1.85-1.26-3.03-1.26s-2.19.42-3.03,1.26c-.84.84-1.26,1.85-1.26,3.03s.42,2.19,1.26,3.03,1.85,1.26,3.03,1.26ZM28.99,46.52l-.97-4.5c-.61-.21-1.17-.47-1.69-.78s-1.03-.65-1.53-1.05l-4.29,1.39-3-5.15,3.43-3c-.07-.64-.11-1.29-.11-1.93s.04-1.29.11-1.93l-3.43-3,3-5.15,4.29,1.39c.5-.39,1.01-.74,1.53-1.05s1.08-.56,1.69-.78l.97-4.5h6.01l.97,4.5c.61.21,1.17.47,1.69.78.52.3,1.03.65,1.53,1.05l4.29-1.39,3,5.15-3.43,3c.07.64.11,1.29.11,1.93s-.04,1.29-.11,1.93l3.43,3-3,5.15-4.29-1.39c-.5.39-1.01.74-1.53,1.05s-1.08.56-1.69.78l-.97,4.5h-6.01ZM31.99,37.94c1.79,0,3.31-.63,4.56-1.88,1.25-1.25,1.88-2.77,1.88-4.56s-.63-3.31-1.88-4.56-2.77-1.88-4.56-1.88-3.31.63-4.56,1.88-1.88,2.77-1.88,4.56.63,3.31,1.88,4.56c1.25,1.25,2.77,1.88,4.56,1.88Z"/>
</svg>