<?xml version="1.0" encoding="UTF-8"?>
<svg id="Layer_1" data-name="Layer 1" xmlns="http://www.w3.org/2000/svg" viewBox="0 0 48 48">
  <defs>
    <style>
      .cls-1 {
        fill: #4170ff;
        stroke-width: 0px;
      }
    </style>
  </defs>
  <path class="cls-1" d="M.87,37.67v-8.41c0-1.19.41-2.19,1.24-3,.82-.81,1.81-1.21,2.97-1.21h6.89c.7,0,1.37.18,2,.53s1.14.82,1.52,1.42c1.02,1.37,2.27,2.44,3.76,3.21s3.08,1.16,4.76,1.16,3.32-.39,4.81-1.16,2.72-1.84,3.71-3.21c.46-.6.99-1.07,1.6-1.42s1.25-.53,1.92-.53h6.89c1.19,0,2.19.4,3,1.21s1.21,1.8,1.21,3v8.41h-14.72v-4.78c-1.23.88-2.55,1.54-3.97,2s-2.9.68-4.44.68-2.98-.24-4.42-.71c-1.44-.47-2.77-1.15-4-2.02v4.84H.87ZM7.18,22.95c-1.75,0-3.24-.61-4.47-1.84-1.23-1.23-1.84-2.72-1.84-4.47s.61-3.29,1.84-4.49c1.23-1.21,2.72-1.81,4.47-1.81s3.29.6,4.49,1.81c1.21,1.21,1.81,2.71,1.81,4.49s-.6,3.24-1.81,4.47c-1.21,1.23-2.71,1.84-4.49,1.84ZM40.82,22.95c-1.75,0-3.24-.61-4.47-1.84s-1.84-2.72-1.84-4.47.61-3.29,1.84-4.49,2.72-1.81,4.47-1.81,3.29.6,4.49,1.81,1.81,2.71,1.81,4.49-.6,3.24-1.81,4.47-2.71,1.84-4.49,1.84Z"/>
</svg>