<?xml version="1.0" encoding="UTF-8"?>
<svg id="Layer_1" data-name="Layer 1" xmlns="http://www.w3.org/2000/svg" viewBox="0 0 48 48">
  <defs>
    <style>
      .cls-1 {
        fill: #4170ff;
        stroke-width: 0px;
      }
    </style>
  </defs>
  <path class="cls-1" d="M10.08,47.2c-1.28,0-2.37-.45-3.28-1.36-.91-.91-1.36-2-1.36-3.28V5.44c0-1.28.45-2.37,1.36-3.28s2-1.36,3.28-1.36h18.56l13.92,13.92v27.84c0,1.28-.45,2.37-1.36,3.28s-2,1.36-3.28,1.36H10.08ZM21.68,40.24h4.64v-2.32h2.32c.66,0,1.21-.22,1.65-.67.44-.44.67-1,.67-1.65v-6.96c0-.66-.22-1.21-.67-1.65s-1-.67-1.65-.67h-6.96v-2.32h9.28v-4.64h-4.64v-2.32h-4.64v2.32h-2.32c-.66,0-1.21.22-1.65.67s-.67,1-.67,1.65v6.96c0,.66.22,1.21.67,1.65s1,.67,1.65.67h6.96v2.32h-9.28v4.64h4.64v2.32ZM26.73,14.72h9.28l-9.28-9.28v9.28Z"/>
</svg>