<?xml version="1.0" encoding="UTF-8"?>
<svg id="Layer_1" data-name="Layer 1" xmlns="http://www.w3.org/2000/svg" viewBox="0 0 48 48">
  <defs>
    <style>
      .cls-1 {
        fill: #4170ff;
      }
    </style>
  </defs>
  <path class="cls-1" d="M16.56,31.44v-14.87h14.87v14.87h-14.87ZM21.52,26.48h4.96v-4.96h-4.96v4.96ZM16.56,46.31v-4.96h-4.96c-1.36,0-2.53-.49-3.5-1.46-.97-.97-1.46-2.14-1.46-3.5v-4.96H1.69v-4.96h4.96v-4.96H1.69v-4.96h4.96v-4.96c0-1.36.49-2.53,1.46-3.5.97-.97,2.14-1.46,3.5-1.46h4.96V1.69h4.96v4.96h4.96V1.69h4.96v4.96h4.96c1.36,0,2.53.49,3.5,1.46s1.46,2.14,1.46,3.5v4.96h4.96v4.96h-4.96v4.96h4.96v4.96h-4.96v4.96c0,1.36-.49,2.53-1.46,3.5s-2.14,1.46-3.5,1.46h-4.96v4.96h-4.96v-4.96h-4.96v4.96h-4.96ZM36.39,36.39V11.61H11.61v24.79h24.79Z"/>
</svg>