<?xml version="1.0" encoding="UTF-8"?>
<svg id="Layer_1" data-name="Layer 1" xmlns="http://www.w3.org/2000/svg" viewBox="0 0 48 48">
  <defs>
    <style>
      .cls-1 {
        fill: #4170ff;
      }
    </style>
  </defs>
  <path class="cls-1" d="M12.93,45.21c-1.54,0-2.84-.54-3.92-1.61-1.08-1.08-1.61-2.38-1.61-3.92s.54-2.84,1.61-3.92c1.08-1.08,2.38-1.61,3.92-1.61.43,0,.83.05,1.2.14s.72.22,1.06.37l2.63-3.27c-.86-.95-1.46-2.03-1.8-3.23-.34-1.2-.41-2.4-.23-3.6l-3.73-1.24c-.52.77-1.18,1.38-1.98,1.84s-1.69.69-2.67.69c-1.54,0-2.84-.54-3.92-1.61-1.08-1.08-1.61-2.38-1.61-3.92s.54-2.84,1.61-3.92c1.08-1.08,2.38-1.61,3.92-1.61s2.84.54,3.92,1.61c1.08,1.08,1.61,2.38,1.61,3.92v.37l3.73,1.29c.61-1.11,1.44-2.04,2.47-2.81s2.19-1.26,3.48-1.48v-4.01c-1.2-.34-2.19-.99-2.97-1.96-.78-.97-1.18-2.1-1.18-3.39,0-1.54.54-2.84,1.61-3.92,1.08-1.08,2.38-1.61,3.92-1.61s2.84.54,3.92,1.61c1.08,1.08,1.61,2.38,1.61,3.92,0,1.29-.4,2.42-1.2,3.39-.8.97-1.78,1.62-2.95,1.96v4.01c1.29.22,2.45.71,3.48,1.48s1.85,1.71,2.47,2.81l3.73-1.29v-.37c0-1.54.54-2.84,1.61-3.92,1.08-1.08,2.38-1.61,3.92-1.61s2.84.54,3.92,1.61c1.08,1.08,1.61,2.38,1.61,3.92s-.54,2.84-1.61,3.92c-1.08,1.08-2.38,1.61-3.92,1.61-.98,0-1.88-.23-2.7-.69s-1.47-1.08-1.96-1.84l-3.73,1.24c.18,1.2.11,2.39-.23,3.57s-.94,2.27-1.8,3.25l2.63,3.23c.34-.15.69-.27,1.06-.35s.77-.12,1.2-.12c1.54,0,2.84.54,3.92,1.61,1.08,1.08,1.61,2.38,1.61,3.92s-.54,2.84-1.61,3.92c-1.08,1.08-2.38,1.61-3.92,1.61s-2.84-.54-3.92-1.61c-1.08-1.08-1.61-2.38-1.61-3.92,0-.61.1-1.21.3-1.78s.47-1.08.81-1.54l-2.63-3.27c-1.26.71-2.6,1.06-4.03,1.06s-2.77-.35-4.03-1.06l-2.58,3.27c.34.46.61.98.81,1.54s.3,1.16.3,1.78c0,1.54-.54,2.84-1.61,3.92-1.08,1.08-2.38,1.61-3.92,1.61ZM7.4,22.16c.52,0,.96-.18,1.31-.53s.53-.79.53-1.31-.18-.96-.53-1.31-.79-.53-1.31-.53-.96.18-1.31.53-.53.79-.53,1.31.18.96.53,1.31.79.53,1.31.53ZM12.93,41.52c.52,0,.96-.18,1.31-.53.35-.35.53-.79.53-1.31s-.18-.96-.53-1.31-.79-.53-1.31-.53-.96.18-1.31.53-.53.79-.53,1.31.18.96.53,1.31c.35.35.79.53,1.31.53ZM24,10.17c.52,0,.96-.18,1.31-.53.35-.35.53-.79.53-1.31s-.18-.96-.53-1.31c-.35-.35-.79-.53-1.31-.53s-.96.18-1.31.53-.53.79-.53,1.31.18.96.53,1.31.79.53,1.31.53ZM24,30.45c1.29,0,2.38-.45,3.27-1.34.89-.89,1.34-1.98,1.34-3.27s-.45-2.38-1.34-3.27c-.89-.89-1.98-1.34-3.27-1.34s-2.38.45-3.27,1.34c-.89.89-1.34,1.98-1.34,3.27s.45,2.38,1.34,3.27,1.98,1.34,3.27,1.34ZM35.07,41.52c.52,0,.96-.18,1.31-.53.35-.35.53-.79.53-1.31s-.18-.96-.53-1.31-.79-.53-1.31-.53-.96.18-1.31.53-.53.79-.53,1.31.18.96.53,1.31c.35.35.79.53,1.31.53ZM40.6,22.16c.52,0,.96-.18,1.31-.53s.53-.79.53-1.31-.18-.96-.53-1.31-.79-.53-1.31-.53-.96.18-1.31.53-.53.79-.53,1.31.18.96.53,1.31.79.53,1.31.53Z"/>
</svg>