<?xml version="1.0" encoding="UTF-8"?>
<svg id="Layer_1" data-name="Layer 1" xmlns="http://www.w3.org/2000/svg" viewBox="0 0 48 48">
  <defs>
    <style>
      .cls-1 {
        fill: #4170ff;
      }
    </style>
  </defs>
  <path class="cls-1" d="M24,19.92l-7.13-7.13,7.13-7.13,7.13,7.13-7.13,7.13ZM1.58,42.35v-8.15c0-1.16.4-2.12,1.2-2.9.8-.78,1.76-1.17,2.88-1.17h6.68c.68,0,1.32.17,1.94.51s1.1.8,1.48,1.38c.99,1.32,2.2,2.36,3.64,3.11s2.98,1.12,4.61,1.12,3.22-.37,4.66-1.12,2.64-1.78,3.59-3.11c.44-.58.96-1.04,1.55-1.38s1.21-.51,1.86-.51h6.68c1.16,0,2.12.39,2.9,1.17s1.17,1.75,1.17,2.9v8.15h-14.27v-4.64c-1.19.85-2.47,1.49-3.85,1.94s-2.81.66-4.31.66-2.89-.23-4.28-.69-2.68-1.11-3.87-1.96v4.69H1.58ZM7.69,28.08c-1.7,0-3.14-.59-4.33-1.78-1.19-1.19-1.78-2.63-1.78-4.33s.59-3.19,1.78-4.36c1.19-1.17,2.63-1.76,4.33-1.76s3.19.59,4.36,1.76c1.17,1.17,1.76,2.62,1.76,4.36s-.59,3.14-1.76,4.33c-1.17,1.19-2.62,1.78-4.36,1.78ZM40.31,28.08c-1.7,0-3.14-.59-4.33-1.78-1.19-1.19-1.78-2.63-1.78-4.33s.59-3.19,1.78-4.36c1.19-1.17,2.63-1.76,4.33-1.76s3.19.59,4.36,1.76,1.76,2.62,1.76,4.36-.59,3.14-1.76,4.33-2.62,1.78-4.36,1.78Z"/>
</svg>