<?xml version="1.0" encoding="UTF-8"?>
<svg id="Layer_1" data-name="Layer 1" xmlns="http://www.w3.org/2000/svg" viewBox="0 0 48 48">
  <defs>
    <style>
      .cls-1 {
        fill: #4170ff;
      }
    </style>
  </defs>
  <path class="cls-1" d="M1.9,12.95v-4.42c0-1.22.43-2.26,1.3-3.12.87-.87,1.91-1.3,3.12-1.3h35.35c1.22,0,2.26.43,3.12,1.3.87.87,1.3,1.91,1.3,3.12v4.42h-4.42v-4.42H6.32v4.42H1.9ZM15.16,43.89v-4.42H6.32c-1.22,0-2.26-.43-3.12-1.3s-1.3-1.91-1.3-3.12v-4.42h4.42v4.42h35.35v-4.42h4.42v4.42c0,1.22-.43,2.26-1.3,3.12s-1.91,1.3-3.12,1.3h-8.84v4.42H15.16ZM8.09,21.79l5.75-5.75-3.09-3.09L1.9,21.79l8.84,8.84,3.09-3.09-5.75-5.75ZM39.91,21.79l-5.75,5.75,3.09,3.09,8.84-8.84-8.84-8.84-3.09,3.09,5.75,5.75Z"/>
</svg>