<?xml version="1.0" encoding="UTF-8"?>
<svg id="Layer_1" data-name="Layer 1" xmlns="http://www.w3.org/2000/svg" viewBox="0 0 48 48">
  <defs>
    <style>
      .cls-1 {
        fill: #4170ff;
      }
    </style>
  </defs>
  <path class="cls-1" d="M35.66,44.99c-.66,0-1.21-.22-1.66-.67-.45-.45-.67-1-.67-1.66v-18.54c0-.66.22-1.21.67-1.66.45-.45,1-.67,1.66-.67h9.33c.66,0,1.21.22,1.66.67.45.45.67,1,.67,1.66v18.54c0,.66-.22,1.21-.67,1.66-.45.45-1,.67-1.66.67h-9.33ZM35.66,40.32h9.33v-13.88h-9.33v13.88ZM14.67,44.99v-4.66h4.66v-4.66H5.34c-1.28,0-2.38-.46-3.29-1.37s-1.37-2.01-1.37-3.29V7.68c0-1.28.46-2.38,1.37-3.29.91-.91,2.01-1.37,3.29-1.37h32.65c1.28,0,2.38.46,3.29,1.37s1.37,2.01,1.37,3.29v9.44h-4.66V7.68H5.34v23.32h23.32v4.66h-4.66v4.66h4.66v4.66h-13.99Z"/>
</svg>