<?xml version="1.0" encoding="UTF-8"?>
<svg id="Layer_1" data-name="Layer 1" xmlns="http://www.w3.org/2000/svg" viewBox="0 0 48 48">
  <defs>
    <style>
      .cls-1 {
        fill: #4170ff;
      }
    </style>
  </defs>
  <path class="cls-1" d="M1.73,17.1V4.27h4.28v5.03c1.82-2.28,4.04-4.05,6.66-5.29,2.62-1.25,5.39-1.87,8.32-1.87,5.35,0,9.89,1.87,13.64,5.61,3.74,3.74,5.61,8.29,5.61,13.64h-4.28c0-4.17-1.45-7.71-4.36-10.61s-6.44-4.36-10.61-4.36c-2.46,0-4.76.57-6.9,1.71-2.14,1.14-3.94,2.71-5.4,4.71h5.88v4.28H1.73ZM1.84,23.52h4.38c.43,3.32,1.79,6.12,4.09,8.42,2.3,2.3,5.05,3.7,8.26,4.2l2.57,4.49c-4.92,0-9.23-1.63-12.94-4.89-3.71-3.26-5.83-7.33-6.36-12.22ZM23.87,27.26l-5.03-5.03v-11.55h4.28v9.84l2.99,2.99-2.25,3.74ZM33.76,47.05l-.64-3.21c-.43-.18-.83-.37-1.2-.56s-.76-.44-1.15-.72l-3.1.96-2.14-3.64,2.46-2.14c-.07-.46-.11-.93-.11-1.39s.04-.93.11-1.39l-2.46-2.14,2.14-3.64,3.1.96c.39-.29.78-.53,1.15-.72s.78-.38,1.2-.56l.64-3.21h4.28l.64,3.21c.43.18.84.38,1.23.61s.77.49,1.12.78l3.1-1.07,2.14,3.74-2.46,2.14c.07.46.11.91.11,1.34s-.04.87-.11,1.34l2.46,2.14-2.14,3.64-3.1-.96c-.39.29-.78.53-1.15.72s-.78.38-1.2.56l-.64,3.21h-4.28ZM35.9,40.63c1.18,0,2.18-.42,3.02-1.26.84-.84,1.26-1.84,1.26-3.02s-.42-2.18-1.26-3.02c-.84-.84-1.84-1.26-3.02-1.26s-2.18.42-3.02,1.26c-.84.84-1.26,1.84-1.26,3.02s.42,2.18,1.26,3.02c.84.84,1.84,1.26,3.02,1.26Z"/>
</svg>