<svg width="157" height="32" viewBox="0 0 157 32" fill="none" xmlns="http://www.w3.org/2000/svg">
<g clip-path="url(#clip0_597_1100)">
<path d="M39.1858 0.028019H21.2093L0 31.9998H11.825L20.0746 19.3859H27.0825C30.5865 20.3936 28.21 24.0721 26.5187 26.9754C24.8203 29.8787 25.0915 31.9998 25.0915 31.9998H36.2385C34.8825 29.766 38.3865 24.0721 39.7424 20.4993C41.0983 16.9265 38.1581 16.2289 38.1581 16.2289C38.1581 16.2289 49.2338 14.5799 50.1401 6.87761C51.0464 -0.824657 39.1858 0.028019 39.1858 0.028019ZM31.7283 12.9168H24.1566L27.7747 6.99741H34.5543C34.5543 6.99741 37.7228 7.44136 37.7228 8.89303C37.7228 10.3447 36.0244 12.9098 31.7283 12.9098V12.9168Z" fill="white"/>
<path d="M40.7695 32L62.0216 0.0281982H85.9927L84.7438 2.19865L88.4761 0.0281982H112.44L92.658 23.5226H109.614L126.006 0.0281982H136.411L156.999 32H145.453L130.759 9.00596L115.609 32H74.7957L92.658 8.3365H67.6736L65.5256 11.7965H75.0241L69.9358 19.6115H59.9878L57.4972 23.5226H69.4863L63.9413 32H40.7695Z" fill="white"/>
<path d="M130.904 28.4625C133.993 28.4625 136.498 25.9889 136.498 22.9377C136.498 19.8864 133.993 17.4129 130.904 17.4129C127.814 17.4129 125.309 19.8864 125.309 22.9377C125.309 25.9889 127.814 28.4625 130.904 28.4625Z" fill="white"/>
</g>
<defs>
<clipPath id="clip0_597_1100">
<rect width="157" height="32" fill="white"/>
</clipPath>
</defs>
</svg>
