<svg width="75" height="47" viewBox="0 0 75 47" fill="none" xmlns="http://www.w3.org/2000/svg">
<path fill-rule="evenodd" clip-rule="evenodd" d="M35.2086 10.264L20.1794 10.1699L11.1927 14.1708L7.30078 28.5052L13.327 36.5519L27.8499 36.6337L30.2718 27.1797L14.1654 34.891L20.2726 11.4217L32.2684 20.2334L35.2086 10.264Z" fill="white"/>
<path fill-rule="evenodd" clip-rule="evenodd" d="M30.9727 36.6542V34.891L33.3013 34.9033L39.684 11.6672L38.0438 11.6058V10.309L52.1658 10.4031L52.1536 11.6999L50.0274 11.6794L43.3613 35.0424L45.0946 35.0547L45.0825 36.7483L30.9727 36.6542Z" fill="white"/>
<path fill-rule="evenodd" clip-rule="evenodd" d="M46.5039 36.7483L46.5161 34.9851L48.8447 34.9974L55.2314 11.7694L53.575 11.6999L53.5872 10.4031L67.697 10.4931V11.794L65.5627 11.7817L58.9047 35.1365L60.638 35.1487L60.6259 36.8424L46.5039 36.7483Z" fill="white"/>
</svg>
