<svg width="116" height="40" viewBox="0 0 116 40" fill="none" xmlns="http://www.w3.org/2000/svg">
<g clip-path="url(#clip0_597_1077)">
<path d="M12.5064 0.0173507C8.75717 0.300052 5.30085 2.13543 2.97696 5.07335C1.25208 7.21317 0.220206 9.82272 0.0190792 12.5584C-0.0158994 13.4543 -0.00278239 14.3503 0.0584302 15.2441C0.215834 16.5619 0.567806 17.8493 1.09904 19.0649C2.29925 21.7984 4.34112 24.0795 6.93173 25.58C8.57572 26.5086 10.4055 27.0653 12.29 27.2132C13.0224 27.2588 13.7569 27.2588 14.4893 27.2132C16.0808 27.0783 17.6374 26.6608 19.0846 25.9845C20.3307 25.3974 21.9354 24.2818 22.3026 23.749C22.7005 23.1358 22.7289 22.3551 22.3792 21.7136C22.0709 21.059 21.3976 20.6523 20.6718 20.685C20.1471 20.685 19.9044 20.7872 18.9032 21.4569C18.2561 21.9245 17.5565 22.3159 16.8176 22.6204C15.6567 23.064 14.4128 23.2597 13.171 23.1901C11.1773 23.1118 9.25999 22.4029 7.69907 21.1656C7.17876 20.7198 6.69344 20.2326 6.24964 19.7107C4.77398 17.9145 4.00445 15.6464 4.07878 13.3282C4.16623 9.45956 6.60817 6.03235 10.2481 4.66669C11.9993 3.99256 13.9165 3.87513 15.7376 4.33398C17.0471 4.66017 18.2692 5.26471 19.3207 6.10629C19.5721 6.30201 19.8563 6.44988 20.1602 6.54339C20.4794 6.60646 20.8073 6.60646 21.1243 6.54339C21.5615 6.43031 21.9463 6.17153 22.2152 5.81054C22.8579 4.81022 22.7005 3.88818 21.7474 2.95526C20.7002 1.90275 18.5665 0.895898 16.2185 0.33702C15.3506 0.117383 14.4609 0.0064776 13.5667 0.00430298C13.1645 0.00430298 12.6901 0.00430298 12.5043 0.0217L12.5064 0.0173507ZM27.9233 7.7938C27.5582 7.86774 27.2259 8.05475 26.9723 8.32658C26.8302 8.45706 26.7165 8.61581 26.6378 8.78977C26.4104 9.24862 26.4257 8.4875 26.4257 17.3948C26.4257 26.302 26.4257 25.5518 26.5875 25.9584C26.7602 26.3412 27.0422 26.6652 27.4008 26.887C27.9954 27.224 28.7168 27.2523 29.3355 26.9609C29.7356 26.7717 30.0591 26.4521 30.2537 26.0541C30.4745 25.6083 30.4548 26.0802 30.4745 20.4544C30.4745 15.8812 30.4942 15.4006 30.5379 15.1245C30.6122 14.4982 30.7893 13.8893 31.0626 13.3217C31.4911 12.4866 32.2628 11.8777 33.1788 11.6559C34.0336 11.4537 34.9234 11.4537 35.7781 11.6559C37.0308 11.9886 37.8244 12.9346 38.1392 14.4177C38.2791 15.0831 38.2726 14.8004 38.29 20.3327C38.29 25.156 38.3097 25.5061 38.3534 25.6627C38.5087 26.2172 38.8891 26.6826 39.4006 26.9479C39.6892 27.0979 40.0127 27.1653 40.3385 27.1414C40.544 27.1588 40.7517 27.1305 40.944 27.061C41.5737 26.8544 42.0612 26.3585 42.2557 25.7279L42.3191 25.5344V20.4544C42.3191 17.6601 42.3432 15.3441 42.3519 15.3049C42.3607 15.2658 42.3825 15.1179 42.3979 14.9722C42.4459 14.5808 42.529 14.1959 42.6493 13.8197C42.7979 13.3217 43.0646 12.865 43.4253 12.4866C44.0746 11.8212 44.9294 11.5168 46.2258 11.5168C46.7199 11.5015 47.214 11.5711 47.6818 11.7277C48.8908 12.1278 49.6647 13.1129 49.9817 14.6547C50.1216 15.3202 50.1128 15.0984 50.1325 20.461L50.15 25.4583L50.2134 25.6605C50.456 26.5825 51.3261 27.2023 52.2837 27.1327C52.7799 27.1218 53.25 26.9109 53.5888 26.5499C53.8206 26.3325 53.9933 26.0585 54.0916 25.7562L54.1682 25.5365V20.1239C54.1682 15.0766 54.1682 14.6743 54.1179 14.3046C53.8949 12.4497 53.2543 10.9774 52.1984 9.88361C51.254 8.9159 50.0385 8.25482 48.7093 7.98734C47.1659 7.66115 45.5678 7.69159 44.0375 8.07433C42.7039 8.44401 41.5343 9.25297 40.7189 10.3664L40.662 10.4425L40.4937 10.2163C39.6586 9.15946 38.5021 8.40052 37.1948 8.05693C35.8612 7.70464 34.4621 7.68072 33.1154 7.98734C32.1032 8.24177 31.1785 8.75716 30.4374 9.48565C30.3652 9.55742 30.2909 9.62483 30.21 9.68572C30.1991 9.63788 30.1991 9.58786 30.21 9.54002C30.1925 9.26602 30.1204 8.99854 29.9957 8.75498C29.8099 8.42009 29.5301 8.14609 29.1891 7.96994C29.0579 7.90471 28.9202 7.85251 28.7781 7.81337C28.4939 7.76118 28.2031 7.75466 27.9167 7.78945L27.9233 7.7938ZM59.3778 7.7851C59.1307 7.83947 58.8925 7.93732 58.6782 8.07215C58.4049 8.25264 58.1841 8.50273 58.042 8.79412C57.8212 9.23775 57.8387 8.52012 57.8387 17.4078C57.8387 26.2955 57.8387 25.5365 57.9896 25.9323C58.1666 26.3216 58.4508 26.6499 58.8138 26.8783C59.2707 27.1392 59.8106 27.2197 60.3244 27.1044C60.9081 26.9718 61.4022 26.5825 61.6645 26.0454C61.8853 25.5953 61.8656 26.0715 61.8853 20.4457C61.9028 15.8682 61.905 15.3919 61.9487 15.1158C62.0318 14.3111 62.3138 13.5413 62.7663 12.8715C63.009 12.5606 63.3019 12.2887 63.6342 12.0713C64.3338 11.6798 65.1296 11.4907 65.9319 11.5254C66.7014 11.4798 67.4666 11.6755 68.1181 12.0843C68.9357 12.628 69.4101 13.487 69.6243 14.82C69.6877 15.1832 69.6877 15.2093 69.7008 20.3457V25.5083L69.7642 25.7083C69.9632 26.4107 70.5316 26.95 71.2486 27.1131C71.4323 27.1588 71.6203 27.1719 71.8083 27.1566C72.3155 27.1479 72.7964 26.9392 73.1484 26.576C73.4064 26.3172 73.5922 25.9954 73.6884 25.6431C73.7146 25.5561 73.7278 24.4471 73.7387 20.4675C73.7387 15.9573 73.7627 15.3637 73.8021 15.0875C73.8699 14.3068 74.1169 13.5522 74.5213 12.8824C74.729 12.5954 74.9826 12.3409 75.269 12.13C75.868 11.7429 76.5654 11.5363 77.2781 11.5298C78.6554 11.4537 79.6523 11.7755 80.3781 12.5301C81.1039 13.2847 81.4799 14.3764 81.5564 15.9813C81.5564 16.277 81.5826 18.5321 81.5826 20.9785C81.5826 25.343 81.5826 25.4517 81.6395 25.6409C81.7772 26.2172 82.1729 26.7 82.7151 26.95C83.0255 27.1066 83.3731 27.174 83.7207 27.1458C84.2191 27.1327 84.6914 26.924 85.0324 26.5651C85.2619 26.3412 85.4347 26.0671 85.5352 25.7627L85.6052 25.5496V14.6547L85.5418 14.2046C85.4368 13.263 85.1723 12.3453 84.7548 11.4928C83.8366 9.65745 82.28 8.49403 80.1332 8.00256C78.7472 7.71769 77.3174 7.70899 75.927 7.97647C74.4973 8.25264 73.2162 9.02898 72.3133 10.1641C72.1931 10.3142 72.0881 10.4403 72.0881 10.4447C72.0269 10.3751 71.9679 10.3033 71.9132 10.2272C70.9885 8.96375 69.2811 8.05258 67.436 7.83947C66.6818 7.75466 65.921 7.76118 65.1689 7.86339C63.9294 8.03301 62.7773 8.59188 61.8809 9.46173C61.8022 9.54219 61.717 9.61613 61.6273 9.68572C61.612 9.63788 61.6077 9.58786 61.6099 9.54002C61.6011 9.27689 61.5333 9.01811 61.4131 8.78325C61.2317 8.43314 60.9453 8.14609 60.5933 7.96777C60.4621 7.90253 60.3244 7.85034 60.1823 7.81554C59.9178 7.76988 59.6489 7.759 59.3822 7.7851H59.3778ZM97.4454 7.7938C93.9979 7.95472 90.9154 9.97494 89.4091 13.0629C88.8713 14.1546 88.5325 15.331 88.4035 16.5401C88.3423 17.2969 88.3357 18.058 88.386 18.8148C88.609 20.9155 89.5556 22.8748 91.064 24.3601C92.6993 25.9584 94.8417 26.9479 97.1263 27.1588C97.8455 27.2088 98.5669 27.2023 99.2862 27.1414C100.559 26.9892 101.77 26.5129 102.802 25.7584C102.952 25.6453 103.278 25.3517 103.525 25.0929L103.971 24.6471V25.0559C103.945 25.4235 104.017 25.791 104.185 26.1193C104.266 26.3194 104.391 26.4999 104.55 26.6456C104.778 26.8848 105.062 27.0631 105.377 27.161C105.569 27.224 105.773 27.248 105.974 27.2306C106.173 27.248 106.374 27.2284 106.566 27.1697C107.244 26.9696 107.766 26.4325 107.943 25.7497C108 25.5431 108 25.4169 108 17.473C108 8.4788 108.018 9.25297 107.803 8.81152C107.578 8.37225 107.187 8.03953 106.715 7.88513C106.476 7.80467 106.225 7.77858 105.974 7.80467C105.733 7.7764 105.488 7.8025 105.261 7.88078C104.708 8.0678 104.273 8.49403 104.076 9.03986C104.002 9.25297 103.973 9.48131 103.989 9.70529V10.1641L103.654 9.83142C103.475 9.6531 103.285 9.48348 103.088 9.32473C101.794 8.35268 100.226 7.80902 98.6041 7.76988C98.2172 7.74596 97.8302 7.75031 97.4454 7.78728V7.7938ZM98.6784 11.532C100.003 11.6342 101.252 12.1909 102.211 13.1042C104.472 15.3006 104.686 18.8431 102.71 21.296C102.384 21.6701 102.023 22.0115 101.632 22.3181C100.843 22.9009 99.9246 23.2815 98.9539 23.4315C98.4117 23.4946 97.863 23.4946 97.3186 23.4315C95.4145 23.1053 93.788 21.8767 92.966 20.137C92.7037 19.6172 92.52 19.0627 92.4238 18.4886C92.356 17.9558 92.3429 17.4187 92.3801 16.8837C92.5309 15.5007 93.1474 14.2089 94.1312 13.2195C95.0953 12.2235 96.3961 11.619 97.7821 11.5211C98.0751 11.4994 98.3702 11.5037 98.6631 11.5341H98.6806L98.6784 11.532Z" fill="white"/>
<path d="M10.2279 11.0949C9.29223 11.295 8.62983 12.1213 8.64076 13.0738C8.64076 13.6892 8.90091 14.2025 9.61141 14.9984C12.3747 18.0407 17.0947 18.2799 20.1531 15.5311C20.4985 15.2202 20.8155 14.8788 21.0975 14.5091C21.4604 14.1133 21.6615 13.5979 21.6637 13.063C21.6768 11.9713 20.798 11.0732 19.6984 11.0601C19.6459 11.0601 19.5956 11.0601 19.5432 11.0645C18.8895 11.0971 18.2927 11.4429 17.9385 11.9909C17.4248 12.715 16.6509 13.213 15.7786 13.3826C15.3829 13.4348 14.9828 13.4348 14.5871 13.3826C13.7017 13.2152 12.9169 12.7172 12.39 11.9909C12.261 11.7886 12.0993 11.6103 11.9113 11.4646C11.697 11.3015 11.4544 11.1819 11.1942 11.1123C10.875 11.0471 10.5471 11.0427 10.2257 11.0949H10.2279ZM112.999 22.2181C112.038 22.4247 111.29 23.1793 111.097 24.1405C111.03 24.5428 111.049 24.956 111.154 25.3496C111.277 25.7519 111.5 26.115 111.804 26.4064C112.787 27.3502 114.353 27.3241 115.304 26.3455C115.693 25.9432 115.933 25.4235 115.988 24.8668C116.121 23.6077 115.273 22.4551 114.025 22.2029C113.684 22.1529 113.338 22.1594 112.999 22.2203V22.2181ZM113.931 22.5508C114.477 22.6683 114.956 22.9901 115.271 23.4511C115.914 24.4145 115.651 25.7149 114.681 26.3564C114.34 26.5826 113.939 26.7044 113.528 26.7065C113.209 26.7174 112.89 26.6456 112.608 26.4956C111.906 26.1716 111.447 25.4822 111.417 24.7146C111.373 24.0948 111.62 23.4903 112.086 23.0793C112.58 22.6204 113.268 22.4291 113.931 22.5704V22.553V22.5508Z" fill="white"/>
<path d="M112.68 24.5624V25.841H113.095V24.8407H113.557L113.854 25.3148C113.955 25.4909 114.066 25.6605 114.189 25.8215C114.272 25.8323 114.357 25.8323 114.44 25.8215H114.661L114.326 25.3017C114.145 25.019 113.992 24.7755 113.992 24.7689C113.992 24.7624 114.035 24.7363 114.088 24.7146C114.359 24.608 114.53 24.3384 114.51 24.0491C114.534 23.7643 114.37 23.4946 114.105 23.3837L113.922 23.2967H112.669L112.68 24.5624ZM113.911 23.7208C114.029 23.7904 114.099 23.9187 114.092 24.0535C114.105 24.2035 114.025 24.3471 113.889 24.4167C113.747 24.471 113.592 24.4906 113.441 24.471H113.106V23.6512H113.474C113.788 23.6512 113.858 23.6708 113.913 23.7208H113.911ZM24.9384 34.9766V38.1516H25.7123V36.7903C25.7123 35.318 25.7123 35.2071 25.8588 34.9157C26.0031 34.6069 26.2938 34.3938 26.6327 34.346C27.0306 34.259 27.4372 34.4417 27.6383 34.7918C27.7761 35.0658 27.7848 35.1789 27.7848 36.7207V38.1537H28.5609V36.5706C28.5609 34.8092 28.5609 34.7787 28.3576 34.4025C28.1739 34.0198 27.8067 33.7545 27.3825 33.7001C27.0087 33.6349 26.6218 33.6871 26.2785 33.8458C26.0862 33.9589 25.9178 34.1089 25.7866 34.2894L25.7101 34.396V31.8147H24.9406V34.9788L24.9384 34.9766ZM41.8156 34.9766V38.1516H42.5851V31.8125H41.8156V34.9766ZM38.1953 32.0844C37.3952 32.167 36.8333 32.5302 36.6191 33.1064C36.5295 33.3587 36.4988 33.6262 36.5295 33.8915C36.5491 34.2068 36.6934 34.5004 36.9317 34.7113C37.229 34.981 37.6007 35.1441 38.438 35.3767C39.1922 35.579 39.4961 35.7095 39.7147 35.9574C39.8808 36.127 39.9595 36.3619 39.9333 36.5967C39.9508 36.7424 39.9246 36.8925 39.8568 37.0229C39.6622 37.4165 39.26 37.6057 38.6107 37.6036C38.2019 37.6362 37.7996 37.4992 37.4957 37.223C37.3187 37.049 37.1897 36.8316 37.1241 36.5924V36.4989H36.2977V36.6228C36.3436 36.8555 36.4245 37.0795 36.536 37.2882C36.7109 37.5535 36.9383 37.7819 37.205 37.9537C37.5788 38.145 37.992 38.2451 38.4096 38.2494C38.908 38.2864 39.4064 38.1885 39.8524 37.9689C40.2897 37.771 40.611 37.3839 40.7225 36.9186C40.7837 36.575 40.7684 36.2227 40.6788 35.8856C40.4908 35.355 39.9464 34.9723 39.0042 34.7157L38.4249 34.5591C38.2478 34.5069 38.0729 34.446 37.9024 34.3764C37.5045 34.1894 37.3624 34.0133 37.3427 33.6697C37.3034 33.0695 37.734 32.6998 38.4773 32.6998C38.8184 32.6846 39.155 32.7868 39.4283 32.9934C39.5813 33.1412 39.695 33.3217 39.7628 33.524L39.7956 33.661H40.2044C40.6722 33.661 40.646 33.661 40.5695 33.387C40.4492 32.9781 40.1869 32.6237 39.8284 32.3866C39.3256 32.1257 38.7572 32.017 38.1931 32.0778L38.1953 32.0844ZM62.4901 32.0778C61.2069 32.1779 60.3368 33.0173 60.0482 34.409C59.9804 34.9179 59.9804 35.4333 60.0482 35.9422C60.2559 36.9425 60.7172 37.6275 61.5042 37.9798C61.9283 38.1711 62.3961 38.2538 62.8596 38.219C63.6401 38.232 64.3724 37.8428 64.7944 37.1904C64.9277 36.9686 65.0326 36.7294 65.1048 36.4815C65.1048 36.4575 65.0086 36.451 64.7025 36.451H64.3068L64.1757 36.6967C63.9177 37.2513 63.3449 37.5905 62.7328 37.5535C62.2978 37.5731 61.8736 37.4165 61.5567 37.1208C61.0429 36.6011 60.7784 35.8856 60.8308 35.1593C60.7784 34.4438 61.0189 33.7349 61.4998 33.2C61.8124 32.8781 62.2497 32.7041 62.6978 32.7237C63.3296 32.6715 63.9264 33.0238 64.1822 33.6023L64.309 33.8763H64.7047C65.1573 33.8763 65.1332 33.8763 65.0392 33.587C64.7681 32.6976 64.0642 32.1648 63.0301 32.0691C62.8662 32.0691 62.6956 32.0452 62.665 32.0496L62.4836 32.08L62.4901 32.0778ZM19.543 32.5106V32.8433H21.4996V38.1559H22.2975V32.8498H24.2542V32.167H19.5452V32.5106H19.543ZM31.2236 33.7001C30.8586 33.7523 30.5153 33.9067 30.2355 34.1459C29.9098 34.4786 29.689 34.9005 29.6059 35.3594C29.5469 35.7617 29.5381 36.1705 29.5862 36.575C29.7567 37.4579 30.2158 38.0146 30.9416 38.2103C31.3155 38.2777 31.698 38.2777 32.0697 38.2103C32.4588 38.1189 32.8042 37.895 33.0447 37.5775C33.1715 37.4013 33.2699 37.2078 33.3355 37.0012C33.3355 36.9642 33.2786 36.962 32.9529 36.962H32.5747L32.5135 37.086C32.4654 37.173 32.4064 37.2556 32.3386 37.3296C31.9779 37.6688 31.4401 37.7427 30.9985 37.5188C30.57 37.2556 30.3076 36.7903 30.3076 36.2901V36.127H33.4076V35.6812C33.4273 35.3224 33.3464 34.9657 33.1759 34.6483C32.966 34.2025 32.5659 33.8741 32.085 33.7588C31.8008 33.7001 31.5078 33.6805 31.2171 33.7023L31.2236 33.7001ZM31.9429 34.3656C32.3692 34.5678 32.6425 34.994 32.6468 35.4637V35.5942H31.5078C30.8826 35.5942 30.3601 35.5942 30.3535 35.5746C30.3667 35.3681 30.4148 35.1636 30.4935 34.9723C30.6334 34.6417 30.9198 34.3938 31.2695 34.3068C31.4947 34.2742 31.7243 34.2916 31.9429 34.3612V34.3677V34.3656ZM45.2588 33.6958C44.8587 33.7458 44.4893 33.9263 44.2029 34.209C43.8247 34.6243 43.6061 35.1615 43.5864 35.7203C43.4749 36.962 44.0192 37.9493 44.9527 38.2059C45.1101 38.2364 45.2697 38.2559 45.4315 38.2625C45.8972 38.306 46.365 38.182 46.7432 37.9102C47.0209 37.6905 47.2307 37.397 47.3466 37.0643L47.3838 36.962H46.6033L46.5224 37.1121C46.1989 37.6384 45.508 37.8015 44.979 37.4796C44.9046 37.4339 44.8347 37.3796 44.7735 37.3187C44.5199 37.0338 44.3712 36.6707 44.3559 36.2901V36.127H47.4493L47.4668 36.0139C47.4843 35.7029 47.4559 35.392 47.3838 35.0875C47.3116 34.7526 47.1455 34.446 46.905 34.2025C46.6929 33.9828 46.4218 33.8306 46.1245 33.7588C45.8403 33.6979 45.5474 33.6784 45.2566 33.6979L45.2588 33.6958ZM45.7529 34.3025C46.2994 34.4199 46.6842 34.9092 46.6667 35.4659V35.5768H44.369V35.4898C44.3887 35.2789 44.4456 35.0745 44.5396 34.8831C44.6729 34.5895 44.9374 34.3764 45.2522 34.3025C45.4162 34.2633 45.5889 34.2655 45.7507 34.309V34.3025H45.7529ZM49.8563 33.6958C49.4541 33.7436 49.078 33.9241 48.7916 34.209C48.2954 34.794 48.0702 35.5594 48.1751 36.3184C48.2648 37.3187 48.7676 37.9841 49.5415 38.2081C49.8716 38.2755 50.2127 38.2842 50.5471 38.2342C50.8029 38.1951 51.0478 38.0994 51.2598 37.9515C51.5703 37.734 51.8064 37.4231 51.9288 37.0664L51.966 36.9642H51.1855L51.1046 37.1143C50.9931 37.3165 50.816 37.4731 50.6018 37.5644C50.2804 37.6819 49.9263 37.6645 49.618 37.5188C49.2048 37.2448 48.9556 36.7859 48.949 36.2923V36.1292H52.0425V35.9769C52.0556 35.6595 52.0228 35.3398 51.9463 35.031C51.8698 34.7178 51.708 34.433 51.4806 34.2046C51.2686 33.985 50.9975 33.8328 50.7002 33.761C50.4225 33.7023 50.1383 33.6827 49.8563 33.7001V33.6958ZM50.5624 34.3634C50.7942 34.4678 50.9844 34.6417 51.109 34.8635C51.1942 35.0462 51.2467 35.2419 51.262 35.4442V35.5768H48.9775C48.96 35.5768 49.0103 35.1636 49.1174 34.9397C49.2114 34.7287 49.3644 34.5482 49.559 34.4199C49.8716 34.2633 50.2345 34.2416 50.5646 34.3634H50.5603H50.5624ZM54.9195 33.7001C54.4888 33.7675 54.104 34.0089 53.857 34.3656C53.8133 34.433 53.8111 34.4221 53.7892 34.1133L53.7717 33.7806H53.0306V39.8869H53.8001V37.6645L53.8941 37.7841C54.2177 38.1516 54.7074 38.3321 55.1927 38.2646C56.1612 38.2038 56.8236 37.4861 56.9635 36.3423C57.0269 35.8617 56.9854 35.3746 56.8455 34.9092C56.6815 34.3569 56.2552 33.9198 55.7043 33.7393C55.4441 33.6827 55.1774 33.6675 54.9151 33.7001H54.9195ZM55.4944 34.4351C55.8398 34.6222 56.0803 34.9549 56.1481 35.342C56.2027 35.5594 56.218 35.7856 56.1918 36.0074C56.2115 36.3423 56.1415 36.675 55.9907 36.9729C55.7852 37.4448 55.278 37.7101 54.7708 37.6123C54.303 37.5601 53.9248 37.2056 53.8461 36.7424C53.7433 36.2423 53.7433 35.7247 53.8461 35.2245C53.9182 34.8875 54.1412 34.6004 54.4516 34.446C54.6462 34.3525 54.8626 34.3155 55.0769 34.3395C55.2168 34.3351 55.3567 34.3677 55.4791 34.4351H55.4922H55.4944ZM67.5883 33.7001C67.3434 33.7393 67.1073 33.8154 66.8843 33.9263C66.6067 34.1046 66.3684 34.3395 66.1848 34.6135C65.9552 35.031 65.8415 35.5007 65.8503 35.9748C65.8503 36.9468 66.235 37.6971 66.9149 38.0472C67.1685 38.1842 67.4505 38.2581 67.7391 38.2646C68.7885 38.3712 69.7351 37.6362 69.8881 36.5989C69.9515 36.1814 69.9515 35.7551 69.8881 35.3354C69.7548 34.4112 68.9699 33.7175 68.0321 33.6958C67.8834 33.6849 67.7347 33.6849 67.5861 33.7001H67.5883ZM68.29 34.3895C68.7141 34.5613 69.0158 34.9397 69.0902 35.3898C69.1361 35.5964 69.1536 35.8073 69.1361 36.0204C69.1536 36.2444 69.1317 36.4706 69.0683 36.6859C68.9699 37.049 68.7273 37.3557 68.3993 37.5383C67.984 37.7253 67.4986 37.6579 67.151 37.3687C66.4821 36.7924 66.4449 35.2745 67.0745 34.6548C67.3937 34.3395 67.8681 34.2372 68.29 34.3916V34.3895ZM72.7105 33.7001C72.2995 33.7675 71.9387 34.0111 71.7223 34.3656C71.6961 34.4112 71.6895 34.3655 71.6851 34.1981V33.8654L71.6655 33.7654H70.9244L70.9418 33.848V38.145H71.6851V36.862C71.6851 36.1596 71.7026 35.4964 71.7158 35.392C71.7398 35.0353 71.9125 34.707 72.1923 34.483C72.3607 34.3677 72.5618 34.3134 72.7651 34.3264C73.0996 34.309 73.4057 34.5134 73.515 34.8287C73.5762 34.9788 73.5762 34.9984 73.5827 36.5619V38.145H74.3435V36.712C74.3435 35.4572 74.361 35.2637 74.4047 35.1201C74.4616 34.8179 74.6583 34.5569 74.9338 34.4177C75.054 34.3525 75.1896 34.3199 75.3251 34.3286C75.4388 34.3264 75.5503 34.3395 75.6596 34.3656C75.8454 34.4351 76.0006 34.5656 76.099 34.7352C76.2236 34.9853 76.2302 35.031 76.2302 36.6337V38.145H76.9735V36.5402C76.9735 35.0071 76.9735 34.9005 76.9188 34.7004C76.8292 34.1829 76.4138 33.7784 75.8913 33.7001C75.4803 33.6327 75.0606 33.7045 74.6955 33.9024C74.5272 34.0176 74.3807 34.1611 74.2626 34.3286L74.1927 34.4308L74.1315 34.3134C73.926 33.9176 73.515 33.6718 73.0668 33.6762C72.9487 33.6697 72.8285 33.6762 72.7126 33.6936L72.7105 33.7001ZM80.1828 33.7001C79.7871 33.7436 79.4242 33.9437 79.1771 34.2568L79.0394 34.4373V34.1046L79.0219 33.7719H78.6393C78.3048 33.7719 78.2611 33.7719 78.2786 33.811C78.2961 33.8502 78.2961 35.2071 78.2961 36.8664V39.8652H79.0285V37.6405L79.1968 37.821C79.3783 38.0254 79.6253 38.1624 79.8964 38.2103C80.4976 38.3473 81.1272 38.1733 81.571 37.7471C81.9776 37.3209 82.2093 36.7598 82.2181 36.1705C82.3208 34.9114 81.8158 33.9524 80.9282 33.7153C80.6812 33.6697 80.4298 33.6653 80.1806 33.7023L80.1828 33.7001ZM80.6113 34.3873C81.1862 34.5634 81.4923 35.1723 81.4551 36.0531C81.466 36.5076 81.313 36.949 81.0201 37.2991C80.7643 37.5731 80.3861 37.6971 80.0144 37.6318C79.3455 37.5296 79.0525 37.0882 79.0088 36.1661C78.9716 35.3594 79.1531 34.8135 79.5378 34.5482C79.8548 34.3438 80.2462 34.2873 80.6091 34.3873H80.6113ZM84.4851 33.7001C83.9976 33.724 83.556 33.9893 83.309 34.4069C83.2259 34.5808 83.1691 34.7635 83.1406 34.9527C83.1406 34.9788 83.2303 34.9897 83.5079 34.9897H83.873L83.9102 34.8657C84.0238 34.4504 84.3693 34.2503 84.9158 34.2829C85.1344 34.2764 85.3487 34.3482 85.5192 34.4852C85.7137 34.6483 85.7531 34.7592 85.764 35.1506V35.4833H85.2481C84.7016 35.442 84.155 35.5268 83.6478 35.7334C83.3155 35.8878 83.0707 36.1835 82.9789 36.5358C82.9002 36.9055 82.9526 37.2904 83.1253 37.6253C83.4183 38.0385 83.9036 38.2733 84.4108 38.2473C84.8874 38.2864 85.3552 38.1016 85.6722 37.7471L85.7728 37.6144L85.7903 37.7884L85.8274 38.0472V38.1363H86.2035C86.5379 38.1363 86.5751 38.1363 86.5379 38.0863C86.5008 38.0363 86.5073 37.3013 86.5008 36.3966C86.4833 34.9744 86.4745 34.7309 86.433 34.5917C86.3084 34.1242 85.9105 33.7806 85.4274 33.7197C85.1147 33.674 84.7977 33.6653 84.4829 33.6958L84.4851 33.7001ZM85.7619 36.364C85.7378 37.2404 85.4099 37.6362 84.6797 37.6775C84.4283 37.7166 84.1725 37.6449 83.9801 37.4818C83.8205 37.3578 83.7265 37.1665 83.7265 36.9664C83.6894 36.7446 83.7703 36.5184 83.9386 36.3662C84.1966 36.1096 84.4808 36.0335 85.2787 36.0335H85.7619L85.7662 36.3662L85.7619 36.364ZM89.6795 33.7045C89.2772 33.748 88.9165 33.9719 88.6979 34.3112L88.6082 34.4547L88.5908 34.1546C88.5908 33.9872 88.5711 33.8219 88.5667 33.8219C88.5623 33.8219 88.4705 33.7893 88.1907 33.7893H87.819V38.169H88.5886V36.8076C88.5886 35.5029 88.5886 35.4376 88.6585 35.2245C88.7438 34.7766 89.1023 34.4308 89.557 34.3612C89.7778 34.3264 90.003 34.3547 90.2063 34.4438C90.355 34.5352 90.4774 34.6613 90.5605 34.8135C90.6676 35.031 90.6742 35.1462 90.6742 36.688V38.1668H91.4481V36.5315C91.4481 34.7157 91.4481 34.77 91.2469 34.3873C90.978 33.8567 90.3856 33.6044 89.6773 33.7045H89.6795ZM92.1433 33.7871C92.1433 33.7871 92.5149 34.82 92.9696 36.0661L93.7894 38.3408L93.7085 38.5539C93.4812 39.1367 93.1926 39.3389 92.633 39.3106H92.3881V39.6434C92.3881 40.0261 92.3509 40 92.8494 40C93.6692 40 93.9949 39.7695 94.3557 38.9344C94.4365 38.7474 96.0762 34.0307 96.1243 33.8589C96.1243 33.8154 96.1068 33.8132 95.7526 33.8132H95.3635L95.3066 33.9828C95.2804 34.0785 95.1055 34.62 94.9241 35.181C94.7426 35.7443 94.5021 36.4902 94.3994 36.8468C94.2966 37.2034 94.1983 37.4796 94.1917 37.4905C94.1589 37.4252 94.1327 37.3578 94.1174 37.2882C94.0802 37.1686 93.8135 36.3423 93.514 35.4572L92.9718 33.8415H92.5564L92.1389 33.7914L92.1433 33.7871Z" fill="white"/>
</g>
<defs>
<clipPath id="clip0_597_1077">
<rect width="116" height="40" fill="white"/>
</clipPath>
</defs>
</svg>
