<?xml version="1.0" encoding="UTF-8"?>
<svg id="Layer_1" xmlns="http://www.w3.org/2000/svg" version="1.1" viewBox="0 0 800 800">
  <!-- Generator: Adobe Illustrator 29.0.0, SVG Export Plug-In . SVG Version: 2.1.0 Build 186)  -->
  <defs>
    <style>
      .st0 {
        fill: none;
        stroke: #fff;
        stroke-linecap: round;
        stroke-linejoin: round;
        stroke-width: 66.7px;
      }
    </style>
  </defs>
  <path class="st0" d="M266.7,216.7h266.7M256.8,290.3l152.6,219.8M153.3,300h60c18.7,0,28,0,35.1-3.6,6.3-3.2,11.4-8.3,14.6-14.6,3.6-7.1,3.6-16.5,3.6-35.1v-60c0-18.7,0-28-3.6-35.1-3.2-6.3-8.3-11.4-14.6-14.6-7.1-3.6-16.5-3.6-35.1-3.6h-60c-18.7,0-28,0-35.1,3.6-6.3,3.2-11.4,8.3-14.6,14.6-3.6,7.1-3.6,16.5-3.6,35.1v60c0,18.7,0,28,3.6,35.1,3.2,6.3,8.3,11.4,14.6,14.6,7.1,3.6,16.5,3.6,35.1,3.6ZM453.3,666.7h60c18.7,0,28,0,35.1-3.6,6.3-3.2,11.4-8.3,14.6-14.6,3.6-7.1,3.6-16.5,3.6-35.1v-60c0-18.7,0-28-3.6-35.1-3.2-6.3-8.3-11.4-14.6-14.6-7.1-3.6-16.5-3.6-35.1-3.6h-60c-18.7,0-28,0-35.1,3.6-6.3,3.2-11.4,8.3-14.6,14.6-3.6,7.1-3.6,16.5-3.6,35.1v60c0,18.7,0,28,3.6,35.1,3.2,6.3,8.3,11.4,14.6,14.6,7.1,3.6,16.5,3.6,35.1,3.6ZM586.7,300h60c18.7,0,28,0,35.1-3.6,6.3-3.2,11.4-8.3,14.6-14.6,3.6-7.1,3.6-16.5,3.6-35.1v-60c0-18.7,0-28-3.6-35.1-3.2-6.3-8.3-11.4-14.6-14.6-7.1-3.6-16.5-3.6-35.1-3.6h-60c-18.7,0-28,0-35.1,3.6-6.3,3.2-11.4,8.3-14.6,14.6-3.6,7.1-3.6,16.5-3.6,35.1v60c0,18.7,0,28,3.6,35.1,3.2,6.3,8.3,11.4,14.6,14.6,7.1,3.6,16.5,3.6,35.1,3.6Z"/>
</svg>