<?xml version="1.0" encoding="UTF-8"?>
<svg id="Layer_1" data-name="Layer 1" xmlns="http://www.w3.org/2000/svg" viewBox="0 0 48 48">
  <defs>
    <style>
      .cls-1 {
        fill: #4170ff;
        stroke-width: 0px;
      }
    </style>
  </defs>
  <path class="cls-1" d="M30.08,1.31c-3.08,0-5.67,1.75-7.66,3.95-1.41-.64-2.92-1.11-4.49-1.11-4.34,0-8.08,2.65-9.64,6.48-3.97,1.39-6.97,4.82-6.97,9.12,0,5.53,4.77,9.92,10.53,9.92h.46l8.29-11.06c.81-1.08,2.17-1.74,3.52-1.7,1.28.03,2.52.68,3.29,1.7l8.29,11.06h.46c5.76,0,10.53-4.39,10.53-9.92,0-3.98-2.65-7.13-6.17-8.71-.13-5.41-4.78-9.72-10.45-9.72ZM24.04,19.75c-.46-.01-.9.2-1.17.57l-8.51,11.34c-.47.63-.34,1.52.29,1.99.25.18.54.28.85.28h4.25v8.51c0,2.33,1.92,4.25,4.25,4.25s4.25-1.92,4.25-4.25v-8.51h4.25c.78,0,1.42-.63,1.42-1.42,0-.31-.1-.61-.28-.85l-8.51-11.34c-.26-.35-.66-.56-1.1-.57Z"/>
</svg>