<?xml version="1.0" encoding="UTF-8"?>
<svg id="Layer_1" data-name="Layer 1" xmlns="http://www.w3.org/2000/svg" viewBox="0 0 48 48">
  <defs>
    <style>
      .cls-1 {
        stroke: #4170ff;
        stroke-miterlimit: 10;
        stroke-width: .48px;
      }

      .cls-1, .cls-2 {
        fill: #4170ff;
      }

      .cls-2 {
        stroke-width: 0px;
      }
    </style>
  </defs>
  <path class="cls-1" d="M23.82,25.66c-5.27,0-9.55,4.21-9.55,9.37s4.2,9.27,9.55,9.27c.52,0,.94-.42.94-.94s-.42-.94-.94-.94c-4.3,0-7.68-3.25-7.68-7.4s3.44-7.5,7.68-7.5,7.68,3.43,7.68,7.65c0,1.36-.24,3.23-1.4,4.41-.81.83-1.55,1.04-1.93.88-.38-.16-.42-.75-.42-1v-8.19c0-.52-.42-.94-.94-.94-.44,0-.79.31-.9.72-1.74-.83-3.9-.55-5.35.88-.89.88-1.38,2.05-1.38,3.29s.49,2.41,1.38,3.29c.91.9,2.11,1.36,3.31,1.36.68,0,1.36-.16,1.99-.46v.05c0,1.31.59,2.33,1.59,2.74,1.21.49,2.7,0,3.99-1.31,1.59-1.63,1.93-4.01,1.93-5.71,0-5.25-4.28-9.52-9.55-9.52ZM25.97,37.3c-1.15,1.14-3.02,1.14-4.16,0-.55-.55-.86-1.27-.86-2.05s.3-1.5.86-2.05c1.15-1.13,3.02-1.13,4.17,0v4.1Z"/>
  <path class="cls-2" d="M43.58,20.88c0-.18.02-.35.02-.53,0-9.19-7.47-16.66-16.66-16.66-7.35,0-13.77,4.8-15.91,11.76-5.84.12-10.55,4.91-10.55,10.77,0,5.55,4.16,10.16,9.68,10.71.05,0,.08-.01.13-.01v.07h1.77c-.11-.64-.17-1.28-.17-1.96,0-6.48,5.36-11.76,11.94-11.76s11.94,5.34,11.94,11.91c0,.55-.03,1.16-.11,1.8h3.05c4.86,0,8.82-3.95,8.82-8.81,0-2.92-1.49-5.67-3.94-7.3h0Z"/>
</svg>