<?xml version="1.0" encoding="UTF-8"?>
<svg id="Layer_1" data-name="Layer 1" xmlns="http://www.w3.org/2000/svg" viewBox="0 0 48 48">
  <defs>
    <style>
      .cls-1 {
        fill: #4170ff;
        fill-rule: evenodd;
        stroke-width: 0px;
      }
    </style>
  </defs>
  <path class="cls-1" d="M6.58,22.56c-3.26,1.35-5.57,4.54-5.57,8.24,0,4.92,4.06,8.91,9.04,8.91.18,0,.34-.02.49-.02h27.32c5.03-.29,9.12-4.13,9.12-9.12,0-3.34-1.82-6.26-4.53-7.85.17-.59.27-1.19.27-1.84,0-3.43-2.81-6.21-6.31-6.21-1.44,0-2.78.49-3.87,1.3-2.2-4.53-6.87-7.67-12.32-7.67-7.56,0-13.67,6.03-13.67,13.47,0,.27.03.54.03.8h0ZM40.39,28.45c0,4.6-3.63,7.2-7.97,7.2-2.67,0-4.6-.85-6.54-2.7.79-.98,1.66-1.94,2.48-2.92,1.12,1.09,2.35,1.77,3.93,1.77,1.94,0,3.6-1.28,3.6-3.3s-1.66-3.3-3.55-3.3c-6,0-7.28,10.47-16.01,10.47-4.26,0-7.85-2.67-7.85-7.14s3.63-7.17,7.94-7.17c2.67,0,4.66.76,6.57,2.65-.87.95-1.69,1.96-2.53,2.94-1.1-1.07-2.32-1.75-3.88-1.75-1.8,0-3.6,1.28-3.6,3.19,0,2.1,1.52,3.44,3.57,3.44,5.82,0,7.37-10.47,15.88-10.47,4.23,0,7.96,2.59,7.96,7.08h0Z"/>
</svg>