<?xml version="1.0" encoding="UTF-8"?>
<svg id="Layer_1" data-name="Layer 1" xmlns="http://www.w3.org/2000/svg" viewBox="0 0 48 48">
  <defs>
    <style>
      .cls-1 {
        fill: #4170ff;
        stroke-width: 0px;
      }
    </style>
  </defs>
  <path class="cls-1" d="M29.63,1.48c-2.84,0-5.22,1.55-7.09,3.48-1.32-.57-2.71-.97-4.16-.98-4.01,0-7.47,2.31-8.97,5.72-3.69,1.24-6.53,4.31-6.53,8.19,0,5.01,4.51,8.91,9.86,8.91h9.85v2.82H7.11c-.78,0-1.41.62-1.42,1.4,0,0,0,0,0,.01v4.42c-2.41.64-4.22,2.83-4.22,5.43,0,3.09,2.54,5.63,5.63,5.63s5.63-2.54,5.63-5.63c0-2.61-1.81-4.8-4.23-5.43v-3.02h14.08v3.02c-2.42.63-4.22,2.83-4.22,5.43,0,3.09,2.53,5.63,5.62,5.63s5.63-2.54,5.63-5.63c0-2.6-1.81-4.79-4.22-5.43v-3.02h14.08v3.02c-2.42.63-4.23,2.83-4.23,5.43,0,3.09,2.54,5.63,5.63,5.63s5.63-2.54,5.63-5.63c0-2.6-1.8-4.79-4.22-5.43v-4.42c0-.78-.62-1.41-1.4-1.41,0,0,0,0-.01,0h-15.48v-2.82h9.85c5.35,0,9.85-3.9,9.85-8.91,0-3.6-2.49-6.41-5.76-7.82-.21-4.82-4.51-8.6-9.71-8.6Z"/>
</svg>