<?xml version="1.0" encoding="UTF-8"?>
<svg id="Layer_1" data-name="Layer 1" xmlns="http://www.w3.org/2000/svg" viewBox="0 0 48 48">
  <defs>
    <style>
      .cls-1 {
        fill: #4170ff;
        stroke-width: 0px;
      }
    </style>
  </defs>
  <path class="cls-1" d="M21.47,23.97h7.05v8.45h-7.05v-8.45Z"/>
  <path class="cls-1" d="M33.82,17.61h-17.64c-.49,0-.88.4-.88.88v26.47c0,.49.4.88.88.88h17.64c.49,0,.88-.4.88-.88v-26.47c0-.49-.4-.88-.88-.88ZM25,43.19c-1.46,0-2.65-1.19-2.65-2.65s1.19-2.65,2.65-2.65,2.65,1.19,2.65,2.65-1.19,2.65-2.65,2.65ZM31.17,34.37c0,.49-.4.88-.88.88h-10.59c-.49,0-.88-.4-.88-.88v-12.35c0-.49.4-.88.88-.88h10.59c.49,0,.88.4.88.88v12.35Z"/>
  <path class="cls-1" d="M43.7,19.46c.01-.18.02-.36.02-.54,0-9.24-7.52-16.76-16.76-16.76-7.39,0-13.86,4.83-16.01,11.83-5.87.12-10.62,4.94-10.62,10.83,0,5.43,4.06,10.06,9.45,10.75.15.02.42.09.42.09h1.97v-18.73c0-1.63,1.33-2.96,2.96-2.96h19.72c1.63,0,2.96,1.33,2.96,2.96v18.73h1.98s.08-.03.12-.04c4.42-.56,7.75-4.35,7.75-8.81,0-2.94-1.5-5.72-3.96-7.36Z"/>
</svg>