<svg width="78" height="77" viewBox="0 0 78 77" fill="none" xmlns="http://www.w3.org/2000/svg">
<g id="highDegreeAccuracyConsistency 1" clip-path="url(#clip0_654_2472)">
<g id="Group 13">
<path id="Path 96" d="M54.5828 23.0015C51.5036 19.9384 47.5812 17.8527 43.3115 17.0084C39.0418 16.1641 34.6165 16.5986 30.5951 18.2577C26.5737 19.9168 23.1366 22.7265 20.7185 26.3299C18.3004 29.9334 17.0098 34.1694 17.0098 38.503C17.0098 42.8365 18.3004 47.0726 20.7185 50.676C23.1366 54.2795 26.5737 57.0882 30.5951 58.7473C34.6165 60.4064 39.0418 60.8418 43.3115 59.9975C47.5812 59.1533 51.5036 57.0675 54.5828 54.0044C56.6287 51.9693 58.2516 49.5522 59.3589 46.8924C60.4662 44.2326 61.0361 41.3822 61.0361 38.503C61.0361 35.6238 60.4662 32.7724 59.3589 30.1126C58.2516 27.4528 56.6287 25.0367 54.5828 23.0015ZM34.8212 47.9916L26.7285 39.9353L29.4608 37.217L34.8212 42.555L48.1932 29.2434L50.9236 31.9607L34.8212 47.9916Z" fill="#4170FF"/>
<path id="Path 97" d="M74.2232 55.2128C77.7898 47.7675 78.8669 39.3807 77.2966 31.2816C75.7262 23.1825 71.591 15.7974 65.4971 10.2084C59.4031 4.61951 51.671 1.12058 43.4342 0.225193C35.1973 -0.670193 26.889 1.08483 19.7271 5.23277L25.0662 10.5501C30.7998 7.68128 37.2763 6.62271 43.6304 7.51551C49.9845 8.40832 55.9136 11.2099 60.6257 15.5464C65.3377 19.8829 68.6083 25.5476 70.0005 31.7837C71.3927 38.0198 70.8401 44.5303 68.4167 50.4455C68.38 50.5523 68.3279 50.6529 68.2622 50.7449C68.1777 50.8605 68.0711 50.9586 67.9486 51.0331C67.826 51.1076 67.69 51.1574 67.5481 51.1795C67.4063 51.2017 67.2615 51.1962 67.1219 51.1626C66.9824 51.129 66.8508 51.0676 66.7348 50.9833L65.0182 49.7415L62.5214 64.7014L76.0383 57.7161L74.5283 56.6236C74.3133 56.4659 74.1637 56.2358 74.1075 55.9759C74.0513 55.7161 74.0924 55.4446 74.2232 55.2128Z" fill="#4170FF"/>
<path id="Path 98" d="M10.6127 52.5103C8.59114 48.508 7.45387 44.1208 7.27734 39.6445C7.10081 35.1682 7.88912 30.7068 9.58926 26.5591C9.68251 26.2843 9.88156 26.057 10.1426 25.9283C10.4037 25.7996 10.7055 25.7793 10.9815 25.872C11.0844 25.9065 11.1815 25.9567 11.2692 26.0203L12.9858 27.2621L15.4845 12.3032L1.96768 19.2904L3.47191 20.3782C3.6899 20.5357 3.84207 20.7677 3.8994 21.0296C3.95674 21.2916 3.91523 21.5658 3.7828 21.7993C0.21561 29.2448 -0.861793 37.632 0.708539 45.7315C2.27887 53.831 6.41434 61.2165 12.5087 66.8056C18.603 72.3947 26.3356 75.8928 34.5729 76.7879C42.8102 77.6829 51.1189 75.9281 58.2808 71.7793L52.9378 66.462C49.2385 68.3127 45.2092 69.4196 41.0801 69.72C36.9509 70.0204 32.8028 69.5082 28.8725 68.2126C24.9422 66.917 21.3067 64.864 18.1737 62.1697C15.0406 59.4753 12.4714 56.1931 10.6127 52.5103Z" fill="#4170FF"/>
</g>
</g>
<defs>
<clipPath id="clip0_654_2472">
<rect width="78" height="77" fill="white"/>
</clipPath>
</defs>
</svg>
