<?xml version="1.0" encoding="UTF-8"?>
<!DOCTYPE svg PUBLIC "-//W3C//DTD SVG 1.1//EN" "http://www.w3.org/Graphics/SVG/1.1/DTD/svg11.dtd">
<svg xmlns="http://www.w3.org/2000/svg" version="1.1" width="267px" height="267px" style="shape-rendering:geometricPrecision; text-rendering:geometricPrecision; image-rendering:optimizeQuality; fill-rule:evenodd; clip-rule:evenodd" xmlns:xlink="http://www.w3.org/1999/xlink">
<g><path style="opacity:0.96" fill="#416fff" d="M 98.5,61.5 C 130.835,61.3334 163.168,61.5 195.5,62C 200.062,63.6271 202.895,66.7938 204,71.5C 204.667,103.167 204.667,134.833 204,166.5C 201.993,171.838 198.159,175.004 192.5,176C 162.167,176.667 131.833,176.667 101.5,176C 96.8125,175.08 93.3125,172.58 91,168.5C 89.6095,161.254 89.1095,153.921 89.5,146.5C 94.5,146.5 99.5,146.5 104.5,146.5C 104.5,151.167 104.5,155.833 104.5,160.5C 132.833,160.5 161.167,160.5 189.5,160.5C 189.5,137.167 189.5,113.833 189.5,90.5C 161.167,90.5 132.833,90.5 104.5,90.5C 104.5,95.1667 104.5,99.8333 104.5,104.5C 99.5,104.5 94.5,104.5 89.5,104.5C 89.3335,93.495 89.5002,82.495 90,71.5C 91.6773,67.1215 94.5106,63.7882 98.5,61.5 Z"/></g>
<g><path style="opacity:0.96" fill="#416fff" d="M 61.5,89.5 C 66.5,89.5 71.5,89.5 76.5,89.5C 76.5,122.833 76.5,156.167 76.5,189.5C 109.833,189.5 143.167,189.5 176.5,189.5C 176.5,194.5 176.5,199.5 176.5,204.5C 141.498,204.667 106.498,204.5 71.5,204C 66.7938,202.895 63.6271,200.062 62,195.5C 61.5,160.168 61.3333,124.835 61.5,89.5 Z"/></g>
<g><path style="opacity:0.945" fill="#416fff" d="M 139.5,96.5 C 149.674,105.84 159.34,115.674 168.5,126C 159.876,135.625 150.876,144.958 141.5,154C 140.5,154.667 139.5,154.667 138.5,154C 135.317,150.985 132.317,147.818 129.5,144.5C 132.651,140.849 135.984,137.349 139.5,134C 122.837,133.5 106.17,133.333 89.5,133.5C 89.5,128.5 89.5,123.5 89.5,118.5C 106.17,118.667 122.837,118.5 139.5,118C 135.984,114.651 132.651,111.151 129.5,107.5C 132.855,103.813 136.189,100.147 139.5,96.5 Z"/></g>
</svg>
