<?xml version="1.0" encoding="UTF-8"?>
<!DOCTYPE svg PUBLIC "-//W3C//DTD SVG 1.1//EN" "http://www.w3.org/Graphics/SVG/1.1/DTD/svg11.dtd">
<svg xmlns="http://www.w3.org/2000/svg" version="1.1" width="267px" height="267px" style="shape-rendering:geometricPrecision; text-rendering:geometricPrecision; image-rendering:optimizeQuality; fill-rule:evenodd; clip-rule:evenodd" xmlns:xlink="http://www.w3.org/1999/xlink">
<g><path style="opacity:0.946" fill="#416fff" d="M 107.5,51.5 C 121.837,51.3334 136.171,51.5001 150.5,52C 152.11,60.0514 153.11,68.2181 153.5,76.5C 156.953,77.1427 160.119,78.4761 163,80.5C 170.447,77.7764 177.78,74.7764 185,71.5C 192.824,83.1374 200.157,95.1374 207,107.5C 207.617,108.449 207.451,109.282 206.5,110C 201.5,113.667 196.5,117.333 191.5,121C 184.5,121.667 177.5,121.667 170.5,121C 169.446,119.612 169.28,118.112 170,116.5C 175.258,112.453 180.425,108.287 185.5,104C 183.124,100.081 180.624,96.248 178,92.5C 172,95.1667 166,97.8333 160,100.5C 154.076,94.2877 146.909,90.2877 138.5,88.5C 138.08,81.4744 137.413,74.4744 136.5,67.5C 131.57,67.1975 126.737,67.5308 122,68.5C 121.165,75.1767 120.332,81.8434 119.5,88.5C 117.436,88.687 115.436,89.187 113.5,90C 107.964,92.9304 102.63,96.0971 97.5,99.5C 91.7242,97.4459 86.0576,95.1126 80.5,92.5C 77.5902,95.9258 75.2568,99.7591 73.5,104C 77.8854,108.046 82.5521,111.88 87.5,115.5C 87.3312,123.295 87.6646,131.129 88.5,139C 88.3333,139.833 88.1667,140.667 88,141.5C 83.1048,145.738 78.2715,149.905 73.5,154C 75.2568,158.241 77.5902,162.074 80.5,165.5C 86.5,162.833 92.5,160.167 98.5,157.5C 104.66,164.413 112.327,168.413 121.5,169.5C 121.5,181.833 121.5,194.167 121.5,206.5C 116.833,206.5 112.167,206.5 107.5,206.5C 106.575,198.101 105.242,189.768 103.5,181.5C 100.797,180.149 98.1304,178.815 95.5,177.5C 87.7546,180.467 80.088,183.3 72.5,186C 65.2408,174.148 58.2408,162.148 51.5,150C 52.1007,148.395 53.1007,147.062 54.5,146C 59.6667,142.167 64.8333,138.333 70,134.5C 70.6667,130.833 70.6667,127.167 70,123.5C 64,118.833 58,114.167 52,109.5C 51.4795,107.711 51.8129,106.044 53,104.5C 59.3742,93.5838 65.8742,82.7505 72.5,72C 80.088,74.7001 87.7546,77.5334 95.5,80.5C 98.1304,79.1848 100.797,77.8515 103.5,76.5C 105.242,68.2321 106.575,59.8988 107.5,51.5 Z"/></g>
<g><path style="opacity:0.946" fill="#416fff" d="M 123.5,101.5 C 139.776,99.6196 150.443,106.286 155.5,121.5C 146.333,122.574 137.667,121.241 129.5,117.5C 119.291,120.245 116.457,126.245 121,135.5C 121.831,142.192 121.664,148.858 120.5,155.5C 105.488,149 99.6548,137.666 103,121.5C 106.453,111.212 113.286,104.545 123.5,101.5 Z"/></g>
<g><path style="opacity:0.961" fill="#416fff" d="M 143.5,136.5 C 164.836,136.333 186.169,136.5 207.5,137C 209.624,138.122 211.457,139.622 213,141.5C 214.633,163.103 214.967,184.769 214,206.5C 212.514,210.498 209.68,212.998 205.5,214C 185.5,214.667 165.5,214.667 145.5,214C 141.104,213.27 138.27,210.77 137,206.5C 136.333,185.5 136.333,164.5 137,143.5C 138.694,140.642 140.861,138.309 143.5,136.5 Z M 172.5,152.5 C 183.984,152.805 188.151,158.472 185,169.5C 181.562,174.081 177.062,175.581 171.5,174C 164.124,169.733 162.624,163.899 167,156.5C 168.812,155.023 170.645,153.69 172.5,152.5 Z M 169.5,183.5 C 182.025,182.351 192.525,186.351 201,195.5C 201.495,197.473 201.662,199.473 201.5,201.5C 183.833,201.5 166.167,201.5 148.5,201.5C 148.34,199.801 148.506,198.134 149,196.5C 154.474,189.829 161.307,185.495 169.5,183.5 Z"/></g>
</svg>
