<?xml version="1.0" encoding="UTF-8"?>
<!DOCTYPE svg PUBLIC "-//W3C//DTD SVG 1.1//EN" "http://www.w3.org/Graphics/SVG/1.1/DTD/svg11.dtd">
<svg xmlns="http://www.w3.org/2000/svg" version="1.1" width="267px" height="267px" style="shape-rendering:geometricPrecision; text-rendering:geometricPrecision; image-rendering:optimizeQuality; fill-rule:evenodd; clip-rule:evenodd" xmlns:xlink="http://www.w3.org/1999/xlink">
<g><path style="opacity:0.975" fill="#416fff" d="M 118.5,53.5 C 144.593,56.0955 156.093,70.4288 153,96.5C 145.668,115.587 131.835,123.421 111.5,120C 92.3752,112.586 84.5419,98.7524 88,78.5C 92.991,63.6615 103.158,55.3281 118.5,53.5 Z"/></g>
<g><path style="opacity:0.955" fill="#416fff" d="M 176.5,103.5 C 203.42,103.683 214.586,117.016 210,143.5C 206.5,151 201,156.5 193.5,160C 196.833,163.333 200.167,166.667 203.5,170C 199.5,174 195.5,178 191.5,182C 195.682,186.015 199.682,190.182 203.5,194.5C 198.141,201.04 192.141,206.54 185.5,211C 181.667,207.167 177.833,203.333 174,199.5C 173.5,186.504 173.333,173.504 173.5,160.5C 160.396,156.174 153.396,147.007 152.5,133C 153.814,117.537 161.814,107.703 176.5,103.5 Z M 181.5,120.5 C 186.601,121.101 189.601,123.934 190.5,129C 187.614,136.627 182.948,138.127 176.5,133.5C 173.416,127.335 175.083,123.002 181.5,120.5 Z"/></g>
<g><path style="opacity:0.983" fill="#416fff" d="M 106.5,128.5 C 116.872,128.24 127.206,128.573 137.5,129.5C 136.753,145.669 142.753,158.669 155.5,168.5C 156.496,174.463 156.829,180.463 156.5,186.5C 122.167,186.5 87.8333,186.5 53.5,186.5C 53.3336,178.16 53.5003,169.827 54,161.5C 55.7541,148.737 62.9208,140.57 75.5,137C 85.669,133.044 96.0023,130.211 106.5,128.5 Z"/></g>
</svg>
