<?xml version="1.0" encoding="UTF-8"?>
<!DOCTYPE svg PUBLIC "-//W3C//DTD SVG 1.1//EN" "http://www.w3.org/Graphics/SVG/1.1/DTD/svg11.dtd">
<svg xmlns="http://www.w3.org/2000/svg" version="1.1" width="267px" height="267px" style="shape-rendering:geometricPrecision; text-rendering:geometricPrecision; image-rendering:optimizeQuality; fill-rule:evenodd; clip-rule:evenodd" xmlns:xlink="http://www.w3.org/1999/xlink">
<g><path style="opacity:0.919" fill="#416fff" d="M 184.5,64.5 C 188.5,64.5 192.5,64.5 196.5,64.5C 195.894,69.8394 198.061,73.506 203,75.5C 205.443,74.4067 207.943,73.4067 210.5,72.5C 212.898,75.5712 214.898,78.9046 216.5,82.5C 214.992,84.5075 213.158,86.1741 211,87.5C 210.333,89.8333 210.333,92.1667 211,94.5C 212.855,96.3551 214.688,98.1884 216.5,100C 214.947,103.614 212.78,106.78 210,109.5C 207.864,108.732 205.697,108.066 203.5,107.5C 201.675,108.651 199.675,109.318 197.5,109.5C 197.148,112.428 196.482,115.262 195.5,118C 191.789,118.825 188.122,118.659 184.5,117.5C 183.241,108.453 178.408,105.786 170,109.5C 167.469,106.626 165.302,103.46 163.5,100C 171.472,94.0758 171.472,88.2425 163.5,82.5C 165.5,79.1667 167.5,75.8333 169.5,72.5C 172.057,73.4067 174.557,74.4067 177,75.5C 178.745,74.0443 180.578,72.711 182.5,71.5C 183.17,69.1369 183.837,66.8036 184.5,64.5 Z M 186.5,82.5 C 196.362,81.8484 200.195,86.1818 198,95.5C 192.313,102.008 186.98,101.674 182,94.5C 180.474,89.2389 181.974,85.2389 186.5,82.5 Z"/></g>
<g><path style="opacity:0.953" fill="#416fff" d="M 105.5,71.5 C 109.881,71.3718 114.215,71.7051 118.5,72.5C 118.228,76.9017 118.561,81.2351 119.5,85.5C 121.611,86.8485 123.445,86.5152 125,84.5C 125.333,81.5 125.667,78.5 126,75.5C 135.275,81.7042 140.775,90.3708 142.5,101.5C 146.254,102.903 147.421,105.57 146,109.5C 144.644,110.38 143.144,110.714 141.5,110.5C 139.644,129.357 129.311,139.357 110.5,140.5C 91.6891,139.357 81.3557,129.357 79.5,110.5C 75.9398,111.109 73.9398,109.609 73.5,106C 74.3561,103.646 76.0228,102.146 78.5,101.5C 80.223,90.3768 85.723,81.7102 95,75.5C 95.3333,78.5 95.6667,81.5 96,84.5C 97.5553,86.5152 99.3886,86.8485 101.5,85.5C 102.439,81.2351 102.772,76.9017 102.5,72.5C 103.791,72.7373 104.791,72.404 105.5,71.5 Z M 95.5,110.5 C 105.506,110.334 115.506,110.5 125.5,111C 121.154,124.337 112.821,127.67 100.5,121C 97.8913,117.949 96.2246,114.449 95.5,110.5 Z"/></g>
<g><path style="opacity:0.907" fill="#416fff" d="M 166.5,117.5 C 169.5,117.5 172.5,117.5 175.5,117.5C 175.833,119.5 176.167,121.5 176.5,123.5C 180.04,124.125 183.54,124.458 187,124.5C 187.97,126.274 188.804,128.107 189.5,130C 187.947,132.048 186.614,134.215 185.5,136.5C 186.614,138.785 187.947,140.952 189.5,143C 188.556,145.722 187.223,148.222 185.5,150.5C 179.195,147.323 175.862,149.323 175.5,156.5C 172.5,156.5 169.5,156.5 166.5,156.5C 166.346,149.512 163.18,147.512 157,150.5C 155.086,148.252 153.586,145.752 152.5,143C 154.053,140.952 155.386,138.785 156.5,136.5C 155.594,134.253 154.261,132.253 152.5,130.5C 153.5,128.5 154.5,126.5 155.5,124.5C 158.48,124.315 161.48,123.982 164.5,123.5C 166.086,121.827 166.753,119.827 166.5,117.5 Z M 169.5,131.5 C 174.283,131.449 176.45,133.782 176,138.5C 173.294,141.978 170.294,142.311 167,139.5C 165.837,136.029 166.67,133.362 169.5,131.5 Z"/></g>
<g><path style="opacity:0.957" fill="#416fff" d="M 99.5,147.5 C 121.883,145.676 142.883,150.176 162.5,161C 166.928,164.092 169.761,168.259 171,173.5C 171.5,182.827 171.666,192.161 171.5,201.5C 130.833,201.5 90.1667,201.5 49.5,201.5C 49.3335,192.161 49.5002,182.827 50,173.5C 53.639,163.864 60.4724,157.697 70.5,155C 80.0196,151.371 89.6863,148.871 99.5,147.5 Z M 102.5,163.5 C 120.864,162.472 138.03,166.472 154,175.5C 155.316,178.688 155.816,182.022 155.5,185.5C 125.5,185.5 95.5,185.5 65.5,185.5C 65.0708,181.743 65.7375,178.243 67.5,175C 78.6339,169.142 90.3005,165.309 102.5,163.5 Z"/></g>
</svg>
