<?xml version="1.0" encoding="UTF-8"?>
<svg id="Layer_1" data-name="Layer 1" xmlns="http://www.w3.org/2000/svg" viewBox="0 0 48 48">
  <defs>
    <style>
      .cls-1 {
        fill: #4170ff;
        stroke-width: 0px;
      }
    </style>
  </defs>
  <path class="cls-1" d="M21.72,46.52v-20.89L3.45,15.07v18.32c0,.84.2,1.6.6,2.28.4.69.96,1.24,1.68,1.66l15.98,9.19ZM26.28,46.52l15.98-9.19c.72-.42,1.28-.97,1.68-1.66s.6-1.45.6-2.28V15.07l-18.27,10.56v20.89ZM35.36,15.12l6.74-3.94L26.28,2.11c-.72-.42-1.48-.63-2.28-.63s-1.56.21-2.28.63l-4.51,2.57,18.15,10.45ZM24,21.69l6.79-3.88L12.7,7.3l-6.85,3.94,18.15,10.45Z"/>
</svg>