<?xml version="1.0" encoding="UTF-8"?>
<svg id="Layer_1" data-name="Layer 1" xmlns="http://www.w3.org/2000/svg" viewBox="0 0 48 48">
  <defs>
    <style>
      .cls-1 {
        fill: #4170ff;
        stroke-width: 0px;
      }
    </style>
  </defs>
  <path class="cls-1" d="M.27,35.86v-3.11c0-1.42.72-2.57,2.17-3.46,1.45-.89,3.36-1.33,5.73-1.33.43,0,.84,0,1.24.02s.77.06,1.14.12c-.46.69-.81,1.42-1.04,2.17-.23.76-.35,1.55-.35,2.37v3.21H.27ZM12.14,35.86v-3.21c0-1.05.29-2.02.87-2.89.58-.87,1.39-1.64,2.45-2.3s2.31-1.15,3.78-1.48c1.47-.33,3.06-.49,4.77-.49s3.35.16,4.82.49c1.47.33,2.73.82,3.78,1.48s1.86,1.43,2.42,2.3.84,1.84.84,2.89v3.21H12.14ZM38.83,35.86v-3.21c0-.86-.11-1.66-.32-2.42s-.54-1.47-.96-2.13c.36-.07.73-.11,1.11-.12s.77-.02,1.16-.02c2.37,0,4.28.44,5.73,1.31s2.17,2.03,2.17,3.48v3.11h-8.9ZM16.34,31.91h15.37c-.33-.66-1.24-1.24-2.74-1.73-1.5-.49-3.16-.74-4.97-.74s-3.47.25-4.97.74c-1.5.49-2.4,1.07-2.69,1.73ZM8.18,25.98c-1.09,0-2.02-.39-2.79-1.16s-1.16-1.71-1.16-2.79.39-2.06,1.16-2.82,1.71-1.14,2.79-1.14,2.06.38,2.82,1.14c.76.76,1.14,1.7,1.14,2.82s-.38,2.02-1.14,2.79c-.76.77-1.7,1.16-2.82,1.16ZM39.82,25.98c-1.09,0-2.02-.39-2.79-1.16s-1.16-1.71-1.16-2.79.39-2.06,1.16-2.82,1.71-1.14,2.79-1.14,2.06.38,2.82,1.14,1.14,1.7,1.14,2.82-.38,2.02-1.14,2.79c-.76.77-1.7,1.16-2.82,1.16ZM24,24c-1.65,0-3.05-.58-4.2-1.73-1.15-1.15-1.73-2.55-1.73-4.2s.58-3.09,1.73-4.23c1.15-1.14,2.55-1.71,4.2-1.71s3.09.57,4.23,1.71,1.71,2.55,1.71,4.23-.57,3.05-1.71,4.2c-1.14,1.15-2.55,1.73-4.23,1.73ZM24,20.05c.56,0,1.03-.19,1.41-.57.38-.38.57-.85.57-1.41s-.19-1.03-.57-1.41c-.38-.38-.85-.57-1.41-.57s-1.03.19-1.41.57-.57.85-.57,1.41.19,1.03.57,1.41.85.57,1.41.57Z"/>
</svg>