<?xml version="1.0" encoding="UTF-8"?>
<svg id="Layer_1" data-name="Layer 1" xmlns="http://www.w3.org/2000/svg" viewBox="0 0 48 48">
  <defs>
    <style>
      .cls-1 {
        fill: none;
        stroke: #4170ff;
        stroke-miterlimit: 133.33;
        stroke-width: 3.5px;
      }

      .cls-2 {
        fill: #4170ff;
        stroke-width: 0px;
      }
    </style>
  </defs>
  <rect class="cls-1" x="11.61" y="6.16" width="24.78" height="35.68" rx="2.97" ry="2.97"/>
  <path class="cls-2" d="M19.45,31.35c-.39.39-.85.58-1.4.58s-1.01-.19-1.4-.58c-.39-.39-.58-.85-.58-1.4s.19-1.01.58-1.4c.39-.39.85-.58,1.4-.58s1.01.19,1.4.58c.39.39.58.85.58,1.4s-.19,1.01-.58,1.4Z"/>
  <path class="cls-2" d="M19.45,25.4c-.39.39-.85.58-1.4.58s-1.01-.19-1.4-.58c-.39-.39-.58-.85-.58-1.4s.19-1.01.58-1.4c.39-.39.85-.58,1.4-.58s1.01.19,1.4.58.58.85.58,1.4-.19,1.01-.58,1.4Z"/>
  <path class="cls-2" d="M19.45,19.45c-.39.39-.85.58-1.4.58s-1.01-.19-1.4-.58c-.39-.39-.58-.85-.58-1.4s.19-1.01.58-1.4c.39-.39.85-.58,1.4-.58s1.01.19,1.4.58c.39.39.58.85.58,1.4s-.19,1.01-.58,1.4Z"/>
  <path class="cls-2" d="M25.4,31.35c-.39.39-.85.58-1.4.58s-1.01-.19-1.4-.58c-.39-.39-.58-.85-.58-1.4s.19-1.01.58-1.4c.39-.39.85-.58,1.4-.58s1.01.19,1.4.58c.39.39.58.85.58,1.4s-.19,1.01-.58,1.4Z"/>
  <path class="cls-2" d="M25.4,25.4c-.39.39-.85.58-1.4.58s-1.01-.19-1.4-.58-.58-.85-.58-1.4.19-1.01.58-1.4.85-.58,1.4-.58,1.01.19,1.4.58.58.85.58,1.4-.19,1.01-.58,1.4Z"/>
  <path class="cls-2" d="M25.4,19.45c-.39.39-.85.58-1.4.58s-1.01-.19-1.4-.58c-.39-.39-.58-.85-.58-1.4s.19-1.01.58-1.4c.39-.39.85-.58,1.4-.58s1.01.19,1.4.58c.39.39.58.85.58,1.4s-.19,1.01-.58,1.4Z"/>
  <path class="cls-2" d="M31.35,31.35c-.39.39-.85.58-1.4.58s-1.01-.19-1.4-.58c-.39-.39-.58-.85-.58-1.4s.19-1.01.58-1.4c.39-.39.85-.58,1.4-.58s1.01.19,1.4.58c.39.39.58.85.58,1.4s-.19,1.01-.58,1.4Z"/>
  <path class="cls-2" d="M31.35,25.4c-.39.39-.85.58-1.4.58s-1.01-.19-1.4-.58-.58-.85-.58-1.4.19-1.01.58-1.4.85-.58,1.4-.58,1.01.19,1.4.58c.39.39.58.85.58,1.4s-.19,1.01-.58,1.4Z"/>
  <path class="cls-2" d="M31.35,19.45c-.39.39-.85.58-1.4.58s-1.01-.19-1.4-.58c-.39-.39-.58-.85-.58-1.4s.19-1.01.58-1.4c.39-.39.85-.58,1.4-.58s1.01.19,1.4.58c.39.39.58.85.58,1.4s-.19,1.01-.58,1.4Z"/>
</svg>