<?xml version="1.0" encoding="UTF-8"?>
<svg id="Layer_1" data-name="Layer 1" xmlns="http://www.w3.org/2000/svg" viewBox="0 0 48 48">
  <defs>
    <style>
      .cls-1 {
        fill: #4170ff;
        stroke-width: 0px;
      }
    </style>
  </defs>
  <path class="cls-1" d="M9.04,46.43c-1.18,0-2.18-.42-3.02-1.26-.84-.84-1.26-1.84-1.26-3.02v-25.64c0-1.18.42-2.18,1.26-3.02.84-.84,1.84-1.26,3.02-1.26h4.27c0-2.96,1.04-5.48,3.12-7.56,2.08-2.08,4.6-3.12,7.56-3.12s5.48,1.04,7.56,3.12,3.12,4.6,3.12,7.56h4.27c1.18,0,2.18.42,3.02,1.26s1.26,1.84,1.26,3.02v25.64c0,1.18-.42,2.18-1.26,3.02-.84.84-1.84,1.26-3.02,1.26H9.04ZM9.04,42.16h29.91v-25.64H9.04v25.64ZM24,29.34c2.96,0,5.48-1.04,7.56-3.12,2.08-2.08,3.12-4.6,3.12-7.56h-4.27c0,1.78-.62,3.29-1.87,4.54-1.25,1.25-2.76,1.87-4.54,1.87s-3.29-.62-4.54-1.87c-1.25-1.25-1.87-2.76-1.87-4.54h-4.27c0,2.96,1.04,5.48,3.12,7.56,2.08,2.08,4.6,3.12,7.56,3.12ZM17.59,12.25h12.82c0-1.78-.62-3.29-1.87-4.54-1.25-1.25-2.76-1.87-4.54-1.87s-3.29.62-4.54,1.87c-1.25,1.25-1.87,2.76-1.87,4.54ZM9.04,42.16v-25.64,25.64Z"/>
</svg>