<?xml version="1.0" encoding="UTF-8"?>
<svg id="Layer_1" data-name="Layer 1" xmlns="http://www.w3.org/2000/svg" viewBox="0 0 48 48">
  <defs>
    <style>
      .cls-1 {
        fill: #4170ff;
        stroke-width: 0px;
      }
    </style>
  </defs>
  <path class="cls-1" d="M13.09,44.9c-1.51,0-2.8-.53-3.86-1.59-1.06-1.06-1.59-2.35-1.59-3.86s.53-2.8,1.59-3.86c1.06-1.06,2.35-1.59,3.86-1.59.42,0,.82.05,1.18.14s.71.21,1.05.36l2.59-3.23c-.85-.94-1.44-2-1.77-3.18s-.41-2.36-.23-3.54l-3.68-1.23c-.51.76-1.17,1.36-1.95,1.82s-1.67.68-2.64.68c-1.51,0-2.8-.53-3.86-1.59-1.06-1.06-1.59-2.35-1.59-3.86s.53-2.8,1.59-3.86c1.06-1.06,2.35-1.59,3.86-1.59s2.8.53,3.86,1.59c1.06,1.06,1.59,2.35,1.59,3.86v.36l3.68,1.27c.61-1.09,1.42-2.01,2.43-2.77s2.16-1.24,3.43-1.45v-3.95c-1.18-.33-2.16-.98-2.93-1.93-.77-.95-1.16-2.07-1.16-3.34,0-1.51.53-2.8,1.59-3.86,1.06-1.06,2.35-1.59,3.86-1.59s2.8.53,3.86,1.59c1.06,1.06,1.59,2.35,1.59,3.86,0,1.27-.39,2.39-1.18,3.34s-1.76,1.6-2.91,1.93v3.95c1.27.21,2.42.7,3.43,1.45s1.83,1.68,2.43,2.77l3.68-1.27v-.36c0-1.51.53-2.8,1.59-3.86,1.06-1.06,2.35-1.59,3.86-1.59s2.8.53,3.86,1.59c1.06,1.06,1.59,2.35,1.59,3.86s-.53,2.8-1.59,3.86c-1.06,1.06-2.35,1.59-3.86,1.59-.97,0-1.86-.23-2.66-.68s-1.45-1.06-1.93-1.82l-3.68,1.23c.18,1.18.11,2.36-.23,3.52s-.92,2.23-1.77,3.2l2.59,3.18c.33-.15.68-.27,1.05-.34s.76-.11,1.18-.11c1.51,0,2.8.53,3.86,1.59,1.06,1.06,1.59,2.35,1.59,3.86s-.53,2.8-1.59,3.86c-1.06,1.06-2.35,1.59-3.86,1.59s-2.8-.53-3.86-1.59c-1.06-1.06-1.59-2.35-1.59-3.86,0-.61.1-1.19.3-1.75s.46-1.07.8-1.52l-2.59-3.23c-1.24.7-2.57,1.05-3.98,1.05s-2.73-.35-3.98-1.05l-2.54,3.23c.33.45.6.96.8,1.52s.3,1.14.3,1.75c0,1.51-.53,2.8-1.59,3.86-1.06,1.06-2.35,1.59-3.86,1.59ZM7.64,22.18c.51,0,.95-.17,1.3-.52s.52-.78.52-1.3-.17-.95-.52-1.3-.78-.52-1.3-.52-.95.17-1.3.52-.52.78-.52,1.3.17.95.52,1.3.78.52,1.3.52ZM13.09,41.27c.51,0,.95-.17,1.3-.52.35-.35.52-.78.52-1.3s-.17-.95-.52-1.3-.78-.52-1.3-.52-.95.17-1.3.52-.52.78-.52,1.3.17.95.52,1.3c.35.35.78.52,1.3.52ZM24,10.37c.51,0,.95-.17,1.3-.52.35-.35.52-.78.52-1.3s-.17-.95-.52-1.3c-.35-.35-.78-.52-1.3-.52s-.95.17-1.3.52-.52.78-.52,1.3.17.95.52,1.3.78.52,1.3.52ZM24,30.36c1.27,0,2.35-.44,3.23-1.32s1.32-1.95,1.32-3.23-.44-2.35-1.32-3.23c-.88-.88-1.95-1.32-3.23-1.32s-2.35.44-3.23,1.32c-.88.88-1.32,1.95-1.32,3.23s.44,2.35,1.32,3.23,1.95,1.32,3.23,1.32ZM34.91,41.27c.51,0,.95-.17,1.3-.52.35-.35.52-.78.52-1.3s-.17-.95-.52-1.3-.78-.52-1.3-.52-.95.17-1.3.52-.52.78-.52,1.3.17.95.52,1.3c.35.35.78.52,1.3.52ZM40.36,22.18c.51,0,.95-.17,1.3-.52s.52-.78.52-1.3-.17-.95-.52-1.3-.78-.52-1.3-.52-.95.17-1.3.52-.52.78-.52,1.3.17.95.52,1.3.78.52,1.3.52Z"/>
</svg>