<?xml version="1.0" encoding="UTF-8"?>
<svg id="Layer_1" data-name="Layer 1" xmlns="http://www.w3.org/2000/svg" viewBox="0 0 48 48">
  <defs>
    <style>
      .cls-1 {
        fill: #4170ff;
        stroke-width: 0px;
      }
    </style>
  </defs>
  <path class="cls-1" d="M17.11,31.72c.72-.72,1.52-1.3,2.42-1.76s1.85-.77,2.86-.93c-.16.62-.29,1.24-.39,1.86s-.15,1.25-.15,1.9c0,.78.06,1.55.17,2.3.11.75.3,1.47.56,2.15l-5.47-5.52ZM12.96,27.61l-4.1-4.2c2.02-2.02,4.33-3.57,6.94-4.64,2.6-1.07,5.34-1.61,8.21-1.61,1.6,0,3.16.17,4.69.51s3,.84,4.4,1.49c-1.43.26-2.76.73-3.98,1.42s-2.32,1.53-3.3,2.54c-.29-.03-.59-.06-.9-.07s-.61-.02-.9-.02c-2.08,0-4.08.4-5.98,1.2-1.9.8-3.59,1.93-5.06,3.39ZM4.66,19.31L.56,15.21c3.09-3.16,6.67-5.58,10.72-7.25s8.3-2.52,12.72-2.52,8.67.84,12.72,2.52,7.63,4.09,10.72,7.25l-4.1,4.1c-2.57-2.57-5.53-4.55-8.86-5.93s-6.83-2.08-10.48-2.08-7.14.69-10.48,2.08c-3.34,1.38-6.29,3.36-8.86,5.93ZM37.68,23.02l.59,2.93c.39.16.76.33,1.1.51s.69.4,1.05.66l2.83-.88,1.95,3.32-2.25,1.95c.07.39.1.81.1,1.27s-.03.88-.1,1.27l2.25,1.95-1.95,3.32-2.83-.88c-.36.26-.71.48-1.05.66s-.71.35-1.1.51l-.59,2.93h-3.91l-.59-2.93c-.39-.16-.76-.33-1.1-.51s-.69-.4-1.05-.66l-2.83.88-1.95-3.32,2.25-1.95c-.07-.39-.1-.81-.1-1.27s.03-.88.1-1.27l-2.25-1.95,1.95-3.32,2.83.88c.36-.26.71-.48,1.05-.66s.71-.35,1.1-.51l.59-2.93h3.91ZM35.72,28.88c-1.07,0-1.99.38-2.76,1.15s-1.15,1.69-1.15,2.76.38,1.99,1.15,2.76c.77.77,1.69,1.15,2.76,1.15s1.99-.38,2.76-1.15c.77-.77,1.15-1.69,1.15-2.76s-.38-1.99-1.15-2.76-1.69-1.15-2.76-1.15Z"/>
</svg>