<?xml version="1.0" encoding="UTF-8"?>
<svg id="Layer_1" data-name="Layer 1" xmlns="http://www.w3.org/2000/svg" viewBox="0 0 48 48">
  <defs>
    <style>
      .cls-1 {
        fill: #4170ff;
        stroke-width: 0px;
      }
    </style>
  </defs>
  <path class="cls-1" d="M.54,36.8v-5.97c0-1.21.31-2.32.93-3.33.62-1.01,1.45-1.79,2.48-2.32,2.2-1.1,4.44-1.93,6.72-2.48,2.27-.55,4.59-.83,6.93-.83,1.6,0,3.18.12,4.75.37,1.56.25,3.13.64,4.69,1.17-.6.5-1.16,1.04-1.65,1.63s-.94,1.22-1.33,1.89c-1.07-.28-2.13-.49-3.2-.61s-2.15-.19-3.25-.19c-1.99,0-3.96.24-5.92.72-1.96.48-3.89,1.2-5.81,2.16-.32.18-.58.43-.77.75s-.29.68-.29,1.07v1.71h17.22c-.07.71-.11,1.42-.11,2.13s.04,1.42.11,2.13H.54ZM17.6,19.73c-2.35,0-4.35-.84-6.03-2.51-1.67-1.67-2.51-3.68-2.51-6.03s.84-4.35,2.51-6.03c1.67-1.67,3.68-2.51,6.03-2.51s4.35.84,6.03,2.51c1.67,1.67,2.51,3.68,2.51,6.03s-.84,4.35-2.51,6.03c-1.67,1.67-3.68,2.51-6.03,2.51ZM17.6,15.47c1.17,0,2.18-.42,3.01-1.25.84-.84,1.25-1.84,1.25-3.01s-.42-2.18-1.25-3.01c-.84-.84-1.84-1.25-3.01-1.25s-2.18.42-3.01,1.25c-.84.84-1.25,1.84-1.25,3.01s.42,2.18,1.25,3.01c.84.84,1.84,1.25,3.01,1.25ZM38.93,11.2c0,2.35-.84,4.35-2.51,6.03-1.67,1.67-3.68,2.51-6.03,2.51-.39,0-.89-.04-1.49-.13s-1.1-.19-1.49-.29c.96-1.14,1.7-2.4,2.21-3.79.52-1.39.77-2.83.77-4.32s-.26-2.93-.77-4.32c-.52-1.39-1.25-2.65-2.21-3.79.5-.18,1-.29,1.49-.35s1-.08,1.49-.08c2.35,0,4.35.84,6.03,2.51,1.67,1.67,2.51,3.68,2.51,6.03ZM36.8,45.33c-2.95,0-5.47-1.04-7.54-3.12s-3.12-4.59-3.12-7.54,1.04-5.51,3.12-7.57c2.08-2.06,4.59-3.09,7.54-3.09s5.51,1.03,7.57,3.09c2.06,2.06,3.09,4.59,3.09,7.57s-1.03,5.47-3.09,7.54-4.59,3.12-7.57,3.12ZM35.3,39.46l7.52-7.57-1.49-1.49-6.03,6.03-3.04-3.04-1.49,1.55,4.53,4.53Z"/>
</svg>