<?xml version="1.0" encoding="UTF-8"?>
<svg id="Layer_1" data-name="Layer 1" xmlns="http://www.w3.org/2000/svg" viewBox="0 0 48 48">
  <defs>
    <style>
      .cls-1 {
        fill: #4170ff;
        stroke-width: 0px;
      }
    </style>
  </defs>
  <path class="cls-1" d="M30.32,44.71l-9.86-9.86,3.25-3.25,6.61,6.61,13.11-13.11,3.25,3.25-16.36,16.36ZM43.08,21.68h-4.64v-11.6h-4.64v6.96H10.6v-6.96h-4.64v32.48h13.92v4.64H5.96c-1.28,0-2.37-.45-3.28-1.36-.91-.91-1.36-2-1.36-3.28V10.08c0-1.28.45-2.37,1.36-3.28.91-.91,2-1.36,3.28-1.36h9.69c.43-1.35,1.26-2.47,2.49-3.34s2.59-1.31,4.06-1.31c1.55,0,2.93.44,4.15,1.31s2.04,1.98,2.47,3.34h9.63c1.28,0,2.37.45,3.28,1.36s1.36,2,1.36,3.28v11.6ZM22.2,10.08c.66,0,1.21-.22,1.65-.67.44-.44.67-1,.67-1.65s-.22-1.21-.67-1.65c-.44-.44-1-.67-1.65-.67s-1.21.22-1.65.67-.67,1-.67,1.65.22,1.21.67,1.65,1,.67,1.65.67Z"/>
</svg>