<?xml version="1.0" encoding="UTF-8"?>
<svg id="Layer_1" data-name="Layer 1" xmlns="http://www.w3.org/2000/svg" viewBox="0 0 48 48">
  <defs>
    <style>
      .cls-1 {
        fill: #4170ff;
        stroke-width: 0px;
      }
    </style>
  </defs>
  <path class="cls-1" d="M27.61,43.97c-2.74,0-5.3-.51-7.68-1.53-2.38-1.02-4.48-2.41-6.29-4.19l3.16-3.16c1.41,1.37,3.03,2.45,4.88,3.24s3.83,1.19,5.93,1.19c4.29,0,7.95-1.52,10.98-4.55,3.03-3.03,4.55-6.69,4.55-10.98s-1.52-7.95-4.55-10.98c-3.03-3.03-6.69-4.55-10.98-4.55s-7.95,1.52-10.98,4.55c-3.03,3.03-4.55,6.69-4.55,10.98v.39l4.05-4.05,3.16,3.11-9.43,9.43L.43,23.45l3.16-3.11,4.05,4.1v-.44c0-2.77.53-5.37,1.58-7.79,1.05-2.42,2.48-4.53,4.27-6.32,1.79-1.79,3.9-3.22,6.32-4.27,2.42-1.05,5.02-1.58,7.79-1.58s5.37.53,7.79,1.58c2.42,1.05,4.53,2.48,6.32,4.27s3.22,3.9,4.27,6.32c1.05,2.42,1.58,5.02,1.58,7.79,0,5.55-1.94,10.26-5.82,14.14-3.88,3.88-8.6,5.82-14.14,5.82ZM23.17,32.87c-.63,0-1.16-.21-1.58-.64s-.64-.95-.64-1.58v-6.66c0-.63.21-1.16.64-1.58.43-.43.95-.64,1.58-.64v-2.22c0-1.22.43-2.26,1.3-3.13.87-.87,1.91-1.3,3.13-1.3s2.26.43,3.13,1.3c.87.87,1.3,1.91,1.3,3.13v2.22c.63,0,1.16.21,1.58.64.43.43.64.95.64,1.58v6.66c0,.63-.21,1.16-.64,1.58s-.95.64-1.58.64h-8.87ZM25.39,21.78h4.44v-2.22c0-.63-.21-1.16-.64-1.58s-.95-.64-1.58-.64-1.16.21-1.58.64-.64.95-.64,1.58v2.22Z"/>
</svg>