<?xml version="1.0" encoding="UTF-8"?>
<svg id="Layer_1" data-name="Layer 1" xmlns="http://www.w3.org/2000/svg" viewBox="0 0 48 48">
  <defs>
    <style>
      .cls-1 {
        fill: #4170ff;
        stroke-width: 0px;
      }
    </style>
  </defs>
  <path class="cls-1" d="M30.15,41.88l4.47,4.47H10.59c-1.23,0-2.28-.44-3.16-1.31s-1.31-1.93-1.31-3.16V6.12c0-1.23.44-2.28,1.31-3.16.88-.88,1.93-1.31,3.16-1.31h20.11l11.17,13.41v26.82c0,.74-.16,1.42-.47,2.04s-.75,1.13-1.31,1.54l-11.62-11.51c-.63.41-1.32.72-2.07.92-.74.2-1.55.31-2.4.31-2.46,0-4.56-.88-6.31-2.63-1.75-1.75-2.63-3.85-2.63-6.31s.88-4.56,2.63-6.31c1.75-1.75,3.85-2.63,6.31-2.63s4.56.88,6.31,2.63c1.75,1.75,2.63,3.85,2.63,6.31,0,.86-.1,1.66-.31,2.4-.2.74-.51,1.43-.92,2.07l5.7,5.81v-19.89l-8.83-10.5H10.59v35.76h19.55ZM24,30.7c1.23,0,2.28-.44,3.16-1.31s1.31-1.93,1.31-3.16-.44-2.28-1.31-3.16c-.88-.88-1.93-1.31-3.16-1.31s-2.28.44-3.16,1.31c-.88.88-1.31,1.93-1.31,3.16s.44,2.28,1.31,3.16,1.93,1.31,3.16,1.31Z"/>
</svg>