<?xml version="1.0" encoding="UTF-8"?>
<svg id="Layer_1" data-name="Layer 1" xmlns="http://www.w3.org/2000/svg" viewBox="0 0 48 48">
  <defs>
    <style>
      .cls-1 {
        fill: #4170ff;
        stroke-width: 0px;
      }
    </style>
  </defs>
  <path class="cls-1" d="M12.26,41.07c-3.24,0-6-1.12-8.3-3.36-2.29-2.24-3.44-4.98-3.44-8.22,0-2.77.84-5.25,2.51-7.42,1.67-2.17,3.86-3.56,6.56-4.16.89-3.27,2.67-5.92,5.34-7.95s5.69-3.04,9.07-3.04c4.16,0,7.69,1.45,10.59,4.35,2.9,2.9,4.35,6.43,4.35,10.59,2.45.28,4.49,1.34,6.11,3.17s2.43,3.97,2.43,6.43c0,2.67-.93,4.94-2.8,6.8-1.87,1.87-4.13,2.8-6.8,2.8H12.26ZM12.26,36.8h25.61c1.49,0,2.76-.52,3.79-1.55,1.03-1.03,1.55-2.29,1.55-3.79s-.52-2.76-1.55-3.79c-1.03-1.03-2.29-1.55-3.79-1.55h-3.2v-4.27c0-2.95-1.04-5.47-3.12-7.55-2.08-2.08-4.6-3.12-7.55-3.12s-5.47,1.04-7.55,3.12-3.12,4.6-3.12,7.55h-1.07c-2.06,0-3.82.73-5.28,2.19-1.46,1.46-2.19,3.22-2.19,5.28s.73,3.82,2.19,5.28c1.46,1.46,3.22,2.19,5.28,2.19Z"/>
</svg>