<?xml version="1.0" encoding="UTF-8"?>
<svg id="Layer_1" data-name="Layer 1" xmlns="http://www.w3.org/2000/svg" viewBox="0 0 48 48">
  <defs>
    <style>
      .cls-1 {
        fill: #4170ff;
        stroke-width: 0px;
      }
    </style>
  </defs>
  <path class="cls-1" d="M.85,42.52v-4.63h6.31c-1.97-1.7-3.51-3.74-4.63-6.14s-1.68-4.98-1.68-7.76c0-4.32,1.31-8.13,3.94-11.43,2.62-3.3,5.94-5.47,9.96-6.51v4.86c-2.7.96-4.92,2.63-6.66,5.01s-2.6,5.07-2.6,8.08c0,2.08.41,4,1.24,5.76.83,1.76,1.96,3.27,3.39,4.54v-5.67h4.63v13.89H.85ZM26.32,42.52c-1.93,0-3.57-.68-4.92-2.03-1.35-1.35-2.03-2.99-2.03-4.92s.64-3.44,1.91-4.78c1.27-1.33,2.84-2.04,4.69-2.11.66-1.39,1.63-2.52,2.92-3.39s2.75-1.3,4.37-1.3c2.05,0,3.81.67,5.3,2,1.49,1.33,2.38,2.98,2.69,4.95,1.62,0,3.01.56,4.17,1.68s1.74,2.47,1.74,4.05-.56,3-1.68,4.14-2.49,1.71-4.11,1.71h-15.05ZM33.03,21.68c-.27-1.58-.79-3.05-1.56-4.4-.77-1.35-1.72-2.55-2.84-3.59v5.67h-4.63V5.48h13.89v4.63h-6.31c1.66,1.47,3.02,3.18,4.08,5.15s1.75,4.11,2.05,6.43h-4.69Z"/>
</svg>