<?xml version="1.0" encoding="UTF-8"?>
<svg id="Layer_1" data-name="Layer 1" xmlns="http://www.w3.org/2000/svg" viewBox="0 0 48 48">
  <defs>
    <style>
      .cls-1 {
        fill: #4170ff;
        stroke-width: 0px;
      }
    </style>
  </defs>
  <path class="cls-1" d="M22.17,27.65c1.54,0,2.84-.53,3.9-1.58,1.06-1.06,1.58-2.35,1.58-3.9s-.53-2.84-1.58-3.9c-1.06-1.06-2.35-1.58-3.9-1.58s-2.84.53-3.9,1.58-1.58,2.35-1.58,3.9.53,2.84,1.58,3.9,2.35,1.58,3.9,1.58ZM33.93,37.4l-6.39-6.39c-.81.53-1.67.91-2.59,1.16s-1.84.37-2.77.37c-2.88,0-5.33-1-7.34-3.01s-3.01-4.46-3.01-7.34,1-5.33,3.01-7.34c2.01-2.01,4.46-3.01,7.34-3.01s5.33,1,7.34,3.01c2.01,2.01,3.01,4.46,3.01,7.34,0,.93-.13,1.86-.4,2.77-.26.91-.66,1.78-1.19,2.59l6.46,6.46-3.47,3.41ZM6.95,45.92c-1.34,0-2.49-.48-3.44-1.43-.95-.95-1.43-2.1-1.43-3.44v-9.74h4.87v9.74h9.74v4.87H6.95ZM31.31,45.92v-4.87h9.74v-9.74h4.87v9.74c0,1.34-.48,2.49-1.43,3.44-.95.95-2.1,1.43-3.44,1.43h-9.74ZM2.08,16.69V6.95c0-1.34.48-2.49,1.43-3.44.95-.95,2.1-1.43,3.44-1.43h9.74v4.87H6.95v9.74H2.08ZM41.05,16.69V6.95h-9.74V2.08h9.74c1.34,0,2.49.48,3.44,1.43s1.43,2.1,1.43,3.44v9.74h-4.87Z"/>
</svg>