<?xml version="1.0" encoding="UTF-8"?>
<svg id="Layer_1" data-name="Layer 1" xmlns="http://www.w3.org/2000/svg" viewBox="0 0 48 48">
  <defs>
    <style>
      .cls-1 {
        fill: #4170ff;
        stroke-width: 0px;
      }
    </style>
  </defs>
  <path class="cls-1" d="M28.43,46.94c-.91,0-1.68-.32-2.32-.96-.64-.64-.96-1.41-.96-2.32v-15.3c0-.91.32-1.68.96-2.32s1.41-.96,2.32-.96h15.3c.91,0,1.68.32,2.32.96s.96,1.41.96,2.32v15.3c0,.91-.32,1.68-.96,2.32-.64.64-1.41.96-2.32.96h-15.3ZM28.43,43.67h15.3v-1.75c-.91-1.13-2.02-2.03-3.33-2.7s-2.75-1.01-4.32-1.01-3,.34-4.32,1.01-2.42,1.58-3.33,2.7v1.75ZM36.07,36.02c.91,0,1.68-.32,2.32-.96.64-.64.96-1.41.96-2.32s-.32-1.68-.96-2.32-1.41-.96-2.32-.96-1.68.32-2.32.96-.96,1.41-.96,2.32.32,1.68.96,2.32c.64.64,1.41.96,2.32.96ZM23.07,15.26c-2.11,0-3.92.75-5.41,2.24-1.49,1.49-2.24,3.3-2.24,5.41,0,1.75.49,3.28,1.48,4.59s2.28,2.22,3.88,2.73v-4.92c-.29-.29-.53-.66-.71-1.12s-.27-.88-.27-1.28c0-.91.32-1.68.96-2.32.64-.64,1.41-.96,2.32-.96.51,0,.97.1,1.37.3.4.2.75.46,1.04.79h4.92c-.47-1.6-1.37-2.91-2.7-3.93-1.33-1.02-2.87-1.53-4.62-1.53ZM16.95,44.76l-.87-6.99c-.47-.18-.92-.4-1.34-.66s-.83-.53-1.23-.82l-6.5,2.73L1,28.64l5.63-4.26c-.04-.25-.05-.5-.05-.74v-1.48c0-.24.02-.48.05-.74l-5.63-4.26L7.01,6.79l6.5,2.73c.4-.29.82-.56,1.26-.82s.87-.47,1.31-.66l.87-6.99h12.02l.87,6.99c.47.18.92.4,1.34.66s.83.53,1.23.82l6.5-2.73,6.01,10.38-4.64,3.55h-5.52c-.04-.18-.07-.37-.11-.57s-.09-.39-.16-.57l4.7-3.55-2.13-3.71-5.41,2.29c-.8-.84-1.68-1.54-2.65-2.1s-2.01-.99-3.14-1.28l-.71-5.79h-4.32l-.76,5.79c-1.13.29-2.18.72-3.14,1.28s-1.85,1.25-2.65,2.05l-5.41-2.24-2.13,3.71,4.7,3.5c-.18.55-.31,1.09-.38,1.64s-.11,1.13-.11,1.75c0,.58.04,1.15.11,1.69s.2,1.09.38,1.64l-4.7,3.55,2.13,3.71,5.41-2.29c.87.91,1.86,1.68,2.95,2.29s2.28,1.02,3.55,1.2v10.05h-3.82Z"/>
</svg>