<?xml version="1.0" encoding="UTF-8"?>
<svg id="Layer_1" data-name="Layer 1" xmlns="http://www.w3.org/2000/svg" viewBox="0 0 48 48">
  <defs>
    <style>
      .cls-1 {
        fill: #4170ff;
        stroke-width: 0px;
      }
    </style>
  </defs>
  <path class="cls-1" d="M1.72,37.86v-4.6h6.33l-.92-.81c-1.99-1.76-3.39-3.78-4.2-6.04s-1.21-4.54-1.21-6.84c0-4.26,1.27-8.04,3.82-11.36,2.55-3.32,5.88-5.51,9.98-6.58v4.83c-2.76,1-4.98,2.69-6.67,5.09-1.69,2.4-2.53,5.07-2.53,8.02,0,1.73.33,3.4.98,5.03.65,1.63,1.67,3.13,3.05,4.51l.58.58v-5.64h4.6v13.8H1.72ZM42.95,17.16h-4.66c-.19-1.34-.6-2.63-1.24-3.85-.63-1.23-1.49-2.4-2.56-3.51l-.58-.58v5.64h-4.6V1.06h13.8v4.6h-6.33l.92.81c1.57,1.61,2.78,3.32,3.62,5.12.84,1.8,1.38,3.66,1.61,5.58ZM30.27,46.94l-.82-4.11c-.55-.23-1.06-.47-1.54-.72s-.97-.56-1.47-.92l-3.97,1.23-2.74-4.65,3.15-2.74c-.09-.64-.14-1.23-.14-1.78s.05-1.14.14-1.78l-3.15-2.74,2.74-4.65,3.97,1.23c.5-.36.99-.67,1.47-.92s.99-.49,1.54-.72l.82-4.11h5.47l.82,4.11c.55.23,1.06.48,1.54.75s.97.62,1.47,1.03l3.97-1.37,2.74,4.79-3.15,2.74c.09.55.14,1.12.14,1.71s-.05,1.16-.14,1.71l3.15,2.74-2.74,4.65-3.97-1.23c-.5.36-.99.67-1.47.92s-.99.49-1.54.72l-.82,4.11h-5.47ZM33.01,38.73c1.51,0,2.79-.54,3.87-1.61s1.61-2.36,1.61-3.87-.54-2.79-1.61-3.87-2.36-1.61-3.87-1.61-2.79.54-3.87,1.61-1.61,2.36-1.61,3.87.54,2.79,1.61,3.87,2.36,1.61,3.87,1.61Z"/>
</svg>