<?xml version="1.0" encoding="UTF-8"?>
<svg id="Layer_1" data-name="Layer 1" xmlns="http://www.w3.org/2000/svg" viewBox="0 0 48 48">
  <defs>
    <style>
      .cls-1 {
        fill-rule: evenodd;
      }

      .cls-1, .cls-2 {
        fill: #4170ff;
        stroke-width: 0px;
      }
    </style>
  </defs>
  <g>
    <path class="cls-1" d="M28.87,7.76c2.16.73,4.13,1.88,5.81,3.36.45.39,1.06.47,1.59.19l3.3-1.74c.67-.35,1.5-.11,1.88.54l2.98,5.16c.38.66.17,1.49-.47,1.9l-2.82,1.78h-2.57c-.67,0-1.27.36-1.58.95l-1.12,2.11h-1.75c-.41-2.22-1.49-4.21-3.02-5.75-1.97-1.97-4.71-3.2-7.72-3.2s-5.75,1.23-7.72,3.2c-1.97,1.97-3.2,4.71-3.2,7.72s1.23,5.75,3.2,7.72c1.97,1.97,4.71,3.2,7.72,3.2s5.75-1.23,7.72-3.2c1.54-1.54,2.62-3.53,3.02-5.75h1.75l1.12,2.11c.31.59.91.95,1.58.95h2.57l2.82,1.78c.64.4.85,1.25.47,1.9l-2.98,5.16c-.38.66-1.21.9-1.88.54l-3.3-1.74c-.53-.28-1.14-.21-1.59.19-1.68,1.47-3.65,2.63-5.81,3.36-.56.19-.94.69-.96,1.28l-.14,3.73c-.03.76-.65,1.36-1.41,1.36h-5.97c-.76,0-1.38-.6-1.41-1.36l-.14-3.72c-.03-.59-.39-1.09-.96-1.28-2.16-.73-4.13-1.89-5.81-3.36-.45-.39-1.06-.47-1.59-.19l-3.3,1.74c-.67.35-1.5.11-1.88-.54l-2.98-5.16c-.38-.66-.17-1.49.47-1.9l3.15-1.99c.51-.32.75-.88.63-1.47-.22-1.09-.33-2.21-.33-3.36s.11-2.27.33-3.36c.11-.58-.13-1.15-.63-1.47l-3.15-1.99c-.64-.4-.85-1.25-.47-1.9l2.98-5.16c.38-.66,1.21-.9,1.88-.54l3.3,1.74c.53.28,1.14.21,1.59-.19,1.68-1.47,3.65-2.63,5.81-3.36.56-.19.94-.69.96-1.28l.14-3.72c.03-.76.65-1.36,1.41-1.36h5.97c.76,0,1.38.6,1.41,1.36l.14,3.73c.02.59.39,1.09.96,1.28h0Z"/>
    <rect class="cls-2" x="24.05" y="23.5" width="18.39" height="1"/>
    <path class="cls-2" d="M26.23,23.99c0,1.7-1.27,3-2.96,2.99-1.69,0-2.91-1.34-2.96-3.13-.04-1.3,1.41-2.83,2.81-2.83,1.9,0,3.25,1.29,3.12,2.97Z"/>
    <path class="cls-1" d="M27.8,25.61c-.63,1.92-2.37,3.24-4.53,3.23-2.75,0-4.72-2.18-4.82-5.09-.07-2.11,2.28-4.6,4.56-4.6,2.45,0,4.3,1.33,4.87,3.23h3.51c-.75-3.68-4-6.46-7.91-6.46-4.46,0-8.07,3.61-8.07,8.07s3.61,8.07,8.07,8.07c3.91,0,7.16-2.77,7.91-6.46h-3.6Z"/>
  </g>
  <path class="cls-1" d="M45.83,26.65l-1.25-2.73,1.25-2.36c.07-.13.07-.26,0-.39-.07-.12-.2-.19-.34-.19h-5.56c-.15,0-.28.08-.35.21l-1.21,2.28v1.27l1.21,2.28c.07.13.2.21.35.21h5.56c.14,0,.26-.07.34-.19s.08-.26,0-.39Z"/>
</svg>