<?xml version="1.0" encoding="UTF-8"?>
<svg id="Layer_1" data-name="Layer 1" xmlns="http://www.w3.org/2000/svg" viewBox="0 0 48 48">
  <defs>
    <style>
      .cls-1 {
        fill: none;
      }

      .cls-1, .cls-2 {
        stroke-width: 0px;
      }

      .cls-2 {
        fill: #4170ff;
      }
    </style>
  </defs>
  <path class="cls-1" d="M19.2,28.47c0,1.32.47,2.45,1.41,3.39.94.94,2.07,1.41,3.39,1.41s2.45-.47,3.39-1.41c.94-.94,1.41-2.07,1.41-3.39s-.47-2.45-1.41-3.39c-.94-.94-2.07-1.41-3.39-1.41s-2.45.47-3.39,1.41c-.94.94-1.41,2.07-1.41,3.39Z"/>
  <path class="cls-1" d="M30.66,37.05c-1.04-.44-2.11-.78-3.21-1.02-1.1-.24-2.25-.36-3.45-.36s-2.35.12-3.45.36c-1.1.24-2.17.58-3.21,1.02-.92.4-1.64,1-2.16,1.8s-.78,1.68-.78,2.64v1.38h19.2v-1.38c0-.96-.26-1.84-.78-2.64s-1.24-1.4-2.16-1.8Z"/>
  <path class="cls-2" d="M28.8,0H9.6c-1.32,0-2.45.47-3.39,1.41-.94.94-1.41,2.07-1.41,3.39v38.4c0,1.32.47,2.45,1.41,3.39.94.94,2.07,1.41,3.39,1.41h28.8c1.32,0,2.45-.47,3.39-1.41s1.41-2.07,1.41-3.39V14.4L28.8,0ZM29.67,31.15c.61-.61,1.34-.91,2.2-.91s1.59.3,2.19.91c.61.61.91,1.34.91,2.2s-.3,1.59-.91,2.19c-.61.61-1.34.91-2.19.91s-1.59-.3-2.2-.91c-.61-.61-.91-1.34-.91-2.19s.3-1.59.91-2.2ZM14.15,31.15c.61-.61,1.34-.91,2.2-.91s1.59.3,2.19.91.91,1.34.91,2.2-.3,1.59-.91,2.19c-.61.61-1.34.91-2.19.91s-1.59-.3-2.2-.91-.91-1.34-.91-2.19.3-1.59.91-2.2ZM10.12,41.78c0-.62.17-1.19.5-1.71.34-.52.8-.91,1.4-1.17.67-.28,1.37-.5,2.08-.66s1.46-.23,2.23-.23,1.52.08,2.23.23c.71.16,1.41.38,2.08.66.6.26,1.06.65,1.4,1.17s.51,1.09.51,1.71v.89h-12.43v-.89ZM24,6.52c1.32,0,2.45.47,3.39,1.41.94.94,1.41,2.07,1.41,3.39s-.47,2.45-1.41,3.39c-.94.94-2.07,1.41-3.39,1.41s-2.45-.47-3.39-1.41c-.94-.94-1.41-2.07-1.41-3.39s.47-2.45,1.41-3.39c.94-.94,2.07-1.41,3.39-1.41ZM33.6,25.72H14.4v-1.38c0-.96.26-1.84.78-2.64s1.24-1.4,2.16-1.8c1.04-.44,2.11-.78,3.21-1.02,1.1-.24,2.25-.36,3.45-.36s2.35.12,3.45.36c1.1.24,2.17.58,3.21,1.02.92.4,1.64,1,2.16,1.8s.78,1.68.78,2.64v1.38ZM38.08,42.67h-12.43v-.89c0-.62.17-1.19.5-1.71.34-.52.8-.91,1.4-1.17.67-.28,1.37-.5,2.08-.66.71-.16,1.46-.23,2.23-.23s1.52.08,2.23.23c.71.16,1.4.38,2.08.66.6.26,1.06.65,1.4,1.17.34.52.51,1.09.51,1.71v.89Z"/>
</svg>