<?xml version="1.0" encoding="UTF-8"?>
<svg id="Layer_1" data-name="Layer 1" xmlns="http://www.w3.org/2000/svg" viewBox="0 0 48 48">
  <defs>
    <style>
      .cls-1 {
        fill: #4170ff;
        stroke-width: 0px;
      }
    </style>
  </defs>
  <path class="cls-1" d="M.38,42.42v-6.61c0-1.3.33-2.52,1-3.66s1.59-2.01,2.78-2.6c2.01-1.02,4.27-1.89,6.79-2.6,2.52-.71,5.29-1.06,8.33-1.06,1.18,0,2.33.06,3.45.18s2.21.3,3.28.53l-4.13,4.13c-.43-.08-.86-.12-1.27-.12h-1.33c-2.79,0-5.3.33-7.53,1-2.22.67-4.04,1.4-5.46,2.18-.35.2-.64.47-.86.83s-.32.75-.32,1.18v1.89h14.76l4.72,4.72H.38ZM32.38,43.37l-8.15-8.15,3.31-3.31,4.84,4.84,11.93-11.93,3.31,3.31-15.23,15.23ZM19.28,23.53c-2.6,0-4.82-.93-6.67-2.78-1.85-1.85-2.78-4.07-2.78-6.67s.93-4.82,2.78-6.67c1.85-1.85,4.07-2.78,6.67-2.78s4.82.93,6.67,2.78c1.85,1.85,2.78,4.07,2.78,6.67s-.93,4.82-2.78,6.67-4.07,2.78-6.67,2.78ZM19.28,18.8c1.3,0,2.41-.46,3.34-1.39s1.39-2.04,1.39-3.34-.46-2.41-1.39-3.34-2.04-1.39-3.34-1.39-2.41.46-3.34,1.39-1.39,2.04-1.39,3.34.46,2.41,1.39,3.34c.93.93,2.04,1.39,3.34,1.39Z"/>
</svg>