<?xml version="1.0" encoding="UTF-8"?>
<svg id="Layer_1" data-name="Layer 1" xmlns="http://www.w3.org/2000/svg" viewBox="0 0 48 48">
  <defs>
    <style>
      .cls-1 {
        fill: #4170ff;
        stroke-width: 0px;
      }
    </style>
  </defs>
  <path class="cls-1" d="M5.92,47.24c-1.42,0-2.64-.51-3.65-1.52-1.01-1.01-1.52-2.23-1.52-3.65V5.92c0-1.42.51-2.64,1.52-3.65,1.01-1.01,2.23-1.52,3.65-1.52h23.24v5.17H5.92v36.16h36.16v-23.24h5.17v23.24c0,1.42-.51,2.64-1.52,3.65-1.01,1.01-2.23,1.52-3.65,1.52H5.92ZM11.09,36.91h5.17v-18.08h-5.17v18.08ZM21.42,36.91h5.17V11.09h-5.17v25.83ZM31.75,36.91h5.17v-10.33h-5.17v10.33ZM36.91,16.25v-5.17h-5.17v-5.17h5.17V.76h5.17v5.17h5.17v5.17h-5.17v5.17h-5.17Z"/>
</svg>