<?xml version="1.0" encoding="UTF-8"?>
<svg id="Layer_1" data-name="Layer 1" xmlns="http://www.w3.org/2000/svg" viewBox="0 0 48 48">
  <defs>
    <style>
      .cls-1 {
        fill: #4170ff;
        stroke-width: 0px;
      }
    </style>
  </defs>
  <path class="cls-1" d="M16.47,31.53v-15.07h15.07v15.07h-15.07ZM21.49,26.51h5.02v-5.02h-5.02v5.02ZM16.47,46.6v-5.02h-5.02c-1.38,0-2.56-.49-3.55-1.48-.98-.98-1.48-2.17-1.48-3.55v-5.02H1.4v-5.02h5.02v-5.02H1.4v-5.02h5.02v-5.02c0-1.38.49-2.56,1.48-3.55.98-.98,2.17-1.48,3.55-1.48h5.02V1.4h5.02v5.02h5.02V1.4h5.02v5.02h5.02c1.38,0,2.56.49,3.55,1.48s1.48,2.17,1.48,3.55v5.02h5.02v5.02h-5.02v5.02h5.02v5.02h-5.02v5.02c0,1.38-.49,2.56-1.48,3.55s-2.17,1.48-3.55,1.48h-5.02v5.02h-5.02v-5.02h-5.02v5.02h-5.02ZM36.56,36.56V11.44H11.44v25.12h25.12Z"/>
</svg>