<?xml version="1.0" encoding="UTF-8"?>
<svg id="Layer_1" data-name="Layer 1" xmlns="http://www.w3.org/2000/svg" viewBox="0 0 48 48">
  <defs>
    <style>
      .cls-1 {
        fill: #4170ff;
        stroke-width: 0px;
      }
    </style>
  </defs>
  <path class="cls-1" d="M31.55,7.73c-.81,0-1.5-.28-2.06-.84s-.84-1.25-.84-2.06.28-1.5.84-2.06,1.25-.84,2.06-.84,1.5.28,2.06.84.84,1.25.84,2.06-.28,1.5-.84,2.06-1.25.84-2.06.84ZM31.55,46.08c-.81,0-1.5-.28-2.06-.84s-.84-1.25-.84-2.06.28-1.5.84-2.06c.56-.56,1.25-.84,2.06-.84s1.5.28,2.06.84.84,1.25.84,2.06-.28,1.5-.84,2.06-1.25.84-2.06.84ZM40.85,15.87c-.81,0-1.5-.28-2.06-.84s-.84-1.25-.84-2.06.28-1.5.84-2.06,1.25-.84,2.06-.84,1.5.28,2.06.84.84,1.25.84,2.06-.28,1.5-.84,2.06-1.25.84-2.06.84ZM40.85,37.95c-.81,0-1.5-.28-2.06-.84-.56-.56-.84-1.25-.84-2.06s.28-1.5.84-2.06,1.25-.84,2.06-.84,1.5.28,2.06.84c.56.56.84,1.25.84,2.06s-.28,1.5-.84,2.06c-.56.56-1.25.84-2.06.84ZM44.34,26.91c-.81,0-1.5-.28-2.06-.84s-.84-1.25-.84-2.06.28-1.5.84-2.06c.56-.56,1.25-.84,2.06-.84s1.5.28,2.06.84c.56.56.84,1.25.84,2.06s-.28,1.5-.84,2.06c-.56.56-1.25.84-2.06.84ZM24,47.24c-3.22,0-6.24-.61-9.06-1.83-2.83-1.22-5.29-2.88-7.38-4.97s-3.75-4.55-4.97-7.38c-1.22-2.83-1.83-5.85-1.83-9.06s.61-6.24,1.83-9.06c1.22-2.83,2.88-5.29,4.97-7.38s4.55-3.75,7.38-4.97c2.83-1.22,5.85-1.83,9.06-1.83v4.65c-5.19,0-9.59,1.8-13.19,5.4s-5.4,8-5.4,13.19,1.8,9.59,5.4,13.19,8,5.4,13.19,5.4v4.65ZM24,28.65c-1.28,0-2.37-.46-3.28-1.37-.91-.91-1.37-2-1.37-3.28,0-.19,0-.4.03-.61s.07-.42.15-.61l-4.82-4.82,3.25-3.25,4.82,4.82c.15-.04.56-.1,1.22-.17,1.28,0,2.37.46,3.28,1.37s1.37,2,1.37,3.28-.46,2.37-1.37,3.28c-.91.91-2,1.37-3.28,1.37Z"/>
</svg>