<?xml version="1.0" encoding="UTF-8"?>
<!DOCTYPE svg PUBLIC "-//W3C//DTD SVG 1.1//EN" "http://www.w3.org/Graphics/SVG/1.1/DTD/svg11.dtd">
<svg xmlns="http://www.w3.org/2000/svg" version="1.1" width="267px" height="267px" style="shape-rendering:geometricPrecision; text-rendering:geometricPrecision; image-rendering:optimizeQuality; fill-rule:evenodd; clip-rule:evenodd" xmlns:xlink="http://www.w3.org/1999/xlink">
<g><path style="opacity:0.963" fill="#416fff" d="M 176.5,59.5 C 184.087,59.1858 191.587,59.5192 199,60.5C 200.917,76.1649 202.75,91.8316 204.5,107.5C 193.167,107.5 181.833,107.5 170.5,107.5C 171.852,91.3776 173.852,75.3776 176.5,59.5 Z"/></g>
<g><path style="opacity:0.969" fill="#416fff" d="M 110.5,95.5 C 111.486,99.97 111.819,104.637 111.5,109.5C 123.592,105.524 135.425,100.858 147,95.5C 147.5,102.826 147.666,110.159 147.5,117.5C 167.167,117.5 186.833,117.5 206.5,117.5C 206.5,147.167 206.5,176.833 206.5,206.5C 157.5,206.5 108.5,206.5 59.5,206.5C 59.3334,176.831 59.5,147.165 60,117.5C 76.9663,110.262 93.7996,102.929 110.5,95.5 Z M 96.5,147.5 C 101.167,147.5 105.833,147.5 110.5,147.5C 110.5,157.167 110.5,166.833 110.5,176.5C 105.833,176.5 101.167,176.5 96.5,176.5C 96.5,166.833 96.5,157.167 96.5,147.5 Z M 126.5,147.5 C 130.833,147.5 135.167,147.5 139.5,147.5C 139.5,157.167 139.5,166.833 139.5,176.5C 135.167,176.5 130.833,176.5 126.5,176.5C 126.5,166.833 126.5,157.167 126.5,147.5 Z M 155.5,147.5 C 159.833,147.5 164.167,147.5 168.5,147.5C 168.5,157.167 168.5,166.833 168.5,176.5C 164.167,176.5 159.833,176.5 155.5,176.5C 155.5,166.833 155.5,157.167 155.5,147.5 Z"/></g>
</svg>
