<?xml version="1.0" encoding="UTF-8"?>
<svg id="Layer_1" data-name="Layer 1" xmlns="http://www.w3.org/2000/svg" viewBox="0 0 48 48">
  <defs>
    <style>
      .cls-1 {
        fill: #4170ff;
        stroke-width: 0px;
      }
    </style>
  </defs>
  <path class="cls-1" d="M29.71,3.38h-13.04c-2.05,0-3.8.73-5.26,2.19-1.46,1.46-2.19,3.21-2.19,5.26,0,2.05.73,3.8,2.19,5.26,1.46,1.46,3.21,2.19,5.26,2.19h18.62c1.02,0,1.9.36,2.63,1.09s1.09,1.61,1.09,2.63-.36,1.9-1.09,2.63c-.73.73-1.61,1.09-2.63,1.09h-13.04s0,3.72,0,3.72h13.04c2.05,0,3.8-.73,5.26-2.19,1.46-1.46,2.19-3.21,2.19-5.26,0-2.05-.73-3.8-2.19-5.26-1.46-1.46-3.21-2.19-5.26-2.19h-18.62c-1.02,0-1.9-.36-2.63-1.09-.73-.73-1.09-1.61-1.09-2.63s.36-1.9,1.09-2.63c.73-.73,1.61-1.09,2.63-1.09h13.04"/>
  <path class="cls-1" d="M23.56,36.88c.44-.77.81-1.6,1.1-2.48s.44-1.82.44-2.81c0-2.76-.96-5.1-2.89-7.03s-4.27-2.89-7.03-2.89-5.1.96-7.03,2.89c-1.93,1.93-2.89,4.27-2.89,7.03s.96,5.1,2.89,7.03c1.93,1.93,4.27,2.9,7.03,2.9.99,0,1.93-.15,2.81-.44.88-.29,1.71-.66,2.48-1.1l7.06,7.06,3.09-3.09-7.06-7.06ZM20.05,36.46c-1.32,1.32-2.95,1.99-4.87,1.99s-3.54-.66-4.87-1.99c-1.32-1.32-1.99-2.95-1.99-4.87s.66-3.54,1.99-4.86c1.32-1.33,2.95-1.99,4.87-1.99s3.54.66,4.87,1.99c1.32,1.32,1.99,2.95,1.99,4.86s-.66,3.54-1.99,4.87Z"/>
  <path class="cls-1" d="M14.43,28.82l.68.98c.2.3.38.6.56.88h.03c.18-.31.35-.62.54-.91l.61-.96h2.32l-2.27,2.82,2.3,3.1h-2.42l-.69-1.06c-.2-.29-.37-.59-.54-.9h-.04c-.17.32-.35.61-.52.9l-.65,1.06h-2.35l2.34-3.01-2.28-2.9h2.4Z"/>
  <circle class="cls-1" cx="32.38" cy="4.95" r="3.98"/>
</svg>