<?xml version="1.0" encoding="UTF-8"?>
<!DOCTYPE svg PUBLIC "-//W3C//DTD SVG 1.1//EN" "http://www.w3.org/Graphics/SVG/1.1/DTD/svg11.dtd">
<svg xmlns="http://www.w3.org/2000/svg" version="1.1" width="267px" height="267px" style="shape-rendering:geometricPrecision; text-rendering:geometricPrecision; image-rendering:optimizeQuality; fill-rule:evenodd; clip-rule:evenodd" xmlns:xlink="http://www.w3.org/1999/xlink">
<g><path style="opacity:0.931" fill="#416fff" d="M 157.5,56.5 C 172.459,57.7471 177.292,65.4138 172,79.5C 164.311,87.2664 156.478,87.4331 148.5,80C 132.833,79.3333 117.167,79.3333 101.5,80C 93.8814,83.7467 91.7147,89.5801 95,97.5C 96.8734,99.7089 99.04,101.542 101.5,103C 125.833,103.333 150.167,103.667 174.5,104C 192.133,108.987 198.967,120.487 195,138.5C 191.55,148.282 184.717,154.116 174.5,156C 161.167,156.333 147.833,156.667 134.5,157C 136.226,165.449 134.893,173.449 130.5,181C 138.681,189.014 146.681,197.181 154.5,205.5C 150.849,209.652 147.016,213.652 143,217.5C 135.167,209.667 127.333,201.833 119.5,194C 115.835,194.645 112.169,195.645 108.5,197C 88.1398,200.409 74.3064,192.576 67,173.5C 62.5388,150.649 71.3721,135.816 93.5,129C 107.696,126.62 119.363,130.953 128.5,142C 143.167,142.667 157.833,142.667 172.5,142C 182.117,138.263 184.617,131.763 180,122.5C 178.786,120.951 177.286,119.785 175.5,119C 150.229,117.694 124.896,117.028 99.5,117C 82.4457,111.064 76.279,99.2306 81,81.5C 84.3262,73.5074 90.1595,68.3407 98.5,66C 114.5,65.6667 130.5,65.3333 146.5,65C 149.159,60.6912 152.826,57.8579 157.5,56.5 Z M 99.5,139.5 C 116.378,141.875 124.211,151.541 123,168.5C 117.802,183.018 107.635,188.518 92.5,185C 77.8855,177.157 74.0522,165.657 81,150.5C 85.8383,144.341 92.005,140.674 99.5,139.5 Z"/></g>
<g><path style="opacity:0.867" fill="#416fff" d="M 89.5,153.5 C 92.8984,153.18 96.2317,153.513 99.5,154.5C 100.531,155.7 101.365,157.034 102,158.5C 104.84,153.55 109.007,152.216 114.5,154.5C 111.925,157.319 109.592,160.319 107.5,163.5C 109.833,166.833 112.167,170.167 114.5,173.5C 111.554,174.655 108.554,174.821 105.5,174C 104.274,172.365 102.941,170.865 101.5,169.5C 100.376,170.914 99.376,172.414 98.5,174C 95.1667,174.667 91.8333,174.667 88.5,174C 91.3585,170.642 94.0251,167.142 96.5,163.5C 94.1162,160.131 91.7829,156.797 89.5,153.5 Z"/></g>
</svg>
