<?xml version="1.0" encoding="UTF-8"?>
<svg id="Layer_1" data-name="Layer 1" xmlns="http://www.w3.org/2000/svg" viewBox="0 0 48 48">
  <defs>
    <style>
      .cls-1 {
        fill: #4170ff;
        stroke-width: 0px;
      }
    </style>
  </defs>
  <path class="cls-1" d="M23.08,15.3c-2.1,0-3.9.74-5.38,2.23-1.49,1.49-2.23,3.28-2.23,5.38,0,1.74.49,3.26,1.47,4.57s2.26,2.21,3.86,2.72v-4.89c-.29-.29-.53-.66-.71-1.11s-.27-.88-.27-1.28c0-.91.32-1.68.95-2.31.63-.63,1.4-.95,2.31-.95.51,0,.96.1,1.36.3.4.2.74.46,1.03.79h4.89c-.47-1.59-1.37-2.9-2.69-3.91-1.32-1.01-2.85-1.52-4.59-1.52Z"/>
  <path class="cls-1" d="M16.99,44.65l-.87-6.96c-.47-.18-.91-.4-1.33-.65s-.82-.53-1.22-.82l-6.47,2.72L1.12,28.62l5.6-4.24c-.04-.25-.05-.5-.05-.73v-1.47c0-.24.02-.48.05-.73l-5.6-4.24L7.1,6.88l6.47,2.72c.4-.29.82-.56,1.25-.82s.87-.47,1.3-.65l.87-6.96h11.96l.87,6.96c.47.18.91.4,1.33.65s.82.53,1.22.82l6.47-2.72,5.98,10.33-4.62,3.53h-5.49c-.04-.18-.07-.37-.11-.57s-.09-.39-.16-.57l4.67-3.53-2.12-3.7-5.38,2.28c-.8-.83-1.68-1.53-2.64-2.09s-2-.99-3.13-1.28l-.71-5.76h-4.29l-.76,5.76c-1.12.29-2.16.72-3.13,1.28-.96.56-1.84,1.24-2.64,2.04l-5.38-2.23-2.12,3.7,4.67,3.48c-.18.54-.31,1.09-.38,1.63s-.11,1.12-.11,1.74c0,.58.04,1.14.11,1.68s.2,1.09.38,1.63l-4.67,3.53,2.12,3.7,5.38-2.28c.87.91,1.85,1.67,2.93,2.28s2.26,1.01,3.53,1.2v10h-3.8Z"/>
  <g>
    <path class="cls-1" d="M36.01,31.76c-.4,0-.73.13-1,.4-.27.27-.4.6-.4,1v1.4h2.8v-1.4c0-.4-.13-.73-.4-1-.27-.27-.6-.4-1-.4Z"/>
    <path class="cls-1" d="M45.93,26.04c-.63-.63-1.4-.95-2.31-.95h-15.22c-.91,0-1.68.32-2.31.95-.63.63-.95,1.4-.95,2.31v15.22c0,.9.32,1.67.95,2.31s1.4.95,2.31.95h15.22c.91,0,1.68-.32,2.31-.95s.95-1.4.95-2.31v-15.22c0-.91-.32-1.68-.95-2.31ZM40.21,40.36c0,.33-.12.61-.35.84s-.51.35-.84.35h-6.01c-.33,0-.61-.12-.84-.35s-.35-.51-.35-.84v-4.62c0-.33.12-.61.35-.84s.51-.35.84-.35h.21v-1.4c0-.77.27-1.43.82-1.98s1.21-.82,1.98-.82,1.43.27,1.98.82.82,1.21.82,1.98v1.4h.21c.33,0,.61.12.84.35s.35.51.35.84v4.62Z"/>
  </g>
</svg>