<?xml version="1.0" encoding="UTF-8"?>
<!DOCTYPE svg PUBLIC "-//W3C//DTD SVG 1.1//EN" "http://www.w3.org/Graphics/SVG/1.1/DTD/svg11.dtd">
<svg xmlns="http://www.w3.org/2000/svg" version="1.1" width="267px" height="267px" style="shape-rendering:geometricPrecision; text-rendering:geometricPrecision; image-rendering:optimizeQuality; fill-rule:evenodd; clip-rule:evenodd" xmlns:xlink="http://www.w3.org/1999/xlink">
<g><path style="opacity:0.94" fill="#416fff" d="M 106.5,49.5 C 121.5,49.5 136.5,49.5 151.5,49.5C 151.857,58.368 153.19,67.0347 155.5,75.5C 158.203,76.8515 160.87,78.1848 163.5,79.5C 171.114,76.7951 178.614,73.7951 186,70.5C 194.124,82.5731 201.624,95.0731 208.5,108C 203.476,112.688 198.143,117.021 192.5,121C 185.174,121.5 177.841,121.666 170.5,121.5C 170.338,119.473 170.505,117.473 171,115.5C 176.334,111.66 181.5,107.66 186.5,103.5C 184.25,99.3318 181.75,95.3318 179,91.5C 173.133,94.4328 167.133,97.0994 161,99.5C 154.559,93.5695 147.059,89.5695 138.5,87.5C 138.126,80.4678 137.459,73.4678 136.5,66.5C 131.5,66.5 126.5,66.5 121.5,66.5C 120.916,73.5084 120.249,80.5084 119.5,87.5C 111.015,89.4089 103.681,93.4089 97.5,99.5C 91.275,96.9265 85.1084,94.2599 79,91.5C 76.6258,95.7495 74.1258,99.9162 71.5,104C 77.3467,108.091 83.0133,112.424 88.5,117C 85.8577,124.817 85.8577,132.65 88.5,140.5C 83.0017,145.16 77.335,149.66 71.5,154C 74.1258,158.084 76.6258,162.25 79,166.5C 84.9818,163.426 91.1484,160.76 97.5,158.5C 101.336,161.493 105.336,164.327 109.5,167C 113.307,168.881 117.307,170.047 121.5,170.5C 121.5,183.167 121.5,195.833 121.5,208.5C 116.5,208.5 111.5,208.5 106.5,208.5C 106.073,200.085 105.073,191.752 103.5,183.5C 100.528,181.694 97.6947,179.694 95,177.5C 87.2993,181.282 79.4659,184.449 71.5,187C 64.0406,174.582 56.7072,162.082 49.5,149.5C 55.6908,144.148 62.1908,139.148 69,134.5C 69.6667,130.833 69.6667,127.167 69,123.5C 62.5902,118.379 56.0902,113.379 49.5,108.5C 56.4308,95.4242 63.9308,82.7576 72,70.5C 79.5454,73.4036 87.0454,76.4036 94.5,79.5C 98.0867,78.1256 101.253,76.1256 104,73.5C 105.163,65.5274 105.997,57.5274 106.5,49.5 Z"/></g>
<g><path style="opacity:0.935" fill="#416fff" d="M 126.5,100.5 C 141.248,100.198 151.248,106.864 156.5,120.5C 150.193,121.664 143.859,121.831 137.5,121C 132.76,116.821 127.76,116.488 122.5,120C 117.866,125.111 117.366,130.611 121,136.5C 121.5,142.825 121.666,149.158 121.5,155.5C 105.814,150.151 99.3141,139.151 102,122.5C 105.664,109.995 113.831,102.662 126.5,100.5 Z"/></g>
<g><path style="opacity:0.969" fill="#416fff" d="M 144.5,136.5 C 165.836,136.333 187.169,136.5 208.5,137C 212.49,138.99 214.99,142.157 216,146.5C 216.667,166.167 216.667,185.833 216,205.5C 215.285,210.105 212.785,213.271 208.5,215C 186.833,215.667 165.167,215.667 143.5,215C 140.272,213.437 138.105,210.937 137,207.5C 136.333,186.5 136.333,165.5 137,144.5C 138.353,140.65 140.853,137.983 144.5,136.5 Z M 173.5,156.5 C 183.302,156.649 187.302,161.649 185.5,171.5C 187.39,171.297 188.89,171.963 190,173.5C 190.667,180.5 190.667,187.5 190,194.5C 181.245,195.65 172.412,195.816 163.5,195C 163,194.5 162.5,194 162,193.5C 161.333,186.833 161.333,180.167 162,173.5C 163.11,171.963 164.61,171.297 166.5,171.5C 165.404,164.7 167.737,159.7 173.5,156.5 Z"/></g>
<g><path style="opacity:0.882" fill="#416fff" d="M 173.5,160.5 C 176.365,160.055 178.865,160.722 181,162.5C 181.498,165.482 181.665,168.482 181.5,171.5C 177.833,171.5 174.167,171.5 170.5,171.5C 169.807,167.247 170.807,163.581 173.5,160.5 Z"/></g>
</svg>
