<?xml version="1.0" encoding="UTF-8"?>
<!DOCTYPE svg PUBLIC "-//W3C//DTD SVG 1.1//EN" "http://www.w3.org/Graphics/SVG/1.1/DTD/svg11.dtd">
<svg xmlns="http://www.w3.org/2000/svg" version="1.1" width="267px" height="267px" style="shape-rendering:geometricPrecision; text-rendering:geometricPrecision; image-rendering:optimizeQuality; fill-rule:evenodd; clip-rule:evenodd" xmlns:xlink="http://www.w3.org/1999/xlink">
<g><path style="opacity:0.976" fill="#416fff" d="M 108.5,59.5 C 116.82,62.4086 124.987,65.7419 133,69.5C 140.567,65.9762 148.234,62.6429 156,59.5C 161.071,66.6324 165.904,73.9658 170.5,81.5C 178.707,83.4403 186.874,85.4403 195,87.5C 194.472,95.6283 193.639,103.795 192.5,112C 198.167,119 203.833,126 209.5,133C 203.833,140 198.167,147 192.5,154C 193.531,161.842 194.531,169.675 195.5,177.5C 187.322,180.128 178.989,182.295 170.5,184C 165.959,191.584 161.292,199.084 156.5,206.5C 148.708,203.069 140.874,199.736 133,196.5C 124.993,199.42 117.16,202.753 109.5,206.5C 104.708,199.084 100.041,191.584 95.5,184C 87.1877,182.005 78.8544,180.172 70.5,178.5C 71.6646,169.525 72.1646,160.525 72,151.5C 66.5,145.333 61,139.167 55.5,133C 61,126.833 66.5,120.667 72,114.5C 72.0263,105.467 71.693,96.4673 71,87.5C 78.7388,85.4177 86.5721,83.5844 94.5,82C 99.5533,74.7238 104.22,67.2238 108.5,59.5 Z M 154.5,109.5 C 158.373,112.186 161.206,115.519 163,119.5C 150.667,131.833 138.333,144.167 126,156.5C 117.985,148.652 110.152,140.652 102.5,132.5C 104.833,129.5 107.5,126.833 110.5,124.5C 115.5,129.167 120.5,133.833 125.5,138.5C 135.521,129.146 145.188,119.479 154.5,109.5 Z"/></g>
</svg>
