<?xml version="1.0" encoding="UTF-8"?>
<!DOCTYPE svg PUBLIC "-//W3C//DTD SVG 1.1//EN" "http://www.w3.org/Graphics/SVG/1.1/DTD/svg11.dtd">
<svg xmlns="http://www.w3.org/2000/svg" version="1.1" width="267px" height="267px" style="shape-rendering:geometricPrecision; text-rendering:geometricPrecision; image-rendering:optimizeQuality; fill-rule:evenodd; clip-rule:evenodd" xmlns:xlink="http://www.w3.org/1999/xlink">
<g><path style="opacity:0.949" fill="#416fff" d="M 52.5,77.5 C 53.552,77.3505 54.552,77.5172 55.5,78C 73.3333,95.8333 91.1667,113.667 109,131.5C 121.014,119.319 133.181,107.319 145.5,95.5C 165.486,114.986 185.32,134.653 205,154.5C 205.5,147.174 205.666,139.841 205.5,132.5C 212.167,132.5 218.833,132.5 225.5,132.5C 225.5,151.167 225.5,169.833 225.5,188.5C 206.833,188.5 188.167,188.5 169.5,188.5C 169.5,182.167 169.5,175.833 169.5,169.5C 176.841,169.666 184.174,169.5 191.5,169C 176.319,153.653 160.986,138.486 145.5,123.5C 133.347,135.152 121.347,146.986 109.5,159C 108.833,159.667 108.167,159.667 107.5,159C 85.6952,136.195 63.5285,113.695 41,91.5C 40.3333,90.8333 40.3333,90.1667 41,89.5C 45.037,85.631 48.8704,81.631 52.5,77.5 Z"/></g>
</svg>
