<?xml version="1.0" encoding="UTF-8"?>
<svg id="Layer_1" data-name="Layer 1" xmlns="http://www.w3.org/2000/svg" viewBox="0 0 48 48">
  <defs>
    <style>
      .cls-1 {
        fill: #4170ff;
        stroke-width: 0px;
      }
    </style>
  </defs>
  <path class="cls-1" d="M1.26,38.14v-4.69h6.46l-.94-.82c-2.03-1.8-3.46-3.85-4.28-6.16-.82-2.31-1.23-4.64-1.23-6.98,0-4.34,1.3-8.21,3.9-11.59,2.6-3.38,6-5.62,10.18-6.72v4.93c-2.82,1.02-5.09,2.75-6.81,5.19-1.72,2.45-2.58,5.17-2.58,8.19,0,1.76.33,3.47,1,5.13.67,1.66,1.7,3.2,3.11,4.61l.59.59v-5.75h4.69v14.08H1.26ZM43.34,17.02h-4.75c-.2-1.37-.62-2.68-1.26-3.93s-1.52-2.45-2.61-3.58l-.59-.59v5.75h-4.69V.59h14.08v4.69h-6.46l.94.82c1.6,1.64,2.84,3.38,3.7,5.22.86,1.84,1.41,3.74,1.64,5.69ZM30.4,47.41l-.84-4.19c-.56-.23-1.08-.48-1.57-.73s-.99-.57-1.5-.94l-4.05,1.26-2.79-4.75,3.21-2.79c-.09-.65-.14-1.26-.14-1.82s.05-1.16.14-1.82l-3.21-2.79,2.79-4.75,4.05,1.26c.51-.37,1.01-.69,1.5-.94s1.01-.5,1.57-.73l.84-4.19h5.59l.84,4.19c.56.23,1.08.49,1.57.77s.99.63,1.5,1.05l4.05-1.4,2.79,4.89-3.21,2.79c.09.56.14,1.14.14,1.75s-.05,1.19-.14,1.75l3.21,2.79-2.79,4.75-4.05-1.26c-.51.37-1.01.69-1.5.94s-1.01.5-1.57.73l-.84,4.19h-5.59ZM33.19,39.03c1.54,0,2.85-.55,3.95-1.64s1.64-2.41,1.64-3.95-.55-2.85-1.64-3.95-2.41-1.64-3.95-1.64-2.85.55-3.95,1.64c-1.09,1.09-1.64,2.41-1.64,3.95s.55,2.85,1.64,3.95c1.09,1.09,2.41,1.64,3.95,1.64Z"/>
</svg>