<?xml version="1.0" encoding="UTF-8"?>
<!DOCTYPE svg PUBLIC "-//W3C//DTD SVG 1.1//EN" "http://www.w3.org/Graphics/SVG/1.1/DTD/svg11.dtd">
<svg xmlns="http://www.w3.org/2000/svg" version="1.1" width="267px" height="267px" style="shape-rendering:geometricPrecision; text-rendering:geometricPrecision; image-rendering:optimizeQuality; fill-rule:evenodd; clip-rule:evenodd" xmlns:xlink="http://www.w3.org/1999/xlink">
<g><path style="opacity:0.94" fill="#416fff" d="M 126.5,59.5 C 162.918,58.7899 188.085,75.1232 202,108.5C 211.086,139.221 204.253,165.721 181.5,188C 160.805,204.787 137.472,209.787 111.5,203C 76.2838,189.754 59.1171,164.254 60,126.5C 66.012,87.9884 88.1787,65.6551 126.5,59.5 Z M 123.5,75.5 C 148.443,73.0766 167.943,82.0766 182,102.5C 196.587,131.827 191.754,157.327 167.5,179C 145.08,193.928 122.413,194.261 99.5,180C 76.3649,161.244 69.8649,137.744 80,109.5C 88.8981,90.8224 103.398,79.4891 123.5,75.5 Z"/></g>
<g><path style="opacity:0.95" fill="#416fff" d="M 113.5,94.5 C 129.214,92.41 139.714,98.7433 145,113.5C 145.552,118.577 145.552,123.577 145,128.5C 153,136.5 161,144.5 169,152.5C 169.667,154.5 169.667,156.5 169,158.5C 165.5,162 162,165.5 158.5,169C 156.5,169.667 154.5,169.667 152.5,169C 144.5,161 136.5,153 128.5,145C 115.156,147.887 104.656,143.721 97,132.5C 93.3538,123.932 93.6871,115.599 98,107.5C 103.348,113.015 108.848,118.348 114.5,123.5C 117.833,120.833 120.833,117.833 123.5,114.5C 118.348,108.848 113.015,103.348 107.5,98C 109.432,96.5415 111.432,95.3748 113.5,94.5 Z"/></g>
</svg>
