<?xml version="1.0" encoding="UTF-8"?>
<!DOCTYPE svg PUBLIC "-//W3C//DTD SVG 1.1//EN" "http://www.w3.org/Graphics/SVG/1.1/DTD/svg11.dtd">
<svg xmlns="http://www.w3.org/2000/svg" version="1.1" width="267px" height="267px" style="shape-rendering:geometricPrecision; text-rendering:geometricPrecision; image-rendering:optimizeQuality; fill-rule:evenodd; clip-rule:evenodd" xmlns:xlink="http://www.w3.org/1999/xlink">
<g><path style="opacity:0.948" fill="#416fff" d="M 148.5,52.5 C 176.326,52.1781 189.159,65.8448 187,93.5C 181.061,111.412 168.561,119.912 149.5,119C 145.293,126.582 140.96,134.082 136.5,141.5C 150.167,142.167 163.833,142.833 177.5,143.5C 151.855,174.313 126.021,204.98 100,235.5C 99.6717,232.793 100.005,230.126 101,227.5C 107.477,206.57 113.644,185.57 119.5,164.5C 105.496,164.667 91.496,164.5 77.5,164C 89.4612,140.578 101.295,117.078 113,93.5C 116.076,92.7117 119.242,92.2117 122.5,92C 120.256,71.6544 128.923,58.4878 148.5,52.5 Z M 147.5,60.5 C 166.306,58.6494 177.306,66.9828 180.5,85.5C 178.899,100.934 170.399,109.601 155,111.5C 133.003,107.506 125.337,94.8397 132,73.5C 135.869,67.4518 141.035,63.1185 147.5,60.5 Z"/></g>
<g><path style="opacity:0.881" fill="#416fff" d="M 150.5,62.5 C 153.5,62.5 156.5,62.5 159.5,62.5C 159.334,71.8393 159.5,81.1726 160,90.5C 161.684,88.6487 163.517,86.982 165.5,85.5C 167.833,87.1667 169.833,89.1667 171.5,91.5C 166.167,97.5 160.5,103.167 154.5,108.5C 148.5,103.167 142.833,97.5 137.5,91.5C 139.202,88.9633 141.369,86.9633 144,85.5C 146.281,86.7763 148.281,88.4429 150,90.5C 150.5,81.1726 150.666,71.8393 150.5,62.5 Z"/></g>
</svg>
