<?xml version="1.0" encoding="UTF-8"?>
<!DOCTYPE svg PUBLIC "-//W3C//DTD SVG 1.1//EN" "http://www.w3.org/Graphics/SVG/1.1/DTD/svg11.dtd">
<svg xmlns="http://www.w3.org/2000/svg" version="1.1" width="267px" height="267px" style="shape-rendering:geometricPrecision; text-rendering:geometricPrecision; image-rendering:optimizeQuality; fill-rule:evenodd; clip-rule:evenodd" xmlns:xlink="http://www.w3.org/1999/xlink">
<g><path style="opacity:0.961" fill="#416fff" d="M 119.5,51.5 C 159.402,48.618 188.235,64.9513 206,100.5C 208.221,105.993 209.721,111.66 210.5,117.5C 204.824,117.666 199.157,117.499 193.5,117C 187.46,96.958 174.96,82.458 156,73.5C 156.352,82.3013 152.518,88.468 144.5,92C 137.508,92.4996 130.508,92.6663 123.5,92.5C 123.884,99.5888 123.384,106.589 122,113.5C 120.681,115.487 118.848,116.654 116.5,117C 110.509,117.499 104.509,117.666 98.5,117.5C 98.5,122.5 98.5,127.5 98.5,132.5C 104.167,132.5 109.833,132.5 115.5,132.5C 115.5,140.833 115.5,149.167 115.5,157.5C 112.15,157.665 108.817,157.498 105.5,157C 93,144.5 80.5,132 68,119.5C 63.4415,153.551 76.6081,178.051 107.5,193C 115.294,195.625 123.294,197.125 131.5,197.5C 131.5,203.167 131.5,208.833 131.5,214.5C 86.6285,211.796 59.4618,188.463 50,144.5C 46.7866,101.076 65.2866,71.2428 105.5,55C 110.295,53.8011 114.962,52.6345 119.5,51.5 Z"/></g>
<g><path style="opacity:0.942" fill="#416fff" d="M 150.5,116.5 C 177.535,114.044 192.868,126.21 196.5,153C 195.578,160.065 194.078,166.898 192,173.5C 200.348,181.681 208.514,190.014 216.5,198.5C 212.802,203.384 208.468,207.218 203.5,210C 195,201.5 186.5,193 178,184.5C 156.616,194.928 139.282,190.261 126,170.5C 118.738,152.775 121.904,137.275 135.5,124C 140.152,120.628 145.152,118.128 150.5,116.5 Z M 154.5,133.5 C 165.836,132.414 173.669,137.08 178,147.5C 180.385,159.569 175.885,167.736 164.5,172C 152.3,173.984 144.134,169.15 140,157.5C 138.473,145.539 143.307,137.539 154.5,133.5 Z"/></g>
</svg>
