<?xml version="1.0" encoding="UTF-8"?>
<svg id="Layer_1" data-name="Layer 1" xmlns="http://www.w3.org/2000/svg" viewBox="0 0 48 48">
  <defs>
    <style>
      .cls-1 {
        fill: none;
      }

      .cls-1, .cls-2 {
        stroke-width: 0px;
      }

      .cls-2 {
        fill: #4170ff;
      }
    </style>
  </defs>
  <polygon class="cls-2" points="25.47 10.19 26.97 8.68 28.69 10.38 28.69 2.72 30.85 2.72 30.85 10.38 32.57 8.66 34.08 10.19 29.77 14.5 25.47 10.19"/>
  <path class="cls-1" d="M29.27,15.47c.16.01.33.02.5.02,1.92,0,3.55-.67,4.89-2,1.33-1.33,2-2.96,2-4.89s-.67-3.55-2-4.89c-1.33-1.33-2.96-2-4.89-2s-3.55.67-4.89,2c-1.33,1.33-2,2.96-2,4.89,0,.73.1,1.42.29,2.06h8.85l-2.75,4.8Z"/>
  <path class="cls-2" d="M23.68,14.7c-.77-.77-1.39-1.69-1.84-2.73-.18-.42-.32-.86-.42-1.3h-2.46l-9.33,18.67h11.2l-5.6,18.67,20.53-24.26h-11.2l3.79-6.64c-.67-.11-1.32-.29-1.93-.55-1.05-.45-1.96-1.07-2.73-1.84Z"/>
  <path class="cls-2" d="M37.7,5.25c-.45-1.05-1.07-1.96-1.84-2.73s-1.69-1.39-2.73-1.84c-1.05-.45-2.17-.68-3.36-.68s-2.31.23-3.36.68c-1.05.45-1.96,1.07-2.73,1.84-.77.77-1.39,1.69-1.84,2.73-.45,1.05-.68,2.17-.68,3.36,0,.71.09,1.4.25,2.06h1.76c-.19-.65-.29-1.33-.29-2.06,0-1.92.67-3.55,2-4.89,1.33-1.33,2.96-2,4.89-2s3.55.67,4.89,2c1.33,1.33,2,2.96,2,4.89s-.67,3.55-2,4.89c-1.33,1.33-2.96,2-4.89,2-.17,0-.33-.01-.5-.02l-.93,1.62c.46.08.94.12,1.42.12,1.19,0,2.31-.23,3.36-.68,1.05-.45,1.96-1.07,2.73-1.84s1.39-1.69,1.84-2.73.68-2.17.68-3.36-.23-2.31-.68-3.36Z"/>
  <path class="cls-2" d="M24.89,13.5c-.83-.83-1.4-1.77-1.71-2.83h-1.76c.11.44.24.88.42,1.3.45,1.05,1.07,1.96,1.84,2.73.77.77,1.69,1.39,2.73,1.84.62.27,1.27.45,1.93.55l.93-1.62c-1.71-.11-3.17-.76-4.39-1.98Z"/>
</svg>