<?xml version="1.0" encoding="UTF-8"?>
<svg id="Layer_1" data-name="Layer 1" xmlns="http://www.w3.org/2000/svg" viewBox="0 0 48 48">
  <defs>
    <style>
      .cls-1 {
        fill: #4170ff;
        stroke-width: 0px;
      }
    </style>
  </defs>
  <path class="cls-1" d="M31.99,35.19l3.2-3.2c.23-.23.34-.49.34-.8s-.11-.57-.34-.8l-7.76-7.82c.15-.42.27-.84.34-1.26s.11-.89.11-1.43c0-2.17-.77-4.02-2.31-5.56-1.54-1.54-3.4-2.31-5.56-2.31-.65,0-1.29.09-1.94.26s-1.27.41-1.88.71l5.36,5.36-3.2,3.2-5.36-5.36c-.3.61-.54,1.24-.71,1.88s-.26,1.29-.26,1.94c0,2.17.77,4.02,2.31,5.56s3.4,2.31,5.56,2.31c.49,0,.96-.04,1.4-.11s.87-.19,1.28-.34l7.82,7.76c.23.23.49.34.8.34s.57-.11.8-.34ZM24,46.83c-3.16,0-6.13-.6-8.9-1.8s-5.19-2.82-7.25-4.88-3.68-4.47-4.88-7.25-1.8-5.74-1.8-8.9.6-6.13,1.8-8.9,2.82-5.19,4.88-7.25,4.47-3.68,7.25-4.88,5.74-1.8,8.9-1.8,6.13.6,8.9,1.8c2.78,1.2,5.19,2.82,7.25,4.88s3.68,4.47,4.88,7.25,1.8,5.75,1.8,8.9-.6,6.13-1.8,8.9-2.82,5.19-4.88,7.25-4.47,3.68-7.25,4.88c-2.78,1.2-5.75,1.8-8.9,1.8ZM24,42.26c5.1,0,9.42-1.77,12.95-5.31s5.31-7.86,5.31-12.95-1.77-9.42-5.31-12.95-7.86-5.31-12.95-5.31-9.42,1.77-12.95,5.31c-3.54,3.54-5.31,7.86-5.31,12.95s1.77,9.42,5.31,12.95,7.86,5.31,12.95,5.31Z"/>
</svg>