<?xml version="1.0" encoding="UTF-8"?>
<svg id="Layer_1" data-name="Layer 1" xmlns="http://www.w3.org/2000/svg" viewBox="0 0 48 48">
  <defs>
    <style>
      .cls-1 {
        fill: #4170ff;
        stroke-width: 0px;
      }
    </style>
  </defs>
  <path class="cls-1" d="M23.43,46.83c-3.16,0-6.13-.6-8.9-1.8-2.78-1.2-5.19-2.82-7.25-4.88-2.05-2.05-3.68-4.47-4.88-7.25-1.2-2.78-1.8-5.74-1.8-8.9s.6-6.13,1.8-8.9c1.2-2.78,2.82-5.19,4.88-7.25s4.47-3.68,7.25-4.88c2.78-1.2,5.74-1.8,8.9-1.8,5.55,0,10.42,1.74,14.58,5.22s6.76,7.85,7.79,13.1h-4.68c-.72-2.78-2.03-5.26-3.91-7.45-1.88-2.19-4.19-3.83-6.93-4.94v.91c0,1.26-.45,2.33-1.34,3.22-.89.89-1.97,1.34-3.22,1.34h-4.57v4.57c0,.65-.22,1.19-.66,1.63s-.98.66-1.63.66h-4.57v4.57h4.57v6.85h-2.28l-10.96-10.96c-.11.68-.22,1.37-.31,2.05s-.14,1.37-.14,2.05c0,4.98,1.75,9.26,5.25,12.84,3.5,3.58,7.84,5.38,13.01,5.42v4.57ZM44.2,45.69l-7.3-7.3c-.8.46-1.66.84-2.57,1.14s-1.88.46-2.91.46c-2.85,0-5.28-1-7.28-3-2-2-3-4.42-3-7.28s1-5.28,3-7.28c2-2,4.42-3,7.28-3s5.28,1,7.28,3c2,2,3,4.42,3,7.28,0,1.03-.15,2-.46,2.91-.3.91-.68,1.77-1.14,2.57l7.3,7.3-3.2,3.2ZM31.42,35.41c1.6,0,2.95-.55,4.05-1.66,1.1-1.1,1.66-2.45,1.66-4.05s-.55-2.95-1.66-4.05-2.45-1.66-4.05-1.66-2.95.55-4.05,1.66-1.66,2.45-1.66,4.05.55,2.95,1.66,4.05,2.45,1.66,4.05,1.66Z"/>
</svg>