<?xml version="1.0" encoding="UTF-8"?>
<svg id="Layer_1" xmlns="http://www.w3.org/2000/svg" version="1.1" viewBox="0 0 800 800">
  <!-- Generator: Adobe Illustrator 29.0.0, SVG Export Plug-In . SVG Version: 2.1.0 Build 186)  -->
  <defs>
    <style>
      .st0 {
        fill: #fff;
        stroke: #fff;
        stroke-miterlimit: 6.2;
        stroke-width: 1.6px;
      }
    </style>
  </defs>
  <g id="SVGRepo_iconCarrier">
    <path class="st0" d="M600.7,312.8v-79.6l-199.3,79.6v-79.6l-199.3,79.6V117.8H0v564.4h800V233.2l-199.3,79.6ZM47.5,165.3h106.9v31.7H47.5v-31.7ZM752.5,634.7H47.5V244.5h106.9v138.5l199.3-79.6v79.6l199.3-79.6v79.6l199.3-79.6v331.3Z"/>
    <path class="st0" d="M154.4,441.4v125.3h125.3v-125.3h-125.3ZM232.2,519.1h-30.2v-30.2h30.2v30.2Z"/>
    <path class="st0" d="M353.8,441.4v125.3h125.3v-125.3h-125.3ZM431.5,519.1h-30.2v-30.2h30.2v30.2Z"/>
    <path class="st0" d="M553.1,441.4v125.3h125.3v-125.3h-125.3ZM630.9,519.1h-30.2v-30.2h30.2v30.2Z"/>
  </g>
</svg>