<!DOCTYPE svg PUBLIC "-//W3C//DTD SVG 1.1//EN" "http://www.w3.org/Graphics/SVG/1.1/DTD/svg11.dtd">
<!-- Uploaded to: SVG Repo, www.svgrepo.com, Transformed by: SVG Repo Mixer Tools -->
<svg fill="#ffffff" height="800px" width="800px" version="1.1" xmlns="http://www.w3.org/2000/svg" viewBox="0 0 512 512" xmlns:xlink="http://www.w3.org/1999/xlink" enable-background="new 0 0 512 512" stroke="#ffffff">
<g id="SVGRepo_bgCarrier" stroke-width="0"/>
<g id="SVGRepo_tracerCarrier" stroke-linecap="round" stroke-linejoin="round"/>
<g id="SVGRepo_iconCarrier"> <g> <g> <g> <path d="m251.9,461.2c-17.9,0-32.5-14.6-32.5-32.5 0-17.9 14.6-32.5 32.5-32.5 17.9,0 32.5,14.6 32.5,32.5 0.1,17.9-14.5,32.5-32.5,32.5zm-199-239c-7.10543e-15-14.5 14.8-26.7 33-27.3 11-0.4 19.8-9.4 19.8-20.4 0-0.2 0-0.4 0-0.6 0.2-35.9 35.1-65.1 77.9-65.2 8.9,0 16.8-5.8 19.5-14.3 7.6-24.5 33.9-41.5 63.8-41.5 35.1,0 64,23.1 65.8,52.5 0.6,10.8 10,18.9 24.2,18.9 32.9,0 59.7,21.9 60.3,49.1 0,13.9 7,20.3 16.8,22.1 15.7,2.8 27.1,14 27.1,26.8 0,15.1-15.4,27.5-34.4,27.5h-339.4c-19-0.1-34.4-12.4-34.4-27.6zm411.4,186.1h-141.8c-7-24-26-43-50.1-50v-67.8h154.3c41.5,0 75.3-30.6 75.3-68.3 0-27.6-18.3-52-45.2-62.6-7.1-39.2-42.4-70.1-86.5-75.4-11.9-41.7-53.9-72.2-103.5-72.2-42.2,0-80.3,22.7-97.3,56.6-52.4,5.6-94.4,41.9-103.1,88.1-31.6,8.2-54.4,34.4-54.4,65.5 0,37.7 33.8,68.3 75.3,68.3h144.2v67.8c-24.1,7-43.1,26-50.1,50h-141.8c-11.3,0-20.4,9.1-20.4,20.4 0,11.3 9.2,20.4 20.4,20.4h141.8c8.9,30.5 37.1,52.9 70.5,52.9 33.4,0 61.6-22.4 70.5-52.9h141.8c11.3,0 20.4-9.1 20.4-20.4 0.1-11.3-9-20.4-20.3-20.4z"/> </g> </g> </g> </g>
</svg>