<?xml version="1.0" encoding="UTF-8"?>
<svg id="Layer_1" data-name="Layer 1" xmlns="http://www.w3.org/2000/svg" viewBox="0 0 35 35">
  <path d="M28.88,14.78c0-1.21-.45-2.36-1.28-3.25-.62-.66-1.41-1.13-2.27-1.36.01-.13.02-.26.02-.39,0-2.38-1.94-4.32-4.32-4.32-1.46,0-2.75.73-3.53,1.84-.78-1.11-2.07-1.84-3.53-1.84-2.38,0-4.32,1.94-4.32,4.32,0,.13,0,.26.02.39-.86.23-1.65.69-2.27,1.36-.83.88-1.28,2.04-1.28,3.25,0,1.01.32,1.95.85,2.72-.55.79-.85,1.74-.85,2.72,0,2.21,1.51,4.07,3.55,4.6-.01.13-.02.26-.02.39,0,2.38,1.94,4.32,4.32,4.32,1.46,0,2.75-.73,3.53-1.84.78,1.11,2.07,1.84,3.53,1.84,2.38,0,4.32-1.94,4.32-4.32,0-.13,0-.26-.02-.39,2.04-.54,3.55-2.4,3.55-4.6,0-.98-.3-1.93-.85-2.72.54-.77.85-1.71.85-2.72ZM16.72,21.59v3.62c0,1.51-1.23,2.75-2.75,2.75s-2.75-1.23-2.75-2.75c0-.08,0-.17.01-.25,1.21-.09,2.36-.64,3.18-1.55l-1.16-1.05c-.6.67-1.47,1.05-2.37,1.05-1.76,0-3.19-1.43-3.19-3.19,0-.56.14-1.1.42-1.58.78.56,1.74.9,2.78.9v-1.57c-1.76,0-3.19-1.43-3.19-3.19,0-1.48,1.02-2.74,2.41-3.09.48.97,1.31,1.75,2.35,2.14l.55-1.47c-1.07-.4-1.78-1.43-1.78-2.57,0-1.51,1.23-2.75,2.75-2.75s2.75,1.23,2.75,2.75v4.71h-.65v-1.09h-1.57v1.09h-1.09v1.57h1.09v.65h-1.09v1.57h1.09v.65h-1.09v1.57h1.09v1.09h1.57v-1.09h.65v1.09ZM16.07,18.93v-2.87h2.87v2.87h-2.87ZM26.89,18.64c.27.48.42,1.02.42,1.58,0,1.76-1.43,3.19-3.19,3.19-.9,0-1.76-.38-2.37-1.05l-1.16,1.05c.82.91,1.96,1.46,3.18,1.55,0,.08.01.17.01.25,0,1.51-1.23,2.75-2.75,2.75s-2.75-1.23-2.75-2.75v-4.71h.65v1.09h1.57v-1.09h1.09v-1.57h-1.09v-.65h1.09v-1.57h-1.09v-.65h1.09v-1.57h-1.09v-1.09h-1.57v1.09h-.65v-4.71c0-1.51,1.23-2.75,2.75-2.75s2.75,1.23,2.75,2.75c0,1.14-.72,2.17-1.78,2.57l.55,1.47c1.05-.39,1.88-1.17,2.35-2.14,1.39.35,2.41,1.62,2.41,3.09,0,1.76-1.43,3.19-3.19,3.19v1.57c1.04,0,1.99-.33,2.78-.9Z"/>
</svg>