<?xml version="1.0" encoding="UTF-8"?>
<svg id="Layer_1" data-name="Layer 1" xmlns="http://www.w3.org/2000/svg" viewBox="0 0 48 48">
  <defs>
    <style>
      .cls-1 {
        fill: #000;
        stroke-width: 0px;
      }

      .cls-2 {
        fill: none;
        stroke: #000;
        stroke-miterlimit: 10;
      }
    </style>
  </defs>
  <g>
    <path class="cls-1" d="M21.25,15.3l.82,2.27c.91,2.51,2.89,4.49,5.4,5.4l2.27.82c.2.07.2.36,0,.44l-2.27.82c-2.51.91-4.49,2.89-5.4,5.4l-.82,2.27c-.07.2-.36.2-.44,0l-.82-2.27c-.91-2.51-2.89-4.49-5.4-5.4l-2.27-.82c-.2-.07-.2-.36,0-.44l2.27-.82c2.51-.91,4.49-2.89,5.4-5.4l.82-2.27c.07-.21.36-.21.44,0Z"/>
    <path class="cls-1" d="M31.45,9.86l.41,1.15c.46,1.27,1.46,2.28,2.73,2.73l1.15.41c.1.04.1.18,0,.22l-1.15.41c-1.27.46-2.28,1.46-2.73,2.73l-.41,1.15c-.04.1-.18.1-.22,0l-.41-1.15c-.46-1.27-1.46-2.28-2.73-2.73l-1.15-.41c-.1-.04-.1-.18,0-.22l1.15-.41c1.27-.46,2.28-1.46,2.73-2.73l.41-1.15c.04-.11.18-.11.22,0Z"/>
    <path class="cls-1" d="M31.45,29.33l.41,1.15c.46,1.27,1.46,2.28,2.73,2.73l1.15.41c.1.04.1.18,0,.22l-1.15.41c-1.27.46-2.28,1.46-2.73,2.73l-.41,1.15c-.04.1-.18.1-.22,0l-.41-1.15c-.46-1.27-1.46-2.28-2.73-2.73l-1.15-.41c-.1-.04-.1-.18,0-.22l1.15-.41c1.27-.46,2.28-1.46,2.73-2.73l.41-1.15c.04-.1.18-.1.22,0Z"/>
  </g>
  <circle class="cls-2" cx="24" cy="24" r="24"/>
</svg>