<?xml version="1.0" encoding="UTF-8"?>
<svg id="Layer_1" data-name="Layer 1" xmlns="http://www.w3.org/2000/svg" viewBox="0 0 35 35">
  <path d="M27.1,14.7c.64,1.76.8,3.66.44,5.49.51.06,1.01.23,1.45.5h.04c.46-2.18.3-4.44-.48-6.53-.12-.42-.55-.66-.96-.54-.42.12-.66.55-.54.96.01.04.03.08.04.12Z"/>
  <path d="M24.01,26.16c-1.36,1.13-2.99,1.89-4.74,2.2-.43.04-.75.42-.71.85s.42.75.85.71h.14c2.08-.37,4.02-1.28,5.63-2.65v-.05c-.46-.26-.86-.62-1.16-1.05Z"/>
  <path d="M15.65,28.31c-1.18-.22-2.31-.65-3.35-1.26-.44-.26-.87-.55-1.27-.87-.3.44-.69.8-1.14,1.08.51.43,1.05.81,1.62,1.16,1.19.7,2.5,1.19,3.86,1.45h.15c.43.04.81-.28.85-.71.04-.43-.28-.81-.71-.85Z"/>
  <path d="M7.02,20.36c.16,0,.31-.02.47-.07-.37-1.84-.23-3.75.42-5.51.15-.41-.06-.85-.46-1-.41-.15-.85.06-1,.46-.77,2.11-.92,4.39-.44,6.58.31-.2.66-.36,1.01-.46Z"/>
  <path d="M9.74,11.66c1.12-1.32,2.56-2.33,4.18-2.94-.16-.52-.2-1.07-.13-1.62-2.03.68-3.84,1.89-5.23,3.52-.29.33-.25.83.07,1.11s.83.25,1.11-.07Z"/>
  <path d="M22.71,9.5c.96.58,1.82,1.31,2.54,2.16.28.33.77.37,1.1.09.33-.28.37-.77.09-1.1-.83-.99-1.83-1.83-2.93-2.5-.73-.42-1.5-.77-2.29-1.04.08.54.04,1.09-.12,1.61.56.22,1.1.48,1.62.78Z"/>
  <path d="M28.36,21.8c-.56-.36-1.25-.48-1.9-.33-.41.11-.78.31-1.09.6l-3.02-1.75c.98-2.43.07-5.21-2.16-6.58l-.09-.05c-.58-.33-1.22-.54-1.89-.63v-2.97c.62-.19,1.15-.61,1.47-1.17.72-1.21.32-2.78-.88-3.51-.57-.33-1.25-.42-1.89-.25-.66.17-1.22.59-1.56,1.18-.7,1.21-.31,2.75.88,3.48.18.12.37.21.58.27v2.97c-1.59.22-3,1.16-3.79,2.56-.83,1.43-.95,3.15-.33,4.68l-3.12,1.79c-.11-.1-.23-.2-.35-.29-1.2-.68-2.72-.26-3.41.94,0,0,0,0,0,0-.7,1.2-.32,2.74.86,3.48.39.23.83.36,1.29.36.21,0,.41-.02.61-.08,1.35-.35,2.17-1.72,1.83-3.07v-.13l3.03-1.75c.41.53.91.98,1.47,1.33,2.26,1.43,5.25.85,6.81-1.33l2.99,1.72c-.29,1.09.17,2.25,1.13,2.84,1.18.69,2.7.3,3.39-.88.68-1.19.3-2.71-.86-3.44ZM7.89,25.27c-.63,0-1.15-.51-1.15-1.15s.51-1.15,1.15-1.15,1.15.51,1.15,1.15-.51,1.15-1.15,1.15ZM16.35,7.62c0-.63.51-1.15,1.15-1.15s1.15.51,1.15,1.15-.51,1.15-1.15,1.15-1.15-.51-1.15-1.15ZM17.5,21.46c-1.73,0-3.13-1.4-3.13-3.13s1.4-3.13,3.13-3.13,3.13,1.4,3.13,3.13-1.4,3.13-3.13,3.13ZM27.12,25.15c-.63,0-1.15-.51-1.15-1.15s.51-1.15,1.15-1.15,1.15.51,1.15,1.15-.51,1.15-1.15,1.15Z"/>
</svg>