<?xml version="1.0" encoding="UTF-8"?>
<svg id="Layer_1" data-name="Layer 1" xmlns="http://www.w3.org/2000/svg" viewBox="0 0 48 48">
  <defs>
    <style>
      .cls-1 {
        fill: #000;
        stroke-width: 0px;
      }
    </style>
  </defs>
  <path class="cls-1" d="M24,48C10.77,48,0,37.23,0,24S10.77,0,24,0s24,10.77,24,24-10.77,24-24,24ZM24,.98C11.31.98.98,11.31.98,24s10.33,23.02,23.02,23.02,23.02-10.33,23.02-23.02S36.69.98,24,.98Z"/>
  <g>
    <g>
      <path class="cls-1" d="M36.25,29.84h0c1.92-4.02,1.72-8.73-.52-12.58-3.74-6.44-12-8.62-18.43-4.87l1.86,1.86c2.83-1.42,6.13-1.55,9.06-.36,5.61,2.29,8.3,8.68,6.01,14.29-.01.04-.03.07-.05.1-.12.17-.36.21-.53.08l-.6-.43-.87,5.22,4.7-2.44-.52-.38c-.16-.11-.2-.33-.11-.5Z"/>
      <path class="cls-1" d="M14.13,28.89c-1.42-2.83-1.55-6.14-.36-9.07.07-.2.28-.31.48-.24.04.01.07.03.1.05l.6.43.87-5.22-4.7,2.44.52.38c.16.11.2.33.11.5-3.2,6.72-.35,14.77,6.37,17.97,4.02,1.92,8.73,1.72,12.58-.52l-1.86-1.86c-5.41,2.72-12,.54-14.72-4.87Z"/>
    </g>
    <path class="cls-1" d="M29.39,24.04c0-.29-.02-.59-.07-.9l1.65-1.44-1.44-2.52-2.09.72c-.24-.19-.49-.37-.75-.52-.26-.16-.54-.29-.83-.41l-.43-2.16h-2.88l-.43,2.16c-.29.12-.56.25-.81.38-.25.13-.51.29-.77.49l-2.09-.65-1.44,2.44,1.65,1.44c-.05.31-.07.62-.07.93s.02.62.07.93l-1.65,1.44,1.44,2.44,2.09-.65c.26.19.52.35.77.49.25.13.52.26.81.38l.43,2.16h2.88l.43-2.16c.29-.12.56-.25.81-.38.25-.13.51-.29.77-.49l2.09.65,1.44-2.44-1.65-1.44c.05-.31.07-.61.07-.9ZM26.03,26.03c-.56.56-1.24.84-2.03.84s-1.47-.28-2.03-.84c-.56-.56-.84-1.24-.84-2.03s.28-1.47.84-2.03c.56-.56,1.24-.84,2.03-.84s1.47.28,2.03.84c.56.56.84,1.24.84,2.03s-.28,1.47-.84,2.03Z"/>
  </g>
</svg>