<?xml version="1.0" encoding="UTF-8"?>
<svg id="Layer_1" data-name="Layer 1" xmlns="http://www.w3.org/2000/svg" viewBox="0 0 48 48">
  <defs>
    <style>
      .cls-1 {
        fill: #000;
        stroke-width: 0px;
      }
    </style>
  </defs>
  <path class="cls-1" d="M13.34,36.3v-3.99h4.12l-3.39-11.1c-.6-.33-1.09-.82-1.48-1.46-.39-.64-.58-1.33-.58-2.06,0-1.11.39-2.05,1.16-2.82.78-.78,1.72-1.16,2.82-1.16.86,0,1.63.25,2.31.75.68.5,1.15,1.14,1.41,1.91h4.25v-1.33c0-.38.13-.69.38-.95s.57-.38.95-.38c.2,0,.39.04.58.13s.35.22.48.4l2.26-2.13c.2-.2.44-.33.71-.38s.55-.02.81.12l5.18,2.39c.27.13.45.33.55.58s.09.5-.02.75c-.13.27-.33.44-.58.52s-.5.06-.75-.05l-4.79-2.19-3.12,2.92v1.86l3.12,2.86,4.79-2.19c.24-.11.5-.12.76-.03s.45.25.56.5c.13.27.14.52.03.76s-.3.43-.56.56l-5.18,2.46c-.27.13-.54.17-.81.12s-.52-.18-.71-.38l-2.26-2.13c-.13.13-.29.25-.48.37s-.38.17-.58.17c-.38,0-.69-.13-.95-.38s-.38-.57-.38-.95v-1.33h-4.25c-.07.18-.14.34-.22.5s-.18.32-.32.5l6.65,12.3h4.79v3.99H13.34ZM16,19.02c.38,0,.69-.13.95-.38s.38-.57.38-.95-.13-.69-.38-.95-.57-.38-.95-.38-.69.13-.95.38-.38.57-.38.95.13.69.38.95.57.38.95.38Z"/>
  <path class="cls-1" d="M24,48C10.77,48,0,37.23,0,24S10.77,0,24,0s24,10.77,24,24-10.77,24-24,24ZM24,.98C11.31.98.98,11.31.98,24s10.33,23.02,23.02,23.02,23.02-10.33,23.02-23.02S36.69.98,24,.98Z"/>
</svg>