<?xml version="1.0" encoding="UTF-8"?>
<svg id="Layer_1" data-name="Layer 1" xmlns="http://www.w3.org/2000/svg" viewBox="0 0 35 35">
  <defs>
    <style>
      .cls-1 {
        fill: none;
      }
    </style>
  </defs>
  <g id="SVGRepo_iconCarrier" data-name="SVGRepo iconCarrier">
    <path d="M27.12,24.5c-.39,0-.77.09-1.12.26l-3.76-3.76h-2.99v1.75h2.26l3.25,3.25c-.17.35-.26.73-.26,1.12,0,1.45,1.18,2.62,2.62,2.62s2.62-1.18,2.62-2.62-1.18-2.62-2.62-2.62ZM27.12,28c-.48,0-.88-.39-.88-.88s.39-.88.88-.88.88.39.88.88c0,.48-.39.87-.88.88Z"/>
    <path d="M27.12,14.88c-1.11,0-2.1.7-2.46,1.75h-5.41v1.75h5.41c.49,1.36,1.98,2.07,3.35,1.59,1.36-.49,2.07-1.98,1.59-3.35-.37-1.05-1.36-1.74-2.47-1.74ZM27.12,18.38c-.48,0-.88-.39-.88-.88s.39-.88.88-.88.88.39.88.88c0,.48-.39.87-.88.88Z"/>
    <path d="M27.12,5.25c-1.45,0-2.62,1.18-2.62,2.62,0,.42.11.83.3,1.2l-3.28,3.17h-2.27v1.75h2.98l3.85-3.72c1.33.58,2.87-.03,3.45-1.36.58-1.33-.03-2.87-1.36-3.45-.33-.14-.69-.22-1.05-.22ZM27.12,8.75c-.48,0-.88-.39-.88-.88s.39-.88.88-.88.88.39.88.88c0,.48-.39.87-.88.88Z"/>
    <path d="M19.25,8.75h1.75v-1.75h-1.75c-1.01,0-1.97.44-2.62,1.21-.66-.76-1.62-1.21-2.62-1.21h-.88c-4.35,0-7.87,3.53-7.88,7.88v5.25c0,4.35,3.53,7.87,7.88,7.88h.88c1.01,0,1.97-.44,2.62-1.21.66.76,1.62,1.21,2.62,1.21h1.75v-1.75h-1.75c-.97,0-1.75-.78-1.75-1.75v-14c0-.97.78-1.75,1.75-1.75ZM14,26.25h-.88c-3.04,0-5.62-2.24-6.06-5.25h1.68v-1.75h-1.75v-3.5h2.62c1.45,0,2.62-1.18,2.62-2.62v-1.75h-1.75v1.75c0,.48-.39.87-.88.88h-2.56c.44-3.01,3.01-5.24,6.06-5.25h.88c.97,0,1.75.78,1.75,1.75v3.5h-1.75v1.75h1.75v3.5h-1.75c-1.45,0-2.62,1.18-2.62,2.62v1.75h1.75v-1.75c0-.48.39-.87.88-.88h1.75v3.5c0,.97-.78,1.75-1.75,1.75Z"/>
    <rect id="_Transparent_Rectangle_" data-name=" Transparent Rectangle " class="cls-1" x="3.5" y="3.5" width="28" height="28"/>
  </g>
</svg>