<?xml version="1.0" encoding="UTF-8"?>
<svg id="Layer_1" data-name="Layer 1" xmlns="http://www.w3.org/2000/svg" viewBox="0 0 48 48">
  <defs>
    <style>
      .cls-1 {
        fill: #000;
        stroke-width: 0px;
      }

      .cls-2 {
        fill: none;
        stroke: #000;
        stroke-miterlimit: 10;
      }
    </style>
  </defs>
  <g>
    <path class="cls-1" d="M28.15,17.83c-.56,0-1.03.2-1.43.6-.4.4-.6.87-.6,1.43s.2,1.03.6,1.43c.4.4.87.59,1.43.59s1.03-.2,1.43-.59c.4-.4.6-.87.6-1.43s-.2-1.03-.6-1.43c-.4-.4-.87-.6-1.43-.6Z"/>
    <path class="cls-1" d="M35.88,21.44c0-3.01-1.22-5.73-3.19-7.7-1.97-1.97-4.69-3.19-7.7-3.19s-5.73,1.22-7.7,3.19c-1.97,1.97-3.19,4.69-3.19,7.7,0,.01,0,.02,0,.03v1.67s-1.87,4.26-1.87,4.26c0,.01-.01.03-.01.04-.13.41-.13.75,0,1.03.14.3.41.51.8.61h.01s2,.62,2,.62v3.83s0,.08.02.11c.12.55.36.99.72,1.32.36.33.84.54,1.43.62.02,0,.04,0,.05,0h0s4.44,0,4.44,0v1.04c0,.47.38.84.84.84h9.75c.16,0,.3-.11.35-.25.02-.05.04-.1.04-.16h0v-4.1s0-3.82,0-3.82c.99-.98,1.79-2.16,2.34-3.46.55-1.31.86-2.74.86-4.24ZM31.94,19.88c0,.22-.02.43-.05.63l1.17,1.01-1.01,1.72-1.47-.46c-.19.14-.37.25-.54.34-.18.09-.37.18-.57.27l-.3,1.52h-2.03l-.3-1.52c-.2-.08-.39-.17-.57-.27-.18-.09-.36-.21-.54-.34l-1.47.46-1.01-1.72,1.17-1.01c-.03-.24-.05-.46-.05-.66s.02-.42.05-.66l-1.17-1.01,1.01-1.72,1.47.46c.19-.14.37-.25.54-.34s.37-.18.57-.27l.3-1.52h2.03l.3,1.52c.2.08.39.18.57.28.18.1.36.23.54.38l1.47-.51,1.01,1.77-1.17,1.01c.03.2.05.41.05.63Z"/>
  </g>
  <circle class="cls-2" cx="24" cy="24" r="24"/>
</svg>