<?xml version="1.0" encoding="UTF-8"?>
<svg id="Layer_1" data-name="Layer 1" xmlns="http://www.w3.org/2000/svg" viewBox="0 0 35 35">
  <path d="M25.36,27.27l-10.3-10.32c-.07-.37-.2-.72-.36-1.05l4.37-3.34h3.98c.52,0,.98-.36,1.1-.87l.74-2.5c-1.54-.55-1.25-.45-2.13-.75l-.6,1.85h-2.34v-2.34l2.23-.62c-.17-.74-.35-1.32-.47-1.96l-3.15.59c-.51.12-.87.58-.87,1.1v3.8l-4.3,3.28c-.76-.56-1.7-.9-2.72-.9-2.55,0-4.61,2.06-4.61,4.61,0,2.3,1.69,4.2,3.9,4.54l4.87,4.87h-4.17v2.35h18.52v-2.35h-3.7ZM7.78,17.86c0-1.53,1.24-2.77,2.77-2.77s2.77,1.24,2.77,2.77-1.24,2.77-2.77,2.77-2.77-1.24-2.77-2.77ZM17.91,27.27l-5.31-5.31c.92-.46,1.67-1.22,2.11-2.16l7.45,7.47h-4.25Z"/>
  <circle cx="10.52" cy="17.95" r="1.21"/>
</svg>