<?xml version="1.0" encoding="UTF-8"?>
<svg id="Layer_1" data-name="Layer 1" xmlns="http://www.w3.org/2000/svg" viewBox="0 0 48 48">
  <defs>
    <style>
      .cls-1 {
        fill: #000;
        stroke-width: 0px;
      }
    </style>
  </defs>
  <path class="cls-1" d="M24,48C10.77,48,0,37.23,0,24S10.77,0,24,0s24,10.77,24,24-10.77,24-24,24ZM24,.98C11.31.98.98,11.31.98,24s10.33,23.02,23.02,23.02,23.02-10.33,23.02-23.02S36.69.98,24,.98Z"/>
  <path class="cls-1" d="M11.99,31.27l-2.08-1.5,6.4-10.25,3.84,4.48,5.12-8.32,3.49,5.22c-.49.02-.96.08-1.39.18s-.87.23-1.3.4l-.7-1.06-4.87,7.91-3.87-4.51-4.64,7.46ZM36.26,37.45l-4-4c-.43.3-.9.52-1.42.67s-1.06.22-1.62.22c-1.6,0-2.96-.56-4.08-1.68s-1.68-2.48-1.68-4.08.56-2.96,1.68-4.08,2.48-1.68,4.08-1.68,2.96.56,4.08,1.68,1.68,2.48,1.68,4.08c0,.55-.07,1.09-.22,1.62-.15.52-.37,1.01-.67,1.46l4,3.97-1.82,1.82ZM29.22,31.78c.9,0,1.65-.31,2.27-.93.62-.62.93-1.38.93-2.27s-.31-1.65-.93-2.27-1.38-.93-2.27-.93-1.65.31-2.27.93-.93,1.38-.93,2.27.31,1.65.93,2.27c.62.62,1.38.93,2.27.93ZM32.07,21.53c-.41-.17-.83-.31-1.26-.42s-.89-.17-1.36-.19l6.56-10.37,2.08,1.5-6.02,9.48Z"/>
</svg>