<?xml version="1.0" encoding="UTF-8"?>
<svg id="Layer_1" data-name="Layer 1" xmlns="http://www.w3.org/2000/svg" viewBox="0 0 35 35">
  <defs>
    <style>
      .cls-1 {
        fill: #fff;
      }
    </style>
  </defs>
  <path class="cls-1" d="M25.97,13.88l-1.03-.05v.03s-.53.48-.53.48c.54,1.21.84,2.55.84,3.96,0,5.4-4.38,9.77-9.77,9.77s-9.77-4.38-9.77-9.77,4.38-9.77,9.77-9.77c1.73,0,3.36.46,4.77,1.25l.54-.49.05-1.03c-1.46-.77-3.1-1.26-4.84-1.34-6.28-.28-11.61,4.59-11.9,10.87-.28,6.28,4.59,11.61,10.87,11.9,6.28.28,11.61-4.59,11.9-10.87.08-1.74-.25-3.41-.89-4.94Z"/>
  <path class="cls-1" d="M15.48,12.64c.46,0,.9.06,1.33.16l1.49-1.36c-.77-.35-1.58-.52-2.48-.56-4.11-.16-7.58,3.01-7.77,7.12-.19,4.11,2.98,7.61,7.12,7.79,4.11.19,7.61-3.01,7.79-7.12.04-.87-.09-1.72-.34-2.52l-1.53,1.4c.03.25.06.5.06.76,0,3.13-2.54,5.67-5.67,5.67s-5.67-2.54-5.67-5.67,2.54-5.67,5.67-5.67Z"/>
  <path class="cls-1" d="M26.75,7.89l.73-3.95-4.52,4.6-.14,1.71-5.96,5.42c-.37-.21-.8-.34-1.24-.36-1.77-.08-3.23,1.37-3.12,3.19.09,1.38,1.15,2.54,2.51,2.75,1.8.28,3.38-1.05,3.46-2.82.02-.46-.07-.87-.24-1.26l5.96-5.42,1.9-.07,4.82-4.38-4.16.59Z"/>
</svg>