<?xml version="1.0" encoding="UTF-8"?>
<svg id="Layer_1" data-name="Layer 1" xmlns="http://www.w3.org/2000/svg" viewBox="0 0 35 35">
  <defs>
    <style>
      .cls-1 {
        fill: #fff;
      }
    </style>
  </defs>
  <path class="cls-1" d="M24.33,9.84c-1.53,0-11.84.03-14.35.03-.08,0-5.41,5.09-5.4,5.34,0,.22,12.56,14.93,12.59,14.93,0,0,12.6-14.71,12.59-14.93,0-.24-5.31-5.37-5.42-5.37ZM13.7,11.06h7.22v3.45h-7.22v-3.45ZM10.33,11.06h2.14v3.48l-5.84-.03,3.7-3.45ZM6.72,15.92h5.78l3.14,10.3L6.72,15.92ZM13.87,15.83h6.9l-3.45,12.71-3.45-12.71ZM19.03,26.13l3.14-10.21h5.44l-8.58,10.21ZM22.39,14.47v-3.42h1.68l3.62,3.42h-5.3Z"/>
  <rect class="cls-1" x="17.08" y="4.59" width=".98" height="3.98"/>
  <rect class="cls-1" x="10.51" y="4.73" width=".98" height="4.29" transform="translate(-1.79 9.02) rotate(-41.52)"/>
  <rect class="cls-1" x="21.13" y="6.39" width="4.29" height=".98" transform="translate(2.7 19.75) rotate(-48.5)"/>
</svg>