<?xml version="1.0" encoding="UTF-8"?>
<svg id="Layer_1" data-name="Layer 1" xmlns="http://www.w3.org/2000/svg" viewBox="0 0 35 35">
  <defs>
    <style>
      .cls-1 {
        fill: #fff;
      }
    </style>
  </defs>
  <path class="cls-1" d="M33.79,17.47h-.03c-.52-.83-7.76-9.5-16.22-9.5S1.9,15.93,1.24,17.47h-.03s.01.02.01.03c0,0-.01.02-.01.03h.03c.66,1.54,7.6,9.5,16.29,9.5s15.7-8.67,16.22-9.5h.03s0-.02-.02-.03c0-.01.02-.03.02-.03ZM17.53,25.12c-6.54,0-12.14-5.54-14.01-7.62,1.87-2.07,7.47-7.62,14.01-7.62s12.14,5.54,14.01,7.62c-1.87,2.07-7.48,7.62-14.01,7.62Z"/>
  <path class="cls-1" d="M17.5,14.97c-1.4,0-2.53,1.13-2.53,2.53s1.13,2.53,2.53,2.53c.37,0,.72-.09,1.04-.23-.32-.15-.54-.47-.54-.84,0-.52.42-.94.94-.94.38,0,.7.23.85.55.15-.33.24-.68.24-1.07,0-1.4-1.13-2.53-2.53-2.53Z"/>
  <path class="cls-1" d="M17.5,10.99c-3.59,0-6.51,2.92-6.51,6.51s2.92,6.51,6.51,6.51,6.51-2.92,6.51-6.51-2.92-6.51-6.51-6.51ZM17.5,22.41c-2.71,0-4.91-2.2-4.91-4.91s2.2-4.91,4.91-4.91,4.91,2.2,4.91,4.91-2.2,4.91-4.91,4.91Z"/>
</svg>