<?xml version="1.0" encoding="UTF-8"?>
<svg id="Layer_1" data-name="Layer 1" xmlns="http://www.w3.org/2000/svg" viewBox="0 0 48 48">
  <defs>
    <style>
      .cls-1 {
        fill: #4170ff;
        stroke-width: 0px;
      }
    </style>
  </defs>
  <g>
    <path class="cls-1" d="M45.86,34.42h0c3.42-7.18,3.08-15.58-.92-22.45C38.26.48,23.53-3.42,12.04,3.27l3.31,3.31c5.05-2.54,10.95-2.77,16.18-.63,10,4.08,14.81,15.5,10.73,25.51-.02.07-.05.13-.1.19-.22.3-.64.37-.95.15l-1.07-.77-1.55,9.33,8.39-4.36-.94-.68c-.28-.2-.36-.58-.19-.88Z"/>
    <path class="cls-1" d="M6.38,32.73c-2.54-5.05-2.77-10.95-.64-16.18.12-.36.51-.55.86-.43.06.02.12.05.18.09l1.06.77,1.55-9.32L1.02,12.02l.93.68c.28.2.36.58.19.88-5.72,12-.63,26.36,11.37,32.07,7.18,3.42,15.58,3.08,22.45-.92l-3.31-3.31c-9.65,4.85-21.41.96-26.27-8.69Z"/>
  </g>
  <path class="cls-1" d="M33.63,24.06c0-.51-.04-1.05-.13-1.6l2.95-2.57-2.57-4.49-3.72,1.28c-.43-.34-.88-.65-1.35-.93-.47-.28-.96-.52-1.48-.74l-.77-3.85h-5.13l-.77,3.85c-.51.21-.99.44-1.44.67-.45.24-.91.52-1.38.87l-3.72-1.16-2.57,4.36,2.95,2.57c-.09.56-.13,1.11-.13,1.67s.04,1.11.13,1.67l-2.95,2.57,2.57,4.36,3.72-1.16c.47.34.93.63,1.38.87.45.24.93.46,1.44.67l.77,3.85h5.13l.77-3.85c.51-.21.99-.44,1.44-.67.45-.24.91-.52,1.38-.87l3.72,1.16,2.57-4.36-2.95-2.57c.09-.56.13-1.09.13-1.6ZM27.63,27.63c-1.01,1.01-2.21,1.51-3.63,1.51s-2.62-.5-3.63-1.51c-1.01-1.01-1.51-2.21-1.51-3.63s.5-2.62,1.51-3.63c1.01-1.01,2.21-1.51,3.63-1.51s2.62.5,3.63,1.51c1.01,1.01,1.51,2.21,1.51,3.63s-.5,2.62-1.51,3.63Z"/>
</svg>