<?xml version="1.0" encoding="UTF-8"?>
<svg id="Layer_1" data-name="Layer 1" xmlns="http://www.w3.org/2000/svg" viewBox="0 0 48 48">
  <defs>
    <style>
      .cls-1 {
        fill: #4170ff;
        stroke-width: 0px;
      }
    </style>
  </defs>
  <path class="cls-1" d="M42.75,22.56c-.87-.87-1.92-1.31-3.15-1.31H8.39c-1.23,0-2.28.44-3.15,1.31-.87.87-1.31,1.92-1.31,3.15v17.83c0,1.23.44,2.28,1.31,3.15.87.87,1.92,1.31,3.15,1.31h31.21c1.23,0,2.28-.44,3.15-1.31.87-.87,1.31-1.92,1.31-3.15v-17.83c0-1.23-.44-2.28-1.31-3.15ZM8.39,43.54v-4.46c1.23,0,2.28.44,3.15,1.31.87.87,1.31,1.92,1.31,3.15h-4.46ZM11.54,28.86c-.87.87-1.92,1.31-3.15,1.31v-4.46h4.46c0,1.23-.44,2.28-1.31,3.15ZM28.74,39.36c-1.3,1.3-2.88,1.95-4.74,1.95s-3.44-.65-4.74-1.95c-1.3-1.3-1.95-2.88-1.95-4.74s.65-3.44,1.95-4.74c1.3-1.3,2.88-1.95,4.74-1.95s3.44.65,4.74,1.95c1.3,1.3,1.95,2.88,1.95,4.74s-.65,3.44-1.95,4.74ZM39.61,43.54h-4.46c0-1.23.44-2.28,1.31-3.15.87-.87,1.92-1.31,3.15-1.31v4.46ZM39.61,30.17c-1.23,0-2.28-.44-3.15-1.31-.87-.87-1.31-1.92-1.31-3.15h4.46v4.46Z"/>
  <polygon class="cls-1" points="33.51 9.51 30.18 12.83 26.38 9.09 26.38 19.01 21.62 19.01 21.62 9.09 17.82 12.89 14.49 9.51 24 0 33.51 9.51"/>
</svg>