<?xml version="1.0" encoding="UTF-8"?>
<svg id="Layer_1" data-name="Layer 1" xmlns="http://www.w3.org/2000/svg" viewBox="0 0 48 48">
  <defs>
    <style>
      .cls-1 {
        fill: #4170ff;
        stroke-width: 0px;
      }
    </style>
  </defs>
  <path class="cls-1" d="M9.49,41.77v-4.73c0-.93.24-1.8.72-2.62.48-.82,1.14-1.44,1.99-1.86,1.44-.73,3.06-1.35,4.86-1.86,1.8-.51,3.79-.76,5.96-.76s4.16.25,5.96.76c1.8.51,3.42,1.13,4.86,1.86.85.42,1.51,1.04,1.99,1.86s.72,1.69.72,2.62v4.73H9.49ZM12.87,38.38h20.29v-1.35c0-.31-.08-.59-.23-.85s-.36-.45-.61-.59c-1.01-.51-2.32-1.01-3.91-1.52-1.59-.51-3.39-.76-5.39-.76s-3.8.25-5.39.76c-1.59.51-2.9,1.01-3.91,1.52-.25.14-.46.34-.61.59-.15.25-.23.54-.23.85v1.35ZM23.01,28.24c-1.86,0-3.45-.66-4.78-1.99-1.32-1.32-1.99-2.92-1.99-4.78h-.42c-.25,0-.46-.08-.61-.23s-.23-.36-.23-.61.08-.46.23-.61.36-.23.61-.23h.42c0-1.27.31-2.41.93-3.42.62-1.01,1.44-1.82,2.45-2.41v1.61c0,.25.08.46.23.61s.36.23.61.23.46-.08.61-.23.23-.36.23-.61v-2.28c.25-.08.52-.15.8-.19s.58-.06.89-.06.61.02.89.06.55.11.8.19v2.28c0,.25.08.46.23.61s.36.23.61.23.46-.08.61-.23.23-.36.23-.61v-1.61c1.01.59,1.83,1.39,2.45,2.41.62,1.01.93,2.16.93,3.42h.42c.25,0,.46.08.61.23s.23.36.23.61-.08.46-.23.61-.36.23-.61.23h-.42c0,1.86-.66,3.45-1.99,4.78-1.32,1.32-2.92,1.99-4.78,1.99ZM23.01,24.86c.93,0,1.73-.33,2.39-.99.66-.66.99-1.46.99-2.39h-6.76c0,.93.33,1.73.99,2.39s1.46.99,2.39.99ZM35.7,31.62l-.25-1.27c-.17-.06-.33-.12-.49-.19s-.3-.18-.44-.32l-1.18.42-.85-1.52.93-.85v-1.01l-.93-.85.85-1.52,1.18.42c.11-.11.25-.21.42-.3s.34-.15.51-.21l.25-1.27h1.69l.25,1.27c.17.06.34.13.51.21s.31.18.42.3l1.18-.42.85,1.52-.93.85v1.01l.93.85-.85,1.52-1.18-.42c-.14.14-.29.25-.44.32s-.32.13-.49.19l-.25,1.27h-1.69ZM36.54,28.66c.34,0,.63-.13.89-.38s.38-.55.38-.89-.13-.63-.38-.89-.55-.38-.89-.38-.63.13-.89.38-.38.55-.38.89.13.63.38.89.55.38.89.38ZM39.58,23.17l-.34-1.78c-.25-.08-.49-.19-.7-.32s-.4-.27-.57-.44l-1.78.59-1.18-2.03,1.44-1.27c-.06-.14-.08-.25-.08-.34v-.68c0-.08.03-.2.08-.34l-1.44-1.27,1.18-2.03,1.78.59c.17-.17.36-.32.57-.44s.44-.23.7-.32l.34-1.78h2.37l.34,1.78c.25.08.49.19.7.32s.4.27.57.44l1.78-.59,1.18,2.03-1.44,1.27c.06.14.08.25.08.34v.68c0,.08-.03.2-.08.34l1.44,1.27-1.18,2.03-1.78-.59c-.17.17-.36.32-.57.44s-.44.23-.7.32l-.34,1.78h-2.37ZM40.77,19.36c.59,0,1.09-.2,1.5-.61s.61-.91.61-1.5-.2-1.09-.61-1.5-.91-.61-1.5-.61-1.09.2-1.5.61-.61.91-.61,1.5.2,1.09.61,1.5.91.61,1.5.61Z"/>
  <polygon class="cls-1" points="15.79 13.39 13.29 15.89 10.43 13.07 10.43 30.57 6.85 30.57 6.85 13.07 3.99 15.94 1.48 13.39 8.64 6.23 15.79 13.39"/>
</svg>