<?xml version="1.0" encoding="UTF-8"?>
<svg id="Layer_1" data-name="Layer 1" xmlns="http://www.w3.org/2000/svg" viewBox="0 0 48 48">
  <defs>
    <style>
      .cls-1 {
        fill: #4170ff;
        stroke-width: 0px;
      }
    </style>
  </defs>
  <path class="cls-1" d="M27.34,46.43v-4.99h11.47l-11.47-11.47v-6.98l14.96,14.96v-11.47h4.99v19.95h-19.95Z"/>
  <path class="cls-1" d="M17.83,41.46L2.93,25.94v-4.43h7.76c1.96,0,3.65-.64,5.07-1.91,1.42-1.27,2.28-2.85,2.58-4.74H.71v-4.43h16.95c-.63-1.29-1.56-2.35-2.8-3.19-1.24-.83-2.63-1.25-4.18-1.25H.71V1.57h26.6v4.43h-7.2c.52.63.98,1.31,1.39,2.05s.72,1.53.94,2.38h4.88v4.43h-4.49c-.3,3.14-1.59,5.77-3.88,7.9-2.29,2.12-5.04,3.19-8.26,3.19h-1.61l14.9,15.51h-6.15Z"/>
</svg>