<?xml version="1.0" encoding="UTF-8"?>
<svg id="Layer_1" data-name="Layer 1" xmlns="http://www.w3.org/2000/svg" viewBox="0 0 48 48">
  <defs>
    <style>
      .cls-1 {
        fill: #4170ff;
        stroke-width: 0px;
      }
    </style>
  </defs>
  <path class="cls-1" d="M28.77,48v-3.82h4.97l-9.93-9.84-7.64,7.64L2.02,27.75l2.67-2.67,11.46,11.46,7.64-7.64,12.61,12.61v-4.97h3.82v11.46h-11.46Z"/>
  <path class="cls-1" d="M35.6,13.42l1.54,2.45c.41.01.8.04,1.17.08s.76.12,1.18.23l2.26-1.78,2.92,2.33-1.36,2.55c.21.36.38.73.53,1.12s.26.78.35,1.18l2.71.99-.62,3.68-2.87.18c-.23.36-.48.68-.72.96s-.52.56-.82.84l.48,2.86-3.54,1.35-1.54-2.45c-.41-.01-.8-.04-1.17-.08s-.76-.12-1.18-.23l-2.26,1.78-2.92-2.33,1.36-2.55c-.21-.36-.38-.73-.53-1.12s-.26-.78-.35-1.18l-2.71-.99.62-3.68,2.87-.18c.23-.36.48-.68.72-.96s.52-.56.82-.84l-.48-2.86,3.54-1.35ZM35.86,19.4c-.97.37-1.67,1.04-2.1,1.99s-.46,1.92-.09,2.9c.37.97,1.04,1.67,1.99,2.1s1.92.46,2.9.09c.97-.37,1.67-1.04,2.1-1.99s.46-1.92.09-2.9-1.04-1.67-1.99-2.1-1.92-.46-2.9-.09ZM12.34,0l2.21,3.41c.57-.01,1.12.02,1.64.11s1.05.21,1.59.38l3.1-2.5,4.1,3.3-1.89,3.56c.26.51.49,1.03.7,1.56s.38,1.07.52,1.63l3.78,1.4-.86,5.19-3.98.2c-.29.48-.6.93-.93,1.34s-.71.81-1.15,1.17l.62,4.02-4.95,1.89-2.21-3.41c-.57.01-1.12-.02-1.64-.11s-1.05-.21-1.59-.38l-3.1,2.5-4.1-3.3,1.89-3.56c-.26-.51-.49-1.03-.7-1.56s-.38-1.07-.52-1.63l-3.78-1.4.86-5.19,3.98-.2c.29-.48.6-.93.93-1.34s.71-.81,1.15-1.17l-.62-4.02,4.95-1.89ZM12.56,8.02c-1.47.56-2.53,1.56-3.17,2.98-.64,1.43-.68,2.88-.11,4.35.56,1.47,1.56,2.53,2.98,3.17s2.88.68,4.35.11,2.53-1.56,3.17-2.98c.64-1.43.68-2.88.11-4.35-.56-1.47-1.56-2.53-2.98-3.17-1.43-.64-2.88-.68-4.35-.11Z"/>
</svg>