<?xml version="1.0" encoding="UTF-8"?>
<svg id="Layer_1" data-name="Layer 1" xmlns="http://www.w3.org/2000/svg" viewBox="0 0 48 48">
  <defs>
    <style>
      .cls-1 {
        fill: #4170ff;
        stroke-width: 0px;
      }
    </style>
  </defs>
  <path class="cls-1" d="M5.25,25.44c.87.87,1.92,1.31,3.15,1.31h31.21c1.23,0,2.28-.44,3.15-1.31.87-.87,1.31-1.92,1.31-3.15V4.46c0-1.23-.44-2.28-1.31-3.15-.87-.87-1.92-1.31-3.15-1.31H8.39c-1.23,0-2.28.44-3.15,1.31-.87.87-1.31,1.92-1.31,3.15v17.83c0,1.23.44,2.28,1.31,3.15ZM39.61,4.46v4.46c-1.23,0-2.28-.44-3.15-1.31-.87-.87-1.31-1.92-1.31-3.15h4.46ZM36.46,19.14c.87-.87,1.92-1.31,3.15-1.31v4.46h-4.46c0-1.23.44-2.28,1.31-3.15ZM19.26,8.64c1.3-1.3,2.88-1.95,4.74-1.95s3.44.65,4.74,1.95c1.3,1.3,1.95,2.88,1.95,4.74s-.65,3.44-1.95,4.74c-1.3,1.3-2.88,1.95-4.74,1.95s-3.44-.65-4.74-1.95c-1.3-1.3-1.95-2.88-1.95-4.74s.65-3.44,1.95-4.74ZM8.39,4.46h4.46c0,1.23-.44,2.28-1.31,3.15-.87.87-1.92,1.31-3.15,1.31v-4.46ZM8.39,17.83c1.23,0,2.28.44,3.15,1.31.87.87,1.31,1.92,1.31,3.15h-4.46v-4.46Z"/>
  <polygon class="cls-1" points="14.49 38.49 17.82 35.17 21.62 38.91 21.62 28.99 26.38 28.99 26.38 38.91 30.18 35.11 33.51 38.49 24 48 14.49 38.49"/>
</svg>