<?xml version="1.0" encoding="UTF-8"?>
<svg id="Layer_1" data-name="Layer 1" xmlns="http://www.w3.org/2000/svg" viewBox="0 0 48 48">
  <defs>
    <style>
      .cls-1 {
        fill: #000;
        stroke-width: 0px;
      }
    </style>
  </defs>
  <path class="cls-1" d="M36.05,47.15h-6.44l-.84-4.21c-.43-.19-.85-.39-1.24-.59-.41-.21-.83-.47-1.26-.77l-4.08,1.27-3.22-5.47,3.23-2.81c-.06-.53-.09-1.02-.09-1.48s.03-.96.09-1.48l-3.23-2.81,3.22-5.47,4.08,1.27c.42-.29.85-.55,1.26-.77.39-.2.81-.4,1.24-.59l.84-4.21h6.44l.84,4.21c.44.2.86.41,1.26.64.41.23.82.51,1.25.84l4.06-1.4,3.22,5.63-3.22,2.8c.06.46.09.94.09,1.42s-.03.96-.09,1.42l3.23,2.81-3.22,5.47-4.08-1.27c-.43.3-.85.55-1.25.77-.39.21-.81.4-1.24.59l-.84,4.21ZM30.68,45.85h4.3l.77-3.84.32-.13c.51-.21,1-.44,1.46-.68.44-.23.89-.52,1.36-.86l.26-.19,3.71,1.15,2.15-3.65-2.95-2.57.06-.36c.08-.5.12-1.03.12-1.57s-.04-1.07-.12-1.57l-.06-.36,2.96-2.57-2.15-3.77-3.73,1.29-.28-.23c-.46-.38-.92-.7-1.35-.95-.45-.25-.93-.49-1.44-.7l-.32-.13-.77-3.84h-4.3l-.77,3.84-.32.13c-.52.21-1.01.44-1.46.68-.44.23-.9.52-1.36.86l-.26.19-3.71-1.15-2.15,3.65,2.95,2.56-.05.35c-.08.6-.13,1.15-.13,1.65s.04,1.06.13,1.65l.05.35-2.95,2.56,2.15,3.65,3.71-1.15.26.19c.46.34.92.63,1.36.86.45.24.94.47,1.46.68l.32.13.77,3.84ZM32.83,39.1c-1.65,0-3.08-.59-4.25-1.77-1.17-1.17-1.77-2.6-1.77-4.25s.59-3.08,1.77-4.25,2.6-1.77,4.25-1.77,3.08.59,4.25,1.77c1.17,1.17,1.77,2.6,1.77,4.25s-.59,3.08-1.77,4.25c-1.17,1.17-2.6,1.77-4.25,1.77ZM32.83,28.36c-1.31,0-2.4.45-3.33,1.39-.93.93-1.39,2.02-1.39,3.33s.45,2.4,1.39,3.33c.93.93,2.02,1.39,3.33,1.39s2.4-.45,3.33-1.39c.93-.93,1.39-2.02,1.39-3.33s-.45-2.4-1.39-3.33c-.93-.93-2.02-1.39-3.33-1.39ZM16.33,38.24H1.5v-5.81h5.14c-1.83-1.72-3.15-3.68-3.92-5.84-.81-2.28-1.22-4.61-1.22-6.93,0-4.3,1.31-8.18,3.88-11.53,2.58-3.35,5.99-5.6,10.13-6.69l.82-.21v6.04l-.43.15c-2.57.93-4.66,2.53-6.23,4.75-1.57,2.23-2.36,4.75-2.36,7.49,0,1.6.31,3.18.91,4.69.51,1.29,1.29,2.51,2.3,3.63v-4.58h5.81v14.83ZM2.8,36.94h12.23v-12.23h-3.21v6.44l-1.67-1.67c-1.41-1.41-2.46-2.97-3.13-4.65-.67-1.67-1-3.41-1-5.18,0-3.02.88-5.79,2.6-8.24,1.64-2.32,3.8-4.03,6.42-5.07v-3.43c-3.49,1.08-6.39,3.09-8.62,5.99-2.4,3.12-3.62,6.74-3.62,10.74,0,2.17.39,4.36,1.15,6.49.75,2.1,2.07,4,3.93,5.65l2.2,1.93H2.8v3.21ZM43.31,17.94h-5.86l-.08-.56c-.18-1.24-.56-2.44-1.15-3.57-.47-.92-1.09-1.82-1.84-2.68v4.56h-5.81V.85h14.83v5.81h-5.19c1.46,1.55,2.58,3.19,3.38,4.88.85,1.82,1.4,3.73,1.64,5.67l.09.73ZM38.57,16.64h3.27c-.26-1.55-.73-3.08-1.42-4.54-.79-1.69-1.95-3.32-3.43-4.84l-2.17-1.89h7.28v-3.21h-12.23v12.23h3.21v-6.45l1.67,1.67c1.1,1.14,1.98,2.35,2.63,3.6.56,1.09.96,2.24,1.19,3.43Z"/>
</svg>