<?xml version="1.0" encoding="UTF-8"?>
<svg id="Layer_1" data-name="Layer 1" xmlns="http://www.w3.org/2000/svg" viewBox="0 0 48 48">
  <defs>
    <style>
      .cls-1 {
        fill: #000;
        stroke-width: 0px;
      }
    </style>
  </defs>
  <path class="cls-1" d="M37.52,47.15c-1.41,0-2.63-.51-3.64-1.51-1-1-1.51-2.23-1.51-3.64s.51-2.63,1.51-3.64c1-1,2.23-1.51,3.64-1.51s2.63.51,3.64,1.51c1,1,1.51,2.23,1.51,3.64s-.51,2.63-1.51,3.64c-1,1-2.23,1.51-3.64,1.51ZM37.52,38.15c-1.07,0-1.96.37-2.72,1.13s-1.13,1.65-1.13,2.72.37,1.96,1.13,2.72c.76.76,1.65,1.13,2.72,1.13s1.96-.37,2.72-1.13c.76-.76,1.13-1.65,1.13-2.72s-.37-1.96-1.13-2.72c-.76-.76-1.65-1.13-2.72-1.13ZM15.02,47.15c-1.41,0-2.63-.51-3.64-1.51-1-1-1.51-2.23-1.51-3.64s.51-2.63,1.51-3.64c1-1,2.23-1.51,3.64-1.51s2.63.51,3.64,1.51c1,1,1.51,2.23,1.51,3.64s-.51,2.63-1.51,3.64c-1,1-2.23,1.51-3.64,1.51ZM15.02,38.15c-1.07,0-1.96.37-2.72,1.13-.76.76-1.13,1.65-1.13,2.72s.37,1.96,1.13,2.72c.76.76,1.65,1.13,2.72,1.13s1.96-.37,2.72-1.13c.76-.76,1.13-1.65,1.13-2.72s-.37-1.96-1.13-2.72c-.76-.76-1.65-1.13-2.72-1.13ZM42.67,35.9H15.02c-1.93,0-3.4-.86-4.39-2.54-.98-1.68-1.02-3.38-.12-5.05l2.88-5.23L5.61,6.65H.87V.85h8.37l2.14,4.5h32.78c1.09,0,1.97.51,2.53,1.48.56.96.58,1.98.07,2.96l-8,14.42c-.46.85-1.1,1.52-1.9,1.99-.79.47-1.67.71-2.61.71h-16.38l-1.76,3.2h26.55v5.8ZM2.17,5.35h4.26l8.42,17.77-3.2,5.8c-.68,1.25-.64,2.49.1,3.78.74,1.28,1.81,1.9,3.26,1.9h26.35v-3.2H13.92l3.19-5.8h17.15c.71,0,1.35-.17,1.95-.53.6-.36,1.06-.85,1.42-1.5l7.99-14.4c.3-.57.29-1.12-.05-1.69-.33-.57-.78-.83-1.41-.83H10.56l-2.14-4.5H2.17v3.2Z"/>
</svg>