<?xml version="1.0" encoding="UTF-8"?>
<svg id="Layer_1" xmlns="http://www.w3.org/2000/svg" version="1.1" viewBox="0 0 48 48">
  <!-- Generator: Adobe Illustrator 29.0.0, SVG Export Plug-In . SVG Version: 2.1.0 Build 186)  -->
  <path d="M35.7,47.2c-1.8,0-3.3-.6-4.6-1.9-1.3-1.3-1.9-2.8-1.9-4.6s.1-1.4.4-2.1c.2-.5.4-1,.7-1.4l-2.1-2.7c-2.6,1.3-5.6,1.3-8.2,0l-2.1,2.7c.3.4.5.9.7,1.4.2.7.4,1.4.4,2.1,0,1.8-.6,3.4-1.9,4.6s-2.8,1.9-4.6,1.9-3.4-.6-4.6-1.9c-1.3-1.3-1.9-2.8-1.9-4.6s.6-3.3,1.9-4.6c1.3-1.3,2.8-1.9,4.6-1.9s1,0,1.4.2c.3,0,.5.1.8.2l2.2-2.7c-.8-1-1.4-2.1-1.7-3.3-.3-1.2-.4-2.4-.3-3.5l-3-1c-.6.7-1.2,1.3-2,1.8-.9.5-2,.8-3.2.8-1.8,0-3.4-.6-4.6-1.9S-.1,21.9-.1,20.1s.6-3.4,1.9-4.6c1.3-1.3,2.8-1.9,4.6-1.9s3.4.6,4.6,1.9c1.2,1.3,1.9,2.8,1.9,4.6l3,1c.7-1,1.5-2,2.5-2.7s2.2-1.3,3.4-1.6v-3.2c-1.2-.4-2.2-1.1-3-2.1-.9-1.1-1.4-2.5-1.4-4s.6-3.3,1.9-4.6c1.3-1.3,2.8-1.9,4.6-1.9s3.4.6,4.6,1.9c1.3,1.3,1.9,2.8,1.9,4.6s-.5,2.9-1.4,4c-.8,1-1.8,1.7-3,2.1v3.2c1.2.3,2.4.8,3.4,1.6,1,.8,1.9,1.7,2.5,2.7l3-1c0-1.8.7-3.3,1.9-4.6,1.3-1.3,2.8-1.9,4.6-1.9s3.4.6,4.6,1.9,1.9,2.8,1.9,4.6-.6,3.4-1.9,4.6c-1.3,1.3-2.8,1.9-4.6,1.9s-2.2-.3-3.2-.8c-.8-.5-1.5-1-2-1.8l-3,1c.1,1.2,0,2.4-.3,3.5-.3,1.2-.9,2.3-1.7,3.3l2.1,2.6c.3,0,.5-.2.8-.2.4,0,.9-.1,1.4-.1,1.8,0,3.4.6,4.6,1.9s1.9,2.8,1.9,4.6-.6,3.4-1.9,4.6c-1.3,1.3-2.8,1.9-4.6,1.9h0ZM28.4,32.8l3.5,4.3-.3.4c-.3.4-.6.9-.8,1.5-.2.5-.3,1.1-.3,1.7,0,1.5.5,2.7,1.5,3.7,1,1,2.2,1.5,3.7,1.5s2.7-.5,3.7-1.5c1-1,1.5-2.2,1.5-3.7s-.5-2.7-1.5-3.7c-1-1-2.2-1.5-3.7-1.5s-.8,0-1.1.1c-.3,0-.7.2-1,.3l-.5.2-3.5-4.2.4-.4c.9-1,1.4-2,1.8-3.2.3-1.2.4-2.3.2-3.5v-.5c0,0,4.9-1.6,4.9-1.6l.3.4c.5.7,1.1,1.3,1.8,1.7.8.4,1.6.6,2.5.6,1.5,0,2.7-.5,3.7-1.5,1-1,1.5-2.2,1.5-3.7s-.5-2.7-1.5-3.7c-1-1-2.2-1.5-3.7-1.5s-2.7.5-3.7,1.5c-1,1-1.5,2.2-1.5,3.7v.9l-4.9,1.7-.3-.5c-.6-1.1-1.4-2-2.4-2.8-1-.8-2.1-1.2-3.4-1.5h-.5v-5.4h.5c1.1-.5,2-1.1,2.8-2,.8-.9,1.1-2,1.1-3.2s-.5-2.7-1.5-3.7c-1-1-2.2-1.5-3.7-1.5s-2.7.5-3.7,1.5c-1,1-1.5,2.2-1.5,3.7s.4,2.3,1.1,3.2c.8.9,1.7,1.5,2.8,1.9h.5v5.4h-.5c-1.3.3-2.4.8-3.4,1.5-1,.8-1.8,1.7-2.4,2.8l-.3.5-4.9-1.7v-.9c0-1.5-.5-2.7-1.5-3.7-1-1-2.2-1.5-3.7-1.5s-2.7.5-3.7,1.5c-1,1-1.5,2.2-1.5,3.7s.5,2.7,1.5,3.7c1,1,2.2,1.5,3.7,1.5s1.8-.2,2.5-.6c.8-.4,1.4-1,1.9-1.8l.3-.4,4.9,1.6v.5c-.3,1.2-.2,2.4.1,3.5.3,1.2.9,2.2,1.8,3.2l.4.4-3.4,4.3-.5-.2c-.3-.2-.7-.3-1-.3-.3,0-.7-.1-1.1-.1-1.5,0-2.7.5-3.7,1.5-1,1-1.5,2.2-1.5,3.7s.5,2.7,1.5,3.7c1,1,2.2,1.5,3.7,1.5s2.7-.5,3.7-1.5c1-1,1.5-2.2,1.5-3.7s0-1.1-.3-1.7c-.2-.5-.5-1-.8-1.5l-.3-.4,3.4-4.3.5.3c2.5,1.4,5.5,1.4,7.9,0l.5-.3h0ZM24,31.5c-1.5,0-2.9-.5-3.9-1.6-1.1-1.1-1.6-2.4-1.6-3.9s.5-2.9,1.6-3.9c1.1-1.1,2.4-1.6,3.9-1.6s2.9.5,3.9,1.6,1.6,2.4,1.6,3.9-.5,2.9-1.6,3.9-2.4,1.6-3.9,1.6ZM24,21.7c-1.2,0-2.2.4-3,1.2-.8.8-1.2,1.8-1.2,3s.4,2.2,1.2,3c.8.8,1.8,1.2,3,1.2s2.2-.4,3-1.2,1.2-1.8,1.2-3-.4-2.2-1.2-3c-.8-.8-1.8-1.2-3-1.2Z"/>
</svg>