<?xml version="1.0" encoding="UTF-8"?>
<svg id="Layer_1" data-name="Layer 1" xmlns="http://www.w3.org/2000/svg" viewBox="0 0 300 120">
  <polygon points="31.45 79.43 37.02 79.43 37.02 40.22 71.72 40.22 71.72 35.25 31.45 35.25 31.45 79.43"/>
  <polygon points="41.97 79.43 47.54 79.43 47.54 49.66 71.72 49.66 71.72 44.68 41.97 44.68 41.97 79.43"/>
  <polygon points="52.48 79.43 58.06 79.43 58.06 59.08 71.72 59.08 71.72 54.08 52.48 54.08 52.48 79.43"/>
  <path d="M87.58,53.6h0c-7.69,0-13.24,5.72-13.26,13.18,0,7.71,5.54,13.17,13.23,13.17,5.32,0,9.26-2.28,11.54-5.89l-4.26-3.03c-1.31,2.23-3.69,3.86-7.23,3.86-4.2,0-7.55-2.74-7.8-6.89h19.92c.06-.83.06-1.29.06-1.83,0-8.18-5.57-12.58-12.2-12.58ZM80.1,63.91c.74-3.75,4.03-5.63,7.29-5.63s6.2,1.97,6.8,5.63h-14.09Z"/>
  <path d="M119.16,53.59c-3.63,0-6.72,1.86-8.15,3.89v-3.4h-5.57v35.92h5.57v-13.98c1.4,2.03,4.49,3.92,8.15,3.92,6.94,0,12.2-5.92,12.2-13.17s-5.26-13.17-12.2-13.17ZM118.16,74.89c-4.51,0-7.6-3.54-7.6-8.12s3.09-8.12,7.6-8.12,7.54,3.54,7.54,8.12-3.03,8.12-7.54,8.12Z"/>
  <rect x="137.05" y="41.42" width="5.57" height="37.98"/>
  <rect x="150.14" y="54.08" width="5.57" height="25.32"/>
  <path d="M152.92,41.14c-2.03,0-3.74,1.6-3.74,3.69s1.71,3.74,3.74,3.74,3.69-1.74,3.69-3.74-1.66-3.69-3.69-3.69Z"/>
  <path d="M174.75,58.74c3.26,0,5.72,1.89,6.95,4.46l4.86-2.63c-2.17-4.2-6.58-7-11.8-7-7.6,0-13.37,5.69-13.37,13.17s5.77,13.17,13.37,13.17c5.2,0,9.63-2.77,11.8-7l-4.86-2.63c-1.23,2.57-3.72,4.46-6.95,4.46-4.49,0-7.69-3.49-7.69-8s3.17-8,7.69-8Z"/>
  <path d="M210.16,57.48c-1.43-2-4.46-3.89-8.12-3.89h0c-6.94,0-12.2,5.9-12.2,13.16s5.26,13.17,12.2,13.17c3.66,0,6.69-1.89,8.12-3.92v3.4h5.57v-25.32h-5.57v3.4ZM203.07,74.89c-4.51,0-7.54-3.54-7.54-8.12s3.03-8.12,7.54-8.12,7.54,3.54,7.54,8.12-3.03,8.12-7.54,8.12Z"/>
  <polygon points="230.85 47.05 225.28 47.05 225.28 54.08 219.99 54.08 219.99 59.06 225.28 59.06 225.28 79.43 240.45 79.43 240.45 74.43 230.85 74.43 230.85 59.06 240.45 59.06 240.45 54.08 230.85 54.08 230.85 47.05"/>
  <path d="M268.55,66.17c0-8.18-5.57-12.58-12.2-12.58h0c-7.69,0-13.21,5.72-13.26,13.18,0,7.71,5.54,13.17,13.23,13.17,5.32,0,9.26-2.28,11.54-5.89l-4.26-3.03c-1.31,2.23-3.69,3.86-7.23,3.86-4.2,0-7.55-2.74-7.8-6.89h19.92c.06-.83.06-1.29.06-1.83ZM248.86,63.91c.77-3.75,4.03-5.63,7.29-5.63s6.2,1.97,6.8,5.63h-14.09Z"/>
</svg>