<?xml version="1.0" encoding="UTF-8"?>
<svg id="Layer_1" data-name="Layer 1" xmlns="http://www.w3.org/2000/svg" viewBox="0 0 48 48">
  <defs>
    <style>
      .cls-1 {
        fill: none;
        stroke: #000;
        stroke-miterlimit: 10;
        stroke-width: 1.3px;
      }
    </style>
  </defs>
  <path class="cls-1" d="M1.11,42.31v-6.41c0-1.3.32-2.49.97-3.58s1.55-1.92,2.69-2.49c2.29-1.14,4.66-2.02,7.12-2.63s4.97-.92,7.53-.92c.95,0,1.91.07,2.86.2s1.91.3,2.86.49v3.61c-1.72.84-3.1,1.95-4.15,3.32-1.05,1.37-1.57,3.17-1.57,5.38v3.03H1.11ZM24,42.31v-3.2c0-.92.24-1.76.72-2.55.48-.78,1.15-1.34,2.03-1.69,1.37-.57,2.79-1,4.26-1.29,1.47-.29,2.95-.43,4.44-.43s2.97.14,4.44.43c1.47.29,2.89.72,4.26,1.29.88.34,1.55.91,2.03,1.69.48.78.72,1.63.72,2.55v3.2h-22.89ZM35.45,30.87c-1.6,0-2.96-.55-4.06-1.66s-1.66-2.46-1.66-4.06.55-2.96,1.66-4.06c1.11-1.11,2.46-1.66,4.06-1.66s2.96.55,4.06,1.66c1.11,1.11,1.66,2.46,1.66,4.06s-.55,2.96-1.66,4.06-2.46,1.66-4.06,1.66ZM19.42,24c-2.52,0-4.67-.9-6.47-2.69-1.79-1.79-2.69-3.95-2.69-6.47s.9-4.67,2.69-6.47c1.79-1.79,3.95-2.69,6.47-2.69s4.67.9,6.47,2.69c1.79,1.79,2.69,3.95,2.69,6.47s-.9,4.67-2.69,6.47c-1.79,1.79-3.95,2.69-6.47,2.69Z"/>
</svg>