<?xml version="1.0" encoding="UTF-8"?>
<svg id="Layer_1" data-name="Layer 1" xmlns="http://www.w3.org/2000/svg" viewBox="0 0 48 48">
  <defs>
    <style>
      .cls-1 {
        fill: none;
        stroke: #000;
        stroke-miterlimit: 10;
        stroke-width: 1.3px;
      }
    </style>
  </defs>
  <path class="cls-1" d="M36.09,38.93c1.09,0,2.03-.39,2.81-1.17s1.17-1.72,1.17-2.81-.39-2.03-1.17-2.81c-.78-.78-1.72-1.17-2.81-1.17s-2.03.39-2.81,1.17-1.17,1.72-1.17,2.81.39,2.03,1.17,2.81,1.72,1.17,2.81,1.17ZM34.1,44.9l-.6-2.99c-.4-.17-.77-.34-1.12-.52s-.71-.41-1.07-.67l-2.89.9-1.99-3.38,2.29-1.99c-.07-.4-.1-.83-.1-1.29s.03-.9.1-1.29l-2.29-1.99,1.99-3.38,2.89.9c.36-.27.72-.49,1.07-.67s.72-.36,1.12-.52l.6-2.99h3.98l.6,2.99c.4.17.77.34,1.12.52s.71.41,1.07.67l2.89-.9,1.99,3.38-2.29,1.99c.07.4.1.83.1,1.29s-.03.9-.1,1.29l2.29,1.99-1.99,3.38-2.89-.9c-.36.27-.72.49-1.07.67s-.72.36-1.12.52l-.6,2.99h-3.98ZM2.25,42.91L42.07,3.1v19.21c-.86-.43-1.83-.75-2.91-.97-1.08-.22-2.1-.32-3.06-.32-3.88,0-7.18,1.35-9.9,4.06-2.72,2.7-4.08,6-4.08,9.88,0,1.49.2,2.89.6,4.18.4,1.29,1.01,2.55,1.84,3.78H2.25Z"/>
</svg>