<?xml version="1.0" encoding="UTF-8"?>
<svg id="Layer_1" data-name="Layer 1" xmlns="http://www.w3.org/2000/svg" viewBox="0 0 48 48">
  <defs>
    <style>
      .cls-1 {
        fill: none;
        stroke: #000;
        stroke-miterlimit: 10;
        stroke-width: 1.3px;
      }
    </style>
  </defs>
  <path class="cls-1" d="M33.31,43.42l-.69-3.43c-.46-.19-.89-.39-1.28-.6s-.81-.47-1.23-.77l-3.31,1.03-2.28-3.88,2.63-2.28c-.08-.53-.11-1.03-.11-1.48s.04-.95.11-1.48l-2.63-2.28,2.28-3.88,3.31,1.03c.42-.3.83-.56,1.23-.77s.83-.41,1.28-.6l.69-3.43h4.57l.69,3.43c.46.19.89.4,1.28.63s.81.51,1.23.86l3.31-1.14,2.28,4-2.63,2.28c.08.46.11.93.11,1.43s-.04.97-.11,1.43l2.63,2.28-2.28,3.88-3.31-1.03c-.42.3-.83.56-1.23.77s-.83.41-1.28.6l-.69,3.43h-4.57ZM1.33,41.13v-6.4c0-1.26.32-2.44.97-3.54s1.54-1.94,2.68-2.51c1.94-.99,4.13-1.83,6.57-2.51,2.44-.69,5.12-1.03,8.05-1.03h.8c.23,0,.46.04.69.11-1.1,2.74-1.56,5.46-1.37,8.17.19,2.7,1.1,5.27,2.74,7.71H1.33ZM35.59,36.56c1.26,0,2.33-.45,3.23-1.34.89-.89,1.34-1.97,1.34-3.23s-.45-2.33-1.34-3.23c-.89-.89-1.97-1.34-3.23-1.34s-2.33.45-3.23,1.34c-.89.89-1.34,1.97-1.34,3.23s.45,2.33,1.34,3.23c.89.89,1.97,1.34,3.23,1.34ZM19.6,22.86c-2.51,0-4.66-.89-6.45-2.68-1.79-1.79-2.68-3.94-2.68-6.45s.89-4.66,2.68-6.45c1.79-1.79,3.94-2.68,6.45-2.68s4.66.89,6.45,2.68c1.79,1.79,2.68,3.94,2.68,6.45s-.89,4.66-2.68,6.45c-1.79,1.79-3.94,2.68-6.45,2.68Z"/>
</svg>