<?xml version="1.0" encoding="UTF-8"?>
<svg id="Layer_1" data-name="Layer 1" xmlns="http://www.w3.org/2000/svg" viewBox="0 0 48 48">
  <defs>
    <style>
      .cls-1 {
        fill: #000;
        stroke-width: 0px;
      }
    </style>
  </defs>
  <path class="cls-1" d="M24,47.2C11.21,47.2.8,36.79.8,24S11.21.8,24,.8s23.2,10.41,23.2,23.2-10.41,23.2-23.2,23.2ZM24,2.09C11.92,2.09,2.09,11.92,2.09,24s9.83,21.91,21.91,21.91,21.91-9.83,21.91-21.91S36.08,2.09,24,2.09ZM34.33,40.14H13.67v-5.16h20.66v5.16ZM14.96,38.85h18.07v-2.58H14.96v2.58ZM26.58,32.39h-5.16v-14.93l-4.39,4.35-3.62-3.62,10.6-10.6,10.6,10.6-3.62,3.62-4.39-4.35v14.93ZM22.71,31.1h2.58V14.37l5.68,5.62,1.8-1.8-8.77-8.77-8.77,8.77,1.8,1.8,5.68-5.62v16.73Z"/>
</svg>