<?xml version="1.0" encoding="UTF-8"?>
<svg id="Layer_1" data-name="Layer 1" xmlns="http://www.w3.org/2000/svg" viewBox="0 0 48 48">
  <defs>
    <style>
      .cls-1 {
        fill: #4170ff;
      }
    </style>
  </defs>
  <path class="cls-1" d="M12.23,39.12c-3.24,0-6.02-1.12-8.32-3.37-2.3-2.25-3.45-4.99-3.45-8.24,0-2.78.84-5.26,2.51-7.43,1.68-2.17,3.87-3.57,6.58-4.17.89-3.28,2.67-5.94,5.35-7.97s5.7-3.05,9.09-3.05c4.17,0,7.71,1.45,10.62,4.36,2.91,2.91,4.36,6.44,4.36,10.62,2.46.29,4.5,1.35,6.12,3.18s2.43,3.98,2.43,6.44c0,2.67-.94,4.95-2.81,6.82-1.87,1.87-4.14,2.81-6.82,2.81H12.23ZM12.23,34.84h25.67c1.5,0,2.76-.52,3.8-1.55,1.03-1.03,1.55-2.3,1.55-3.8s-.52-2.76-1.55-3.8c-1.03-1.03-2.3-1.55-3.8-1.55h-3.21v-4.28c0-2.96-1.04-5.48-3.13-7.57-2.09-2.09-4.61-3.13-7.57-3.13s-5.48,1.04-7.57,3.13-3.13,4.61-3.13,7.57h-1.07c-2.07,0-3.83.73-5.29,2.19-1.46,1.46-2.19,3.23-2.19,5.29s.73,3.83,2.19,5.29c1.46,1.46,3.23,2.19,5.29,2.19Z"/>
</svg>