<?xml version="1.0" encoding="UTF-8"?>
<svg id="Layer_1" data-name="Layer 1" xmlns="http://www.w3.org/2000/svg" viewBox="0 0 48 48">
  <defs>
    <style>
      .cls-1 {
        fill: #4170ff;
      }
    </style>
  </defs>
  <path class="cls-1" d="M1.15,42.28v-4.57h6.23c-1.94-1.68-3.47-3.69-4.57-6.06-1.1-2.36-1.66-4.91-1.66-7.66,0-4.27,1.3-8.03,3.89-11.28,2.59-3.26,5.87-5.4,9.83-6.43v4.8c-2.67.95-4.86,2.6-6.57,4.94-1.71,2.34-2.57,5-2.57,7.97,0,2.06.41,3.95,1.23,5.69.82,1.73,1.93,3.23,3.34,4.49v-5.6h4.57v13.71H1.15ZM26.29,42.28c-1.9,0-3.52-.67-4.86-2-1.33-1.33-2-2.95-2-4.86s.63-3.4,1.89-4.71,2.8-2.01,4.63-2.09c.65-1.37,1.61-2.49,2.89-3.34s2.71-1.29,4.31-1.29c2.02,0,3.76.66,5.23,1.97s2.35,2.94,2.66,4.89c1.6,0,2.97.55,4.11,1.66,1.14,1.1,1.71,2.44,1.71,4s-.55,2.96-1.66,4.09-2.46,1.69-4.06,1.69h-14.86ZM32.91,21.71c-.27-1.56-.78-3.01-1.54-4.34-.76-1.33-1.7-2.51-2.8-3.54v5.6h-4.57V5.72h13.71v4.57h-6.23c1.64,1.45,2.98,3.14,4.03,5.09s1.72,4.06,2.03,6.34h-4.63ZM26.29,37.71h14.86c.3,0,.57-.11.8-.34s.34-.5.34-.8-.11-.57-.34-.8-.5-.34-.8-.34h-4v-2.86c0-1.1-.39-2.05-1.17-2.83s-1.72-1.17-2.83-1.17-2.05.39-2.83,1.17-1.17,1.72-1.17,2.83v.57h-2.86c-.65,0-1.19.22-1.63.66s-.66.98-.66,1.63.22,1.19.66,1.63c.44.44.98.66,1.63.66Z"/>
</svg>