<?xml version="1.0" encoding="UTF-8"?>
<svg id="Layer_1" data-name="Layer 1" xmlns="http://www.w3.org/2000/svg" viewBox="0 0 48 48">
  <defs>
    <style>
      .cls-1 {
        fill: #4170ff;
      }
    </style>
  </defs>
  <path class="cls-1" d="M22.23,27.54c1.5,0,2.76-.51,3.78-1.54,1.02-1.02,1.54-2.28,1.54-3.78s-.51-2.76-1.54-3.78c-1.02-1.02-2.28-1.54-3.78-1.54s-2.76.51-3.78,1.54-1.54,2.28-1.54,3.78.51,2.76,1.54,3.78,2.28,1.54,3.78,1.54ZM33.62,36.99l-6.2-6.2c-.79.51-1.62.89-2.51,1.12s-1.78.35-2.69.35c-2.79,0-5.17-.97-7.11-2.92-1.95-1.95-2.92-4.32-2.92-7.11s.97-5.17,2.92-7.11c1.95-1.95,4.32-2.92,7.11-2.92s5.17.97,7.11,2.92c1.95,1.95,2.92,4.32,2.92,7.11,0,.91-.13,1.8-.38,2.69-.26.89-.64,1.72-1.15,2.51l6.26,6.26-3.37,3.31ZM7.47,45.26c-1.3,0-2.41-.46-3.34-1.39-.93-.93-1.39-2.04-1.39-3.34v-9.45h4.72v9.45h9.45v4.72H7.47ZM31.09,45.26v-4.72h9.45v-9.45h4.72v9.45c0,1.3-.46,2.41-1.39,3.34-.93.93-2.04,1.39-3.34,1.39h-9.45ZM2.74,16.91V7.47c0-1.3.46-2.41,1.39-3.34.93-.93,2.04-1.39,3.34-1.39h9.45v4.72H7.47v9.45H2.74ZM40.53,16.91V7.47h-9.45V2.74h9.45c1.3,0,2.41.46,3.34,1.39s1.39,2.04,1.39,3.34v9.45h-4.72Z"/>
</svg>