<?xml version="1.0" encoding="UTF-8"?>
<svg id="Layer_1" data-name="Layer 1" xmlns="http://www.w3.org/2000/svg" viewBox="0 0 48 48">
  <defs>
    <style>
      .cls-1 {
        fill: #4170ff;
      }
    </style>
  </defs>
  <path class="cls-1" d="M16.58,31.42v-14.83h14.83v14.83h-14.83ZM21.53,26.47h4.94v-4.94h-4.94v4.94ZM16.58,46.25v-4.94h-4.94c-1.36,0-2.52-.48-3.49-1.45s-1.45-2.13-1.45-3.49v-4.94H1.75v-4.94h4.94v-4.94H1.75v-4.94h4.94v-4.94c0-1.36.48-2.52,1.45-3.49s2.13-1.45,3.49-1.45h4.94V1.75h4.94v4.94h4.94V1.75h4.94v4.94h4.94c1.36,0,2.52.48,3.49,1.45.97.97,1.45,2.13,1.45,3.49v4.94h4.94v4.94h-4.94v4.94h4.94v4.94h-4.94v4.94c0,1.36-.48,2.52-1.45,3.49-.97.97-2.13,1.45-3.49,1.45h-4.94v4.94h-4.94v-4.94h-4.94v4.94h-4.94ZM36.36,36.36V11.64H11.64v24.72h24.72Z"/>
</svg>