<?xml version="1.0" encoding="UTF-8"?>
<svg id="Layer_1" data-name="Layer 1" xmlns="http://www.w3.org/2000/svg" viewBox="0 0 48 48">
  <defs>
    <style>
      .cls-1 {
        fill: #4170ff;
      }
    </style>
  </defs>
  <path class="cls-1" d="M2.99,43.37v-5.2h7.09c-2.21-1.91-3.94-4.21-5.2-6.89-1.26-2.69-1.89-5.59-1.89-8.71,0-4.86,1.47-9.14,4.42-12.84,2.95-3.71,6.68-6.15,11.18-7.32v5.46c-3.03,1.08-5.53,2.96-7.48,5.62-1.95,2.67-2.93,5.69-2.93,9.07,0,2.34.47,4.5,1.4,6.47.93,1.97,2.2,3.67,3.8,5.1v-6.37h5.2v15.61H2.99ZM39.4,22.56c0-2.21-.44-4.28-1.33-6.21s-2.18-3.72-3.87-5.36v6.37h-5.2V1.75h15.61v5.2h-7.09c2.56,2.3,4.37,4.76,5.43,7.38,1.06,2.62,1.61,5.36,1.66,8.23h-5.2Z"/>
  <path class="cls-1" d="M44.33,29.47c-.46-.46-1-.68-1.64-.68h-3.49v-2.33c0-.64-.23-1.19-.68-1.64-.46-.46-1-.68-1.64-.68h-6.98c-.64,0-1.19.23-1.64.68s-.68,1-.68,1.64v2.33h-3.49c-.64,0-1.19.23-1.64.68-.46.46-.68,1-.68,1.64v12.8c0,.64.23,1.19.68,1.64s1,.68,1.64.68h18.62c.64,0,1.19-.23,1.64-.68s.68-1,.68-1.64v-12.8c0-.64-.23-1.19-.68-1.64ZM35.91,27.42v1.37h-5.07v-1.37"/>
</svg>