<?xml version="1.0" encoding="UTF-8"?>
<svg id="Layer_1" data-name="Layer 1" xmlns="http://www.w3.org/2000/svg" viewBox="0 0 48 48">
  <defs>
    <style>
      .cls-1 {
        fill: #4170ff;
      }
    </style>
  </defs>
  <path class="cls-1" d="M12.61,40.47c-3.14,0-5.83-1.09-8.05-3.26-2.23-2.17-3.34-4.83-3.34-7.97,0-2.69.81-5.09,2.43-7.2,1.62-2.11,3.75-3.45,6.37-4.04.59-2.49,2.05-4.85,4.4-7.09,2.35-2.24,4.85-3.37,7.51-3.37,1.14,0,2.11.41,2.93,1.22.81.81,1.22,1.79,1.22,2.93v12.53l3.31-3.21,2.9,2.9-8.29,8.29-8.29-8.29,2.9-2.9,3.31,3.21v-12.53c-2.62.48-4.66,1.75-6.11,3.81-1.45,2.05-2.17,4.17-2.17,6.34h-1.04c-2,0-3.71.71-5.13,2.12-1.42,1.42-2.12,3.12-2.12,5.13s.71,3.71,2.12,5.13c1.42,1.42,3.12,2.12,5.13,2.12h24.86c1.45,0,2.68-.5,3.68-1.5,1-1,1.5-2.23,1.5-3.68s-.5-2.68-1.5-3.68c-1-1-2.23-1.5-3.68-1.5h-3.11v-4.14c0-1.66-.38-3.2-1.14-4.63s-1.76-2.65-3-3.65v-4.82c2.55,1.21,4.57,2.99,6.06,5.36,1.48,2.36,2.23,4.95,2.23,7.74,2.38.28,4.36,1.3,5.93,3.08,1.57,1.78,2.36,3.86,2.36,6.24,0,2.59-.91,4.79-2.72,6.6-1.81,1.81-4.01,2.72-6.6,2.72H12.61Z"/>
</svg>