<svg width="32" height="32" viewBox="0 0 32 32" fill="none" xmlns="http://www.w3.org/2000/svg">
<path d="M28.6575 11.3C29.7328 14.1883 29.7875 17.3576 28.8124 20.2813C27.8373 23.205 25.8912 25.707 23.2974 27.3717C20.7037 29.0363 17.6184 29.7634 14.5542 29.432C11.4901 29.1006 8.6316 27.7307 6.45371 25.55C4.00727 23.1116 2.58853 19.8282 2.48945 16.3756C2.39036 12.9229 3.61848 9.56357 5.92106 6.9889C8.22364 4.41424 11.4255 2.82009 14.8678 2.53453C18.3101 2.24896 21.7308 3.29369 24.4262 5.45374L26.9387 2.93999C27.0782 2.80046 27.2439 2.68978 27.4262 2.61426C27.6085 2.53875 27.8039 2.49988 28.0012 2.49988C28.1985 2.49988 28.3939 2.53875 28.5762 2.61426C28.7585 2.68978 28.9242 2.80046 29.0637 2.93999C29.2032 3.07951 29.3139 3.24516 29.3894 3.42746C29.4649 3.60977 29.5038 3.80516 29.5038 4.00249C29.5038 4.19981 29.4649 4.3952 29.3894 4.57751C29.3139 4.75981 29.2032 4.92546 29.0637 5.06499L17.0637 17.065C16.9242 17.2045 16.7585 17.3152 16.5762 17.3907C16.3939 17.4662 16.1985 17.5051 16.0012 17.5051C15.8039 17.5051 15.6085 17.4662 15.4262 17.3907C15.2439 17.3152 15.0782 17.2045 14.9387 17.065C14.7992 16.9255 14.6885 16.7598 14.613 16.5775C14.5375 16.3952 14.4986 16.1998 14.4986 16.0025C14.4986 15.8052 14.5375 15.6098 14.613 15.4275C14.6885 15.2452 14.7992 15.0795 14.9387 14.94L17.9387 11.94C17.0932 11.536 16.1426 11.4061 15.2197 11.5683C14.2968 11.7306 13.4475 12.1769 12.7905 12.845C12.1334 13.5131 11.7013 14.3696 11.5544 15.2951C11.4075 16.2206 11.5533 17.1689 11.9712 18.0075C12.3892 18.8462 13.0586 19.5335 13.8859 19.9735C14.7133 20.4135 15.6574 20.5842 16.5864 20.4618C17.5155 20.3395 18.3831 19.9301 19.0684 19.2909C19.7536 18.6517 20.2222 17.8146 20.4087 16.8962C20.4873 16.5062 20.7176 16.1634 21.0489 15.9431C21.3803 15.7229 21.7856 15.6433 22.1756 15.7219C22.5656 15.8004 22.9085 16.0307 23.1287 16.3621C23.3489 16.6934 23.4285 17.0987 23.35 17.4887C23.0304 19.0627 22.2141 20.4925 21.0211 21.5678C19.8281 22.643 18.3214 23.3069 16.7228 23.4617C15.1243 23.6165 13.5182 23.2541 12.141 22.4278C10.7639 21.6014 9.68832 20.3548 9.07271 18.8714C8.4571 17.388 8.33394 15.7462 8.72134 14.1876C9.10874 12.6289 9.98625 11.2358 11.2247 10.2132C12.4632 9.19068 13.9972 8.59268 15.601 8.50726C17.2048 8.42184 18.7936 8.85351 20.1337 9.73874L22.2875 7.59249C20.2643 6.08155 17.7645 5.35028 15.246 5.53269C12.7275 5.7151 10.3592 6.79897 8.57487 8.58568C6.7906 10.3724 5.70994 12.7422 5.53094 15.2609C5.35195 17.7797 6.08661 20.2785 7.60029 22.2996C9.11396 24.3207 11.3053 25.7286 13.7726 26.2653C16.24 26.802 18.8181 26.4316 21.0346 25.222C23.2511 24.0124 24.9574 22.0445 25.8409 19.679C26.7243 17.3136 26.7258 14.7089 25.845 12.3425C25.7748 12.1575 25.742 11.9604 25.7484 11.7627C25.7547 11.5649 25.8002 11.3704 25.882 11.1902C25.9639 11.0101 26.0806 10.848 26.2254 10.7131C26.3702 10.5783 26.5402 10.4734 26.7257 10.4046C26.9112 10.3358 27.1085 10.3043 27.3062 10.312C27.5039 10.3198 27.6981 10.3665 27.8777 10.4496C28.0572 10.5327 28.2186 10.6506 28.3524 10.7963C28.4862 10.942 28.5899 11.1128 28.6575 11.2987V11.3Z" fill="#1D162B"/>
</svg>
