<?xml version="1.0" encoding="UTF-8"?>
<svg id="Layer_1" data-name="Layer 1" xmlns="http://www.w3.org/2000/svg" viewBox="0 0 48 48">
  <defs>
    <style>
      .cls-1 {
        fill: none;
      }

      .cls-1, .cls-2 {
        stroke-width: 0px;
      }

      .cls-2 {
        fill: #4170ff;
      }
    </style>
  </defs>
  <path class="cls-1" d="M25.81,22.72c0,.59.48,1.07,1.07,1.08h5.11l-6.19-6.19v5.11Z"/>
  <path class="cls-1" d="M22.33,23.27v-6.81H7v26.95h26.95v-16.45h-7.93c-2.04,0-3.68-1.65-3.69-3.69ZM10.85,20.31h10.13v3.85h-10.13v-3.85ZM30.1,39.56H10.85v-3.85h19.25v3.85ZM30.1,31.86H10.85v-3.85h19.25v3.85Z"/>
  <path class="cls-1" d="M40.3,23.8c.59,0,1.07-.48,1.07-1.08v-8.5c0-.59-.48-1.07-1.07-1.07h-13.42s-.05.01-.08.02l10.63,10.63h2.87Z"/>
  <path class="cls-1" d="M33.59,4.22c-1.46,0-2.65,1.18-2.65,2.65v2.11h5.29v-2.11c0-1.46-1.18-2.65-2.65-2.65Z"/>
  <rect class="cls-2" x="10.85" y="28.01" width="19.25" height="3.85"/>
  <rect class="cls-2" x="10.85" y="35.71" width="19.25" height="3.85"/>
  <rect class="cls-2" x="10.85" y="20.31" width="10.13" height="3.85"/>
  <path class="cls-2" d="M33.95,43.41H7v-26.95h15.33v-2.79c0-.37.07-.72.18-1.06H7c-1.06,0-1.96.38-2.72,1.13-.75.75-1.13,1.66-1.13,2.72v26.95c0,1.06.38,1.96,1.13,2.72.75.75,1.66,1.13,2.72,1.13h26.95c1.06,0,1.96-.38,2.72-1.13.75-.75,1.13-1.66,1.13-2.72v-16.45h-3.85v16.45Z"/>
  <path class="cls-2" d="M25.81,22.72v-5.11l-1.15-1.15h-2.33v6.81c0,2.03,1.65,3.69,3.69,3.69h7.93v-1.21l-1.95-1.95h-5.11c-.59,0-1.07-.48-1.07-1.08Z"/>
  <path class="cls-2" d="M41.17,9.98h-1.34v-3.01c0-3.45-2.79-6.24-6.24-6.24s-6.24,2.79-6.24,6.24v3.01h-1.34c-1.66,0-3.05,1.11-3.51,2.63h3.74l.55.55s.05-.02.08-.02h13.42c.59,0,1.07.48,1.07,1.07v8.5c0,.59-.48,1.07-1.07,1.08h-2.87l.36.36v2.8h3.37c2.04,0,3.68-1.65,3.69-3.69v-9.6c0-2.03-1.65-3.68-3.68-3.69ZM36.24,8.98h-5.29v-2.11c0-1.46,1.18-2.65,2.65-2.65s2.65,1.18,2.65,2.65v2.11Z"/>
  <path class="cls-2" d="M22.33,16.46h2.33l1.15,1.15v-3.39c0-.56.44-1.01.99-1.06l-.55-.55h-3.74c-.1.34-.17.69-.18,1.06v2.79Z"/>
  <polygon class="cls-2" points="37.43 23.8 31.99 23.8 33.95 25.75 33.95 26.96 37.8 26.96 37.8 24.16 37.43 23.8"/>
</svg>