<?xml version="1.0" encoding="UTF-8"?>
<svg id="Layer_1" data-name="Layer 1" xmlns="http://www.w3.org/2000/svg" viewBox="0 0 48 48">
  <defs>
    <style>
      .cls-1 {
        fill: #4170ff;
        stroke-width: 0px;
      }
    </style>
  </defs>
  <path class="cls-1" d="M30.13,10.22l-.7-.59-.6.69c-.48.56-1.05,1.24-2.09,2.48l-.59.71.71.6c1.23,1.04,2.46,2.16,3.64,3.34,9.83,9.82,13.71,20.62,10.62,23.72-.67.67-1.76,1.02-3.17,1.02-2.12,0-4.82-.77-7.8-2.22l-.83-.41-.89,1.81c-.21.43-.47.97-.93,1.91l-.41.84.84.41c3.73,1.82,7.11,2.74,10.05,2.74s5.08-.84,6.74-2.51c5.78-5.78,1.21-19.07-10.62-30.9-1.28-1.27-2.61-2.5-3.96-3.63Z"/>
  <path class="cls-1" d="M37.71,30.21l.59-.69-.93-.84c-.57-.51-1.15-1.03-2.24-1.89l-.7-.55-.58.68c-1.01,1.19-2.13,2.41-3.34,3.62-8.05,8.05-16.12,11.66-20.55,11.66-1.42,0-2.48-.35-3.17-1.04-1.72-1.72-1.26-5.92,1.2-10.96l.43-.87-.89-.39c-1.38-.61-1.53-.69-1.87-.88-.2-.11-.45-.25-.97-.51l-.84-.43-.41.85c-3.55,7.27-3.63,13.38-.23,16.79,1.66,1.66,3.93,2.5,6.74,2.5,6.8,0,16.06-5.03,24.15-13.12,1.3-1.31,2.53-2.63,3.63-3.93Z"/>
  <path class="cls-1" d="M17.76,37.77l.71.6,3.28-3.88-.71-.6c-1.25-1.05-2.47-2.17-3.63-3.34-4.63-4.63-8.26-9.8-10.22-14.53-1.75-4.24-1.9-7.68-.4-9.18.67-.67,1.76-1.02,3.17-1.02,2.12,0,4.81.77,7.79,2.22l.81.39.75-1.42c.5-.94.64-1.19,1.12-2.34l.34-.81-.79-.38c-3.72-1.82-7.1-2.74-10.04-2.74s-5.08.84-6.74,2.51c-5.78,5.78-1.22,19.06,10.62,30.9,1.3,1.29,2.63,2.51,3.95,3.63Z"/>
  <path class="cls-1" d="M10.26,17.84l-.56.66.62.6c.48.46.79.77,1.03,1.03.45.45.72.73,1.35,1.25l.71.59.59-.71c1.08-1.3,2.25-2.58,3.49-3.81,8.05-8.05,16.12-11.66,20.54-11.66,1.42,0,2.49.35,3.18,1.04,1.73,1.73,1.26,5.94-1.21,11l-.41.84,1.54.74q.98.47,2.18,1.07l.84.42.41-.84c3.56-7.28,3.64-13.41.23-16.82-1.66-1.66-3.93-2.5-6.75-2.5-6.8,0-16.06,5.03-24.16,13.12-1.3,1.3-2.53,2.64-3.65,3.98Z"/>
</svg>