<?xml version="1.0" encoding="UTF-8"?>
<svg id="Layer_1" data-name="Layer 1" xmlns="http://www.w3.org/2000/svg" viewBox="0 0 48 48">
  <defs>
    <style>
      .cls-1 {
        fill: #4170ff;
        stroke-width: 0px;
      }
    </style>
  </defs>
  <path class="cls-1" d="M23.73,8.41c.62.1,1.25.17,1.87.3,5.41,1.12,9.67,5.64,10.48,11.09.37,2.51.07,4.93-.9,7.28-.09.21-.19.28-.42.28-1.85,0-3.71,0-5.63,0,.08-.11.14-.19.19-.26,1.94-2.55,2.42-5.36,1.24-8.33-1.18-2.97-3.46-4.72-6.62-5.21-4.46-.7-8.76,2.52-9.43,7-.69,4.56,2.31,8.74,6.86,9.56.46.08.94.12,1.41.12,5.53,0,8.94,0,14.46,0,.09,0,.18,0,.33-.02-.1-.45-.2-.87-.29-1.3-.13-.6-.29-1.19-.39-1.79-.07-.39-.04-.81.32-1.07.37-.27.75-.11,1.11.05.23.11.46.25.67.4,2.82,2.04,5.63,4.08,8.45,6.12.04.03.08.06.14.11-.08.06-.14.12-.21.17-2.78,2.01-5.55,4.03-8.33,6.03-.34.24-.72.44-1.11.57-.56.19-.98-.1-1.01-.68-.02-.39.03-.8.11-1.19.15-.75.34-1.48.51-2.22,0-.04,0-.08.01-.15-.14,0-.27,0-.4,0-5.49,0-8.86,0-14.34,0-6.71-.02-12.34-4.9-13.32-11.54-.85-5.77,2.25-11.54,7.54-14.04,1.47-.69,3-1.12,4.61-1.25.08,0,.16-.03.23-.05.62,0,1.24,0,1.87,0Z"/>
  <path class="cls-1" d="M.43,35.27v-5.03c.12,0,.23,0,.33,0,3.15,0,6.29,0,9.44,0,.18,0,.31.03.42.2,1.15,1.86,2.61,3.42,4.38,4.69.05.03.09.07.19.14H.43Z"/>
</svg>