<?xml version="1.0" encoding="UTF-8"?>
<svg id="Layer_1" data-name="Layer 1" xmlns="http://www.w3.org/2000/svg" viewBox="0 0 48 48">
  <defs>
    <style>
      .cls-1 {
        fill: none;
      }

      .cls-2 {
        fill: #4170ff;
      }

      .cls-3 {
        fill: #be00ff;
        font-family: MyriadPro-Regular, 'Myriad Pro';
        font-size: 10px;
      }

      .cls-4 {
        letter-spacing: -.01em;
      }

      .cls-5 {
        letter-spacing: -.02em;
      }

      .cls-6 {
        letter-spacing: 0em;
      }

      .cls-7 {
        letter-spacing: 0em;
      }

      .cls-8 {
        letter-spacing: 0em;
      }

      .cls-9 {
        letter-spacing: -.01em;
      }

      .cls-10 {
        letter-spacing: -.01em;
      }

      .cls-11 {
        letter-spacing: -.01em;
      }

      .cls-12 {
        letter-spacing: 0em;
      }

      .cls-13 {
        letter-spacing: .02em;
      }

      .cls-14 {
        letter-spacing: .01em;
      }

      .cls-15 {
        letter-spacing: .03em;
      }
    </style>
  </defs>
  <rect class="cls-1" x="-3.58" y="-8" width="64" height="64"/>
  <text class="cls-3" transform="translate(-6.67 -62.51)"><tspan class="cls-5" x="0" y="0">P</tspan><tspan class="cls-12" x="5.16" y="0">r</tspan><tspan class="cls-15" x="8.33" y="0">e</tspan><tspan x="13.62" y="0">-built blockchain </tspan><tspan x="0" y="12">applic</tspan><tspan class="cls-8" x="25.38" y="12">a</tspan><tspan x="30.16" y="12">tions </tspan><tspan class="cls-4" x="52.93" y="12">f</tspan><tspan x="55.72" y="12">or </tspan><tspan class="cls-6" x="0" y="24">c</tspan><tspan x="4.42" y="24">os</tspan><tspan class="cls-7" x="13.87" y="24">t</tspan><tspan class="cls-13" x="17.13" y="24">-</tspan><tspan x="20.38" y="24">e</tspan><tspan class="cls-4" x="25.39" y="24">ff</tspan><tspan x="31.09" y="24">e</tspan><tspan class="cls-14" x="36.1" y="24">c</tspan><tspan x="40.71" y="24">ti</tspan><tspan class="cls-11" x="46.36" y="24">v</tspan><tspan class="cls-10" x="51.07" y="24">e</tspan><tspan x="55.96" y="24">, </tspan><tspan x="0" y="36">t</tspan><tspan class="cls-7" x="3.31" y="36">r</tspan><tspan x="6.53" y="36">anspa</tspan><tspan class="cls-12" x="31.37" y="36">r</tspan><tspan x="34.54" y="36">e</tspan><tspan class="cls-8" x="39.55" y="36">n</tspan><tspan x="45.06" y="36">t </tspan><tspan x="0" y="48">ope</tspan><tspan class="cls-7" x="16.19" y="48">r</tspan><tspan class="cls-8" x="19.41" y="48">a</tspan><tspan x="24.19" y="48">tion</tspan><tspan class="cls-9" x="40.88" y="48">s</tspan><tspan x="44.73" y="48" xml:space="preserve">.  </tspan></text>
  <rect class="cls-1" x="4.9" y="-9.92" width="64" height="64"/>
  <path class="cls-2" d="M12.63,45.78c-1.58,0-2.92-.55-4.03-1.66-1.1-1.1-1.66-2.45-1.66-4.03s.55-2.92,1.66-4.03c1.1-1.1,2.45-1.66,4.03-1.66.44,0,.85.05,1.23.14s.74.22,1.09.38l2.7-3.36c-.88-.98-1.5-2.08-1.85-3.31s-.43-2.46-.24-3.69l-3.84-1.28c-.54.79-1.22,1.42-2.04,1.89-.82.47-1.74.71-2.75.71-1.58,0-2.92-.55-4.03-1.66-1.1-1.1-1.66-2.45-1.66-4.03s.55-2.92,1.66-4.03c1.1-1.1,2.45-1.66,4.03-1.66s2.92.55,4.03,1.66,1.66,2.45,1.66,4.03v.38l3.84,1.33c.63-1.14,1.48-2.1,2.53-2.89s2.25-1.29,3.58-1.52v-4.12c-1.23-.35-2.25-1.02-3.05-2.01s-1.21-2.15-1.21-3.48c0-1.58.55-2.92,1.66-4.03,1.1-1.1,2.45-1.66,4.03-1.66s2.92.55,4.03,1.66,1.66,2.45,1.66,4.03c0,1.33-.41,2.49-1.23,3.48-.82.99-1.83,1.67-3.03,2.01v4.12c1.33.22,2.52.73,3.58,1.52s1.9,1.75,2.53,2.89l3.84-1.33v-.38c0-1.58.55-2.92,1.66-4.03s2.45-1.66,4.03-1.66,2.92.55,4.03,1.66,1.66,2.45,1.66,4.03-.55,2.92-1.66,4.03c-1.1,1.1-2.45,1.66-4.03,1.66-1.01,0-1.93-.24-2.77-.71-.84-.47-1.51-1.1-2.01-1.89l-3.84,1.28c.19,1.23.11,2.45-.24,3.67-.35,1.22-.96,2.33-1.85,3.34l2.7,3.31c.35-.16.71-.28,1.09-.36s.79-.12,1.23-.12c1.58,0,2.92.55,4.03,1.66,1.1,1.1,1.66,2.45,1.66,4.03s-.55,2.92-1.66,4.03c-1.1,1.1-2.45,1.66-4.03,1.66s-2.92-.55-4.03-1.66c-1.1-1.1-1.66-2.45-1.66-4.03,0-.63.1-1.24.31-1.82s.48-1.11.83-1.59l-2.7-3.36c-1.29.73-2.68,1.09-4.14,1.09s-2.85-.36-4.14-1.09l-2.65,3.36c.35.47.62,1,.83,1.59.21.58.31,1.19.31,1.82,0,1.58-.55,2.92-1.66,4.03-1.1,1.1-2.45,1.66-4.03,1.66ZM6.95,22.11c.54,0,.99-.18,1.35-.54s.54-.81.54-1.35-.18-.99-.54-1.35-.81-.54-1.35-.54-.99.18-1.35.54-.54.81-.54,1.35.18.99.54,1.35.81.54,1.35.54ZM12.63,41.99c.54,0,.99-.18,1.35-.54.36-.36.54-.81.54-1.35s-.18-.99-.54-1.35-.81-.54-1.35-.54-.99.18-1.35.54c-.36.36-.54.81-.54,1.35s.18.99.54,1.35c.36.36.81.54,1.35.54ZM24,9.79c.54,0,.99-.18,1.35-.54.36-.36.54-.81.54-1.35s-.18-.99-.54-1.35c-.36-.36-.81-.54-1.35-.54s-.99.18-1.35.54c-.36.36-.54.81-.54,1.35s.18.99.54,1.35c.36.36.81.54,1.35.54ZM24,30.63c1.33,0,2.45-.46,3.36-1.37s1.37-2.04,1.37-3.36-.46-2.45-1.37-3.36c-.92-.92-2.04-1.37-3.36-1.37s-2.45.46-3.36,1.37c-.92.92-1.37,2.04-1.37,3.36s.46,2.45,1.37,3.36,2.04,1.37,3.36,1.37ZM35.37,41.99c.54,0,.99-.18,1.35-.54.36-.36.54-.81.54-1.35s-.18-.99-.54-1.35-.81-.54-1.35-.54-.99.18-1.35.54-.54.81-.54,1.35.18.99.54,1.35c.36.36.81.54,1.35.54ZM41.05,22.11c.54,0,.99-.18,1.35-.54s.54-.81.54-1.35-.18-.99-.54-1.35-.81-.54-1.35-.54-.99.18-1.35.54-.54.81-.54,1.35.18.99.54,1.35c.36.36.81.54,1.35.54Z"/>
</svg>