<?xml version="1.0" encoding="UTF-8"?>
<svg id="Layer_1" data-name="Layer 1" xmlns="http://www.w3.org/2000/svg" viewBox="0 0 48 48">
  <defs>
    <style>
      .cls-1 {
        fill: none;
      }

      .cls-2 {
        fill: #4170ff;
      }

      .cls-3 {
        fill: #be00ff;
        font-family: MyriadPro-Regular, 'Myriad Pro';
        font-size: 10px;
      }

      .cls-4 {
        letter-spacing: 0em;
      }

      .cls-5 {
        letter-spacing: -.01em;
      }

      .cls-6 {
        letter-spacing: 0em;
      }
    </style>
  </defs>
  <rect class="cls-1" x="-3.58" y="-8" width="64" height="64"/>
  <text class="cls-3" transform="translate(-8.17 -62.51)"><tspan x="0" y="0">Unified financial </tspan><tspan x="0" y="12">manageme</tspan><tspan class="cls-4" x="47.48" y="12">n</tspan><tspan x="52.99" y="12">t and </tspan><tspan x="0" y="24">st</tspan><tspan class="cls-6" x="7.27" y="24">r</tspan><tspan x="10.44" y="24">eamlined </tspan><tspan x="0" y="36">p</tspan><tspan class="cls-6" x="5.69" y="36">r</tspan><tspan x="8.86" y="36">ocu</tspan><tspan class="cls-5" x="24.34" y="36">r</tspan><tspan x="27.51" y="36">eme</tspan><tspan class="cls-4" x="45.87" y="36">n</tspan><tspan x="51.38" y="36">t </tspan></text>
  <rect class="cls-1" x="-28.6" y="-9.92" width="64" height="64"/>
  <path class="cls-2" d="M30.93,34.63h9.23v-9.23h-3.46v5.77h-5.77v3.46ZM24,32.32c1.92,0,3.56-.67,4.91-2.02,1.35-1.35,2.02-2.98,2.02-4.91s-.67-3.56-2.02-4.91-2.98-2.02-4.91-2.02-3.56.67-4.91,2.02c-1.35,1.35-2.02,2.98-2.02,4.91s.67,3.56,2.02,4.91,2.98,2.02,4.91,2.02ZM7.84,25.39h3.46v-5.77h5.77v-3.46H7.84v9.23ZM.92,41.55V9.23h46.17v32.32H.92ZM5.53,36.93h36.94V13.85H5.53v23.08ZM5.53,36.93V13.85v23.08Z"/>
</svg>