<?xml version="1.0" encoding="UTF-8"?>
<svg id="Layer_1" data-name="Layer 1" xmlns="http://www.w3.org/2000/svg" viewBox="0 0 48 48">
  <defs>
    <style>
      .cls-1 {
        fill: #4170ff;
      }
    </style>
  </defs>
  <path class="cls-1" d="M7.09,40.91h33.82v-22.16l-11.65-11.65H7.09v33.82ZM7.09,45.74c-1.33,0-2.47-.47-3.41-1.42-.95-.95-1.42-2.08-1.42-3.41V7.09c0-1.33.47-2.47,1.42-3.41.95-.95,2.08-1.42,3.41-1.42h24.15l14.49,14.49v24.15c0,1.33-.47,2.47-1.42,3.41-.95.95-2.08,1.42-3.41,1.42H7.09ZM11.92,36.08h24.15v-4.83H11.92v4.83ZM11.92,26.42h24.15v-4.83H11.92v4.83ZM11.92,16.75h16.91v-4.83H11.92v4.83ZM7.09,40.91V7.09v33.82Z"/>
</svg>