<?xml version="1.0" encoding="UTF-8"?>
<svg id="Layer_1" data-name="Layer 1" xmlns="http://www.w3.org/2000/svg" viewBox="0 0 48 48">
  <defs>
    <style>
      .cls-1 {
        fill: #4170ff;
      }
    </style>
  </defs>
  <path class="cls-1" d="M39.35,38.32h-22.51c-1.13,0-2.09-.4-2.89-1.2-.8-.8-1.2-1.76-1.2-2.89V5.58c0-1.13.4-2.09,1.2-2.89.8-.8,1.76-1.2,2.89-1.2h14.32l12.28,12.28v20.46c0,1.13-.4,2.09-1.2,2.89s-1.76,1.2-2.89,1.2ZM29.12,15.81V5.58h-12.28v28.65h22.51V15.81h-10.23ZM8.65,46.51c-1.13,0-2.09-.4-2.89-1.2-.8-.8-1.2-1.76-1.2-2.89V13.77h4.09v28.65h22.51v4.09H8.65ZM16.84,5.58v10.23V5.58v28.65V5.58Z"/>
</svg>