<?xml version="1.0" encoding="UTF-8"?>
<svg id="Layer_1" data-name="Layer 1" xmlns="http://www.w3.org/2000/svg" viewBox="0 0 48 48">
  <defs>
    <style>
      .cls-1 {
        fill: #4170ff;
      }
    </style>
  </defs>
  <path class="cls-1" d="M.56,35.72v-3.08c0-1.4.72-2.54,2.15-3.42,1.43-.88,3.32-1.32,5.67-1.32.42,0,.83,0,1.22.02s.77.06,1.12.12c-.46.68-.8,1.4-1.03,2.15-.23.75-.34,1.53-.34,2.34v3.17H.56ZM12.28,35.72v-3.17c0-1.04.28-1.99.85-2.86.57-.86,1.38-1.62,2.42-2.27s2.29-1.14,3.74-1.47c1.45-.33,3.02-.49,4.71-.49s3.31.16,4.76.49c1.45.33,2.69.81,3.74,1.47s1.84,1.41,2.39,2.27.83,1.82.83,2.86v3.17H12.28ZM38.65,35.72v-3.17c0-.85-.11-1.64-.32-2.39s-.53-1.45-.95-2.1c.36-.07.72-.11,1.1-.12s.76-.02,1.15-.02c2.34,0,4.23.43,5.67,1.29s2.15,2.01,2.15,3.44v3.08h-8.79ZM16.43,31.81h15.19c-.33-.65-1.23-1.22-2.71-1.71-1.48-.49-3.12-.73-4.91-.73s-3.43.24-4.91.73c-1.48.49-2.37,1.06-2.66,1.71ZM8.37,25.95c-1.07,0-1.99-.38-2.76-1.15s-1.15-1.68-1.15-2.76.38-2.03,1.15-2.78,1.68-1.12,2.76-1.12,2.03.37,2.78,1.12,1.12,1.68,1.12,2.78-.37,1.99-1.12,2.76c-.75.77-1.68,1.15-2.78,1.15ZM39.63,25.95c-1.07,0-1.99-.38-2.76-1.15s-1.15-1.68-1.15-2.76.38-2.03,1.15-2.78,1.68-1.12,2.76-1.12,2.03.37,2.78,1.12,1.12,1.68,1.12,2.78-.37,1.99-1.12,2.76c-.75.77-1.68,1.15-2.78,1.15ZM24,24c-1.63,0-3.01-.57-4.15-1.71-1.14-1.14-1.71-2.52-1.71-4.15s.57-3.05,1.71-4.18,2.52-1.68,4.15-1.68,3.05.56,4.18,1.68c1.12,1.12,1.68,2.52,1.68,4.18s-.56,3.01-1.68,4.15c-1.12,1.14-2.52,1.71-4.18,1.71ZM24,20.09c.55,0,1.02-.19,1.39-.56.37-.37.56-.84.56-1.39s-.19-1.02-.56-1.39c-.37-.37-.84-.56-1.39-.56s-1.02.19-1.39.56-.56.84-.56,1.39.19,1.02.56,1.39.84.56,1.39.56Z"/>
</svg>