<?xml version="1.0" encoding="UTF-8"?>
<svg id="Layer_1" data-name="Layer 1" xmlns="http://www.w3.org/2000/svg" viewBox="0 0 48 48">
  <defs>
    <style>
      .cls-1 {
        fill: #4170ff;
      }
    </style>
  </defs>
  <path class="cls-1" d="M35.01,19.49l9.11-5.24-9.11-5.24-9.11,5.24,9.11,5.24ZM35.01,26.44l6.26-3.64v-4.78l-6.26,3.64-6.26-3.64v4.78l6.26,3.64ZM1.23,42.22v-6.83c1.9,0,3.51.66,4.84,1.99,1.33,1.33,1.99,2.94,1.99,4.84H1.23ZM12.61,42.22c0-3.15-1.11-5.83-3.33-8.05-2.22-2.22-4.91-3.33-8.05-3.33v-4.55c4.44,0,8.21,1.55,11.3,4.64,3.09,3.09,4.64,6.86,4.64,11.3h-4.55ZM21.72,42.22c0-2.85-.54-5.51-1.62-8-1.08-2.49-2.54-4.65-4.38-6.49s-4-3.3-6.49-4.38c-2.49-1.08-5.15-1.62-8-1.62v-4.55c3.45,0,6.7.65,9.73,1.96,3.04,1.31,5.69,3.1,7.97,5.38,2.28,2.28,4.07,4.93,5.38,7.97s1.96,6.28,1.96,9.73h-4.55ZM30.83,42.22c0-4.1-.78-7.94-2.33-11.53s-3.67-6.72-6.35-9.39c-2.68-2.68-5.81-4.79-9.39-6.35-3.59-1.56-7.43-2.33-11.53-2.33v-2.28c0-1.25.45-2.32,1.34-3.22s1.96-1.34,3.22-1.34h36.43c1.25,0,2.32.45,3.22,1.34s1.34,1.96,1.34,3.22v27.32c0,1.25-.45,2.32-1.34,3.22s-1.96,1.34-3.22,1.34h-11.39Z"/>
</svg>