<?xml version="1.0" encoding="UTF-8"?>
<svg id="Layer_1" data-name="Layer 1" xmlns="http://www.w3.org/2000/svg" viewBox="0 0 48 48">
  <defs>
    <style>
      .cls-1 {
        fill: #4170ff;
        stroke-width: 0px;
      }
    </style>
  </defs>
  <path class="cls-1" d="M16.99,41.73c-3.78-1.75-6.85-4.38-9.22-7.91-2.36-3.53-3.55-7.51-3.55-11.95,0-.95.05-1.87.14-2.78.09-.91.25-1.8.46-2.67l-2.51,1.47L.14,14.13l10.42-6,6,10.36-3.82,2.18-2.95-5.13c-.4.98-.7,2-.9,3.05s-.3,2.15-.3,3.27c0,3.53.96,6.74,2.89,9.63s4.49,5.03,7.69,6.41l-2.18,3.82ZM33.68,15.27v-4.36h5.95c-1.67-2.07-3.69-3.68-6.05-4.83-2.36-1.15-4.87-1.72-7.53-1.72-2,0-3.89.31-5.67.93-1.78.62-3.42,1.49-4.91,2.62l-2.18-3.82c1.82-1.27,3.8-2.27,5.95-3C21.37.36,23.65,0,26.05,0,28.92,0,31.66.54,34.28,1.61c2.62,1.07,4.96,2.63,7.04,4.66v-3h4.36v12h-12ZM32.26,48l-10.42-6,6-10.36,3.76,2.18-3.11,5.35c4.29-.62,7.86-2.56,10.72-5.84,2.85-3.27,4.28-7.11,4.28-11.51,0-.4,0-.77-.03-1.12s-.06-.7-.14-1.06h4.42c.04.36.06.72.08,1.06s.03.72.03,1.12c0,4.91-1.46,9.3-4.39,13.17s-6.74,6.48-11.43,7.83l2.4,1.42-2.18,3.76Z"/>
</svg>