<?xml version="1.0" encoding="UTF-8"?>
<svg id="Layer_1" data-name="Layer 1" xmlns="http://www.w3.org/2000/svg" viewBox="0 0 48 48">
  <defs>
    <style>
      .cls-1 {
        fill: #4170ff;
        stroke-width: 0px;
      }
    </style>
  </defs>
  <path class="cls-1" d="M1.33,44.9v-5.61h7.65c-2.39-2.06-4.26-4.54-5.61-7.44-1.36-2.9-2.03-6.03-2.03-9.4,0-5.24,1.59-9.86,4.77-13.85,3.18-4,7.2-6.63,12.07-7.89v5.89c-3.27,1.17-5.96,3.19-8.07,6.07-2.1,2.88-3.16,6.14-3.16,9.79,0,2.53.5,4.85,1.51,6.98,1.01,2.13,2.37,3.96,4.1,5.51v-6.87h5.61v16.84H1.33ZM40.62,22.45c0-2.39-.48-4.62-1.44-6.7-.96-2.08-2.35-4.01-4.17-5.79v6.87h-5.61V0h16.84v5.61h-7.65c2.76,2.48,4.71,5.13,5.86,7.96,1.15,2.83,1.74,5.79,1.79,8.87h-5.61Z"/>
  <path class="cls-1" d="M45.93,29.9c-.49-.49-1.08-.74-1.77-.74h-3.77v-2.51c0-.69-.25-1.28-.74-1.77-.49-.49-1.08-.74-1.77-.74h-7.53c-.69,0-1.28.25-1.77.74-.49.49-.74,1.08-.74,1.77v2.51h-3.77c-.69,0-1.28.25-1.77.74-.49.49-.74,1.08-.74,1.77v13.81c0,.69.25,1.28.74,1.77s1.08.74,1.77.74h20.09c.69,0,1.28-.25,1.77-.74s.74-1.08.74-1.77v-13.81c0-.69-.25-1.28-.74-1.77ZM36.85,27.69v1.48h-5.47v-1.48"/>
</svg>