<?xml version="1.0" encoding="UTF-8"?>
<svg id="Layer_1" data-name="Layer 1" xmlns="http://www.w3.org/2000/svg" viewBox="0 0 48 48">
  <defs>
    <style>
      .cls-1 {
        fill: #4170ff;
        stroke-width: 0px;
      }
    </style>
  </defs>
  <path class="cls-1" d="M.95,17.01V3.73h4.43v5.2c1.88-2.36,4.18-4.19,6.89-5.48s5.58-1.94,8.61-1.94c5.53,0,10.24,1.94,14.11,5.81,3.87,3.87,5.81,8.58,5.81,14.11h-4.43c0-4.32-1.5-7.98-4.51-10.99-3.01-3.01-6.67-4.51-10.99-4.51-2.55,0-4.93.59-7.14,1.77-2.21,1.18-4.08,2.8-5.59,4.87h6.09v4.43H.95ZM1.06,23.65h4.54c.44,3.43,1.85,6.34,4.23,8.72,2.38,2.38,5.23,3.83,8.55,4.34l2.66,4.65c-5.09,0-9.56-1.69-13.39-5.06-3.84-3.38-6.03-7.59-6.59-12.65ZM23.86,27.52l-5.2-5.2v-11.95h4.43v10.18l3.1,3.1-2.32,3.87ZM34.1,48l-.66-3.32c-.44-.18-.86-.38-1.25-.58s-.78-.45-1.19-.75l-3.21,1-2.21-3.76,2.55-2.21c-.07-.48-.11-.96-.11-1.44s.04-.96.11-1.44l-2.55-2.21,2.21-3.76,3.21,1c.41-.3.8-.54,1.19-.75s.8-.4,1.25-.58l.66-3.32h4.43l.66,3.32c.44.18.87.4,1.27.64s.79.51,1.16.8l3.21-1.11,2.21,3.87-2.55,2.21c.07.48.11.94.11,1.38s-.04.9-.11,1.38l2.55,2.21-2.21,3.76-3.21-1c-.41.3-.8.54-1.19.75s-.8.4-1.25.58l-.66,3.32h-4.43ZM36.31,41.36c1.22,0,2.26-.43,3.13-1.3.87-.87,1.3-1.91,1.3-3.13s-.43-2.26-1.3-3.13c-.87-.87-1.91-1.3-3.13-1.3s-2.26.43-3.13,1.3c-.87.87-1.3,1.91-1.3,3.13s.43,2.26,1.3,3.13c.87.87,1.91,1.3,3.13,1.3Z"/>
</svg>