<?xml version="1.0" encoding="UTF-8"?>
<svg id="Layer_1" data-name="Layer 1" xmlns="http://www.w3.org/2000/svg" viewBox="0 0 48 48">
  <defs>
    <style>
      .cls-1 {
        fill: #4170ff;
      }
    </style>
  </defs>
  <path class="cls-1" d="M5.55,35.48v-3.81h5.24l-.76-.67c-1.65-1.46-2.81-3.13-3.48-5-.67-1.87-1-3.76-1-5.67,0-3.52,1.06-6.66,3.17-9.4,2.11-2.75,4.86-4.56,8.26-5.45v4c-2.29.83-4.13,2.23-5.52,4.21-1.4,1.98-2.1,4.2-2.1,6.64,0,1.43.27,2.82.81,4.17.54,1.35,1.38,2.6,2.52,3.74l.48.48v-4.67h3.81v11.43H5.55ZM39.69,18.33h-3.86c-.16-1.11-.5-2.17-1.02-3.19-.52-1.02-1.23-1.98-2.12-2.9l-.48-.48v4.67h-3.81V5h11.43v3.81h-5.24l.76.67c1.3,1.33,2.3,2.75,3,4.24.7,1.49,1.14,3.03,1.33,4.62ZM29.19,43l-.68-3.4c-.45-.19-.88-.39-1.28-.6s-.8-.46-1.22-.77l-3.29,1.02-2.27-3.85,2.61-2.27c-.08-.53-.11-1.02-.11-1.47s.04-.94.11-1.47l-2.61-2.27,2.27-3.85,3.29,1.02c.42-.3.82-.56,1.22-.77s.82-.41,1.28-.6l.68-3.4h4.53l.68,3.4c.45.19.88.4,1.28.62s.8.51,1.22.85l3.29-1.13,2.27,3.97-2.61,2.27c.08.45.11.93.11,1.42s-.04.96-.11,1.42l2.61,2.27-2.27,3.85-3.29-1.02c-.42.3-.82.56-1.22.77s-.82.41-1.28.6l-.68,3.4h-4.53ZM31.46,36.2c1.25,0,2.31-.44,3.2-1.33.89-.89,1.33-1.96,1.33-3.2s-.44-2.31-1.33-3.2c-.89-.89-1.96-1.33-3.2-1.33s-2.31.44-3.2,1.33c-.89.89-1.33,1.96-1.33,3.2s.44,2.31,1.33,3.2c.89.89,1.96,1.33,3.2,1.33Z"/>
</svg>