<?xml version="1.0" encoding="UTF-8"?>
<svg id="Layer_1" data-name="Layer 1" xmlns="http://www.w3.org/2000/svg" viewBox="0 0 48 48">
  <defs>
    <style>
      .cls-1 {
        fill: #4170ff;
      }
    </style>
  </defs>
  <path class="cls-1" d="M29.55,38.32l4.85-4.85v3.99h1.73v-6.93h-6.93v1.73h3.99l-4.85,4.85,1.21,1.21ZM32.67,42.66c-2.4,0-4.44-.85-6.13-2.54-1.69-1.69-2.54-3.73-2.54-6.13s.85-4.44,2.54-6.13,3.73-2.54,6.13-2.54,4.44.85,6.13,2.54,2.54,3.73,2.54,6.13-.85,4.44-2.54,6.13c-1.69,1.69-3.73,2.54-6.13,2.54ZM13.6,18.39h17.34v-3.47H13.6v3.47ZM21.7,39.19h-11.57c-.95,0-1.77-.34-2.45-1.02-.68-.68-1.02-1.5-1.02-2.45V11.45c0-.95.34-1.77,1.02-2.45.68-.68,1.5-1.02,2.45-1.02h24.27c.95,0,1.77.34,2.45,1.02s1.02,1.5,1.02,2.45v11.62c-.84-.4-1.68-.71-2.54-.91-.85-.2-1.74-.3-2.67-.3-.32,0-.61,0-.89.02s-.56.05-.85.11v-.13H13.6v3.47h10.62c-.52.49-.99,1.03-1.41,1.6-.42.58-.79,1.2-1.11,1.86h-8.11v3.47h7.06c-.06.29-.09.57-.11.85-.01.27-.02.57-.02.89,0,.95.09,1.84.26,2.67s.48,1.67.91,2.54Z"/>
</svg>