<?xml version="1.0" encoding="UTF-8"?>
<svg id="Layer_1" data-name="Layer 1" xmlns="http://www.w3.org/2000/svg" viewBox="0 0 48 48">
  <defs>
    <style>
      .cls-1 {
        fill: #4170ff;
      }
    </style>
  </defs>
  <path class="cls-1" d="M24,20.1l-6.83-6.83,6.83-6.83,6.83,6.83-6.83,6.83ZM2.54,41.56v-7.8c0-1.11.38-2.03,1.15-2.78.76-.75,1.68-1.12,2.76-1.12h6.39c.65,0,1.27.16,1.85.49s1.06.76,1.41,1.32c.94,1.27,2.11,2.26,3.49,2.97s2.85,1.07,4.41,1.07,3.08-.36,4.46-1.07,2.53-1.71,3.44-2.97c.42-.55.92-.99,1.49-1.32s1.16-.49,1.78-.49h6.39c1.11,0,2.03.37,2.78,1.12.75.75,1.12,1.67,1.12,2.78v7.8h-13.66v-4.44c-1.14.81-2.37,1.43-3.68,1.85s-2.69.63-4.12.63-2.76-.22-4.1-.66-2.57-1.06-3.71-1.88v4.49H2.54ZM8.39,27.9c-1.63,0-3.01-.57-4.15-1.71-1.14-1.14-1.71-2.52-1.71-4.15s.57-3.05,1.71-4.17c1.14-1.12,2.52-1.68,4.15-1.68s3.05.56,4.17,1.68c1.12,1.12,1.68,2.51,1.68,4.17s-.56,3.01-1.68,4.15-2.51,1.71-4.17,1.71ZM39.61,27.9c-1.63,0-3.01-.57-4.15-1.71-1.14-1.14-1.71-2.52-1.71-4.15s.57-3.05,1.71-4.17c1.14-1.12,2.52-1.68,4.15-1.68s3.05.56,4.17,1.68,1.68,2.51,1.68,4.17-.56,3.01-1.68,4.15c-1.12,1.14-2.51,1.71-4.17,1.71Z"/>
</svg>