<?xml version="1.0" encoding="UTF-8"?>
<svg id="Layer_1" data-name="Layer 1" xmlns="http://www.w3.org/2000/svg" viewBox="0 0 48 48">
  <defs>
    <style>
      .cls-1 {
        fill: #4170ff;
      }
    </style>
  </defs>
  <path class="cls-1" d="M42.19,20.35l-4.94-1.18c-.16-.39-.31-.78-.55-1.25l2.67-4.23c.16-.31.16-.71-.08-.94l-4.08-4.08c-.24-.31-.63-.31-.94-.16l-4.31,2.67c-.39-.16-.78-.39-1.25-.47l-1.18-4.86c-.08-.39-.39-.63-.78-.63h-5.72c-.39,0-.71.24-.78.63l-1.1,4.86c-.39.16-.78.31-1.25.55l-4.23-2.67c-.31-.24-.71-.16-.94.08l-4.08,4.08c-.24.31-.31.71-.16,1.02l2.67,4.31c-.16.39-.31.78-.47,1.25l-4.86,1.18c-.39,0-.63.39-.63.71v5.72c0,.39.24.71.63.78l4.86,1.18c.16.39.31.78.55,1.25l-2.59,4.23c-.24.31-.16.71.08.94l4.08,4.08c.24.24.63.31.94.08l4.31-2.67c.39.16.78.31,1.25.47l1.18,4.86c.08.39.39.63.78.63h5.72c.39,0,.71-.24.78-.63l1.18-4.94c.39-.16.86-.31,1.25-.55l4.23,2.67c.31.16.71.16.94-.16l4.08-4.08c.24-.24.31-.63.08-.94l-2.67-4.31c.24-.39.39-.86.47-1.25l4.86-1.18c.31-.08.63-.39.63-.78v-5.73c0-.16-.24-.47-.63-.55ZM33.83,26.66c-1.03,0-1.93-.6-2.35-1.52h-.83v4.43c0,.64-.46,1.1-1.1,1.1h-4.43v.18c.89.42,1.52,1.35,1.52,2.35,0,1.44-1.17,2.62-2.62,2.62s-2.62-1.2-2.62-2.62c0-1.03.6-1.93,1.52-2.35v-.17h-4.43c-.64,0-1.1-.46-1.1-1.1v-4.43h-.77c-.42.89-1.36,1.52-2.35,1.52-1.42,0-2.62-1.2-2.62-2.62s1.2-2.62,2.62-2.62c1.03,0,1.93.6,2.35,1.52h.77v-4.43c0-.64.46-1.1,1.1-1.1h4.43v-.18c-.89-.42-1.52-1.35-1.52-2.35,0-1.42,1.2-2.62,2.62-2.62s2.62,1.17,2.62,2.62c0,1.03-.6,1.93-1.52,2.35v.17h4.43c.64,0,1.1.46,1.1,1.1v4.43h.84c.42-.89,1.35-1.52,2.35-1.52,1.42,0,2.62,1.2,2.62,2.62s-1.2,2.62-2.62,2.62Z"/>
</svg>