<?xml version="1.0" encoding="UTF-8"?>
<svg id="Layer_1" data-name="Layer 1" xmlns="http://www.w3.org/2000/svg" viewBox="0 0 48 48">
  <defs>
    <style>
      .cls-1 {
        fill: #4170ff;
      }
    </style>
  </defs>
  <path class="cls-1" d="M18.22,42.86c-2.26,0-4.19-.8-5.8-2.41-1.61-1.61-2.41-3.54-2.41-5.8v-16.78c-1.2-.44-2.18-1.19-2.95-2.23-.77-1.04-1.15-2.23-1.15-3.57,0-1.71.6-3.17,1.8-4.36,1.2-1.2,2.65-1.8,4.36-1.8s3.17.6,4.36,1.8,1.8,2.65,1.8,4.36c0,1.33-.38,2.52-1.15,3.57-.77,1.04-1.75,1.79-2.95,2.23v16.78c0,1.13.4,2.1,1.21,2.9.8.8,1.77,1.21,2.9,1.21s2.1-.4,2.9-1.21,1.21-1.77,1.21-2.9V14.11c0-2.26.8-4.19,2.41-5.8,1.61-1.61,3.54-2.41,5.8-2.41s4.19.8,5.8,2.41,2.41,3.54,2.41,5.8v16.78c1.2.44,2.18,1.19,2.95,2.23s1.15,2.23,1.15,3.57c0,1.71-.6,3.17-1.8,4.36-1.2,1.2-2.65,1.8-4.36,1.8s-3.17-.6-4.36-1.8c-1.2-1.2-1.8-2.65-1.8-4.36,0-1.33.38-2.53,1.15-3.59s1.75-1.8,2.95-2.21V14.11c0-1.13-.4-2.1-1.21-2.9-.8-.8-1.77-1.21-2.9-1.21s-2.1.4-2.9,1.21c-.8.8-1.21,1.77-1.21,2.9v20.53c0,2.26-.8,4.19-2.41,5.8-1.61,1.61-3.54,2.41-5.8,2.41ZM12.06,14.11c.58,0,1.07-.2,1.46-.59.39-.39.59-.88.59-1.46s-.2-1.07-.59-1.46-.88-.59-1.46-.59-1.07.2-1.46.59-.59.88-.59,1.46.2,1.07.59,1.46.88.59,1.46.59ZM36.7,38.75c.58,0,1.07-.2,1.46-.59s.59-.88.59-1.46-.2-1.07-.59-1.46-.88-.59-1.46-.59-1.07.2-1.46.59c-.39.39-.59.88-.59,1.46s.2,1.07.59,1.46.88.59,1.46.59Z"/>
</svg>