<?xml version="1.0" encoding="UTF-8"?>
<svg id="Layer_1" data-name="Layer 1" xmlns="http://www.w3.org/2000/svg" viewBox="0 0 48 48">
  <defs>
    <style>
      .cls-1 {
        fill: #4170ff;
      }
    </style>
  </defs>
  <path class="cls-1" d="M32.89,39.99c-.5,0-.93-.17-1.27-.51-.34-.34-.51-.76-.51-1.27v-14.13c0-.5.17-.93.51-1.27.34-.34.76-.51,1.27-.51h7.11c.5,0,.93.17,1.27.51.34.34.51.76.51,1.27v14.13c0,.5-.17.93-.51,1.27-.34.34-.76.51-1.27.51h-7.11ZM32.89,36.44h7.11v-10.57h-7.11v10.57ZM16.89,39.99v-3.55h3.55v-3.55h-10.66c-.98,0-1.81-.35-2.51-1.04s-1.04-1.53-1.04-2.51V11.56c0-.98.35-1.81,1.04-2.51s1.53-1.04,2.51-1.04h24.88c.98,0,1.81.35,2.51,1.04s1.04,1.53,1.04,2.51v7.2h-3.55v-7.2H9.78v17.77h17.77v3.55h-3.55v3.55h3.55v3.55h-10.66Z"/>
</svg>