<?xml version="1.0" encoding="UTF-8"?>
<svg id="Layer_1" data-name="Layer 1" xmlns="http://www.w3.org/2000/svg" viewBox="0 0 48 48">
  <defs>
    <style>
      .cls-1 {
        fill: #4170ff;
      }
    </style>
  </defs>
  <path class="cls-1" d="M16.27,35.59h15.45v-3.86h-15.45v3.86ZM16.27,27.86h15.45v-3.86h-15.45v3.86ZM12.41,43.32c-1.06,0-1.97-.38-2.73-1.13s-1.13-1.67-1.13-2.73V8.55c0-1.06.38-1.97,1.13-2.73s1.67-1.13,2.73-1.13h15.45l11.59,11.59v23.18c0,1.06-.38,1.97-1.13,2.73s-1.67,1.13-2.73,1.13H12.41ZM25.93,18.2v-9.66h-13.52v30.91h23.18v-21.25h-9.66ZM12.41,8.55v9.66-9.66,30.91V8.55Z"/>
</svg>