<?xml version="1.0" encoding="UTF-8"?>
<svg id="Layer_1" data-name="Layer 1" xmlns="http://www.w3.org/2000/svg" viewBox="0 0 48 48">
  <defs>
    <style>
      .cls-1 {
        fill: #4170ff;
      }
    </style>
  </defs>
  <path class="cls-1" d="M27.82,43.81c-.79,0-1.45-.28-2-.83-.55-.55-.83-1.22-.83-2v-13.21c0-.79.28-1.45.83-2s1.22-.83,2-.83h13.21c.79,0,1.45.28,2,.83s.83,1.22.83,2v13.21c0,.79-.28,1.45-.83,2-.55.55-1.22.83-2,.83h-13.21ZM27.82,40.98h13.21v-1.51c-.79-.97-1.74-1.75-2.88-2.33s-2.37-.87-3.73-.87-2.59.29-3.73.87-2.09,1.36-2.88,2.33v1.51ZM34.42,34.38c.79,0,1.45-.28,2-.83.55-.55.83-1.22.83-2s-.28-1.45-.83-2-1.22-.83-2-.83-1.45.28-2,.83-.83,1.22-.83,2,.28,1.45.83,2c.55.55,1.22.83,2,.83ZM23.2,16.45c-1.82,0-3.38.64-4.67,1.93-1.29,1.29-1.93,2.85-1.93,4.67,0,1.51.42,2.83,1.27,3.96s1.97,1.92,3.35,2.36v-4.24c-.25-.25-.46-.57-.61-.97s-.24-.76-.24-1.11c0-.79.28-1.45.83-2,.55-.55,1.22-.83,2-.83.44,0,.83.09,1.18.26.35.17.64.4.9.68h4.24c-.41-1.38-1.19-2.52-2.33-3.4s-2.48-1.32-3.99-1.32ZM17.92,41.92l-.75-6.04c-.41-.16-.79-.35-1.16-.57s-.72-.46-1.06-.71l-5.61,2.36-5.19-8.96,4.86-3.68c-.03-.22-.05-.43-.05-.64v-1.27c0-.2.02-.42.05-.64l-4.86-3.68,5.19-8.96,5.61,2.36c.35-.25.71-.49,1.08-.71s.75-.41,1.13-.57l.75-6.04h10.38l.75,6.04c.41.16.79.35,1.16.57s.72.46,1.06.71l5.61-2.36,5.19,8.96-4.01,3.07h-4.76c-.03-.16-.06-.32-.09-.5s-.08-.34-.14-.5l4.06-3.07-1.84-3.21-4.67,1.98c-.69-.72-1.45-1.33-2.29-1.82s-1.74-.86-2.71-1.11l-.61-5h-3.73l-.66,5c-.97.25-1.88.62-2.71,1.11s-1.6,1.08-2.29,1.77l-4.67-1.93-1.84,3.21,4.06,3.02c-.16.47-.27.94-.33,1.41s-.09.97-.09,1.51c0,.5.03.99.09,1.46s.17.94.33,1.41l-4.06,3.07,1.84,3.21,4.67-1.98c.75.79,1.6,1.45,2.55,1.98s1.97.88,3.07,1.04v8.68h-3.3Z"/>
</svg>