<?xml version="1.0" encoding="UTF-8"?>
<svg id="Layer_1" data-name="Layer 1" xmlns="http://www.w3.org/2000/svg" viewBox="0 0 48 48">
  <defs>
    <style>
      .cls-1 {
        fill: #4170ff;
      }
    </style>
  </defs>
  <path class="cls-1" d="M7.09,18.32v-9.75h3.25v3.82c1.38-1.73,3.07-3.07,5.06-4.02,1.99-.95,4.09-1.42,6.31-1.42,4.06,0,7.51,1.42,10.35,4.26,2.84,2.84,4.26,6.29,4.26,10.35h-3.25c0-3.17-1.1-5.85-3.31-8.06s-4.89-3.31-8.06-3.31c-1.87,0-3.61.43-5.24,1.3-1.62.87-2.99,2.06-4.1,3.57h4.47v3.25H7.09ZM7.17,23.19h3.33c.32,2.52,1.36,4.65,3.11,6.4s3.84,2.81,6.27,3.19l1.95,3.41c-3.74,0-7.01-1.24-9.83-3.72-2.82-2.48-4.43-5.57-4.83-9.28ZM23.9,26.03l-3.82-3.82v-8.77h3.25v7.47l2.27,2.27-1.71,2.84ZM31.41,41.05l-.49-2.44c-.32-.14-.63-.28-.91-.43s-.58-.33-.87-.55l-2.36.73-1.62-2.76,1.87-1.62c-.05-.35-.08-.7-.08-1.06s.03-.7.08-1.06l-1.87-1.62,1.62-2.76,2.36.73c.3-.22.59-.4.87-.55s.59-.29.91-.43l.49-2.44h3.25l.49,2.44c.32.14.64.29.93.47s.58.37.85.59l2.36-.81,1.62,2.84-1.87,1.62c.05.35.08.69.08,1.02s-.03.66-.08,1.02l1.87,1.62-1.62,2.76-2.36-.73c-.3.22-.59.4-.87.55s-.59.29-.91.43l-.49,2.44h-3.25ZM33.03,36.18c.89,0,1.66-.32,2.29-.95.64-.64.95-1.4.95-2.29s-.32-1.66-.95-2.29c-.64-.64-1.4-.95-2.29-.95s-1.66.32-2.29.95c-.64.64-.95,1.4-.95,2.29s.32,1.66.95,2.29c.64.64,1.4.95,2.29.95Z"/>
</svg>