<?xml version="1.0" encoding="UTF-8"?>
<svg id="Layer_1" data-name="Layer 1" xmlns="http://www.w3.org/2000/svg" viewBox="0 0 48 48">
  <defs>
    <style>
      .cls-1 {
        fill: #fff;
        stroke-width: 0px;
      }
    </style>
  </defs>
  <path class="cls-1" d="M5.18,40.73c-1.15,0-2.14-.41-2.95-1.23-.82-.82-1.23-1.8-1.23-2.95V13.54h4.18v23.01h35.56v4.18H5.18ZM13.54,32.37c-1.15,0-2.14-.41-2.95-1.23-.82-.82-1.23-1.8-1.23-2.95V11.45c0-1.15.41-2.14,1.23-2.95.82-.82,1.8-1.23,2.95-1.23h29.28c1.15,0,2.14.41,2.95,1.23s1.23,1.8,1.23,2.95v16.73c0,1.15-.41,2.14-1.23,2.95s-1.8,1.23-2.95,1.23H13.54ZM17.73,28.18c0-1.15-.41-2.14-1.23-2.95-.82-.82-1.8-1.23-2.95-1.23v4.18h4.18ZM38.64,28.18h4.18v-4.18c-1.15,0-2.14.41-2.95,1.23s-1.23,1.8-1.23,2.95ZM28.18,26.09c1.74,0,3.22-.61,4.44-1.83,1.22-1.22,1.83-2.7,1.83-4.44s-.61-3.22-1.83-4.44-2.7-1.83-4.44-1.83-3.22.61-4.44,1.83c-1.22,1.22-1.83,2.7-1.83,4.44s.61,3.22,1.83,4.44c1.22,1.22,2.7,1.83,4.44,1.83ZM13.54,15.63c1.15,0,2.14-.41,2.95-1.23s1.23-1.8,1.23-2.95h-4.18v4.18ZM42.82,15.63v-4.18h-4.18c0,1.15.41,2.14,1.23,2.95s1.8,1.23,2.95,1.23Z"/>
</svg>