<?xml version="1.0" encoding="UTF-8"?>
<svg id="Layer_1" data-name="Layer 1" xmlns="http://www.w3.org/2000/svg" viewBox="0 0 48 48">
  <defs>
    <style>
      .cls-1 {
        fill: #fff;
        stroke-width: 0px;
      }
    </style>
  </defs>
  <path class="cls-1" d="M31.27,46.12c-3.75,1.38-7.62,1.68-11.62.89-4-.79-7.5-2.69-10.51-5.7-.64-.64-1.24-1.3-1.8-1.98s-1.05-1.39-1.5-2.13l-.7,2.7-4.03-1.07,3-11.14,11.1,2.96-1.11,4.07-5.48-1.48c.39.94.88,1.83,1.46,2.68s1.25,1.66,2.02,2.42c2.39,2.39,5.22,3.92,8.49,4.57,3.27.65,6.46.36,9.57-.87l1.11,4.07ZM24.65,16.85l-2.96-2.96,4.03-4.03c-2.54-.27-5,0-7.38.83-2.38.83-4.47,2.14-6.27,3.94-1.36,1.36-2.43,2.85-3.22,4.48-.79,1.63-1.31,3.33-1.55,5.11l-4.07-1.11c.37-2.1,1.04-4.12,2-6.07.96-1.95,2.26-3.74,3.89-5.37,1.95-1.95,4.18-3.45,6.68-4.5s5.15-1.59,7.94-1.61l-2.04-2.04,2.96-2.96,8.14,8.14-8.14,8.14ZM45.89,40.01l-11.14,3-2.96-11.1,4.03-1.07,1.52,5.74c2.49-3.33,3.6-7.08,3.31-11.23s-1.92-7.73-4.9-10.71c-.27-.27-.53-.52-.78-.74s-.52-.43-.81-.63l3-3c.27.22.53.44.78.67s.51.47.78.74c3.33,3.33,5.32,7.3,5.96,11.92.64,4.61-.17,8.97-2.44,13.06l2.59-.67,1.07,4.03Z"/>
</svg>