<?xml version="1.0" encoding="UTF-8"?>
<svg id="Layer_1" data-name="Layer 1" xmlns="http://www.w3.org/2000/svg" viewBox="0 0 48 48">
  <defs>
    <style>
      .cls-1 {
        fill-rule: evenodd;
      }

      .cls-1, .cls-2 {
        fill: #fff;
        stroke-width: 0px;
      }
    </style>
  </defs>
  <g>
    <path class="cls-1" d="M28.96,7.46c2.2.75,4.21,1.92,5.92,3.42.46.4,1.08.47,1.62.19l3.37-1.77c.68-.36,1.53-.12,1.92.55l3.04,5.26c.38.67.17,1.52-.48,1.94l-2.88,1.81h-2.62c-.68,0-1.29.37-1.61.97l-1.14,2.15h-1.79c-.42-2.26-1.52-4.29-3.08-5.86-2.01-2.01-4.8-3.26-7.87-3.26s-5.86,1.25-7.87,3.26-3.26,4.8-3.26,7.87,1.25,5.86,3.26,7.87c2.01,2.01,4.8,3.26,7.87,3.26s5.86-1.25,7.87-3.26c1.56-1.56,2.66-3.59,3.08-5.86h1.79l1.14,2.15c.32.6.93.97,1.61.97h2.62l2.88,1.81c.65.41.86,1.27.48,1.94l-3.04,5.26c-.38.67-1.23.92-1.92.55l-3.37-1.77c-.54-.28-1.16-.21-1.62.19-1.71,1.5-3.72,2.68-5.92,3.42-.57.19-.95.7-.97,1.31l-.15,3.8c-.03.77-.66,1.39-1.44,1.39h-6.08c-.77,0-1.41-.61-1.44-1.39l-.15-3.79c-.03-.61-.4-1.11-.97-1.31-2.2-.75-4.21-1.92-5.92-3.42-.46-.4-1.08-.47-1.62-.19l-3.37,1.77c-.68.36-1.53.12-1.92-.55l-3.04-5.26c-.38-.67-.17-1.52.48-1.94l3.21-2.03c.52-.33.76-.9.64-1.5-.22-1.11-.34-2.25-.34-3.42s.12-2.32.34-3.42c.12-.6-.13-1.17-.64-1.5l-3.21-2.03c-.65-.41-.86-1.27-.48-1.94l3.04-5.26c.38-.67,1.23-.92,1.92-.55l3.37,1.77c.54.28,1.16.21,1.62-.19,1.71-1.5,3.72-2.68,5.92-3.42.57-.19.95-.7.97-1.31l.15-3.79c.03-.77.66-1.39,1.44-1.39h6.08c.77,0,1.41.61,1.44,1.39l.15,3.8c.02.61.4,1.11.97,1.31h0Z"/>
    <rect class="cls-2" x="24.06" y="23.5" width="18.73" height="1"/>
    <path class="cls-2" d="M26.27,23.99c0,1.74-1.3,3.05-3.01,3.05-1.73,0-2.96-1.37-3.02-3.19-.04-1.32,1.43-2.89,2.86-2.89,1.94,0,3.31,1.32,3.17,3.03Z"/>
    <path class="cls-1" d="M27.87,25.65c-.65,1.95-2.41,3.3-4.61,3.29-2.8,0-4.81-2.22-4.91-5.18-.07-2.15,2.33-4.69,4.64-4.69,2.5,0,4.39,1.35,4.97,3.29h3.58c-.76-3.75-4.08-6.58-8.06-6.58-4.54,0-8.23,3.68-8.23,8.23s3.68,8.23,8.23,8.23c3.98,0,7.3-2.83,8.06-6.58h-3.67Z"/>
  </g>
  <path class="cls-1" d="M46.24,26.7l-1.27-2.78,1.27-2.4c.07-.13.07-.27,0-.4-.08-.12-.2-.19-.34-.19h-5.66c-.15,0-.28.08-.35.21l-1.23,2.32v1.29l1.23,2.32c.07.14.2.21.35.21h5.66c.15,0,.27-.07.34-.19s.08-.27,0-.4Z"/>
</svg>