<?xml version="1.0" encoding="UTF-8"?>
<svg id="Layer_1" data-name="Layer 1" xmlns="http://www.w3.org/2000/svg" viewBox="0 0 48 48">
  <defs>
    <style>
      .cls-1 {
        fill: #fff;
        stroke-width: 0px;
      }
    </style>
  </defs>
  <path class="cls-1" d="M21.65,47.2v-21.52L2.83,14.8v18.88c0,.86.21,1.65.62,2.35.41.71.99,1.27,1.73,1.71l16.47,9.47ZM26.35,47.2l16.47-9.47c.74-.43,1.32-1,1.73-1.71s.62-1.49.62-2.35V14.8l-18.82,10.88v21.52ZM35.7,14.86l6.94-4.06L26.35,1.45c-.74-.43-1.53-.65-2.35-.65s-1.61.22-2.35.65l-4.65,2.65,18.7,10.76ZM24,21.62l7-4L12.36,6.8l-7.06,4.06,18.7,10.76Z"/>
</svg>