<?xml version="1.0" encoding="UTF-8"?>
<svg id="Layer_1" data-name="Layer 1" xmlns="http://www.w3.org/2000/svg" viewBox="0 0 48 48">
  <defs>
    <style>
      .cls-1 {
        fill: #4170ff;
        stroke-width: 0px;
      }
    </style>
  </defs>
  <path class="cls-1" d="M20.58,22.65c-.9,0-1.65-.34-2.23-1.02s-.79-1.47-.63-2.37l.58-3.49c.26-1.39.91-2.53,1.96-3.41s2.27-1.33,3.65-1.33,2.65.44,3.7,1.33,1.7,2.02,1.96,3.41l.58,3.49c.16.9-.05,1.69-.63,2.37-.58.68-1.32,1.02-2.23,1.02h-6.73ZM6.68,24.54c-.74.03-1.38-.11-1.91-.44s-.88-.82-1.04-1.5c-.06-.29-.08-.58-.05-.87s.11-.56.24-.82c0,.03-.02-.03-.05-.19-.06-.06-.23-.45-.48-1.16-.06-.39-.02-.76.15-1.11s.37-.66.63-.92l.1-.1c.06-.61.31-1.13.75-1.55s.98-.63,1.62-.63c.1,0,.4.06.92.19l.15-.05c.16-.16.37-.28.63-.36s.53-.12.82-.12c.35,0,.67.06.94.17s.49.28.65.51c.03,0,.06,0,.07.02s.04.02.07.02c.45.03.85.17,1.19.41s.59.57.75.99c.06.23.09.44.07.65s-.06.41-.12.61c0,.03.02.1.05.19.23.23.4.48.53.75s.19.56.19.85c0,.13-.1.47-.29,1.02-.03.06-.03.13,0,.19l.1.77c0,.68-.28,1.26-.85,1.74-.56.48-1.25.73-2.06.73h-3.78ZM39.4,24.59c-1.06,0-1.98-.38-2.73-1.14s-1.14-1.67-1.14-2.73c0-.39.06-.75.17-1.09s.27-.67.46-.99l-1.36-1.21c-.32-.26-.38-.58-.17-.97s.51-.58.9-.58h3.87c1.06,0,1.98.38,2.73,1.14.76.76,1.14,1.67,1.14,2.73v.97c0,1.06-.38,1.98-1.14,2.73s-1.67,1.14-2.73,1.14ZM.68,34.27v-3.05c0-1.42.72-2.56,2.15-3.41,1.44-.86,3.3-1.28,5.59-1.28.42,0,.82,0,1.21.02s.76.06,1.11.12c-.45.65-.79,1.34-1.02,2.08s-.34,1.53-.34,2.37v3.15H.68ZM12.3,34.27v-3.15c0-2.1,1.07-3.79,3.22-5.08,2.15-1.29,4.95-1.94,8.4-1.94s6.29.65,8.42,1.94c2.13,1.29,3.19,2.98,3.19,5.08v3.15H12.3ZM39.4,26.52c2.32,0,4.2.43,5.61,1.28s2.13,1.99,2.13,3.41v3.05h-8.71v-3.15c0-.84-.1-1.63-.31-2.37s-.52-1.44-.94-2.08c.35-.06.72-.1,1.09-.12s.75-.02,1.14-.02Z"/>
</svg>