<?xml version="1.0" encoding="UTF-8"?>
<svg id="Layer_1" data-name="Layer 1" xmlns="http://www.w3.org/2000/svg" viewBox="0 0 48 48">
  <defs>
    <style>
      .cls-1 {
        fill: #4170ff;
        stroke-width: 0px;
      }
    </style>
  </defs>
  <path class="cls-1" d="M5.96,47.2c-.73,0-1.34-.25-1.84-.74-.49-.49-.74-1.11-.74-1.84v-2.58H.8v-10.31c0-.73.25-1.34.74-1.84.49-.49,1.11-.74,1.84-.74h2.58V11.11c0-2.84,1.01-5.26,3.03-7.28,2.02-2.02,4.45-3.03,7.28-3.03s5.26,1.01,7.28,3.03c2.02,2.02,3.03,4.45,3.03,7.28v25.78c0,1.42.5,2.63,1.51,3.64,1.01,1.01,2.22,1.51,3.64,1.51s2.63-.5,3.64-1.51c1.01-1.01,1.51-2.22,1.51-3.64v-18.04h-2.58c-.73,0-1.34-.25-1.84-.74s-.74-1.11-.74-1.84V5.96h2.58v-2.58c0-.73.25-1.34.74-1.84s1.11-.74,1.84-.74h5.16c.73,0,1.34.25,1.84.74s.74,1.11.74,1.84v2.58h2.58v10.31c0,.73-.25,1.34-.74,1.84-.49.49-1.11.74-1.84.74h-2.58v18.04c0,2.84-1.01,5.26-3.03,7.28-2.02,2.02-4.45,3.03-7.28,3.03s-5.26-1.01-7.28-3.03c-2.02-2.02-3.03-4.45-3.03-7.28V11.11c0-1.42-.5-2.63-1.51-3.64-1.01-1.01-2.22-1.51-3.64-1.51s-2.63.5-3.64,1.51c-1.01,1.01-1.51,2.22-1.51,3.64v18.04h2.58c.73,0,1.34.25,1.84.74s.74,1.11.74,1.84v10.31h-2.58v2.58c0,.73-.25,1.34-.74,1.84-.49.49-1.11.74-1.84.74h-5.16Z"/>
</svg>