<?xml version="1.0" encoding="UTF-8"?>
<svg id="Layer_1" data-name="Layer 1" xmlns="http://www.w3.org/2000/svg" viewBox="0 0 48 48">
  <defs>
    <style>
      .cls-1 {
        fill: #4170ff;
        stroke-width: 0px;
      }
    </style>
  </defs>
  <path class="cls-1" d="M30.29,42.29l4.57,4.57H10.28c-1.26,0-2.33-.45-3.23-1.34s-1.34-1.97-1.34-3.23V5.71c0-1.26.45-2.33,1.34-3.23.9-.9,1.97-1.34,3.23-1.34h20.57l11.43,13.72v27.43c0,.76-.16,1.46-.49,2.09s-.77,1.15-1.34,1.57l-11.89-11.77c-.65.42-1.35.73-2.11.94-.76.21-1.58.31-2.46.31-2.51,0-4.67-.9-6.46-2.69-1.79-1.79-2.69-3.94-2.69-6.46s.9-4.67,2.69-6.46c1.79-1.79,3.94-2.69,6.46-2.69s4.67.9,6.46,2.69,2.69,3.94,2.69,6.46c0,.88-.1,1.7-.31,2.46s-.52,1.47-.94,2.11l5.83,5.94v-20.35l-9.03-10.74H10.28v36.58h20ZM24,30.86c1.26,0,2.33-.45,3.23-1.34s1.34-1.97,1.34-3.23-.45-2.33-1.34-3.23c-.9-.9-1.97-1.34-3.23-1.34s-2.33.45-3.23,1.34c-.9.9-1.34,1.97-1.34,3.23s.45,2.33,1.34,3.23,1.97,1.34,3.23,1.34Z"/>
</svg>