<?xml version="1.0" encoding="UTF-8"?>
<svg id="Layer_1" data-name="Layer 1" xmlns="http://www.w3.org/2000/svg" viewBox="0 0 48 48">
  <defs>
    <style>
      .cls-1 {
        fill: #4170ff;
        stroke-width: 0px;
      }
    </style>
  </defs>
  <path class="cls-1" d="M5.5,44.82c-1.27,0-2.36-.45-3.27-1.36-.91-.91-1.36-1.99-1.36-3.27V7.81c0-1.27.45-2.36,1.36-3.27s1.99-1.36,3.27-1.36h32.38c1.27,0,2.36.45,3.27,1.36s1.36,1.99,1.36,3.27v4.63h4.63v4.63h-4.63v4.63h4.63v4.63h-4.63v4.63h4.63v4.63h-4.63v4.63c0,1.27-.45,2.36-1.36,3.27-.91.91-1.99,1.36-3.27,1.36H5.5ZM10.12,35.57h11.57v-9.25h-11.57v9.25ZM24,19.37h9.25v-6.94h-9.25v6.94ZM10.12,24h11.57v-11.57h-11.57v11.57ZM24,35.57h9.25v-13.88h-9.25v13.88Z"/>
</svg>