<?xml version="1.0" encoding="UTF-8"?>
<svg id="Layer_1" data-name="Layer 1" xmlns="http://www.w3.org/2000/svg" viewBox="0 0 48 48">
  <defs>
    <style>
      .cls-1 {
        fill: #4170ff;
        stroke-width: 0px;
      }
    </style>
  </defs>
  <path class="cls-1" d="M21.42,47.2l-2.89-2.94,3.76-3.76h-6.91c-.45,1.2-1.19,2.19-2.24,2.96-1.05.77-2.24,1.16-3.58,1.16-1.72,0-3.18-.6-4.38-1.8-1.2-1.2-1.8-2.66-1.8-4.38,0-1.34.39-2.53,1.16-3.58.77-1.05,1.76-1.8,2.96-2.24V15.39c-1.2-.45-2.19-1.19-2.96-2.24-.77-1.05-1.16-2.24-1.16-3.58,0-1.72.6-3.18,1.8-4.38,1.2-1.2,2.66-1.8,4.38-1.8,1.34,0,2.53.39,3.58,1.16,1.05.77,1.8,1.76,2.24,2.96h6.91l-3.76-3.76,2.89-2.94,8.76,8.76-8.76,8.76-2.89-2.94,3.76-3.76h-6.91c-.31.89-.79,1.67-1.44,2.32-.65.65-1.43,1.13-2.32,1.44v17.22c.89.31,1.67.79,2.32,1.44.65.65,1.13,1.43,1.44,2.32h6.91l-3.76-3.76,2.89-2.94,8.76,8.76-8.76,8.76ZM38.44,44.62c-1.72,0-3.18-.6-4.38-1.8-1.2-1.2-1.8-2.66-1.8-4.38,0-1.37.39-2.59,1.16-3.63.77-1.05,1.76-1.78,2.96-2.19V15.39c-1.2-.41-2.19-1.14-2.96-2.19-.77-1.05-1.16-2.26-1.16-3.63,0-1.72.6-3.18,1.8-4.38s2.66-1.8,4.38-1.8,3.18.6,4.38,1.8,1.8,2.66,1.8,4.38c0,1.37-.39,2.59-1.16,3.63-.77,1.05-1.76,1.78-2.96,2.19v17.22c1.2.45,2.19,1.19,2.96,2.24.77,1.05,1.16,2.24,1.16,3.58,0,1.72-.6,3.18-1.8,4.38-1.2,1.2-2.66,1.8-4.38,1.8Z"/>
</svg>