<?xml version="1.0" encoding="UTF-8"?>
<svg id="Layer_1" data-name="Layer 1" xmlns="http://www.w3.org/2000/svg" viewBox="0 0 48 48">
  <defs>
    <style>
      .cls-1 {
        fill: #4170ff;
        stroke-width: 0px;
      }
    </style>
  </defs>
  <path class="cls-1" d="M9.46,18.41h11.19v-4.47h-11.19v4.47ZM4.98,38.54c-1.23,0-2.28-.44-3.16-1.31s-1.31-1.93-1.31-3.16V7.22c0-1.23.44-2.28,1.31-3.16s1.93-1.31,3.16-1.31h35.79c.97,0,1.85.29,2.63.87s1.32,1.31,1.62,2.21c-.63-.3-1.31-.51-2.04-.64s-1.46-.2-2.21-.2c-3.09,0-5.73,1.09-7.91,3.27s-3.27,4.82-3.27,7.91c0,.82.07,1.6.22,2.35.15.75.37,1.45.67,2.13h-9.84v2.24h-11.19v4.47h11.19v2.24c-1.42,1.01-2.52,2.28-3.3,3.83-.78,1.55-1.17,3.25-1.17,5.12H4.98ZM27.36,40.78c.63,0,1.17-.21,1.59-.64.43-.43.64-.96.64-1.59s-.21-1.17-.64-1.59-.96-.64-1.59-.64-1.17.21-1.59.64-.64.96-.64,1.59.21,1.17.64,1.59c.43.43.96.64,1.59.64ZM40.78,18.41c.63,0,1.17-.21,1.59-.64s.64-.96.64-1.59-.21-1.17-.64-1.59-.96-.64-1.59-.64-1.17.21-1.59.64-.64.96-.64,1.59.21,1.17.64,1.59.96.64,1.59.64ZM27.36,45.25c-1.86,0-3.45-.65-4.75-1.96-1.3-1.3-1.96-2.89-1.96-4.75,0-1.45.42-2.76,1.26-3.91.84-1.16,1.91-1.96,3.22-2.4v-7.1h13.42v-2.63c-1.3-.45-2.38-1.25-3.22-2.4-.84-1.16-1.26-2.46-1.26-3.91,0-1.86.65-3.45,1.96-4.75s2.89-1.96,4.75-1.96,3.45.65,4.75,1.96c1.3,1.3,1.96,2.89,1.96,4.75,0,1.45-.42,2.76-1.26,3.91-.84,1.16-1.91,1.96-3.22,2.4v7.1h-13.42v2.63c1.3.45,2.38,1.25,3.22,2.4.84,1.16,1.26,2.46,1.26,3.91,0,1.86-.65,3.45-1.96,4.75-1.3,1.3-2.89,1.96-4.75,1.96Z"/>
</svg>