<?xml version="1.0" encoding="UTF-8"?>
<svg id="Layer_1" data-name="Layer 1" xmlns="http://www.w3.org/2000/svg" viewBox="0 0 48 48">
  <defs>
    <style>
      .cls-1 {
        fill: #4170ff;
        stroke-width: 0px;
      }
    </style>
  </defs>
  <path class="cls-1" d="M1.28,38.13v-4.69h6.45l-.94-.82c-2.03-1.8-3.46-3.85-4.28-6.16-.82-2.31-1.23-4.63-1.23-6.98,0-4.34,1.3-8.2,3.9-11.58,2.6-3.38,5.99-5.62,10.17-6.71v4.93c-2.81,1.02-5.08,2.75-6.8,5.19-1.72,2.44-2.58,5.17-2.58,8.18,0,1.76.33,3.47,1,5.13.66,1.66,1.7,3.2,3.11,4.6l.59.59v-5.75h4.69v14.07H1.28ZM43.32,17.02h-4.75c-.2-1.37-.62-2.68-1.26-3.93s-1.51-2.44-2.61-3.58l-.59-.59v5.75h-4.69V.6h14.07v4.69h-6.45l.94.82c1.6,1.64,2.83,3.38,3.69,5.22s1.41,3.73,1.64,5.69ZM30.39,47.4l-.84-4.19c-.56-.23-1.08-.48-1.57-.73s-.99-.57-1.5-.94l-4.05,1.26-2.79-4.75,3.21-2.79c-.09-.65-.14-1.26-.14-1.81s.05-1.16.14-1.81l-3.21-2.79,2.79-4.75,4.05,1.26c.51-.37,1.01-.69,1.5-.94s1.01-.5,1.57-.73l.84-4.19h5.58l.84,4.19c.56.23,1.08.49,1.57.77.49.28.99.63,1.5,1.05l4.05-1.4,2.79,4.89-3.21,2.79c.09.56.14,1.14.14,1.74s-.05,1.19-.14,1.74l3.21,2.79-2.79,4.75-4.05-1.26c-.51.37-1.01.69-1.5.94s-1.01.5-1.57.73l-.84,4.19h-5.58ZM33.18,39.02c1.54,0,2.85-.55,3.94-1.64s1.64-2.41,1.64-3.94-.55-2.85-1.64-3.94-2.41-1.64-3.94-1.64-2.85.55-3.94,1.64c-1.09,1.09-1.64,2.41-1.64,3.94s.55,2.85,1.64,3.94,2.41,1.64,3.94,1.64Z"/>
</svg>