<?xml version="1.0" encoding="UTF-8"?>
<svg id="Layer_1" data-name="Layer 1" xmlns="http://www.w3.org/2000/svg" viewBox="0 0 48 48">
  <defs>
    <style>
      .cls-1 {
        fill: #4170ff;
        stroke-width: 0px;
      }
    </style>
  </defs>
  <path class="cls-1" d="M24,19.75l-7.43-7.43,7.43-7.43,7.43,7.43-7.43,7.43ZM.64,43.12v-8.5c0-1.2.42-2.21,1.25-3.03.83-.81,1.83-1.22,3-1.22h6.96c.71,0,1.38.18,2.02.53s1.15.83,1.54,1.43c1.03,1.38,2.29,2.46,3.8,3.24s3.11,1.17,4.81,1.17,3.35-.39,4.86-1.17,2.75-1.86,3.74-3.24c.46-.6,1-1.08,1.62-1.43s1.27-.53,1.94-.53h6.96c1.2,0,2.21.41,3.03,1.22s1.22,1.82,1.22,3.03v8.5h-14.87v-4.83c-1.24.88-2.58,1.56-4.01,2.02s-2.93.69-4.49.69-3.01-.24-4.46-.72c-1.45-.48-2.8-1.16-4.04-2.04v4.88H.64ZM7.01,28.25c-1.77,0-3.27-.62-4.51-1.86-1.24-1.24-1.86-2.74-1.86-4.51s.62-3.32,1.86-4.54c1.24-1.22,2.74-1.83,4.51-1.83s3.32.61,4.54,1.83c1.22,1.22,1.83,2.73,1.83,4.54s-.61,3.27-1.83,4.51c-1.22,1.24-2.73,1.86-4.54,1.86ZM40.99,28.25c-1.77,0-3.27-.62-4.51-1.86-1.24-1.24-1.86-2.74-1.86-4.51s.62-3.32,1.86-4.54c1.24-1.22,2.74-1.83,4.51-1.83s3.32.61,4.54,1.83,1.83,2.73,1.83,4.54-.61,3.27-1.83,4.51c-1.22,1.24-2.73,1.86-4.54,1.86Z"/>
</svg>